G04 #@! TF.GenerationSoftware,KiCad,Pcbnew,9.0.9-9.0.9~ubuntu22.04.1*
G04 #@! TF.CreationDate,2026-06-30T17:23:50-06:00*
G04 #@! TF.ProjectId,ckt-axle-indicator,636b742d-6178-46c6-952d-696e64696361,rev?*
G04 #@! TF.SameCoordinates,Original*
G04 #@! TF.FileFunction,Soldermask,Top*
G04 #@! TF.FilePolarity,Negative*
%FSLAX46Y46*%
G04 Gerber Fmt 4.6, Leading zero omitted, Abs format (unit mm)*
G04 Created by KiCad (PCBNEW 9.0.9-9.0.9~ubuntu22.04.1) date 2026-06-30 17:23:50*
%MOMM*%
%LPD*%
G01*
G04 APERTURE LIST*
%ADD10C,8.152400*%
G04 APERTURE END LIST*
D10*
X152400000Y-106426000D03*
G36*
G01*
X135226200Y-106238900D02*
X135226200Y-107565100D01*
G75*
G02*
X135038100Y-107753200I-188100J0D01*
G01*
X134661900Y-107753200D01*
G75*
G02*
X134473800Y-107565100I0J188100D01*
G01*
X134473800Y-106238900D01*
G75*
G02*
X134661900Y-106050800I188100J0D01*
G01*
X135038100Y-106050800D01*
G75*
G02*
X135226200Y-106238900I0J-188100D01*
G01*
G37*
G36*
G01*
X134226200Y-106238900D02*
X134226200Y-107565100D01*
G75*
G02*
X134038100Y-107753200I-188100J0D01*
G01*
X133661900Y-107753200D01*
G75*
G02*
X133473800Y-107565100I0J188100D01*
G01*
X133473800Y-106238900D01*
G75*
G02*
X133661900Y-106050800I188100J0D01*
G01*
X134038100Y-106050800D01*
G75*
G02*
X134226200Y-106238900I0J-188100D01*
G01*
G37*
G36*
G01*
X133226200Y-106238900D02*
X133226200Y-107565100D01*
G75*
G02*
X133038100Y-107753200I-188100J0D01*
G01*
X132661900Y-107753200D01*
G75*
G02*
X132473800Y-107565100I0J188100D01*
G01*
X132473800Y-106238900D01*
G75*
G02*
X132661900Y-106050800I188100J0D01*
G01*
X133038100Y-106050800D01*
G75*
G02*
X133226200Y-106238900I0J-188100D01*
G01*
G37*
G36*
G01*
X132226200Y-106238900D02*
X132226200Y-107565100D01*
G75*
G02*
X132038100Y-107753200I-188100J0D01*
G01*
X131661900Y-107753200D01*
G75*
G02*
X131473800Y-107565100I0J188100D01*
G01*
X131473800Y-106238900D01*
G75*
G02*
X131661900Y-106050800I188100J0D01*
G01*
X132038100Y-106050800D01*
G75*
G02*
X132226200Y-106238900I0J-188100D01*
G01*
G37*
G36*
G01*
X136826200Y-102332550D02*
X136826200Y-103721450D01*
G75*
G02*
X136544450Y-104003200I-281750J0D01*
G01*
X135755550Y-104003200D01*
G75*
G02*
X135473800Y-103721450I0J281750D01*
G01*
X135473800Y-102332550D01*
G75*
G02*
X135755550Y-102050800I281750J0D01*
G01*
X136544450Y-102050800D01*
G75*
G02*
X136826200Y-102332550I0J-281750D01*
G01*
G37*
G36*
G01*
X131226200Y-102332550D02*
X131226200Y-103721450D01*
G75*
G02*
X130944450Y-104003200I-281750J0D01*
G01*
X130155550Y-104003200D01*
G75*
G02*
X129873800Y-103721450I0J281750D01*
G01*
X129873800Y-102332550D01*
G75*
G02*
X130155550Y-102050800I281750J0D01*
G01*
X130944450Y-102050800D01*
G75*
G02*
X131226200Y-102332550I0J-281750D01*
G01*
G37*
G36*
G01*
X142839280Y-112960800D02*
X144180720Y-112960800D01*
G75*
G02*
X144461200Y-113241280I0J-280480D01*
G01*
X144461200Y-114082720D01*
G75*
G02*
X144180720Y-114363200I-280480J0D01*
G01*
X142839280Y-114363200D01*
G75*
G02*
X142558800Y-114082720I0J280480D01*
G01*
X142558800Y-113241280D01*
G75*
G02*
X142839280Y-112960800I280480J0D01*
G01*
G37*
G36*
G01*
X142839280Y-115760800D02*
X144180720Y-115760800D01*
G75*
G02*
X144461200Y-116041280I0J-280480D01*
G01*
X144461200Y-116882720D01*
G75*
G02*
X144180720Y-117163200I-280480J0D01*
G01*
X142839280Y-117163200D01*
G75*
G02*
X142558800Y-116882720I0J280480D01*
G01*
X142558800Y-116041280D01*
G75*
G02*
X142839280Y-115760800I280480J0D01*
G01*
G37*
G36*
G01*
X160619280Y-112960800D02*
X161960720Y-112960800D01*
G75*
G02*
X162241200Y-113241280I0J-280480D01*
G01*
X162241200Y-114082720D01*
G75*
G02*
X161960720Y-114363200I-280480J0D01*
G01*
X160619280Y-114363200D01*
G75*
G02*
X160338800Y-114082720I0J280480D01*
G01*
X160338800Y-113241280D01*
G75*
G02*
X160619280Y-112960800I280480J0D01*
G01*
G37*
G36*
G01*
X160619280Y-115760800D02*
X161960720Y-115760800D01*
G75*
G02*
X162241200Y-116041280I0J-280480D01*
G01*
X162241200Y-116882720D01*
G75*
G02*
X161960720Y-117163200I-280480J0D01*
G01*
X160619280Y-117163200D01*
G75*
G02*
X160338800Y-116882720I0J280480D01*
G01*
X160338800Y-116041280D01*
G75*
G02*
X160619280Y-115760800I280480J0D01*
G01*
G37*
G36*
G01*
X160800970Y-106451800D02*
X161779030Y-106451800D01*
G75*
G02*
X162066200Y-106738970I0J-287170D01*
G01*
X162066200Y-107342030D01*
G75*
G02*
X161779030Y-107629200I-287170J0D01*
G01*
X160800970Y-107629200D01*
G75*
G02*
X160513800Y-107342030I0J287170D01*
G01*
X160513800Y-106738970D01*
G75*
G02*
X160800970Y-106451800I287170J0D01*
G01*
G37*
G36*
G01*
X160800970Y-108276800D02*
X161779030Y-108276800D01*
G75*
G02*
X162066200Y-108563970I0J-287170D01*
G01*
X162066200Y-109167030D01*
G75*
G02*
X161779030Y-109454200I-287170J0D01*
G01*
X160800970Y-109454200D01*
G75*
G02*
X160513800Y-109167030I0J287170D01*
G01*
X160513800Y-108563970D01*
G75*
G02*
X160800970Y-108276800I287170J0D01*
G01*
G37*
G36*
G01*
X169573800Y-122361100D02*
X169573800Y-121034900D01*
G75*
G02*
X169761900Y-120846800I188100J0D01*
G01*
X170138100Y-120846800D01*
G75*
G02*
X170326200Y-121034900I0J-188100D01*
G01*
X170326200Y-122361100D01*
G75*
G02*
X170138100Y-122549200I-188100J0D01*
G01*
X169761900Y-122549200D01*
G75*
G02*
X169573800Y-122361100I0J188100D01*
G01*
G37*
G36*
G01*
X170573800Y-122361100D02*
X170573800Y-121034900D01*
G75*
G02*
X170761900Y-120846800I188100J0D01*
G01*
X171138100Y-120846800D01*
G75*
G02*
X171326200Y-121034900I0J-188100D01*
G01*
X171326200Y-122361100D01*
G75*
G02*
X171138100Y-122549200I-188100J0D01*
G01*
X170761900Y-122549200D01*
G75*
G02*
X170573800Y-122361100I0J188100D01*
G01*
G37*
G36*
G01*
X171573800Y-122361100D02*
X171573800Y-121034900D01*
G75*
G02*
X171761900Y-120846800I188100J0D01*
G01*
X172138100Y-120846800D01*
G75*
G02*
X172326200Y-121034900I0J-188100D01*
G01*
X172326200Y-122361100D01*
G75*
G02*
X172138100Y-122549200I-188100J0D01*
G01*
X171761900Y-122549200D01*
G75*
G02*
X171573800Y-122361100I0J188100D01*
G01*
G37*
G36*
G01*
X172573800Y-122361100D02*
X172573800Y-121034900D01*
G75*
G02*
X172761900Y-120846800I188100J0D01*
G01*
X173138100Y-120846800D01*
G75*
G02*
X173326200Y-121034900I0J-188100D01*
G01*
X173326200Y-122361100D01*
G75*
G02*
X173138100Y-122549200I-188100J0D01*
G01*
X172761900Y-122549200D01*
G75*
G02*
X172573800Y-122361100I0J188100D01*
G01*
G37*
G36*
G01*
X167973800Y-126267450D02*
X167973800Y-124878550D01*
G75*
G02*
X168255550Y-124596800I281750J0D01*
G01*
X169044450Y-124596800D01*
G75*
G02*
X169326200Y-124878550I0J-281750D01*
G01*
X169326200Y-126267450D01*
G75*
G02*
X169044450Y-126549200I-281750J0D01*
G01*
X168255550Y-126549200D01*
G75*
G02*
X167973800Y-126267450I0J281750D01*
G01*
G37*
G36*
G01*
X173573800Y-126267450D02*
X173573800Y-124878550D01*
G75*
G02*
X173855550Y-124596800I281750J0D01*
G01*
X174644450Y-124596800D01*
G75*
G02*
X174926200Y-124878550I0J-281750D01*
G01*
X174926200Y-126267450D01*
G75*
G02*
X174644450Y-126549200I-281750J0D01*
G01*
X173855550Y-126549200D01*
G75*
G02*
X173573800Y-126267450I0J281750D01*
G01*
G37*
G36*
G01*
X143020970Y-106448800D02*
X143999030Y-106448800D01*
G75*
G02*
X144286200Y-106735970I0J-287170D01*
G01*
X144286200Y-107339030D01*
G75*
G02*
X143999030Y-107626200I-287170J0D01*
G01*
X143020970Y-107626200D01*
G75*
G02*
X142733800Y-107339030I0J287170D01*
G01*
X142733800Y-106735970D01*
G75*
G02*
X143020970Y-106448800I287170J0D01*
G01*
G37*
G36*
G01*
X143020970Y-108273800D02*
X143999030Y-108273800D01*
G75*
G02*
X144286200Y-108560970I0J-287170D01*
G01*
X144286200Y-109164030D01*
G75*
G02*
X143999030Y-109451200I-287170J0D01*
G01*
X143020970Y-109451200D01*
G75*
G02*
X142733800Y-109164030I0J287170D01*
G01*
X142733800Y-108560970D01*
G75*
G02*
X143020970Y-108273800I287170J0D01*
G01*
G37*
G36*
G01*
X131473800Y-122361100D02*
X131473800Y-121034900D01*
G75*
G02*
X131661900Y-120846800I188100J0D01*
G01*
X132038100Y-120846800D01*
G75*
G02*
X132226200Y-121034900I0J-188100D01*
G01*
X132226200Y-122361100D01*
G75*
G02*
X132038100Y-122549200I-188100J0D01*
G01*
X131661900Y-122549200D01*
G75*
G02*
X131473800Y-122361100I0J188100D01*
G01*
G37*
G36*
G01*
X132473800Y-122361100D02*
X132473800Y-121034900D01*
G75*
G02*
X132661900Y-120846800I188100J0D01*
G01*
X133038100Y-120846800D01*
G75*
G02*
X133226200Y-121034900I0J-188100D01*
G01*
X133226200Y-122361100D01*
G75*
G02*
X133038100Y-122549200I-188100J0D01*
G01*
X132661900Y-122549200D01*
G75*
G02*
X132473800Y-122361100I0J188100D01*
G01*
G37*
G36*
G01*
X133473800Y-122361100D02*
X133473800Y-121034900D01*
G75*
G02*
X133661900Y-120846800I188100J0D01*
G01*
X134038100Y-120846800D01*
G75*
G02*
X134226200Y-121034900I0J-188100D01*
G01*
X134226200Y-122361100D01*
G75*
G02*
X134038100Y-122549200I-188100J0D01*
G01*
X133661900Y-122549200D01*
G75*
G02*
X133473800Y-122361100I0J188100D01*
G01*
G37*
G36*
G01*
X134473800Y-122361100D02*
X134473800Y-121034900D01*
G75*
G02*
X134661900Y-120846800I188100J0D01*
G01*
X135038100Y-120846800D01*
G75*
G02*
X135226200Y-121034900I0J-188100D01*
G01*
X135226200Y-122361100D01*
G75*
G02*
X135038100Y-122549200I-188100J0D01*
G01*
X134661900Y-122549200D01*
G75*
G02*
X134473800Y-122361100I0J188100D01*
G01*
G37*
G36*
G01*
X129873800Y-126267450D02*
X129873800Y-124878550D01*
G75*
G02*
X130155550Y-124596800I281750J0D01*
G01*
X130944450Y-124596800D01*
G75*
G02*
X131226200Y-124878550I0J-281750D01*
G01*
X131226200Y-126267450D01*
G75*
G02*
X130944450Y-126549200I-281750J0D01*
G01*
X130155550Y-126549200D01*
G75*
G02*
X129873800Y-126267450I0J281750D01*
G01*
G37*
G36*
G01*
X135473800Y-126267450D02*
X135473800Y-124878550D01*
G75*
G02*
X135755550Y-124596800I281750J0D01*
G01*
X136544450Y-124596800D01*
G75*
G02*
X136826200Y-124878550I0J-281750D01*
G01*
X136826200Y-126267450D01*
G75*
G02*
X136544450Y-126549200I-281750J0D01*
G01*
X135755550Y-126549200D01*
G75*
G02*
X135473800Y-126267450I0J281750D01*
G01*
G37*
G36*
G01*
X173326200Y-106238900D02*
X173326200Y-107565100D01*
G75*
G02*
X173138100Y-107753200I-188100J0D01*
G01*
X172761900Y-107753200D01*
G75*
G02*
X172573800Y-107565100I0J188100D01*
G01*
X172573800Y-106238900D01*
G75*
G02*
X172761900Y-106050800I188100J0D01*
G01*
X173138100Y-106050800D01*
G75*
G02*
X173326200Y-106238900I0J-188100D01*
G01*
G37*
G36*
G01*
X172326200Y-106238900D02*
X172326200Y-107565100D01*
G75*
G02*
X172138100Y-107753200I-188100J0D01*
G01*
X171761900Y-107753200D01*
G75*
G02*
X171573800Y-107565100I0J188100D01*
G01*
X171573800Y-106238900D01*
G75*
G02*
X171761900Y-106050800I188100J0D01*
G01*
X172138100Y-106050800D01*
G75*
G02*
X172326200Y-106238900I0J-188100D01*
G01*
G37*
G36*
G01*
X171326200Y-106238900D02*
X171326200Y-107565100D01*
G75*
G02*
X171138100Y-107753200I-188100J0D01*
G01*
X170761900Y-107753200D01*
G75*
G02*
X170573800Y-107565100I0J188100D01*
G01*
X170573800Y-106238900D01*
G75*
G02*
X170761900Y-106050800I188100J0D01*
G01*
X171138100Y-106050800D01*
G75*
G02*
X171326200Y-106238900I0J-188100D01*
G01*
G37*
G36*
G01*
X170326200Y-106238900D02*
X170326200Y-107565100D01*
G75*
G02*
X170138100Y-107753200I-188100J0D01*
G01*
X169761900Y-107753200D01*
G75*
G02*
X169573800Y-107565100I0J188100D01*
G01*
X169573800Y-106238900D01*
G75*
G02*
X169761900Y-106050800I188100J0D01*
G01*
X170138100Y-106050800D01*
G75*
G02*
X170326200Y-106238900I0J-188100D01*
G01*
G37*
G36*
G01*
X174926200Y-102332550D02*
X174926200Y-103721450D01*
G75*
G02*
X174644450Y-104003200I-281750J0D01*
G01*
X173855550Y-104003200D01*
G75*
G02*
X173573800Y-103721450I0J281750D01*
G01*
X173573800Y-102332550D01*
G75*
G02*
X173855550Y-102050800I281750J0D01*
G01*
X174644450Y-102050800D01*
G75*
G02*
X174926200Y-102332550I0J-281750D01*
G01*
G37*
G36*
G01*
X169326200Y-102332550D02*
X169326200Y-103721450D01*
G75*
G02*
X169044450Y-104003200I-281750J0D01*
G01*
X168255550Y-104003200D01*
G75*
G02*
X167973800Y-103721450I0J281750D01*
G01*
X167973800Y-102332550D01*
G75*
G02*
X168255550Y-102050800I281750J0D01*
G01*
X169044450Y-102050800D01*
G75*
G02*
X169326200Y-102332550I0J-281750D01*
G01*
G37*
M02*
