G04 #@! TF.GenerationSoftware,KiCad,Pcbnew,9.0.9-9.0.9~ubuntu22.04.1*
G04 #@! TF.CreationDate,2026-06-30T17:23:50-06:00*
G04 #@! TF.ProjectId,ckt-axle-indicator,636b742d-6178-46c6-952d-696e64696361,rev?*
G04 #@! TF.SameCoordinates,Original*
G04 #@! TF.FileFunction,Copper,L1,Top*
G04 #@! TF.FilePolarity,Positive*
%FSLAX46Y46*%
G04 Gerber Fmt 4.6, Leading zero omitted, Abs format (unit mm)*
G04 Created by KiCad (PCBNEW 9.0.9-9.0.9~ubuntu22.04.1) date 2026-06-30 17:23:50*
%MOMM*%
%LPD*%
G01*
G04 APERTURE LIST*
G04 #@! TA.AperFunction,ComponentPad*
%ADD10C,8.000000*%
G04 #@! TD*
G04 #@! TA.AperFunction,ViaPad*
%ADD11C,0.609600*%
G04 #@! TD*
G04 #@! TA.AperFunction,Conductor*
%ADD12C,0.254000*%
G04 #@! TD*
G04 APERTURE END LIST*
D10*
X152400000Y-106426000D03*
G04 #@! TA.AperFunction,SMDPad,CuDef*
G36*
G01*
X135150000Y-106277000D02*
X135150000Y-107527000D01*
G75*
G02*
X135000000Y-107677000I-150000J0D01*
G01*
X134700000Y-107677000D01*
G75*
G02*
X134550000Y-107527000I0J150000D01*
G01*
X134550000Y-106277000D01*
G75*
G02*
X134700000Y-106127000I150000J0D01*
G01*
X135000000Y-106127000D01*
G75*
G02*
X135150000Y-106277000I0J-150000D01*
G01*
G37*
G04 #@! TD.AperFunction*
G04 #@! TA.AperFunction,SMDPad,CuDef*
G36*
G01*
X134150000Y-106277000D02*
X134150000Y-107527000D01*
G75*
G02*
X134000000Y-107677000I-150000J0D01*
G01*
X133700000Y-107677000D01*
G75*
G02*
X133550000Y-107527000I0J150000D01*
G01*
X133550000Y-106277000D01*
G75*
G02*
X133700000Y-106127000I150000J0D01*
G01*
X134000000Y-106127000D01*
G75*
G02*
X134150000Y-106277000I0J-150000D01*
G01*
G37*
G04 #@! TD.AperFunction*
G04 #@! TA.AperFunction,SMDPad,CuDef*
G36*
G01*
X133150000Y-106277000D02*
X133150000Y-107527000D01*
G75*
G02*
X133000000Y-107677000I-150000J0D01*
G01*
X132700000Y-107677000D01*
G75*
G02*
X132550000Y-107527000I0J150000D01*
G01*
X132550000Y-106277000D01*
G75*
G02*
X132700000Y-106127000I150000J0D01*
G01*
X133000000Y-106127000D01*
G75*
G02*
X133150000Y-106277000I0J-150000D01*
G01*
G37*
G04 #@! TD.AperFunction*
G04 #@! TA.AperFunction,SMDPad,CuDef*
G36*
G01*
X132150000Y-106277000D02*
X132150000Y-107527000D01*
G75*
G02*
X132000000Y-107677000I-150000J0D01*
G01*
X131700000Y-107677000D01*
G75*
G02*
X131550000Y-107527000I0J150000D01*
G01*
X131550000Y-106277000D01*
G75*
G02*
X131700000Y-106127000I150000J0D01*
G01*
X132000000Y-106127000D01*
G75*
G02*
X132150000Y-106277000I0J-150000D01*
G01*
G37*
G04 #@! TD.AperFunction*
G04 #@! TA.AperFunction,SMDPad,CuDef*
G36*
G01*
X136750000Y-102377000D02*
X136750000Y-103677000D01*
G75*
G02*
X136500000Y-103927000I-250000J0D01*
G01*
X135800000Y-103927000D01*
G75*
G02*
X135550000Y-103677000I0J250000D01*
G01*
X135550000Y-102377000D01*
G75*
G02*
X135800000Y-102127000I250000J0D01*
G01*
X136500000Y-102127000D01*
G75*
G02*
X136750000Y-102377000I0J-250000D01*
G01*
G37*
G04 #@! TD.AperFunction*
G04 #@! TA.AperFunction,SMDPad,CuDef*
G36*
G01*
X131150000Y-102377000D02*
X131150000Y-103677000D01*
G75*
G02*
X130900000Y-103927000I-250000J0D01*
G01*
X130200000Y-103927000D01*
G75*
G02*
X129950000Y-103677000I0J250000D01*
G01*
X129950000Y-102377000D01*
G75*
G02*
X130200000Y-102127000I250000J0D01*
G01*
X130900000Y-102127000D01*
G75*
G02*
X131150000Y-102377000I0J-250000D01*
G01*
G37*
G04 #@! TD.AperFunction*
G04 #@! TA.AperFunction,SMDPad,CuDef*
G36*
G01*
X142885000Y-113037000D02*
X144135000Y-113037000D01*
G75*
G02*
X144385000Y-113287000I0J-250000D01*
G01*
X144385000Y-114037000D01*
G75*
G02*
X144135000Y-114287000I-250000J0D01*
G01*
X142885000Y-114287000D01*
G75*
G02*
X142635000Y-114037000I0J250000D01*
G01*
X142635000Y-113287000D01*
G75*
G02*
X142885000Y-113037000I250000J0D01*
G01*
G37*
G04 #@! TD.AperFunction*
G04 #@! TA.AperFunction,SMDPad,CuDef*
G36*
G01*
X142885000Y-115837000D02*
X144135000Y-115837000D01*
G75*
G02*
X144385000Y-116087000I0J-250000D01*
G01*
X144385000Y-116837000D01*
G75*
G02*
X144135000Y-117087000I-250000J0D01*
G01*
X142885000Y-117087000D01*
G75*
G02*
X142635000Y-116837000I0J250000D01*
G01*
X142635000Y-116087000D01*
G75*
G02*
X142885000Y-115837000I250000J0D01*
G01*
G37*
G04 #@! TD.AperFunction*
G04 #@! TA.AperFunction,SMDPad,CuDef*
G36*
G01*
X160665000Y-113037000D02*
X161915000Y-113037000D01*
G75*
G02*
X162165000Y-113287000I0J-250000D01*
G01*
X162165000Y-114037000D01*
G75*
G02*
X161915000Y-114287000I-250000J0D01*
G01*
X160665000Y-114287000D01*
G75*
G02*
X160415000Y-114037000I0J250000D01*
G01*
X160415000Y-113287000D01*
G75*
G02*
X160665000Y-113037000I250000J0D01*
G01*
G37*
G04 #@! TD.AperFunction*
G04 #@! TA.AperFunction,SMDPad,CuDef*
G36*
G01*
X160665000Y-115837000D02*
X161915000Y-115837000D01*
G75*
G02*
X162165000Y-116087000I0J-250000D01*
G01*
X162165000Y-116837000D01*
G75*
G02*
X161915000Y-117087000I-250000J0D01*
G01*
X160665000Y-117087000D01*
G75*
G02*
X160415000Y-116837000I0J250000D01*
G01*
X160415000Y-116087000D01*
G75*
G02*
X160665000Y-115837000I250000J0D01*
G01*
G37*
G04 #@! TD.AperFunction*
G04 #@! TA.AperFunction,SMDPad,CuDef*
G36*
G01*
X160840000Y-106528000D02*
X161740000Y-106528000D01*
G75*
G02*
X161990000Y-106778000I0J-250000D01*
G01*
X161990000Y-107303000D01*
G75*
G02*
X161740000Y-107553000I-250000J0D01*
G01*
X160840000Y-107553000D01*
G75*
G02*
X160590000Y-107303000I0J250000D01*
G01*
X160590000Y-106778000D01*
G75*
G02*
X160840000Y-106528000I250000J0D01*
G01*
G37*
G04 #@! TD.AperFunction*
G04 #@! TA.AperFunction,SMDPad,CuDef*
G36*
G01*
X160840000Y-108353000D02*
X161740000Y-108353000D01*
G75*
G02*
X161990000Y-108603000I0J-250000D01*
G01*
X161990000Y-109128000D01*
G75*
G02*
X161740000Y-109378000I-250000J0D01*
G01*
X160840000Y-109378000D01*
G75*
G02*
X160590000Y-109128000I0J250000D01*
G01*
X160590000Y-108603000D01*
G75*
G02*
X160840000Y-108353000I250000J0D01*
G01*
G37*
G04 #@! TD.AperFunction*
G04 #@! TA.AperFunction,SMDPad,CuDef*
G36*
G01*
X169650000Y-122323000D02*
X169650000Y-121073000D01*
G75*
G02*
X169800000Y-120923000I150000J0D01*
G01*
X170100000Y-120923000D01*
G75*
G02*
X170250000Y-121073000I0J-150000D01*
G01*
X170250000Y-122323000D01*
G75*
G02*
X170100000Y-122473000I-150000J0D01*
G01*
X169800000Y-122473000D01*
G75*
G02*
X169650000Y-122323000I0J150000D01*
G01*
G37*
G04 #@! TD.AperFunction*
G04 #@! TA.AperFunction,SMDPad,CuDef*
G36*
G01*
X170650000Y-122323000D02*
X170650000Y-121073000D01*
G75*
G02*
X170800000Y-120923000I150000J0D01*
G01*
X171100000Y-120923000D01*
G75*
G02*
X171250000Y-121073000I0J-150000D01*
G01*
X171250000Y-122323000D01*
G75*
G02*
X171100000Y-122473000I-150000J0D01*
G01*
X170800000Y-122473000D01*
G75*
G02*
X170650000Y-122323000I0J150000D01*
G01*
G37*
G04 #@! TD.AperFunction*
G04 #@! TA.AperFunction,SMDPad,CuDef*
G36*
G01*
X171650000Y-122323000D02*
X171650000Y-121073000D01*
G75*
G02*
X171800000Y-120923000I150000J0D01*
G01*
X172100000Y-120923000D01*
G75*
G02*
X172250000Y-121073000I0J-150000D01*
G01*
X172250000Y-122323000D01*
G75*
G02*
X172100000Y-122473000I-150000J0D01*
G01*
X171800000Y-122473000D01*
G75*
G02*
X171650000Y-122323000I0J150000D01*
G01*
G37*
G04 #@! TD.AperFunction*
G04 #@! TA.AperFunction,SMDPad,CuDef*
G36*
G01*
X172650000Y-122323000D02*
X172650000Y-121073000D01*
G75*
G02*
X172800000Y-120923000I150000J0D01*
G01*
X173100000Y-120923000D01*
G75*
G02*
X173250000Y-121073000I0J-150000D01*
G01*
X173250000Y-122323000D01*
G75*
G02*
X173100000Y-122473000I-150000J0D01*
G01*
X172800000Y-122473000D01*
G75*
G02*
X172650000Y-122323000I0J150000D01*
G01*
G37*
G04 #@! TD.AperFunction*
G04 #@! TA.AperFunction,SMDPad,CuDef*
G36*
G01*
X168050000Y-126223000D02*
X168050000Y-124923000D01*
G75*
G02*
X168300000Y-124673000I250000J0D01*
G01*
X169000000Y-124673000D01*
G75*
G02*
X169250000Y-124923000I0J-250000D01*
G01*
X169250000Y-126223000D01*
G75*
G02*
X169000000Y-126473000I-250000J0D01*
G01*
X168300000Y-126473000D01*
G75*
G02*
X168050000Y-126223000I0J250000D01*
G01*
G37*
G04 #@! TD.AperFunction*
G04 #@! TA.AperFunction,SMDPad,CuDef*
G36*
G01*
X173650000Y-126223000D02*
X173650000Y-124923000D01*
G75*
G02*
X173900000Y-124673000I250000J0D01*
G01*
X174600000Y-124673000D01*
G75*
G02*
X174850000Y-124923000I0J-250000D01*
G01*
X174850000Y-126223000D01*
G75*
G02*
X174600000Y-126473000I-250000J0D01*
G01*
X173900000Y-126473000D01*
G75*
G02*
X173650000Y-126223000I0J250000D01*
G01*
G37*
G04 #@! TD.AperFunction*
G04 #@! TA.AperFunction,SMDPad,CuDef*
G36*
G01*
X143060000Y-106525000D02*
X143960000Y-106525000D01*
G75*
G02*
X144210000Y-106775000I0J-250000D01*
G01*
X144210000Y-107300000D01*
G75*
G02*
X143960000Y-107550000I-250000J0D01*
G01*
X143060000Y-107550000D01*
G75*
G02*
X142810000Y-107300000I0J250000D01*
G01*
X142810000Y-106775000D01*
G75*
G02*
X143060000Y-106525000I250000J0D01*
G01*
G37*
G04 #@! TD.AperFunction*
G04 #@! TA.AperFunction,SMDPad,CuDef*
G36*
G01*
X143060000Y-108350000D02*
X143960000Y-108350000D01*
G75*
G02*
X144210000Y-108600000I0J-250000D01*
G01*
X144210000Y-109125000D01*
G75*
G02*
X143960000Y-109375000I-250000J0D01*
G01*
X143060000Y-109375000D01*
G75*
G02*
X142810000Y-109125000I0J250000D01*
G01*
X142810000Y-108600000D01*
G75*
G02*
X143060000Y-108350000I250000J0D01*
G01*
G37*
G04 #@! TD.AperFunction*
G04 #@! TA.AperFunction,SMDPad,CuDef*
G36*
G01*
X131550000Y-122323000D02*
X131550000Y-121073000D01*
G75*
G02*
X131700000Y-120923000I150000J0D01*
G01*
X132000000Y-120923000D01*
G75*
G02*
X132150000Y-121073000I0J-150000D01*
G01*
X132150000Y-122323000D01*
G75*
G02*
X132000000Y-122473000I-150000J0D01*
G01*
X131700000Y-122473000D01*
G75*
G02*
X131550000Y-122323000I0J150000D01*
G01*
G37*
G04 #@! TD.AperFunction*
G04 #@! TA.AperFunction,SMDPad,CuDef*
G36*
G01*
X132550000Y-122323000D02*
X132550000Y-121073000D01*
G75*
G02*
X132700000Y-120923000I150000J0D01*
G01*
X133000000Y-120923000D01*
G75*
G02*
X133150000Y-121073000I0J-150000D01*
G01*
X133150000Y-122323000D01*
G75*
G02*
X133000000Y-122473000I-150000J0D01*
G01*
X132700000Y-122473000D01*
G75*
G02*
X132550000Y-122323000I0J150000D01*
G01*
G37*
G04 #@! TD.AperFunction*
G04 #@! TA.AperFunction,SMDPad,CuDef*
G36*
G01*
X133550000Y-122323000D02*
X133550000Y-121073000D01*
G75*
G02*
X133700000Y-120923000I150000J0D01*
G01*
X134000000Y-120923000D01*
G75*
G02*
X134150000Y-121073000I0J-150000D01*
G01*
X134150000Y-122323000D01*
G75*
G02*
X134000000Y-122473000I-150000J0D01*
G01*
X133700000Y-122473000D01*
G75*
G02*
X133550000Y-122323000I0J150000D01*
G01*
G37*
G04 #@! TD.AperFunction*
G04 #@! TA.AperFunction,SMDPad,CuDef*
G36*
G01*
X134550000Y-122323000D02*
X134550000Y-121073000D01*
G75*
G02*
X134700000Y-120923000I150000J0D01*
G01*
X135000000Y-120923000D01*
G75*
G02*
X135150000Y-121073000I0J-150000D01*
G01*
X135150000Y-122323000D01*
G75*
G02*
X135000000Y-122473000I-150000J0D01*
G01*
X134700000Y-122473000D01*
G75*
G02*
X134550000Y-122323000I0J150000D01*
G01*
G37*
G04 #@! TD.AperFunction*
G04 #@! TA.AperFunction,SMDPad,CuDef*
G36*
G01*
X129950000Y-126223000D02*
X129950000Y-124923000D01*
G75*
G02*
X130200000Y-124673000I250000J0D01*
G01*
X130900000Y-124673000D01*
G75*
G02*
X131150000Y-124923000I0J-250000D01*
G01*
X131150000Y-126223000D01*
G75*
G02*
X130900000Y-126473000I-250000J0D01*
G01*
X130200000Y-126473000D01*
G75*
G02*
X129950000Y-126223000I0J250000D01*
G01*
G37*
G04 #@! TD.AperFunction*
G04 #@! TA.AperFunction,SMDPad,CuDef*
G36*
G01*
X135550000Y-126223000D02*
X135550000Y-124923000D01*
G75*
G02*
X135800000Y-124673000I250000J0D01*
G01*
X136500000Y-124673000D01*
G75*
G02*
X136750000Y-124923000I0J-250000D01*
G01*
X136750000Y-126223000D01*
G75*
G02*
X136500000Y-126473000I-250000J0D01*
G01*
X135800000Y-126473000D01*
G75*
G02*
X135550000Y-126223000I0J250000D01*
G01*
G37*
G04 #@! TD.AperFunction*
G04 #@! TA.AperFunction,SMDPad,CuDef*
G36*
G01*
X173250000Y-106277000D02*
X173250000Y-107527000D01*
G75*
G02*
X173100000Y-107677000I-150000J0D01*
G01*
X172800000Y-107677000D01*
G75*
G02*
X172650000Y-107527000I0J150000D01*
G01*
X172650000Y-106277000D01*
G75*
G02*
X172800000Y-106127000I150000J0D01*
G01*
X173100000Y-106127000D01*
G75*
G02*
X173250000Y-106277000I0J-150000D01*
G01*
G37*
G04 #@! TD.AperFunction*
G04 #@! TA.AperFunction,SMDPad,CuDef*
G36*
G01*
X172250000Y-106277000D02*
X172250000Y-107527000D01*
G75*
G02*
X172100000Y-107677000I-150000J0D01*
G01*
X171800000Y-107677000D01*
G75*
G02*
X171650000Y-107527000I0J150000D01*
G01*
X171650000Y-106277000D01*
G75*
G02*
X171800000Y-106127000I150000J0D01*
G01*
X172100000Y-106127000D01*
G75*
G02*
X172250000Y-106277000I0J-150000D01*
G01*
G37*
G04 #@! TD.AperFunction*
G04 #@! TA.AperFunction,SMDPad,CuDef*
G36*
G01*
X171250000Y-106277000D02*
X171250000Y-107527000D01*
G75*
G02*
X171100000Y-107677000I-150000J0D01*
G01*
X170800000Y-107677000D01*
G75*
G02*
X170650000Y-107527000I0J150000D01*
G01*
X170650000Y-106277000D01*
G75*
G02*
X170800000Y-106127000I150000J0D01*
G01*
X171100000Y-106127000D01*
G75*
G02*
X171250000Y-106277000I0J-150000D01*
G01*
G37*
G04 #@! TD.AperFunction*
G04 #@! TA.AperFunction,SMDPad,CuDef*
G36*
G01*
X170250000Y-106277000D02*
X170250000Y-107527000D01*
G75*
G02*
X170100000Y-107677000I-150000J0D01*
G01*
X169800000Y-107677000D01*
G75*
G02*
X169650000Y-107527000I0J150000D01*
G01*
X169650000Y-106277000D01*
G75*
G02*
X169800000Y-106127000I150000J0D01*
G01*
X170100000Y-106127000D01*
G75*
G02*
X170250000Y-106277000I0J-150000D01*
G01*
G37*
G04 #@! TD.AperFunction*
G04 #@! TA.AperFunction,SMDPad,CuDef*
G36*
G01*
X174850000Y-102377000D02*
X174850000Y-103677000D01*
G75*
G02*
X174600000Y-103927000I-250000J0D01*
G01*
X173900000Y-103927000D01*
G75*
G02*
X173650000Y-103677000I0J250000D01*
G01*
X173650000Y-102377000D01*
G75*
G02*
X173900000Y-102127000I250000J0D01*
G01*
X174600000Y-102127000D01*
G75*
G02*
X174850000Y-102377000I0J-250000D01*
G01*
G37*
G04 #@! TD.AperFunction*
G04 #@! TA.AperFunction,SMDPad,CuDef*
G36*
G01*
X169250000Y-102377000D02*
X169250000Y-103677000D01*
G75*
G02*
X169000000Y-103927000I-250000J0D01*
G01*
X168300000Y-103927000D01*
G75*
G02*
X168050000Y-103677000I0J250000D01*
G01*
X168050000Y-102377000D01*
G75*
G02*
X168300000Y-102127000I250000J0D01*
G01*
X169000000Y-102127000D01*
G75*
G02*
X169250000Y-102377000I0J-250000D01*
G01*
G37*
G04 #@! TD.AperFunction*
D11*
X131826000Y-109728000D03*
X134874000Y-109728000D03*
X172974000Y-109728000D03*
X169926000Y-109728000D03*
X153162000Y-116462000D03*
X133858000Y-105156000D03*
X151638000Y-116462000D03*
X170942000Y-123444000D03*
X132842000Y-123444000D03*
X152400000Y-116459000D03*
X171958000Y-105156000D03*
D12*
X161290000Y-113662000D02*
X161290000Y-108865500D01*
X131850000Y-106902000D02*
X131850000Y-109704000D01*
X134850000Y-109705000D02*
X134850000Y-121698000D01*
X143510000Y-107037500D02*
X137517500Y-107037500D01*
X131850000Y-109704000D02*
X131826000Y-109728000D01*
X137517500Y-107037500D02*
X134850000Y-109705000D01*
X132850000Y-115959000D02*
X133850000Y-116959000D01*
X133850000Y-116959000D02*
X133850000Y-121698000D01*
X132850000Y-106902000D02*
X132850000Y-115959000D01*
X143510000Y-113662000D02*
X143510000Y-108862500D01*
X169950000Y-106902000D02*
X161428500Y-106902000D01*
X172950000Y-109752000D02*
X172950000Y-121698000D01*
X161428500Y-106902000D02*
X161290000Y-107040500D01*
X172974000Y-109728000D02*
X172950000Y-109752000D01*
X169950000Y-106902000D02*
X169950000Y-109704000D01*
X170950000Y-115959000D02*
X171950000Y-116959000D01*
X170950000Y-106902000D02*
X170950000Y-115959000D01*
X171950000Y-116959000D02*
X171950000Y-121698000D01*
X153162000Y-116462000D02*
X161290000Y-116462000D01*
X143510000Y-116462000D02*
X151638000Y-116462000D01*
X151638000Y-116462000D02*
X153162000Y-116462000D01*
X170950000Y-123436000D02*
X170942000Y-123444000D01*
X170950000Y-121698000D02*
X170950000Y-123436000D01*
X133850000Y-106902000D02*
X133850000Y-105164000D01*
X171950000Y-105164000D02*
X171958000Y-105156000D01*
X132850000Y-123436000D02*
X132842000Y-123444000D01*
X133850000Y-105164000D02*
X133858000Y-105156000D01*
X132850000Y-121698000D02*
X132850000Y-123436000D01*
X171950000Y-106902000D02*
X171950000Y-105164000D01*
G04 #@! TA.AperFunction,Conductor*
G36*
X151198040Y-101873758D02*
G01*
X151280119Y-101928602D01*
X151334963Y-102010681D01*
X151354221Y-102107500D01*
X151334963Y-102204319D01*
X151280119Y-102286398D01*
X151198040Y-102341242D01*
X151166702Y-102351879D01*
X151119436Y-102364543D01*
X151119424Y-102364547D01*
X150770323Y-102491609D01*
X150433622Y-102648615D01*
X150433610Y-102648620D01*
X150111878Y-102834373D01*
X150111877Y-102834374D01*
X149807563Y-103047457D01*
X149807562Y-103047458D01*
X149522960Y-103286267D01*
X149260267Y-103548960D01*
X149021458Y-103833562D01*
X149021457Y-103833563D01*
X148808374Y-104137877D01*
X148808373Y-104137878D01*
X148622620Y-104459610D01*
X148622615Y-104459622D01*
X148465609Y-104796323D01*
X148338547Y-105145424D01*
X148338543Y-105145436D01*
X148242391Y-105504280D01*
X148242390Y-105504283D01*
X148177882Y-105870131D01*
X148177878Y-105870157D01*
X148145500Y-106240240D01*
X148145500Y-106611759D01*
X148177878Y-106981842D01*
X148177882Y-106981868D01*
X148242390Y-107347716D01*
X148242391Y-107347719D01*
X148338543Y-107706563D01*
X148338547Y-107706575D01*
X148465609Y-108055676D01*
X148622615Y-108392377D01*
X148622620Y-108392389D01*
X148808373Y-108714121D01*
X148808374Y-108714122D01*
X149021457Y-109018436D01*
X149021458Y-109018437D01*
X149021462Y-109018442D01*
X149021463Y-109018443D01*
X149260265Y-109303037D01*
X149522963Y-109565735D01*
X149804095Y-109801632D01*
X149807562Y-109804541D01*
X149807563Y-109804542D01*
X150111877Y-110017625D01*
X150111878Y-110017626D01*
X150433610Y-110203379D01*
X150433617Y-110203382D01*
X150433619Y-110203383D01*
X150770322Y-110360390D01*
X151119428Y-110487454D01*
X151478280Y-110583608D01*
X151478283Y-110583609D01*
X151743475Y-110630369D01*
X151844147Y-110648120D01*
X151844155Y-110648120D01*
X151844157Y-110648121D01*
X151911482Y-110654011D01*
X152214245Y-110680500D01*
X152214254Y-110680500D01*
X152585746Y-110680500D01*
X152585755Y-110680500D01*
X152955853Y-110648120D01*
X153155797Y-110612864D01*
X153321716Y-110583609D01*
X153321717Y-110583608D01*
X153321720Y-110583608D01*
X153680572Y-110487454D01*
X154029678Y-110360390D01*
X154366381Y-110203383D01*
X154366385Y-110203380D01*
X154366389Y-110203379D01*
X154688121Y-110017626D01*
X154688122Y-110017625D01*
X154992436Y-109804542D01*
X154992437Y-109804541D01*
X154992443Y-109804537D01*
X155277037Y-109565735D01*
X155539735Y-109303037D01*
X155778537Y-109018443D01*
X155991627Y-108714119D01*
X156083637Y-108554754D01*
X156177379Y-108392389D01*
X156177380Y-108392385D01*
X156177383Y-108392381D01*
X156334390Y-108055678D01*
X156461454Y-107706572D01*
X156557608Y-107347720D01*
X156564901Y-107306363D01*
X156622117Y-106981868D01*
X156622120Y-106981853D01*
X156654500Y-106611755D01*
X156654500Y-106240245D01*
X156624531Y-105897706D01*
X156622121Y-105870157D01*
X156622120Y-105870155D01*
X156622120Y-105870147D01*
X156588286Y-105678265D01*
X156557609Y-105504283D01*
X156557608Y-105504280D01*
X156461456Y-105145436D01*
X156461454Y-105145428D01*
X156334390Y-104796322D01*
X156177383Y-104459619D01*
X156177382Y-104459617D01*
X156177379Y-104459610D01*
X155991626Y-104137878D01*
X155991625Y-104137877D01*
X155778542Y-103833563D01*
X155778541Y-103833562D01*
X155539732Y-103548960D01*
X155277039Y-103286267D01*
X154992437Y-103047458D01*
X154992436Y-103047457D01*
X154688122Y-102834374D01*
X154688121Y-102834373D01*
X154366389Y-102648620D01*
X154366377Y-102648615D01*
X154029676Y-102491609D01*
X153680575Y-102364547D01*
X153680563Y-102364543D01*
X153633298Y-102351879D01*
X153544762Y-102308218D01*
X153479675Y-102234000D01*
X153447943Y-102140523D01*
X153454400Y-102042019D01*
X153498061Y-101953483D01*
X153572279Y-101888396D01*
X153665756Y-101856664D01*
X153698779Y-101854500D01*
X177292500Y-101854500D01*
X177389319Y-101873758D01*
X177471398Y-101928602D01*
X177526242Y-102010681D01*
X177545500Y-102107500D01*
X177545500Y-126492500D01*
X177526242Y-126589319D01*
X177471398Y-126671398D01*
X177389319Y-126726242D01*
X177292500Y-126745500D01*
X127507500Y-126745500D01*
X127410681Y-126726242D01*
X127328602Y-126671398D01*
X127273758Y-126589319D01*
X127254500Y-126492500D01*
X127254500Y-109654367D01*
X131266700Y-109654367D01*
X131266700Y-109801633D01*
X131267480Y-109804542D01*
X131304816Y-109943881D01*
X131304818Y-109943887D01*
X131378447Y-110071415D01*
X131378449Y-110071418D01*
X131482581Y-110175550D01*
X131482584Y-110175552D01*
X131610112Y-110249181D01*
X131610113Y-110249181D01*
X131610118Y-110249184D01*
X131752367Y-110287300D01*
X131899633Y-110287300D01*
X132041882Y-110249184D01*
X132089001Y-110221979D01*
X132182474Y-110190249D01*
X132280978Y-110196704D01*
X132369514Y-110240364D01*
X132434603Y-110314581D01*
X132466335Y-110408058D01*
X132468500Y-110441084D01*
X132468500Y-116009226D01*
X132494497Y-116106251D01*
X132494499Y-116106254D01*
X132501609Y-116118568D01*
X132501613Y-116118582D01*
X132501616Y-116118581D01*
X132501617Y-116118582D01*
X132544724Y-116193247D01*
X133005201Y-116653724D01*
X133394398Y-117042920D01*
X133449241Y-117124999D01*
X133468500Y-117221818D01*
X133468500Y-120446382D01*
X133449242Y-120543201D01*
X133394398Y-120625280D01*
X133312319Y-120680124D01*
X133215500Y-120699382D01*
X133137322Y-120687000D01*
X133126557Y-120683502D01*
X133031837Y-120668500D01*
X133031834Y-120668500D01*
X132668166Y-120668500D01*
X132668162Y-120668500D01*
X132573445Y-120683502D01*
X132573441Y-120683503D01*
X132459282Y-120741670D01*
X132459274Y-120741676D01*
X132368676Y-120832274D01*
X132368670Y-120832282D01*
X132310503Y-120946441D01*
X132310502Y-120946445D01*
X132295500Y-121041162D01*
X132295500Y-122354837D01*
X132310502Y-122449554D01*
X132310503Y-122449558D01*
X132368670Y-122563717D01*
X132368676Y-122563725D01*
X132394398Y-122589447D01*
X132449242Y-122671526D01*
X132468500Y-122768345D01*
X132468500Y-122921735D01*
X132449242Y-123018554D01*
X132403670Y-123086755D01*
X132404544Y-123087426D01*
X132394447Y-123100584D01*
X132320818Y-123228112D01*
X132320816Y-123228118D01*
X132282700Y-123370367D01*
X132282700Y-123517632D01*
X132320816Y-123659881D01*
X132320818Y-123659887D01*
X132394447Y-123787415D01*
X132394449Y-123787418D01*
X132498581Y-123891550D01*
X132498584Y-123891552D01*
X132626112Y-123965181D01*
X132626113Y-123965181D01*
X132626118Y-123965184D01*
X132768367Y-124003300D01*
X132915633Y-124003300D01*
X133057882Y-123965184D01*
X133185418Y-123891551D01*
X133289551Y-123787418D01*
X133363184Y-123659882D01*
X133401300Y-123517633D01*
X133401300Y-123370367D01*
X133363184Y-123228118D01*
X133289552Y-123100584D01*
X133281260Y-123086221D01*
X133283601Y-123084869D01*
X133250926Y-123018610D01*
X133244469Y-122920105D01*
X133276200Y-122826628D01*
X133341288Y-122752410D01*
X133429823Y-122708749D01*
X133528328Y-122702292D01*
X133573387Y-122712488D01*
X133573442Y-122712496D01*
X133573445Y-122712498D01*
X133668166Y-122727500D01*
X133668169Y-122727500D01*
X134031831Y-122727500D01*
X134031834Y-122727500D01*
X134126555Y-122712498D01*
X134235139Y-122657170D01*
X134330149Y-122630375D01*
X134428180Y-122641977D01*
X134464858Y-122657170D01*
X134573445Y-122712498D01*
X134668166Y-122727500D01*
X134668169Y-122727500D01*
X135031831Y-122727500D01*
X135031834Y-122727500D01*
X135126555Y-122712498D01*
X135240723Y-122654326D01*
X135331326Y-122563723D01*
X135389498Y-122449555D01*
X135404500Y-122354834D01*
X135404500Y-121041166D01*
X135389498Y-120946445D01*
X135331326Y-120832277D01*
X135305602Y-120806553D01*
X135250758Y-120724474D01*
X135231500Y-120627655D01*
X135231500Y-116038748D01*
X142380500Y-116038748D01*
X142380500Y-116885246D01*
X142380501Y-116885258D01*
X142386960Y-116945343D01*
X142386960Y-116945344D01*
X142437656Y-117081264D01*
X142437657Y-117081265D01*
X142437658Y-117081267D01*
X142524596Y-117197404D01*
X142617401Y-117266876D01*
X142640734Y-117284343D01*
X142776658Y-117335040D01*
X142776663Y-117335041D01*
X142829344Y-117340704D01*
X142836745Y-117341500D01*
X144183254Y-117341499D01*
X144243342Y-117335040D01*
X144379267Y-117284342D01*
X144495404Y-117197404D01*
X144582342Y-117081267D01*
X144582343Y-117081263D01*
X144582344Y-117081263D01*
X144609638Y-117008086D01*
X144661517Y-116924101D01*
X144741586Y-116866363D01*
X144837656Y-116843661D01*
X144846686Y-116843500D01*
X151123735Y-116843500D01*
X151220554Y-116862758D01*
X151279409Y-116902084D01*
X151281426Y-116899456D01*
X151294579Y-116909548D01*
X151294582Y-116909551D01*
X151294584Y-116909552D01*
X151422112Y-116983181D01*
X151422113Y-116983181D01*
X151422118Y-116983184D01*
X151564367Y-117021300D01*
X151711633Y-117021300D01*
X151853882Y-116983184D01*
X151895096Y-116959388D01*
X151988573Y-116927657D01*
X152087077Y-116934112D01*
X152148100Y-116959389D01*
X152184114Y-116980182D01*
X152184118Y-116980184D01*
X152326367Y-117018300D01*
X152473633Y-117018300D01*
X152615882Y-116980184D01*
X152651900Y-116959388D01*
X152745374Y-116927657D01*
X152843878Y-116934112D01*
X152904901Y-116959388D01*
X152946112Y-116983181D01*
X152946113Y-116983181D01*
X152946118Y-116983184D01*
X153088367Y-117021300D01*
X153235633Y-117021300D01*
X153377882Y-116983184D01*
X153505418Y-116909551D01*
X153505423Y-116909545D01*
X153518574Y-116899456D01*
X153520590Y-116902084D01*
X153579446Y-116862758D01*
X153676265Y-116843500D01*
X159953314Y-116843500D01*
X160050133Y-116862758D01*
X160132212Y-116917602D01*
X160187056Y-116999681D01*
X160190362Y-117008086D01*
X160217655Y-117081263D01*
X160217656Y-117081264D01*
X160217657Y-117081265D01*
X160217658Y-117081267D01*
X160304596Y-117197404D01*
X160397401Y-117266876D01*
X160420734Y-117284343D01*
X160556658Y-117335040D01*
X160556663Y-117335041D01*
X160609344Y-117340704D01*
X160616745Y-117341500D01*
X161963254Y-117341499D01*
X162023342Y-117335040D01*
X162159267Y-117284342D01*
X162275404Y-117197404D01*
X162362342Y-117081267D01*
X162362344Y-117081263D01*
X162398926Y-116983182D01*
X162413040Y-116945342D01*
X162414248Y-116934112D01*
X162419498Y-116885271D01*
X162419500Y-116885255D01*
X162419499Y-116038746D01*
X162413040Y-115978658D01*
X162413039Y-115978655D01*
X162362343Y-115842735D01*
X162331084Y-115800977D01*
X162275404Y-115726596D01*
X162205930Y-115674589D01*
X162159265Y-115639656D01*
X162023341Y-115588959D01*
X162023336Y-115588958D01*
X161963272Y-115582501D01*
X161963258Y-115582500D01*
X161963255Y-115582500D01*
X161963251Y-115582500D01*
X160616753Y-115582500D01*
X160616741Y-115582501D01*
X160556656Y-115588960D01*
X160556655Y-115588960D01*
X160420735Y-115639656D01*
X160304596Y-115726596D01*
X160217656Y-115842735D01*
X160217655Y-115842736D01*
X160190362Y-115915914D01*
X160138483Y-115999899D01*
X160058414Y-116057637D01*
X159962344Y-116080339D01*
X159953314Y-116080500D01*
X153676265Y-116080500D01*
X153579446Y-116061242D01*
X153520590Y-116021915D01*
X153518574Y-116024544D01*
X153505415Y-116014447D01*
X153377887Y-115940818D01*
X153377883Y-115940816D01*
X153377882Y-115940816D01*
X153235633Y-115902700D01*
X153088367Y-115902700D01*
X152946118Y-115940816D01*
X152946110Y-115940819D01*
X152910096Y-115961612D01*
X152816619Y-115993343D01*
X152718115Y-115986886D01*
X152657099Y-115961612D01*
X152615885Y-115937817D01*
X152615882Y-115937816D01*
X152473633Y-115899700D01*
X152326367Y-115899700D01*
X152184118Y-115937816D01*
X152184112Y-115937818D01*
X152142898Y-115961613D01*
X152049421Y-115993343D01*
X151950917Y-115986885D01*
X151889901Y-115961611D01*
X151853887Y-115940818D01*
X151853883Y-115940816D01*
X151853882Y-115940816D01*
X151711633Y-115902700D01*
X151564367Y-115902700D01*
X151422118Y-115940816D01*
X151422112Y-115940818D01*
X151294584Y-116014447D01*
X151281426Y-116024544D01*
X151279409Y-116021915D01*
X151220554Y-116061242D01*
X151123735Y-116080500D01*
X144846686Y-116080500D01*
X144749867Y-116061242D01*
X144667788Y-116006398D01*
X144612944Y-115924319D01*
X144609638Y-115915914D01*
X144582344Y-115842736D01*
X144582343Y-115842735D01*
X144551084Y-115800977D01*
X144495404Y-115726596D01*
X144425930Y-115674589D01*
X144379265Y-115639656D01*
X144243341Y-115588959D01*
X144243336Y-115588958D01*
X144183272Y-115582501D01*
X144183258Y-115582500D01*
X144183255Y-115582500D01*
X144183251Y-115582500D01*
X142836753Y-115582500D01*
X142836741Y-115582501D01*
X142776656Y-115588960D01*
X142776655Y-115588960D01*
X142640735Y-115639656D01*
X142524596Y-115726596D01*
X142437656Y-115842734D01*
X142386959Y-115978658D01*
X142386958Y-115978663D01*
X142380501Y-116038728D01*
X142380500Y-116038748D01*
X135231500Y-116038748D01*
X135231500Y-110266265D01*
X135250758Y-110169446D01*
X135305602Y-110087367D01*
X135307427Y-110085542D01*
X135321551Y-110071418D01*
X135395184Y-109943882D01*
X135433300Y-109801633D01*
X135433300Y-109766019D01*
X135452558Y-109669200D01*
X135507402Y-109587121D01*
X137601421Y-107493102D01*
X137683500Y-107438258D01*
X137780319Y-107419000D01*
X142394145Y-107419000D01*
X142490964Y-107438258D01*
X142573043Y-107493102D01*
X142575592Y-107495688D01*
X142606342Y-107527333D01*
X142612658Y-107544267D01*
X142699596Y-107660404D01*
X142815733Y-107747342D01*
X142822619Y-107749910D01*
X142845724Y-107773688D01*
X142861933Y-107798717D01*
X142881860Y-107820901D01*
X142888513Y-107839760D01*
X142899384Y-107856546D01*
X142904780Y-107885870D01*
X142914702Y-107913993D01*
X142913631Y-107933963D01*
X142917251Y-107953631D01*
X142911014Y-107982792D01*
X142909418Y-108012567D01*
X142900788Y-108030605D01*
X142896605Y-108050164D01*
X142879683Y-108074718D01*
X142866815Y-108101616D01*
X142848581Y-108119849D01*
X142840589Y-108131447D01*
X142830358Y-108138072D01*
X142815893Y-108152538D01*
X142699596Y-108239595D01*
X142612656Y-108355734D01*
X142561959Y-108491658D01*
X142561958Y-108491663D01*
X142555501Y-108551728D01*
X142555500Y-108551748D01*
X142555500Y-109173245D01*
X142555501Y-109173258D01*
X142561960Y-109233343D01*
X142561960Y-109233344D01*
X142612656Y-109369264D01*
X142612657Y-109369265D01*
X142612658Y-109369267D01*
X142699596Y-109485404D01*
X142815733Y-109572342D01*
X142951658Y-109623040D01*
X142951662Y-109623040D01*
X142963914Y-109627610D01*
X143047898Y-109679489D01*
X143105637Y-109759558D01*
X143128339Y-109855628D01*
X143128500Y-109864659D01*
X143128500Y-112529500D01*
X143109242Y-112626319D01*
X143054398Y-112708398D01*
X142972319Y-112763242D01*
X142875506Y-112782500D01*
X142836756Y-112782500D01*
X142836741Y-112782501D01*
X142776656Y-112788960D01*
X142776655Y-112788960D01*
X142640735Y-112839656D01*
X142524596Y-112926596D01*
X142437656Y-113042734D01*
X142386959Y-113178658D01*
X142386958Y-113178663D01*
X142380501Y-113238728D01*
X142380500Y-113238748D01*
X142380500Y-114085246D01*
X142380501Y-114085258D01*
X142386960Y-114145343D01*
X142386960Y-114145344D01*
X142437656Y-114281264D01*
X142437657Y-114281265D01*
X142437658Y-114281267D01*
X142524596Y-114397404D01*
X142617401Y-114466876D01*
X142640734Y-114484343D01*
X142776658Y-114535040D01*
X142776663Y-114535041D01*
X142829344Y-114540704D01*
X142836745Y-114541500D01*
X144183254Y-114541499D01*
X144243342Y-114535040D01*
X144379267Y-114484342D01*
X144495404Y-114397404D01*
X144582342Y-114281267D01*
X144633040Y-114145342D01*
X144639500Y-114085255D01*
X144639499Y-113238748D01*
X160160500Y-113238748D01*
X160160500Y-114085246D01*
X160160501Y-114085258D01*
X160166960Y-114145343D01*
X160166960Y-114145344D01*
X160217656Y-114281264D01*
X160217657Y-114281265D01*
X160217658Y-114281267D01*
X160304596Y-114397404D01*
X160397401Y-114466876D01*
X160420734Y-114484343D01*
X160556658Y-114535040D01*
X160556663Y-114535041D01*
X160609344Y-114540704D01*
X160616745Y-114541500D01*
X161963254Y-114541499D01*
X162023342Y-114535040D01*
X162159267Y-114484342D01*
X162275404Y-114397404D01*
X162362342Y-114281267D01*
X162413040Y-114145342D01*
X162419500Y-114085255D01*
X162419499Y-113238746D01*
X162413040Y-113178658D01*
X162362342Y-113042733D01*
X162275404Y-112926596D01*
X162205930Y-112874589D01*
X162159265Y-112839656D01*
X162023341Y-112788959D01*
X162023336Y-112788958D01*
X161963272Y-112782501D01*
X161963256Y-112782500D01*
X161963255Y-112782500D01*
X161963253Y-112782500D01*
X161924500Y-112782500D01*
X161827681Y-112763242D01*
X161745602Y-112708398D01*
X161690758Y-112626319D01*
X161671500Y-112529500D01*
X161671500Y-109867659D01*
X161690758Y-109770840D01*
X161745602Y-109688761D01*
X161827681Y-109633917D01*
X161836086Y-109630610D01*
X161848337Y-109626040D01*
X161848342Y-109626040D01*
X161984267Y-109575342D01*
X162100404Y-109488404D01*
X162187342Y-109372267D01*
X162188698Y-109368633D01*
X162238039Y-109236344D01*
X162238040Y-109236342D01*
X162238363Y-109233344D01*
X162244498Y-109176271D01*
X162244500Y-109176255D01*
X162244499Y-108554746D01*
X162238040Y-108494658D01*
X162187342Y-108358733D01*
X162100404Y-108242596D01*
X161984267Y-108155658D01*
X161984265Y-108155657D01*
X161984106Y-108155538D01*
X161918139Y-108082100D01*
X161885297Y-107989008D01*
X161890580Y-107890433D01*
X161933184Y-107801384D01*
X161984106Y-107750462D01*
X161984265Y-107750342D01*
X161984267Y-107750342D01*
X162100404Y-107663404D01*
X162187342Y-107547267D01*
X162207545Y-107493102D01*
X162224336Y-107448085D01*
X162276215Y-107364101D01*
X162356285Y-107306363D01*
X162452355Y-107283661D01*
X162461384Y-107283500D01*
X169142500Y-107283500D01*
X169239319Y-107302758D01*
X169321398Y-107357602D01*
X169376242Y-107439681D01*
X169377653Y-107443161D01*
X169395500Y-107488123D01*
X169395500Y-107558834D01*
X169410502Y-107653555D01*
X169468674Y-107767723D01*
X169531365Y-107830414D01*
X169550653Y-107879006D01*
X169559227Y-107925729D01*
X169568500Y-107972345D01*
X169568500Y-109189735D01*
X169549242Y-109286554D01*
X169494398Y-109368633D01*
X169478449Y-109384581D01*
X169478447Y-109384584D01*
X169404818Y-109512112D01*
X169404816Y-109512118D01*
X169366700Y-109654367D01*
X169366700Y-109801633D01*
X169367480Y-109804542D01*
X169404816Y-109943881D01*
X169404818Y-109943887D01*
X169478447Y-110071415D01*
X169478449Y-110071418D01*
X169582581Y-110175550D01*
X169582584Y-110175552D01*
X169710112Y-110249181D01*
X169710113Y-110249181D01*
X169710118Y-110249184D01*
X169852367Y-110287300D01*
X169999633Y-110287300D01*
X170141882Y-110249184D01*
X170189001Y-110221979D01*
X170282474Y-110190249D01*
X170380978Y-110196704D01*
X170469514Y-110240364D01*
X170534603Y-110314581D01*
X170566335Y-110408058D01*
X170568500Y-110441084D01*
X170568500Y-116009226D01*
X170594497Y-116106251D01*
X170594499Y-116106254D01*
X170601609Y-116118568D01*
X170601613Y-116118582D01*
X170601616Y-116118581D01*
X170601617Y-116118582D01*
X170644724Y-116193247D01*
X171105201Y-116653724D01*
X171494398Y-117042920D01*
X171549241Y-117124999D01*
X171568500Y-117221818D01*
X171568500Y-120446382D01*
X171549242Y-120543201D01*
X171494398Y-120625280D01*
X171412319Y-120680124D01*
X171315500Y-120699382D01*
X171237322Y-120687000D01*
X171226557Y-120683502D01*
X171131837Y-120668500D01*
X171131834Y-120668500D01*
X170768166Y-120668500D01*
X170768162Y-120668500D01*
X170673445Y-120683502D01*
X170673441Y-120683503D01*
X170559282Y-120741670D01*
X170559274Y-120741676D01*
X170468676Y-120832274D01*
X170468670Y-120832282D01*
X170410503Y-120946441D01*
X170410502Y-120946445D01*
X170395500Y-121041162D01*
X170395500Y-122354837D01*
X170410502Y-122449554D01*
X170410503Y-122449558D01*
X170468670Y-122563717D01*
X170468676Y-122563725D01*
X170494398Y-122589447D01*
X170549242Y-122671526D01*
X170568500Y-122768345D01*
X170568500Y-122921735D01*
X170549242Y-123018554D01*
X170503670Y-123086755D01*
X170504544Y-123087426D01*
X170494447Y-123100584D01*
X170420818Y-123228112D01*
X170420816Y-123228118D01*
X170382700Y-123370367D01*
X170382700Y-123517632D01*
X170420816Y-123659881D01*
X170420818Y-123659887D01*
X170494447Y-123787415D01*
X170494449Y-123787418D01*
X170598581Y-123891550D01*
X170598584Y-123891552D01*
X170726112Y-123965181D01*
X170726113Y-123965181D01*
X170726118Y-123965184D01*
X170868367Y-124003300D01*
X171015633Y-124003300D01*
X171157882Y-123965184D01*
X171285418Y-123891551D01*
X171389551Y-123787418D01*
X171463184Y-123659882D01*
X171501300Y-123517633D01*
X171501300Y-123370367D01*
X171463184Y-123228118D01*
X171389552Y-123100584D01*
X171381260Y-123086221D01*
X171383601Y-123084869D01*
X171350926Y-123018610D01*
X171344469Y-122920105D01*
X171376200Y-122826628D01*
X171441288Y-122752410D01*
X171529823Y-122708749D01*
X171628328Y-122702292D01*
X171673387Y-122712488D01*
X171673442Y-122712496D01*
X171673445Y-122712498D01*
X171768166Y-122727500D01*
X171768169Y-122727500D01*
X172131831Y-122727500D01*
X172131834Y-122727500D01*
X172226555Y-122712498D01*
X172335139Y-122657170D01*
X172430149Y-122630375D01*
X172528180Y-122641977D01*
X172564858Y-122657170D01*
X172673445Y-122712498D01*
X172768166Y-122727500D01*
X172768169Y-122727500D01*
X173131831Y-122727500D01*
X173131834Y-122727500D01*
X173226555Y-122712498D01*
X173340723Y-122654326D01*
X173431326Y-122563723D01*
X173489498Y-122449555D01*
X173504500Y-122354834D01*
X173504500Y-121041166D01*
X173489498Y-120946445D01*
X173431326Y-120832277D01*
X173405602Y-120806553D01*
X173350758Y-120724474D01*
X173331500Y-120627655D01*
X173331500Y-110266265D01*
X173350758Y-110169446D01*
X173405602Y-110087367D01*
X173407427Y-110085542D01*
X173421551Y-110071418D01*
X173495184Y-109943882D01*
X173533300Y-109801633D01*
X173533300Y-109654367D01*
X173495184Y-109512118D01*
X173421551Y-109384582D01*
X173317418Y-109280449D01*
X173317415Y-109280447D01*
X173189887Y-109206818D01*
X173189883Y-109206816D01*
X173189882Y-109206816D01*
X173047633Y-109168700D01*
X172900367Y-109168700D01*
X172758118Y-109206816D01*
X172758112Y-109206818D01*
X172630584Y-109280447D01*
X172630581Y-109280449D01*
X172526449Y-109384581D01*
X172526447Y-109384584D01*
X172452818Y-109512112D01*
X172452816Y-109512118D01*
X172414700Y-109654367D01*
X172414700Y-109801633D01*
X172415480Y-109804542D01*
X172452816Y-109943881D01*
X172452816Y-109943883D01*
X172495392Y-110017625D01*
X172526447Y-110071415D01*
X172534604Y-110085542D01*
X172566335Y-110179019D01*
X172568500Y-110212043D01*
X172568500Y-116427181D01*
X172549242Y-116524000D01*
X172494398Y-116606079D01*
X172412319Y-116660923D01*
X172315500Y-116680181D01*
X172218681Y-116660923D01*
X172136602Y-116606079D01*
X171405602Y-115875079D01*
X171350758Y-115793000D01*
X171331500Y-115696181D01*
X171331500Y-108153617D01*
X171350758Y-108056798D01*
X171405602Y-107974719D01*
X171487681Y-107919875D01*
X171584500Y-107900617D01*
X171662685Y-107913001D01*
X171673439Y-107916495D01*
X171673445Y-107916498D01*
X171768166Y-107931500D01*
X171768169Y-107931500D01*
X172131831Y-107931500D01*
X172131834Y-107931500D01*
X172226555Y-107916498D01*
X172340723Y-107858326D01*
X172431326Y-107767723D01*
X172489498Y-107653555D01*
X172504500Y-107558834D01*
X172504500Y-106245166D01*
X172489498Y-106150445D01*
X172431326Y-106036277D01*
X172405602Y-106010553D01*
X172350758Y-105928474D01*
X172331500Y-105831655D01*
X172331500Y-105678265D01*
X172350758Y-105581446D01*
X172396329Y-105513244D01*
X172395456Y-105512574D01*
X172405545Y-105499423D01*
X172405551Y-105499418D01*
X172479184Y-105371882D01*
X172517300Y-105229633D01*
X172517300Y-105082367D01*
X172479184Y-104940118D01*
X172405551Y-104812582D01*
X172301418Y-104708449D01*
X172301415Y-104708447D01*
X172173887Y-104634818D01*
X172173883Y-104634816D01*
X172173882Y-104634816D01*
X172031633Y-104596700D01*
X171884367Y-104596700D01*
X171742118Y-104634816D01*
X171742112Y-104634818D01*
X171614584Y-104708447D01*
X171614581Y-104708449D01*
X171510449Y-104812581D01*
X171510447Y-104812584D01*
X171436818Y-104940112D01*
X171436816Y-104940118D01*
X171398700Y-105082367D01*
X171398700Y-105229632D01*
X171436816Y-105371881D01*
X171436818Y-105371887D01*
X171518740Y-105513779D01*
X171516398Y-105515130D01*
X171549075Y-105581395D01*
X171555529Y-105679899D01*
X171523796Y-105773376D01*
X171458706Y-105847593D01*
X171370170Y-105891252D01*
X171271666Y-105897706D01*
X171226606Y-105887510D01*
X171131837Y-105872500D01*
X171131834Y-105872500D01*
X170768166Y-105872500D01*
X170768162Y-105872500D01*
X170673445Y-105887502D01*
X170673443Y-105887502D01*
X170564859Y-105942829D01*
X170469850Y-105969624D01*
X170371818Y-105958021D01*
X170335141Y-105942829D01*
X170226555Y-105887502D01*
X170131837Y-105872500D01*
X170131834Y-105872500D01*
X169768166Y-105872500D01*
X169768162Y-105872500D01*
X169673445Y-105887502D01*
X169673441Y-105887503D01*
X169559282Y-105945670D01*
X169559274Y-105945676D01*
X169468676Y-106036274D01*
X169468670Y-106036282D01*
X169410503Y-106150441D01*
X169410502Y-106150445D01*
X169395500Y-106245162D01*
X169395500Y-106267500D01*
X169376242Y-106364319D01*
X169321398Y-106446398D01*
X169239319Y-106501242D01*
X169142500Y-106520500D01*
X162304080Y-106520500D01*
X162207261Y-106501242D01*
X162125182Y-106446398D01*
X162101543Y-106419118D01*
X162100403Y-106417595D01*
X161984265Y-106330656D01*
X161848341Y-106279959D01*
X161848336Y-106279958D01*
X161788271Y-106273501D01*
X161788258Y-106273500D01*
X161788255Y-106273500D01*
X161788251Y-106273500D01*
X160791753Y-106273500D01*
X160791741Y-106273501D01*
X160731656Y-106279960D01*
X160731655Y-106279960D01*
X160595735Y-106330656D01*
X160479596Y-106417596D01*
X160392656Y-106533734D01*
X160341959Y-106669658D01*
X160341958Y-106669663D01*
X160335501Y-106729728D01*
X160335500Y-106729748D01*
X160335500Y-107351245D01*
X160335501Y-107351258D01*
X160341960Y-107411343D01*
X160341960Y-107411344D01*
X160392656Y-107547264D01*
X160479596Y-107663404D01*
X160595893Y-107750462D01*
X160661860Y-107823901D01*
X160694702Y-107916993D01*
X160689418Y-108015567D01*
X160646815Y-108104616D01*
X160595893Y-108155538D01*
X160479596Y-108242595D01*
X160392656Y-108358734D01*
X160341959Y-108494658D01*
X160341958Y-108494663D01*
X160335501Y-108554728D01*
X160335500Y-108554748D01*
X160335500Y-109176245D01*
X160335501Y-109176258D01*
X160341960Y-109236343D01*
X160341960Y-109236344D01*
X160392656Y-109372264D01*
X160392657Y-109372265D01*
X160392658Y-109372267D01*
X160479596Y-109488404D01*
X160595733Y-109575342D01*
X160731658Y-109626040D01*
X160731662Y-109626040D01*
X160743914Y-109630610D01*
X160827898Y-109682489D01*
X160885637Y-109762558D01*
X160908339Y-109858628D01*
X160908500Y-109867659D01*
X160908500Y-112529500D01*
X160889242Y-112626319D01*
X160834398Y-112708398D01*
X160752319Y-112763242D01*
X160655506Y-112782500D01*
X160616756Y-112782500D01*
X160616741Y-112782501D01*
X160556656Y-112788960D01*
X160556655Y-112788960D01*
X160420735Y-112839656D01*
X160304596Y-112926596D01*
X160217656Y-113042734D01*
X160166959Y-113178658D01*
X160166958Y-113178663D01*
X160160501Y-113238728D01*
X160160500Y-113238748D01*
X144639499Y-113238748D01*
X144639499Y-113238746D01*
X144633040Y-113178658D01*
X144582342Y-113042733D01*
X144495404Y-112926596D01*
X144425930Y-112874589D01*
X144379265Y-112839656D01*
X144243341Y-112788959D01*
X144243336Y-112788958D01*
X144183272Y-112782501D01*
X144183256Y-112782500D01*
X144183255Y-112782500D01*
X144183253Y-112782500D01*
X144144500Y-112782500D01*
X144047681Y-112763242D01*
X143965602Y-112708398D01*
X143910758Y-112626319D01*
X143891500Y-112529500D01*
X143891500Y-109864659D01*
X143910758Y-109767840D01*
X143965602Y-109685761D01*
X144047681Y-109630917D01*
X144056086Y-109627610D01*
X144068337Y-109623040D01*
X144068342Y-109623040D01*
X144204267Y-109572342D01*
X144320404Y-109485404D01*
X144407342Y-109369267D01*
X144407579Y-109368633D01*
X144440470Y-109280449D01*
X144458040Y-109233342D01*
X144464500Y-109173255D01*
X144464499Y-108551746D01*
X144458040Y-108491658D01*
X144408462Y-108358735D01*
X144407343Y-108355735D01*
X144320404Y-108239596D01*
X144320403Y-108239595D01*
X144204267Y-108152658D01*
X144204265Y-108152657D01*
X144204106Y-108152538D01*
X144138139Y-108079100D01*
X144105297Y-107986008D01*
X144110580Y-107887433D01*
X144153184Y-107798384D01*
X144204106Y-107747462D01*
X144204265Y-107747342D01*
X144204267Y-107747342D01*
X144320404Y-107660404D01*
X144407342Y-107544267D01*
X144458040Y-107408342D01*
X144464500Y-107348255D01*
X144464499Y-106726746D01*
X144458040Y-106666658D01*
X144450243Y-106645753D01*
X144407343Y-106530735D01*
X144407342Y-106530733D01*
X144320404Y-106414596D01*
X144208275Y-106330658D01*
X144204265Y-106327656D01*
X144068341Y-106276959D01*
X144068336Y-106276958D01*
X144008271Y-106270501D01*
X144008258Y-106270500D01*
X144008255Y-106270500D01*
X144008251Y-106270500D01*
X143011753Y-106270500D01*
X143011741Y-106270501D01*
X142951656Y-106276960D01*
X142951655Y-106276960D01*
X142815735Y-106327656D01*
X142811725Y-106330658D01*
X142699596Y-106414596D01*
X142634735Y-106501242D01*
X142601815Y-106545218D01*
X142599883Y-106543772D01*
X142552890Y-106600000D01*
X142465417Y-106645753D01*
X142394145Y-106656000D01*
X137583247Y-106656000D01*
X137583231Y-106655999D01*
X137567725Y-106655999D01*
X137467275Y-106655999D01*
X137467273Y-106655999D01*
X137370245Y-106681998D01*
X137370241Y-106682000D01*
X137283255Y-106732222D01*
X137283252Y-106732224D01*
X134911699Y-109103777D01*
X134829620Y-109158621D01*
X134798284Y-109169258D01*
X134658116Y-109206816D01*
X134658112Y-109206818D01*
X134530584Y-109280447D01*
X134530581Y-109280449D01*
X134426449Y-109384581D01*
X134426447Y-109384584D01*
X134352818Y-109512112D01*
X134352816Y-109512118D01*
X134314700Y-109654367D01*
X134314700Y-109801633D01*
X134315480Y-109804542D01*
X134352816Y-109943881D01*
X134352816Y-109943883D01*
X134395392Y-110017625D01*
X134426447Y-110071415D01*
X134434604Y-110085542D01*
X134466335Y-110179019D01*
X134468500Y-110212043D01*
X134468500Y-116427181D01*
X134449242Y-116524000D01*
X134394398Y-116606079D01*
X134312319Y-116660923D01*
X134215500Y-116680181D01*
X134118681Y-116660923D01*
X134036602Y-116606079D01*
X133305602Y-115875079D01*
X133250758Y-115793000D01*
X133231500Y-115696181D01*
X133231500Y-108153617D01*
X133250758Y-108056798D01*
X133305602Y-107974719D01*
X133387681Y-107919875D01*
X133484500Y-107900617D01*
X133562685Y-107913001D01*
X133573439Y-107916495D01*
X133573445Y-107916498D01*
X133668166Y-107931500D01*
X133668169Y-107931500D01*
X134031831Y-107931500D01*
X134031834Y-107931500D01*
X134126555Y-107916498D01*
X134240723Y-107858326D01*
X134331326Y-107767723D01*
X134389498Y-107653555D01*
X134404500Y-107558834D01*
X134404500Y-106245166D01*
X134389498Y-106150445D01*
X134331326Y-106036277D01*
X134305602Y-106010553D01*
X134250758Y-105928474D01*
X134231500Y-105831655D01*
X134231500Y-105678265D01*
X134250758Y-105581446D01*
X134296329Y-105513244D01*
X134295456Y-105512574D01*
X134305545Y-105499423D01*
X134305551Y-105499418D01*
X134379184Y-105371882D01*
X134417300Y-105229633D01*
X134417300Y-105082367D01*
X134379184Y-104940118D01*
X134305551Y-104812582D01*
X134201418Y-104708449D01*
X134201415Y-104708447D01*
X134073887Y-104634818D01*
X134073883Y-104634816D01*
X134073882Y-104634816D01*
X133931633Y-104596700D01*
X133784367Y-104596700D01*
X133642118Y-104634816D01*
X133642112Y-104634818D01*
X133514584Y-104708447D01*
X133514581Y-104708449D01*
X133410449Y-104812581D01*
X133410447Y-104812584D01*
X133336818Y-104940112D01*
X133336816Y-104940118D01*
X133298700Y-105082367D01*
X133298700Y-105229632D01*
X133336816Y-105371881D01*
X133336818Y-105371887D01*
X133418740Y-105513779D01*
X133416398Y-105515130D01*
X133449075Y-105581395D01*
X133455529Y-105679899D01*
X133423796Y-105773376D01*
X133358706Y-105847593D01*
X133270170Y-105891252D01*
X133171666Y-105897706D01*
X133126606Y-105887510D01*
X133031837Y-105872500D01*
X133031834Y-105872500D01*
X132668166Y-105872500D01*
X132668162Y-105872500D01*
X132573445Y-105887502D01*
X132573443Y-105887502D01*
X132464859Y-105942829D01*
X132369850Y-105969624D01*
X132271818Y-105958021D01*
X132235141Y-105942829D01*
X132126555Y-105887502D01*
X132031837Y-105872500D01*
X132031834Y-105872500D01*
X131668166Y-105872500D01*
X131668162Y-105872500D01*
X131573445Y-105887502D01*
X131573441Y-105887503D01*
X131459282Y-105945670D01*
X131459274Y-105945676D01*
X131368676Y-106036274D01*
X131368670Y-106036282D01*
X131310503Y-106150441D01*
X131310502Y-106150445D01*
X131295500Y-106245162D01*
X131295500Y-107558837D01*
X131310502Y-107653554D01*
X131310503Y-107653558D01*
X131368670Y-107767717D01*
X131368676Y-107767725D01*
X131394398Y-107793447D01*
X131449242Y-107875526D01*
X131468500Y-107972345D01*
X131468500Y-109189735D01*
X131467734Y-109193581D01*
X131468382Y-109197447D01*
X131458135Y-109241841D01*
X131449242Y-109286554D01*
X131447063Y-109289814D01*
X131446182Y-109293633D01*
X131427156Y-109335874D01*
X131378449Y-109384582D01*
X131304816Y-109512118D01*
X131266700Y-109654367D01*
X127254500Y-109654367D01*
X127254500Y-102107500D01*
X127273758Y-102010681D01*
X127328602Y-101928602D01*
X127410681Y-101873758D01*
X127507500Y-101854500D01*
X151101221Y-101854500D01*
X151198040Y-101873758D01*
G37*
G04 #@! TD.AperFunction*
M02*
