G04 #@! TF.GenerationSoftware,KiCad,Pcbnew,9.0.9-9.0.9~ubuntu22.04.1*
G04 #@! TF.CreationDate,2026-06-30T17:23:50-06:00*
G04 #@! TF.ProjectId,ckt-axle-indicator,636b742d-6178-46c6-952d-696e64696361,rev?*
G04 #@! TF.SameCoordinates,Original*
G04 #@! TF.FileFunction,Legend,Bot*
G04 #@! TF.FilePolarity,Positive*
%FSLAX46Y46*%
G04 Gerber Fmt 4.6, Leading zero omitted, Abs format (unit mm)*
G04 Created by KiCad (PCBNEW 9.0.9-9.0.9~ubuntu22.04.1) date 2026-06-30 17:23:50*
%MOMM*%
%LPD*%
G01*
G04 APERTURE LIST*
%ADD10C,0.300000*%
G04 APERTURE END LIST*
D10*
X167007142Y-119671055D02*
X167078570Y-119742484D01*
X167078570Y-119742484D02*
X167292856Y-119813912D01*
X167292856Y-119813912D02*
X167435713Y-119813912D01*
X167435713Y-119813912D02*
X167649999Y-119742484D01*
X167649999Y-119742484D02*
X167792856Y-119599626D01*
X167792856Y-119599626D02*
X167864285Y-119456769D01*
X167864285Y-119456769D02*
X167935713Y-119171055D01*
X167935713Y-119171055D02*
X167935713Y-118956769D01*
X167935713Y-118956769D02*
X167864285Y-118671055D01*
X167864285Y-118671055D02*
X167792856Y-118528198D01*
X167792856Y-118528198D02*
X167649999Y-118385341D01*
X167649999Y-118385341D02*
X167435713Y-118313912D01*
X167435713Y-118313912D02*
X167292856Y-118313912D01*
X167292856Y-118313912D02*
X167078570Y-118385341D01*
X167078570Y-118385341D02*
X167007142Y-118456769D01*
X166364285Y-119813912D02*
X166364285Y-118313912D01*
X165507142Y-119813912D02*
X166149999Y-118956769D01*
X165507142Y-118313912D02*
X166364285Y-119171055D01*
X165078570Y-118313912D02*
X164221428Y-118313912D01*
X164649999Y-119813912D02*
X164649999Y-118313912D01*
X163721428Y-119242484D02*
X162578571Y-119242484D01*
X161935713Y-119385341D02*
X161221428Y-119385341D01*
X162078570Y-119813912D02*
X161578570Y-118313912D01*
X161578570Y-118313912D02*
X161078570Y-119813912D01*
X160721428Y-118313912D02*
X159721428Y-119813912D01*
X159721428Y-118313912D02*
X160721428Y-119813912D01*
X158435714Y-119813912D02*
X159150000Y-119813912D01*
X159150000Y-119813912D02*
X159150000Y-118313912D01*
X157935714Y-119028198D02*
X157435714Y-119028198D01*
X157221428Y-119813912D02*
X157935714Y-119813912D01*
X157935714Y-119813912D02*
X157935714Y-118313912D01*
X157935714Y-118313912D02*
X157221428Y-118313912D01*
X156578571Y-119242484D02*
X155435714Y-119242484D01*
X154721428Y-119813912D02*
X154721428Y-118313912D01*
X154007142Y-119813912D02*
X154007142Y-118313912D01*
X154007142Y-118313912D02*
X153149999Y-119813912D01*
X153149999Y-119813912D02*
X153149999Y-118313912D01*
X152435713Y-119813912D02*
X152435713Y-118313912D01*
X152435713Y-118313912D02*
X152078570Y-118313912D01*
X152078570Y-118313912D02*
X151864284Y-118385341D01*
X151864284Y-118385341D02*
X151721427Y-118528198D01*
X151721427Y-118528198D02*
X151649998Y-118671055D01*
X151649998Y-118671055D02*
X151578570Y-118956769D01*
X151578570Y-118956769D02*
X151578570Y-119171055D01*
X151578570Y-119171055D02*
X151649998Y-119456769D01*
X151649998Y-119456769D02*
X151721427Y-119599626D01*
X151721427Y-119599626D02*
X151864284Y-119742484D01*
X151864284Y-119742484D02*
X152078570Y-119813912D01*
X152078570Y-119813912D02*
X152435713Y-119813912D01*
X150935713Y-119813912D02*
X150935713Y-118313912D01*
X149364284Y-119671055D02*
X149435712Y-119742484D01*
X149435712Y-119742484D02*
X149649998Y-119813912D01*
X149649998Y-119813912D02*
X149792855Y-119813912D01*
X149792855Y-119813912D02*
X150007141Y-119742484D01*
X150007141Y-119742484D02*
X150149998Y-119599626D01*
X150149998Y-119599626D02*
X150221427Y-119456769D01*
X150221427Y-119456769D02*
X150292855Y-119171055D01*
X150292855Y-119171055D02*
X150292855Y-118956769D01*
X150292855Y-118956769D02*
X150221427Y-118671055D01*
X150221427Y-118671055D02*
X150149998Y-118528198D01*
X150149998Y-118528198D02*
X150007141Y-118385341D01*
X150007141Y-118385341D02*
X149792855Y-118313912D01*
X149792855Y-118313912D02*
X149649998Y-118313912D01*
X149649998Y-118313912D02*
X149435712Y-118385341D01*
X149435712Y-118385341D02*
X149364284Y-118456769D01*
X148792855Y-119385341D02*
X148078570Y-119385341D01*
X148935712Y-119813912D02*
X148435712Y-118313912D01*
X148435712Y-118313912D02*
X147935712Y-119813912D01*
X147649998Y-118313912D02*
X146792856Y-118313912D01*
X147221427Y-119813912D02*
X147221427Y-118313912D01*
X146007141Y-118313912D02*
X145721427Y-118313912D01*
X145721427Y-118313912D02*
X145578570Y-118385341D01*
X145578570Y-118385341D02*
X145435713Y-118528198D01*
X145435713Y-118528198D02*
X145364284Y-118813912D01*
X145364284Y-118813912D02*
X145364284Y-119313912D01*
X145364284Y-119313912D02*
X145435713Y-119599626D01*
X145435713Y-119599626D02*
X145578570Y-119742484D01*
X145578570Y-119742484D02*
X145721427Y-119813912D01*
X145721427Y-119813912D02*
X146007141Y-119813912D01*
X146007141Y-119813912D02*
X146149999Y-119742484D01*
X146149999Y-119742484D02*
X146292856Y-119599626D01*
X146292856Y-119599626D02*
X146364284Y-119313912D01*
X146364284Y-119313912D02*
X146364284Y-118813912D01*
X146364284Y-118813912D02*
X146292856Y-118528198D01*
X146292856Y-118528198D02*
X146149999Y-118385341D01*
X146149999Y-118385341D02*
X146007141Y-118313912D01*
X143864284Y-119813912D02*
X144364284Y-119099626D01*
X144721427Y-119813912D02*
X144721427Y-118313912D01*
X144721427Y-118313912D02*
X144149998Y-118313912D01*
X144149998Y-118313912D02*
X144007141Y-118385341D01*
X144007141Y-118385341D02*
X143935712Y-118456769D01*
X143935712Y-118456769D02*
X143864284Y-118599626D01*
X143864284Y-118599626D02*
X143864284Y-118813912D01*
X143864284Y-118813912D02*
X143935712Y-118956769D01*
X143935712Y-118956769D02*
X144007141Y-119028198D01*
X144007141Y-119028198D02*
X144149998Y-119099626D01*
X144149998Y-119099626D02*
X144721427Y-119099626D01*
X141078570Y-118813912D02*
X140721427Y-119813912D01*
X140721427Y-119813912D02*
X140364284Y-118813912D01*
X139007141Y-119813912D02*
X139864284Y-119813912D01*
X139435713Y-119813912D02*
X139435713Y-118313912D01*
X139435713Y-118313912D02*
X139578570Y-118528198D01*
X139578570Y-118528198D02*
X139721427Y-118671055D01*
X139721427Y-118671055D02*
X139864284Y-118742484D01*
X138364285Y-119671055D02*
X138292856Y-119742484D01*
X138292856Y-119742484D02*
X138364285Y-119813912D01*
X138364285Y-119813912D02*
X138435713Y-119742484D01*
X138435713Y-119742484D02*
X138364285Y-119671055D01*
X138364285Y-119671055D02*
X138364285Y-119813912D01*
X137364284Y-118313912D02*
X137221427Y-118313912D01*
X137221427Y-118313912D02*
X137078570Y-118385341D01*
X137078570Y-118385341D02*
X137007142Y-118456769D01*
X137007142Y-118456769D02*
X136935713Y-118599626D01*
X136935713Y-118599626D02*
X136864284Y-118885341D01*
X136864284Y-118885341D02*
X136864284Y-119242484D01*
X136864284Y-119242484D02*
X136935713Y-119528198D01*
X136935713Y-119528198D02*
X137007142Y-119671055D01*
X137007142Y-119671055D02*
X137078570Y-119742484D01*
X137078570Y-119742484D02*
X137221427Y-119813912D01*
X137221427Y-119813912D02*
X137364284Y-119813912D01*
X137364284Y-119813912D02*
X137507142Y-119742484D01*
X137507142Y-119742484D02*
X137578570Y-119671055D01*
X137578570Y-119671055D02*
X137649999Y-119528198D01*
X137649999Y-119528198D02*
X137721427Y-119242484D01*
X137721427Y-119242484D02*
X137721427Y-118885341D01*
X137721427Y-118885341D02*
X137649999Y-118599626D01*
X137649999Y-118599626D02*
X137578570Y-118456769D01*
X137578570Y-118456769D02*
X137507142Y-118385341D01*
X137507142Y-118385341D02*
X137364284Y-118313912D01*
X161292855Y-121085971D02*
X161435712Y-121014542D01*
X161435712Y-121014542D02*
X161721426Y-121014542D01*
X161721426Y-121014542D02*
X161864284Y-121085971D01*
X161864284Y-121085971D02*
X162007141Y-121228828D01*
X162007141Y-121228828D02*
X162078569Y-121371685D01*
X162078569Y-121371685D02*
X162078569Y-121657400D01*
X162078569Y-121657400D02*
X162007141Y-121800257D01*
X162007141Y-121800257D02*
X161864284Y-121943114D01*
X161864284Y-121943114D02*
X161721426Y-122014542D01*
X161721426Y-122014542D02*
X161435712Y-122014542D01*
X161435712Y-122014542D02*
X161292855Y-121943114D01*
X161578569Y-120514542D02*
X161935712Y-120585971D01*
X161935712Y-120585971D02*
X162292855Y-120800257D01*
X162292855Y-120800257D02*
X162507141Y-121157400D01*
X162507141Y-121157400D02*
X162578569Y-121514542D01*
X162578569Y-121514542D02*
X162507141Y-121871685D01*
X162507141Y-121871685D02*
X162292855Y-122228828D01*
X162292855Y-122228828D02*
X161935712Y-122443114D01*
X161935712Y-122443114D02*
X161578569Y-122514542D01*
X161578569Y-122514542D02*
X161221426Y-122443114D01*
X161221426Y-122443114D02*
X160864284Y-122228828D01*
X160864284Y-122228828D02*
X160649998Y-121871685D01*
X160649998Y-121871685D02*
X160578569Y-121514542D01*
X160578569Y-121514542D02*
X160649998Y-121157400D01*
X160649998Y-121157400D02*
X160864284Y-120800257D01*
X160864284Y-120800257D02*
X161221426Y-120585971D01*
X161221426Y-120585971D02*
X161578569Y-120514542D01*
X160007140Y-120871685D02*
X159935712Y-120800257D01*
X159935712Y-120800257D02*
X159792855Y-120728828D01*
X159792855Y-120728828D02*
X159435712Y-120728828D01*
X159435712Y-120728828D02*
X159292855Y-120800257D01*
X159292855Y-120800257D02*
X159221426Y-120871685D01*
X159221426Y-120871685D02*
X159149997Y-121014542D01*
X159149997Y-121014542D02*
X159149997Y-121157400D01*
X159149997Y-121157400D02*
X159221426Y-121371685D01*
X159221426Y-121371685D02*
X160078569Y-122228828D01*
X160078569Y-122228828D02*
X159149997Y-122228828D01*
X158221426Y-120728828D02*
X158078569Y-120728828D01*
X158078569Y-120728828D02*
X157935712Y-120800257D01*
X157935712Y-120800257D02*
X157864284Y-120871685D01*
X157864284Y-120871685D02*
X157792855Y-121014542D01*
X157792855Y-121014542D02*
X157721426Y-121300257D01*
X157721426Y-121300257D02*
X157721426Y-121657400D01*
X157721426Y-121657400D02*
X157792855Y-121943114D01*
X157792855Y-121943114D02*
X157864284Y-122085971D01*
X157864284Y-122085971D02*
X157935712Y-122157400D01*
X157935712Y-122157400D02*
X158078569Y-122228828D01*
X158078569Y-122228828D02*
X158221426Y-122228828D01*
X158221426Y-122228828D02*
X158364284Y-122157400D01*
X158364284Y-122157400D02*
X158435712Y-122085971D01*
X158435712Y-122085971D02*
X158507141Y-121943114D01*
X158507141Y-121943114D02*
X158578569Y-121657400D01*
X158578569Y-121657400D02*
X158578569Y-121300257D01*
X158578569Y-121300257D02*
X158507141Y-121014542D01*
X158507141Y-121014542D02*
X158435712Y-120871685D01*
X158435712Y-120871685D02*
X158364284Y-120800257D01*
X158364284Y-120800257D02*
X158221426Y-120728828D01*
X157149998Y-120871685D02*
X157078570Y-120800257D01*
X157078570Y-120800257D02*
X156935713Y-120728828D01*
X156935713Y-120728828D02*
X156578570Y-120728828D01*
X156578570Y-120728828D02*
X156435713Y-120800257D01*
X156435713Y-120800257D02*
X156364284Y-120871685D01*
X156364284Y-120871685D02*
X156292855Y-121014542D01*
X156292855Y-121014542D02*
X156292855Y-121157400D01*
X156292855Y-121157400D02*
X156364284Y-121371685D01*
X156364284Y-121371685D02*
X157221427Y-122228828D01*
X157221427Y-122228828D02*
X156292855Y-122228828D01*
X155007142Y-120728828D02*
X155292856Y-120728828D01*
X155292856Y-120728828D02*
X155435713Y-120800257D01*
X155435713Y-120800257D02*
X155507142Y-120871685D01*
X155507142Y-120871685D02*
X155649999Y-121085971D01*
X155649999Y-121085971D02*
X155721427Y-121371685D01*
X155721427Y-121371685D02*
X155721427Y-121943114D01*
X155721427Y-121943114D02*
X155649999Y-122085971D01*
X155649999Y-122085971D02*
X155578570Y-122157400D01*
X155578570Y-122157400D02*
X155435713Y-122228828D01*
X155435713Y-122228828D02*
X155149999Y-122228828D01*
X155149999Y-122228828D02*
X155007142Y-122157400D01*
X155007142Y-122157400D02*
X154935713Y-122085971D01*
X154935713Y-122085971D02*
X154864284Y-121943114D01*
X154864284Y-121943114D02*
X154864284Y-121585971D01*
X154864284Y-121585971D02*
X154935713Y-121443114D01*
X154935713Y-121443114D02*
X155007142Y-121371685D01*
X155007142Y-121371685D02*
X155149999Y-121300257D01*
X155149999Y-121300257D02*
X155435713Y-121300257D01*
X155435713Y-121300257D02*
X155578570Y-121371685D01*
X155578570Y-121371685D02*
X155649999Y-121443114D01*
X155649999Y-121443114D02*
X155721427Y-121585971D01*
X152221428Y-122085971D02*
X152292856Y-122157400D01*
X152292856Y-122157400D02*
X152507142Y-122228828D01*
X152507142Y-122228828D02*
X152649999Y-122228828D01*
X152649999Y-122228828D02*
X152864285Y-122157400D01*
X152864285Y-122157400D02*
X153007142Y-122014542D01*
X153007142Y-122014542D02*
X153078571Y-121871685D01*
X153078571Y-121871685D02*
X153149999Y-121585971D01*
X153149999Y-121585971D02*
X153149999Y-121371685D01*
X153149999Y-121371685D02*
X153078571Y-121085971D01*
X153078571Y-121085971D02*
X153007142Y-120943114D01*
X153007142Y-120943114D02*
X152864285Y-120800257D01*
X152864285Y-120800257D02*
X152649999Y-120728828D01*
X152649999Y-120728828D02*
X152507142Y-120728828D01*
X152507142Y-120728828D02*
X152292856Y-120800257D01*
X152292856Y-120800257D02*
X152221428Y-120871685D01*
X150721428Y-122085971D02*
X150792856Y-122157400D01*
X150792856Y-122157400D02*
X151007142Y-122228828D01*
X151007142Y-122228828D02*
X151149999Y-122228828D01*
X151149999Y-122228828D02*
X151364285Y-122157400D01*
X151364285Y-122157400D02*
X151507142Y-122014542D01*
X151507142Y-122014542D02*
X151578571Y-121871685D01*
X151578571Y-121871685D02*
X151649999Y-121585971D01*
X151649999Y-121585971D02*
X151649999Y-121371685D01*
X151649999Y-121371685D02*
X151578571Y-121085971D01*
X151578571Y-121085971D02*
X151507142Y-120943114D01*
X151507142Y-120943114D02*
X151364285Y-120800257D01*
X151364285Y-120800257D02*
X151149999Y-120728828D01*
X151149999Y-120728828D02*
X151007142Y-120728828D01*
X151007142Y-120728828D02*
X150792856Y-120800257D01*
X150792856Y-120800257D02*
X150721428Y-120871685D01*
X148435714Y-121443114D02*
X148221428Y-121514542D01*
X148221428Y-121514542D02*
X148149999Y-121585971D01*
X148149999Y-121585971D02*
X148078571Y-121728828D01*
X148078571Y-121728828D02*
X148078571Y-121943114D01*
X148078571Y-121943114D02*
X148149999Y-122085971D01*
X148149999Y-122085971D02*
X148221428Y-122157400D01*
X148221428Y-122157400D02*
X148364285Y-122228828D01*
X148364285Y-122228828D02*
X148935714Y-122228828D01*
X148935714Y-122228828D02*
X148935714Y-120728828D01*
X148935714Y-120728828D02*
X148435714Y-120728828D01*
X148435714Y-120728828D02*
X148292857Y-120800257D01*
X148292857Y-120800257D02*
X148221428Y-120871685D01*
X148221428Y-120871685D02*
X148149999Y-121014542D01*
X148149999Y-121014542D02*
X148149999Y-121157400D01*
X148149999Y-121157400D02*
X148221428Y-121300257D01*
X148221428Y-121300257D02*
X148292857Y-121371685D01*
X148292857Y-121371685D02*
X148435714Y-121443114D01*
X148435714Y-121443114D02*
X148935714Y-121443114D01*
X147149999Y-121514542D02*
X147149999Y-122228828D01*
X147649999Y-120728828D02*
X147149999Y-121514542D01*
X147149999Y-121514542D02*
X146649999Y-120728828D01*
X146150000Y-121657400D02*
X145007143Y-121657400D01*
X144364285Y-122157400D02*
X144150000Y-122228828D01*
X144150000Y-122228828D02*
X143792857Y-122228828D01*
X143792857Y-122228828D02*
X143650000Y-122157400D01*
X143650000Y-122157400D02*
X143578571Y-122085971D01*
X143578571Y-122085971D02*
X143507142Y-121943114D01*
X143507142Y-121943114D02*
X143507142Y-121800257D01*
X143507142Y-121800257D02*
X143578571Y-121657400D01*
X143578571Y-121657400D02*
X143650000Y-121585971D01*
X143650000Y-121585971D02*
X143792857Y-121514542D01*
X143792857Y-121514542D02*
X144078571Y-121443114D01*
X144078571Y-121443114D02*
X144221428Y-121371685D01*
X144221428Y-121371685D02*
X144292857Y-121300257D01*
X144292857Y-121300257D02*
X144364285Y-121157400D01*
X144364285Y-121157400D02*
X144364285Y-121014542D01*
X144364285Y-121014542D02*
X144292857Y-120871685D01*
X144292857Y-120871685D02*
X144221428Y-120800257D01*
X144221428Y-120800257D02*
X144078571Y-120728828D01*
X144078571Y-120728828D02*
X143721428Y-120728828D01*
X143721428Y-120728828D02*
X143507142Y-120800257D01*
X142935714Y-121800257D02*
X142221429Y-121800257D01*
X143078571Y-122228828D02*
X142578571Y-120728828D01*
X142578571Y-120728828D02*
X142078571Y-122228828D01*
M02*
