G04 #@! TF.GenerationSoftware,KiCad,Pcbnew,9.0.9-9.0.9~ubuntu22.04.1*
G04 #@! TF.CreationDate,2026-06-30T17:23:50-06:00*
G04 #@! TF.ProjectId,ckt-axle-indicator,636b742d-6178-46c6-952d-696e64696361,rev?*
G04 #@! TF.SameCoordinates,Original*
G04 #@! TF.FileFunction,Copper,L2,Bot*
G04 #@! TF.FilePolarity,Positive*
%FSLAX46Y46*%
G04 Gerber Fmt 4.6, Leading zero omitted, Abs format (unit mm)*
G04 Created by KiCad (PCBNEW 9.0.9-9.0.9~ubuntu22.04.1) date 2026-06-30 17:23:50*
%MOMM*%
%LPD*%
G01*
G04 APERTURE LIST*
G04 #@! TA.AperFunction,ComponentPad*
%ADD10C,8.000000*%
G04 #@! TD*
G04 #@! TA.AperFunction,ViaPad*
%ADD11C,0.609600*%
G04 #@! TD*
G04 #@! TA.AperFunction,Conductor*
%ADD12C,0.254000*%
G04 #@! TD*
G04 APERTURE END LIST*
D10*
X152400000Y-106426000D03*
D11*
X131826000Y-109728000D03*
X134874000Y-109728000D03*
X172974000Y-109728000D03*
X169926000Y-109728000D03*
X153162000Y-116462000D03*
X133858000Y-105156000D03*
X151638000Y-116462000D03*
X170942000Y-123444000D03*
X132842000Y-123444000D03*
X152400000Y-116459000D03*
X171958000Y-105156000D03*
D12*
X131826000Y-109728000D02*
X134874000Y-109728000D01*
X169926000Y-109728000D02*
X172974000Y-109728000D01*
G04 #@! TA.AperFunction,Conductor*
G36*
X151198040Y-101873758D02*
G01*
X151280119Y-101928602D01*
X151334963Y-102010681D01*
X151354221Y-102107500D01*
X151334963Y-102204319D01*
X151280119Y-102286398D01*
X151198040Y-102341242D01*
X151166702Y-102351879D01*
X151119436Y-102364543D01*
X151119424Y-102364547D01*
X150770323Y-102491609D01*
X150433622Y-102648615D01*
X150433610Y-102648620D01*
X150111878Y-102834373D01*
X150111877Y-102834374D01*
X149807563Y-103047457D01*
X149807562Y-103047458D01*
X149522960Y-103286267D01*
X149260267Y-103548960D01*
X149021458Y-103833562D01*
X149021457Y-103833563D01*
X148808374Y-104137877D01*
X148808373Y-104137878D01*
X148622620Y-104459610D01*
X148622615Y-104459622D01*
X148465609Y-104796323D01*
X148338547Y-105145424D01*
X148338543Y-105145436D01*
X148242391Y-105504280D01*
X148242390Y-105504283D01*
X148177882Y-105870131D01*
X148177878Y-105870157D01*
X148145500Y-106240240D01*
X148145500Y-106611759D01*
X148177878Y-106981842D01*
X148177882Y-106981868D01*
X148242390Y-107347716D01*
X148242391Y-107347719D01*
X148338543Y-107706563D01*
X148338547Y-107706575D01*
X148465609Y-108055676D01*
X148622615Y-108392377D01*
X148622620Y-108392389D01*
X148808373Y-108714121D01*
X148808374Y-108714122D01*
X149021457Y-109018436D01*
X149021458Y-109018437D01*
X149021462Y-109018442D01*
X149021463Y-109018443D01*
X149260265Y-109303037D01*
X149522963Y-109565735D01*
X149628591Y-109654367D01*
X149807562Y-109804541D01*
X149807563Y-109804542D01*
X150111877Y-110017625D01*
X150111878Y-110017626D01*
X150433610Y-110203379D01*
X150433617Y-110203382D01*
X150433619Y-110203383D01*
X150770322Y-110360390D01*
X151119428Y-110487454D01*
X151478280Y-110583608D01*
X151478283Y-110583609D01*
X151743475Y-110630369D01*
X151844147Y-110648120D01*
X151844155Y-110648120D01*
X151844157Y-110648121D01*
X151911482Y-110654011D01*
X152214245Y-110680500D01*
X152214254Y-110680500D01*
X152585746Y-110680500D01*
X152585755Y-110680500D01*
X152955853Y-110648120D01*
X153155797Y-110612864D01*
X153321716Y-110583609D01*
X153321717Y-110583608D01*
X153321720Y-110583608D01*
X153680572Y-110487454D01*
X154029678Y-110360390D01*
X154366381Y-110203383D01*
X154366385Y-110203380D01*
X154366389Y-110203379D01*
X154688121Y-110017626D01*
X154688122Y-110017625D01*
X154992436Y-109804542D01*
X154992437Y-109804541D01*
X154992443Y-109804537D01*
X155171409Y-109654367D01*
X169366700Y-109654367D01*
X169366700Y-109801633D01*
X169367480Y-109804542D01*
X169404816Y-109943881D01*
X169404818Y-109943887D01*
X169478447Y-110071415D01*
X169478449Y-110071418D01*
X169582581Y-110175550D01*
X169582584Y-110175552D01*
X169710112Y-110249181D01*
X169710113Y-110249181D01*
X169710118Y-110249184D01*
X169852367Y-110287300D01*
X169999633Y-110287300D01*
X170141882Y-110249184D01*
X170269418Y-110175551D01*
X170269423Y-110175545D01*
X170282574Y-110165456D01*
X170284590Y-110168084D01*
X170343446Y-110128758D01*
X170440265Y-110109500D01*
X172459735Y-110109500D01*
X172556554Y-110128758D01*
X172615409Y-110168084D01*
X172617426Y-110165456D01*
X172630579Y-110175548D01*
X172630582Y-110175551D01*
X172630584Y-110175552D01*
X172758112Y-110249181D01*
X172758113Y-110249181D01*
X172758118Y-110249184D01*
X172900367Y-110287300D01*
X173047633Y-110287300D01*
X173189882Y-110249184D01*
X173317418Y-110175551D01*
X173421551Y-110071418D01*
X173495184Y-109943882D01*
X173533300Y-109801633D01*
X173533300Y-109654367D01*
X173495184Y-109512118D01*
X173464450Y-109458886D01*
X173421552Y-109384584D01*
X173421550Y-109384581D01*
X173317418Y-109280449D01*
X173317415Y-109280447D01*
X173189887Y-109206818D01*
X173189883Y-109206816D01*
X173189882Y-109206816D01*
X173047633Y-109168700D01*
X172900367Y-109168700D01*
X172758118Y-109206816D01*
X172758112Y-109206818D01*
X172630584Y-109280447D01*
X172617426Y-109290544D01*
X172615409Y-109287915D01*
X172556554Y-109327242D01*
X172459735Y-109346500D01*
X170440265Y-109346500D01*
X170343446Y-109327242D01*
X170284590Y-109287915D01*
X170282574Y-109290544D01*
X170269415Y-109280447D01*
X170141887Y-109206818D01*
X170141883Y-109206816D01*
X170141882Y-109206816D01*
X169999633Y-109168700D01*
X169852367Y-109168700D01*
X169710118Y-109206816D01*
X169710112Y-109206818D01*
X169582584Y-109280447D01*
X169582581Y-109280449D01*
X169478449Y-109384581D01*
X169478447Y-109384584D01*
X169404818Y-109512112D01*
X169404816Y-109512118D01*
X169366700Y-109654367D01*
X155171409Y-109654367D01*
X155277037Y-109565735D01*
X155539735Y-109303037D01*
X155778537Y-109018443D01*
X155991627Y-108714119D01*
X156177379Y-108392389D01*
X156177380Y-108392385D01*
X156177383Y-108392381D01*
X156334390Y-108055678D01*
X156461454Y-107706572D01*
X156557608Y-107347720D01*
X156622120Y-106981853D01*
X156654500Y-106611755D01*
X156654500Y-106240245D01*
X156622120Y-105870147D01*
X156557608Y-105504280D01*
X156461454Y-105145428D01*
X156334390Y-104796322D01*
X156177383Y-104459619D01*
X156177382Y-104459617D01*
X156177379Y-104459610D01*
X155991626Y-104137878D01*
X155991625Y-104137877D01*
X155778542Y-103833563D01*
X155778541Y-103833562D01*
X155539732Y-103548960D01*
X155277039Y-103286267D01*
X154992437Y-103047458D01*
X154992436Y-103047457D01*
X154688122Y-102834374D01*
X154688121Y-102834373D01*
X154366389Y-102648620D01*
X154366377Y-102648615D01*
X154029676Y-102491609D01*
X153680575Y-102364547D01*
X153680563Y-102364543D01*
X153633298Y-102351879D01*
X153544762Y-102308218D01*
X153479675Y-102234000D01*
X153447943Y-102140523D01*
X153454400Y-102042019D01*
X153498061Y-101953483D01*
X153572279Y-101888396D01*
X153665756Y-101856664D01*
X153698779Y-101854500D01*
X177292500Y-101854500D01*
X177389319Y-101873758D01*
X177471398Y-101928602D01*
X177526242Y-102010681D01*
X177545500Y-102107500D01*
X177545500Y-126492500D01*
X177526242Y-126589319D01*
X177471398Y-126671398D01*
X177389319Y-126726242D01*
X177292500Y-126745500D01*
X127507500Y-126745500D01*
X127410681Y-126726242D01*
X127328602Y-126671398D01*
X127273758Y-126589319D01*
X127254500Y-126492500D01*
X127254500Y-109654367D01*
X131266700Y-109654367D01*
X131266700Y-109801633D01*
X131267480Y-109804542D01*
X131304816Y-109943881D01*
X131304818Y-109943887D01*
X131378447Y-110071415D01*
X131378449Y-110071418D01*
X131482581Y-110175550D01*
X131482584Y-110175552D01*
X131610112Y-110249181D01*
X131610113Y-110249181D01*
X131610118Y-110249184D01*
X131752367Y-110287300D01*
X131899633Y-110287300D01*
X132041882Y-110249184D01*
X132169418Y-110175551D01*
X132169423Y-110175545D01*
X132182574Y-110165456D01*
X132184590Y-110168084D01*
X132243446Y-110128758D01*
X132340265Y-110109500D01*
X134359735Y-110109500D01*
X134456554Y-110128758D01*
X134515409Y-110168084D01*
X134517426Y-110165456D01*
X134530579Y-110175548D01*
X134530582Y-110175551D01*
X134530584Y-110175552D01*
X134658112Y-110249181D01*
X134658113Y-110249181D01*
X134658118Y-110249184D01*
X134800367Y-110287300D01*
X134947633Y-110287300D01*
X135089882Y-110249184D01*
X135217418Y-110175551D01*
X135321551Y-110071418D01*
X135395184Y-109943882D01*
X135433300Y-109801633D01*
X135433300Y-109654367D01*
X135395184Y-109512118D01*
X135364450Y-109458886D01*
X135321552Y-109384584D01*
X135321550Y-109384581D01*
X135217418Y-109280449D01*
X135217415Y-109280447D01*
X135089887Y-109206818D01*
X135089883Y-109206816D01*
X135089882Y-109206816D01*
X134947633Y-109168700D01*
X134800367Y-109168700D01*
X134658118Y-109206816D01*
X134658112Y-109206818D01*
X134530584Y-109280447D01*
X134517426Y-109290544D01*
X134515409Y-109287915D01*
X134456554Y-109327242D01*
X134359735Y-109346500D01*
X132340265Y-109346500D01*
X132243446Y-109327242D01*
X132184590Y-109287915D01*
X132182574Y-109290544D01*
X132169415Y-109280447D01*
X132041887Y-109206818D01*
X132041883Y-109206816D01*
X132041882Y-109206816D01*
X131899633Y-109168700D01*
X131752367Y-109168700D01*
X131610118Y-109206816D01*
X131610112Y-109206818D01*
X131482584Y-109280447D01*
X131482581Y-109280449D01*
X131378449Y-109384581D01*
X131378447Y-109384584D01*
X131304818Y-109512112D01*
X131304816Y-109512118D01*
X131266700Y-109654367D01*
X127254500Y-109654367D01*
X127254500Y-102107500D01*
X127273758Y-102010681D01*
X127328602Y-101928602D01*
X127410681Y-101873758D01*
X127507500Y-101854500D01*
X151101221Y-101854500D01*
X151198040Y-101873758D01*
G37*
G04 #@! TD.AperFunction*
M02*
