G04 #@! TF.GenerationSoftware,KiCad,Pcbnew,9.0.7-9.0.7~ubuntu24.04.1*
G04 #@! TF.CreationDate,2026-03-19T15:46:38-06:00*
G04 #@! TF.ProjectId,ard-axlesim,6172642d-6178-46c6-9573-696d2e6b6963,rev?*
G04 #@! TF.SameCoordinates,Original*
G04 #@! TF.FileFunction,Copper,L1,Top*
G04 #@! TF.FilePolarity,Positive*
%FSLAX46Y46*%
G04 Gerber Fmt 4.6, Leading zero omitted, Abs format (unit mm)*
G04 Created by KiCad (PCBNEW 9.0.7-9.0.7~ubuntu24.04.1) date 2026-03-19 15:46:38*
%MOMM*%
%LPD*%
G01*
G04 APERTURE LIST*
G04 #@! TA.AperFunction,ComponentPad*
%ADD10R,1.700000X1.700000*%
G04 #@! TD*
G04 #@! TA.AperFunction,ComponentPad*
%ADD11C,1.700000*%
G04 #@! TD*
G04 #@! TA.AperFunction,SMDPad,CuDef*
%ADD12R,1.117600X2.438400*%
G04 #@! TD*
G04 #@! TA.AperFunction,SMDPad,CuDef*
%ADD13R,2.489200X1.193800*%
G04 #@! TD*
G04 #@! TA.AperFunction,ViaPad*
%ADD14C,0.609600*%
G04 #@! TD*
G04 #@! TA.AperFunction,Conductor*
%ADD15C,0.250000*%
G04 #@! TD*
G04 #@! TA.AperFunction,Conductor*
%ADD16C,1.016000*%
G04 #@! TD*
G04 APERTURE END LIST*
D10*
X127940000Y-97460000D03*
D11*
X130480000Y-97460000D03*
X133020000Y-97460000D03*
X135560000Y-97460000D03*
X138100000Y-97460000D03*
X140640000Y-97460000D03*
X143180000Y-97460000D03*
X145720000Y-97460000D03*
D10*
X150800000Y-97460000D03*
D11*
X153340000Y-97460000D03*
X155880000Y-97460000D03*
X158420000Y-97460000D03*
X160960000Y-97460000D03*
X163500000Y-97460000D03*
D10*
X118796000Y-49200000D03*
D11*
X121336000Y-49200000D03*
X123876000Y-49200000D03*
X126416000Y-49200000D03*
X128956000Y-49200000D03*
X131496000Y-49200000D03*
X134036000Y-49200000D03*
X136576000Y-49200000D03*
X139116000Y-49200000D03*
X141656000Y-49200000D03*
D10*
X145720000Y-49200000D03*
D11*
X148260000Y-49200000D03*
X150800000Y-49200000D03*
X153340000Y-49200000D03*
X155880000Y-49200000D03*
X158420000Y-49200000D03*
X160960000Y-49200000D03*
X163500000Y-49200000D03*
G04 #@! TA.AperFunction,SMDPad,CuDef*
G36*
G01*
X125118000Y-84575000D02*
X125118000Y-83675000D01*
G75*
G02*
X125368000Y-83425000I250000J0D01*
G01*
X125893000Y-83425000D01*
G75*
G02*
X126143000Y-83675000I0J-250000D01*
G01*
X126143000Y-84575000D01*
G75*
G02*
X125893000Y-84825000I-250000J0D01*
G01*
X125368000Y-84825000D01*
G75*
G02*
X125118000Y-84575000I0J250000D01*
G01*
G37*
G04 #@! TD.AperFunction*
G04 #@! TA.AperFunction,SMDPad,CuDef*
G36*
G01*
X126943000Y-84575000D02*
X126943000Y-83675000D01*
G75*
G02*
X127193000Y-83425000I250000J0D01*
G01*
X127718000Y-83425000D01*
G75*
G02*
X127968000Y-83675000I0J-250000D01*
G01*
X127968000Y-84575000D01*
G75*
G02*
X127718000Y-84825000I-250000J0D01*
G01*
X127193000Y-84825000D01*
G75*
G02*
X126943000Y-84575000I0J250000D01*
G01*
G37*
G04 #@! TD.AperFunction*
G04 #@! TA.AperFunction,SMDPad,CuDef*
G36*
G01*
X150840100Y-90078000D02*
X151944100Y-90078000D01*
G75*
G02*
X152082100Y-90216000I0J-138000D01*
G01*
X152082100Y-92040000D01*
G75*
G02*
X151944100Y-92178000I-138000J0D01*
G01*
X150840100Y-92178000D01*
G75*
G02*
X150702100Y-92040000I0J138000D01*
G01*
X150702100Y-90216000D01*
G75*
G02*
X150840100Y-90078000I138000J0D01*
G01*
G37*
G04 #@! TD.AperFunction*
G04 #@! TA.AperFunction,SMDPad,CuDef*
G36*
G01*
X150840100Y-80978000D02*
X151944100Y-80978000D01*
G75*
G02*
X152082100Y-81116000I0J-138000D01*
G01*
X152082100Y-82940000D01*
G75*
G02*
X151944100Y-83078000I-138000J0D01*
G01*
X150840100Y-83078000D01*
G75*
G02*
X150702100Y-82940000I0J138000D01*
G01*
X150702100Y-81116000D01*
G75*
G02*
X150840100Y-80978000I138000J0D01*
G01*
G37*
G04 #@! TD.AperFunction*
G04 #@! TA.AperFunction,SMDPad,CuDef*
G36*
G01*
X155320100Y-90078000D02*
X156424100Y-90078000D01*
G75*
G02*
X156562100Y-90216000I0J-138000D01*
G01*
X156562100Y-92040000D01*
G75*
G02*
X156424100Y-92178000I-138000J0D01*
G01*
X155320100Y-92178000D01*
G75*
G02*
X155182100Y-92040000I0J138000D01*
G01*
X155182100Y-90216000D01*
G75*
G02*
X155320100Y-90078000I138000J0D01*
G01*
G37*
G04 #@! TD.AperFunction*
G04 #@! TA.AperFunction,SMDPad,CuDef*
G36*
G01*
X155320100Y-80978000D02*
X156424100Y-80978000D01*
G75*
G02*
X156562100Y-81116000I0J-138000D01*
G01*
X156562100Y-82940000D01*
G75*
G02*
X156424100Y-83078000I-138000J0D01*
G01*
X155320100Y-83078000D01*
G75*
G02*
X155182100Y-82940000I0J138000D01*
G01*
X155182100Y-81116000D01*
G75*
G02*
X155320100Y-80978000I138000J0D01*
G01*
G37*
G04 #@! TD.AperFunction*
D10*
X103810000Y-61900000D03*
D11*
X106350000Y-61900000D03*
X108890000Y-61900000D03*
G04 #@! TA.AperFunction,SMDPad,CuDef*
G36*
G01*
X158687000Y-89426000D02*
X158687000Y-88476000D01*
G75*
G02*
X158937000Y-88226000I250000J0D01*
G01*
X159437000Y-88226000D01*
G75*
G02*
X159687000Y-88476000I0J-250000D01*
G01*
X159687000Y-89426000D01*
G75*
G02*
X159437000Y-89676000I-250000J0D01*
G01*
X158937000Y-89676000D01*
G75*
G02*
X158687000Y-89426000I0J250000D01*
G01*
G37*
G04 #@! TD.AperFunction*
G04 #@! TA.AperFunction,SMDPad,CuDef*
G36*
G01*
X160587000Y-89426000D02*
X160587000Y-88476000D01*
G75*
G02*
X160837000Y-88226000I250000J0D01*
G01*
X161337000Y-88226000D01*
G75*
G02*
X161587000Y-88476000I0J-250000D01*
G01*
X161587000Y-89426000D01*
G75*
G02*
X161337000Y-89676000I-250000J0D01*
G01*
X160837000Y-89676000D01*
G75*
G02*
X160587000Y-89426000I0J250000D01*
G01*
G37*
G04 #@! TD.AperFunction*
G04 #@! TA.AperFunction,SMDPad,CuDef*
G36*
G01*
X125118000Y-81400000D02*
X125118000Y-80500000D01*
G75*
G02*
X125368000Y-80250000I250000J0D01*
G01*
X125893000Y-80250000D01*
G75*
G02*
X126143000Y-80500000I0J-250000D01*
G01*
X126143000Y-81400000D01*
G75*
G02*
X125893000Y-81650000I-250000J0D01*
G01*
X125368000Y-81650000D01*
G75*
G02*
X125118000Y-81400000I0J250000D01*
G01*
G37*
G04 #@! TD.AperFunction*
G04 #@! TA.AperFunction,SMDPad,CuDef*
G36*
G01*
X126943000Y-81400000D02*
X126943000Y-80500000D01*
G75*
G02*
X127193000Y-80250000I250000J0D01*
G01*
X127718000Y-80250000D01*
G75*
G02*
X127968000Y-80500000I0J-250000D01*
G01*
X127968000Y-81400000D01*
G75*
G02*
X127718000Y-81650000I-250000J0D01*
G01*
X127193000Y-81650000D01*
G75*
G02*
X126943000Y-81400000I0J250000D01*
G01*
G37*
G04 #@! TD.AperFunction*
G04 #@! TA.AperFunction,SMDPad,CuDef*
G36*
G01*
X125118000Y-62350000D02*
X125118000Y-61450000D01*
G75*
G02*
X125368000Y-61200000I250000J0D01*
G01*
X125893000Y-61200000D01*
G75*
G02*
X126143000Y-61450000I0J-250000D01*
G01*
X126143000Y-62350000D01*
G75*
G02*
X125893000Y-62600000I-250000J0D01*
G01*
X125368000Y-62600000D01*
G75*
G02*
X125118000Y-62350000I0J250000D01*
G01*
G37*
G04 #@! TD.AperFunction*
G04 #@! TA.AperFunction,SMDPad,CuDef*
G36*
G01*
X126943000Y-62350000D02*
X126943000Y-61450000D01*
G75*
G02*
X127193000Y-61200000I250000J0D01*
G01*
X127718000Y-61200000D01*
G75*
G02*
X127968000Y-61450000I0J-250000D01*
G01*
X127968000Y-62350000D01*
G75*
G02*
X127718000Y-62600000I-250000J0D01*
G01*
X127193000Y-62600000D01*
G75*
G02*
X126943000Y-62350000I0J250000D01*
G01*
G37*
G04 #@! TD.AperFunction*
D12*
X142418000Y-67729300D03*
X144958000Y-67729300D03*
X147498000Y-67729300D03*
X150038000Y-67729300D03*
X152578000Y-67729300D03*
X152578000Y-59118700D03*
X150038000Y-59118700D03*
X147498000Y-59118700D03*
X144958000Y-59118700D03*
X142418000Y-59118700D03*
G04 #@! TA.AperFunction,SMDPad,CuDef*
G36*
G01*
X163649000Y-74749000D02*
X162399000Y-74749000D01*
G75*
G02*
X162249000Y-74599000I0J150000D01*
G01*
X162249000Y-74299000D01*
G75*
G02*
X162399000Y-74149000I150000J0D01*
G01*
X163649000Y-74149000D01*
G75*
G02*
X163799000Y-74299000I0J-150000D01*
G01*
X163799000Y-74599000D01*
G75*
G02*
X163649000Y-74749000I-150000J0D01*
G01*
G37*
G04 #@! TD.AperFunction*
G04 #@! TA.AperFunction,SMDPad,CuDef*
G36*
G01*
X163649000Y-73749000D02*
X162399000Y-73749000D01*
G75*
G02*
X162249000Y-73599000I0J150000D01*
G01*
X162249000Y-73299000D01*
G75*
G02*
X162399000Y-73149000I150000J0D01*
G01*
X163649000Y-73149000D01*
G75*
G02*
X163799000Y-73299000I0J-150000D01*
G01*
X163799000Y-73599000D01*
G75*
G02*
X163649000Y-73749000I-150000J0D01*
G01*
G37*
G04 #@! TD.AperFunction*
G04 #@! TA.AperFunction,SMDPad,CuDef*
G36*
G01*
X163649000Y-72749000D02*
X162399000Y-72749000D01*
G75*
G02*
X162249000Y-72599000I0J150000D01*
G01*
X162249000Y-72299000D01*
G75*
G02*
X162399000Y-72149000I150000J0D01*
G01*
X163649000Y-72149000D01*
G75*
G02*
X163799000Y-72299000I0J-150000D01*
G01*
X163799000Y-72599000D01*
G75*
G02*
X163649000Y-72749000I-150000J0D01*
G01*
G37*
G04 #@! TD.AperFunction*
G04 #@! TA.AperFunction,SMDPad,CuDef*
G36*
G01*
X163649000Y-71749000D02*
X162399000Y-71749000D01*
G75*
G02*
X162249000Y-71599000I0J150000D01*
G01*
X162249000Y-71299000D01*
G75*
G02*
X162399000Y-71149000I150000J0D01*
G01*
X163649000Y-71149000D01*
G75*
G02*
X163799000Y-71299000I0J-150000D01*
G01*
X163799000Y-71599000D01*
G75*
G02*
X163649000Y-71749000I-150000J0D01*
G01*
G37*
G04 #@! TD.AperFunction*
G04 #@! TA.AperFunction,SMDPad,CuDef*
G36*
G01*
X167549000Y-76349000D02*
X166249000Y-76349000D01*
G75*
G02*
X165999000Y-76099000I0J250000D01*
G01*
X165999000Y-75399000D01*
G75*
G02*
X166249000Y-75149000I250000J0D01*
G01*
X167549000Y-75149000D01*
G75*
G02*
X167799000Y-75399000I0J-250000D01*
G01*
X167799000Y-76099000D01*
G75*
G02*
X167549000Y-76349000I-250000J0D01*
G01*
G37*
G04 #@! TD.AperFunction*
G04 #@! TA.AperFunction,SMDPad,CuDef*
G36*
G01*
X167549000Y-70749000D02*
X166249000Y-70749000D01*
G75*
G02*
X165999000Y-70499000I0J250000D01*
G01*
X165999000Y-69799000D01*
G75*
G02*
X166249000Y-69549000I250000J0D01*
G01*
X167549000Y-69549000D01*
G75*
G02*
X167799000Y-69799000I0J-250000D01*
G01*
X167799000Y-70499000D01*
G75*
G02*
X167549000Y-70749000I-250000J0D01*
G01*
G37*
G04 #@! TD.AperFunction*
G04 #@! TA.AperFunction,SMDPad,CuDef*
G36*
G01*
X125118000Y-68700000D02*
X125118000Y-67800000D01*
G75*
G02*
X125368000Y-67550000I250000J0D01*
G01*
X125893000Y-67550000D01*
G75*
G02*
X126143000Y-67800000I0J-250000D01*
G01*
X126143000Y-68700000D01*
G75*
G02*
X125893000Y-68950000I-250000J0D01*
G01*
X125368000Y-68950000D01*
G75*
G02*
X125118000Y-68700000I0J250000D01*
G01*
G37*
G04 #@! TD.AperFunction*
G04 #@! TA.AperFunction,SMDPad,CuDef*
G36*
G01*
X126943000Y-68700000D02*
X126943000Y-67800000D01*
G75*
G02*
X127193000Y-67550000I250000J0D01*
G01*
X127718000Y-67550000D01*
G75*
G02*
X127968000Y-67800000I0J-250000D01*
G01*
X127968000Y-68700000D01*
G75*
G02*
X127718000Y-68950000I-250000J0D01*
G01*
X127193000Y-68950000D01*
G75*
G02*
X126943000Y-68700000I0J250000D01*
G01*
G37*
G04 #@! TD.AperFunction*
D10*
X103810000Y-74600000D03*
D11*
X106350000Y-74600000D03*
X108890000Y-74600000D03*
G04 #@! TA.AperFunction,SMDPad,CuDef*
G36*
G01*
X125118000Y-78225000D02*
X125118000Y-77325000D01*
G75*
G02*
X125368000Y-77075000I250000J0D01*
G01*
X125893000Y-77075000D01*
G75*
G02*
X126143000Y-77325000I0J-250000D01*
G01*
X126143000Y-78225000D01*
G75*
G02*
X125893000Y-78475000I-250000J0D01*
G01*
X125368000Y-78475000D01*
G75*
G02*
X125118000Y-78225000I0J250000D01*
G01*
G37*
G04 #@! TD.AperFunction*
G04 #@! TA.AperFunction,SMDPad,CuDef*
G36*
G01*
X126943000Y-78225000D02*
X126943000Y-77325000D01*
G75*
G02*
X127193000Y-77075000I250000J0D01*
G01*
X127718000Y-77075000D01*
G75*
G02*
X127968000Y-77325000I0J-250000D01*
G01*
X127968000Y-78225000D01*
G75*
G02*
X127718000Y-78475000I-250000J0D01*
G01*
X127193000Y-78475000D01*
G75*
G02*
X126943000Y-78225000I0J250000D01*
G01*
G37*
G04 #@! TD.AperFunction*
D10*
X103810000Y-68250000D03*
D11*
X106350000Y-68250000D03*
X108890000Y-68250000D03*
D10*
X103810000Y-80950000D03*
D11*
X106350000Y-80950000D03*
X108890000Y-80950000D03*
G04 #@! TA.AperFunction,SMDPad,CuDef*
G36*
G01*
X163649000Y-85544000D02*
X162399000Y-85544000D01*
G75*
G02*
X162249000Y-85394000I0J150000D01*
G01*
X162249000Y-85094000D01*
G75*
G02*
X162399000Y-84944000I150000J0D01*
G01*
X163649000Y-84944000D01*
G75*
G02*
X163799000Y-85094000I0J-150000D01*
G01*
X163799000Y-85394000D01*
G75*
G02*
X163649000Y-85544000I-150000J0D01*
G01*
G37*
G04 #@! TD.AperFunction*
G04 #@! TA.AperFunction,SMDPad,CuDef*
G36*
G01*
X163649000Y-84544000D02*
X162399000Y-84544000D01*
G75*
G02*
X162249000Y-84394000I0J150000D01*
G01*
X162249000Y-84094000D01*
G75*
G02*
X162399000Y-83944000I150000J0D01*
G01*
X163649000Y-83944000D01*
G75*
G02*
X163799000Y-84094000I0J-150000D01*
G01*
X163799000Y-84394000D01*
G75*
G02*
X163649000Y-84544000I-150000J0D01*
G01*
G37*
G04 #@! TD.AperFunction*
G04 #@! TA.AperFunction,SMDPad,CuDef*
G36*
G01*
X163649000Y-83544000D02*
X162399000Y-83544000D01*
G75*
G02*
X162249000Y-83394000I0J150000D01*
G01*
X162249000Y-83094000D01*
G75*
G02*
X162399000Y-82944000I150000J0D01*
G01*
X163649000Y-82944000D01*
G75*
G02*
X163799000Y-83094000I0J-150000D01*
G01*
X163799000Y-83394000D01*
G75*
G02*
X163649000Y-83544000I-150000J0D01*
G01*
G37*
G04 #@! TD.AperFunction*
G04 #@! TA.AperFunction,SMDPad,CuDef*
G36*
G01*
X163649000Y-82544000D02*
X162399000Y-82544000D01*
G75*
G02*
X162249000Y-82394000I0J150000D01*
G01*
X162249000Y-82094000D01*
G75*
G02*
X162399000Y-81944000I150000J0D01*
G01*
X163649000Y-81944000D01*
G75*
G02*
X163799000Y-82094000I0J-150000D01*
G01*
X163799000Y-82394000D01*
G75*
G02*
X163649000Y-82544000I-150000J0D01*
G01*
G37*
G04 #@! TD.AperFunction*
G04 #@! TA.AperFunction,SMDPad,CuDef*
G36*
G01*
X167549000Y-87144000D02*
X166249000Y-87144000D01*
G75*
G02*
X165999000Y-86894000I0J250000D01*
G01*
X165999000Y-86194000D01*
G75*
G02*
X166249000Y-85944000I250000J0D01*
G01*
X167549000Y-85944000D01*
G75*
G02*
X167799000Y-86194000I0J-250000D01*
G01*
X167799000Y-86894000D01*
G75*
G02*
X167549000Y-87144000I-250000J0D01*
G01*
G37*
G04 #@! TD.AperFunction*
G04 #@! TA.AperFunction,SMDPad,CuDef*
G36*
G01*
X167549000Y-81544000D02*
X166249000Y-81544000D01*
G75*
G02*
X165999000Y-81294000I0J250000D01*
G01*
X165999000Y-80594000D01*
G75*
G02*
X166249000Y-80344000I250000J0D01*
G01*
X167549000Y-80344000D01*
G75*
G02*
X167799000Y-80594000I0J-250000D01*
G01*
X167799000Y-81294000D01*
G75*
G02*
X167549000Y-81544000I-250000J0D01*
G01*
G37*
G04 #@! TD.AperFunction*
G04 #@! TA.AperFunction,SMDPad,CuDef*
G36*
G01*
X122913000Y-61425000D02*
X122913000Y-62375000D01*
G75*
G02*
X122663000Y-62625000I-250000J0D01*
G01*
X122163000Y-62625000D01*
G75*
G02*
X121913000Y-62375000I0J250000D01*
G01*
X121913000Y-61425000D01*
G75*
G02*
X122163000Y-61175000I250000J0D01*
G01*
X122663000Y-61175000D01*
G75*
G02*
X122913000Y-61425000I0J-250000D01*
G01*
G37*
G04 #@! TD.AperFunction*
G04 #@! TA.AperFunction,SMDPad,CuDef*
G36*
G01*
X121013000Y-61425000D02*
X121013000Y-62375000D01*
G75*
G02*
X120763000Y-62625000I-250000J0D01*
G01*
X120263000Y-62625000D01*
G75*
G02*
X120013000Y-62375000I0J250000D01*
G01*
X120013000Y-61425000D01*
G75*
G02*
X120263000Y-61175000I250000J0D01*
G01*
X120763000Y-61175000D01*
G75*
G02*
X121013000Y-61425000I0J-250000D01*
G01*
G37*
G04 #@! TD.AperFunction*
G04 #@! TA.AperFunction,SMDPad,CuDef*
G36*
G01*
X130023000Y-54755000D02*
X130023000Y-54445000D01*
G75*
G02*
X130178000Y-54290000I155000J0D01*
G01*
X130568000Y-54290000D01*
G75*
G02*
X130723000Y-54445000I0J-155000D01*
G01*
X130723000Y-54755000D01*
G75*
G02*
X130568000Y-54910000I-155000J0D01*
G01*
X130178000Y-54910000D01*
G75*
G02*
X130023000Y-54755000I0J155000D01*
G01*
G37*
G04 #@! TD.AperFunction*
G04 #@! TA.AperFunction,SMDPad,CuDef*
G36*
G01*
X130023000Y-55705000D02*
X130023000Y-55395000D01*
G75*
G02*
X130178000Y-55240000I155000J0D01*
G01*
X130568000Y-55240000D01*
G75*
G02*
X130723000Y-55395000I0J-155000D01*
G01*
X130723000Y-55705000D01*
G75*
G02*
X130568000Y-55860000I-155000J0D01*
G01*
X130178000Y-55860000D01*
G75*
G02*
X130023000Y-55705000I0J155000D01*
G01*
G37*
G04 #@! TD.AperFunction*
G04 #@! TA.AperFunction,SMDPad,CuDef*
G36*
G01*
X130023000Y-56655000D02*
X130023000Y-56345000D01*
G75*
G02*
X130178000Y-56190000I155000J0D01*
G01*
X130568000Y-56190000D01*
G75*
G02*
X130723000Y-56345000I0J-155000D01*
G01*
X130723000Y-56655000D01*
G75*
G02*
X130568000Y-56810000I-155000J0D01*
G01*
X130178000Y-56810000D01*
G75*
G02*
X130023000Y-56655000I0J155000D01*
G01*
G37*
G04 #@! TD.AperFunction*
G04 #@! TA.AperFunction,SMDPad,CuDef*
G36*
G01*
X132523000Y-56655000D02*
X132523000Y-56345000D01*
G75*
G02*
X132678000Y-56190000I155000J0D01*
G01*
X133068000Y-56190000D01*
G75*
G02*
X133223000Y-56345000I0J-155000D01*
G01*
X133223000Y-56655000D01*
G75*
G02*
X133068000Y-56810000I-155000J0D01*
G01*
X132678000Y-56810000D01*
G75*
G02*
X132523000Y-56655000I0J155000D01*
G01*
G37*
G04 #@! TD.AperFunction*
G04 #@! TA.AperFunction,SMDPad,CuDef*
G36*
G01*
X132523000Y-55705000D02*
X132523000Y-55395000D01*
G75*
G02*
X132678000Y-55240000I155000J0D01*
G01*
X133068000Y-55240000D01*
G75*
G02*
X133223000Y-55395000I0J-155000D01*
G01*
X133223000Y-55705000D01*
G75*
G02*
X133068000Y-55860000I-155000J0D01*
G01*
X132678000Y-55860000D01*
G75*
G02*
X132523000Y-55705000I0J155000D01*
G01*
G37*
G04 #@! TD.AperFunction*
G04 #@! TA.AperFunction,SMDPad,CuDef*
G36*
G01*
X132523000Y-54755000D02*
X132523000Y-54445000D01*
G75*
G02*
X132678000Y-54290000I155000J0D01*
G01*
X133068000Y-54290000D01*
G75*
G02*
X133223000Y-54445000I0J-155000D01*
G01*
X133223000Y-54755000D01*
G75*
G02*
X133068000Y-54910000I-155000J0D01*
G01*
X132678000Y-54910000D01*
G75*
G02*
X132523000Y-54755000I0J155000D01*
G01*
G37*
G04 #@! TD.AperFunction*
G04 #@! TA.AperFunction,SMDPad,CuDef*
G36*
G01*
X120038000Y-81406250D02*
X120038000Y-80493750D01*
G75*
G02*
X120281750Y-80250000I243750J0D01*
G01*
X120769250Y-80250000D01*
G75*
G02*
X121013000Y-80493750I0J-243750D01*
G01*
X121013000Y-81406250D01*
G75*
G02*
X120769250Y-81650000I-243750J0D01*
G01*
X120281750Y-81650000D01*
G75*
G02*
X120038000Y-81406250I0J243750D01*
G01*
G37*
G04 #@! TD.AperFunction*
G04 #@! TA.AperFunction,SMDPad,CuDef*
G36*
G01*
X121913000Y-81406250D02*
X121913000Y-80493750D01*
G75*
G02*
X122156750Y-80250000I243750J0D01*
G01*
X122644250Y-80250000D01*
G75*
G02*
X122888000Y-80493750I0J-243750D01*
G01*
X122888000Y-81406250D01*
G75*
G02*
X122644250Y-81650000I-243750J0D01*
G01*
X122156750Y-81650000D01*
G75*
G02*
X121913000Y-81406250I0J243750D01*
G01*
G37*
G04 #@! TD.AperFunction*
D13*
X138519100Y-84038000D03*
X138519100Y-86538000D03*
X138519100Y-89038000D03*
X144030900Y-84038000D03*
X144030900Y-86538000D03*
X144030900Y-89038000D03*
G04 #@! TA.AperFunction,SMDPad,CuDef*
G36*
G01*
X125118000Y-75050000D02*
X125118000Y-74150000D01*
G75*
G02*
X125368000Y-73900000I250000J0D01*
G01*
X125893000Y-73900000D01*
G75*
G02*
X126143000Y-74150000I0J-250000D01*
G01*
X126143000Y-75050000D01*
G75*
G02*
X125893000Y-75300000I-250000J0D01*
G01*
X125368000Y-75300000D01*
G75*
G02*
X125118000Y-75050000I0J250000D01*
G01*
G37*
G04 #@! TD.AperFunction*
G04 #@! TA.AperFunction,SMDPad,CuDef*
G36*
G01*
X126943000Y-75050000D02*
X126943000Y-74150000D01*
G75*
G02*
X127193000Y-73900000I250000J0D01*
G01*
X127718000Y-73900000D01*
G75*
G02*
X127968000Y-74150000I0J-250000D01*
G01*
X127968000Y-75050000D01*
G75*
G02*
X127718000Y-75300000I-250000J0D01*
G01*
X127193000Y-75300000D01*
G75*
G02*
X126943000Y-75050000I0J250000D01*
G01*
G37*
G04 #@! TD.AperFunction*
G04 #@! TA.AperFunction,SMDPad,CuDef*
G36*
G01*
X122913000Y-67775000D02*
X122913000Y-68725000D01*
G75*
G02*
X122663000Y-68975000I-250000J0D01*
G01*
X122163000Y-68975000D01*
G75*
G02*
X121913000Y-68725000I0J250000D01*
G01*
X121913000Y-67775000D01*
G75*
G02*
X122163000Y-67525000I250000J0D01*
G01*
X122663000Y-67525000D01*
G75*
G02*
X122913000Y-67775000I0J-250000D01*
G01*
G37*
G04 #@! TD.AperFunction*
G04 #@! TA.AperFunction,SMDPad,CuDef*
G36*
G01*
X121013000Y-67775000D02*
X121013000Y-68725000D01*
G75*
G02*
X120763000Y-68975000I-250000J0D01*
G01*
X120263000Y-68975000D01*
G75*
G02*
X120013000Y-68725000I0J250000D01*
G01*
X120013000Y-67775000D01*
G75*
G02*
X120263000Y-67525000I250000J0D01*
G01*
X120763000Y-67525000D01*
G75*
G02*
X121013000Y-67775000I0J-250000D01*
G01*
G37*
G04 #@! TD.AperFunction*
G04 #@! TA.AperFunction,SMDPad,CuDef*
G36*
G01*
X120038000Y-75056250D02*
X120038000Y-74143750D01*
G75*
G02*
X120281750Y-73900000I243750J0D01*
G01*
X120769250Y-73900000D01*
G75*
G02*
X121013000Y-74143750I0J-243750D01*
G01*
X121013000Y-75056250D01*
G75*
G02*
X120769250Y-75300000I-243750J0D01*
G01*
X120281750Y-75300000D01*
G75*
G02*
X120038000Y-75056250I0J243750D01*
G01*
G37*
G04 #@! TD.AperFunction*
G04 #@! TA.AperFunction,SMDPad,CuDef*
G36*
G01*
X121913000Y-75056250D02*
X121913000Y-74143750D01*
G75*
G02*
X122156750Y-73900000I243750J0D01*
G01*
X122644250Y-73900000D01*
G75*
G02*
X122888000Y-74143750I0J-243750D01*
G01*
X122888000Y-75056250D01*
G75*
G02*
X122644250Y-75300000I-243750J0D01*
G01*
X122156750Y-75300000D01*
G75*
G02*
X121913000Y-75056250I0J243750D01*
G01*
G37*
G04 #@! TD.AperFunction*
D14*
X161214000Y-74473000D03*
X166929000Y-88316000D03*
X166929000Y-68377000D03*
X149784000Y-82855000D03*
X161214000Y-85268000D03*
X149784000Y-81966000D03*
X166929000Y-77775000D03*
X143688000Y-67729300D03*
X149784000Y-92126000D03*
X151308000Y-67729300D03*
X128956000Y-54534000D03*
X166929000Y-67488000D03*
X166929000Y-89205000D03*
X166929000Y-78918000D03*
X149784000Y-81077000D03*
X134290000Y-56566000D03*
X149784000Y-91237000D03*
X149784000Y-90348000D03*
X130988000Y-76251000D03*
X159055000Y-78664000D03*
X159055000Y-81966000D03*
X133020000Y-76251000D03*
X129464000Y-62916000D03*
X133020000Y-67361000D03*
X129464000Y-60884000D03*
X131115000Y-67361000D03*
D15*
X165381000Y-85244000D02*
X165405000Y-85268000D01*
X130373000Y-54600000D02*
X129022000Y-54600000D01*
X163024000Y-74449000D02*
X165381000Y-74449000D01*
X163024000Y-74449000D02*
X161238000Y-74449000D01*
X161238000Y-85244000D02*
X161214000Y-85268000D01*
X120513000Y-61900000D02*
X108890000Y-61900000D01*
X134224000Y-56500000D02*
X134290000Y-56566000D01*
X132873000Y-56500000D02*
X134224000Y-56500000D01*
X163024000Y-85244000D02*
X161238000Y-85244000D01*
X120513000Y-68250000D02*
X108890000Y-68250000D01*
X129022000Y-54600000D02*
X128956000Y-54534000D01*
X161238000Y-74449000D02*
X161214000Y-74473000D01*
X151308000Y-67729300D02*
X152578000Y-67729300D01*
X163024000Y-85244000D02*
X165381000Y-85244000D01*
X142418000Y-67729300D02*
X143688000Y-67729300D01*
X143688000Y-67729300D02*
X151308000Y-67729300D01*
X163024000Y-84244000D02*
X161333000Y-84244000D01*
X130988000Y-76251000D02*
X127455500Y-76251000D01*
X127455500Y-76251000D02*
X127455500Y-84125000D01*
X160841000Y-73449000D02*
X158039000Y-76251000D01*
X158039000Y-76251000D02*
X133909000Y-76251000D01*
X127455500Y-74600000D02*
X127455500Y-76251000D01*
X159055000Y-77267000D02*
X158039000Y-76251000D01*
X159055000Y-78664000D02*
X159055000Y-77267000D01*
X163024000Y-73449000D02*
X160841000Y-73449000D01*
X133909000Y-76251000D02*
X133020000Y-76251000D01*
X161333000Y-84244000D02*
X159055000Y-81966000D01*
X155872100Y-82028000D02*
X155872100Y-86538000D01*
X144030900Y-86538000D02*
X155872100Y-86538000D01*
X155872100Y-86538000D02*
X155872100Y-91128000D01*
X161087000Y-92380000D02*
X158928000Y-92380000D01*
X163500000Y-94793000D02*
X161087000Y-92380000D01*
X163500000Y-97460000D02*
X163500000Y-94793000D01*
D16*
X138519100Y-86538000D02*
X144030900Y-86538000D01*
D15*
X130988000Y-55550000D02*
X131496000Y-55042000D01*
X131496000Y-55042000D02*
X131496000Y-49200000D01*
X130246000Y-55550000D02*
X130988000Y-55550000D01*
X145720000Y-51994000D02*
X142418000Y-55296000D01*
X145720000Y-49200000D02*
X145720000Y-51994000D01*
X142418000Y-55296000D02*
X142418000Y-59118700D01*
X133528000Y-55550000D02*
X134036000Y-55042000D01*
X132746000Y-55550000D02*
X133528000Y-55550000D01*
X134036000Y-55042000D02*
X134036000Y-49200000D01*
X153340000Y-51994000D02*
X150038000Y-55296000D01*
X150038000Y-55296000D02*
X150038000Y-59118700D01*
X153340000Y-49200000D02*
X153340000Y-51994000D01*
X148260000Y-51994000D02*
X144958000Y-55296000D01*
X148260000Y-49200000D02*
X148260000Y-51994000D01*
X144958000Y-55296000D02*
X144958000Y-59118700D01*
X147498000Y-55296000D02*
X147498000Y-59118700D01*
X150800000Y-51994000D02*
X147498000Y-55296000D01*
X150800000Y-49200000D02*
X150800000Y-51994000D01*
X152578000Y-55296000D02*
X152578000Y-59118700D01*
X155880000Y-51994000D02*
X152578000Y-55296000D01*
X155880000Y-49200000D02*
X155880000Y-51994000D01*
X123495000Y-70028000D02*
X124003000Y-69520000D01*
X125630500Y-68250000D02*
X122413000Y-68250000D01*
X103810000Y-69520000D02*
X104318000Y-70028000D01*
X124003000Y-69520000D02*
X124003000Y-68250000D01*
X103810000Y-68250000D02*
X103810000Y-69520000D01*
X104318000Y-70028000D02*
X123495000Y-70028000D01*
X123495000Y-63678000D02*
X124003000Y-63170000D01*
X103810000Y-61900000D02*
X103810000Y-63170000D01*
X103810000Y-63170000D02*
X104318000Y-63678000D01*
X124003000Y-61900000D02*
X122413000Y-61900000D01*
X125630500Y-61900000D02*
X124003000Y-61900000D01*
X104318000Y-63678000D02*
X123495000Y-63678000D01*
X124003000Y-63170000D02*
X124003000Y-61900000D01*
X125630500Y-85371500D02*
X126162000Y-85903000D01*
X121463000Y-84125000D02*
X120525500Y-83187500D01*
X103858500Y-80950000D02*
X103858500Y-82220000D01*
X132192000Y-54600000D02*
X132004000Y-54788000D01*
X117193500Y-82728000D02*
X118971500Y-80950000D01*
X103858500Y-82220000D02*
X104366500Y-82728000D01*
X132004000Y-79172000D02*
X132004000Y-60122000D01*
X125630500Y-84125000D02*
X125630500Y-85371500D01*
X132004000Y-54788000D02*
X132004000Y-60122000D01*
X132004000Y-83998000D02*
X132004000Y-79172000D01*
X157658000Y-79172000D02*
X132004000Y-79172000D01*
X160730000Y-82244000D02*
X157658000Y-79172000D01*
X132004000Y-61900000D02*
X127455500Y-61900000D01*
X132746000Y-54600000D02*
X132192000Y-54600000D01*
X120525500Y-83187500D02*
X120525500Y-80950000D01*
X125630500Y-84125000D02*
X121463000Y-84125000D01*
X126162000Y-85903000D02*
X130099000Y-85903000D01*
X104366500Y-82728000D02*
X117193500Y-82728000D01*
X163024000Y-82244000D02*
X160730000Y-82244000D01*
X130099000Y-85903000D02*
X132004000Y-83998000D01*
X118971500Y-80950000D02*
X120574000Y-80950000D01*
X125630500Y-80950000D02*
X122400500Y-80950000D01*
X125630500Y-74600000D02*
X122400500Y-74600000D01*
X121844000Y-71425000D02*
X120525500Y-72743500D01*
X137108000Y-71449000D02*
X133020000Y-67361000D01*
X125654000Y-77775000D02*
X121486500Y-77775000D01*
X130373000Y-59975000D02*
X129464000Y-60884000D01*
X103810000Y-74600000D02*
X103810000Y-75870000D01*
X128575000Y-68250000D02*
X127455500Y-68250000D01*
X130373000Y-56500000D02*
X130373000Y-59975000D01*
X104318000Y-76378000D02*
X117145000Y-76378000D01*
X103810000Y-75870000D02*
X104318000Y-76378000D01*
X120549000Y-76837500D02*
X120549000Y-74600000D01*
X127455500Y-70385500D02*
X126416000Y-71425000D01*
X163024000Y-71449000D02*
X137108000Y-71449000D01*
X129464000Y-67361000D02*
X128575000Y-68250000D01*
X127455500Y-68250000D02*
X127455500Y-70385500D01*
X121486500Y-77775000D02*
X120549000Y-76837500D01*
X120525500Y-72743500D02*
X120525500Y-74600000D01*
X131115000Y-67361000D02*
X129464000Y-67361000D01*
X118923000Y-74600000D02*
X120525500Y-74600000D01*
X129464000Y-62916000D02*
X129464000Y-67361000D01*
X117145000Y-76378000D02*
X118923000Y-74600000D01*
X126416000Y-71425000D02*
X121844000Y-71425000D01*
D16*
X138519100Y-84038000D02*
X144030900Y-84038000D01*
G04 #@! TA.AperFunction,Conductor*
G36*
X158153237Y-80208002D02*
G01*
X158174211Y-80224905D01*
X159140911Y-81191605D01*
X159174937Y-81253917D01*
X159169872Y-81324732D01*
X159127325Y-81381568D01*
X159060805Y-81406379D01*
X159051816Y-81406700D01*
X158981367Y-81406700D01*
X158886534Y-81432110D01*
X158839117Y-81444816D01*
X158711585Y-81518446D01*
X158711575Y-81518454D01*
X158607454Y-81622575D01*
X158607446Y-81622585D01*
X158533816Y-81750117D01*
X158495700Y-81892368D01*
X158495700Y-82039631D01*
X158495699Y-82039631D01*
X158533816Y-82181882D01*
X158607446Y-82309414D01*
X158607454Y-82309424D01*
X158711575Y-82413545D01*
X158711580Y-82413549D01*
X158711582Y-82413551D01*
X158839118Y-82487184D01*
X158981367Y-82525300D01*
X159025416Y-82525300D01*
X159093537Y-82545302D01*
X159114511Y-82562205D01*
X159907095Y-83354789D01*
X159941121Y-83417101D01*
X159944000Y-83443884D01*
X159944000Y-92889000D01*
X159923998Y-92957121D01*
X159870342Y-93003614D01*
X159818000Y-93015000D01*
X154482000Y-93015000D01*
X154413879Y-92994998D01*
X154367386Y-92941342D01*
X154356000Y-92889000D01*
X154356000Y-80314000D01*
X154376002Y-80245879D01*
X154429658Y-80199386D01*
X154482000Y-80188000D01*
X158085116Y-80188000D01*
X158153237Y-80208002D01*
G37*
G04 #@! TD.AperFunction*
G04 #@! TA.AperFunction,Conductor*
G36*
X152647121Y-88209002D02*
G01*
X152693614Y-88262658D01*
X152705000Y-88315000D01*
X152705000Y-92889000D01*
X152684998Y-92957121D01*
X152631342Y-93003614D01*
X152579000Y-93015000D01*
X136829000Y-93015000D01*
X136760879Y-92994998D01*
X136714386Y-92941342D01*
X136703000Y-92889000D01*
X136703000Y-88315000D01*
X136723002Y-88246879D01*
X136776658Y-88200386D01*
X136829000Y-88189000D01*
X152579000Y-88189000D01*
X152647121Y-88209002D01*
G37*
G04 #@! TD.AperFunction*
G04 #@! TA.AperFunction,Conductor*
G36*
X168267621Y-66873002D02*
G01*
X168314114Y-66926658D01*
X168325500Y-66979000D01*
X168325500Y-89841000D01*
X168305498Y-89909121D01*
X168251842Y-89955614D01*
X168199500Y-89967000D01*
X164516000Y-89967000D01*
X160451000Y-89967000D01*
X160382879Y-89946998D01*
X160336386Y-89893342D01*
X160325000Y-89841000D01*
X160325000Y-86918000D01*
X160345002Y-86849879D01*
X160398658Y-86803386D01*
X160451000Y-86792000D01*
X164516000Y-86792000D01*
X164516000Y-66979000D01*
X164536002Y-66910879D01*
X164589658Y-66864386D01*
X164642000Y-66853000D01*
X168199500Y-66853000D01*
X168267621Y-66873002D01*
G37*
G04 #@! TD.AperFunction*
G04 #@! TA.AperFunction,Conductor*
G36*
X152647121Y-80208002D02*
G01*
X152693614Y-80261658D01*
X152705000Y-80314000D01*
X152705000Y-84634000D01*
X152684998Y-84702121D01*
X152631342Y-84748614D01*
X152579000Y-84760000D01*
X149275000Y-84760000D01*
X149206879Y-84739998D01*
X149160386Y-84686342D01*
X149149000Y-84634000D01*
X149149000Y-80314000D01*
X149169002Y-80245879D01*
X149222658Y-80199386D01*
X149275000Y-80188000D01*
X152579000Y-80188000D01*
X152647121Y-80208002D01*
G37*
G04 #@! TD.AperFunction*
M02*
