G04 #@! TF.GenerationSoftware,KiCad,Pcbnew,9.0.7-9.0.7~ubuntu24.04.1*
G04 #@! TF.CreationDate,2026-03-19T15:46:38-06:00*
G04 #@! TF.ProjectId,ard-axlesim,6172642d-6178-46c6-9573-696d2e6b6963,rev?*
G04 #@! TF.SameCoordinates,Original*
G04 #@! TF.FileFunction,Copper,L2,Bot*
G04 #@! TF.FilePolarity,Positive*
%FSLAX46Y46*%
G04 Gerber Fmt 4.6, Leading zero omitted, Abs format (unit mm)*
G04 Created by KiCad (PCBNEW 9.0.7-9.0.7~ubuntu24.04.1) date 2026-03-19 15:46:38*
%MOMM*%
%LPD*%
G01*
G04 APERTURE LIST*
G04 #@! TA.AperFunction,ComponentPad*
%ADD10R,1.700000X1.700000*%
G04 #@! TD*
G04 #@! TA.AperFunction,ComponentPad*
%ADD11C,1.700000*%
G04 #@! TD*
G04 #@! TA.AperFunction,ViaPad*
%ADD12C,0.609600*%
G04 #@! TD*
G04 #@! TA.AperFunction,Conductor*
%ADD13C,0.250000*%
G04 #@! TD*
G04 APERTURE END LIST*
D10*
X127940000Y-97460000D03*
D11*
X130480000Y-97460000D03*
X133020000Y-97460000D03*
X135560000Y-97460000D03*
X138100000Y-97460000D03*
X140640000Y-97460000D03*
X143180000Y-97460000D03*
X145720000Y-97460000D03*
D10*
X150800000Y-97460000D03*
D11*
X153340000Y-97460000D03*
X155880000Y-97460000D03*
X158420000Y-97460000D03*
X160960000Y-97460000D03*
X163500000Y-97460000D03*
D10*
X118796000Y-49200000D03*
D11*
X121336000Y-49200000D03*
X123876000Y-49200000D03*
X126416000Y-49200000D03*
X128956000Y-49200000D03*
X131496000Y-49200000D03*
X134036000Y-49200000D03*
X136576000Y-49200000D03*
X139116000Y-49200000D03*
X141656000Y-49200000D03*
D10*
X145720000Y-49200000D03*
D11*
X148260000Y-49200000D03*
X150800000Y-49200000D03*
X153340000Y-49200000D03*
X155880000Y-49200000D03*
X158420000Y-49200000D03*
X160960000Y-49200000D03*
X163500000Y-49200000D03*
D10*
X103810000Y-61900000D03*
D11*
X106350000Y-61900000D03*
X108890000Y-61900000D03*
D10*
X103810000Y-74600000D03*
D11*
X106350000Y-74600000D03*
X108890000Y-74600000D03*
D10*
X103810000Y-68250000D03*
D11*
X106350000Y-68250000D03*
X108890000Y-68250000D03*
D10*
X103810000Y-80950000D03*
D11*
X106350000Y-80950000D03*
X108890000Y-80950000D03*
D12*
X161214000Y-74473000D03*
X166929000Y-88316000D03*
X166929000Y-68377000D03*
X149784000Y-82855000D03*
X161214000Y-85268000D03*
X149784000Y-81966000D03*
X166929000Y-77775000D03*
X143688000Y-67729300D03*
X149784000Y-92126000D03*
X151308000Y-67729300D03*
X128956000Y-54534000D03*
X166929000Y-67488000D03*
X166929000Y-89205000D03*
X166929000Y-78918000D03*
X149784000Y-81077000D03*
X134290000Y-56566000D03*
X149784000Y-91237000D03*
X149784000Y-90348000D03*
X130988000Y-76251000D03*
X159055000Y-78664000D03*
X159055000Y-81966000D03*
X133020000Y-76251000D03*
X129464000Y-62916000D03*
X133020000Y-67361000D03*
X129464000Y-60884000D03*
X131115000Y-67361000D03*
D13*
X133020000Y-76251000D02*
X130988000Y-76251000D01*
X159055000Y-81966000D02*
X159055000Y-78664000D01*
X129464000Y-60884000D02*
X129464000Y-62916000D01*
X133020000Y-67361000D02*
X131115000Y-67361000D01*
G04 #@! TA.AperFunction,Conductor*
G36*
X163410513Y-46934502D02*
G01*
X163431487Y-46951405D01*
X165748595Y-49268512D01*
X165782620Y-49330824D01*
X165785500Y-49357607D01*
X165785500Y-59410624D01*
X165824243Y-59504161D01*
X165824247Y-59504166D01*
X168288595Y-61968512D01*
X168322620Y-62030824D01*
X168325500Y-62057607D01*
X168325500Y-96032391D01*
X168305498Y-96100512D01*
X168288595Y-96121486D01*
X165878114Y-98531966D01*
X165878112Y-98531969D01*
X165824247Y-98585833D01*
X165824243Y-98585838D01*
X165785500Y-98679375D01*
X165785500Y-99230922D01*
X165784708Y-99245029D01*
X165784708Y-99245030D01*
X165774365Y-99336824D01*
X165768086Y-99364332D01*
X165739931Y-99444793D01*
X165727689Y-99470213D01*
X165682329Y-99542403D01*
X165664737Y-99564462D01*
X165604462Y-99624737D01*
X165582403Y-99642329D01*
X165510213Y-99687689D01*
X165484793Y-99699931D01*
X165404332Y-99728086D01*
X165376824Y-99734365D01*
X165309203Y-99741984D01*
X165285028Y-99744708D01*
X165270922Y-99745500D01*
X100769078Y-99745500D01*
X100754971Y-99744708D01*
X100718525Y-99740601D01*
X100663175Y-99734365D01*
X100635668Y-99728086D01*
X100611790Y-99719730D01*
X100555206Y-99699931D01*
X100529786Y-99687689D01*
X100457596Y-99642329D01*
X100435537Y-99624737D01*
X100375262Y-99564462D01*
X100357670Y-99542403D01*
X100312310Y-99470213D01*
X100300068Y-99444793D01*
X100271911Y-99364324D01*
X100265635Y-99336828D01*
X100255292Y-99245029D01*
X100254500Y-99230922D01*
X100254500Y-97338447D01*
X112115500Y-97338447D01*
X112115500Y-97581552D01*
X112147229Y-97822563D01*
X112147230Y-97822569D01*
X112147231Y-97822571D01*
X112210150Y-98057388D01*
X112303181Y-98281984D01*
X112303182Y-98281985D01*
X112303187Y-98281996D01*
X112424728Y-98492512D01*
X112424732Y-98492518D01*
X112572714Y-98685371D01*
X112572733Y-98685392D01*
X112744607Y-98857266D01*
X112744628Y-98857285D01*
X112937481Y-99005267D01*
X112937487Y-99005271D01*
X113148003Y-99126812D01*
X113148007Y-99126813D01*
X113148016Y-99126819D01*
X113372612Y-99219850D01*
X113607429Y-99282769D01*
X113607435Y-99282769D01*
X113607436Y-99282770D01*
X113635093Y-99286411D01*
X113848450Y-99314500D01*
X113848457Y-99314500D01*
X114091543Y-99314500D01*
X114091550Y-99314500D01*
X114332571Y-99282769D01*
X114567388Y-99219850D01*
X114791984Y-99126819D01*
X115002516Y-99005269D01*
X115195380Y-98857278D01*
X115367278Y-98685380D01*
X115515269Y-98492516D01*
X115636819Y-98281984D01*
X115729850Y-98057388D01*
X115792769Y-97822571D01*
X115824500Y-97581550D01*
X115824500Y-97338450D01*
X115793654Y-97104150D01*
X115792770Y-97097436D01*
X115792769Y-97097435D01*
X115792769Y-97097429D01*
X115729850Y-96862612D01*
X115636819Y-96638016D01*
X115636814Y-96638007D01*
X115606170Y-96584930D01*
X126835500Y-96584930D01*
X126835500Y-98335063D01*
X126835501Y-98335073D01*
X126850265Y-98409300D01*
X126906516Y-98493484D01*
X126990697Y-98549733D01*
X126990699Y-98549734D01*
X127064933Y-98564500D01*
X128815066Y-98564499D01*
X128815069Y-98564498D01*
X128815073Y-98564498D01*
X128864326Y-98554701D01*
X128889301Y-98549734D01*
X128973484Y-98493484D01*
X129029734Y-98409301D01*
X129044500Y-98335067D01*
X129044499Y-97373074D01*
X129375500Y-97373074D01*
X129375500Y-97546926D01*
X129392300Y-97652993D01*
X129402698Y-97718642D01*
X129456369Y-97883826D01*
X129456420Y-97883981D01*
X129535347Y-98038884D01*
X129535349Y-98038887D01*
X129637536Y-98179535D01*
X129760464Y-98302463D01*
X129805342Y-98335069D01*
X129901116Y-98404653D01*
X130056019Y-98483580D01*
X130221362Y-98537303D01*
X130393074Y-98564500D01*
X130393077Y-98564500D01*
X130566923Y-98564500D01*
X130566926Y-98564500D01*
X130738638Y-98537303D01*
X130903981Y-98483580D01*
X131058884Y-98404653D01*
X131199533Y-98302465D01*
X131322465Y-98179533D01*
X131424653Y-98038884D01*
X131503580Y-97883981D01*
X131557303Y-97718638D01*
X131584500Y-97546926D01*
X131584500Y-97373074D01*
X131915500Y-97373074D01*
X131915500Y-97546926D01*
X131932300Y-97652993D01*
X131942698Y-97718642D01*
X131996369Y-97883826D01*
X131996420Y-97883981D01*
X132075347Y-98038884D01*
X132075349Y-98038887D01*
X132177536Y-98179535D01*
X132300464Y-98302463D01*
X132345342Y-98335069D01*
X132441116Y-98404653D01*
X132596019Y-98483580D01*
X132761362Y-98537303D01*
X132933074Y-98564500D01*
X132933077Y-98564500D01*
X133106923Y-98564500D01*
X133106926Y-98564500D01*
X133278638Y-98537303D01*
X133443981Y-98483580D01*
X133598884Y-98404653D01*
X133739533Y-98302465D01*
X133862465Y-98179533D01*
X133964653Y-98038884D01*
X134043580Y-97883981D01*
X134097303Y-97718638D01*
X134124500Y-97546926D01*
X134124500Y-97373074D01*
X134455500Y-97373074D01*
X134455500Y-97546926D01*
X134472300Y-97652993D01*
X134482698Y-97718642D01*
X134536369Y-97883826D01*
X134536420Y-97883981D01*
X134615347Y-98038884D01*
X134615349Y-98038887D01*
X134717536Y-98179535D01*
X134840464Y-98302463D01*
X134885342Y-98335069D01*
X134981116Y-98404653D01*
X135136019Y-98483580D01*
X135301362Y-98537303D01*
X135473074Y-98564500D01*
X135473077Y-98564500D01*
X135646923Y-98564500D01*
X135646926Y-98564500D01*
X135818638Y-98537303D01*
X135983981Y-98483580D01*
X136138884Y-98404653D01*
X136279533Y-98302465D01*
X136402465Y-98179533D01*
X136504653Y-98038884D01*
X136583580Y-97883981D01*
X136637303Y-97718638D01*
X136664500Y-97546926D01*
X136664500Y-97373074D01*
X136995500Y-97373074D01*
X136995500Y-97546926D01*
X137012300Y-97652993D01*
X137022698Y-97718642D01*
X137076369Y-97883826D01*
X137076420Y-97883981D01*
X137155347Y-98038884D01*
X137155349Y-98038887D01*
X137257536Y-98179535D01*
X137380464Y-98302463D01*
X137425342Y-98335069D01*
X137521116Y-98404653D01*
X137676019Y-98483580D01*
X137841362Y-98537303D01*
X138013074Y-98564500D01*
X138013077Y-98564500D01*
X138186923Y-98564500D01*
X138186926Y-98564500D01*
X138358638Y-98537303D01*
X138523981Y-98483580D01*
X138678884Y-98404653D01*
X138819533Y-98302465D01*
X138942465Y-98179533D01*
X139044653Y-98038884D01*
X139123580Y-97883981D01*
X139123581Y-97883975D01*
X139123658Y-97883826D01*
X139172406Y-97832210D01*
X139241321Y-97815144D01*
X139308522Y-97838044D01*
X139352675Y-97893642D01*
X139355758Y-97902091D01*
X139381492Y-97981289D01*
X139381493Y-97981292D01*
X139478535Y-98171748D01*
X139478536Y-98171750D01*
X139516620Y-98224167D01*
X139516621Y-98224168D01*
X140155841Y-97584947D01*
X140174075Y-97652993D01*
X140239901Y-97767007D01*
X140332993Y-97860099D01*
X140447007Y-97925925D01*
X140515051Y-97944157D01*
X139875831Y-98583378D01*
X139928249Y-98621463D01*
X139928251Y-98621464D01*
X140118707Y-98718506D01*
X140118713Y-98718509D01*
X140321996Y-98784559D01*
X140533126Y-98818000D01*
X140746874Y-98818000D01*
X140958003Y-98784559D01*
X141161286Y-98718509D01*
X141161292Y-98718506D01*
X141351750Y-98621463D01*
X141404167Y-98583378D01*
X141404167Y-98583376D01*
X140764948Y-97944157D01*
X140832993Y-97925925D01*
X140947007Y-97860099D01*
X141040099Y-97767007D01*
X141105925Y-97652993D01*
X141124157Y-97584948D01*
X141763376Y-98224167D01*
X141763378Y-98224167D01*
X141801463Y-98171750D01*
X141802562Y-98169958D01*
X141803158Y-98169418D01*
X141804377Y-98167741D01*
X141804729Y-98167996D01*
X141855206Y-98122322D01*
X141925246Y-98110710D01*
X141990446Y-98138808D01*
X142015559Y-98167788D01*
X142015624Y-98167742D01*
X142016165Y-98168487D01*
X142017433Y-98169950D01*
X142018535Y-98171749D01*
X142056620Y-98224167D01*
X142056621Y-98224168D01*
X142695841Y-97584947D01*
X142714075Y-97652993D01*
X142779901Y-97767007D01*
X142872993Y-97860099D01*
X142987007Y-97925925D01*
X143055051Y-97944157D01*
X142415831Y-98583378D01*
X142468249Y-98621463D01*
X142468251Y-98621464D01*
X142658707Y-98718506D01*
X142658713Y-98718509D01*
X142861996Y-98784559D01*
X143073126Y-98818000D01*
X143286874Y-98818000D01*
X143498003Y-98784559D01*
X143701286Y-98718509D01*
X143701292Y-98718506D01*
X143891750Y-98621463D01*
X143944167Y-98583378D01*
X143944167Y-98583376D01*
X143304948Y-97944157D01*
X143372993Y-97925925D01*
X143487007Y-97860099D01*
X143580099Y-97767007D01*
X143645925Y-97652993D01*
X143664157Y-97584948D01*
X144303376Y-98224167D01*
X144303378Y-98224167D01*
X144341463Y-98171750D01*
X144438506Y-97981292D01*
X144438509Y-97981286D01*
X144464241Y-97902092D01*
X144504314Y-97843486D01*
X144569711Y-97815849D01*
X144639668Y-97827956D01*
X144691974Y-97875962D01*
X144696341Y-97883825D01*
X144696418Y-97883976D01*
X144696420Y-97883981D01*
X144775347Y-98038884D01*
X144775349Y-98038887D01*
X144877536Y-98179535D01*
X145000464Y-98302463D01*
X145045342Y-98335069D01*
X145141116Y-98404653D01*
X145296019Y-98483580D01*
X145461362Y-98537303D01*
X145633074Y-98564500D01*
X145633077Y-98564500D01*
X145806923Y-98564500D01*
X145806926Y-98564500D01*
X145978638Y-98537303D01*
X146143981Y-98483580D01*
X146298884Y-98404653D01*
X146439533Y-98302465D01*
X146562465Y-98179533D01*
X146664653Y-98038884D01*
X146743580Y-97883981D01*
X146797303Y-97718638D01*
X146824500Y-97546926D01*
X146824500Y-97373074D01*
X146797303Y-97201362D01*
X146743580Y-97036019D01*
X146664653Y-96881116D01*
X146592041Y-96781174D01*
X146562463Y-96740464D01*
X146439535Y-96617536D01*
X146394657Y-96584930D01*
X149695500Y-96584930D01*
X149695500Y-98335063D01*
X149695501Y-98335073D01*
X149710265Y-98409300D01*
X149766516Y-98493484D01*
X149850697Y-98549733D01*
X149850699Y-98549734D01*
X149924933Y-98564500D01*
X151675066Y-98564499D01*
X151675069Y-98564498D01*
X151675073Y-98564498D01*
X151724326Y-98554701D01*
X151749301Y-98549734D01*
X151833484Y-98493484D01*
X151889734Y-98409301D01*
X151904500Y-98335067D01*
X151904499Y-97373074D01*
X152235500Y-97373074D01*
X152235500Y-97546926D01*
X152252300Y-97652993D01*
X152262698Y-97718642D01*
X152316369Y-97883826D01*
X152316420Y-97883981D01*
X152395347Y-98038884D01*
X152395349Y-98038887D01*
X152497536Y-98179535D01*
X152620464Y-98302463D01*
X152665342Y-98335069D01*
X152761116Y-98404653D01*
X152916019Y-98483580D01*
X153081362Y-98537303D01*
X153253074Y-98564500D01*
X153253077Y-98564500D01*
X153426923Y-98564500D01*
X153426926Y-98564500D01*
X153598638Y-98537303D01*
X153763981Y-98483580D01*
X153918884Y-98404653D01*
X154059533Y-98302465D01*
X154182465Y-98179533D01*
X154284653Y-98038884D01*
X154363580Y-97883981D01*
X154417303Y-97718638D01*
X154444500Y-97546926D01*
X154444500Y-97373074D01*
X154775500Y-97373074D01*
X154775500Y-97546926D01*
X154792300Y-97652993D01*
X154802698Y-97718642D01*
X154856369Y-97883826D01*
X154856420Y-97883981D01*
X154935347Y-98038884D01*
X154935349Y-98038887D01*
X155037536Y-98179535D01*
X155160464Y-98302463D01*
X155205342Y-98335069D01*
X155301116Y-98404653D01*
X155456019Y-98483580D01*
X155621362Y-98537303D01*
X155793074Y-98564500D01*
X155793077Y-98564500D01*
X155966923Y-98564500D01*
X155966926Y-98564500D01*
X156138638Y-98537303D01*
X156303981Y-98483580D01*
X156458884Y-98404653D01*
X156599533Y-98302465D01*
X156722465Y-98179533D01*
X156824653Y-98038884D01*
X156903580Y-97883981D01*
X156957303Y-97718638D01*
X156984500Y-97546926D01*
X156984500Y-97373074D01*
X157315500Y-97373074D01*
X157315500Y-97546926D01*
X157332300Y-97652993D01*
X157342698Y-97718642D01*
X157396369Y-97883826D01*
X157396420Y-97883981D01*
X157475347Y-98038884D01*
X157475349Y-98038887D01*
X157577536Y-98179535D01*
X157700464Y-98302463D01*
X157745342Y-98335069D01*
X157841116Y-98404653D01*
X157996019Y-98483580D01*
X158161362Y-98537303D01*
X158333074Y-98564500D01*
X158333077Y-98564500D01*
X158506923Y-98564500D01*
X158506926Y-98564500D01*
X158678638Y-98537303D01*
X158843981Y-98483580D01*
X158998884Y-98404653D01*
X159139533Y-98302465D01*
X159262465Y-98179533D01*
X159364653Y-98038884D01*
X159443580Y-97883981D01*
X159497303Y-97718638D01*
X159524500Y-97546926D01*
X159524500Y-97373074D01*
X159855500Y-97373074D01*
X159855500Y-97546926D01*
X159872300Y-97652993D01*
X159882698Y-97718642D01*
X159936369Y-97883826D01*
X159936420Y-97883981D01*
X160015347Y-98038884D01*
X160015349Y-98038887D01*
X160117536Y-98179535D01*
X160240464Y-98302463D01*
X160285342Y-98335069D01*
X160381116Y-98404653D01*
X160536019Y-98483580D01*
X160701362Y-98537303D01*
X160873074Y-98564500D01*
X160873077Y-98564500D01*
X161046923Y-98564500D01*
X161046926Y-98564500D01*
X161218638Y-98537303D01*
X161383981Y-98483580D01*
X161538884Y-98404653D01*
X161679533Y-98302465D01*
X161802465Y-98179533D01*
X161904653Y-98038884D01*
X161983580Y-97883981D01*
X162037303Y-97718638D01*
X162064500Y-97546926D01*
X162064500Y-97373074D01*
X162395500Y-97373074D01*
X162395500Y-97546926D01*
X162412300Y-97652993D01*
X162422698Y-97718642D01*
X162476369Y-97883826D01*
X162476420Y-97883981D01*
X162555347Y-98038884D01*
X162555349Y-98038887D01*
X162657536Y-98179535D01*
X162780464Y-98302463D01*
X162825342Y-98335069D01*
X162921116Y-98404653D01*
X163076019Y-98483580D01*
X163241362Y-98537303D01*
X163413074Y-98564500D01*
X163413077Y-98564500D01*
X163586923Y-98564500D01*
X163586926Y-98564500D01*
X163758638Y-98537303D01*
X163923981Y-98483580D01*
X164078884Y-98404653D01*
X164219533Y-98302465D01*
X164342465Y-98179533D01*
X164444653Y-98038884D01*
X164523580Y-97883981D01*
X164577303Y-97718638D01*
X164604500Y-97546926D01*
X164604500Y-97373074D01*
X164577303Y-97201362D01*
X164523580Y-97036019D01*
X164444653Y-96881116D01*
X164372041Y-96781174D01*
X164342463Y-96740464D01*
X164219535Y-96617536D01*
X164078887Y-96515349D01*
X164078886Y-96515348D01*
X164078884Y-96515347D01*
X163923981Y-96436420D01*
X163923978Y-96436419D01*
X163923976Y-96436418D01*
X163758642Y-96382698D01*
X163758640Y-96382697D01*
X163758638Y-96382697D01*
X163586926Y-96355500D01*
X163413074Y-96355500D01*
X163241362Y-96382697D01*
X163241360Y-96382697D01*
X163241357Y-96382698D01*
X163076023Y-96436418D01*
X163076017Y-96436421D01*
X162921112Y-96515349D01*
X162780464Y-96617536D01*
X162657536Y-96740464D01*
X162555349Y-96881112D01*
X162476421Y-97036017D01*
X162476418Y-97036023D01*
X162422698Y-97201357D01*
X162422697Y-97201360D01*
X162422697Y-97201362D01*
X162395500Y-97373074D01*
X162064500Y-97373074D01*
X162037303Y-97201362D01*
X161983580Y-97036019D01*
X161904653Y-96881116D01*
X161832041Y-96781174D01*
X161802463Y-96740464D01*
X161679535Y-96617536D01*
X161538887Y-96515349D01*
X161538886Y-96515348D01*
X161538884Y-96515347D01*
X161383981Y-96436420D01*
X161383978Y-96436419D01*
X161383976Y-96436418D01*
X161218642Y-96382698D01*
X161218640Y-96382697D01*
X161218638Y-96382697D01*
X161046926Y-96355500D01*
X160873074Y-96355500D01*
X160701362Y-96382697D01*
X160701360Y-96382697D01*
X160701357Y-96382698D01*
X160536023Y-96436418D01*
X160536017Y-96436421D01*
X160381112Y-96515349D01*
X160240464Y-96617536D01*
X160117536Y-96740464D01*
X160015349Y-96881112D01*
X159936421Y-97036017D01*
X159936418Y-97036023D01*
X159882698Y-97201357D01*
X159882697Y-97201360D01*
X159882697Y-97201362D01*
X159855500Y-97373074D01*
X159524500Y-97373074D01*
X159497303Y-97201362D01*
X159443580Y-97036019D01*
X159364653Y-96881116D01*
X159292041Y-96781174D01*
X159262463Y-96740464D01*
X159139535Y-96617536D01*
X158998887Y-96515349D01*
X158998886Y-96515348D01*
X158998884Y-96515347D01*
X158843981Y-96436420D01*
X158843978Y-96436419D01*
X158843976Y-96436418D01*
X158678642Y-96382698D01*
X158678640Y-96382697D01*
X158678638Y-96382697D01*
X158506926Y-96355500D01*
X158333074Y-96355500D01*
X158161362Y-96382697D01*
X158161360Y-96382697D01*
X158161357Y-96382698D01*
X157996023Y-96436418D01*
X157996017Y-96436421D01*
X157841112Y-96515349D01*
X157700464Y-96617536D01*
X157577536Y-96740464D01*
X157475349Y-96881112D01*
X157396421Y-97036017D01*
X157396418Y-97036023D01*
X157342698Y-97201357D01*
X157342697Y-97201360D01*
X157342697Y-97201362D01*
X157315500Y-97373074D01*
X156984500Y-97373074D01*
X156957303Y-97201362D01*
X156903580Y-97036019D01*
X156824653Y-96881116D01*
X156752041Y-96781174D01*
X156722463Y-96740464D01*
X156599535Y-96617536D01*
X156458887Y-96515349D01*
X156458886Y-96515348D01*
X156458884Y-96515347D01*
X156303981Y-96436420D01*
X156303978Y-96436419D01*
X156303976Y-96436418D01*
X156138642Y-96382698D01*
X156138640Y-96382697D01*
X156138638Y-96382697D01*
X155966926Y-96355500D01*
X155793074Y-96355500D01*
X155621362Y-96382697D01*
X155621360Y-96382697D01*
X155621357Y-96382698D01*
X155456023Y-96436418D01*
X155456017Y-96436421D01*
X155301112Y-96515349D01*
X155160464Y-96617536D01*
X155037536Y-96740464D01*
X154935349Y-96881112D01*
X154856421Y-97036017D01*
X154856418Y-97036023D01*
X154802698Y-97201357D01*
X154802697Y-97201360D01*
X154802697Y-97201362D01*
X154775500Y-97373074D01*
X154444500Y-97373074D01*
X154417303Y-97201362D01*
X154363580Y-97036019D01*
X154284653Y-96881116D01*
X154212041Y-96781174D01*
X154182463Y-96740464D01*
X154059535Y-96617536D01*
X153918887Y-96515349D01*
X153918886Y-96515348D01*
X153918884Y-96515347D01*
X153763981Y-96436420D01*
X153763978Y-96436419D01*
X153763976Y-96436418D01*
X153598642Y-96382698D01*
X153598640Y-96382697D01*
X153598638Y-96382697D01*
X153426926Y-96355500D01*
X153253074Y-96355500D01*
X153081362Y-96382697D01*
X153081360Y-96382697D01*
X153081357Y-96382698D01*
X152916023Y-96436418D01*
X152916017Y-96436421D01*
X152761112Y-96515349D01*
X152620464Y-96617536D01*
X152497536Y-96740464D01*
X152395349Y-96881112D01*
X152316421Y-97036017D01*
X152316418Y-97036023D01*
X152262698Y-97201357D01*
X152262697Y-97201360D01*
X152262697Y-97201362D01*
X152235500Y-97373074D01*
X151904499Y-97373074D01*
X151904499Y-96584934D01*
X151904498Y-96584930D01*
X151904498Y-96584926D01*
X151889734Y-96510699D01*
X151840102Y-96436421D01*
X151833484Y-96426516D01*
X151833483Y-96426515D01*
X151749302Y-96370266D01*
X151675067Y-96355500D01*
X149924936Y-96355500D01*
X149924926Y-96355501D01*
X149850699Y-96370265D01*
X149766515Y-96426516D01*
X149710266Y-96510697D01*
X149695500Y-96584930D01*
X146394657Y-96584930D01*
X146298887Y-96515349D01*
X146298886Y-96515348D01*
X146298884Y-96515347D01*
X146143981Y-96436420D01*
X146143978Y-96436419D01*
X146143976Y-96436418D01*
X145978642Y-96382698D01*
X145978640Y-96382697D01*
X145978638Y-96382697D01*
X145806926Y-96355500D01*
X145633074Y-96355500D01*
X145461362Y-96382697D01*
X145461360Y-96382697D01*
X145461357Y-96382698D01*
X145296023Y-96436418D01*
X145296017Y-96436421D01*
X145141112Y-96515349D01*
X145000464Y-96617536D01*
X144877536Y-96740464D01*
X144775348Y-96881113D01*
X144696341Y-97036174D01*
X144647592Y-97087789D01*
X144578678Y-97104855D01*
X144511476Y-97081954D01*
X144467324Y-97026356D01*
X144464241Y-97017908D01*
X144438507Y-96938709D01*
X144438506Y-96938707D01*
X144341464Y-96748251D01*
X144341463Y-96748249D01*
X144303378Y-96695831D01*
X143664157Y-97335051D01*
X143645925Y-97267007D01*
X143580099Y-97152993D01*
X143487007Y-97059901D01*
X143372993Y-96994075D01*
X143304947Y-96975841D01*
X143944168Y-96336621D01*
X143944167Y-96336620D01*
X143891750Y-96298536D01*
X143891748Y-96298535D01*
X143701292Y-96201493D01*
X143701286Y-96201490D01*
X143498003Y-96135440D01*
X143286874Y-96102000D01*
X143073126Y-96102000D01*
X142861996Y-96135440D01*
X142658713Y-96201490D01*
X142658707Y-96201493D01*
X142468253Y-96298534D01*
X142415831Y-96336621D01*
X142415831Y-96336622D01*
X143055051Y-96975842D01*
X142987007Y-96994075D01*
X142872993Y-97059901D01*
X142779901Y-97152993D01*
X142714075Y-97267007D01*
X142695842Y-97335051D01*
X142056622Y-96695831D01*
X142056621Y-96695831D01*
X142018522Y-96748269D01*
X142017422Y-96750065D01*
X142016827Y-96750603D01*
X142015624Y-96752259D01*
X142015275Y-96752006D01*
X141964768Y-96797689D01*
X141894725Y-96809286D01*
X141829531Y-96781174D01*
X141804440Y-96752211D01*
X141804376Y-96752258D01*
X141803830Y-96751506D01*
X141802563Y-96750044D01*
X141801462Y-96748248D01*
X141763378Y-96695831D01*
X141124157Y-97335051D01*
X141105925Y-97267007D01*
X141040099Y-97152993D01*
X140947007Y-97059901D01*
X140832993Y-96994075D01*
X140764947Y-96975841D01*
X141404168Y-96336621D01*
X141404167Y-96336620D01*
X141351750Y-96298536D01*
X141351748Y-96298535D01*
X141161292Y-96201493D01*
X141161286Y-96201490D01*
X140958003Y-96135440D01*
X140746874Y-96102000D01*
X140533126Y-96102000D01*
X140321996Y-96135440D01*
X140118713Y-96201490D01*
X140118707Y-96201493D01*
X139928253Y-96298534D01*
X139875831Y-96336621D01*
X139875831Y-96336622D01*
X140515051Y-96975842D01*
X140447007Y-96994075D01*
X140332993Y-97059901D01*
X140239901Y-97152993D01*
X140174075Y-97267007D01*
X140155842Y-97335051D01*
X139516622Y-96695831D01*
X139516621Y-96695831D01*
X139478534Y-96748253D01*
X139381493Y-96938707D01*
X139355758Y-97017909D01*
X139315683Y-97076514D01*
X139250286Y-97104150D01*
X139180330Y-97092042D01*
X139128024Y-97044036D01*
X139123658Y-97036174D01*
X139123581Y-97036023D01*
X139123580Y-97036019D01*
X139044653Y-96881116D01*
X138972041Y-96781174D01*
X138942463Y-96740464D01*
X138819535Y-96617536D01*
X138678884Y-96515347D01*
X138642699Y-96496910D01*
X138523981Y-96436420D01*
X138523978Y-96436419D01*
X138523976Y-96436418D01*
X138358642Y-96382698D01*
X138358640Y-96382697D01*
X138358638Y-96382697D01*
X138186926Y-96355500D01*
X138013074Y-96355500D01*
X137841362Y-96382697D01*
X137841360Y-96382697D01*
X137841357Y-96382698D01*
X137676023Y-96436418D01*
X137676017Y-96436421D01*
X137521112Y-96515349D01*
X137380464Y-96617536D01*
X137257536Y-96740464D01*
X137155349Y-96881112D01*
X137076421Y-97036017D01*
X137076418Y-97036023D01*
X137022698Y-97201357D01*
X137022697Y-97201360D01*
X137022697Y-97201362D01*
X136995500Y-97373074D01*
X136664500Y-97373074D01*
X136637303Y-97201362D01*
X136583580Y-97036019D01*
X136504653Y-96881116D01*
X136432041Y-96781174D01*
X136402463Y-96740464D01*
X136279535Y-96617536D01*
X136138887Y-96515349D01*
X136138886Y-96515348D01*
X136138884Y-96515347D01*
X135983981Y-96436420D01*
X135983978Y-96436419D01*
X135983976Y-96436418D01*
X135818642Y-96382698D01*
X135818640Y-96382697D01*
X135818638Y-96382697D01*
X135646926Y-96355500D01*
X135473074Y-96355500D01*
X135301362Y-96382697D01*
X135301360Y-96382697D01*
X135301357Y-96382698D01*
X135136023Y-96436418D01*
X135136017Y-96436421D01*
X134981112Y-96515349D01*
X134840464Y-96617536D01*
X134717536Y-96740464D01*
X134615349Y-96881112D01*
X134536421Y-97036017D01*
X134536418Y-97036023D01*
X134482698Y-97201357D01*
X134482697Y-97201360D01*
X134482697Y-97201362D01*
X134455500Y-97373074D01*
X134124500Y-97373074D01*
X134097303Y-97201362D01*
X134043580Y-97036019D01*
X133964653Y-96881116D01*
X133892041Y-96781174D01*
X133862463Y-96740464D01*
X133739535Y-96617536D01*
X133598887Y-96515349D01*
X133598886Y-96515348D01*
X133598884Y-96515347D01*
X133443981Y-96436420D01*
X133443978Y-96436419D01*
X133443976Y-96436418D01*
X133278642Y-96382698D01*
X133278640Y-96382697D01*
X133278638Y-96382697D01*
X133106926Y-96355500D01*
X132933074Y-96355500D01*
X132761362Y-96382697D01*
X132761360Y-96382697D01*
X132761357Y-96382698D01*
X132596023Y-96436418D01*
X132596017Y-96436421D01*
X132441112Y-96515349D01*
X132300464Y-96617536D01*
X132177536Y-96740464D01*
X132075349Y-96881112D01*
X131996421Y-97036017D01*
X131996418Y-97036023D01*
X131942698Y-97201357D01*
X131942697Y-97201360D01*
X131942697Y-97201362D01*
X131915500Y-97373074D01*
X131584500Y-97373074D01*
X131557303Y-97201362D01*
X131503580Y-97036019D01*
X131424653Y-96881116D01*
X131352041Y-96781174D01*
X131322463Y-96740464D01*
X131199535Y-96617536D01*
X131058887Y-96515349D01*
X131058886Y-96515348D01*
X131058884Y-96515347D01*
X130903981Y-96436420D01*
X130903978Y-96436419D01*
X130903976Y-96436418D01*
X130738642Y-96382698D01*
X130738640Y-96382697D01*
X130738638Y-96382697D01*
X130566926Y-96355500D01*
X130393074Y-96355500D01*
X130221362Y-96382697D01*
X130221360Y-96382697D01*
X130221357Y-96382698D01*
X130056023Y-96436418D01*
X130056017Y-96436421D01*
X129901112Y-96515349D01*
X129760464Y-96617536D01*
X129637536Y-96740464D01*
X129535349Y-96881112D01*
X129456421Y-97036017D01*
X129456418Y-97036023D01*
X129402698Y-97201357D01*
X129402697Y-97201360D01*
X129402697Y-97201362D01*
X129375500Y-97373074D01*
X129044499Y-97373074D01*
X129044499Y-96584934D01*
X129044498Y-96584930D01*
X129044498Y-96584926D01*
X129029734Y-96510699D01*
X128980102Y-96436421D01*
X128973484Y-96426516D01*
X128973483Y-96426515D01*
X128889302Y-96370266D01*
X128815067Y-96355500D01*
X127064936Y-96355500D01*
X127064926Y-96355501D01*
X126990699Y-96370265D01*
X126906515Y-96426516D01*
X126850266Y-96510697D01*
X126835500Y-96584930D01*
X115606170Y-96584930D01*
X115515271Y-96427487D01*
X115515267Y-96427481D01*
X115367285Y-96234628D01*
X115367266Y-96234607D01*
X115195392Y-96062733D01*
X115195371Y-96062714D01*
X115002518Y-95914732D01*
X115002512Y-95914728D01*
X114791996Y-95793187D01*
X114791988Y-95793183D01*
X114791984Y-95793181D01*
X114567388Y-95700150D01*
X114332571Y-95637231D01*
X114332569Y-95637230D01*
X114332563Y-95637229D01*
X114091552Y-95605500D01*
X114091550Y-95605500D01*
X113848450Y-95605500D01*
X113848447Y-95605500D01*
X113607436Y-95637229D01*
X113372612Y-95700150D01*
X113148014Y-95793182D01*
X113148003Y-95793187D01*
X112937487Y-95914728D01*
X112937481Y-95914732D01*
X112744628Y-96062714D01*
X112744607Y-96062733D01*
X112572733Y-96234607D01*
X112572714Y-96234628D01*
X112424732Y-96427481D01*
X112424728Y-96427487D01*
X112303187Y-96638003D01*
X112303182Y-96638014D01*
X112210150Y-96862612D01*
X112147229Y-97097436D01*
X112115500Y-97338447D01*
X100254500Y-97338447D01*
X100254500Y-92258447D01*
X164185500Y-92258447D01*
X164185500Y-92501552D01*
X164217229Y-92742563D01*
X164217230Y-92742569D01*
X164217231Y-92742571D01*
X164280150Y-92977388D01*
X164373181Y-93201984D01*
X164373182Y-93201985D01*
X164373187Y-93201996D01*
X164494728Y-93412512D01*
X164494732Y-93412518D01*
X164642714Y-93605371D01*
X164642733Y-93605392D01*
X164814607Y-93777266D01*
X164814628Y-93777285D01*
X165007481Y-93925267D01*
X165007487Y-93925271D01*
X165218003Y-94046812D01*
X165218007Y-94046813D01*
X165218016Y-94046819D01*
X165442612Y-94139850D01*
X165677429Y-94202769D01*
X165677435Y-94202769D01*
X165677436Y-94202770D01*
X165705093Y-94206411D01*
X165918450Y-94234500D01*
X165918457Y-94234500D01*
X166161543Y-94234500D01*
X166161550Y-94234500D01*
X166402571Y-94202769D01*
X166637388Y-94139850D01*
X166861984Y-94046819D01*
X167072516Y-93925269D01*
X167265380Y-93777278D01*
X167437278Y-93605380D01*
X167585269Y-93412516D01*
X167706819Y-93201984D01*
X167799850Y-92977388D01*
X167862769Y-92742571D01*
X167894500Y-92501550D01*
X167894500Y-92258450D01*
X167862769Y-92017429D01*
X167799850Y-91782612D01*
X167706819Y-91558016D01*
X167706813Y-91558007D01*
X167706812Y-91558003D01*
X167585271Y-91347487D01*
X167585267Y-91347481D01*
X167437285Y-91154628D01*
X167437266Y-91154607D01*
X167265392Y-90982733D01*
X167265371Y-90982714D01*
X167072518Y-90834732D01*
X167072512Y-90834728D01*
X166861996Y-90713187D01*
X166861988Y-90713183D01*
X166861984Y-90713181D01*
X166637388Y-90620150D01*
X166402571Y-90557231D01*
X166402569Y-90557230D01*
X166402563Y-90557229D01*
X166161552Y-90525500D01*
X166161550Y-90525500D01*
X165918450Y-90525500D01*
X165918447Y-90525500D01*
X165677436Y-90557229D01*
X165442612Y-90620150D01*
X165218014Y-90713182D01*
X165218003Y-90713187D01*
X165007487Y-90834728D01*
X165007481Y-90834732D01*
X164814628Y-90982714D01*
X164814607Y-90982733D01*
X164642733Y-91154607D01*
X164642714Y-91154628D01*
X164494732Y-91347481D01*
X164494728Y-91347487D01*
X164373187Y-91558003D01*
X164373182Y-91558014D01*
X164280150Y-91782612D01*
X164217229Y-92017436D01*
X164185500Y-92258447D01*
X100254500Y-92258447D01*
X100254500Y-80074930D01*
X102705500Y-80074930D01*
X102705500Y-81825063D01*
X102705501Y-81825073D01*
X102720265Y-81899300D01*
X102776516Y-81983484D01*
X102860697Y-82039733D01*
X102860699Y-82039734D01*
X102934933Y-82054500D01*
X104685066Y-82054499D01*
X104685069Y-82054498D01*
X104685073Y-82054498D01*
X104734326Y-82044701D01*
X104759301Y-82039734D01*
X104843484Y-81983484D01*
X104899734Y-81899301D01*
X104914500Y-81825067D01*
X104914499Y-80863074D01*
X105245500Y-80863074D01*
X105245500Y-81036926D01*
X105262300Y-81142993D01*
X105272698Y-81208642D01*
X105326369Y-81373826D01*
X105326420Y-81373981D01*
X105405347Y-81528884D01*
X105405349Y-81528887D01*
X105507536Y-81669535D01*
X105630464Y-81792463D01*
X105675342Y-81825069D01*
X105771116Y-81894653D01*
X105926019Y-81973580D01*
X106091362Y-82027303D01*
X106263074Y-82054500D01*
X106263077Y-82054500D01*
X106436923Y-82054500D01*
X106436926Y-82054500D01*
X106608638Y-82027303D01*
X106773981Y-81973580D01*
X106928884Y-81894653D01*
X107069533Y-81792465D01*
X107192465Y-81669533D01*
X107294653Y-81528884D01*
X107373580Y-81373981D01*
X107373581Y-81373975D01*
X107373658Y-81373826D01*
X107422406Y-81322210D01*
X107491321Y-81305144D01*
X107558522Y-81328044D01*
X107602675Y-81383642D01*
X107605758Y-81392091D01*
X107631492Y-81471289D01*
X107631493Y-81471292D01*
X107728535Y-81661748D01*
X107728536Y-81661750D01*
X107766620Y-81714167D01*
X107766621Y-81714168D01*
X108405841Y-81074947D01*
X108424075Y-81142993D01*
X108489901Y-81257007D01*
X108582993Y-81350099D01*
X108697007Y-81415925D01*
X108765051Y-81434157D01*
X108125831Y-82073378D01*
X108178249Y-82111463D01*
X108178251Y-82111464D01*
X108368707Y-82208506D01*
X108368713Y-82208509D01*
X108571996Y-82274559D01*
X108783126Y-82308000D01*
X108996874Y-82308000D01*
X109208003Y-82274559D01*
X109411286Y-82208509D01*
X109411292Y-82208506D01*
X109601750Y-82111463D01*
X109654167Y-82073378D01*
X109654167Y-82073376D01*
X109014948Y-81434157D01*
X109082993Y-81415925D01*
X109197007Y-81350099D01*
X109290099Y-81257007D01*
X109355925Y-81142993D01*
X109374157Y-81074948D01*
X110013376Y-81714167D01*
X110013378Y-81714167D01*
X110051463Y-81661750D01*
X110148506Y-81471292D01*
X110148509Y-81471286D01*
X110214559Y-81268003D01*
X110248000Y-81056873D01*
X110248000Y-80843126D01*
X110214559Y-80631996D01*
X110148509Y-80428713D01*
X110148506Y-80428707D01*
X110051464Y-80238251D01*
X110051463Y-80238249D01*
X110013378Y-80185831D01*
X109374157Y-80825051D01*
X109355925Y-80757007D01*
X109290099Y-80642993D01*
X109197007Y-80549901D01*
X109082993Y-80484075D01*
X109014947Y-80465841D01*
X109654168Y-79826621D01*
X109654167Y-79826620D01*
X109601750Y-79788536D01*
X109601748Y-79788535D01*
X109411292Y-79691493D01*
X109411286Y-79691490D01*
X109208003Y-79625440D01*
X108996874Y-79592000D01*
X108783126Y-79592000D01*
X108571996Y-79625440D01*
X108368713Y-79691490D01*
X108368707Y-79691493D01*
X108178253Y-79788534D01*
X108125831Y-79826621D01*
X108125831Y-79826622D01*
X108765051Y-80465842D01*
X108697007Y-80484075D01*
X108582993Y-80549901D01*
X108489901Y-80642993D01*
X108424075Y-80757007D01*
X108405842Y-80825051D01*
X107766622Y-80185831D01*
X107766621Y-80185831D01*
X107728534Y-80238253D01*
X107631493Y-80428707D01*
X107605758Y-80507909D01*
X107565683Y-80566514D01*
X107500286Y-80594150D01*
X107430330Y-80582042D01*
X107378024Y-80534036D01*
X107373658Y-80526174D01*
X107373581Y-80526023D01*
X107373580Y-80526019D01*
X107294653Y-80371116D01*
X107198122Y-80238253D01*
X107192463Y-80230464D01*
X107069535Y-80107536D01*
X106928884Y-80005347D01*
X106892699Y-79986910D01*
X106773981Y-79926420D01*
X106773978Y-79926419D01*
X106773976Y-79926418D01*
X106608642Y-79872698D01*
X106608640Y-79872697D01*
X106608638Y-79872697D01*
X106436926Y-79845500D01*
X106263074Y-79845500D01*
X106091362Y-79872697D01*
X106091360Y-79872697D01*
X106091357Y-79872698D01*
X105926023Y-79926418D01*
X105926017Y-79926421D01*
X105771112Y-80005349D01*
X105630464Y-80107536D01*
X105507536Y-80230464D01*
X105405349Y-80371112D01*
X105326421Y-80526017D01*
X105326418Y-80526023D01*
X105272698Y-80691357D01*
X105272697Y-80691360D01*
X105272697Y-80691362D01*
X105245500Y-80863074D01*
X104914499Y-80863074D01*
X104914499Y-80074934D01*
X104914498Y-80074930D01*
X104914498Y-80074926D01*
X104899734Y-80000699D01*
X104850102Y-79926421D01*
X104843484Y-79916516D01*
X104777907Y-79872698D01*
X104759302Y-79860266D01*
X104685067Y-79845500D01*
X102934936Y-79845500D01*
X102934926Y-79845501D01*
X102860699Y-79860265D01*
X102776515Y-79916516D01*
X102720266Y-80000697D01*
X102705500Y-80074930D01*
X100254500Y-80074930D01*
X100254500Y-78737631D01*
X158495699Y-78737631D01*
X158533816Y-78879882D01*
X158607446Y-79007414D01*
X158607448Y-79007417D01*
X158607449Y-79007418D01*
X158638595Y-79038564D01*
X158672620Y-79100874D01*
X158675500Y-79127659D01*
X158675500Y-81502340D01*
X158655498Y-81570461D01*
X158638595Y-81591435D01*
X158607454Y-81622575D01*
X158607446Y-81622585D01*
X158533816Y-81750117D01*
X158495700Y-81892368D01*
X158495700Y-82039631D01*
X158495699Y-82039631D01*
X158533816Y-82181882D01*
X158607446Y-82309414D01*
X158607454Y-82309424D01*
X158711575Y-82413545D01*
X158711580Y-82413549D01*
X158711582Y-82413551D01*
X158839118Y-82487184D01*
X158981367Y-82525300D01*
X158981369Y-82525300D01*
X159128631Y-82525300D01*
X159128633Y-82525300D01*
X159270882Y-82487184D01*
X159398418Y-82413551D01*
X159502551Y-82309418D01*
X159576184Y-82181882D01*
X159614300Y-82039633D01*
X159614300Y-81892367D01*
X159576184Y-81750118D01*
X159502551Y-81622582D01*
X159502549Y-81622580D01*
X159502545Y-81622575D01*
X159471405Y-81591435D01*
X159437379Y-81529123D01*
X159434500Y-81502340D01*
X159434500Y-79127659D01*
X159454502Y-79059538D01*
X159471401Y-79038567D01*
X159502551Y-79007418D01*
X159576184Y-78879882D01*
X159614300Y-78737633D01*
X159614300Y-78590367D01*
X159576184Y-78448118D01*
X159502551Y-78320582D01*
X159502549Y-78320580D01*
X159502545Y-78320575D01*
X159398424Y-78216454D01*
X159398414Y-78216446D01*
X159270882Y-78142816D01*
X159128633Y-78104700D01*
X158981367Y-78104700D01*
X158886534Y-78130110D01*
X158839117Y-78142816D01*
X158711585Y-78216446D01*
X158711575Y-78216454D01*
X158607454Y-78320575D01*
X158607446Y-78320585D01*
X158533816Y-78448117D01*
X158495700Y-78590368D01*
X158495700Y-78737631D01*
X158495699Y-78737631D01*
X100254500Y-78737631D01*
X100254500Y-76324631D01*
X130428699Y-76324631D01*
X130466816Y-76466882D01*
X130540446Y-76594414D01*
X130540454Y-76594424D01*
X130644575Y-76698545D01*
X130644580Y-76698549D01*
X130644582Y-76698551D01*
X130772118Y-76772184D01*
X130914367Y-76810300D01*
X130914369Y-76810300D01*
X131061631Y-76810300D01*
X131061633Y-76810300D01*
X131203882Y-76772184D01*
X131331418Y-76698551D01*
X131362564Y-76667404D01*
X131424874Y-76633380D01*
X131451659Y-76630500D01*
X132556341Y-76630500D01*
X132624462Y-76650502D01*
X132645432Y-76667401D01*
X132676582Y-76698551D01*
X132804118Y-76772184D01*
X132946367Y-76810300D01*
X132946369Y-76810300D01*
X133093631Y-76810300D01*
X133093633Y-76810300D01*
X133235882Y-76772184D01*
X133363418Y-76698551D01*
X133467551Y-76594418D01*
X133541184Y-76466882D01*
X133579300Y-76324633D01*
X133579300Y-76177367D01*
X133541184Y-76035118D01*
X133467551Y-75907582D01*
X133467549Y-75907580D01*
X133467545Y-75907575D01*
X133363424Y-75803454D01*
X133363414Y-75803446D01*
X133235882Y-75729816D01*
X133211848Y-75723376D01*
X133093633Y-75691700D01*
X132946367Y-75691700D01*
X132851534Y-75717110D01*
X132804117Y-75729816D01*
X132676585Y-75803446D01*
X132676580Y-75803450D01*
X132661009Y-75819022D01*
X132645435Y-75834595D01*
X132583126Y-75868620D01*
X132556341Y-75871500D01*
X131451659Y-75871500D01*
X131383538Y-75851498D01*
X131362567Y-75834598D01*
X131331418Y-75803449D01*
X131331417Y-75803448D01*
X131331414Y-75803446D01*
X131203882Y-75729816D01*
X131179848Y-75723376D01*
X131061633Y-75691700D01*
X130914367Y-75691700D01*
X130819534Y-75717110D01*
X130772117Y-75729816D01*
X130644585Y-75803446D01*
X130644575Y-75803454D01*
X130540454Y-75907575D01*
X130540446Y-75907585D01*
X130466816Y-76035117D01*
X130428700Y-76177368D01*
X130428700Y-76324631D01*
X130428699Y-76324631D01*
X100254500Y-76324631D01*
X100254500Y-73724930D01*
X102705500Y-73724930D01*
X102705500Y-75475063D01*
X102705501Y-75475073D01*
X102720265Y-75549300D01*
X102776516Y-75633484D01*
X102860697Y-75689733D01*
X102860699Y-75689734D01*
X102934933Y-75704500D01*
X104685066Y-75704499D01*
X104685069Y-75704498D01*
X104685073Y-75704498D01*
X104749416Y-75691700D01*
X104759301Y-75689734D01*
X104843484Y-75633484D01*
X104899734Y-75549301D01*
X104914500Y-75475067D01*
X104914499Y-74513074D01*
X105245500Y-74513074D01*
X105245500Y-74686926D01*
X105262300Y-74792993D01*
X105272698Y-74858642D01*
X105326369Y-75023826D01*
X105326420Y-75023981D01*
X105405347Y-75178884D01*
X105405349Y-75178887D01*
X105507536Y-75319535D01*
X105630464Y-75442463D01*
X105675342Y-75475069D01*
X105771116Y-75544653D01*
X105926019Y-75623580D01*
X106091362Y-75677303D01*
X106263074Y-75704500D01*
X106263077Y-75704500D01*
X106436923Y-75704500D01*
X106436926Y-75704500D01*
X106608638Y-75677303D01*
X106773981Y-75623580D01*
X106928884Y-75544653D01*
X107069533Y-75442465D01*
X107192465Y-75319533D01*
X107294653Y-75178884D01*
X107373580Y-75023981D01*
X107373581Y-75023975D01*
X107373658Y-75023826D01*
X107422406Y-74972210D01*
X107491321Y-74955144D01*
X107558522Y-74978044D01*
X107602675Y-75033642D01*
X107605758Y-75042091D01*
X107631492Y-75121289D01*
X107631493Y-75121292D01*
X107728535Y-75311748D01*
X107728536Y-75311750D01*
X107766620Y-75364167D01*
X107766621Y-75364168D01*
X108405841Y-74724947D01*
X108424075Y-74792993D01*
X108489901Y-74907007D01*
X108582993Y-75000099D01*
X108697007Y-75065925D01*
X108765051Y-75084157D01*
X108125831Y-75723378D01*
X108178249Y-75761463D01*
X108178251Y-75761464D01*
X108368707Y-75858506D01*
X108368713Y-75858509D01*
X108571996Y-75924559D01*
X108783126Y-75958000D01*
X108996874Y-75958000D01*
X109208003Y-75924559D01*
X109411286Y-75858509D01*
X109411292Y-75858506D01*
X109601750Y-75761463D01*
X109654167Y-75723378D01*
X109654167Y-75723376D01*
X109014948Y-75084157D01*
X109082993Y-75065925D01*
X109197007Y-75000099D01*
X109290099Y-74907007D01*
X109355925Y-74792993D01*
X109374157Y-74724948D01*
X110013376Y-75364167D01*
X110013378Y-75364167D01*
X110051463Y-75311750D01*
X110148506Y-75121292D01*
X110148509Y-75121286D01*
X110214559Y-74918003D01*
X110248000Y-74706873D01*
X110248000Y-74493126D01*
X110214559Y-74281996D01*
X110148509Y-74078713D01*
X110148506Y-74078707D01*
X110051464Y-73888251D01*
X110051463Y-73888249D01*
X110013378Y-73835831D01*
X109374157Y-74475051D01*
X109355925Y-74407007D01*
X109290099Y-74292993D01*
X109197007Y-74199901D01*
X109082993Y-74134075D01*
X109014947Y-74115841D01*
X109654168Y-73476621D01*
X109654167Y-73476620D01*
X109601750Y-73438536D01*
X109601748Y-73438535D01*
X109411292Y-73341493D01*
X109411286Y-73341490D01*
X109208003Y-73275440D01*
X108996874Y-73242000D01*
X108783126Y-73242000D01*
X108571996Y-73275440D01*
X108368713Y-73341490D01*
X108368707Y-73341493D01*
X108178253Y-73438534D01*
X108125831Y-73476621D01*
X108125831Y-73476622D01*
X108765051Y-74115842D01*
X108697007Y-74134075D01*
X108582993Y-74199901D01*
X108489901Y-74292993D01*
X108424075Y-74407007D01*
X108405842Y-74475051D01*
X107766622Y-73835831D01*
X107766621Y-73835831D01*
X107728534Y-73888253D01*
X107631493Y-74078707D01*
X107605758Y-74157909D01*
X107565683Y-74216514D01*
X107500286Y-74244150D01*
X107430330Y-74232042D01*
X107378024Y-74184036D01*
X107373658Y-74176174D01*
X107373581Y-74176023D01*
X107373580Y-74176019D01*
X107294653Y-74021116D01*
X107198122Y-73888253D01*
X107192463Y-73880464D01*
X107069535Y-73757536D01*
X106928884Y-73655347D01*
X106892699Y-73636910D01*
X106773981Y-73576420D01*
X106773978Y-73576419D01*
X106773976Y-73576418D01*
X106608642Y-73522698D01*
X106608640Y-73522697D01*
X106608638Y-73522697D01*
X106436926Y-73495500D01*
X106263074Y-73495500D01*
X106091362Y-73522697D01*
X106091360Y-73522697D01*
X106091357Y-73522698D01*
X105926023Y-73576418D01*
X105926017Y-73576421D01*
X105771112Y-73655349D01*
X105630464Y-73757536D01*
X105507536Y-73880464D01*
X105405349Y-74021112D01*
X105326421Y-74176017D01*
X105326418Y-74176023D01*
X105272698Y-74341357D01*
X105272697Y-74341360D01*
X105272697Y-74341362D01*
X105245500Y-74513074D01*
X104914499Y-74513074D01*
X104914499Y-73724934D01*
X104914498Y-73724930D01*
X104914498Y-73724926D01*
X104899734Y-73650699D01*
X104850102Y-73576421D01*
X104843484Y-73566516D01*
X104777907Y-73522698D01*
X104759302Y-73510266D01*
X104685067Y-73495500D01*
X102934936Y-73495500D01*
X102934926Y-73495501D01*
X102860699Y-73510265D01*
X102776515Y-73566516D01*
X102720266Y-73650697D01*
X102705500Y-73724930D01*
X100254500Y-73724930D01*
X100254500Y-67374930D01*
X102705500Y-67374930D01*
X102705500Y-69125063D01*
X102705501Y-69125073D01*
X102720265Y-69199300D01*
X102776516Y-69283484D01*
X102860697Y-69339733D01*
X102860699Y-69339734D01*
X102934933Y-69354500D01*
X104685066Y-69354499D01*
X104685069Y-69354498D01*
X104685073Y-69354498D01*
X104734326Y-69344701D01*
X104759301Y-69339734D01*
X104843484Y-69283484D01*
X104899734Y-69199301D01*
X104914500Y-69125067D01*
X104914499Y-68163074D01*
X105245500Y-68163074D01*
X105245500Y-68336926D01*
X105262300Y-68442993D01*
X105272698Y-68508642D01*
X105326369Y-68673826D01*
X105326420Y-68673981D01*
X105405347Y-68828884D01*
X105405349Y-68828887D01*
X105507536Y-68969535D01*
X105630464Y-69092463D01*
X105675342Y-69125069D01*
X105771116Y-69194653D01*
X105926019Y-69273580D01*
X106091362Y-69327303D01*
X106263074Y-69354500D01*
X106263077Y-69354500D01*
X106436923Y-69354500D01*
X106436926Y-69354500D01*
X106608638Y-69327303D01*
X106773981Y-69273580D01*
X106928884Y-69194653D01*
X107069533Y-69092465D01*
X107192465Y-68969533D01*
X107294653Y-68828884D01*
X107373580Y-68673981D01*
X107373581Y-68673975D01*
X107373658Y-68673826D01*
X107422406Y-68622210D01*
X107491321Y-68605144D01*
X107558522Y-68628044D01*
X107602675Y-68683642D01*
X107605758Y-68692091D01*
X107631492Y-68771289D01*
X107631493Y-68771292D01*
X107728535Y-68961748D01*
X107728536Y-68961750D01*
X107766620Y-69014167D01*
X107766621Y-69014168D01*
X108405841Y-68374947D01*
X108424075Y-68442993D01*
X108489901Y-68557007D01*
X108582993Y-68650099D01*
X108697007Y-68715925D01*
X108765051Y-68734157D01*
X108125831Y-69373378D01*
X108178249Y-69411463D01*
X108178251Y-69411464D01*
X108368707Y-69508506D01*
X108368713Y-69508509D01*
X108571996Y-69574559D01*
X108783126Y-69608000D01*
X108996874Y-69608000D01*
X109208003Y-69574559D01*
X109411286Y-69508509D01*
X109411292Y-69508506D01*
X109601750Y-69411463D01*
X109654167Y-69373378D01*
X109654167Y-69373376D01*
X109014948Y-68734157D01*
X109082993Y-68715925D01*
X109197007Y-68650099D01*
X109290099Y-68557007D01*
X109355925Y-68442993D01*
X109374157Y-68374948D01*
X110013376Y-69014167D01*
X110013378Y-69014167D01*
X110051463Y-68961750D01*
X110148506Y-68771292D01*
X110148509Y-68771286D01*
X110214559Y-68568003D01*
X110248000Y-68356873D01*
X110248000Y-68143126D01*
X110214559Y-67931996D01*
X110148509Y-67728713D01*
X110148506Y-67728707D01*
X110051464Y-67538251D01*
X110051463Y-67538249D01*
X110013378Y-67485831D01*
X109374157Y-68125051D01*
X109355925Y-68057007D01*
X109290099Y-67942993D01*
X109197007Y-67849901D01*
X109082993Y-67784075D01*
X109014947Y-67765841D01*
X109346158Y-67434631D01*
X130555699Y-67434631D01*
X130593816Y-67576882D01*
X130667446Y-67704414D01*
X130667454Y-67704424D01*
X130771575Y-67808545D01*
X130771580Y-67808549D01*
X130771582Y-67808551D01*
X130899118Y-67882184D01*
X131041367Y-67920300D01*
X131041369Y-67920300D01*
X131188631Y-67920300D01*
X131188633Y-67920300D01*
X131330882Y-67882184D01*
X131458418Y-67808551D01*
X131489564Y-67777404D01*
X131551874Y-67743380D01*
X131578659Y-67740500D01*
X132556341Y-67740500D01*
X132624462Y-67760502D01*
X132645432Y-67777401D01*
X132676582Y-67808551D01*
X132804118Y-67882184D01*
X132946367Y-67920300D01*
X132946369Y-67920300D01*
X133093631Y-67920300D01*
X133093633Y-67920300D01*
X133235882Y-67882184D01*
X133363418Y-67808551D01*
X133467551Y-67704418D01*
X133541184Y-67576882D01*
X133579300Y-67434633D01*
X133579300Y-67287367D01*
X133541184Y-67145118D01*
X133467551Y-67017582D01*
X133467549Y-67017580D01*
X133467545Y-67017575D01*
X133363424Y-66913454D01*
X133363414Y-66913446D01*
X133235882Y-66839816D01*
X133093633Y-66801700D01*
X132946367Y-66801700D01*
X132851534Y-66827110D01*
X132804117Y-66839816D01*
X132676585Y-66913446D01*
X132676580Y-66913450D01*
X132664591Y-66925440D01*
X132645435Y-66944595D01*
X132583126Y-66978620D01*
X132556341Y-66981500D01*
X131578659Y-66981500D01*
X131510538Y-66961498D01*
X131489567Y-66944598D01*
X131458418Y-66913449D01*
X131458417Y-66913448D01*
X131458414Y-66913446D01*
X131330882Y-66839816D01*
X131188633Y-66801700D01*
X131041367Y-66801700D01*
X130946534Y-66827110D01*
X130899117Y-66839816D01*
X130771585Y-66913446D01*
X130771575Y-66913454D01*
X130667454Y-67017575D01*
X130667446Y-67017585D01*
X130593816Y-67145117D01*
X130593713Y-67145501D01*
X130555823Y-67286910D01*
X130555700Y-67287368D01*
X130555700Y-67434631D01*
X130555699Y-67434631D01*
X109346158Y-67434631D01*
X109590776Y-67190013D01*
X109654168Y-67126621D01*
X109654167Y-67126620D01*
X109601750Y-67088536D01*
X109601748Y-67088535D01*
X109411292Y-66991493D01*
X109411286Y-66991490D01*
X109208003Y-66925440D01*
X108996874Y-66892000D01*
X108783126Y-66892000D01*
X108571996Y-66925440D01*
X108368713Y-66991490D01*
X108368707Y-66991493D01*
X108178253Y-67088534D01*
X108125831Y-67126621D01*
X108125831Y-67126622D01*
X108765051Y-67765842D01*
X108697007Y-67784075D01*
X108582993Y-67849901D01*
X108489901Y-67942993D01*
X108424075Y-68057007D01*
X108405842Y-68125051D01*
X107766622Y-67485831D01*
X107766621Y-67485831D01*
X107728534Y-67538253D01*
X107631493Y-67728707D01*
X107605758Y-67807909D01*
X107565683Y-67866514D01*
X107500286Y-67894150D01*
X107430330Y-67882042D01*
X107378024Y-67834036D01*
X107373658Y-67826174D01*
X107373581Y-67826023D01*
X107373580Y-67826019D01*
X107294653Y-67671116D01*
X107198122Y-67538253D01*
X107192463Y-67530464D01*
X107069535Y-67407536D01*
X106928884Y-67305347D01*
X106892699Y-67286910D01*
X106773981Y-67226420D01*
X106773978Y-67226419D01*
X106773976Y-67226418D01*
X106608642Y-67172698D01*
X106608640Y-67172697D01*
X106608638Y-67172697D01*
X106436926Y-67145500D01*
X106263074Y-67145500D01*
X106091362Y-67172697D01*
X106091360Y-67172697D01*
X106091357Y-67172698D01*
X105926023Y-67226418D01*
X105926017Y-67226421D01*
X105771112Y-67305349D01*
X105630464Y-67407536D01*
X105507536Y-67530464D01*
X105405349Y-67671112D01*
X105326421Y-67826017D01*
X105326418Y-67826023D01*
X105272698Y-67991357D01*
X105272697Y-67991360D01*
X105272697Y-67991362D01*
X105245500Y-68163074D01*
X104914499Y-68163074D01*
X104914499Y-67374934D01*
X104914498Y-67374930D01*
X104914498Y-67374926D01*
X104899734Y-67300699D01*
X104850102Y-67226421D01*
X104843484Y-67216516D01*
X104843483Y-67216515D01*
X104759302Y-67160266D01*
X104685067Y-67145500D01*
X102934936Y-67145500D01*
X102934926Y-67145501D01*
X102860699Y-67160265D01*
X102776515Y-67216516D01*
X102720266Y-67300697D01*
X102705500Y-67374930D01*
X100254500Y-67374930D01*
X100254500Y-64318447D01*
X164185500Y-64318447D01*
X164185500Y-64561552D01*
X164217229Y-64802563D01*
X164217230Y-64802569D01*
X164217231Y-64802571D01*
X164280150Y-65037388D01*
X164373181Y-65261984D01*
X164373182Y-65261985D01*
X164373187Y-65261996D01*
X164494728Y-65472512D01*
X164494732Y-65472518D01*
X164642714Y-65665371D01*
X164642733Y-65665392D01*
X164814607Y-65837266D01*
X164814628Y-65837285D01*
X165007481Y-65985267D01*
X165007487Y-65985271D01*
X165218003Y-66106812D01*
X165218007Y-66106813D01*
X165218016Y-66106819D01*
X165442612Y-66199850D01*
X165677429Y-66262769D01*
X165677435Y-66262769D01*
X165677436Y-66262770D01*
X165705093Y-66266411D01*
X165918450Y-66294500D01*
X165918457Y-66294500D01*
X166161543Y-66294500D01*
X166161550Y-66294500D01*
X166402571Y-66262769D01*
X166637388Y-66199850D01*
X166861984Y-66106819D01*
X167072516Y-65985269D01*
X167265380Y-65837278D01*
X167437278Y-65665380D01*
X167585269Y-65472516D01*
X167706819Y-65261984D01*
X167799850Y-65037388D01*
X167862769Y-64802571D01*
X167894500Y-64561550D01*
X167894500Y-64318450D01*
X167862769Y-64077429D01*
X167799850Y-63842612D01*
X167706819Y-63618016D01*
X167706813Y-63618007D01*
X167706812Y-63618003D01*
X167585271Y-63407487D01*
X167585267Y-63407481D01*
X167437285Y-63214628D01*
X167437266Y-63214607D01*
X167265392Y-63042733D01*
X167265371Y-63042714D01*
X167072518Y-62894732D01*
X167072512Y-62894728D01*
X166861996Y-62773187D01*
X166861988Y-62773183D01*
X166861984Y-62773181D01*
X166637388Y-62680150D01*
X166402571Y-62617231D01*
X166402569Y-62617230D01*
X166402563Y-62617229D01*
X166161552Y-62585500D01*
X166161550Y-62585500D01*
X165918450Y-62585500D01*
X165918447Y-62585500D01*
X165677436Y-62617229D01*
X165442612Y-62680150D01*
X165218014Y-62773182D01*
X165218003Y-62773187D01*
X165007487Y-62894728D01*
X165007481Y-62894732D01*
X164814628Y-63042714D01*
X164814607Y-63042733D01*
X164642733Y-63214607D01*
X164642714Y-63214628D01*
X164494732Y-63407481D01*
X164494728Y-63407487D01*
X164373187Y-63618003D01*
X164373182Y-63618014D01*
X164280150Y-63842612D01*
X164217229Y-64077436D01*
X164185500Y-64318447D01*
X100254500Y-64318447D01*
X100254500Y-61024930D01*
X102705500Y-61024930D01*
X102705500Y-62775063D01*
X102705501Y-62775073D01*
X102720265Y-62849300D01*
X102776516Y-62933484D01*
X102860697Y-62989733D01*
X102860699Y-62989734D01*
X102934933Y-63004500D01*
X104685066Y-63004499D01*
X104685069Y-63004498D01*
X104685073Y-63004498D01*
X104734326Y-62994701D01*
X104759301Y-62989734D01*
X104843484Y-62933484D01*
X104899734Y-62849301D01*
X104914500Y-62775067D01*
X104914499Y-61813074D01*
X105245500Y-61813074D01*
X105245500Y-61986926D01*
X105252453Y-62030824D01*
X105272698Y-62158642D01*
X105326369Y-62323826D01*
X105326420Y-62323981D01*
X105405347Y-62478884D01*
X105405349Y-62478887D01*
X105507536Y-62619535D01*
X105630464Y-62742463D01*
X105675342Y-62775069D01*
X105771116Y-62844653D01*
X105926019Y-62923580D01*
X106091362Y-62977303D01*
X106263074Y-63004500D01*
X106263077Y-63004500D01*
X106436923Y-63004500D01*
X106436926Y-63004500D01*
X106608638Y-62977303D01*
X106773981Y-62923580D01*
X106928884Y-62844653D01*
X107069533Y-62742465D01*
X107192465Y-62619533D01*
X107294653Y-62478884D01*
X107373580Y-62323981D01*
X107373581Y-62323975D01*
X107373658Y-62323826D01*
X107422406Y-62272210D01*
X107491321Y-62255144D01*
X107558522Y-62278044D01*
X107602675Y-62333642D01*
X107605758Y-62342091D01*
X107631492Y-62421289D01*
X107631493Y-62421292D01*
X107728535Y-62611748D01*
X107728536Y-62611750D01*
X107766620Y-62664167D01*
X107766621Y-62664168D01*
X108405841Y-62024947D01*
X108424075Y-62092993D01*
X108489901Y-62207007D01*
X108582993Y-62300099D01*
X108697007Y-62365925D01*
X108765051Y-62384157D01*
X108125831Y-63023378D01*
X108178249Y-63061463D01*
X108178251Y-63061464D01*
X108368707Y-63158506D01*
X108368713Y-63158509D01*
X108571996Y-63224559D01*
X108783126Y-63258000D01*
X108996874Y-63258000D01*
X109208003Y-63224559D01*
X109411286Y-63158509D01*
X109411292Y-63158506D01*
X109601750Y-63061463D01*
X109654167Y-63023378D01*
X109654167Y-63023376D01*
X109014948Y-62384157D01*
X109082993Y-62365925D01*
X109197007Y-62300099D01*
X109290099Y-62207007D01*
X109355925Y-62092993D01*
X109374157Y-62024948D01*
X110013376Y-62664167D01*
X110013378Y-62664167D01*
X110051463Y-62611750D01*
X110148506Y-62421292D01*
X110148509Y-62421286D01*
X110214559Y-62218003D01*
X110248000Y-62006873D01*
X110248000Y-61793126D01*
X110214559Y-61581996D01*
X110148509Y-61378713D01*
X110148506Y-61378707D01*
X110051464Y-61188251D01*
X110051463Y-61188249D01*
X110013378Y-61135831D01*
X109374157Y-61775051D01*
X109355925Y-61707007D01*
X109290099Y-61592993D01*
X109197007Y-61499901D01*
X109082993Y-61434075D01*
X109014947Y-61415841D01*
X109473157Y-60957631D01*
X128904699Y-60957631D01*
X128942816Y-61099882D01*
X129016446Y-61227414D01*
X129016448Y-61227417D01*
X129016449Y-61227418D01*
X129047595Y-61258564D01*
X129081620Y-61320874D01*
X129084500Y-61347659D01*
X129084500Y-62452340D01*
X129064498Y-62520461D01*
X129047595Y-62541435D01*
X129016454Y-62572575D01*
X129016446Y-62572585D01*
X128942816Y-62700117D01*
X128904700Y-62842368D01*
X128904700Y-62989631D01*
X128904699Y-62989631D01*
X128942816Y-63131882D01*
X129016446Y-63259414D01*
X129016454Y-63259424D01*
X129120575Y-63363545D01*
X129120580Y-63363549D01*
X129120582Y-63363551D01*
X129248118Y-63437184D01*
X129390367Y-63475300D01*
X129390369Y-63475300D01*
X129537631Y-63475300D01*
X129537633Y-63475300D01*
X129679882Y-63437184D01*
X129807418Y-63363551D01*
X129911551Y-63259418D01*
X129985184Y-63131882D01*
X130023300Y-62989633D01*
X130023300Y-62842367D01*
X129985184Y-62700118D01*
X129911551Y-62572582D01*
X129911549Y-62572580D01*
X129911545Y-62572575D01*
X129880405Y-62541435D01*
X129846379Y-62479123D01*
X129843500Y-62452340D01*
X129843500Y-61347659D01*
X129863502Y-61279538D01*
X129880401Y-61258567D01*
X129911551Y-61227418D01*
X129985184Y-61099882D01*
X130023300Y-60957633D01*
X130023300Y-60810367D01*
X129985184Y-60668118D01*
X129911551Y-60540582D01*
X129911549Y-60540580D01*
X129911545Y-60540575D01*
X129807424Y-60436454D01*
X129807414Y-60436446D01*
X129679882Y-60362816D01*
X129537633Y-60324700D01*
X129390367Y-60324700D01*
X129295534Y-60350110D01*
X129248117Y-60362816D01*
X129120585Y-60436446D01*
X129120575Y-60436454D01*
X129016454Y-60540575D01*
X129016446Y-60540585D01*
X128942816Y-60668117D01*
X128942816Y-60668118D01*
X128904728Y-60810265D01*
X128904700Y-60810368D01*
X128904700Y-60957631D01*
X128904699Y-60957631D01*
X109473157Y-60957631D01*
X109654168Y-60776620D01*
X109601750Y-60738536D01*
X109601748Y-60738535D01*
X109411292Y-60641493D01*
X109411286Y-60641490D01*
X109208003Y-60575440D01*
X108996874Y-60542000D01*
X108783126Y-60542000D01*
X108571996Y-60575440D01*
X108368713Y-60641490D01*
X108368707Y-60641493D01*
X108178253Y-60738534D01*
X108125831Y-60776621D01*
X108125831Y-60776622D01*
X108765051Y-61415842D01*
X108697007Y-61434075D01*
X108582993Y-61499901D01*
X108489901Y-61592993D01*
X108424075Y-61707007D01*
X108405842Y-61775051D01*
X107766622Y-61135831D01*
X107766621Y-61135831D01*
X107728534Y-61188253D01*
X107631493Y-61378707D01*
X107605758Y-61457909D01*
X107565683Y-61516514D01*
X107500286Y-61544150D01*
X107430330Y-61532042D01*
X107378024Y-61484036D01*
X107373658Y-61476174D01*
X107373581Y-61476023D01*
X107373580Y-61476019D01*
X107294653Y-61321116D01*
X107198122Y-61188253D01*
X107192463Y-61180464D01*
X107069535Y-61057536D01*
X106928884Y-60955347D01*
X106892699Y-60936910D01*
X106773981Y-60876420D01*
X106773978Y-60876419D01*
X106773976Y-60876418D01*
X106608642Y-60822698D01*
X106608640Y-60822697D01*
X106608638Y-60822697D01*
X106436926Y-60795500D01*
X106263074Y-60795500D01*
X106091362Y-60822697D01*
X106091360Y-60822697D01*
X106091357Y-60822698D01*
X105926023Y-60876418D01*
X105926017Y-60876421D01*
X105771112Y-60955349D01*
X105630464Y-61057536D01*
X105507536Y-61180464D01*
X105405349Y-61321112D01*
X105326421Y-61476017D01*
X105326418Y-61476023D01*
X105272698Y-61641357D01*
X105272697Y-61641360D01*
X105272697Y-61641362D01*
X105245500Y-61813074D01*
X104914499Y-61813074D01*
X104914499Y-61024934D01*
X104914498Y-61024930D01*
X104914498Y-61024926D01*
X104899734Y-60950699D01*
X104850102Y-60876421D01*
X104843484Y-60866516D01*
X104777907Y-60822698D01*
X104759302Y-60810266D01*
X104685067Y-60795500D01*
X102934936Y-60795500D01*
X102934926Y-60795501D01*
X102860699Y-60810265D01*
X102776515Y-60866516D01*
X102720266Y-60950697D01*
X102705500Y-61024930D01*
X100254500Y-61024930D01*
X100254500Y-49078447D01*
X113385500Y-49078447D01*
X113385500Y-49321552D01*
X113417229Y-49562563D01*
X113417230Y-49562569D01*
X113417231Y-49562571D01*
X113480150Y-49797388D01*
X113573181Y-50021984D01*
X113573182Y-50021985D01*
X113573187Y-50021996D01*
X113694728Y-50232512D01*
X113694732Y-50232518D01*
X113842714Y-50425371D01*
X113842733Y-50425392D01*
X114014607Y-50597266D01*
X114014628Y-50597285D01*
X114207481Y-50745267D01*
X114207487Y-50745271D01*
X114418003Y-50866812D01*
X114418007Y-50866813D01*
X114418016Y-50866819D01*
X114642612Y-50959850D01*
X114877429Y-51022769D01*
X114877435Y-51022769D01*
X114877436Y-51022770D01*
X114905093Y-51026411D01*
X115118450Y-51054500D01*
X115118457Y-51054500D01*
X115361543Y-51054500D01*
X115361550Y-51054500D01*
X115602571Y-51022769D01*
X115837388Y-50959850D01*
X116061984Y-50866819D01*
X116272516Y-50745269D01*
X116465380Y-50597278D01*
X116637278Y-50425380D01*
X116785269Y-50232516D01*
X116906819Y-50021984D01*
X116999850Y-49797388D01*
X117062769Y-49562571D01*
X117094500Y-49321550D01*
X117094500Y-49078450D01*
X117063654Y-48844150D01*
X117062770Y-48837436D01*
X117062769Y-48837435D01*
X117062769Y-48837429D01*
X116999850Y-48602612D01*
X116906819Y-48378016D01*
X116906814Y-48378007D01*
X116876170Y-48324930D01*
X117691500Y-48324930D01*
X117691500Y-50075063D01*
X117691501Y-50075073D01*
X117706265Y-50149300D01*
X117762516Y-50233484D01*
X117846697Y-50289733D01*
X117846699Y-50289734D01*
X117920933Y-50304500D01*
X119671066Y-50304499D01*
X119671069Y-50304498D01*
X119671073Y-50304498D01*
X119720326Y-50294701D01*
X119745301Y-50289734D01*
X119829484Y-50233484D01*
X119885734Y-50149301D01*
X119900500Y-50075067D01*
X119900499Y-49113074D01*
X120231500Y-49113074D01*
X120231500Y-49286926D01*
X120238453Y-49330824D01*
X120258698Y-49458642D01*
X120312369Y-49623826D01*
X120312420Y-49623981D01*
X120391347Y-49778884D01*
X120391349Y-49778887D01*
X120493536Y-49919535D01*
X120616464Y-50042463D01*
X120661342Y-50075069D01*
X120757116Y-50144653D01*
X120912019Y-50223580D01*
X121077362Y-50277303D01*
X121249074Y-50304500D01*
X121249077Y-50304500D01*
X121422923Y-50304500D01*
X121422926Y-50304500D01*
X121594638Y-50277303D01*
X121759981Y-50223580D01*
X121914884Y-50144653D01*
X122055533Y-50042465D01*
X122178465Y-49919533D01*
X122280653Y-49778884D01*
X122359580Y-49623981D01*
X122413303Y-49458638D01*
X122440500Y-49286926D01*
X122440500Y-49113074D01*
X122771500Y-49113074D01*
X122771500Y-49286926D01*
X122778453Y-49330824D01*
X122798698Y-49458642D01*
X122852369Y-49623826D01*
X122852420Y-49623981D01*
X122931347Y-49778884D01*
X122931349Y-49778887D01*
X123033536Y-49919535D01*
X123156464Y-50042463D01*
X123201342Y-50075069D01*
X123297116Y-50144653D01*
X123452019Y-50223580D01*
X123617362Y-50277303D01*
X123789074Y-50304500D01*
X123789077Y-50304500D01*
X123962923Y-50304500D01*
X123962926Y-50304500D01*
X124134638Y-50277303D01*
X124299981Y-50223580D01*
X124454884Y-50144653D01*
X124595533Y-50042465D01*
X124718465Y-49919533D01*
X124820653Y-49778884D01*
X124899580Y-49623981D01*
X124899581Y-49623975D01*
X124899658Y-49623826D01*
X124948406Y-49572210D01*
X125017321Y-49555144D01*
X125084522Y-49578044D01*
X125128675Y-49633642D01*
X125131758Y-49642091D01*
X125157492Y-49721289D01*
X125157493Y-49721292D01*
X125254535Y-49911748D01*
X125254536Y-49911750D01*
X125292620Y-49964167D01*
X125292621Y-49964168D01*
X125931841Y-49324947D01*
X125950075Y-49392993D01*
X126015901Y-49507007D01*
X126108993Y-49600099D01*
X126223007Y-49665925D01*
X126291051Y-49684157D01*
X125651831Y-50323378D01*
X125704249Y-50361463D01*
X125704251Y-50361464D01*
X125894707Y-50458506D01*
X125894713Y-50458509D01*
X126097996Y-50524559D01*
X126309126Y-50558000D01*
X126522874Y-50558000D01*
X126734003Y-50524559D01*
X126937286Y-50458509D01*
X126937292Y-50458506D01*
X127127750Y-50361463D01*
X127180167Y-50323378D01*
X127180167Y-50323376D01*
X126540948Y-49684157D01*
X126608993Y-49665925D01*
X126723007Y-49600099D01*
X126816099Y-49507007D01*
X126881925Y-49392993D01*
X126900157Y-49324948D01*
X127539376Y-49964167D01*
X127539378Y-49964167D01*
X127577463Y-49911750D01*
X127674506Y-49721292D01*
X127674509Y-49721286D01*
X127700241Y-49642092D01*
X127740314Y-49583486D01*
X127805711Y-49555849D01*
X127875668Y-49567956D01*
X127927974Y-49615962D01*
X127932341Y-49623825D01*
X127932418Y-49623976D01*
X127932420Y-49623981D01*
X128011347Y-49778884D01*
X128011349Y-49778887D01*
X128113536Y-49919535D01*
X128236464Y-50042463D01*
X128281342Y-50075069D01*
X128377116Y-50144653D01*
X128532019Y-50223580D01*
X128697362Y-50277303D01*
X128869074Y-50304500D01*
X128869077Y-50304500D01*
X129042923Y-50304500D01*
X129042926Y-50304500D01*
X129214638Y-50277303D01*
X129379981Y-50223580D01*
X129534884Y-50144653D01*
X129675533Y-50042465D01*
X129798465Y-49919533D01*
X129900653Y-49778884D01*
X129979580Y-49623981D01*
X130033303Y-49458638D01*
X130060500Y-49286926D01*
X130060500Y-49113074D01*
X130391500Y-49113074D01*
X130391500Y-49286926D01*
X130398453Y-49330824D01*
X130418698Y-49458642D01*
X130472369Y-49623826D01*
X130472420Y-49623981D01*
X130551347Y-49778884D01*
X130551349Y-49778887D01*
X130653536Y-49919535D01*
X130776464Y-50042463D01*
X130821342Y-50075069D01*
X130917116Y-50144653D01*
X131072019Y-50223580D01*
X131237362Y-50277303D01*
X131409074Y-50304500D01*
X131409077Y-50304500D01*
X131582923Y-50304500D01*
X131582926Y-50304500D01*
X131754638Y-50277303D01*
X131919981Y-50223580D01*
X132074884Y-50144653D01*
X132215533Y-50042465D01*
X132338465Y-49919533D01*
X132440653Y-49778884D01*
X132519580Y-49623981D01*
X132573303Y-49458638D01*
X132600500Y-49286926D01*
X132600500Y-49113074D01*
X132931500Y-49113074D01*
X132931500Y-49286926D01*
X132938453Y-49330824D01*
X132958698Y-49458642D01*
X133012369Y-49623826D01*
X133012420Y-49623981D01*
X133091347Y-49778884D01*
X133091349Y-49778887D01*
X133193536Y-49919535D01*
X133316464Y-50042463D01*
X133361342Y-50075069D01*
X133457116Y-50144653D01*
X133612019Y-50223580D01*
X133777362Y-50277303D01*
X133949074Y-50304500D01*
X133949077Y-50304500D01*
X134122923Y-50304500D01*
X134122926Y-50304500D01*
X134294638Y-50277303D01*
X134459981Y-50223580D01*
X134614884Y-50144653D01*
X134755533Y-50042465D01*
X134878465Y-49919533D01*
X134980653Y-49778884D01*
X135059580Y-49623981D01*
X135113303Y-49458638D01*
X135140500Y-49286926D01*
X135140500Y-49113074D01*
X135471500Y-49113074D01*
X135471500Y-49286926D01*
X135478453Y-49330824D01*
X135498698Y-49458642D01*
X135552369Y-49623826D01*
X135552420Y-49623981D01*
X135631347Y-49778884D01*
X135631349Y-49778887D01*
X135733536Y-49919535D01*
X135856464Y-50042463D01*
X135901342Y-50075069D01*
X135997116Y-50144653D01*
X136152019Y-50223580D01*
X136317362Y-50277303D01*
X136489074Y-50304500D01*
X136489077Y-50304500D01*
X136662923Y-50304500D01*
X136662926Y-50304500D01*
X136834638Y-50277303D01*
X136999981Y-50223580D01*
X137154884Y-50144653D01*
X137295533Y-50042465D01*
X137418465Y-49919533D01*
X137520653Y-49778884D01*
X137599580Y-49623981D01*
X137653303Y-49458638D01*
X137680500Y-49286926D01*
X137680500Y-49113074D01*
X138011500Y-49113074D01*
X138011500Y-49286926D01*
X138018453Y-49330824D01*
X138038698Y-49458642D01*
X138092369Y-49623826D01*
X138092420Y-49623981D01*
X138171347Y-49778884D01*
X138171349Y-49778887D01*
X138273536Y-49919535D01*
X138396464Y-50042463D01*
X138441342Y-50075069D01*
X138537116Y-50144653D01*
X138692019Y-50223580D01*
X138857362Y-50277303D01*
X139029074Y-50304500D01*
X139029077Y-50304500D01*
X139202923Y-50304500D01*
X139202926Y-50304500D01*
X139374638Y-50277303D01*
X139539981Y-50223580D01*
X139694884Y-50144653D01*
X139835533Y-50042465D01*
X139958465Y-49919533D01*
X140060653Y-49778884D01*
X140139580Y-49623981D01*
X140193303Y-49458638D01*
X140220500Y-49286926D01*
X140220500Y-49113074D01*
X140551500Y-49113074D01*
X140551500Y-49286926D01*
X140558453Y-49330824D01*
X140578698Y-49458642D01*
X140632369Y-49623826D01*
X140632420Y-49623981D01*
X140711347Y-49778884D01*
X140711349Y-49778887D01*
X140813536Y-49919535D01*
X140936464Y-50042463D01*
X140981342Y-50075069D01*
X141077116Y-50144653D01*
X141232019Y-50223580D01*
X141397362Y-50277303D01*
X141569074Y-50304500D01*
X141569077Y-50304500D01*
X141742923Y-50304500D01*
X141742926Y-50304500D01*
X141914638Y-50277303D01*
X142079981Y-50223580D01*
X142234884Y-50144653D01*
X142375533Y-50042465D01*
X142498465Y-49919533D01*
X142600653Y-49778884D01*
X142679580Y-49623981D01*
X142733303Y-49458638D01*
X142760500Y-49286926D01*
X142760500Y-49113074D01*
X142733303Y-48941362D01*
X142679580Y-48776019D01*
X142600653Y-48621116D01*
X142504122Y-48488253D01*
X142498463Y-48480464D01*
X142375535Y-48357536D01*
X142330657Y-48324930D01*
X144615500Y-48324930D01*
X144615500Y-50075063D01*
X144615501Y-50075073D01*
X144630265Y-50149300D01*
X144686516Y-50233484D01*
X144770697Y-50289733D01*
X144770699Y-50289734D01*
X144844933Y-50304500D01*
X146595066Y-50304499D01*
X146595069Y-50304498D01*
X146595073Y-50304498D01*
X146644326Y-50294701D01*
X146669301Y-50289734D01*
X146753484Y-50233484D01*
X146809734Y-50149301D01*
X146824500Y-50075067D01*
X146824499Y-49113074D01*
X147155500Y-49113074D01*
X147155500Y-49286926D01*
X147162453Y-49330824D01*
X147182698Y-49458642D01*
X147236369Y-49623826D01*
X147236420Y-49623981D01*
X147315347Y-49778884D01*
X147315349Y-49778887D01*
X147417536Y-49919535D01*
X147540464Y-50042463D01*
X147585342Y-50075069D01*
X147681116Y-50144653D01*
X147836019Y-50223580D01*
X148001362Y-50277303D01*
X148173074Y-50304500D01*
X148173077Y-50304500D01*
X148346923Y-50304500D01*
X148346926Y-50304500D01*
X148518638Y-50277303D01*
X148683981Y-50223580D01*
X148838884Y-50144653D01*
X148979533Y-50042465D01*
X149102465Y-49919533D01*
X149204653Y-49778884D01*
X149283580Y-49623981D01*
X149337303Y-49458638D01*
X149364500Y-49286926D01*
X149364500Y-49113074D01*
X149695500Y-49113074D01*
X149695500Y-49286926D01*
X149702453Y-49330824D01*
X149722698Y-49458642D01*
X149776369Y-49623826D01*
X149776420Y-49623981D01*
X149855347Y-49778884D01*
X149855349Y-49778887D01*
X149957536Y-49919535D01*
X150080464Y-50042463D01*
X150125342Y-50075069D01*
X150221116Y-50144653D01*
X150376019Y-50223580D01*
X150541362Y-50277303D01*
X150713074Y-50304500D01*
X150713077Y-50304500D01*
X150886923Y-50304500D01*
X150886926Y-50304500D01*
X151058638Y-50277303D01*
X151223981Y-50223580D01*
X151378884Y-50144653D01*
X151519533Y-50042465D01*
X151642465Y-49919533D01*
X151744653Y-49778884D01*
X151823580Y-49623981D01*
X151877303Y-49458638D01*
X151904500Y-49286926D01*
X151904500Y-49113074D01*
X152235500Y-49113074D01*
X152235500Y-49286926D01*
X152242453Y-49330824D01*
X152262698Y-49458642D01*
X152316369Y-49623826D01*
X152316420Y-49623981D01*
X152395347Y-49778884D01*
X152395349Y-49778887D01*
X152497536Y-49919535D01*
X152620464Y-50042463D01*
X152665342Y-50075069D01*
X152761116Y-50144653D01*
X152916019Y-50223580D01*
X153081362Y-50277303D01*
X153253074Y-50304500D01*
X153253077Y-50304500D01*
X153426923Y-50304500D01*
X153426926Y-50304500D01*
X153598638Y-50277303D01*
X153763981Y-50223580D01*
X153918884Y-50144653D01*
X154059533Y-50042465D01*
X154182465Y-49919533D01*
X154284653Y-49778884D01*
X154363580Y-49623981D01*
X154417303Y-49458638D01*
X154444500Y-49286926D01*
X154444500Y-49113074D01*
X154775500Y-49113074D01*
X154775500Y-49286926D01*
X154782453Y-49330824D01*
X154802698Y-49458642D01*
X154856369Y-49623826D01*
X154856420Y-49623981D01*
X154935347Y-49778884D01*
X154935349Y-49778887D01*
X155037536Y-49919535D01*
X155160464Y-50042463D01*
X155205342Y-50075069D01*
X155301116Y-50144653D01*
X155456019Y-50223580D01*
X155621362Y-50277303D01*
X155793074Y-50304500D01*
X155793077Y-50304500D01*
X155966923Y-50304500D01*
X155966926Y-50304500D01*
X156138638Y-50277303D01*
X156303981Y-50223580D01*
X156458884Y-50144653D01*
X156599533Y-50042465D01*
X156722465Y-49919533D01*
X156824653Y-49778884D01*
X156903580Y-49623981D01*
X156957303Y-49458638D01*
X156984500Y-49286926D01*
X156984500Y-49113074D01*
X157315500Y-49113074D01*
X157315500Y-49286926D01*
X157322453Y-49330824D01*
X157342698Y-49458642D01*
X157396369Y-49623826D01*
X157396420Y-49623981D01*
X157475347Y-49778884D01*
X157475349Y-49778887D01*
X157577536Y-49919535D01*
X157700464Y-50042463D01*
X157745342Y-50075069D01*
X157841116Y-50144653D01*
X157996019Y-50223580D01*
X158161362Y-50277303D01*
X158333074Y-50304500D01*
X158333077Y-50304500D01*
X158506923Y-50304500D01*
X158506926Y-50304500D01*
X158678638Y-50277303D01*
X158843981Y-50223580D01*
X158998884Y-50144653D01*
X159139533Y-50042465D01*
X159262465Y-49919533D01*
X159364653Y-49778884D01*
X159443580Y-49623981D01*
X159497303Y-49458638D01*
X159524500Y-49286926D01*
X159524500Y-49113074D01*
X159855500Y-49113074D01*
X159855500Y-49286926D01*
X159862453Y-49330824D01*
X159882698Y-49458642D01*
X159936369Y-49623826D01*
X159936420Y-49623981D01*
X160015347Y-49778884D01*
X160015349Y-49778887D01*
X160117536Y-49919535D01*
X160240464Y-50042463D01*
X160285342Y-50075069D01*
X160381116Y-50144653D01*
X160536019Y-50223580D01*
X160701362Y-50277303D01*
X160873074Y-50304500D01*
X160873077Y-50304500D01*
X161046923Y-50304500D01*
X161046926Y-50304500D01*
X161218638Y-50277303D01*
X161383981Y-50223580D01*
X161538884Y-50144653D01*
X161679533Y-50042465D01*
X161802465Y-49919533D01*
X161904653Y-49778884D01*
X161983580Y-49623981D01*
X162037303Y-49458638D01*
X162064500Y-49286926D01*
X162064500Y-49113074D01*
X162395500Y-49113074D01*
X162395500Y-49286926D01*
X162402453Y-49330824D01*
X162422698Y-49458642D01*
X162476369Y-49623826D01*
X162476420Y-49623981D01*
X162555347Y-49778884D01*
X162555349Y-49778887D01*
X162657536Y-49919535D01*
X162780464Y-50042463D01*
X162825342Y-50075069D01*
X162921116Y-50144653D01*
X163076019Y-50223580D01*
X163241362Y-50277303D01*
X163413074Y-50304500D01*
X163413077Y-50304500D01*
X163586923Y-50304500D01*
X163586926Y-50304500D01*
X163758638Y-50277303D01*
X163923981Y-50223580D01*
X164078884Y-50144653D01*
X164219533Y-50042465D01*
X164342465Y-49919533D01*
X164444653Y-49778884D01*
X164523580Y-49623981D01*
X164577303Y-49458638D01*
X164604500Y-49286926D01*
X164604500Y-49113074D01*
X164577303Y-48941362D01*
X164523580Y-48776019D01*
X164444653Y-48621116D01*
X164348122Y-48488253D01*
X164342463Y-48480464D01*
X164219535Y-48357536D01*
X164078887Y-48255349D01*
X164078886Y-48255348D01*
X164078884Y-48255347D01*
X163923981Y-48176420D01*
X163923978Y-48176419D01*
X163923976Y-48176418D01*
X163758642Y-48122698D01*
X163758640Y-48122697D01*
X163758638Y-48122697D01*
X163586926Y-48095500D01*
X163413074Y-48095500D01*
X163241362Y-48122697D01*
X163241360Y-48122697D01*
X163241357Y-48122698D01*
X163076023Y-48176418D01*
X163076017Y-48176421D01*
X162921112Y-48255349D01*
X162780464Y-48357536D01*
X162657536Y-48480464D01*
X162555349Y-48621112D01*
X162476421Y-48776017D01*
X162476418Y-48776023D01*
X162422698Y-48941357D01*
X162422697Y-48941360D01*
X162422697Y-48941362D01*
X162395500Y-49113074D01*
X162064500Y-49113074D01*
X162037303Y-48941362D01*
X161983580Y-48776019D01*
X161904653Y-48621116D01*
X161808122Y-48488253D01*
X161802463Y-48480464D01*
X161679535Y-48357536D01*
X161538887Y-48255349D01*
X161538886Y-48255348D01*
X161538884Y-48255347D01*
X161383981Y-48176420D01*
X161383978Y-48176419D01*
X161383976Y-48176418D01*
X161218642Y-48122698D01*
X161218640Y-48122697D01*
X161218638Y-48122697D01*
X161046926Y-48095500D01*
X160873074Y-48095500D01*
X160701362Y-48122697D01*
X160701360Y-48122697D01*
X160701357Y-48122698D01*
X160536023Y-48176418D01*
X160536017Y-48176421D01*
X160381112Y-48255349D01*
X160240464Y-48357536D01*
X160117536Y-48480464D01*
X160015349Y-48621112D01*
X159936421Y-48776017D01*
X159936418Y-48776023D01*
X159882698Y-48941357D01*
X159882697Y-48941360D01*
X159882697Y-48941362D01*
X159855500Y-49113074D01*
X159524500Y-49113074D01*
X159497303Y-48941362D01*
X159443580Y-48776019D01*
X159364653Y-48621116D01*
X159268122Y-48488253D01*
X159262463Y-48480464D01*
X159139535Y-48357536D01*
X158998887Y-48255349D01*
X158998886Y-48255348D01*
X158998884Y-48255347D01*
X158843981Y-48176420D01*
X158843978Y-48176419D01*
X158843976Y-48176418D01*
X158678642Y-48122698D01*
X158678640Y-48122697D01*
X158678638Y-48122697D01*
X158506926Y-48095500D01*
X158333074Y-48095500D01*
X158161362Y-48122697D01*
X158161360Y-48122697D01*
X158161357Y-48122698D01*
X157996023Y-48176418D01*
X157996017Y-48176421D01*
X157841112Y-48255349D01*
X157700464Y-48357536D01*
X157577536Y-48480464D01*
X157475349Y-48621112D01*
X157396421Y-48776017D01*
X157396418Y-48776023D01*
X157342698Y-48941357D01*
X157342697Y-48941360D01*
X157342697Y-48941362D01*
X157315500Y-49113074D01*
X156984500Y-49113074D01*
X156957303Y-48941362D01*
X156903580Y-48776019D01*
X156824653Y-48621116D01*
X156728122Y-48488253D01*
X156722463Y-48480464D01*
X156599535Y-48357536D01*
X156458887Y-48255349D01*
X156458886Y-48255348D01*
X156458884Y-48255347D01*
X156303981Y-48176420D01*
X156303978Y-48176419D01*
X156303976Y-48176418D01*
X156138642Y-48122698D01*
X156138640Y-48122697D01*
X156138638Y-48122697D01*
X155966926Y-48095500D01*
X155793074Y-48095500D01*
X155621362Y-48122697D01*
X155621360Y-48122697D01*
X155621357Y-48122698D01*
X155456023Y-48176418D01*
X155456017Y-48176421D01*
X155301112Y-48255349D01*
X155160464Y-48357536D01*
X155037536Y-48480464D01*
X154935349Y-48621112D01*
X154856421Y-48776017D01*
X154856418Y-48776023D01*
X154802698Y-48941357D01*
X154802697Y-48941360D01*
X154802697Y-48941362D01*
X154775500Y-49113074D01*
X154444500Y-49113074D01*
X154417303Y-48941362D01*
X154363580Y-48776019D01*
X154284653Y-48621116D01*
X154188122Y-48488253D01*
X154182463Y-48480464D01*
X154059535Y-48357536D01*
X153918887Y-48255349D01*
X153918886Y-48255348D01*
X153918884Y-48255347D01*
X153763981Y-48176420D01*
X153763978Y-48176419D01*
X153763976Y-48176418D01*
X153598642Y-48122698D01*
X153598640Y-48122697D01*
X153598638Y-48122697D01*
X153426926Y-48095500D01*
X153253074Y-48095500D01*
X153081362Y-48122697D01*
X153081360Y-48122697D01*
X153081357Y-48122698D01*
X152916023Y-48176418D01*
X152916017Y-48176421D01*
X152761112Y-48255349D01*
X152620464Y-48357536D01*
X152497536Y-48480464D01*
X152395349Y-48621112D01*
X152316421Y-48776017D01*
X152316418Y-48776023D01*
X152262698Y-48941357D01*
X152262697Y-48941360D01*
X152262697Y-48941362D01*
X152235500Y-49113074D01*
X151904500Y-49113074D01*
X151877303Y-48941362D01*
X151823580Y-48776019D01*
X151744653Y-48621116D01*
X151648122Y-48488253D01*
X151642463Y-48480464D01*
X151519535Y-48357536D01*
X151378887Y-48255349D01*
X151378886Y-48255348D01*
X151378884Y-48255347D01*
X151223981Y-48176420D01*
X151223978Y-48176419D01*
X151223976Y-48176418D01*
X151058642Y-48122698D01*
X151058640Y-48122697D01*
X151058638Y-48122697D01*
X150886926Y-48095500D01*
X150713074Y-48095500D01*
X150541362Y-48122697D01*
X150541360Y-48122697D01*
X150541357Y-48122698D01*
X150376023Y-48176418D01*
X150376017Y-48176421D01*
X150221112Y-48255349D01*
X150080464Y-48357536D01*
X149957536Y-48480464D01*
X149855349Y-48621112D01*
X149776421Y-48776017D01*
X149776418Y-48776023D01*
X149722698Y-48941357D01*
X149722697Y-48941360D01*
X149722697Y-48941362D01*
X149695500Y-49113074D01*
X149364500Y-49113074D01*
X149337303Y-48941362D01*
X149283580Y-48776019D01*
X149204653Y-48621116D01*
X149108122Y-48488253D01*
X149102463Y-48480464D01*
X148979535Y-48357536D01*
X148838887Y-48255349D01*
X148838886Y-48255348D01*
X148838884Y-48255347D01*
X148683981Y-48176420D01*
X148683978Y-48176419D01*
X148683976Y-48176418D01*
X148518642Y-48122698D01*
X148518640Y-48122697D01*
X148518638Y-48122697D01*
X148346926Y-48095500D01*
X148173074Y-48095500D01*
X148001362Y-48122697D01*
X148001360Y-48122697D01*
X148001357Y-48122698D01*
X147836023Y-48176418D01*
X147836017Y-48176421D01*
X147681112Y-48255349D01*
X147540464Y-48357536D01*
X147417536Y-48480464D01*
X147315349Y-48621112D01*
X147236421Y-48776017D01*
X147236418Y-48776023D01*
X147182698Y-48941357D01*
X147182697Y-48941360D01*
X147182697Y-48941362D01*
X147155500Y-49113074D01*
X146824499Y-49113074D01*
X146824499Y-48324934D01*
X146824498Y-48324930D01*
X146824498Y-48324926D01*
X146809734Y-48250699D01*
X146760102Y-48176421D01*
X146753484Y-48166516D01*
X146687907Y-48122698D01*
X146669302Y-48110266D01*
X146595067Y-48095500D01*
X144844936Y-48095500D01*
X144844926Y-48095501D01*
X144770699Y-48110265D01*
X144686515Y-48166516D01*
X144630266Y-48250697D01*
X144615500Y-48324930D01*
X142330657Y-48324930D01*
X142234887Y-48255349D01*
X142234886Y-48255348D01*
X142234884Y-48255347D01*
X142079981Y-48176420D01*
X142079978Y-48176419D01*
X142079976Y-48176418D01*
X141914642Y-48122698D01*
X141914640Y-48122697D01*
X141914638Y-48122697D01*
X141742926Y-48095500D01*
X141569074Y-48095500D01*
X141397362Y-48122697D01*
X141397360Y-48122697D01*
X141397357Y-48122698D01*
X141232023Y-48176418D01*
X141232017Y-48176421D01*
X141077112Y-48255349D01*
X140936464Y-48357536D01*
X140813536Y-48480464D01*
X140711349Y-48621112D01*
X140632421Y-48776017D01*
X140632418Y-48776023D01*
X140578698Y-48941357D01*
X140578697Y-48941360D01*
X140578697Y-48941362D01*
X140551500Y-49113074D01*
X140220500Y-49113074D01*
X140193303Y-48941362D01*
X140139580Y-48776019D01*
X140060653Y-48621116D01*
X139964122Y-48488253D01*
X139958463Y-48480464D01*
X139835535Y-48357536D01*
X139694887Y-48255349D01*
X139694886Y-48255348D01*
X139694884Y-48255347D01*
X139539981Y-48176420D01*
X139539978Y-48176419D01*
X139539976Y-48176418D01*
X139374642Y-48122698D01*
X139374640Y-48122697D01*
X139374638Y-48122697D01*
X139202926Y-48095500D01*
X139029074Y-48095500D01*
X138857362Y-48122697D01*
X138857360Y-48122697D01*
X138857357Y-48122698D01*
X138692023Y-48176418D01*
X138692017Y-48176421D01*
X138537112Y-48255349D01*
X138396464Y-48357536D01*
X138273536Y-48480464D01*
X138171349Y-48621112D01*
X138092421Y-48776017D01*
X138092418Y-48776023D01*
X138038698Y-48941357D01*
X138038697Y-48941360D01*
X138038697Y-48941362D01*
X138011500Y-49113074D01*
X137680500Y-49113074D01*
X137653303Y-48941362D01*
X137599580Y-48776019D01*
X137520653Y-48621116D01*
X137424122Y-48488253D01*
X137418463Y-48480464D01*
X137295535Y-48357536D01*
X137154887Y-48255349D01*
X137154886Y-48255348D01*
X137154884Y-48255347D01*
X136999981Y-48176420D01*
X136999978Y-48176419D01*
X136999976Y-48176418D01*
X136834642Y-48122698D01*
X136834640Y-48122697D01*
X136834638Y-48122697D01*
X136662926Y-48095500D01*
X136489074Y-48095500D01*
X136317362Y-48122697D01*
X136317360Y-48122697D01*
X136317357Y-48122698D01*
X136152023Y-48176418D01*
X136152017Y-48176421D01*
X135997112Y-48255349D01*
X135856464Y-48357536D01*
X135733536Y-48480464D01*
X135631349Y-48621112D01*
X135552421Y-48776017D01*
X135552418Y-48776023D01*
X135498698Y-48941357D01*
X135498697Y-48941360D01*
X135498697Y-48941362D01*
X135471500Y-49113074D01*
X135140500Y-49113074D01*
X135113303Y-48941362D01*
X135059580Y-48776019D01*
X134980653Y-48621116D01*
X134884122Y-48488253D01*
X134878463Y-48480464D01*
X134755535Y-48357536D01*
X134614887Y-48255349D01*
X134614886Y-48255348D01*
X134614884Y-48255347D01*
X134459981Y-48176420D01*
X134459978Y-48176419D01*
X134459976Y-48176418D01*
X134294642Y-48122698D01*
X134294640Y-48122697D01*
X134294638Y-48122697D01*
X134122926Y-48095500D01*
X133949074Y-48095500D01*
X133777362Y-48122697D01*
X133777360Y-48122697D01*
X133777357Y-48122698D01*
X133612023Y-48176418D01*
X133612017Y-48176421D01*
X133457112Y-48255349D01*
X133316464Y-48357536D01*
X133193536Y-48480464D01*
X133091349Y-48621112D01*
X133012421Y-48776017D01*
X133012418Y-48776023D01*
X132958698Y-48941357D01*
X132958697Y-48941360D01*
X132958697Y-48941362D01*
X132931500Y-49113074D01*
X132600500Y-49113074D01*
X132573303Y-48941362D01*
X132519580Y-48776019D01*
X132440653Y-48621116D01*
X132344122Y-48488253D01*
X132338463Y-48480464D01*
X132215535Y-48357536D01*
X132074887Y-48255349D01*
X132074886Y-48255348D01*
X132074884Y-48255347D01*
X131919981Y-48176420D01*
X131919978Y-48176419D01*
X131919976Y-48176418D01*
X131754642Y-48122698D01*
X131754640Y-48122697D01*
X131754638Y-48122697D01*
X131582926Y-48095500D01*
X131409074Y-48095500D01*
X131237362Y-48122697D01*
X131237360Y-48122697D01*
X131237357Y-48122698D01*
X131072023Y-48176418D01*
X131072017Y-48176421D01*
X130917112Y-48255349D01*
X130776464Y-48357536D01*
X130653536Y-48480464D01*
X130551349Y-48621112D01*
X130472421Y-48776017D01*
X130472418Y-48776023D01*
X130418698Y-48941357D01*
X130418697Y-48941360D01*
X130418697Y-48941362D01*
X130391500Y-49113074D01*
X130060500Y-49113074D01*
X130033303Y-48941362D01*
X129979580Y-48776019D01*
X129900653Y-48621116D01*
X129804122Y-48488253D01*
X129798463Y-48480464D01*
X129675535Y-48357536D01*
X129534887Y-48255349D01*
X129534886Y-48255348D01*
X129534884Y-48255347D01*
X129379981Y-48176420D01*
X129379978Y-48176419D01*
X129379976Y-48176418D01*
X129214642Y-48122698D01*
X129214640Y-48122697D01*
X129214638Y-48122697D01*
X129042926Y-48095500D01*
X128869074Y-48095500D01*
X128697362Y-48122697D01*
X128697360Y-48122697D01*
X128697357Y-48122698D01*
X128532023Y-48176418D01*
X128532017Y-48176421D01*
X128377112Y-48255349D01*
X128236464Y-48357536D01*
X128113536Y-48480464D01*
X128011348Y-48621113D01*
X127932341Y-48776174D01*
X127883592Y-48827789D01*
X127814678Y-48844855D01*
X127747476Y-48821954D01*
X127703324Y-48766356D01*
X127700241Y-48757908D01*
X127674507Y-48678709D01*
X127674506Y-48678707D01*
X127577464Y-48488251D01*
X127577463Y-48488249D01*
X127539378Y-48435831D01*
X126900157Y-49075051D01*
X126881925Y-49007007D01*
X126816099Y-48892993D01*
X126723007Y-48799901D01*
X126608993Y-48734075D01*
X126540947Y-48715841D01*
X127180168Y-48076621D01*
X127180167Y-48076620D01*
X127127750Y-48038536D01*
X127127748Y-48038535D01*
X126937292Y-47941493D01*
X126937286Y-47941490D01*
X126734003Y-47875440D01*
X126522874Y-47842000D01*
X126309126Y-47842000D01*
X126097996Y-47875440D01*
X125894713Y-47941490D01*
X125894707Y-47941493D01*
X125704253Y-48038534D01*
X125651831Y-48076621D01*
X125651831Y-48076622D01*
X126291051Y-48715842D01*
X126223007Y-48734075D01*
X126108993Y-48799901D01*
X126015901Y-48892993D01*
X125950075Y-49007007D01*
X125931842Y-49075051D01*
X125292622Y-48435831D01*
X125292621Y-48435831D01*
X125254534Y-48488253D01*
X125157493Y-48678707D01*
X125131758Y-48757909D01*
X125091683Y-48816514D01*
X125026286Y-48844150D01*
X124956330Y-48832042D01*
X124904024Y-48784036D01*
X124899658Y-48776174D01*
X124899581Y-48776023D01*
X124899580Y-48776019D01*
X124820653Y-48621116D01*
X124724122Y-48488253D01*
X124718463Y-48480464D01*
X124595535Y-48357536D01*
X124454884Y-48255347D01*
X124418699Y-48236910D01*
X124299981Y-48176420D01*
X124299978Y-48176419D01*
X124299976Y-48176418D01*
X124134642Y-48122698D01*
X124134640Y-48122697D01*
X124134638Y-48122697D01*
X123962926Y-48095500D01*
X123789074Y-48095500D01*
X123617362Y-48122697D01*
X123617360Y-48122697D01*
X123617357Y-48122698D01*
X123452023Y-48176418D01*
X123452017Y-48176421D01*
X123297112Y-48255349D01*
X123156464Y-48357536D01*
X123033536Y-48480464D01*
X122931349Y-48621112D01*
X122852421Y-48776017D01*
X122852418Y-48776023D01*
X122798698Y-48941357D01*
X122798697Y-48941360D01*
X122798697Y-48941362D01*
X122771500Y-49113074D01*
X122440500Y-49113074D01*
X122413303Y-48941362D01*
X122359580Y-48776019D01*
X122280653Y-48621116D01*
X122184122Y-48488253D01*
X122178463Y-48480464D01*
X122055535Y-48357536D01*
X121914887Y-48255349D01*
X121914886Y-48255348D01*
X121914884Y-48255347D01*
X121759981Y-48176420D01*
X121759978Y-48176419D01*
X121759976Y-48176418D01*
X121594642Y-48122698D01*
X121594640Y-48122697D01*
X121594638Y-48122697D01*
X121422926Y-48095500D01*
X121249074Y-48095500D01*
X121077362Y-48122697D01*
X121077360Y-48122697D01*
X121077357Y-48122698D01*
X120912023Y-48176418D01*
X120912017Y-48176421D01*
X120757112Y-48255349D01*
X120616464Y-48357536D01*
X120493536Y-48480464D01*
X120391349Y-48621112D01*
X120312421Y-48776017D01*
X120312418Y-48776023D01*
X120258698Y-48941357D01*
X120258697Y-48941360D01*
X120258697Y-48941362D01*
X120231500Y-49113074D01*
X119900499Y-49113074D01*
X119900499Y-48324934D01*
X119900498Y-48324930D01*
X119900498Y-48324926D01*
X119885734Y-48250699D01*
X119836102Y-48176421D01*
X119829484Y-48166516D01*
X119763907Y-48122698D01*
X119745302Y-48110266D01*
X119671067Y-48095500D01*
X117920936Y-48095500D01*
X117920926Y-48095501D01*
X117846699Y-48110265D01*
X117762515Y-48166516D01*
X117706266Y-48250697D01*
X117691500Y-48324930D01*
X116876170Y-48324930D01*
X116785271Y-48167487D01*
X116785267Y-48167481D01*
X116637285Y-47974628D01*
X116637266Y-47974607D01*
X116465392Y-47802733D01*
X116465371Y-47802714D01*
X116272518Y-47654732D01*
X116272512Y-47654728D01*
X116061996Y-47533187D01*
X116061988Y-47533183D01*
X116061984Y-47533181D01*
X115837388Y-47440150D01*
X115602571Y-47377231D01*
X115602569Y-47377230D01*
X115602563Y-47377229D01*
X115361552Y-47345500D01*
X115361550Y-47345500D01*
X115118450Y-47345500D01*
X115118447Y-47345500D01*
X114877436Y-47377229D01*
X114642612Y-47440150D01*
X114418014Y-47533182D01*
X114418003Y-47533187D01*
X114207487Y-47654728D01*
X114207481Y-47654732D01*
X114014628Y-47802714D01*
X114014607Y-47802733D01*
X113842733Y-47974607D01*
X113842714Y-47974628D01*
X113694732Y-48167481D01*
X113694728Y-48167487D01*
X113573187Y-48378003D01*
X113573182Y-48378014D01*
X113480150Y-48602612D01*
X113417229Y-48837436D01*
X113385500Y-49078447D01*
X100254500Y-49078447D01*
X100254500Y-47429077D01*
X100255292Y-47414970D01*
X100259544Y-47377229D01*
X100265635Y-47323169D01*
X100271910Y-47295677D01*
X100300069Y-47215202D01*
X100312310Y-47189786D01*
X100357670Y-47117596D01*
X100375258Y-47095541D01*
X100435541Y-47035258D01*
X100457596Y-47017670D01*
X100529786Y-46972310D01*
X100555202Y-46960069D01*
X100635677Y-46931910D01*
X100663171Y-46925635D01*
X100738782Y-46917115D01*
X100754972Y-46915292D01*
X100769078Y-46914500D01*
X100806875Y-46914500D01*
X163342392Y-46914500D01*
X163410513Y-46934502D01*
G37*
G04 #@! TD.AperFunction*
M02*
