G04 #@! TF.GenerationSoftware,KiCad,Pcbnew,9.0.7-9.0.7~ubuntu24.04.1*
G04 #@! TF.CreationDate,2026-03-19T15:46:38-06:00*
G04 #@! TF.ProjectId,ard-axlesim,6172642d-6178-46c6-9573-696d2e6b6963,rev?*
G04 #@! TF.SameCoordinates,Original*
G04 #@! TF.FileFunction,Paste,Top*
G04 #@! TF.FilePolarity,Positive*
%FSLAX46Y46*%
G04 Gerber Fmt 4.6, Leading zero omitted, Abs format (unit mm)*
G04 Created by KiCad (PCBNEW 9.0.7-9.0.7~ubuntu24.04.1) date 2026-03-19 15:46:38*
%MOMM*%
%LPD*%
G01*
G04 APERTURE LIST*
%ADD10R,1.117600X2.438400*%
%ADD11R,2.489200X1.193800*%
G04 APERTURE END LIST*
G36*
G01*
X125118000Y-84575000D02*
X125118000Y-83675000D01*
G75*
G02*
X125368000Y-83425000I250000J0D01*
G01*
X125893000Y-83425000D01*
G75*
G02*
X126143000Y-83675000I0J-250000D01*
G01*
X126143000Y-84575000D01*
G75*
G02*
X125893000Y-84825000I-250000J0D01*
G01*
X125368000Y-84825000D01*
G75*
G02*
X125118000Y-84575000I0J250000D01*
G01*
G37*
G36*
G01*
X126943000Y-84575000D02*
X126943000Y-83675000D01*
G75*
G02*
X127193000Y-83425000I250000J0D01*
G01*
X127718000Y-83425000D01*
G75*
G02*
X127968000Y-83675000I0J-250000D01*
G01*
X127968000Y-84575000D01*
G75*
G02*
X127718000Y-84825000I-250000J0D01*
G01*
X127193000Y-84825000D01*
G75*
G02*
X126943000Y-84575000I0J250000D01*
G01*
G37*
G36*
G01*
X150840100Y-90078000D02*
X151944100Y-90078000D01*
G75*
G02*
X152082100Y-90216000I0J-138000D01*
G01*
X152082100Y-92040000D01*
G75*
G02*
X151944100Y-92178000I-138000J0D01*
G01*
X150840100Y-92178000D01*
G75*
G02*
X150702100Y-92040000I0J138000D01*
G01*
X150702100Y-90216000D01*
G75*
G02*
X150840100Y-90078000I138000J0D01*
G01*
G37*
G36*
G01*
X150840100Y-80978000D02*
X151944100Y-80978000D01*
G75*
G02*
X152082100Y-81116000I0J-138000D01*
G01*
X152082100Y-82940000D01*
G75*
G02*
X151944100Y-83078000I-138000J0D01*
G01*
X150840100Y-83078000D01*
G75*
G02*
X150702100Y-82940000I0J138000D01*
G01*
X150702100Y-81116000D01*
G75*
G02*
X150840100Y-80978000I138000J0D01*
G01*
G37*
G36*
G01*
X155320100Y-90078000D02*
X156424100Y-90078000D01*
G75*
G02*
X156562100Y-90216000I0J-138000D01*
G01*
X156562100Y-92040000D01*
G75*
G02*
X156424100Y-92178000I-138000J0D01*
G01*
X155320100Y-92178000D01*
G75*
G02*
X155182100Y-92040000I0J138000D01*
G01*
X155182100Y-90216000D01*
G75*
G02*
X155320100Y-90078000I138000J0D01*
G01*
G37*
G36*
G01*
X155320100Y-80978000D02*
X156424100Y-80978000D01*
G75*
G02*
X156562100Y-81116000I0J-138000D01*
G01*
X156562100Y-82940000D01*
G75*
G02*
X156424100Y-83078000I-138000J0D01*
G01*
X155320100Y-83078000D01*
G75*
G02*
X155182100Y-82940000I0J138000D01*
G01*
X155182100Y-81116000D01*
G75*
G02*
X155320100Y-80978000I138000J0D01*
G01*
G37*
G36*
G01*
X158687000Y-89426000D02*
X158687000Y-88476000D01*
G75*
G02*
X158937000Y-88226000I250000J0D01*
G01*
X159437000Y-88226000D01*
G75*
G02*
X159687000Y-88476000I0J-250000D01*
G01*
X159687000Y-89426000D01*
G75*
G02*
X159437000Y-89676000I-250000J0D01*
G01*
X158937000Y-89676000D01*
G75*
G02*
X158687000Y-89426000I0J250000D01*
G01*
G37*
G36*
G01*
X160587000Y-89426000D02*
X160587000Y-88476000D01*
G75*
G02*
X160837000Y-88226000I250000J0D01*
G01*
X161337000Y-88226000D01*
G75*
G02*
X161587000Y-88476000I0J-250000D01*
G01*
X161587000Y-89426000D01*
G75*
G02*
X161337000Y-89676000I-250000J0D01*
G01*
X160837000Y-89676000D01*
G75*
G02*
X160587000Y-89426000I0J250000D01*
G01*
G37*
G36*
G01*
X125118000Y-81400000D02*
X125118000Y-80500000D01*
G75*
G02*
X125368000Y-80250000I250000J0D01*
G01*
X125893000Y-80250000D01*
G75*
G02*
X126143000Y-80500000I0J-250000D01*
G01*
X126143000Y-81400000D01*
G75*
G02*
X125893000Y-81650000I-250000J0D01*
G01*
X125368000Y-81650000D01*
G75*
G02*
X125118000Y-81400000I0J250000D01*
G01*
G37*
G36*
G01*
X126943000Y-81400000D02*
X126943000Y-80500000D01*
G75*
G02*
X127193000Y-80250000I250000J0D01*
G01*
X127718000Y-80250000D01*
G75*
G02*
X127968000Y-80500000I0J-250000D01*
G01*
X127968000Y-81400000D01*
G75*
G02*
X127718000Y-81650000I-250000J0D01*
G01*
X127193000Y-81650000D01*
G75*
G02*
X126943000Y-81400000I0J250000D01*
G01*
G37*
G36*
G01*
X125118000Y-62350000D02*
X125118000Y-61450000D01*
G75*
G02*
X125368000Y-61200000I250000J0D01*
G01*
X125893000Y-61200000D01*
G75*
G02*
X126143000Y-61450000I0J-250000D01*
G01*
X126143000Y-62350000D01*
G75*
G02*
X125893000Y-62600000I-250000J0D01*
G01*
X125368000Y-62600000D01*
G75*
G02*
X125118000Y-62350000I0J250000D01*
G01*
G37*
G36*
G01*
X126943000Y-62350000D02*
X126943000Y-61450000D01*
G75*
G02*
X127193000Y-61200000I250000J0D01*
G01*
X127718000Y-61200000D01*
G75*
G02*
X127968000Y-61450000I0J-250000D01*
G01*
X127968000Y-62350000D01*
G75*
G02*
X127718000Y-62600000I-250000J0D01*
G01*
X127193000Y-62600000D01*
G75*
G02*
X126943000Y-62350000I0J250000D01*
G01*
G37*
D10*
X142418000Y-67729300D03*
X144958000Y-67729300D03*
X147498000Y-67729300D03*
X150038000Y-67729300D03*
X152578000Y-67729300D03*
X152578000Y-59118700D03*
X150038000Y-59118700D03*
X147498000Y-59118700D03*
X144958000Y-59118700D03*
X142418000Y-59118700D03*
G36*
G01*
X163649000Y-74749000D02*
X162399000Y-74749000D01*
G75*
G02*
X162249000Y-74599000I0J150000D01*
G01*
X162249000Y-74299000D01*
G75*
G02*
X162399000Y-74149000I150000J0D01*
G01*
X163649000Y-74149000D01*
G75*
G02*
X163799000Y-74299000I0J-150000D01*
G01*
X163799000Y-74599000D01*
G75*
G02*
X163649000Y-74749000I-150000J0D01*
G01*
G37*
G36*
G01*
X163649000Y-73749000D02*
X162399000Y-73749000D01*
G75*
G02*
X162249000Y-73599000I0J150000D01*
G01*
X162249000Y-73299000D01*
G75*
G02*
X162399000Y-73149000I150000J0D01*
G01*
X163649000Y-73149000D01*
G75*
G02*
X163799000Y-73299000I0J-150000D01*
G01*
X163799000Y-73599000D01*
G75*
G02*
X163649000Y-73749000I-150000J0D01*
G01*
G37*
G36*
G01*
X163649000Y-72749000D02*
X162399000Y-72749000D01*
G75*
G02*
X162249000Y-72599000I0J150000D01*
G01*
X162249000Y-72299000D01*
G75*
G02*
X162399000Y-72149000I150000J0D01*
G01*
X163649000Y-72149000D01*
G75*
G02*
X163799000Y-72299000I0J-150000D01*
G01*
X163799000Y-72599000D01*
G75*
G02*
X163649000Y-72749000I-150000J0D01*
G01*
G37*
G36*
G01*
X163649000Y-71749000D02*
X162399000Y-71749000D01*
G75*
G02*
X162249000Y-71599000I0J150000D01*
G01*
X162249000Y-71299000D01*
G75*
G02*
X162399000Y-71149000I150000J0D01*
G01*
X163649000Y-71149000D01*
G75*
G02*
X163799000Y-71299000I0J-150000D01*
G01*
X163799000Y-71599000D01*
G75*
G02*
X163649000Y-71749000I-150000J0D01*
G01*
G37*
G36*
G01*
X167549000Y-76349000D02*
X166249000Y-76349000D01*
G75*
G02*
X165999000Y-76099000I0J250000D01*
G01*
X165999000Y-75399000D01*
G75*
G02*
X166249000Y-75149000I250000J0D01*
G01*
X167549000Y-75149000D01*
G75*
G02*
X167799000Y-75399000I0J-250000D01*
G01*
X167799000Y-76099000D01*
G75*
G02*
X167549000Y-76349000I-250000J0D01*
G01*
G37*
G36*
G01*
X167549000Y-70749000D02*
X166249000Y-70749000D01*
G75*
G02*
X165999000Y-70499000I0J250000D01*
G01*
X165999000Y-69799000D01*
G75*
G02*
X166249000Y-69549000I250000J0D01*
G01*
X167549000Y-69549000D01*
G75*
G02*
X167799000Y-69799000I0J-250000D01*
G01*
X167799000Y-70499000D01*
G75*
G02*
X167549000Y-70749000I-250000J0D01*
G01*
G37*
G36*
G01*
X125118000Y-68700000D02*
X125118000Y-67800000D01*
G75*
G02*
X125368000Y-67550000I250000J0D01*
G01*
X125893000Y-67550000D01*
G75*
G02*
X126143000Y-67800000I0J-250000D01*
G01*
X126143000Y-68700000D01*
G75*
G02*
X125893000Y-68950000I-250000J0D01*
G01*
X125368000Y-68950000D01*
G75*
G02*
X125118000Y-68700000I0J250000D01*
G01*
G37*
G36*
G01*
X126943000Y-68700000D02*
X126943000Y-67800000D01*
G75*
G02*
X127193000Y-67550000I250000J0D01*
G01*
X127718000Y-67550000D01*
G75*
G02*
X127968000Y-67800000I0J-250000D01*
G01*
X127968000Y-68700000D01*
G75*
G02*
X127718000Y-68950000I-250000J0D01*
G01*
X127193000Y-68950000D01*
G75*
G02*
X126943000Y-68700000I0J250000D01*
G01*
G37*
G36*
G01*
X125118000Y-78225000D02*
X125118000Y-77325000D01*
G75*
G02*
X125368000Y-77075000I250000J0D01*
G01*
X125893000Y-77075000D01*
G75*
G02*
X126143000Y-77325000I0J-250000D01*
G01*
X126143000Y-78225000D01*
G75*
G02*
X125893000Y-78475000I-250000J0D01*
G01*
X125368000Y-78475000D01*
G75*
G02*
X125118000Y-78225000I0J250000D01*
G01*
G37*
G36*
G01*
X126943000Y-78225000D02*
X126943000Y-77325000D01*
G75*
G02*
X127193000Y-77075000I250000J0D01*
G01*
X127718000Y-77075000D01*
G75*
G02*
X127968000Y-77325000I0J-250000D01*
G01*
X127968000Y-78225000D01*
G75*
G02*
X127718000Y-78475000I-250000J0D01*
G01*
X127193000Y-78475000D01*
G75*
G02*
X126943000Y-78225000I0J250000D01*
G01*
G37*
G36*
G01*
X163649000Y-85544000D02*
X162399000Y-85544000D01*
G75*
G02*
X162249000Y-85394000I0J150000D01*
G01*
X162249000Y-85094000D01*
G75*
G02*
X162399000Y-84944000I150000J0D01*
G01*
X163649000Y-84944000D01*
G75*
G02*
X163799000Y-85094000I0J-150000D01*
G01*
X163799000Y-85394000D01*
G75*
G02*
X163649000Y-85544000I-150000J0D01*
G01*
G37*
G36*
G01*
X163649000Y-84544000D02*
X162399000Y-84544000D01*
G75*
G02*
X162249000Y-84394000I0J150000D01*
G01*
X162249000Y-84094000D01*
G75*
G02*
X162399000Y-83944000I150000J0D01*
G01*
X163649000Y-83944000D01*
G75*
G02*
X163799000Y-84094000I0J-150000D01*
G01*
X163799000Y-84394000D01*
G75*
G02*
X163649000Y-84544000I-150000J0D01*
G01*
G37*
G36*
G01*
X163649000Y-83544000D02*
X162399000Y-83544000D01*
G75*
G02*
X162249000Y-83394000I0J150000D01*
G01*
X162249000Y-83094000D01*
G75*
G02*
X162399000Y-82944000I150000J0D01*
G01*
X163649000Y-82944000D01*
G75*
G02*
X163799000Y-83094000I0J-150000D01*
G01*
X163799000Y-83394000D01*
G75*
G02*
X163649000Y-83544000I-150000J0D01*
G01*
G37*
G36*
G01*
X163649000Y-82544000D02*
X162399000Y-82544000D01*
G75*
G02*
X162249000Y-82394000I0J150000D01*
G01*
X162249000Y-82094000D01*
G75*
G02*
X162399000Y-81944000I150000J0D01*
G01*
X163649000Y-81944000D01*
G75*
G02*
X163799000Y-82094000I0J-150000D01*
G01*
X163799000Y-82394000D01*
G75*
G02*
X163649000Y-82544000I-150000J0D01*
G01*
G37*
G36*
G01*
X167549000Y-87144000D02*
X166249000Y-87144000D01*
G75*
G02*
X165999000Y-86894000I0J250000D01*
G01*
X165999000Y-86194000D01*
G75*
G02*
X166249000Y-85944000I250000J0D01*
G01*
X167549000Y-85944000D01*
G75*
G02*
X167799000Y-86194000I0J-250000D01*
G01*
X167799000Y-86894000D01*
G75*
G02*
X167549000Y-87144000I-250000J0D01*
G01*
G37*
G36*
G01*
X167549000Y-81544000D02*
X166249000Y-81544000D01*
G75*
G02*
X165999000Y-81294000I0J250000D01*
G01*
X165999000Y-80594000D01*
G75*
G02*
X166249000Y-80344000I250000J0D01*
G01*
X167549000Y-80344000D01*
G75*
G02*
X167799000Y-80594000I0J-250000D01*
G01*
X167799000Y-81294000D01*
G75*
G02*
X167549000Y-81544000I-250000J0D01*
G01*
G37*
G36*
G01*
X122913000Y-61425000D02*
X122913000Y-62375000D01*
G75*
G02*
X122663000Y-62625000I-250000J0D01*
G01*
X122163000Y-62625000D01*
G75*
G02*
X121913000Y-62375000I0J250000D01*
G01*
X121913000Y-61425000D01*
G75*
G02*
X122163000Y-61175000I250000J0D01*
G01*
X122663000Y-61175000D01*
G75*
G02*
X122913000Y-61425000I0J-250000D01*
G01*
G37*
G36*
G01*
X121013000Y-61425000D02*
X121013000Y-62375000D01*
G75*
G02*
X120763000Y-62625000I-250000J0D01*
G01*
X120263000Y-62625000D01*
G75*
G02*
X120013000Y-62375000I0J250000D01*
G01*
X120013000Y-61425000D01*
G75*
G02*
X120263000Y-61175000I250000J0D01*
G01*
X120763000Y-61175000D01*
G75*
G02*
X121013000Y-61425000I0J-250000D01*
G01*
G37*
G36*
G01*
X130023000Y-54755000D02*
X130023000Y-54445000D01*
G75*
G02*
X130178000Y-54290000I155000J0D01*
G01*
X130568000Y-54290000D01*
G75*
G02*
X130723000Y-54445000I0J-155000D01*
G01*
X130723000Y-54755000D01*
G75*
G02*
X130568000Y-54910000I-155000J0D01*
G01*
X130178000Y-54910000D01*
G75*
G02*
X130023000Y-54755000I0J155000D01*
G01*
G37*
G36*
G01*
X130023000Y-55705000D02*
X130023000Y-55395000D01*
G75*
G02*
X130178000Y-55240000I155000J0D01*
G01*
X130568000Y-55240000D01*
G75*
G02*
X130723000Y-55395000I0J-155000D01*
G01*
X130723000Y-55705000D01*
G75*
G02*
X130568000Y-55860000I-155000J0D01*
G01*
X130178000Y-55860000D01*
G75*
G02*
X130023000Y-55705000I0J155000D01*
G01*
G37*
G36*
G01*
X130023000Y-56655000D02*
X130023000Y-56345000D01*
G75*
G02*
X130178000Y-56190000I155000J0D01*
G01*
X130568000Y-56190000D01*
G75*
G02*
X130723000Y-56345000I0J-155000D01*
G01*
X130723000Y-56655000D01*
G75*
G02*
X130568000Y-56810000I-155000J0D01*
G01*
X130178000Y-56810000D01*
G75*
G02*
X130023000Y-56655000I0J155000D01*
G01*
G37*
G36*
G01*
X132523000Y-56655000D02*
X132523000Y-56345000D01*
G75*
G02*
X132678000Y-56190000I155000J0D01*
G01*
X133068000Y-56190000D01*
G75*
G02*
X133223000Y-56345000I0J-155000D01*
G01*
X133223000Y-56655000D01*
G75*
G02*
X133068000Y-56810000I-155000J0D01*
G01*
X132678000Y-56810000D01*
G75*
G02*
X132523000Y-56655000I0J155000D01*
G01*
G37*
G36*
G01*
X132523000Y-55705000D02*
X132523000Y-55395000D01*
G75*
G02*
X132678000Y-55240000I155000J0D01*
G01*
X133068000Y-55240000D01*
G75*
G02*
X133223000Y-55395000I0J-155000D01*
G01*
X133223000Y-55705000D01*
G75*
G02*
X133068000Y-55860000I-155000J0D01*
G01*
X132678000Y-55860000D01*
G75*
G02*
X132523000Y-55705000I0J155000D01*
G01*
G37*
G36*
G01*
X132523000Y-54755000D02*
X132523000Y-54445000D01*
G75*
G02*
X132678000Y-54290000I155000J0D01*
G01*
X133068000Y-54290000D01*
G75*
G02*
X133223000Y-54445000I0J-155000D01*
G01*
X133223000Y-54755000D01*
G75*
G02*
X133068000Y-54910000I-155000J0D01*
G01*
X132678000Y-54910000D01*
G75*
G02*
X132523000Y-54755000I0J155000D01*
G01*
G37*
G36*
G01*
X120038000Y-81406250D02*
X120038000Y-80493750D01*
G75*
G02*
X120281750Y-80250000I243750J0D01*
G01*
X120769250Y-80250000D01*
G75*
G02*
X121013000Y-80493750I0J-243750D01*
G01*
X121013000Y-81406250D01*
G75*
G02*
X120769250Y-81650000I-243750J0D01*
G01*
X120281750Y-81650000D01*
G75*
G02*
X120038000Y-81406250I0J243750D01*
G01*
G37*
G36*
G01*
X121913000Y-81406250D02*
X121913000Y-80493750D01*
G75*
G02*
X122156750Y-80250000I243750J0D01*
G01*
X122644250Y-80250000D01*
G75*
G02*
X122888000Y-80493750I0J-243750D01*
G01*
X122888000Y-81406250D01*
G75*
G02*
X122644250Y-81650000I-243750J0D01*
G01*
X122156750Y-81650000D01*
G75*
G02*
X121913000Y-81406250I0J243750D01*
G01*
G37*
D11*
X138519100Y-84038000D03*
X138519100Y-86538000D03*
X138519100Y-89038000D03*
X144030900Y-84038000D03*
X144030900Y-86538000D03*
X144030900Y-89038000D03*
G36*
G01*
X125118000Y-75050000D02*
X125118000Y-74150000D01*
G75*
G02*
X125368000Y-73900000I250000J0D01*
G01*
X125893000Y-73900000D01*
G75*
G02*
X126143000Y-74150000I0J-250000D01*
G01*
X126143000Y-75050000D01*
G75*
G02*
X125893000Y-75300000I-250000J0D01*
G01*
X125368000Y-75300000D01*
G75*
G02*
X125118000Y-75050000I0J250000D01*
G01*
G37*
G36*
G01*
X126943000Y-75050000D02*
X126943000Y-74150000D01*
G75*
G02*
X127193000Y-73900000I250000J0D01*
G01*
X127718000Y-73900000D01*
G75*
G02*
X127968000Y-74150000I0J-250000D01*
G01*
X127968000Y-75050000D01*
G75*
G02*
X127718000Y-75300000I-250000J0D01*
G01*
X127193000Y-75300000D01*
G75*
G02*
X126943000Y-75050000I0J250000D01*
G01*
G37*
G36*
G01*
X122913000Y-67775000D02*
X122913000Y-68725000D01*
G75*
G02*
X122663000Y-68975000I-250000J0D01*
G01*
X122163000Y-68975000D01*
G75*
G02*
X121913000Y-68725000I0J250000D01*
G01*
X121913000Y-67775000D01*
G75*
G02*
X122163000Y-67525000I250000J0D01*
G01*
X122663000Y-67525000D01*
G75*
G02*
X122913000Y-67775000I0J-250000D01*
G01*
G37*
G36*
G01*
X121013000Y-67775000D02*
X121013000Y-68725000D01*
G75*
G02*
X120763000Y-68975000I-250000J0D01*
G01*
X120263000Y-68975000D01*
G75*
G02*
X120013000Y-68725000I0J250000D01*
G01*
X120013000Y-67775000D01*
G75*
G02*
X120263000Y-67525000I250000J0D01*
G01*
X120763000Y-67525000D01*
G75*
G02*
X121013000Y-67775000I0J-250000D01*
G01*
G37*
G36*
G01*
X120038000Y-75056250D02*
X120038000Y-74143750D01*
G75*
G02*
X120281750Y-73900000I243750J0D01*
G01*
X120769250Y-73900000D01*
G75*
G02*
X121013000Y-74143750I0J-243750D01*
G01*
X121013000Y-75056250D01*
G75*
G02*
X120769250Y-75300000I-243750J0D01*
G01*
X120281750Y-75300000D01*
G75*
G02*
X120038000Y-75056250I0J243750D01*
G01*
G37*
G36*
G01*
X121913000Y-75056250D02*
X121913000Y-74143750D01*
G75*
G02*
X122156750Y-73900000I243750J0D01*
G01*
X122644250Y-73900000D01*
G75*
G02*
X122888000Y-74143750I0J-243750D01*
G01*
X122888000Y-75056250D01*
G75*
G02*
X122644250Y-75300000I-243750J0D01*
G01*
X122156750Y-75300000D01*
G75*
G02*
X121913000Y-75056250I0J243750D01*
G01*
G37*
M02*
