M48
INCH,TZ
T1C0.0120
T2C0.0394
%
G90
G05
T1
X50770Y-21470
X50970Y-23970
X50970Y-24770
X51570Y-30020
X51620Y-26520
X52370Y-26520
X52370Y-30020
X52870Y-22270
X56570Y-26665
X58970Y-31920
X58970Y-32270
X58970Y-32620
X58970Y-35570
X58970Y-35920
X58970Y-36270
X59570Y-26665
X62620Y-30970
X62620Y-32270
X63470Y-29320
X63470Y-33570
X65720Y-26570
X65720Y-26920
X65720Y-30620
X65720Y-31070
X65720Y-34770
X65720Y-35120
T2
X40870Y-24370
X40870Y-26870
X40870Y-29370
X40870Y-31870
X41870Y-24370
X41870Y-26870
X41870Y-29370
X41870Y-31870
X42870Y-24370
X42870Y-26870
X42870Y-29370
X42870Y-31870
X46770Y-19370
X47770Y-19370
X48770Y-19370
X49770Y-19370
X50370Y-38370
X50770Y-19370
X51370Y-38370
X51770Y-19370
X52370Y-38370
X52770Y-19370
X53370Y-38370
X53770Y-19370
X54370Y-38370
X54770Y-19370
X55370Y-38370
X55770Y-19370
X56370Y-38370
X57370Y-19370
X57370Y-38370
X58370Y-19370
X59370Y-19370
X59370Y-38370
X60370Y-19370
X60370Y-38370
X61370Y-19370
X61370Y-38370
X62370Y-19370
X62370Y-38370
X63370Y-19370
X63370Y-38370
X64370Y-19370
X64370Y-38370
M30
