G04 #@! TF.GenerationSoftware,KiCad,Pcbnew,6.0.2+dfsg-1*
G04 #@! TF.CreationDate,2024-06-30T21:19:04-06:00*
G04 #@! TF.ProjectId,ckt-axle,636b742d-6178-46c6-952e-6b696361645f,rev?*
G04 #@! TF.SameCoordinates,Original*
G04 #@! TF.FileFunction,Legend,Top*
G04 #@! TF.FilePolarity,Positive*
%FSLAX46Y46*%
G04 Gerber Fmt 4.6, Leading zero omitted, Abs format (unit mm)*
G04 Created by KiCad (PCBNEW 6.0.2+dfsg-1) date 2024-06-30 21:19:04*
%MOMM*%
%LPD*%
G01*
G04 APERTURE LIST*
%ADD10C,0.304800*%
%ADD11C,0.152400*%
%ADD12C,0.150000*%
%ADD13C,0.120000*%
G04 APERTURE END LIST*
D10*
X117221000Y-113792000D02*
X122301000Y-113792000D01*
X122301000Y-113792000D02*
X122301000Y-118872000D01*
X122301000Y-118872000D02*
X117221000Y-118872000D01*
X117221000Y-118872000D02*
X117221000Y-113792000D01*
X117221000Y-120269000D02*
X122301000Y-120269000D01*
X122301000Y-120269000D02*
X122301000Y-125349000D01*
X122301000Y-125349000D02*
X117221000Y-125349000D01*
X117221000Y-125349000D02*
X117221000Y-120269000D01*
D11*
X132545666Y-115567339D02*
X132545666Y-114890005D01*
X132545666Y-114551339D02*
X132497285Y-114599720D01*
X132545666Y-114648100D01*
X132594047Y-114599720D01*
X132545666Y-114551339D01*
X132545666Y-114648100D01*
X133464904Y-115567339D02*
X133464904Y-115035148D01*
X133416523Y-114938386D01*
X133319761Y-114890005D01*
X133126238Y-114890005D01*
X133029476Y-114938386D01*
X133464904Y-115518958D02*
X133368142Y-115567339D01*
X133126238Y-115567339D01*
X133029476Y-115518958D01*
X132981095Y-115422196D01*
X132981095Y-115325434D01*
X133029476Y-115228672D01*
X133126238Y-115180291D01*
X133368142Y-115180291D01*
X133464904Y-115131910D01*
X133900333Y-115518958D02*
X133997095Y-115567339D01*
X134190619Y-115567339D01*
X134287380Y-115518958D01*
X134335761Y-115422196D01*
X134335761Y-115373815D01*
X134287380Y-115277053D01*
X134190619Y-115228672D01*
X134045476Y-115228672D01*
X133948714Y-115180291D01*
X133900333Y-115083529D01*
X133900333Y-115035148D01*
X133948714Y-114938386D01*
X134045476Y-114890005D01*
X134190619Y-114890005D01*
X134287380Y-114938386D01*
X135206619Y-115518958D02*
X135109857Y-115567339D01*
X134916333Y-115567339D01*
X134819571Y-115518958D01*
X134771190Y-115470577D01*
X134722809Y-115373815D01*
X134722809Y-115083529D01*
X134771190Y-114986767D01*
X134819571Y-114938386D01*
X134916333Y-114890005D01*
X135109857Y-114890005D01*
X135206619Y-114938386D01*
X136077476Y-115567339D02*
X136077476Y-115035148D01*
X136029095Y-114938386D01*
X135932333Y-114890005D01*
X135738809Y-114890005D01*
X135642047Y-114938386D01*
X136077476Y-115518958D02*
X135980714Y-115567339D01*
X135738809Y-115567339D01*
X135642047Y-115518958D01*
X135593666Y-115422196D01*
X135593666Y-115325434D01*
X135642047Y-115228672D01*
X135738809Y-115180291D01*
X135980714Y-115180291D01*
X136077476Y-115131910D01*
X136706428Y-115567339D02*
X136609666Y-115518958D01*
X136561285Y-115422196D01*
X136561285Y-114551339D01*
X137480523Y-115518958D02*
X137383761Y-115567339D01*
X137190238Y-115567339D01*
X137093476Y-115518958D01*
X137045095Y-115422196D01*
X137045095Y-115035148D01*
X137093476Y-114938386D01*
X137190238Y-114890005D01*
X137383761Y-114890005D01*
X137480523Y-114938386D01*
X137528904Y-115035148D01*
X137528904Y-115131910D01*
X137045095Y-115228672D01*
X138399761Y-115567339D02*
X138399761Y-114551339D01*
X138399761Y-115518958D02*
X138303000Y-115567339D01*
X138109476Y-115567339D01*
X138012714Y-115518958D01*
X137964333Y-115470577D01*
X137915952Y-115373815D01*
X137915952Y-115083529D01*
X137964333Y-114986767D01*
X138012714Y-114938386D01*
X138109476Y-114890005D01*
X138303000Y-114890005D01*
X138399761Y-114938386D01*
X138883571Y-115470577D02*
X138931952Y-115518958D01*
X138883571Y-115567339D01*
X138835190Y-115518958D01*
X138883571Y-115470577D01*
X138883571Y-115567339D01*
X139802809Y-115518958D02*
X139706047Y-115567339D01*
X139512523Y-115567339D01*
X139415761Y-115518958D01*
X139367380Y-115470577D01*
X139319000Y-115373815D01*
X139319000Y-115083529D01*
X139367380Y-114986767D01*
X139415761Y-114938386D01*
X139512523Y-114890005D01*
X139706047Y-114890005D01*
X139802809Y-114938386D01*
X140383380Y-115567339D02*
X140286619Y-115518958D01*
X140238238Y-115470577D01*
X140189857Y-115373815D01*
X140189857Y-115083529D01*
X140238238Y-114986767D01*
X140286619Y-114938386D01*
X140383380Y-114890005D01*
X140528523Y-114890005D01*
X140625285Y-114938386D01*
X140673666Y-114986767D01*
X140722047Y-115083529D01*
X140722047Y-115373815D01*
X140673666Y-115470577D01*
X140625285Y-115518958D01*
X140528523Y-115567339D01*
X140383380Y-115567339D01*
X141157476Y-115567339D02*
X141157476Y-114890005D01*
X141157476Y-114986767D02*
X141205857Y-114938386D01*
X141302619Y-114890005D01*
X141447761Y-114890005D01*
X141544523Y-114938386D01*
X141592904Y-115035148D01*
X141592904Y-115567339D01*
X141592904Y-115035148D02*
X141641285Y-114938386D01*
X141738047Y-114890005D01*
X141883190Y-114890005D01*
X141979952Y-114938386D01*
X142028333Y-115035148D01*
X142028333Y-115567339D01*
X134287380Y-120377857D02*
X134239000Y-120426238D01*
X134093857Y-120474619D01*
X133997095Y-120474619D01*
X133851952Y-120426238D01*
X133755190Y-120329476D01*
X133706809Y-120232714D01*
X133658428Y-120039190D01*
X133658428Y-119894047D01*
X133706809Y-119700523D01*
X133755190Y-119603761D01*
X133851952Y-119507000D01*
X133997095Y-119458619D01*
X134093857Y-119458619D01*
X134239000Y-119507000D01*
X134287380Y-119555380D01*
X134722809Y-120474619D02*
X134722809Y-119458619D01*
X135303380Y-120474619D02*
X134867952Y-119894047D01*
X135303380Y-119458619D02*
X134722809Y-120039190D01*
X135593666Y-119458619D02*
X136174238Y-119458619D01*
X135883952Y-120474619D02*
X135883952Y-119458619D01*
X136512904Y-120087571D02*
X137287000Y-120087571D01*
X137722428Y-120184333D02*
X138206238Y-120184333D01*
X137625666Y-120474619D02*
X137964333Y-119458619D01*
X138303000Y-120474619D01*
X138544904Y-119458619D02*
X139222238Y-120474619D01*
X139222238Y-119458619D02*
X138544904Y-120474619D01*
X140093095Y-120474619D02*
X139609285Y-120474619D01*
X139609285Y-119458619D01*
X140431761Y-119942428D02*
X140770428Y-119942428D01*
X140915571Y-120474619D02*
X140431761Y-120474619D01*
X140431761Y-119458619D01*
X140915571Y-119458619D01*
X135835571Y-121433045D02*
X136077476Y-122110379D01*
X136319380Y-121433045D01*
X137238619Y-122110379D02*
X136658047Y-122110379D01*
X136948333Y-122110379D02*
X136948333Y-121094379D01*
X136851571Y-121239521D01*
X136754809Y-121336283D01*
X136658047Y-121384664D01*
X137674047Y-122013617D02*
X137722428Y-122061998D01*
X137674047Y-122110379D01*
X137625666Y-122061998D01*
X137674047Y-122013617D01*
X137674047Y-122110379D01*
X138351380Y-121094379D02*
X138448142Y-121094379D01*
X138544904Y-121142760D01*
X138593285Y-121191140D01*
X138641666Y-121287902D01*
X138690047Y-121481426D01*
X138690047Y-121723331D01*
X138641666Y-121916855D01*
X138593285Y-122013617D01*
X138544904Y-122061998D01*
X138448142Y-122110379D01*
X138351380Y-122110379D01*
X138254619Y-122061998D01*
X138206238Y-122013617D01*
X138157857Y-121916855D01*
X138109476Y-121723331D01*
X138109476Y-121481426D01*
X138157857Y-121287902D01*
X138206238Y-121191140D01*
X138254619Y-121142760D01*
X138351380Y-121094379D01*
X135545285Y-122972043D02*
X135448523Y-122923662D01*
X135255000Y-122923662D01*
X135158238Y-122972043D01*
X135061476Y-123068805D01*
X135013095Y-123165567D01*
X135013095Y-123359091D01*
X135061476Y-123455853D01*
X135158238Y-123552615D01*
X135255000Y-123600996D01*
X135448523Y-123600996D01*
X135545285Y-123552615D01*
X135351761Y-122584996D02*
X135109857Y-122633377D01*
X134867952Y-122778520D01*
X134722809Y-123020424D01*
X134674428Y-123262329D01*
X134722809Y-123504234D01*
X134867952Y-123746139D01*
X135109857Y-123891281D01*
X135351761Y-123939662D01*
X135593666Y-123891281D01*
X135835571Y-123746139D01*
X135980714Y-123504234D01*
X136029095Y-123262329D01*
X135980714Y-123020424D01*
X135835571Y-122778520D01*
X135593666Y-122633377D01*
X135351761Y-122584996D01*
X136416142Y-122826900D02*
X136464523Y-122778520D01*
X136561285Y-122730139D01*
X136803190Y-122730139D01*
X136899952Y-122778520D01*
X136948333Y-122826900D01*
X136996714Y-122923662D01*
X136996714Y-123020424D01*
X136948333Y-123165567D01*
X136367761Y-123746139D01*
X136996714Y-123746139D01*
X137625666Y-122730139D02*
X137722428Y-122730139D01*
X137819190Y-122778520D01*
X137867571Y-122826900D01*
X137915952Y-122923662D01*
X137964333Y-123117186D01*
X137964333Y-123359091D01*
X137915952Y-123552615D01*
X137867571Y-123649377D01*
X137819190Y-123697758D01*
X137722428Y-123746139D01*
X137625666Y-123746139D01*
X137528904Y-123697758D01*
X137480523Y-123649377D01*
X137432142Y-123552615D01*
X137383761Y-123359091D01*
X137383761Y-123117186D01*
X137432142Y-122923662D01*
X137480523Y-122826900D01*
X137528904Y-122778520D01*
X137625666Y-122730139D01*
X138351380Y-122826900D02*
X138399761Y-122778520D01*
X138496523Y-122730139D01*
X138738428Y-122730139D01*
X138835190Y-122778520D01*
X138883571Y-122826900D01*
X138931952Y-122923662D01*
X138931952Y-123020424D01*
X138883571Y-123165567D01*
X138303000Y-123746139D01*
X138931952Y-123746139D01*
X139802809Y-123068805D02*
X139802809Y-123746139D01*
X139560904Y-122681758D02*
X139319000Y-123407472D01*
X139947952Y-123407472D01*
X134214809Y-125285137D02*
X134166428Y-125333518D01*
X134021285Y-125381899D01*
X133924523Y-125381899D01*
X133779380Y-125333518D01*
X133682619Y-125236756D01*
X133634238Y-125139994D01*
X133585857Y-124946470D01*
X133585857Y-124801327D01*
X133634238Y-124607803D01*
X133682619Y-124511041D01*
X133779380Y-124414280D01*
X133924523Y-124365899D01*
X134021285Y-124365899D01*
X134166428Y-124414280D01*
X134214809Y-124462660D01*
X135230809Y-125285137D02*
X135182428Y-125333518D01*
X135037285Y-125381899D01*
X134940523Y-125381899D01*
X134795380Y-125333518D01*
X134698619Y-125236756D01*
X134650238Y-125139994D01*
X134601857Y-124946470D01*
X134601857Y-124801327D01*
X134650238Y-124607803D01*
X134698619Y-124511041D01*
X134795380Y-124414280D01*
X134940523Y-124365899D01*
X135037285Y-124365899D01*
X135182428Y-124414280D01*
X135230809Y-124462660D01*
X136779000Y-124849708D02*
X136924142Y-124898089D01*
X136972523Y-124946470D01*
X137020904Y-125043232D01*
X137020904Y-125188375D01*
X136972523Y-125285137D01*
X136924142Y-125333518D01*
X136827380Y-125381899D01*
X136440333Y-125381899D01*
X136440333Y-124365899D01*
X136779000Y-124365899D01*
X136875761Y-124414280D01*
X136924142Y-124462660D01*
X136972523Y-124559422D01*
X136972523Y-124656184D01*
X136924142Y-124752946D01*
X136875761Y-124801327D01*
X136779000Y-124849708D01*
X136440333Y-124849708D01*
X137649857Y-124898089D02*
X137649857Y-125381899D01*
X137311190Y-124365899D02*
X137649857Y-124898089D01*
X137988523Y-124365899D01*
X138327190Y-124994851D02*
X139101285Y-124994851D01*
X139536714Y-125333518D02*
X139681857Y-125381899D01*
X139923761Y-125381899D01*
X140020523Y-125333518D01*
X140068904Y-125285137D01*
X140117285Y-125188375D01*
X140117285Y-125091613D01*
X140068904Y-124994851D01*
X140020523Y-124946470D01*
X139923761Y-124898089D01*
X139730238Y-124849708D01*
X139633476Y-124801327D01*
X139585095Y-124752946D01*
X139536714Y-124656184D01*
X139536714Y-124559422D01*
X139585095Y-124462660D01*
X139633476Y-124414280D01*
X139730238Y-124365899D01*
X139972142Y-124365899D01*
X140117285Y-124414280D01*
X140504333Y-125091613D02*
X140988142Y-125091613D01*
X140407571Y-125381899D02*
X140746238Y-124365899D01*
X141084904Y-125381899D01*
D10*
X118085809Y-115249718D02*
X119246952Y-115249718D01*
X118666380Y-117281718D02*
X118666380Y-115249718D01*
X119730761Y-115249718D02*
X121085428Y-117281718D01*
X121085428Y-115249718D02*
X119730761Y-117281718D01*
X119295333Y-123824758D02*
X118618000Y-122857139D01*
X118134190Y-123824758D02*
X118134190Y-121792758D01*
X118908285Y-121792758D01*
X119101809Y-121889520D01*
X119198571Y-121986281D01*
X119295333Y-122179805D01*
X119295333Y-122470091D01*
X119198571Y-122663615D01*
X119101809Y-122760377D01*
X118908285Y-122857139D01*
X118134190Y-122857139D01*
X119972666Y-121792758D02*
X121327333Y-123824758D01*
X121327333Y-121792758D02*
X119972666Y-123824758D01*
D12*
X128317666Y-119043380D02*
X128317666Y-119757666D01*
X128270047Y-119900523D01*
X128174809Y-119995761D01*
X128031952Y-120043380D01*
X127936714Y-120043380D01*
X129317666Y-120043380D02*
X128746238Y-120043380D01*
X129031952Y-120043380D02*
X129031952Y-119043380D01*
X128936714Y-119186238D01*
X128841476Y-119281476D01*
X128746238Y-119329095D01*
X125690333Y-118435380D02*
X125357000Y-117959190D01*
X125118904Y-118435380D02*
X125118904Y-117435380D01*
X125499857Y-117435380D01*
X125595095Y-117483000D01*
X125642714Y-117530619D01*
X125690333Y-117625857D01*
X125690333Y-117768714D01*
X125642714Y-117863952D01*
X125595095Y-117911571D01*
X125499857Y-117959190D01*
X125118904Y-117959190D01*
X126642714Y-118435380D02*
X126071285Y-118435380D01*
X126357000Y-118435380D02*
X126357000Y-117435380D01*
X126261761Y-117578238D01*
X126166523Y-117673476D01*
X126071285Y-117721095D01*
X125690333Y-115514380D02*
X125357000Y-115038190D01*
X125118904Y-115514380D02*
X125118904Y-114514380D01*
X125499857Y-114514380D01*
X125595095Y-114562000D01*
X125642714Y-114609619D01*
X125690333Y-114704857D01*
X125690333Y-114847714D01*
X125642714Y-114942952D01*
X125595095Y-114990571D01*
X125499857Y-115038190D01*
X125118904Y-115038190D01*
X126071285Y-114609619D02*
X126118904Y-114562000D01*
X126214142Y-114514380D01*
X126452238Y-114514380D01*
X126547476Y-114562000D01*
X126595095Y-114609619D01*
X126642714Y-114704857D01*
X126642714Y-114800095D01*
X126595095Y-114942952D01*
X126023666Y-115514380D01*
X126642714Y-115514380D01*
D13*
X139866000Y-71474000D02*
X142151000Y-71474000D01*
X142151000Y-70004000D02*
X139866000Y-70004000D01*
X139866000Y-70004000D02*
X139866000Y-71474000D01*
X126591000Y-121786000D02*
X126591000Y-120796000D01*
X125541000Y-124286000D02*
X125541000Y-121786000D01*
X126711000Y-126256000D02*
X130591000Y-126256000D01*
X131761000Y-121786000D02*
X130711000Y-121786000D01*
X131761000Y-124286000D02*
X131761000Y-121786000D01*
X125541000Y-121786000D02*
X126591000Y-121786000D01*
X128878064Y-118718000D02*
X128423936Y-118718000D01*
X128878064Y-117248000D02*
X128423936Y-117248000D01*
X128878064Y-115797000D02*
X128423936Y-115797000D01*
X128878064Y-114327000D02*
X128423936Y-114327000D01*
X117436000Y-70004000D02*
X115151000Y-70004000D01*
X117436000Y-71474000D02*
X117436000Y-70004000D01*
X115151000Y-71474000D02*
X117436000Y-71474000D01*
M02*
