G04 #@! TF.GenerationSoftware,KiCad,Pcbnew,6.0.2+dfsg-1*
G04 #@! TF.CreationDate,2024-06-30T21:19:04-06:00*
G04 #@! TF.ProjectId,ckt-axle,636b742d-6178-46c6-952e-6b696361645f,rev?*
G04 #@! TF.SameCoordinates,Original*
G04 #@! TF.FileFunction,Copper,L1,Top*
G04 #@! TF.FilePolarity,Positive*
%FSLAX46Y46*%
G04 Gerber Fmt 4.6, Leading zero omitted, Abs format (unit mm)*
G04 Created by KiCad (PCBNEW 6.0.2+dfsg-1) date 2024-06-30 21:19:04*
%MOMM*%
%LPD*%
G01*
G04 APERTURE LIST*
G04 #@! TA.AperFunction,ComponentPad*
%ADD10O,10.400000X8.600000*%
G04 #@! TD*
G04 #@! TA.AperFunction,ViaPad*
%ADD11C,0.609600*%
G04 #@! TD*
G04 #@! TA.AperFunction,Conductor*
%ADD12C,0.457200*%
G04 #@! TD*
G04 APERTURE END LIST*
G04 #@! TA.AperFunction,SMDPad,CuDef*
G36*
G01*
X140126000Y-70995250D02*
X140126000Y-70482750D01*
G75*
G02*
X140344750Y-70264000I218750J0D01*
G01*
X140782250Y-70264000D01*
G75*
G02*
X141001000Y-70482750I0J-218750D01*
G01*
X141001000Y-70995250D01*
G75*
G02*
X140782250Y-71214000I-218750J0D01*
G01*
X140344750Y-71214000D01*
G75*
G02*
X140126000Y-70995250I0J218750D01*
G01*
G37*
G04 #@! TD.AperFunction*
G04 #@! TA.AperFunction,SMDPad,CuDef*
G36*
G01*
X141701000Y-70995250D02*
X141701000Y-70482750D01*
G75*
G02*
X141919750Y-70264000I218750J0D01*
G01*
X142357250Y-70264000D01*
G75*
G02*
X142576000Y-70482750I0J-218750D01*
G01*
X142576000Y-70995250D01*
G75*
G02*
X142357250Y-71214000I-218750J0D01*
G01*
X141919750Y-71214000D01*
G75*
G02*
X141701000Y-70995250I0J218750D01*
G01*
G37*
G04 #@! TD.AperFunction*
G04 #@! TA.AperFunction,SMDPad,CuDef*
G36*
G01*
X126851000Y-122196000D02*
X126851000Y-120946000D01*
G75*
G02*
X127001000Y-120796000I150000J0D01*
G01*
X127301000Y-120796000D01*
G75*
G02*
X127451000Y-120946000I0J-150000D01*
G01*
X127451000Y-122196000D01*
G75*
G02*
X127301000Y-122346000I-150000J0D01*
G01*
X127001000Y-122346000D01*
G75*
G02*
X126851000Y-122196000I0J150000D01*
G01*
G37*
G04 #@! TD.AperFunction*
G04 #@! TA.AperFunction,SMDPad,CuDef*
G36*
G01*
X127851000Y-122196000D02*
X127851000Y-120946000D01*
G75*
G02*
X128001000Y-120796000I150000J0D01*
G01*
X128301000Y-120796000D01*
G75*
G02*
X128451000Y-120946000I0J-150000D01*
G01*
X128451000Y-122196000D01*
G75*
G02*
X128301000Y-122346000I-150000J0D01*
G01*
X128001000Y-122346000D01*
G75*
G02*
X127851000Y-122196000I0J150000D01*
G01*
G37*
G04 #@! TD.AperFunction*
G04 #@! TA.AperFunction,SMDPad,CuDef*
G36*
G01*
X128851000Y-122196000D02*
X128851000Y-120946000D01*
G75*
G02*
X129001000Y-120796000I150000J0D01*
G01*
X129301000Y-120796000D01*
G75*
G02*
X129451000Y-120946000I0J-150000D01*
G01*
X129451000Y-122196000D01*
G75*
G02*
X129301000Y-122346000I-150000J0D01*
G01*
X129001000Y-122346000D01*
G75*
G02*
X128851000Y-122196000I0J150000D01*
G01*
G37*
G04 #@! TD.AperFunction*
G04 #@! TA.AperFunction,SMDPad,CuDef*
G36*
G01*
X129851000Y-122196000D02*
X129851000Y-120946000D01*
G75*
G02*
X130001000Y-120796000I150000J0D01*
G01*
X130301000Y-120796000D01*
G75*
G02*
X130451000Y-120946000I0J-150000D01*
G01*
X130451000Y-122196000D01*
G75*
G02*
X130301000Y-122346000I-150000J0D01*
G01*
X130001000Y-122346000D01*
G75*
G02*
X129851000Y-122196000I0J150000D01*
G01*
G37*
G04 #@! TD.AperFunction*
G04 #@! TA.AperFunction,SMDPad,CuDef*
G36*
G01*
X130851000Y-126096000D02*
X130851000Y-124796000D01*
G75*
G02*
X131101000Y-124546000I250000J0D01*
G01*
X131801000Y-124546000D01*
G75*
G02*
X132051000Y-124796000I0J-250000D01*
G01*
X132051000Y-126096000D01*
G75*
G02*
X131801000Y-126346000I-250000J0D01*
G01*
X131101000Y-126346000D01*
G75*
G02*
X130851000Y-126096000I0J250000D01*
G01*
G37*
G04 #@! TD.AperFunction*
G04 #@! TA.AperFunction,SMDPad,CuDef*
G36*
G01*
X125251000Y-126096000D02*
X125251000Y-124796000D01*
G75*
G02*
X125501000Y-124546000I250000J0D01*
G01*
X126201000Y-124546000D01*
G75*
G02*
X126451000Y-124796000I0J-250000D01*
G01*
X126451000Y-126096000D01*
G75*
G02*
X126201000Y-126346000I-250000J0D01*
G01*
X125501000Y-126346000D01*
G75*
G02*
X125251000Y-126096000I0J250000D01*
G01*
G37*
G04 #@! TD.AperFunction*
G04 #@! TA.AperFunction,SMDPad,CuDef*
G36*
G01*
X130076000Y-117533000D02*
X130076000Y-118433000D01*
G75*
G02*
X129826000Y-118683000I-250000J0D01*
G01*
X129301000Y-118683000D01*
G75*
G02*
X129051000Y-118433000I0J250000D01*
G01*
X129051000Y-117533000D01*
G75*
G02*
X129301000Y-117283000I250000J0D01*
G01*
X129826000Y-117283000D01*
G75*
G02*
X130076000Y-117533000I0J-250000D01*
G01*
G37*
G04 #@! TD.AperFunction*
G04 #@! TA.AperFunction,SMDPad,CuDef*
G36*
G01*
X128251000Y-117533000D02*
X128251000Y-118433000D01*
G75*
G02*
X128001000Y-118683000I-250000J0D01*
G01*
X127476000Y-118683000D01*
G75*
G02*
X127226000Y-118433000I0J250000D01*
G01*
X127226000Y-117533000D01*
G75*
G02*
X127476000Y-117283000I250000J0D01*
G01*
X128001000Y-117283000D01*
G75*
G02*
X128251000Y-117533000I0J-250000D01*
G01*
G37*
G04 #@! TD.AperFunction*
G04 #@! TA.AperFunction,SMDPad,CuDef*
G36*
G01*
X130076000Y-114612000D02*
X130076000Y-115512000D01*
G75*
G02*
X129826000Y-115762000I-250000J0D01*
G01*
X129301000Y-115762000D01*
G75*
G02*
X129051000Y-115512000I0J250000D01*
G01*
X129051000Y-114612000D01*
G75*
G02*
X129301000Y-114362000I250000J0D01*
G01*
X129826000Y-114362000D01*
G75*
G02*
X130076000Y-114612000I0J-250000D01*
G01*
G37*
G04 #@! TD.AperFunction*
G04 #@! TA.AperFunction,SMDPad,CuDef*
G36*
G01*
X128251000Y-114612000D02*
X128251000Y-115512000D01*
G75*
G02*
X128001000Y-115762000I-250000J0D01*
G01*
X127476000Y-115762000D01*
G75*
G02*
X127226000Y-115512000I0J250000D01*
G01*
X127226000Y-114612000D01*
G75*
G02*
X127476000Y-114362000I250000J0D01*
G01*
X128001000Y-114362000D01*
G75*
G02*
X128251000Y-114612000I0J-250000D01*
G01*
G37*
G04 #@! TD.AperFunction*
G04 #@! TA.AperFunction,SMDPad,CuDef*
G36*
G01*
X117176000Y-70482750D02*
X117176000Y-70995250D01*
G75*
G02*
X116957250Y-71214000I-218750J0D01*
G01*
X116519750Y-71214000D01*
G75*
G02*
X116301000Y-70995250I0J218750D01*
G01*
X116301000Y-70482750D01*
G75*
G02*
X116519750Y-70264000I218750J0D01*
G01*
X116957250Y-70264000D01*
G75*
G02*
X117176000Y-70482750I0J-218750D01*
G01*
G37*
G04 #@! TD.AperFunction*
G04 #@! TA.AperFunction,SMDPad,CuDef*
G36*
G01*
X115601000Y-70482750D02*
X115601000Y-70995250D01*
G75*
G02*
X115382250Y-71214000I-218750J0D01*
G01*
X114944750Y-71214000D01*
G75*
G02*
X114726000Y-70995250I0J218750D01*
G01*
X114726000Y-70482750D01*
G75*
G02*
X114944750Y-70264000I218750J0D01*
G01*
X115382250Y-70264000D01*
G75*
G02*
X115601000Y-70482750I0J-218750D01*
G01*
G37*
G04 #@! TD.AperFunction*
D10*
X128651000Y-106426000D03*
D11*
X128651000Y-125349000D03*
X129540000Y-116586000D03*
X115189000Y-72263000D03*
X129540000Y-113665000D03*
X142113000Y-72263000D03*
D12*
X140589000Y-70739000D02*
X140589000Y-72618500D01*
X116713000Y-70739000D02*
X116713000Y-72618500D01*
X115189000Y-72263000D02*
X115189000Y-70764500D01*
X129563500Y-119229500D02*
X129151000Y-119642000D01*
X129151000Y-119642000D02*
X129151000Y-121571000D01*
X129563500Y-116609500D02*
X129563500Y-119229500D01*
X115189000Y-70764500D02*
X115163500Y-70739000D01*
X129540000Y-116586000D02*
X129563500Y-116609500D01*
X130937000Y-116435500D02*
X129563500Y-115062000D01*
X129563500Y-115062000D02*
X129563500Y-113688500D01*
X130937000Y-118745000D02*
X130937000Y-116435500D01*
X142113000Y-72263000D02*
X142113000Y-70764500D01*
X130151000Y-121571000D02*
X130151000Y-119531000D01*
X129563500Y-113688500D02*
X129540000Y-113665000D01*
X142113000Y-70764500D02*
X142138500Y-70739000D01*
X130151000Y-119531000D02*
X130937000Y-118745000D01*
X128151000Y-121571000D02*
X128151000Y-119642000D01*
X127738500Y-119229500D02*
X127738500Y-115062000D01*
X128151000Y-119642000D02*
X127738500Y-119229500D01*
G04 #@! TA.AperFunction,Conductor*
G36*
X117036121Y-72029002D02*
G01*
X117082614Y-72082658D01*
X117094000Y-72135000D01*
X117094000Y-92656793D01*
X117092254Y-92677697D01*
X117088929Y-92697461D01*
X117088776Y-92710000D01*
X117089465Y-92714808D01*
X117089465Y-92714813D01*
X117089614Y-92715851D01*
X117090715Y-92727122D01*
X117106537Y-93029040D01*
X117156515Y-93344585D01*
X117239202Y-93653176D01*
X117353692Y-93951435D01*
X117355190Y-93954375D01*
X117453257Y-94146841D01*
X117498732Y-94236091D01*
X117672732Y-94504028D01*
X117873786Y-94752309D01*
X118099691Y-94978214D01*
X118347972Y-95179268D01*
X118615909Y-95353268D01*
X118618843Y-95354763D01*
X118618850Y-95354767D01*
X118897625Y-95496810D01*
X118900565Y-95498308D01*
X119198824Y-95612798D01*
X119507415Y-95695485D01*
X119674934Y-95722018D01*
X119819712Y-95744949D01*
X119819720Y-95744950D01*
X119822960Y-95745463D01*
X119963926Y-95752851D01*
X120108921Y-95760450D01*
X120123221Y-95762022D01*
X120124656Y-95762263D01*
X120124660Y-95762263D01*
X120129461Y-95763071D01*
X120135816Y-95763149D01*
X120137141Y-95763165D01*
X120137145Y-95763165D01*
X120142000Y-95763224D01*
X120169588Y-95759273D01*
X120187451Y-95758000D01*
X137106793Y-95758000D01*
X137127697Y-95759746D01*
X137147461Y-95763071D01*
X137153819Y-95763149D01*
X137155142Y-95763165D01*
X137155146Y-95763165D01*
X137160000Y-95763224D01*
X137164808Y-95762535D01*
X137164813Y-95762535D01*
X137165851Y-95762386D01*
X137177122Y-95761285D01*
X137479040Y-95745463D01*
X137482280Y-95744950D01*
X137482288Y-95744949D01*
X137627066Y-95722018D01*
X137794585Y-95695485D01*
X138103176Y-95612798D01*
X138401435Y-95498308D01*
X138404375Y-95496810D01*
X138683150Y-95354767D01*
X138683157Y-95354763D01*
X138686091Y-95353268D01*
X138954028Y-95179268D01*
X139202309Y-94978214D01*
X139428214Y-94752309D01*
X139629268Y-94504028D01*
X139803268Y-94236091D01*
X139848744Y-94146841D01*
X139946810Y-93954375D01*
X139948308Y-93951435D01*
X140062798Y-93653176D01*
X140145485Y-93344585D01*
X140195463Y-93029040D01*
X140210450Y-92743079D01*
X140212022Y-92728779D01*
X140212263Y-92727344D01*
X140212263Y-92727340D01*
X140213071Y-92722539D01*
X140213224Y-92710000D01*
X140209273Y-92682412D01*
X140208000Y-92664549D01*
X140208000Y-72135000D01*
X140228002Y-72066879D01*
X140281658Y-72020386D01*
X140334000Y-72009000D01*
X141182358Y-72009000D01*
X141250479Y-72029002D01*
X141296972Y-72082658D01*
X141307365Y-72150791D01*
X141294634Y-72251573D01*
X141295321Y-72258580D01*
X141295321Y-72258583D01*
X141304967Y-72356957D01*
X141312439Y-72433164D01*
X141370033Y-72606299D01*
X141464554Y-72762371D01*
X141591303Y-72893623D01*
X141597195Y-72897478D01*
X141597199Y-72897482D01*
X141732000Y-72985693D01*
X141743981Y-72993533D01*
X141750585Y-72995989D01*
X141750587Y-72995990D01*
X141829491Y-73025334D01*
X141915000Y-73057135D01*
X142095860Y-73081267D01*
X142102871Y-73080629D01*
X142102875Y-73080629D01*
X142242580Y-73067914D01*
X142277571Y-73064729D01*
X142284273Y-73062551D01*
X142284275Y-73062551D01*
X142329064Y-73047998D01*
X142400032Y-73045971D01*
X142460830Y-73082633D01*
X142492155Y-73146345D01*
X142494000Y-73167831D01*
X142494000Y-126366000D01*
X142473998Y-126434121D01*
X142420342Y-126480614D01*
X142368000Y-126492000D01*
X114934000Y-126492000D01*
X114865879Y-126471998D01*
X114819386Y-126418342D01*
X114808000Y-126366000D01*
X114808000Y-118483400D01*
X126717500Y-118483400D01*
X126728474Y-118589166D01*
X126784450Y-118756946D01*
X126877522Y-118907348D01*
X126882704Y-118912521D01*
X126882708Y-118912526D01*
X126964417Y-118994092D01*
X126998497Y-119056374D01*
X127001400Y-119083265D01*
X127001400Y-119164055D01*
X126999967Y-119183005D01*
X126996834Y-119203600D01*
X126997427Y-119210892D01*
X126997427Y-119210896D01*
X127000985Y-119254637D01*
X127001400Y-119264851D01*
X127001400Y-119272541D01*
X127001824Y-119276175D01*
X127001824Y-119276181D01*
X127004589Y-119299893D01*
X127005021Y-119304264D01*
X127010768Y-119374915D01*
X127013024Y-119381877D01*
X127014134Y-119387435D01*
X127015438Y-119392952D01*
X127016286Y-119400224D01*
X127018785Y-119407108D01*
X127018786Y-119407113D01*
X127040474Y-119466862D01*
X127041900Y-119471016D01*
X127063739Y-119538429D01*
X127067535Y-119544685D01*
X127069887Y-119549823D01*
X127072434Y-119554908D01*
X127074932Y-119561790D01*
X127113807Y-119621085D01*
X127116130Y-119624767D01*
X127152907Y-119685372D01*
X127156614Y-119689569D01*
X127156615Y-119689571D01*
X127160101Y-119693518D01*
X127160082Y-119693535D01*
X127162989Y-119696812D01*
X127165156Y-119699404D01*
X127169173Y-119705531D01*
X127174489Y-119710566D01*
X127174489Y-119710567D01*
X127223773Y-119757254D01*
X127226215Y-119759632D01*
X127376995Y-119910412D01*
X127411021Y-119972724D01*
X127413900Y-119999507D01*
X127413900Y-120610654D01*
X127398226Y-120667952D01*
X127399038Y-120668303D01*
X127396569Y-120674007D01*
X127396356Y-120674789D01*
X127391855Y-120682399D01*
X127345438Y-120842169D01*
X127342500Y-120879498D01*
X127342500Y-122262502D01*
X127345438Y-122299831D01*
X127391855Y-122459601D01*
X127395892Y-122466427D01*
X127472509Y-122595980D01*
X127472511Y-122595983D01*
X127476547Y-122602807D01*
X127594193Y-122720453D01*
X127601017Y-122724489D01*
X127601020Y-122724491D01*
X127685618Y-122774522D01*
X127737399Y-122805145D01*
X127745010Y-122807356D01*
X127745012Y-122807357D01*
X127797231Y-122822528D01*
X127897169Y-122851562D01*
X127903574Y-122852066D01*
X127903579Y-122852067D01*
X127932042Y-122854307D01*
X127932050Y-122854307D01*
X127934498Y-122854500D01*
X128367502Y-122854500D01*
X128369950Y-122854307D01*
X128369958Y-122854307D01*
X128398421Y-122852067D01*
X128398426Y-122852066D01*
X128404831Y-122851562D01*
X128504769Y-122822528D01*
X128556988Y-122807357D01*
X128556990Y-122807356D01*
X128564601Y-122805145D01*
X128571426Y-122801109D01*
X128586863Y-122791980D01*
X128655679Y-122774522D01*
X128715137Y-122791980D01*
X128730574Y-122801109D01*
X128737399Y-122805145D01*
X128745010Y-122807356D01*
X128745012Y-122807357D01*
X128797231Y-122822528D01*
X128897169Y-122851562D01*
X128903574Y-122852066D01*
X128903579Y-122852067D01*
X128932042Y-122854307D01*
X128932050Y-122854307D01*
X128934498Y-122854500D01*
X129367502Y-122854500D01*
X129369950Y-122854307D01*
X129369958Y-122854307D01*
X129398421Y-122852067D01*
X129398426Y-122852066D01*
X129404831Y-122851562D01*
X129504769Y-122822528D01*
X129556988Y-122807357D01*
X129556990Y-122807356D01*
X129564601Y-122805145D01*
X129571426Y-122801109D01*
X129586863Y-122791980D01*
X129655679Y-122774522D01*
X129715137Y-122791980D01*
X129730574Y-122801109D01*
X129737399Y-122805145D01*
X129745010Y-122807356D01*
X129745012Y-122807357D01*
X129797231Y-122822528D01*
X129897169Y-122851562D01*
X129903574Y-122852066D01*
X129903579Y-122852067D01*
X129932042Y-122854307D01*
X129932050Y-122854307D01*
X129934498Y-122854500D01*
X130367502Y-122854500D01*
X130369950Y-122854307D01*
X130369958Y-122854307D01*
X130398421Y-122852067D01*
X130398426Y-122852066D01*
X130404831Y-122851562D01*
X130504769Y-122822528D01*
X130556988Y-122807357D01*
X130556990Y-122807356D01*
X130564601Y-122805145D01*
X130616382Y-122774522D01*
X130700980Y-122724491D01*
X130700983Y-122724489D01*
X130707807Y-122720453D01*
X130825453Y-122602807D01*
X130829489Y-122595983D01*
X130829491Y-122595980D01*
X130906108Y-122466427D01*
X130910145Y-122459601D01*
X130956562Y-122299831D01*
X130959500Y-122262502D01*
X130959500Y-120879498D01*
X130956562Y-120842169D01*
X130910145Y-120682399D01*
X130905644Y-120674789D01*
X130905431Y-120674007D01*
X130902962Y-120668303D01*
X130903774Y-120667952D01*
X130888100Y-120610654D01*
X130888100Y-119888507D01*
X130908102Y-119820386D01*
X130925005Y-119799412D01*
X131411931Y-119312486D01*
X131426344Y-119300099D01*
X131437224Y-119292093D01*
X131437228Y-119292089D01*
X131443123Y-119287751D01*
X131476278Y-119248725D01*
X131483208Y-119241209D01*
X131488643Y-119235774D01*
X131505749Y-119214152D01*
X131508509Y-119210786D01*
X131549669Y-119162338D01*
X131554408Y-119156760D01*
X131557738Y-119150238D01*
X131560892Y-119145509D01*
X131563860Y-119140705D01*
X131568403Y-119134962D01*
X131598423Y-119070730D01*
X131600355Y-119066778D01*
X131629245Y-119010202D01*
X131629246Y-119010200D01*
X131632574Y-119003682D01*
X131634314Y-118996573D01*
X131636290Y-118991259D01*
X131638081Y-118985876D01*
X131641178Y-118979249D01*
X131655618Y-118909829D01*
X131656589Y-118905542D01*
X131672091Y-118842186D01*
X131673427Y-118836727D01*
X131674100Y-118825880D01*
X131674125Y-118825882D01*
X131674386Y-118821535D01*
X131674689Y-118818137D01*
X131676180Y-118810970D01*
X131674146Y-118735797D01*
X131674100Y-118732389D01*
X131674100Y-116500945D01*
X131675533Y-116481994D01*
X131677566Y-116468633D01*
X131677566Y-116468630D01*
X131678666Y-116461400D01*
X131674515Y-116410368D01*
X131674100Y-116400153D01*
X131674100Y-116392459D01*
X131670909Y-116365086D01*
X131670476Y-116360712D01*
X131665325Y-116297382D01*
X131665324Y-116297378D01*
X131664731Y-116290085D01*
X131662477Y-116283125D01*
X131661360Y-116277537D01*
X131660061Y-116272044D01*
X131659214Y-116264776D01*
X131656717Y-116257898D01*
X131656716Y-116257892D01*
X131635021Y-116198126D01*
X131633613Y-116194026D01*
X131611761Y-116126570D01*
X131607963Y-116120311D01*
X131605605Y-116115160D01*
X131603064Y-116110087D01*
X131600568Y-116103210D01*
X131579252Y-116070698D01*
X131561708Y-116043938D01*
X131559361Y-116040219D01*
X131525502Y-115984422D01*
X131522593Y-115979628D01*
X131518884Y-115975429D01*
X131518881Y-115975424D01*
X131515399Y-115971482D01*
X131515418Y-115971465D01*
X131512511Y-115968188D01*
X131510344Y-115965596D01*
X131506327Y-115959469D01*
X131451726Y-115907745D01*
X131449285Y-115905368D01*
X130621405Y-115077488D01*
X130587379Y-115015176D01*
X130584500Y-114988393D01*
X130584500Y-114561600D01*
X130573526Y-114455834D01*
X130517550Y-114288054D01*
X130424478Y-114137652D01*
X130419296Y-114132479D01*
X130419292Y-114132474D01*
X130341582Y-114054900D01*
X130307502Y-113992618D01*
X130312811Y-113920983D01*
X130313014Y-113920450D01*
X130332733Y-113868539D01*
X130358127Y-113687852D01*
X130358446Y-113665000D01*
X130338107Y-113483675D01*
X130278101Y-113311361D01*
X130181411Y-113156624D01*
X130116847Y-113091608D01*
X130057804Y-113032151D01*
X130057800Y-113032148D01*
X130052841Y-113027154D01*
X130041657Y-113020056D01*
X129993451Y-112989464D01*
X129898783Y-112929386D01*
X129792090Y-112891394D01*
X129733527Y-112870540D01*
X129733525Y-112870539D01*
X129726893Y-112868178D01*
X129719907Y-112867345D01*
X129719903Y-112867344D01*
X129590326Y-112851894D01*
X129545714Y-112846574D01*
X129538711Y-112847310D01*
X129538710Y-112847310D01*
X129492475Y-112852170D01*
X129364251Y-112865646D01*
X129357583Y-112867916D01*
X129198190Y-112922178D01*
X129198187Y-112922179D01*
X129191523Y-112924448D01*
X129036114Y-113020056D01*
X128905750Y-113147718D01*
X128806908Y-113301090D01*
X128804499Y-113307710D01*
X128804497Y-113307713D01*
X128746910Y-113465932D01*
X128744502Y-113472549D01*
X128721634Y-113653573D01*
X128722321Y-113660580D01*
X128722321Y-113660583D01*
X128731967Y-113758957D01*
X128739439Y-113835164D01*
X128769093Y-113924306D01*
X128781200Y-113960702D01*
X128783723Y-114031654D01*
X128750814Y-114089493D01*
X128740214Y-114100111D01*
X128677931Y-114134189D01*
X128607111Y-114129184D01*
X128562025Y-114100264D01*
X128479483Y-114017866D01*
X128474303Y-114012695D01*
X128468072Y-114008854D01*
X128329968Y-113923725D01*
X128329966Y-113923724D01*
X128323738Y-113919885D01*
X128163254Y-113866655D01*
X128162389Y-113866368D01*
X128162387Y-113866368D01*
X128155861Y-113864203D01*
X128149025Y-113863503D01*
X128149022Y-113863502D01*
X128105969Y-113859091D01*
X128051400Y-113853500D01*
X127425600Y-113853500D01*
X127422354Y-113853837D01*
X127422350Y-113853837D01*
X127326692Y-113863762D01*
X127326688Y-113863763D01*
X127319834Y-113864474D01*
X127313298Y-113866655D01*
X127313296Y-113866655D01*
X127287918Y-113875122D01*
X127152054Y-113920450D01*
X127001652Y-114013522D01*
X126876695Y-114138697D01*
X126783885Y-114289262D01*
X126728203Y-114457139D01*
X126717500Y-114561600D01*
X126717500Y-115562400D01*
X126728474Y-115668166D01*
X126784450Y-115835946D01*
X126877522Y-115986348D01*
X126882704Y-115991521D01*
X126882708Y-115991526D01*
X126964417Y-116073092D01*
X126998497Y-116135374D01*
X127001400Y-116162265D01*
X127001400Y-116882647D01*
X126981398Y-116950768D01*
X126964573Y-116971664D01*
X126881870Y-117054512D01*
X126881866Y-117054517D01*
X126876695Y-117059697D01*
X126783885Y-117210262D01*
X126728203Y-117378139D01*
X126717500Y-117482600D01*
X126717500Y-118483400D01*
X114808000Y-118483400D01*
X114808000Y-106291600D01*
X122939389Y-106291600D01*
X122939439Y-106294455D01*
X122944081Y-106560400D01*
X122947010Y-106728241D01*
X122994175Y-107162395D01*
X123080493Y-107590488D01*
X123205256Y-108008996D01*
X123367435Y-108414473D01*
X123368733Y-108417020D01*
X123491787Y-108658526D01*
X123565697Y-108803583D01*
X123798408Y-109173123D01*
X124063654Y-109520050D01*
X124359252Y-109841510D01*
X124682767Y-110134856D01*
X125031538Y-110397674D01*
X125402693Y-110627800D01*
X125793178Y-110823340D01*
X125795834Y-110824381D01*
X125795841Y-110824384D01*
X126197124Y-110981645D01*
X126199778Y-110982685D01*
X126202505Y-110983477D01*
X126202516Y-110983481D01*
X126616402Y-111103726D01*
X126616406Y-111103727D01*
X126619146Y-111104523D01*
X127047831Y-111187851D01*
X127256627Y-111209060D01*
X127480016Y-111231751D01*
X127480027Y-111231752D01*
X127482304Y-111231983D01*
X127572418Y-111234500D01*
X129660847Y-111234500D01*
X129662247Y-111234436D01*
X129662266Y-111234436D01*
X129818752Y-111227330D01*
X129987259Y-111219678D01*
X129990080Y-111219292D01*
X129990086Y-111219291D01*
X130223577Y-111187306D01*
X130419927Y-111160409D01*
X130422696Y-111159770D01*
X130422700Y-111159769D01*
X130540774Y-111132509D01*
X130845442Y-111062171D01*
X131090364Y-110981645D01*
X131257588Y-110926665D01*
X131257595Y-110926662D01*
X131260303Y-110925772D01*
X131661094Y-110752334D01*
X132044517Y-110543286D01*
X132264602Y-110395952D01*
X132405038Y-110301939D01*
X132405049Y-110301931D01*
X132407415Y-110300347D01*
X132746801Y-110025517D01*
X133059882Y-109721059D01*
X133344080Y-109389479D01*
X133597057Y-109033506D01*
X133729466Y-108806005D01*
X133815301Y-108658526D01*
X133815305Y-108658519D01*
X133816730Y-108656070D01*
X133930629Y-108411813D01*
X134000081Y-108262874D01*
X134000085Y-108262864D01*
X134001291Y-108260278D01*
X134002262Y-108257581D01*
X134148253Y-107852077D01*
X134148256Y-107852068D01*
X134149221Y-107849387D01*
X134259302Y-107426780D01*
X134330628Y-106995936D01*
X134350078Y-106731078D01*
X134362402Y-106563246D01*
X134362611Y-106560400D01*
X134357969Y-106294455D01*
X134355040Y-106126610D01*
X134355040Y-106126605D01*
X134354990Y-106123759D01*
X134307825Y-105689605D01*
X134221507Y-105261512D01*
X134096744Y-104843004D01*
X133934565Y-104437527D01*
X133811465Y-104195930D01*
X133737599Y-104050960D01*
X133737596Y-104050955D01*
X133736303Y-104048417D01*
X133503592Y-103678877D01*
X133238346Y-103331950D01*
X132942748Y-103010490D01*
X132619233Y-102717144D01*
X132270462Y-102454326D01*
X131899307Y-102224200D01*
X131508822Y-102028660D01*
X131506166Y-102027619D01*
X131506159Y-102027616D01*
X131104876Y-101870355D01*
X131104874Y-101870354D01*
X131102222Y-101869315D01*
X131099495Y-101868523D01*
X131099484Y-101868519D01*
X130685598Y-101748274D01*
X130685594Y-101748273D01*
X130682854Y-101747477D01*
X130254169Y-101664149D01*
X130045373Y-101642940D01*
X129821984Y-101620249D01*
X129821973Y-101620248D01*
X129819696Y-101620017D01*
X129729582Y-101617500D01*
X127641153Y-101617500D01*
X127639753Y-101617564D01*
X127639734Y-101617564D01*
X127483248Y-101624670D01*
X127314741Y-101632322D01*
X127311920Y-101632708D01*
X127311914Y-101632709D01*
X127098407Y-101661957D01*
X126882073Y-101691591D01*
X126879304Y-101692230D01*
X126879300Y-101692231D01*
X126761227Y-101719491D01*
X126456558Y-101789829D01*
X126453845Y-101790721D01*
X126044412Y-101925335D01*
X126044405Y-101925338D01*
X126041697Y-101926228D01*
X125640906Y-102099666D01*
X125257483Y-102308714D01*
X125129453Y-102394423D01*
X124896962Y-102550061D01*
X124896951Y-102550069D01*
X124894585Y-102551653D01*
X124555199Y-102826483D01*
X124242118Y-103130941D01*
X123957920Y-103462521D01*
X123704943Y-103818494D01*
X123703506Y-103820963D01*
X123569645Y-104050960D01*
X123485270Y-104195930D01*
X123484068Y-104198508D01*
X123301919Y-104589126D01*
X123301915Y-104589136D01*
X123300709Y-104591722D01*
X123299738Y-104594419D01*
X123211201Y-104840341D01*
X123152779Y-105002613D01*
X123042698Y-105425220D01*
X122971372Y-105856064D01*
X122971163Y-105858907D01*
X122971163Y-105858909D01*
X122951714Y-106123759D01*
X122939389Y-106291600D01*
X114808000Y-106291600D01*
X114808000Y-73170368D01*
X114828002Y-73102247D01*
X114881658Y-73055754D01*
X114951932Y-73045650D01*
X114977913Y-73052268D01*
X114991000Y-73057135D01*
X115171860Y-73081267D01*
X115178871Y-73080629D01*
X115178875Y-73080629D01*
X115318580Y-73067914D01*
X115353571Y-73064729D01*
X115360273Y-73062551D01*
X115360275Y-73062551D01*
X115520405Y-73010522D01*
X115520408Y-73010521D01*
X115527104Y-73008345D01*
X115551952Y-72993533D01*
X115677777Y-72918527D01*
X115677780Y-72918525D01*
X115683832Y-72914917D01*
X115755139Y-72847012D01*
X115810862Y-72793948D01*
X115810864Y-72793945D01*
X115815966Y-72789087D01*
X115916939Y-72637110D01*
X115931938Y-72597625D01*
X115979233Y-72473122D01*
X115979234Y-72473117D01*
X115981733Y-72466539D01*
X116007127Y-72285852D01*
X116007446Y-72263000D01*
X115994664Y-72149045D01*
X116006948Y-72079119D01*
X116055087Y-72026935D01*
X116119879Y-72009000D01*
X116968000Y-72009000D01*
X117036121Y-72029002D01*
G37*
G04 #@! TD.AperFunction*
M02*
