G04 #@! TF.GenerationSoftware,KiCad,Pcbnew,6.0.2+dfsg-1*
G04 #@! TF.CreationDate,2024-06-30T21:19:04-06:00*
G04 #@! TF.ProjectId,ckt-axle,636b742d-6178-46c6-952e-6b696361645f,rev?*
G04 #@! TF.SameCoordinates,Original*
G04 #@! TF.FileFunction,Soldermask,Top*
G04 #@! TF.FilePolarity,Negative*
%FSLAX46Y46*%
G04 Gerber Fmt 4.6, Leading zero omitted, Abs format (unit mm)*
G04 Created by KiCad (PCBNEW 6.0.2+dfsg-1) date 2024-06-30 21:19:04*
%MOMM*%
%LPD*%
G01*
G04 APERTURE LIST*
%ADD10O,10.552400X8.752400*%
G04 APERTURE END LIST*
G36*
G01*
X140049800Y-70995250D02*
X140049800Y-70482750D01*
G75*
G02*
X140344750Y-70187800I294950J0D01*
G01*
X140782250Y-70187800D01*
G75*
G02*
X141077200Y-70482750I0J-294950D01*
G01*
X141077200Y-70995250D01*
G75*
G02*
X140782250Y-71290200I-294950J0D01*
G01*
X140344750Y-71290200D01*
G75*
G02*
X140049800Y-70995250I0J294950D01*
G01*
G37*
G36*
G01*
X141624800Y-70995250D02*
X141624800Y-70482750D01*
G75*
G02*
X141919750Y-70187800I294950J0D01*
G01*
X142357250Y-70187800D01*
G75*
G02*
X142652200Y-70482750I0J-294950D01*
G01*
X142652200Y-70995250D01*
G75*
G02*
X142357250Y-71290200I-294950J0D01*
G01*
X141919750Y-71290200D01*
G75*
G02*
X141624800Y-70995250I0J294950D01*
G01*
G37*
G36*
G01*
X126774800Y-122196000D02*
X126774800Y-120946000D01*
G75*
G02*
X127001000Y-120719800I226200J0D01*
G01*
X127301000Y-120719800D01*
G75*
G02*
X127527200Y-120946000I0J-226200D01*
G01*
X127527200Y-122196000D01*
G75*
G02*
X127301000Y-122422200I-226200J0D01*
G01*
X127001000Y-122422200D01*
G75*
G02*
X126774800Y-122196000I0J226200D01*
G01*
G37*
G36*
G01*
X127774800Y-122196000D02*
X127774800Y-120946000D01*
G75*
G02*
X128001000Y-120719800I226200J0D01*
G01*
X128301000Y-120719800D01*
G75*
G02*
X128527200Y-120946000I0J-226200D01*
G01*
X128527200Y-122196000D01*
G75*
G02*
X128301000Y-122422200I-226200J0D01*
G01*
X128001000Y-122422200D01*
G75*
G02*
X127774800Y-122196000I0J226200D01*
G01*
G37*
G36*
G01*
X128774800Y-122196000D02*
X128774800Y-120946000D01*
G75*
G02*
X129001000Y-120719800I226200J0D01*
G01*
X129301000Y-120719800D01*
G75*
G02*
X129527200Y-120946000I0J-226200D01*
G01*
X129527200Y-122196000D01*
G75*
G02*
X129301000Y-122422200I-226200J0D01*
G01*
X129001000Y-122422200D01*
G75*
G02*
X128774800Y-122196000I0J226200D01*
G01*
G37*
G36*
G01*
X129774800Y-122196000D02*
X129774800Y-120946000D01*
G75*
G02*
X130001000Y-120719800I226200J0D01*
G01*
X130301000Y-120719800D01*
G75*
G02*
X130527200Y-120946000I0J-226200D01*
G01*
X130527200Y-122196000D01*
G75*
G02*
X130301000Y-122422200I-226200J0D01*
G01*
X130001000Y-122422200D01*
G75*
G02*
X129774800Y-122196000I0J226200D01*
G01*
G37*
G36*
G01*
X130774800Y-126096000D02*
X130774800Y-124796000D01*
G75*
G02*
X131101000Y-124469800I326200J0D01*
G01*
X131801000Y-124469800D01*
G75*
G02*
X132127200Y-124796000I0J-326200D01*
G01*
X132127200Y-126096000D01*
G75*
G02*
X131801000Y-126422200I-326200J0D01*
G01*
X131101000Y-126422200D01*
G75*
G02*
X130774800Y-126096000I0J326200D01*
G01*
G37*
G36*
G01*
X125174800Y-126096000D02*
X125174800Y-124796000D01*
G75*
G02*
X125501000Y-124469800I326200J0D01*
G01*
X126201000Y-124469800D01*
G75*
G02*
X126527200Y-124796000I0J-326200D01*
G01*
X126527200Y-126096000D01*
G75*
G02*
X126201000Y-126422200I-326200J0D01*
G01*
X125501000Y-126422200D01*
G75*
G02*
X125174800Y-126096000I0J326200D01*
G01*
G37*
G36*
G01*
X130152200Y-117533000D02*
X130152200Y-118433000D01*
G75*
G02*
X129826000Y-118759200I-326200J0D01*
G01*
X129301000Y-118759200D01*
G75*
G02*
X128974800Y-118433000I0J326200D01*
G01*
X128974800Y-117533000D01*
G75*
G02*
X129301000Y-117206800I326200J0D01*
G01*
X129826000Y-117206800D01*
G75*
G02*
X130152200Y-117533000I0J-326200D01*
G01*
G37*
G36*
G01*
X128327200Y-117533000D02*
X128327200Y-118433000D01*
G75*
G02*
X128001000Y-118759200I-326200J0D01*
G01*
X127476000Y-118759200D01*
G75*
G02*
X127149800Y-118433000I0J326200D01*
G01*
X127149800Y-117533000D01*
G75*
G02*
X127476000Y-117206800I326200J0D01*
G01*
X128001000Y-117206800D01*
G75*
G02*
X128327200Y-117533000I0J-326200D01*
G01*
G37*
G36*
G01*
X130152200Y-114612000D02*
X130152200Y-115512000D01*
G75*
G02*
X129826000Y-115838200I-326200J0D01*
G01*
X129301000Y-115838200D01*
G75*
G02*
X128974800Y-115512000I0J326200D01*
G01*
X128974800Y-114612000D01*
G75*
G02*
X129301000Y-114285800I326200J0D01*
G01*
X129826000Y-114285800D01*
G75*
G02*
X130152200Y-114612000I0J-326200D01*
G01*
G37*
G36*
G01*
X128327200Y-114612000D02*
X128327200Y-115512000D01*
G75*
G02*
X128001000Y-115838200I-326200J0D01*
G01*
X127476000Y-115838200D01*
G75*
G02*
X127149800Y-115512000I0J326200D01*
G01*
X127149800Y-114612000D01*
G75*
G02*
X127476000Y-114285800I326200J0D01*
G01*
X128001000Y-114285800D01*
G75*
G02*
X128327200Y-114612000I0J-326200D01*
G01*
G37*
G36*
G01*
X117252200Y-70482750D02*
X117252200Y-70995250D01*
G75*
G02*
X116957250Y-71290200I-294950J0D01*
G01*
X116519750Y-71290200D01*
G75*
G02*
X116224800Y-70995250I0J294950D01*
G01*
X116224800Y-70482750D01*
G75*
G02*
X116519750Y-70187800I294950J0D01*
G01*
X116957250Y-70187800D01*
G75*
G02*
X117252200Y-70482750I0J-294950D01*
G01*
G37*
G36*
G01*
X115677200Y-70482750D02*
X115677200Y-70995250D01*
G75*
G02*
X115382250Y-71290200I-294950J0D01*
G01*
X114944750Y-71290200D01*
G75*
G02*
X114649800Y-70995250I0J294950D01*
G01*
X114649800Y-70482750D01*
G75*
G02*
X114944750Y-70187800I294950J0D01*
G01*
X115382250Y-70187800D01*
G75*
G02*
X115677200Y-70482750I0J-294950D01*
G01*
G37*
D10*
X128651000Y-106426000D03*
M02*
