G04 #@! TF.GenerationSoftware,KiCad,Pcbnew,6.0.10-86aedd382b~118~ubuntu18.04.1*
G04 #@! TF.CreationDate,2024-08-26T14:17:38-06:00*
G04 #@! TF.ProjectId,ckt-axle,636b742d-6178-46c6-952e-6b696361645f,rev?*
G04 #@! TF.SameCoordinates,Original*
G04 #@! TF.FileFunction,Copper,L1,Top*
G04 #@! TF.FilePolarity,Positive*
%FSLAX46Y46*%
G04 Gerber Fmt 4.6, Leading zero omitted, Abs format (unit mm)*
G04 Created by KiCad (PCBNEW 6.0.10-86aedd382b~118~ubuntu18.04.1) date 2024-08-26 14:17:38*
%MOMM*%
%LPD*%
G01*
G04 APERTURE LIST*
G04 #@! TA.AperFunction,ComponentPad*
%ADD10O,10.400000X8.600000*%
G04 #@! TD*
G04 #@! TA.AperFunction,ViaPad*
%ADD11C,0.609600*%
G04 #@! TD*
G04 #@! TA.AperFunction,Conductor*
%ADD12C,0.457200*%
G04 #@! TD*
G04 #@! TA.AperFunction,Conductor*
%ADD13C,0.254000*%
G04 #@! TD*
G04 APERTURE END LIST*
G04 #@! TA.AperFunction,SMDPad,CuDef*
G36*
G01*
X118646000Y-119057000D02*
X118646000Y-119957000D01*
G75*
G02*
X118396000Y-120207000I-250000J0D01*
G01*
X117871000Y-120207000D01*
G75*
G02*
X117621000Y-119957000I0J250000D01*
G01*
X117621000Y-119057000D01*
G75*
G02*
X117871000Y-118807000I250000J0D01*
G01*
X118396000Y-118807000D01*
G75*
G02*
X118646000Y-119057000I0J-250000D01*
G01*
G37*
G04 #@! TD.AperFunction*
G04 #@! TA.AperFunction,SMDPad,CuDef*
G36*
G01*
X116821000Y-119057000D02*
X116821000Y-119957000D01*
G75*
G02*
X116571000Y-120207000I-250000J0D01*
G01*
X116046000Y-120207000D01*
G75*
G02*
X115796000Y-119957000I0J250000D01*
G01*
X115796000Y-119057000D01*
G75*
G02*
X116046000Y-118807000I250000J0D01*
G01*
X116571000Y-118807000D01*
G75*
G02*
X116821000Y-119057000I0J-250000D01*
G01*
G37*
G04 #@! TD.AperFunction*
G04 #@! TA.AperFunction,SMDPad,CuDef*
G36*
G01*
X121257000Y-123513000D02*
X121257000Y-122613000D01*
G75*
G02*
X121507000Y-122363000I250000J0D01*
G01*
X122032000Y-122363000D01*
G75*
G02*
X122282000Y-122613000I0J-250000D01*
G01*
X122282000Y-123513000D01*
G75*
G02*
X122032000Y-123763000I-250000J0D01*
G01*
X121507000Y-123763000D01*
G75*
G02*
X121257000Y-123513000I0J250000D01*
G01*
G37*
G04 #@! TD.AperFunction*
G04 #@! TA.AperFunction,SMDPad,CuDef*
G36*
G01*
X123082000Y-123513000D02*
X123082000Y-122613000D01*
G75*
G02*
X123332000Y-122363000I250000J0D01*
G01*
X123857000Y-122363000D01*
G75*
G02*
X124107000Y-122613000I0J-250000D01*
G01*
X124107000Y-123513000D01*
G75*
G02*
X123857000Y-123763000I-250000J0D01*
G01*
X123332000Y-123763000D01*
G75*
G02*
X123082000Y-123513000I0J250000D01*
G01*
G37*
G04 #@! TD.AperFunction*
G04 #@! TA.AperFunction,SMDPad,CuDef*
G36*
G01*
X126851000Y-122196000D02*
X126851000Y-120946000D01*
G75*
G02*
X127001000Y-120796000I150000J0D01*
G01*
X127301000Y-120796000D01*
G75*
G02*
X127451000Y-120946000I0J-150000D01*
G01*
X127451000Y-122196000D01*
G75*
G02*
X127301000Y-122346000I-150000J0D01*
G01*
X127001000Y-122346000D01*
G75*
G02*
X126851000Y-122196000I0J150000D01*
G01*
G37*
G04 #@! TD.AperFunction*
G04 #@! TA.AperFunction,SMDPad,CuDef*
G36*
G01*
X127851000Y-122196000D02*
X127851000Y-120946000D01*
G75*
G02*
X128001000Y-120796000I150000J0D01*
G01*
X128301000Y-120796000D01*
G75*
G02*
X128451000Y-120946000I0J-150000D01*
G01*
X128451000Y-122196000D01*
G75*
G02*
X128301000Y-122346000I-150000J0D01*
G01*
X128001000Y-122346000D01*
G75*
G02*
X127851000Y-122196000I0J150000D01*
G01*
G37*
G04 #@! TD.AperFunction*
G04 #@! TA.AperFunction,SMDPad,CuDef*
G36*
G01*
X128851000Y-122196000D02*
X128851000Y-120946000D01*
G75*
G02*
X129001000Y-120796000I150000J0D01*
G01*
X129301000Y-120796000D01*
G75*
G02*
X129451000Y-120946000I0J-150000D01*
G01*
X129451000Y-122196000D01*
G75*
G02*
X129301000Y-122346000I-150000J0D01*
G01*
X129001000Y-122346000D01*
G75*
G02*
X128851000Y-122196000I0J150000D01*
G01*
G37*
G04 #@! TD.AperFunction*
G04 #@! TA.AperFunction,SMDPad,CuDef*
G36*
G01*
X129851000Y-122196000D02*
X129851000Y-120946000D01*
G75*
G02*
X130001000Y-120796000I150000J0D01*
G01*
X130301000Y-120796000D01*
G75*
G02*
X130451000Y-120946000I0J-150000D01*
G01*
X130451000Y-122196000D01*
G75*
G02*
X130301000Y-122346000I-150000J0D01*
G01*
X130001000Y-122346000D01*
G75*
G02*
X129851000Y-122196000I0J150000D01*
G01*
G37*
G04 #@! TD.AperFunction*
G04 #@! TA.AperFunction,SMDPad,CuDef*
G36*
G01*
X130851000Y-126096000D02*
X130851000Y-124796000D01*
G75*
G02*
X131101000Y-124546000I250000J0D01*
G01*
X131801000Y-124546000D01*
G75*
G02*
X132051000Y-124796000I0J-250000D01*
G01*
X132051000Y-126096000D01*
G75*
G02*
X131801000Y-126346000I-250000J0D01*
G01*
X131101000Y-126346000D01*
G75*
G02*
X130851000Y-126096000I0J250000D01*
G01*
G37*
G04 #@! TD.AperFunction*
G04 #@! TA.AperFunction,SMDPad,CuDef*
G36*
G01*
X125251000Y-126096000D02*
X125251000Y-124796000D01*
G75*
G02*
X125501000Y-124546000I250000J0D01*
G01*
X126201000Y-124546000D01*
G75*
G02*
X126451000Y-124796000I0J-250000D01*
G01*
X126451000Y-126096000D01*
G75*
G02*
X126201000Y-126346000I-250000J0D01*
G01*
X125501000Y-126346000D01*
G75*
G02*
X125251000Y-126096000I0J250000D01*
G01*
G37*
G04 #@! TD.AperFunction*
G04 #@! TA.AperFunction,SMDPad,CuDef*
G36*
G01*
X124940000Y-117417000D02*
X124940000Y-116517000D01*
G75*
G02*
X125190000Y-116267000I250000J0D01*
G01*
X125715000Y-116267000D01*
G75*
G02*
X125965000Y-116517000I0J-250000D01*
G01*
X125965000Y-117417000D01*
G75*
G02*
X125715000Y-117667000I-250000J0D01*
G01*
X125190000Y-117667000D01*
G75*
G02*
X124940000Y-117417000I0J250000D01*
G01*
G37*
G04 #@! TD.AperFunction*
G04 #@! TA.AperFunction,SMDPad,CuDef*
G36*
G01*
X126765000Y-117417000D02*
X126765000Y-116517000D01*
G75*
G02*
X127015000Y-116267000I250000J0D01*
G01*
X127540000Y-116267000D01*
G75*
G02*
X127790000Y-116517000I0J-250000D01*
G01*
X127790000Y-117417000D01*
G75*
G02*
X127540000Y-117667000I-250000J0D01*
G01*
X127015000Y-117667000D01*
G75*
G02*
X126765000Y-117417000I0J250000D01*
G01*
G37*
G04 #@! TD.AperFunction*
G04 #@! TA.AperFunction,SMDPad,CuDef*
G36*
G01*
X132362000Y-116517000D02*
X132362000Y-117417000D01*
G75*
G02*
X132112000Y-117667000I-250000J0D01*
G01*
X131587000Y-117667000D01*
G75*
G02*
X131337000Y-117417000I0J250000D01*
G01*
X131337000Y-116517000D01*
G75*
G02*
X131587000Y-116267000I250000J0D01*
G01*
X132112000Y-116267000D01*
G75*
G02*
X132362000Y-116517000I0J-250000D01*
G01*
G37*
G04 #@! TD.AperFunction*
G04 #@! TA.AperFunction,SMDPad,CuDef*
G36*
G01*
X130537000Y-116517000D02*
X130537000Y-117417000D01*
G75*
G02*
X130287000Y-117667000I-250000J0D01*
G01*
X129762000Y-117667000D01*
G75*
G02*
X129512000Y-117417000I0J250000D01*
G01*
X129512000Y-116517000D01*
G75*
G02*
X129762000Y-116267000I250000J0D01*
G01*
X130287000Y-116267000D01*
G75*
G02*
X130537000Y-116517000I0J-250000D01*
G01*
G37*
G04 #@! TD.AperFunction*
G04 #@! TA.AperFunction,SMDPad,CuDef*
G36*
G01*
X120236000Y-117170000D02*
X119926000Y-117170000D01*
G75*
G02*
X119771000Y-117015000I0J155000D01*
G01*
X119771000Y-116625000D01*
G75*
G02*
X119926000Y-116470000I155000J0D01*
G01*
X120236000Y-116470000D01*
G75*
G02*
X120391000Y-116625000I0J-155000D01*
G01*
X120391000Y-117015000D01*
G75*
G02*
X120236000Y-117170000I-155000J0D01*
G01*
G37*
G04 #@! TD.AperFunction*
G04 #@! TA.AperFunction,SMDPad,CuDef*
G36*
G01*
X121186000Y-117170000D02*
X120876000Y-117170000D01*
G75*
G02*
X120721000Y-117015000I0J155000D01*
G01*
X120721000Y-116625000D01*
G75*
G02*
X120876000Y-116470000I155000J0D01*
G01*
X121186000Y-116470000D01*
G75*
G02*
X121341000Y-116625000I0J-155000D01*
G01*
X121341000Y-117015000D01*
G75*
G02*
X121186000Y-117170000I-155000J0D01*
G01*
G37*
G04 #@! TD.AperFunction*
G04 #@! TA.AperFunction,SMDPad,CuDef*
G36*
G01*
X122136000Y-117170000D02*
X121826000Y-117170000D01*
G75*
G02*
X121671000Y-117015000I0J155000D01*
G01*
X121671000Y-116625000D01*
G75*
G02*
X121826000Y-116470000I155000J0D01*
G01*
X122136000Y-116470000D01*
G75*
G02*
X122291000Y-116625000I0J-155000D01*
G01*
X122291000Y-117015000D01*
G75*
G02*
X122136000Y-117170000I-155000J0D01*
G01*
G37*
G04 #@! TD.AperFunction*
G04 #@! TA.AperFunction,SMDPad,CuDef*
G36*
G01*
X122136000Y-114670000D02*
X121826000Y-114670000D01*
G75*
G02*
X121671000Y-114515000I0J155000D01*
G01*
X121671000Y-114125000D01*
G75*
G02*
X121826000Y-113970000I155000J0D01*
G01*
X122136000Y-113970000D01*
G75*
G02*
X122291000Y-114125000I0J-155000D01*
G01*
X122291000Y-114515000D01*
G75*
G02*
X122136000Y-114670000I-155000J0D01*
G01*
G37*
G04 #@! TD.AperFunction*
G04 #@! TA.AperFunction,SMDPad,CuDef*
G36*
G01*
X121186000Y-114670000D02*
X120876000Y-114670000D01*
G75*
G02*
X120721000Y-114515000I0J155000D01*
G01*
X120721000Y-114125000D01*
G75*
G02*
X120876000Y-113970000I155000J0D01*
G01*
X121186000Y-113970000D01*
G75*
G02*
X121341000Y-114125000I0J-155000D01*
G01*
X121341000Y-114515000D01*
G75*
G02*
X121186000Y-114670000I-155000J0D01*
G01*
G37*
G04 #@! TD.AperFunction*
G04 #@! TA.AperFunction,SMDPad,CuDef*
G36*
G01*
X120236000Y-114670000D02*
X119926000Y-114670000D01*
G75*
G02*
X119771000Y-114515000I0J155000D01*
G01*
X119771000Y-114125000D01*
G75*
G02*
X119926000Y-113970000I155000J0D01*
G01*
X120236000Y-113970000D01*
G75*
G02*
X120391000Y-114125000I0J-155000D01*
G01*
X120391000Y-114515000D01*
G75*
G02*
X120236000Y-114670000I-155000J0D01*
G01*
G37*
G04 #@! TD.AperFunction*
G04 #@! TA.AperFunction,SMDPad,CuDef*
G36*
G01*
X120216000Y-119982000D02*
X120216000Y-119032000D01*
G75*
G02*
X120466000Y-118782000I250000J0D01*
G01*
X120966000Y-118782000D01*
G75*
G02*
X121216000Y-119032000I0J-250000D01*
G01*
X121216000Y-119982000D01*
G75*
G02*
X120966000Y-120232000I-250000J0D01*
G01*
X120466000Y-120232000D01*
G75*
G02*
X120216000Y-119982000I0J250000D01*
G01*
G37*
G04 #@! TD.AperFunction*
G04 #@! TA.AperFunction,SMDPad,CuDef*
G36*
G01*
X122116000Y-119982000D02*
X122116000Y-119032000D01*
G75*
G02*
X122366000Y-118782000I250000J0D01*
G01*
X122866000Y-118782000D01*
G75*
G02*
X123116000Y-119032000I0J-250000D01*
G01*
X123116000Y-119982000D01*
G75*
G02*
X122866000Y-120232000I-250000J0D01*
G01*
X122366000Y-120232000D01*
G75*
G02*
X122116000Y-119982000I0J250000D01*
G01*
G37*
G04 #@! TD.AperFunction*
G04 #@! TA.AperFunction,SMDPad,CuDef*
G36*
G01*
X141976000Y-48888000D02*
X140726000Y-48888000D01*
G75*
G02*
X140476000Y-48638000I0J250000D01*
G01*
X140476000Y-47888000D01*
G75*
G02*
X140726000Y-47638000I250000J0D01*
G01*
X141976000Y-47638000D01*
G75*
G02*
X142226000Y-47888000I0J-250000D01*
G01*
X142226000Y-48638000D01*
G75*
G02*
X141976000Y-48888000I-250000J0D01*
G01*
G37*
G04 #@! TD.AperFunction*
G04 #@! TA.AperFunction,SMDPad,CuDef*
G36*
G01*
X141976000Y-46088000D02*
X140726000Y-46088000D01*
G75*
G02*
X140476000Y-45838000I0J250000D01*
G01*
X140476000Y-45088000D01*
G75*
G02*
X140726000Y-44838000I250000J0D01*
G01*
X141976000Y-44838000D01*
G75*
G02*
X142226000Y-45088000I0J-250000D01*
G01*
X142226000Y-45838000D01*
G75*
G02*
X141976000Y-46088000I-250000J0D01*
G01*
G37*
G04 #@! TD.AperFunction*
G04 #@! TA.AperFunction,SMDPad,CuDef*
G36*
G01*
X116576000Y-48888000D02*
X115326000Y-48888000D01*
G75*
G02*
X115076000Y-48638000I0J250000D01*
G01*
X115076000Y-47888000D01*
G75*
G02*
X115326000Y-47638000I250000J0D01*
G01*
X116576000Y-47638000D01*
G75*
G02*
X116826000Y-47888000I0J-250000D01*
G01*
X116826000Y-48638000D01*
G75*
G02*
X116576000Y-48888000I-250000J0D01*
G01*
G37*
G04 #@! TD.AperFunction*
G04 #@! TA.AperFunction,SMDPad,CuDef*
G36*
G01*
X116576000Y-46088000D02*
X115326000Y-46088000D01*
G75*
G02*
X115076000Y-45838000I0J250000D01*
G01*
X115076000Y-45088000D01*
G75*
G02*
X115326000Y-44838000I250000J0D01*
G01*
X116576000Y-44838000D01*
G75*
G02*
X116826000Y-45088000I0J-250000D01*
G01*
X116826000Y-45838000D01*
G75*
G02*
X116576000Y-46088000I-250000J0D01*
G01*
G37*
G04 #@! TD.AperFunction*
G04 #@! TA.AperFunction,SMDPad,CuDef*
G36*
G01*
X140791250Y-124488000D02*
X139878750Y-124488000D01*
G75*
G02*
X139635000Y-124244250I0J243750D01*
G01*
X139635000Y-123756750D01*
G75*
G02*
X139878750Y-123513000I243750J0D01*
G01*
X140791250Y-123513000D01*
G75*
G02*
X141035000Y-123756750I0J-243750D01*
G01*
X141035000Y-124244250D01*
G75*
G02*
X140791250Y-124488000I-243750J0D01*
G01*
G37*
G04 #@! TD.AperFunction*
G04 #@! TA.AperFunction,SMDPad,CuDef*
G36*
G01*
X140791250Y-122613000D02*
X139878750Y-122613000D01*
G75*
G02*
X139635000Y-122369250I0J243750D01*
G01*
X139635000Y-121881750D01*
G75*
G02*
X139878750Y-121638000I243750J0D01*
G01*
X140791250Y-121638000D01*
G75*
G02*
X141035000Y-121881750I0J-243750D01*
G01*
X141035000Y-122369250D01*
G75*
G02*
X140791250Y-122613000I-243750J0D01*
G01*
G37*
G04 #@! TD.AperFunction*
G04 #@! TA.AperFunction,SMDPad,CuDef*
G36*
G01*
X135324000Y-123345000D02*
X134424000Y-123345000D01*
G75*
G02*
X134174000Y-123095000I0J250000D01*
G01*
X134174000Y-122570000D01*
G75*
G02*
X134424000Y-122320000I250000J0D01*
G01*
X135324000Y-122320000D01*
G75*
G02*
X135574000Y-122570000I0J-250000D01*
G01*
X135574000Y-123095000D01*
G75*
G02*
X135324000Y-123345000I-250000J0D01*
G01*
G37*
G04 #@! TD.AperFunction*
G04 #@! TA.AperFunction,SMDPad,CuDef*
G36*
G01*
X135324000Y-121520000D02*
X134424000Y-121520000D01*
G75*
G02*
X134174000Y-121270000I0J250000D01*
G01*
X134174000Y-120745000D01*
G75*
G02*
X134424000Y-120495000I250000J0D01*
G01*
X135324000Y-120495000D01*
G75*
G02*
X135574000Y-120745000I0J-250000D01*
G01*
X135574000Y-121270000D01*
G75*
G02*
X135324000Y-121520000I-250000J0D01*
G01*
G37*
G04 #@! TD.AperFunction*
D10*
X128651000Y-106426000D03*
G04 #@! TA.AperFunction,SMDPad,CuDef*
G36*
G01*
X117423250Y-124488000D02*
X116510750Y-124488000D01*
G75*
G02*
X116267000Y-124244250I0J243750D01*
G01*
X116267000Y-123756750D01*
G75*
G02*
X116510750Y-123513000I243750J0D01*
G01*
X117423250Y-123513000D01*
G75*
G02*
X117667000Y-123756750I0J-243750D01*
G01*
X117667000Y-124244250D01*
G75*
G02*
X117423250Y-124488000I-243750J0D01*
G01*
G37*
G04 #@! TD.AperFunction*
G04 #@! TA.AperFunction,SMDPad,CuDef*
G36*
G01*
X117423250Y-122613000D02*
X116510750Y-122613000D01*
G75*
G02*
X116267000Y-122369250I0J243750D01*
G01*
X116267000Y-121881750D01*
G75*
G02*
X116510750Y-121638000I243750J0D01*
G01*
X117423250Y-121638000D01*
G75*
G02*
X117667000Y-121881750I0J-243750D01*
G01*
X117667000Y-122369250D01*
G75*
G02*
X117423250Y-122613000I-243750J0D01*
G01*
G37*
G04 #@! TD.AperFunction*
G04 #@! TA.AperFunction,SMDPad,CuDef*
G36*
G01*
X140785000Y-120170000D02*
X139885000Y-120170000D01*
G75*
G02*
X139635000Y-119920000I0J250000D01*
G01*
X139635000Y-119395000D01*
G75*
G02*
X139885000Y-119145000I250000J0D01*
G01*
X140785000Y-119145000D01*
G75*
G02*
X141035000Y-119395000I0J-250000D01*
G01*
X141035000Y-119920000D01*
G75*
G02*
X140785000Y-120170000I-250000J0D01*
G01*
G37*
G04 #@! TD.AperFunction*
G04 #@! TA.AperFunction,SMDPad,CuDef*
G36*
G01*
X140785000Y-118345000D02*
X139885000Y-118345000D01*
G75*
G02*
X139635000Y-118095000I0J250000D01*
G01*
X139635000Y-117570000D01*
G75*
G02*
X139885000Y-117320000I250000J0D01*
G01*
X140785000Y-117320000D01*
G75*
G02*
X141035000Y-117570000I0J-250000D01*
G01*
X141035000Y-118095000D01*
G75*
G02*
X140785000Y-118345000I-250000J0D01*
G01*
G37*
G04 #@! TD.AperFunction*
D11*
X129540000Y-125349000D03*
X118491000Y-124079000D03*
X128651000Y-125349000D03*
X121031000Y-117983000D03*
X120015000Y-117983000D03*
X127762000Y-125349000D03*
X122047000Y-117983000D03*
X119380000Y-124079000D03*
X115951000Y-46736000D03*
X125476000Y-115443000D03*
X141351000Y-46736000D03*
X131826000Y-115443000D03*
D12*
X141351000Y-48263000D02*
X141351000Y-50419000D01*
X125476000Y-115443000D02*
X125476000Y-116943500D01*
X125476000Y-116943500D02*
X125452500Y-116967000D01*
X115951000Y-46736000D02*
X115951000Y-45463000D01*
X137033000Y-119761000D02*
X138961500Y-117832500D01*
X130024500Y-116967000D02*
X130024500Y-119737500D01*
X128151000Y-121571000D02*
X128151000Y-122547000D01*
X130048000Y-119761000D02*
X128159000Y-119761000D01*
X127762000Y-122936000D02*
X123721500Y-122936000D01*
X130048000Y-119761000D02*
X137033000Y-119761000D01*
X128151000Y-122547000D02*
X127762000Y-122936000D01*
X127277500Y-118895500D02*
X127277500Y-116967000D01*
X134874000Y-119761000D02*
X134874000Y-121007500D01*
X130024500Y-119737500D02*
X130048000Y-119761000D01*
X138961500Y-117832500D02*
X140335000Y-117832500D01*
X128151000Y-119769000D02*
X127277500Y-118895500D01*
X128159000Y-119761000D02*
X128151000Y-119769000D01*
X128151000Y-121571000D02*
X128151000Y-119769000D01*
X115951000Y-48263000D02*
X115951000Y-113411000D01*
X116860000Y-114320000D02*
X120081000Y-114320000D01*
X115951000Y-113411000D02*
X116860000Y-114320000D01*
D13*
X115697000Y-124714000D02*
X115697000Y-121221500D01*
X115951000Y-124968000D02*
X115697000Y-124714000D01*
X116308500Y-120610000D02*
X116308500Y-119507000D01*
X115697000Y-121221500D02*
X116308500Y-120610000D01*
X123571000Y-124968000D02*
X115951000Y-124968000D01*
X129151000Y-121571000D02*
X129151000Y-122944000D01*
X129151000Y-122944000D02*
X128524000Y-123571000D01*
X128524000Y-123571000D02*
X124968000Y-123571000D01*
X124968000Y-123571000D02*
X123571000Y-124968000D01*
X140335000Y-120292500D02*
X140335000Y-122125500D01*
X121539000Y-112903000D02*
X121031000Y-113411000D01*
X121031000Y-113411000D02*
X121031000Y-114320000D01*
X129286000Y-112903000D02*
X121539000Y-112903000D01*
D12*
X131826000Y-115443000D02*
X131826000Y-117578500D01*
X141351000Y-46736000D02*
X141351000Y-45463000D01*
D13*
X131826000Y-115443000D02*
X129286000Y-112903000D01*
X121539000Y-115316000D02*
X121981000Y-115758000D01*
X131223000Y-121571000D02*
X132484500Y-122832500D01*
X116459000Y-115316000D02*
X121539000Y-115316000D01*
X129183000Y-124079000D02*
X125222000Y-124079000D01*
X123825000Y-125476000D02*
X115570000Y-125476000D01*
X115062000Y-124968000D02*
X115062000Y-116713000D01*
X130151000Y-121571000D02*
X130151000Y-123111000D01*
X115570000Y-125476000D02*
X115062000Y-124968000D01*
X115062000Y-116713000D02*
X116459000Y-115316000D01*
X138009750Y-124000500D02*
X140335000Y-124000500D01*
X132484500Y-122832500D02*
X136841750Y-122832500D01*
X136841750Y-122832500D02*
X138009750Y-124000500D01*
X125222000Y-124079000D02*
X123825000Y-125476000D01*
X130151000Y-123111000D02*
X129183000Y-124079000D01*
X121981000Y-115758000D02*
X121981000Y-116820000D01*
X130151000Y-121571000D02*
X131223000Y-121571000D01*
X120142000Y-123063000D02*
X119204500Y-122125500D01*
X119204500Y-122125500D02*
X116967000Y-122125500D01*
X121769500Y-123063000D02*
X120142000Y-123063000D01*
X119634000Y-115824000D02*
X119149500Y-116308500D01*
X118133500Y-119507000D02*
X120716000Y-119507000D01*
X120650000Y-115824000D02*
X119634000Y-115824000D01*
X121031000Y-116205000D02*
X120650000Y-115824000D01*
X121031000Y-116820000D02*
X121031000Y-116205000D01*
X119149500Y-116308500D02*
X119149500Y-119507000D01*
G04 #@! TA.AperFunction,Conductor*
G36*
X117290121Y-49550002D02*
G01*
X117336614Y-49603658D01*
X117348000Y-49656000D01*
X117348000Y-92672575D01*
X117345579Y-92697153D01*
X117343024Y-92710000D01*
X117343824Y-92714021D01*
X117361194Y-93023322D01*
X117413760Y-93332703D01*
X117500635Y-93634254D01*
X117620727Y-93924181D01*
X117772526Y-94198839D01*
X117954122Y-94454775D01*
X118163231Y-94688769D01*
X118397225Y-94897878D01*
X118653161Y-95079474D01*
X118927819Y-95231273D01*
X118931082Y-95232625D01*
X118931087Y-95232627D01*
X119214477Y-95350011D01*
X119217746Y-95351365D01*
X119519297Y-95438240D01*
X119828678Y-95490806D01*
X120137979Y-95508176D01*
X120142000Y-95508976D01*
X120154847Y-95506421D01*
X120179425Y-95504000D01*
X137122575Y-95504000D01*
X137147153Y-95506421D01*
X137160000Y-95508976D01*
X137164021Y-95508176D01*
X137473322Y-95490806D01*
X137782703Y-95438240D01*
X138084254Y-95351365D01*
X138087523Y-95350011D01*
X138370913Y-95232627D01*
X138370918Y-95232625D01*
X138374181Y-95231273D01*
X138648839Y-95079474D01*
X138904775Y-94897878D01*
X139138769Y-94688769D01*
X139347878Y-94454775D01*
X139529474Y-94198839D01*
X139681273Y-93924181D01*
X139801365Y-93634254D01*
X139888240Y-93332703D01*
X139940806Y-93023322D01*
X139958176Y-92714021D01*
X139958976Y-92710000D01*
X139956421Y-92697153D01*
X139954000Y-92672575D01*
X139954000Y-49656000D01*
X139974002Y-49587879D01*
X140027658Y-49541386D01*
X140080000Y-49530000D01*
X142622000Y-49530000D01*
X142690121Y-49550002D01*
X142736614Y-49603658D01*
X142748000Y-49656000D01*
X142748000Y-126620000D01*
X142727998Y-126688121D01*
X142674342Y-126734614D01*
X142622000Y-126746000D01*
X114680000Y-126746000D01*
X114611879Y-126725998D01*
X114565386Y-126672342D01*
X114554000Y-126620000D01*
X114554000Y-125306032D01*
X114574002Y-125237911D01*
X114627658Y-125191418D01*
X114697932Y-125181314D01*
X114765528Y-125213507D01*
X114796194Y-125241854D01*
X114799762Y-125245284D01*
X115261960Y-125707483D01*
X115277314Y-125726494D01*
X115278280Y-125727556D01*
X115283929Y-125736304D01*
X115292104Y-125742748D01*
X115292106Y-125742751D01*
X115310472Y-125757229D01*
X115314950Y-125761208D01*
X115315010Y-125761137D01*
X115318967Y-125764490D01*
X115322648Y-125768171D01*
X115326880Y-125771195D01*
X115326882Y-125771197D01*
X115338457Y-125779469D01*
X115343202Y-125783032D01*
X115383670Y-125814934D01*
X115392355Y-125817984D01*
X115399842Y-125823334D01*
X115449247Y-125838109D01*
X115454842Y-125839927D01*
X115503502Y-125857016D01*
X115509091Y-125857500D01*
X115511804Y-125857500D01*
X115514469Y-125857615D01*
X115514532Y-125857634D01*
X115514525Y-125857808D01*
X115515271Y-125857855D01*
X115521524Y-125859725D01*
X115571383Y-125857766D01*
X115575678Y-125857597D01*
X115580625Y-125857500D01*
X123770865Y-125857500D01*
X123795164Y-125860086D01*
X123796602Y-125860154D01*
X123806780Y-125862345D01*
X123840341Y-125858373D01*
X123846320Y-125858021D01*
X123846312Y-125857928D01*
X123851490Y-125857500D01*
X123856692Y-125857500D01*
X123875846Y-125854312D01*
X123881704Y-125853478D01*
X123898318Y-125851512D01*
X123922567Y-125848642D01*
X123922568Y-125848642D01*
X123932907Y-125847418D01*
X123941206Y-125843433D01*
X123950283Y-125841922D01*
X123995651Y-125817442D01*
X124000914Y-125814761D01*
X124040250Y-125795873D01*
X124040254Y-125795870D01*
X124047398Y-125792440D01*
X124051692Y-125788830D01*
X124053624Y-125786898D01*
X124055573Y-125785111D01*
X124055626Y-125785082D01*
X124055745Y-125785212D01*
X124056313Y-125784711D01*
X124062057Y-125781612D01*
X124071685Y-125771197D01*
X124098866Y-125741792D01*
X124102296Y-125738226D01*
X125343118Y-124497405D01*
X125405430Y-124463379D01*
X125432213Y-124460500D01*
X129128865Y-124460500D01*
X129153164Y-124463086D01*
X129154602Y-124463154D01*
X129164780Y-124465345D01*
X129198341Y-124461373D01*
X129204320Y-124461021D01*
X129204312Y-124460928D01*
X129209490Y-124460500D01*
X129214692Y-124460500D01*
X129233846Y-124457312D01*
X129239704Y-124456478D01*
X129256318Y-124454512D01*
X129280567Y-124451642D01*
X129280568Y-124451642D01*
X129290907Y-124450418D01*
X129299206Y-124446433D01*
X129308283Y-124444922D01*
X129353651Y-124420442D01*
X129358914Y-124417761D01*
X129398250Y-124398873D01*
X129398254Y-124398870D01*
X129405398Y-124395440D01*
X129409692Y-124391830D01*
X129411624Y-124389898D01*
X129413573Y-124388111D01*
X129413626Y-124388082D01*
X129413745Y-124388212D01*
X129414313Y-124387711D01*
X129420057Y-124384612D01*
X129456868Y-124344790D01*
X129460297Y-124341225D01*
X130382476Y-123419046D01*
X130401499Y-123403682D01*
X130402558Y-123402718D01*
X130411304Y-123397071D01*
X130417752Y-123388892D01*
X130417754Y-123388890D01*
X130432234Y-123370523D01*
X130436209Y-123366050D01*
X130436137Y-123365989D01*
X130439490Y-123362032D01*
X130443171Y-123358351D01*
X130454455Y-123342560D01*
X130458019Y-123337814D01*
X130483487Y-123305508D01*
X130489934Y-123297330D01*
X130492984Y-123288645D01*
X130498335Y-123281157D01*
X130513115Y-123231734D01*
X130514927Y-123226160D01*
X130532016Y-123177498D01*
X130532500Y-123171909D01*
X130532500Y-123169198D01*
X130532615Y-123166531D01*
X130532634Y-123166468D01*
X130532808Y-123166475D01*
X130532855Y-123165729D01*
X130534725Y-123159476D01*
X130532597Y-123105312D01*
X130532500Y-123100366D01*
X130532500Y-122588739D01*
X130552502Y-122520618D01*
X130569405Y-122499644D01*
X130632326Y-122436723D01*
X130690498Y-122322555D01*
X130705500Y-122227834D01*
X130705500Y-122078500D01*
X130725502Y-122010379D01*
X130779158Y-121963886D01*
X130831500Y-121952500D01*
X131012788Y-121952500D01*
X131080909Y-121972502D01*
X131101883Y-121989405D01*
X132176458Y-123063980D01*
X132191811Y-123082989D01*
X132192778Y-123084052D01*
X132198429Y-123092804D01*
X132224027Y-123112984D01*
X132224972Y-123113729D01*
X132229450Y-123117708D01*
X132229510Y-123117637D01*
X132233467Y-123120990D01*
X132237148Y-123124671D01*
X132241380Y-123127695D01*
X132241382Y-123127697D01*
X132252957Y-123135969D01*
X132257702Y-123139532D01*
X132298170Y-123171434D01*
X132306855Y-123174484D01*
X132314342Y-123179834D01*
X132363747Y-123194609D01*
X132369342Y-123196427D01*
X132418002Y-123213516D01*
X132423591Y-123214000D01*
X132426304Y-123214000D01*
X132428969Y-123214115D01*
X132429032Y-123214134D01*
X132429025Y-123214308D01*
X132429771Y-123214355D01*
X132436024Y-123216225D01*
X132485883Y-123214266D01*
X132490178Y-123214097D01*
X132495125Y-123214000D01*
X133842455Y-123214000D01*
X133910576Y-123234002D01*
X133957069Y-123287658D01*
X133960437Y-123295771D01*
X133976929Y-123339764D01*
X133982309Y-123346943D01*
X133982311Y-123346946D01*
X134029238Y-123409560D01*
X134063596Y-123455404D01*
X134084023Y-123470713D01*
X134172054Y-123536689D01*
X134172057Y-123536691D01*
X134179236Y-123542071D01*
X134268954Y-123575704D01*
X134307157Y-123590026D01*
X134307159Y-123590026D01*
X134314552Y-123592798D01*
X134322402Y-123593651D01*
X134322403Y-123593651D01*
X134371623Y-123598998D01*
X134376244Y-123599500D01*
X135371756Y-123599500D01*
X135376377Y-123598998D01*
X135425597Y-123593651D01*
X135425598Y-123593651D01*
X135433448Y-123592798D01*
X135440841Y-123590026D01*
X135440843Y-123590026D01*
X135479046Y-123575704D01*
X135568764Y-123542071D01*
X135575943Y-123536691D01*
X135575946Y-123536689D01*
X135663977Y-123470713D01*
X135684404Y-123455404D01*
X135718762Y-123409560D01*
X135765689Y-123346946D01*
X135765691Y-123346943D01*
X135771071Y-123339764D01*
X135787563Y-123295771D01*
X135830204Y-123239006D01*
X135896765Y-123214306D01*
X135905545Y-123214000D01*
X136631538Y-123214000D01*
X136699659Y-123234002D01*
X136720633Y-123250905D01*
X137701708Y-124231980D01*
X137717061Y-124250989D01*
X137718028Y-124252052D01*
X137723679Y-124260804D01*
X137749277Y-124280984D01*
X137750222Y-124281729D01*
X137754700Y-124285708D01*
X137754760Y-124285637D01*
X137758717Y-124288990D01*
X137762398Y-124292671D01*
X137766630Y-124295695D01*
X137766632Y-124295697D01*
X137778207Y-124303969D01*
X137782952Y-124307532D01*
X137823420Y-124339434D01*
X137832105Y-124342484D01*
X137839592Y-124347834D01*
X137888997Y-124362609D01*
X137894592Y-124364427D01*
X137943252Y-124381516D01*
X137948841Y-124382000D01*
X137951554Y-124382000D01*
X137954219Y-124382115D01*
X137954282Y-124382134D01*
X137954275Y-124382308D01*
X137955021Y-124382355D01*
X137961274Y-124384225D01*
X138011133Y-124382266D01*
X138015428Y-124382097D01*
X138020375Y-124382000D01*
X139310909Y-124382000D01*
X139379030Y-124402002D01*
X139425523Y-124455658D01*
X139428888Y-124463764D01*
X139437217Y-124485982D01*
X139442601Y-124493165D01*
X139442601Y-124493166D01*
X139517429Y-124593008D01*
X139522811Y-124600189D01*
X139637018Y-124685783D01*
X139645426Y-124688935D01*
X139763260Y-124733108D01*
X139763262Y-124733109D01*
X139770658Y-124735881D01*
X139831585Y-124742500D01*
X140334926Y-124742500D01*
X140838414Y-124742499D01*
X140841808Y-124742130D01*
X140841814Y-124742130D01*
X140891483Y-124736735D01*
X140891486Y-124736734D01*
X140899342Y-124735881D01*
X141032982Y-124685783D01*
X141147189Y-124600189D01*
X141152571Y-124593008D01*
X141227399Y-124493166D01*
X141227399Y-124493165D01*
X141232783Y-124485982D01*
X141268375Y-124391039D01*
X141280108Y-124359740D01*
X141280109Y-124359738D01*
X141282881Y-124352342D01*
X141289500Y-124291415D01*
X141289499Y-123709586D01*
X141289130Y-123706186D01*
X141283735Y-123656517D01*
X141283734Y-123656514D01*
X141282881Y-123648658D01*
X141270113Y-123614597D01*
X141235935Y-123523426D01*
X141235934Y-123523424D01*
X141232783Y-123515018D01*
X141188105Y-123455404D01*
X141152571Y-123407992D01*
X141147189Y-123400811D01*
X141100808Y-123366050D01*
X141040166Y-123320601D01*
X141040165Y-123320601D01*
X141032982Y-123315217D01*
X141002964Y-123303964D01*
X140906740Y-123267892D01*
X140906738Y-123267891D01*
X140899342Y-123265119D01*
X140838415Y-123258500D01*
X140335074Y-123258500D01*
X139831586Y-123258501D01*
X139828192Y-123258870D01*
X139828186Y-123258870D01*
X139778517Y-123264265D01*
X139778514Y-123264266D01*
X139770658Y-123265119D01*
X139763256Y-123267894D01*
X139763255Y-123267894D01*
X139684733Y-123297330D01*
X139637018Y-123315217D01*
X139629835Y-123320601D01*
X139629834Y-123320601D01*
X139569192Y-123366050D01*
X139522811Y-123400811D01*
X139517429Y-123407992D01*
X139481896Y-123455404D01*
X139437217Y-123515018D01*
X139434066Y-123523424D01*
X139428891Y-123537229D01*
X139386250Y-123593994D01*
X139319689Y-123618694D01*
X139310909Y-123619000D01*
X138219962Y-123619000D01*
X138151841Y-123598998D01*
X138130867Y-123582095D01*
X137149792Y-122601020D01*
X137134439Y-122582011D01*
X137133472Y-122580948D01*
X137127821Y-122572196D01*
X137101278Y-122551271D01*
X137096803Y-122547294D01*
X137096742Y-122547365D01*
X137092785Y-122544012D01*
X137089102Y-122540329D01*
X137073311Y-122529045D01*
X137068565Y-122525482D01*
X137036257Y-122500012D01*
X137036256Y-122500011D01*
X137028080Y-122493566D01*
X137019393Y-122490515D01*
X137011907Y-122485166D01*
X137001931Y-122482183D01*
X137001930Y-122482182D01*
X136962539Y-122470402D01*
X136956907Y-122468572D01*
X136908248Y-122451484D01*
X136902659Y-122451000D01*
X136899948Y-122451000D01*
X136897281Y-122450885D01*
X136897218Y-122450866D01*
X136897225Y-122450692D01*
X136896479Y-122450645D01*
X136890226Y-122448775D01*
X136841442Y-122450692D01*
X136836072Y-122450903D01*
X136831125Y-122451000D01*
X135905545Y-122451000D01*
X135837424Y-122430998D01*
X135790931Y-122377342D01*
X135787563Y-122369229D01*
X135774221Y-122333640D01*
X135771071Y-122325236D01*
X135765691Y-122318057D01*
X135765689Y-122318054D01*
X135689785Y-122216776D01*
X135684404Y-122209596D01*
X135621936Y-122162779D01*
X135575946Y-122128311D01*
X135575943Y-122128309D01*
X135568764Y-122122929D01*
X135479046Y-122089296D01*
X135440843Y-122074974D01*
X135440841Y-122074974D01*
X135433448Y-122072202D01*
X135425598Y-122071349D01*
X135425597Y-122071349D01*
X135375153Y-122065869D01*
X135375152Y-122065869D01*
X135371756Y-122065500D01*
X134376244Y-122065500D01*
X134372848Y-122065869D01*
X134372847Y-122065869D01*
X134322403Y-122071349D01*
X134322402Y-122071349D01*
X134314552Y-122072202D01*
X134307159Y-122074974D01*
X134307157Y-122074974D01*
X134268954Y-122089296D01*
X134179236Y-122122929D01*
X134172057Y-122128309D01*
X134172054Y-122128311D01*
X134126064Y-122162779D01*
X134063596Y-122209596D01*
X134058215Y-122216776D01*
X133982311Y-122318054D01*
X133982309Y-122318057D01*
X133976929Y-122325236D01*
X133973779Y-122333640D01*
X133960437Y-122369229D01*
X133917796Y-122425994D01*
X133851235Y-122450694D01*
X133842455Y-122451000D01*
X132694712Y-122451000D01*
X132626591Y-122430998D01*
X132605617Y-122414095D01*
X132026107Y-121834585D01*
X139380500Y-121834585D01*
X139380501Y-122416414D01*
X139380870Y-122419808D01*
X139380870Y-122419814D01*
X139384596Y-122454110D01*
X139387119Y-122477342D01*
X139389894Y-122484744D01*
X139389894Y-122484745D01*
X139433909Y-122602157D01*
X139437217Y-122610982D01*
X139522811Y-122725189D01*
X139529992Y-122730571D01*
X139626691Y-122803043D01*
X139637018Y-122810783D01*
X139645424Y-122813934D01*
X139645426Y-122813935D01*
X139763260Y-122858108D01*
X139763262Y-122858109D01*
X139770658Y-122860881D01*
X139831585Y-122867500D01*
X140334926Y-122867500D01*
X140838414Y-122867499D01*
X140841808Y-122867130D01*
X140841814Y-122867130D01*
X140891483Y-122861735D01*
X140891486Y-122861734D01*
X140899342Y-122860881D01*
X140922297Y-122852276D01*
X141024574Y-122813935D01*
X141024576Y-122813934D01*
X141032982Y-122810783D01*
X141043310Y-122803043D01*
X141140008Y-122730571D01*
X141147189Y-122725189D01*
X141232783Y-122610982D01*
X141236091Y-122602157D01*
X141280108Y-122484740D01*
X141280109Y-122484738D01*
X141282881Y-122477342D01*
X141289500Y-122416415D01*
X141289499Y-121834586D01*
X141287750Y-121818482D01*
X141283735Y-121781517D01*
X141283734Y-121781511D01*
X141282881Y-121773658D01*
X141278349Y-121761567D01*
X141235935Y-121648426D01*
X141235934Y-121648424D01*
X141232783Y-121640018D01*
X141147189Y-121525811D01*
X141032982Y-121440217D01*
X141024574Y-121437065D01*
X140906740Y-121392892D01*
X140906738Y-121392891D01*
X140899342Y-121390119D01*
X140869187Y-121386843D01*
X140841795Y-121383867D01*
X140841791Y-121383867D01*
X140838415Y-121383500D01*
X140835581Y-121383500D01*
X140768744Y-121359878D01*
X140725222Y-121303785D01*
X140716500Y-121257721D01*
X140716500Y-120549972D01*
X140736502Y-120481851D01*
X140790158Y-120435358D01*
X140832796Y-120424869D01*
X140832756Y-120424500D01*
X140878596Y-120419520D01*
X140886597Y-120418651D01*
X140886598Y-120418651D01*
X140894448Y-120417798D01*
X140901841Y-120415026D01*
X140901843Y-120415026D01*
X140945422Y-120398689D01*
X141029764Y-120367071D01*
X141036943Y-120361691D01*
X141036946Y-120361689D01*
X141138224Y-120285785D01*
X141145404Y-120280404D01*
X141171541Y-120245529D01*
X141226689Y-120171946D01*
X141226691Y-120171943D01*
X141232071Y-120164764D01*
X141282798Y-120029448D01*
X141285481Y-120004756D01*
X141289131Y-119971153D01*
X141289131Y-119971152D01*
X141289500Y-119967756D01*
X141289500Y-119347244D01*
X141282798Y-119285552D01*
X141279930Y-119277900D01*
X141258232Y-119220021D01*
X141232071Y-119150236D01*
X141226691Y-119143057D01*
X141226689Y-119143054D01*
X141150785Y-119041776D01*
X141145404Y-119034596D01*
X141107044Y-119005847D01*
X141036946Y-118953311D01*
X141036943Y-118953309D01*
X141029764Y-118947929D01*
X140921102Y-118907194D01*
X140901843Y-118899974D01*
X140901841Y-118899974D01*
X140894448Y-118897202D01*
X140886598Y-118896349D01*
X140886597Y-118896349D01*
X140836153Y-118890869D01*
X140836152Y-118890869D01*
X140832756Y-118890500D01*
X139837244Y-118890500D01*
X139833848Y-118890869D01*
X139833847Y-118890869D01*
X139783403Y-118896349D01*
X139783402Y-118896349D01*
X139775552Y-118897202D01*
X139768159Y-118899974D01*
X139768157Y-118899974D01*
X139748898Y-118907194D01*
X139640236Y-118947929D01*
X139633057Y-118953309D01*
X139633054Y-118953311D01*
X139562956Y-119005847D01*
X139524596Y-119034596D01*
X139519215Y-119041776D01*
X139443311Y-119143054D01*
X139443309Y-119143057D01*
X139437929Y-119150236D01*
X139411768Y-119220021D01*
X139390071Y-119277900D01*
X139387202Y-119285552D01*
X139380500Y-119347244D01*
X139380500Y-119967756D01*
X139380869Y-119971152D01*
X139380869Y-119971153D01*
X139384520Y-120004756D01*
X139387202Y-120029448D01*
X139437929Y-120164764D01*
X139443309Y-120171943D01*
X139443311Y-120171946D01*
X139498459Y-120245529D01*
X139524596Y-120280404D01*
X139531776Y-120285785D01*
X139633054Y-120361689D01*
X139633057Y-120361691D01*
X139640236Y-120367071D01*
X139724578Y-120398689D01*
X139768157Y-120415026D01*
X139768159Y-120415026D01*
X139775552Y-120417798D01*
X139783402Y-120418651D01*
X139783403Y-120418651D01*
X139791404Y-120419520D01*
X139834405Y-120424192D01*
X139834406Y-120424192D01*
X139837244Y-120424500D01*
X139837171Y-120425169D01*
X139901246Y-120447808D01*
X139944773Y-120503896D01*
X139953500Y-120549972D01*
X139953500Y-121257722D01*
X139933498Y-121325843D01*
X139879842Y-121372336D01*
X139834465Y-121383501D01*
X139831586Y-121383501D01*
X139801001Y-121386823D01*
X139778517Y-121389265D01*
X139778514Y-121389266D01*
X139770658Y-121390119D01*
X139637018Y-121440217D01*
X139522811Y-121525811D01*
X139437217Y-121640018D01*
X139434066Y-121648424D01*
X139434065Y-121648426D01*
X139390964Y-121763402D01*
X139387119Y-121773658D01*
X139380500Y-121834585D01*
X132026107Y-121834585D01*
X131531042Y-121339520D01*
X131515689Y-121320511D01*
X131514722Y-121319448D01*
X131509071Y-121310696D01*
X131482528Y-121289771D01*
X131478053Y-121285794D01*
X131477992Y-121285865D01*
X131474035Y-121282512D01*
X131470352Y-121278829D01*
X131454561Y-121267545D01*
X131449815Y-121263982D01*
X131417507Y-121238512D01*
X131417506Y-121238511D01*
X131409330Y-121232066D01*
X131400643Y-121229015D01*
X131393157Y-121223666D01*
X131383181Y-121220683D01*
X131383180Y-121220682D01*
X131343789Y-121208902D01*
X131338157Y-121207072D01*
X131289498Y-121189984D01*
X131283909Y-121189500D01*
X131281198Y-121189500D01*
X131278531Y-121189385D01*
X131278468Y-121189366D01*
X131278475Y-121189192D01*
X131277729Y-121189145D01*
X131271476Y-121187275D01*
X131222692Y-121189192D01*
X131217322Y-121189403D01*
X131212375Y-121189500D01*
X130831500Y-121189500D01*
X130763379Y-121169498D01*
X130716886Y-121115842D01*
X130705500Y-121063500D01*
X130705500Y-120914166D01*
X130690498Y-120819445D01*
X130632326Y-120705277D01*
X130541723Y-120614674D01*
X130427555Y-120556502D01*
X130332834Y-120541500D01*
X129969166Y-120541500D01*
X129874445Y-120556502D01*
X129760277Y-120614674D01*
X129740095Y-120634856D01*
X129677783Y-120668882D01*
X129606968Y-120663817D01*
X129561905Y-120634856D01*
X129541723Y-120614674D01*
X129427555Y-120556502D01*
X129332834Y-120541500D01*
X128969166Y-120541500D01*
X128874445Y-120556502D01*
X128865610Y-120561004D01*
X128865609Y-120561004D01*
X128817304Y-120585617D01*
X128747527Y-120598722D01*
X128681742Y-120572023D01*
X128640835Y-120513995D01*
X128634100Y-120473351D01*
X128634100Y-120370100D01*
X128654102Y-120301979D01*
X128707758Y-120255486D01*
X128760100Y-120244100D01*
X130024867Y-120244100D01*
X130034204Y-120244446D01*
X130081196Y-120247938D01*
X130089971Y-120246065D01*
X130098930Y-120245454D01*
X130098935Y-120245529D01*
X130112476Y-120244100D01*
X133917002Y-120244100D01*
X133985123Y-120264102D01*
X134031616Y-120317758D01*
X134041720Y-120388032D01*
X134017829Y-120445664D01*
X134005960Y-120461500D01*
X133982311Y-120493054D01*
X133982309Y-120493057D01*
X133976929Y-120500236D01*
X133950018Y-120572023D01*
X133937914Y-120604311D01*
X133926202Y-120635552D01*
X133919500Y-120697244D01*
X133919500Y-121317756D01*
X133919869Y-121321152D01*
X133919869Y-121321153D01*
X133920379Y-121325843D01*
X133926202Y-121379448D01*
X133928974Y-121386841D01*
X133928974Y-121386843D01*
X133931267Y-121392959D01*
X133976929Y-121514764D01*
X133982309Y-121521943D01*
X133982311Y-121521946D01*
X133985208Y-121525811D01*
X134063596Y-121630404D01*
X134070776Y-121635785D01*
X134172054Y-121711689D01*
X134172057Y-121711691D01*
X134179236Y-121717071D01*
X134251070Y-121744000D01*
X134307157Y-121765026D01*
X134307159Y-121765026D01*
X134314552Y-121767798D01*
X134322402Y-121768651D01*
X134322403Y-121768651D01*
X134368493Y-121773658D01*
X134376244Y-121774500D01*
X135371756Y-121774500D01*
X135379507Y-121773658D01*
X135425597Y-121768651D01*
X135425598Y-121768651D01*
X135433448Y-121767798D01*
X135440841Y-121765026D01*
X135440843Y-121765026D01*
X135496930Y-121744000D01*
X135568764Y-121717071D01*
X135575943Y-121711691D01*
X135575946Y-121711689D01*
X135677224Y-121635785D01*
X135684404Y-121630404D01*
X135762792Y-121525811D01*
X135765689Y-121521946D01*
X135765691Y-121521943D01*
X135771071Y-121514764D01*
X135816733Y-121392959D01*
X135819026Y-121386843D01*
X135819026Y-121386841D01*
X135821798Y-121379448D01*
X135827622Y-121325843D01*
X135828131Y-121321153D01*
X135828131Y-121321152D01*
X135828500Y-121317756D01*
X135828500Y-120697244D01*
X135821798Y-120635552D01*
X135810087Y-120604311D01*
X135797982Y-120572023D01*
X135771071Y-120500236D01*
X135765691Y-120493057D01*
X135765689Y-120493054D01*
X135742040Y-120461500D01*
X135730172Y-120445664D01*
X135705324Y-120379159D01*
X135720377Y-120309777D01*
X135770551Y-120259546D01*
X135830998Y-120244100D01*
X136964773Y-120244100D01*
X136976109Y-120245367D01*
X136976155Y-120244795D01*
X136985103Y-120245515D01*
X136993858Y-120247496D01*
X137044695Y-120244342D01*
X137052496Y-120244100D01*
X137067689Y-120244100D01*
X137077282Y-120242726D01*
X137087330Y-120241697D01*
X137123014Y-120239483D01*
X137123015Y-120239483D01*
X137131974Y-120238927D01*
X137140417Y-120235879D01*
X137145887Y-120234746D01*
X137155726Y-120232293D01*
X137161096Y-120230723D01*
X137169984Y-120229450D01*
X137178158Y-120225734D01*
X137178160Y-120225733D01*
X137210705Y-120210936D01*
X137220065Y-120207126D01*
X137262134Y-120191938D01*
X137269382Y-120186643D01*
X137274310Y-120184023D01*
X137283099Y-120178887D01*
X137287788Y-120175888D01*
X137295957Y-120172174D01*
X137302754Y-120166318D01*
X137302756Y-120166316D01*
X137316025Y-120154882D01*
X137329839Y-120142978D01*
X137337762Y-120136688D01*
X137344056Y-120132091D01*
X137344062Y-120132086D01*
X137347988Y-120129218D01*
X137358242Y-120118964D01*
X137365089Y-120112606D01*
X137393988Y-120087705D01*
X137400790Y-120081844D01*
X137405674Y-120074310D01*
X137411573Y-120067547D01*
X137411630Y-120067597D01*
X137420196Y-120057010D01*
X139124701Y-118352505D01*
X139187013Y-118318479D01*
X139213796Y-118315600D01*
X139356792Y-118315600D01*
X139424913Y-118335602D01*
X139457618Y-118366035D01*
X139524596Y-118455404D01*
X139531776Y-118460785D01*
X139633054Y-118536689D01*
X139633057Y-118536691D01*
X139640236Y-118542071D01*
X139729954Y-118575704D01*
X139768157Y-118590026D01*
X139768159Y-118590026D01*
X139775552Y-118592798D01*
X139783402Y-118593651D01*
X139783403Y-118593651D01*
X139833847Y-118599131D01*
X139837244Y-118599500D01*
X140832756Y-118599500D01*
X140836153Y-118599131D01*
X140886597Y-118593651D01*
X140886598Y-118593651D01*
X140894448Y-118592798D01*
X140901841Y-118590026D01*
X140901843Y-118590026D01*
X140940046Y-118575704D01*
X141029764Y-118542071D01*
X141036943Y-118536691D01*
X141036946Y-118536689D01*
X141138224Y-118460785D01*
X141145404Y-118455404D01*
X141160713Y-118434977D01*
X141226689Y-118346946D01*
X141226691Y-118346943D01*
X141232071Y-118339764D01*
X141282798Y-118204448D01*
X141289500Y-118142756D01*
X141289500Y-117522244D01*
X141282798Y-117460552D01*
X141232071Y-117325236D01*
X141226691Y-117318057D01*
X141226689Y-117318054D01*
X141150785Y-117216776D01*
X141145404Y-117209596D01*
X141068491Y-117151953D01*
X141036946Y-117128311D01*
X141036943Y-117128309D01*
X141029764Y-117122929D01*
X140940046Y-117089296D01*
X140901843Y-117074974D01*
X140901841Y-117074974D01*
X140894448Y-117072202D01*
X140886598Y-117071349D01*
X140886597Y-117071349D01*
X140836153Y-117065869D01*
X140836152Y-117065869D01*
X140832756Y-117065500D01*
X139837244Y-117065500D01*
X139833848Y-117065869D01*
X139833847Y-117065869D01*
X139783403Y-117071349D01*
X139783402Y-117071349D01*
X139775552Y-117072202D01*
X139768159Y-117074974D01*
X139768157Y-117074974D01*
X139729954Y-117089296D01*
X139640236Y-117122929D01*
X139633057Y-117128309D01*
X139633054Y-117128311D01*
X139601509Y-117151953D01*
X139524596Y-117209596D01*
X139487796Y-117258698D01*
X139457618Y-117298965D01*
X139400759Y-117341480D01*
X139356792Y-117349400D01*
X139029727Y-117349400D01*
X139018391Y-117348133D01*
X139018345Y-117348705D01*
X139009397Y-117347985D01*
X139000642Y-117346004D01*
X138949806Y-117349158D01*
X138942004Y-117349400D01*
X138926811Y-117349400D01*
X138917218Y-117350774D01*
X138907170Y-117351803D01*
X138878609Y-117353575D01*
X138862526Y-117354573D01*
X138854077Y-117357623D01*
X138848598Y-117358758D01*
X138838762Y-117361210D01*
X138833401Y-117362778D01*
X138824516Y-117364050D01*
X138783792Y-117382566D01*
X138774444Y-117386371D01*
X138732366Y-117401561D01*
X138725116Y-117406857D01*
X138720202Y-117409470D01*
X138711404Y-117414612D01*
X138706718Y-117417609D01*
X138698543Y-117421326D01*
X138664666Y-117450517D01*
X138656741Y-117456809D01*
X138650455Y-117461401D01*
X138650450Y-117461405D01*
X138646512Y-117464282D01*
X138636258Y-117474536D01*
X138629412Y-117480893D01*
X138593710Y-117511656D01*
X138588826Y-117519190D01*
X138582927Y-117525953D01*
X138582870Y-117525903D01*
X138574304Y-117536490D01*
X136869799Y-119240995D01*
X136807487Y-119275021D01*
X136780704Y-119277900D01*
X134882223Y-119277900D01*
X134881454Y-119277898D01*
X134811539Y-119277471D01*
X134811538Y-119277471D01*
X134807762Y-119277448D01*
X134806473Y-119277816D01*
X134805245Y-119277900D01*
X130633600Y-119277900D01*
X130565479Y-119257898D01*
X130518986Y-119204242D01*
X130507600Y-119151900D01*
X130507600Y-117945208D01*
X130527602Y-117877087D01*
X130558035Y-117844382D01*
X130640224Y-117782785D01*
X130647404Y-117777404D01*
X130662713Y-117756977D01*
X130728689Y-117668946D01*
X130728691Y-117668943D01*
X130734071Y-117661764D01*
X130767704Y-117572046D01*
X130782026Y-117533843D01*
X130782026Y-117533841D01*
X130784798Y-117526448D01*
X130791500Y-117464756D01*
X130791500Y-116469244D01*
X130784798Y-116407552D01*
X130778269Y-116390134D01*
X130763010Y-116349432D01*
X130734071Y-116272236D01*
X130728691Y-116265057D01*
X130728689Y-116265054D01*
X130652785Y-116163776D01*
X130647404Y-116156596D01*
X130616626Y-116133529D01*
X130538946Y-116075311D01*
X130538943Y-116075309D01*
X130531764Y-116069929D01*
X130426869Y-116030606D01*
X130403843Y-116021974D01*
X130403841Y-116021974D01*
X130396448Y-116019202D01*
X130388598Y-116018349D01*
X130388597Y-116018349D01*
X130338153Y-116012869D01*
X130338152Y-116012869D01*
X130334756Y-116012500D01*
X129714244Y-116012500D01*
X129710848Y-116012869D01*
X129710847Y-116012869D01*
X129660403Y-116018349D01*
X129660402Y-116018349D01*
X129652552Y-116019202D01*
X129645159Y-116021974D01*
X129645157Y-116021974D01*
X129622131Y-116030606D01*
X129517236Y-116069929D01*
X129510057Y-116075309D01*
X129510054Y-116075311D01*
X129432374Y-116133529D01*
X129401596Y-116156596D01*
X129396215Y-116163776D01*
X129320311Y-116265054D01*
X129320309Y-116265057D01*
X129314929Y-116272236D01*
X129285990Y-116349432D01*
X129270732Y-116390134D01*
X129264202Y-116407552D01*
X129257500Y-116469244D01*
X129257500Y-117464756D01*
X129264202Y-117526448D01*
X129266974Y-117533841D01*
X129266974Y-117533843D01*
X129281296Y-117572046D01*
X129314929Y-117661764D01*
X129320309Y-117668943D01*
X129320311Y-117668946D01*
X129386287Y-117756977D01*
X129401596Y-117777404D01*
X129408776Y-117782785D01*
X129490965Y-117844382D01*
X129533480Y-117901241D01*
X129541400Y-117945208D01*
X129541400Y-119151900D01*
X129521398Y-119220021D01*
X129467742Y-119266514D01*
X129415400Y-119277900D01*
X128395296Y-119277900D01*
X128327175Y-119257898D01*
X128306201Y-119240995D01*
X127797505Y-118732299D01*
X127763479Y-118669987D01*
X127760600Y-118643204D01*
X127760600Y-117945208D01*
X127780602Y-117877087D01*
X127811035Y-117844382D01*
X127893224Y-117782785D01*
X127900404Y-117777404D01*
X127915713Y-117756977D01*
X127981689Y-117668946D01*
X127981691Y-117668943D01*
X127987071Y-117661764D01*
X128020704Y-117572046D01*
X128035026Y-117533843D01*
X128035026Y-117533841D01*
X128037798Y-117526448D01*
X128044500Y-117464756D01*
X128044500Y-116469244D01*
X128037798Y-116407552D01*
X128031269Y-116390134D01*
X128016010Y-116349432D01*
X127987071Y-116272236D01*
X127981691Y-116265057D01*
X127981689Y-116265054D01*
X127905785Y-116163776D01*
X127900404Y-116156596D01*
X127869626Y-116133529D01*
X127791946Y-116075311D01*
X127791943Y-116075309D01*
X127784764Y-116069929D01*
X127679869Y-116030606D01*
X127656843Y-116021974D01*
X127656841Y-116021974D01*
X127649448Y-116019202D01*
X127641598Y-116018349D01*
X127641597Y-116018349D01*
X127591153Y-116012869D01*
X127591152Y-116012869D01*
X127587756Y-116012500D01*
X126967244Y-116012500D01*
X126963848Y-116012869D01*
X126963847Y-116012869D01*
X126913403Y-116018349D01*
X126913402Y-116018349D01*
X126905552Y-116019202D01*
X126898159Y-116021974D01*
X126898157Y-116021974D01*
X126875131Y-116030606D01*
X126770236Y-116069929D01*
X126763057Y-116075309D01*
X126763054Y-116075311D01*
X126685374Y-116133529D01*
X126654596Y-116156596D01*
X126649215Y-116163776D01*
X126573311Y-116265054D01*
X126573309Y-116265057D01*
X126567929Y-116272236D01*
X126538990Y-116349432D01*
X126523732Y-116390134D01*
X126517202Y-116407552D01*
X126510500Y-116469244D01*
X126510500Y-117464756D01*
X126517202Y-117526448D01*
X126519974Y-117533841D01*
X126519974Y-117533843D01*
X126534296Y-117572046D01*
X126567929Y-117661764D01*
X126573309Y-117668943D01*
X126573311Y-117668946D01*
X126639287Y-117756977D01*
X126654596Y-117777404D01*
X126661776Y-117782785D01*
X126743965Y-117844382D01*
X126786480Y-117901241D01*
X126794400Y-117945208D01*
X126794400Y-118827273D01*
X126793133Y-118838609D01*
X126793705Y-118838655D01*
X126792985Y-118847603D01*
X126791004Y-118856358D01*
X126791560Y-118865317D01*
X126794158Y-118907194D01*
X126794400Y-118914996D01*
X126794400Y-118930189D01*
X126795035Y-118934622D01*
X126795773Y-118939774D01*
X126796803Y-118949830D01*
X126798938Y-118984244D01*
X126799573Y-118994474D01*
X126802621Y-119002917D01*
X126803754Y-119008387D01*
X126806207Y-119018226D01*
X126807777Y-119023596D01*
X126809050Y-119032484D01*
X126812766Y-119040658D01*
X126812767Y-119040660D01*
X126827564Y-119073205D01*
X126831374Y-119082565D01*
X126846562Y-119124634D01*
X126851857Y-119131882D01*
X126854477Y-119136810D01*
X126859613Y-119145599D01*
X126862612Y-119150288D01*
X126866326Y-119158457D01*
X126872182Y-119165254D01*
X126872184Y-119165256D01*
X126883618Y-119178525D01*
X126895522Y-119192339D01*
X126901812Y-119200262D01*
X126906409Y-119206556D01*
X126906414Y-119206562D01*
X126909282Y-119210488D01*
X126919536Y-119220742D01*
X126925893Y-119227588D01*
X126956656Y-119263290D01*
X126964190Y-119268174D01*
X126970953Y-119274073D01*
X126970903Y-119274130D01*
X126981490Y-119282696D01*
X127630995Y-119932201D01*
X127665021Y-119994513D01*
X127667900Y-120021296D01*
X127667900Y-120678508D01*
X127654167Y-120735711D01*
X127611502Y-120819445D01*
X127596500Y-120914166D01*
X127596500Y-122227834D01*
X127597275Y-122232726D01*
X127597275Y-122232727D01*
X127609068Y-122307190D01*
X127599968Y-122377601D01*
X127554245Y-122431915D01*
X127484619Y-122452900D01*
X124423138Y-122452900D01*
X124355017Y-122432898D01*
X124312591Y-122383936D01*
X124311533Y-122384515D01*
X124308856Y-122379625D01*
X124308524Y-122379242D01*
X124308140Y-122378318D01*
X124307222Y-122376641D01*
X124304071Y-122368236D01*
X124298691Y-122361057D01*
X124298689Y-122361054D01*
X124222785Y-122259776D01*
X124217404Y-122252596D01*
X124177754Y-122222880D01*
X124108946Y-122171311D01*
X124108943Y-122171309D01*
X124101764Y-122165929D01*
X123987060Y-122122929D01*
X123973843Y-122117974D01*
X123973841Y-122117974D01*
X123966448Y-122115202D01*
X123958598Y-122114349D01*
X123958597Y-122114349D01*
X123908153Y-122108869D01*
X123908152Y-122108869D01*
X123904756Y-122108500D01*
X123284244Y-122108500D01*
X123280848Y-122108869D01*
X123280847Y-122108869D01*
X123230403Y-122114349D01*
X123230402Y-122114349D01*
X123222552Y-122115202D01*
X123215159Y-122117974D01*
X123215157Y-122117974D01*
X123201940Y-122122929D01*
X123087236Y-122165929D01*
X123080057Y-122171309D01*
X123080054Y-122171311D01*
X123011246Y-122222880D01*
X122971596Y-122252596D01*
X122966215Y-122259776D01*
X122890311Y-122361054D01*
X122890309Y-122361057D01*
X122884929Y-122368236D01*
X122854737Y-122448775D01*
X122837099Y-122495825D01*
X122834202Y-122503552D01*
X122827500Y-122565244D01*
X122827500Y-123560756D01*
X122834202Y-123622448D01*
X122836974Y-123629841D01*
X122836974Y-123629843D01*
X122846974Y-123656517D01*
X122884929Y-123757764D01*
X122890309Y-123764943D01*
X122890311Y-123764946D01*
X122956287Y-123852977D01*
X122971596Y-123873404D01*
X122978776Y-123878785D01*
X123080054Y-123954689D01*
X123080057Y-123954691D01*
X123087236Y-123960071D01*
X123176954Y-123993704D01*
X123215157Y-124008026D01*
X123215159Y-124008026D01*
X123222552Y-124010798D01*
X123230402Y-124011651D01*
X123230403Y-124011651D01*
X123280847Y-124017131D01*
X123284244Y-124017500D01*
X123677787Y-124017500D01*
X123745908Y-124037502D01*
X123792401Y-124091158D01*
X123802505Y-124161432D01*
X123773011Y-124226012D01*
X123766882Y-124232595D01*
X123449882Y-124549595D01*
X123387570Y-124583621D01*
X123360787Y-124586500D01*
X116204500Y-124586500D01*
X116136379Y-124566498D01*
X116089886Y-124512842D01*
X116078500Y-124460500D01*
X116078500Y-122917657D01*
X116098502Y-122849536D01*
X116152158Y-122803043D01*
X116222432Y-122792939D01*
X116263467Y-122806623D01*
X116269018Y-122810783D01*
X116277422Y-122813933D01*
X116277423Y-122813934D01*
X116395260Y-122858108D01*
X116395262Y-122858109D01*
X116402658Y-122860881D01*
X116463585Y-122867500D01*
X116966926Y-122867500D01*
X117470414Y-122867499D01*
X117473808Y-122867130D01*
X117473814Y-122867130D01*
X117523483Y-122861735D01*
X117523486Y-122861734D01*
X117531342Y-122860881D01*
X117554297Y-122852276D01*
X117656574Y-122813935D01*
X117656576Y-122813934D01*
X117664982Y-122810783D01*
X117675310Y-122803043D01*
X117772008Y-122730571D01*
X117779189Y-122725189D01*
X117864783Y-122610982D01*
X117873110Y-122588770D01*
X117915750Y-122532006D01*
X117982311Y-122507306D01*
X117991091Y-122507000D01*
X118994287Y-122507000D01*
X119062408Y-122527002D01*
X119083383Y-122543905D01*
X119466369Y-122926892D01*
X119833960Y-123294483D01*
X119849314Y-123313494D01*
X119850280Y-123314556D01*
X119855929Y-123323304D01*
X119864104Y-123329748D01*
X119864106Y-123329751D01*
X119882472Y-123344229D01*
X119886950Y-123348208D01*
X119887010Y-123348137D01*
X119890967Y-123351490D01*
X119894648Y-123355171D01*
X119898880Y-123358195D01*
X119898882Y-123358197D01*
X119910457Y-123366469D01*
X119915202Y-123370032D01*
X119955670Y-123401934D01*
X119964355Y-123404984D01*
X119971842Y-123410334D01*
X120021247Y-123425109D01*
X120026842Y-123426927D01*
X120075502Y-123444016D01*
X120081091Y-123444500D01*
X120083804Y-123444500D01*
X120086469Y-123444615D01*
X120086532Y-123444634D01*
X120086525Y-123444808D01*
X120087271Y-123444855D01*
X120093524Y-123446725D01*
X120143383Y-123444766D01*
X120147678Y-123444597D01*
X120152625Y-123444500D01*
X120877028Y-123444500D01*
X120945149Y-123464502D01*
X120991642Y-123518158D01*
X121002131Y-123560796D01*
X121002500Y-123560756D01*
X121009202Y-123622448D01*
X121011974Y-123629841D01*
X121011974Y-123629843D01*
X121021974Y-123656517D01*
X121059929Y-123757764D01*
X121065309Y-123764943D01*
X121065311Y-123764946D01*
X121131287Y-123852977D01*
X121146596Y-123873404D01*
X121153776Y-123878785D01*
X121255054Y-123954689D01*
X121255057Y-123954691D01*
X121262236Y-123960071D01*
X121351954Y-123993704D01*
X121390157Y-124008026D01*
X121390159Y-124008026D01*
X121397552Y-124010798D01*
X121405402Y-124011651D01*
X121405403Y-124011651D01*
X121455847Y-124017131D01*
X121459244Y-124017500D01*
X122079756Y-124017500D01*
X122083153Y-124017131D01*
X122133597Y-124011651D01*
X122133598Y-124011651D01*
X122141448Y-124010798D01*
X122148841Y-124008026D01*
X122148843Y-124008026D01*
X122187046Y-123993704D01*
X122276764Y-123960071D01*
X122283943Y-123954691D01*
X122283946Y-123954689D01*
X122385224Y-123878785D01*
X122392404Y-123873404D01*
X122407713Y-123852977D01*
X122473689Y-123764946D01*
X122473691Y-123764943D01*
X122479071Y-123757764D01*
X122517026Y-123656517D01*
X122527026Y-123629843D01*
X122527026Y-123629841D01*
X122529798Y-123622448D01*
X122536500Y-123560756D01*
X122536500Y-122565244D01*
X122529798Y-122503552D01*
X122526902Y-122495825D01*
X122509263Y-122448775D01*
X122479071Y-122368236D01*
X122473691Y-122361057D01*
X122473689Y-122361054D01*
X122397785Y-122259776D01*
X122392404Y-122252596D01*
X122352754Y-122222880D01*
X122283946Y-122171311D01*
X122283943Y-122171309D01*
X122276764Y-122165929D01*
X122162060Y-122122929D01*
X122148843Y-122117974D01*
X122148841Y-122117974D01*
X122141448Y-122115202D01*
X122133598Y-122114349D01*
X122133597Y-122114349D01*
X122083153Y-122108869D01*
X122083152Y-122108869D01*
X122079756Y-122108500D01*
X121459244Y-122108500D01*
X121455848Y-122108869D01*
X121455847Y-122108869D01*
X121405403Y-122114349D01*
X121405402Y-122114349D01*
X121397552Y-122115202D01*
X121390159Y-122117974D01*
X121390157Y-122117974D01*
X121376940Y-122122929D01*
X121262236Y-122165929D01*
X121255057Y-122171309D01*
X121255054Y-122171311D01*
X121186246Y-122222880D01*
X121146596Y-122252596D01*
X121141215Y-122259776D01*
X121065311Y-122361054D01*
X121065309Y-122361057D01*
X121059929Y-122368236D01*
X121029737Y-122448775D01*
X121012099Y-122495825D01*
X121009202Y-122503552D01*
X121002500Y-122565244D01*
X121001831Y-122565171D01*
X120979192Y-122629246D01*
X120923104Y-122672773D01*
X120877028Y-122681500D01*
X120352213Y-122681500D01*
X120284092Y-122661498D01*
X120263117Y-122644595D01*
X119512540Y-121894017D01*
X119497186Y-121875006D01*
X119496220Y-121873944D01*
X119490571Y-121865196D01*
X119482396Y-121858752D01*
X119482394Y-121858749D01*
X119464028Y-121844271D01*
X119459553Y-121840294D01*
X119459492Y-121840365D01*
X119455535Y-121837012D01*
X119451852Y-121833329D01*
X119436061Y-121822045D01*
X119431315Y-121818482D01*
X119399007Y-121793012D01*
X119399006Y-121793011D01*
X119390830Y-121786566D01*
X119382143Y-121783515D01*
X119374657Y-121778166D01*
X119364681Y-121775183D01*
X119364680Y-121775182D01*
X119333298Y-121765797D01*
X119325286Y-121763401D01*
X119319657Y-121761572D01*
X119270998Y-121744484D01*
X119265409Y-121744000D01*
X119262698Y-121744000D01*
X119260031Y-121743885D01*
X119259968Y-121743866D01*
X119259975Y-121743692D01*
X119259229Y-121743645D01*
X119252976Y-121741775D01*
X119204192Y-121743692D01*
X119198822Y-121743903D01*
X119193875Y-121744000D01*
X117991091Y-121744000D01*
X117922970Y-121723998D01*
X117876477Y-121670342D01*
X117873109Y-121662229D01*
X117867934Y-121648424D01*
X117864783Y-121640018D01*
X117779189Y-121525811D01*
X117664982Y-121440217D01*
X117656574Y-121437065D01*
X117538740Y-121392892D01*
X117538738Y-121392891D01*
X117531342Y-121390119D01*
X117470415Y-121383500D01*
X116967074Y-121383500D01*
X116463586Y-121383501D01*
X116460192Y-121383870D01*
X116460186Y-121383870D01*
X116410516Y-121389265D01*
X116410512Y-121389266D01*
X116402658Y-121390119D01*
X116395256Y-121392894D01*
X116394982Y-121392959D01*
X116324082Y-121389257D01*
X116266439Y-121347811D01*
X116240353Y-121281780D01*
X116254108Y-121212129D01*
X116276741Y-121181281D01*
X116539976Y-120918046D01*
X116558999Y-120902682D01*
X116560058Y-120901718D01*
X116568804Y-120896071D01*
X116575252Y-120887892D01*
X116575254Y-120887890D01*
X116589734Y-120869523D01*
X116593709Y-120865050D01*
X116593637Y-120864989D01*
X116596990Y-120861032D01*
X116600671Y-120857351D01*
X116611955Y-120841560D01*
X116615519Y-120836814D01*
X116640987Y-120804508D01*
X116647434Y-120796330D01*
X116650484Y-120787645D01*
X116655835Y-120780157D01*
X116670610Y-120730750D01*
X116672426Y-120725163D01*
X116689516Y-120676498D01*
X116690000Y-120670909D01*
X116690000Y-120668198D01*
X116690115Y-120665529D01*
X116690134Y-120665468D01*
X116690308Y-120665475D01*
X116690355Y-120664728D01*
X116692225Y-120658475D01*
X116690097Y-120604311D01*
X116690000Y-120599365D01*
X116690000Y-120538545D01*
X116710002Y-120470424D01*
X116763658Y-120423931D01*
X116771771Y-120420563D01*
X116776871Y-120418651D01*
X116815764Y-120404071D01*
X116822943Y-120398691D01*
X116822946Y-120398689D01*
X116924224Y-120322785D01*
X116931404Y-120317404D01*
X116964515Y-120273224D01*
X117012689Y-120208946D01*
X117012691Y-120208943D01*
X117018071Y-120201764D01*
X117062369Y-120083597D01*
X117066026Y-120073843D01*
X117066026Y-120073841D01*
X117068798Y-120066448D01*
X117073671Y-120021597D01*
X117075131Y-120008153D01*
X117075131Y-120008152D01*
X117075500Y-120004756D01*
X117075500Y-119009244D01*
X117068798Y-118947552D01*
X117056594Y-118914996D01*
X117027975Y-118838655D01*
X117018071Y-118812236D01*
X117012691Y-118805057D01*
X117012689Y-118805054D01*
X116936785Y-118703776D01*
X116936784Y-118703775D01*
X116931404Y-118696596D01*
X116907627Y-118678776D01*
X116822946Y-118615311D01*
X116822943Y-118615309D01*
X116815764Y-118609929D01*
X116726046Y-118576296D01*
X116687843Y-118561974D01*
X116687841Y-118561974D01*
X116680448Y-118559202D01*
X116672598Y-118558349D01*
X116672597Y-118558349D01*
X116622153Y-118552869D01*
X116622152Y-118552869D01*
X116618756Y-118552500D01*
X115998244Y-118552500D01*
X115994848Y-118552869D01*
X115994847Y-118552869D01*
X115944403Y-118558349D01*
X115944402Y-118558349D01*
X115936552Y-118559202D01*
X115929159Y-118561974D01*
X115929157Y-118561974D01*
X115890954Y-118576296D01*
X115801236Y-118609929D01*
X115794057Y-118615309D01*
X115794054Y-118615311D01*
X115709373Y-118678776D01*
X115685596Y-118696596D01*
X115680216Y-118703775D01*
X115670327Y-118716970D01*
X115613468Y-118759486D01*
X115542649Y-118764512D01*
X115480356Y-118730453D01*
X115446365Y-118668122D01*
X115443500Y-118641406D01*
X115443500Y-116923212D01*
X115463502Y-116855091D01*
X115480405Y-116834117D01*
X116580118Y-115734405D01*
X116642430Y-115700379D01*
X116669213Y-115697500D01*
X118916786Y-115697500D01*
X118984907Y-115717502D01*
X119031400Y-115771158D01*
X119041504Y-115841432D01*
X119012010Y-115906012D01*
X119005881Y-115912595D01*
X118918017Y-116000459D01*
X118899006Y-116015814D01*
X118897944Y-116016780D01*
X118889196Y-116022429D01*
X118882752Y-116030604D01*
X118882749Y-116030606D01*
X118868271Y-116048972D01*
X118864294Y-116053447D01*
X118864365Y-116053508D01*
X118861012Y-116057465D01*
X118857329Y-116061148D01*
X118854303Y-116065383D01*
X118854301Y-116065385D01*
X118846047Y-116076936D01*
X118842484Y-116081682D01*
X118810566Y-116122170D01*
X118807515Y-116130857D01*
X118802166Y-116138343D01*
X118799183Y-116148319D01*
X118799182Y-116148320D01*
X118787402Y-116187711D01*
X118785572Y-116193343D01*
X118768484Y-116242002D01*
X118768000Y-116247591D01*
X118768000Y-116250302D01*
X118767885Y-116252969D01*
X118767866Y-116253032D01*
X118767692Y-116253025D01*
X118767645Y-116253771D01*
X118765775Y-116260024D01*
X118766184Y-116270428D01*
X118767903Y-116314178D01*
X118768000Y-116319125D01*
X118768000Y-118475830D01*
X118747998Y-118543951D01*
X118694342Y-118590444D01*
X118624068Y-118600548D01*
X118597771Y-118593812D01*
X118512843Y-118561974D01*
X118512841Y-118561974D01*
X118505448Y-118559202D01*
X118497598Y-118558349D01*
X118497597Y-118558349D01*
X118447153Y-118552869D01*
X118447152Y-118552869D01*
X118443756Y-118552500D01*
X117823244Y-118552500D01*
X117819848Y-118552869D01*
X117819847Y-118552869D01*
X117769403Y-118558349D01*
X117769402Y-118558349D01*
X117761552Y-118559202D01*
X117754159Y-118561974D01*
X117754157Y-118561974D01*
X117715954Y-118576296D01*
X117626236Y-118609929D01*
X117619057Y-118615309D01*
X117619054Y-118615311D01*
X117534373Y-118678776D01*
X117510596Y-118696596D01*
X117505216Y-118703775D01*
X117505215Y-118703776D01*
X117429311Y-118805054D01*
X117429309Y-118805057D01*
X117423929Y-118812236D01*
X117414025Y-118838655D01*
X117385407Y-118914996D01*
X117373202Y-118947552D01*
X117366500Y-119009244D01*
X117366500Y-120004756D01*
X117366869Y-120008152D01*
X117366869Y-120008153D01*
X117368330Y-120021597D01*
X117373202Y-120066448D01*
X117375974Y-120073841D01*
X117375974Y-120073843D01*
X117379631Y-120083597D01*
X117423929Y-120201764D01*
X117429309Y-120208943D01*
X117429311Y-120208946D01*
X117477485Y-120273224D01*
X117510596Y-120317404D01*
X117517776Y-120322785D01*
X117619054Y-120398689D01*
X117619057Y-120398691D01*
X117626236Y-120404071D01*
X117701327Y-120432221D01*
X117754157Y-120452026D01*
X117754159Y-120452026D01*
X117761552Y-120454798D01*
X117769402Y-120455651D01*
X117769403Y-120455651D01*
X117819847Y-120461131D01*
X117823244Y-120461500D01*
X118443756Y-120461500D01*
X118447153Y-120461131D01*
X118497597Y-120455651D01*
X118497598Y-120455651D01*
X118505448Y-120454798D01*
X118512841Y-120452026D01*
X118512843Y-120452026D01*
X118565673Y-120432221D01*
X118640764Y-120404071D01*
X118647943Y-120398691D01*
X118647946Y-120398689D01*
X118749224Y-120322785D01*
X118756404Y-120317404D01*
X118789515Y-120273224D01*
X118837689Y-120208946D01*
X118837691Y-120208943D01*
X118843071Y-120201764D01*
X118887369Y-120083597D01*
X118891026Y-120073843D01*
X118891026Y-120073841D01*
X118893798Y-120066448D01*
X118900500Y-120004756D01*
X118901169Y-120004829D01*
X118923808Y-119940754D01*
X118979896Y-119897227D01*
X119025972Y-119888500D01*
X119127259Y-119888500D01*
X119138130Y-119888970D01*
X119179846Y-119892583D01*
X119189955Y-119890072D01*
X119200337Y-119889255D01*
X119200387Y-119889884D01*
X119211699Y-119888500D01*
X119835500Y-119888500D01*
X119903621Y-119908502D01*
X119950114Y-119962158D01*
X119961500Y-120014500D01*
X119961500Y-120029756D01*
X119968202Y-120091448D01*
X119970974Y-120098841D01*
X119970974Y-120098843D01*
X119978517Y-120118964D01*
X120018929Y-120226764D01*
X120024309Y-120233943D01*
X120024311Y-120233946D01*
X120081479Y-120310225D01*
X120105596Y-120342404D01*
X120112776Y-120347785D01*
X120214054Y-120423689D01*
X120214057Y-120423691D01*
X120221236Y-120429071D01*
X120310954Y-120462704D01*
X120349157Y-120477026D01*
X120349159Y-120477026D01*
X120356552Y-120479798D01*
X120364402Y-120480651D01*
X120364403Y-120480651D01*
X120414847Y-120486131D01*
X120418244Y-120486500D01*
X121013756Y-120486500D01*
X121017153Y-120486131D01*
X121067597Y-120480651D01*
X121067598Y-120480651D01*
X121075448Y-120479798D01*
X121082841Y-120477026D01*
X121082843Y-120477026D01*
X121121046Y-120462704D01*
X121210764Y-120429071D01*
X121217943Y-120423691D01*
X121217946Y-120423689D01*
X121319224Y-120347785D01*
X121326404Y-120342404D01*
X121350521Y-120310225D01*
X121407689Y-120233946D01*
X121407691Y-120233943D01*
X121413071Y-120226764D01*
X121453483Y-120118964D01*
X121461026Y-120098843D01*
X121461026Y-120098841D01*
X121463798Y-120091448D01*
X121470500Y-120029756D01*
X121470500Y-118984244D01*
X121463798Y-118922552D01*
X121460966Y-118914996D01*
X121432347Y-118838655D01*
X121413071Y-118787236D01*
X121407691Y-118780057D01*
X121407689Y-118780054D01*
X121331785Y-118678776D01*
X121326404Y-118671596D01*
X121305977Y-118656287D01*
X121217946Y-118590311D01*
X121217943Y-118590309D01*
X121210764Y-118584929D01*
X121096439Y-118542071D01*
X121082843Y-118536974D01*
X121082841Y-118536974D01*
X121075448Y-118534202D01*
X121067598Y-118533349D01*
X121067597Y-118533349D01*
X121017153Y-118527869D01*
X121017152Y-118527869D01*
X121013756Y-118527500D01*
X120418244Y-118527500D01*
X120414848Y-118527869D01*
X120414847Y-118527869D01*
X120364403Y-118533349D01*
X120364402Y-118533349D01*
X120356552Y-118534202D01*
X120349159Y-118536974D01*
X120349157Y-118536974D01*
X120335561Y-118542071D01*
X120221236Y-118584929D01*
X120214057Y-118590309D01*
X120214054Y-118590311D01*
X120126023Y-118656287D01*
X120105596Y-118671596D01*
X120100215Y-118678776D01*
X120024311Y-118780054D01*
X120024309Y-118780057D01*
X120018929Y-118787236D01*
X119999653Y-118838655D01*
X119971035Y-118914996D01*
X119968202Y-118922552D01*
X119961500Y-118984244D01*
X119961500Y-118999500D01*
X119941498Y-119067621D01*
X119887842Y-119114114D01*
X119835500Y-119125500D01*
X119657000Y-119125500D01*
X119588879Y-119105498D01*
X119542386Y-119051842D01*
X119531000Y-118999500D01*
X119531000Y-117464756D01*
X124685500Y-117464756D01*
X124692202Y-117526448D01*
X124694974Y-117533841D01*
X124694974Y-117533843D01*
X124709296Y-117572046D01*
X124742929Y-117661764D01*
X124748309Y-117668943D01*
X124748311Y-117668946D01*
X124814287Y-117756977D01*
X124829596Y-117777404D01*
X124836776Y-117782785D01*
X124938054Y-117858689D01*
X124938057Y-117858691D01*
X124945236Y-117864071D01*
X124979957Y-117877087D01*
X125073157Y-117912026D01*
X125073159Y-117912026D01*
X125080552Y-117914798D01*
X125088402Y-117915651D01*
X125088403Y-117915651D01*
X125133499Y-117920550D01*
X125142244Y-117921500D01*
X125762756Y-117921500D01*
X125771501Y-117920550D01*
X125816597Y-117915651D01*
X125816598Y-117915651D01*
X125824448Y-117914798D01*
X125831841Y-117912026D01*
X125831843Y-117912026D01*
X125925043Y-117877087D01*
X125959764Y-117864071D01*
X125966943Y-117858691D01*
X125966946Y-117858689D01*
X126068224Y-117782785D01*
X126075404Y-117777404D01*
X126090713Y-117756977D01*
X126156689Y-117668946D01*
X126156691Y-117668943D01*
X126162071Y-117661764D01*
X126195704Y-117572046D01*
X126210026Y-117533843D01*
X126210026Y-117533841D01*
X126212798Y-117526448D01*
X126219500Y-117464756D01*
X126219500Y-116469244D01*
X126212798Y-116407552D01*
X126206269Y-116390134D01*
X126191010Y-116349432D01*
X126162071Y-116272236D01*
X126156691Y-116265057D01*
X126156689Y-116265054D01*
X126080785Y-116163776D01*
X126075404Y-116156596D01*
X126009535Y-116107230D01*
X125967020Y-116050371D01*
X125959100Y-116006404D01*
X125959100Y-115763278D01*
X125968691Y-115715059D01*
X126017745Y-115596633D01*
X126020904Y-115589007D01*
X126034930Y-115482472D01*
X126039048Y-115451188D01*
X126040126Y-115443000D01*
X126020904Y-115296993D01*
X125964547Y-115160937D01*
X125874897Y-115044103D01*
X125758063Y-114954453D01*
X125622007Y-114898096D01*
X125613823Y-114897019D01*
X125613821Y-114897018D01*
X125484188Y-114879952D01*
X125476000Y-114878874D01*
X125467812Y-114879952D01*
X125338179Y-114897018D01*
X125338177Y-114897019D01*
X125329993Y-114898096D01*
X125193937Y-114954453D01*
X125077103Y-115044103D01*
X124987453Y-115160937D01*
X124931096Y-115296993D01*
X124911874Y-115443000D01*
X124912952Y-115451188D01*
X124917071Y-115482472D01*
X124931096Y-115589007D01*
X124934255Y-115596633D01*
X124983309Y-115715059D01*
X124992900Y-115763278D01*
X124992900Y-115971180D01*
X124972898Y-116039301D01*
X124942466Y-116072005D01*
X124829596Y-116156596D01*
X124824215Y-116163776D01*
X124748311Y-116265054D01*
X124748309Y-116265057D01*
X124742929Y-116272236D01*
X124713990Y-116349432D01*
X124698732Y-116390134D01*
X124692202Y-116407552D01*
X124685500Y-116469244D01*
X124685500Y-117464756D01*
X119531000Y-117464756D01*
X119531000Y-116518713D01*
X119551002Y-116450592D01*
X119567905Y-116429617D01*
X119755119Y-116242404D01*
X119817431Y-116208379D01*
X119844214Y-116205500D01*
X120424540Y-116205500D01*
X120492661Y-116225502D01*
X120539154Y-116279158D01*
X120549258Y-116349432D01*
X120536807Y-116388703D01*
X120481688Y-116496880D01*
X120466500Y-116592774D01*
X120466500Y-117047226D01*
X120469453Y-117065869D01*
X120479343Y-117128311D01*
X120481688Y-117143120D01*
X120540578Y-117258698D01*
X120632302Y-117350422D01*
X120747880Y-117409312D01*
X120757669Y-117410862D01*
X120757671Y-117410863D01*
X120781343Y-117414612D01*
X120843774Y-117424500D01*
X121218226Y-117424500D01*
X121280657Y-117414612D01*
X121304329Y-117410863D01*
X121304331Y-117410862D01*
X121314120Y-117409312D01*
X121429698Y-117350422D01*
X121433967Y-117346153D01*
X121498804Y-117323018D01*
X121567955Y-117339096D01*
X121576409Y-117344529D01*
X121582302Y-117350422D01*
X121697880Y-117409312D01*
X121707669Y-117410862D01*
X121707671Y-117410863D01*
X121731343Y-117414612D01*
X121793774Y-117424500D01*
X122168226Y-117424500D01*
X122230657Y-117414612D01*
X122254329Y-117410863D01*
X122254331Y-117410862D01*
X122264120Y-117409312D01*
X122379698Y-117350422D01*
X122471422Y-117258698D01*
X122530312Y-117143120D01*
X122532658Y-117128311D01*
X122542547Y-117065869D01*
X122545500Y-117047226D01*
X122545500Y-116592774D01*
X122530312Y-116496880D01*
X122471422Y-116381302D01*
X122399405Y-116309285D01*
X122365379Y-116246973D01*
X122362500Y-116220190D01*
X122362500Y-115812136D01*
X122365085Y-115787847D01*
X122365153Y-115786400D01*
X122367345Y-115776220D01*
X122363373Y-115742660D01*
X122363020Y-115736679D01*
X122362928Y-115736687D01*
X122362500Y-115731508D01*
X122362500Y-115726308D01*
X122361647Y-115721181D01*
X122361646Y-115721173D01*
X122359312Y-115707151D01*
X122358475Y-115701275D01*
X122353641Y-115660431D01*
X122353640Y-115660429D01*
X122352417Y-115650092D01*
X122348433Y-115641795D01*
X122346922Y-115632717D01*
X122341978Y-115623555D01*
X122341977Y-115623551D01*
X122322447Y-115587356D01*
X122319751Y-115582066D01*
X122300871Y-115542747D01*
X122300871Y-115542746D01*
X122297440Y-115535602D01*
X122293830Y-115531308D01*
X122291898Y-115529376D01*
X122290111Y-115527427D01*
X122290082Y-115527374D01*
X122290212Y-115527255D01*
X122289711Y-115526687D01*
X122286612Y-115520943D01*
X122246806Y-115484147D01*
X122243239Y-115480717D01*
X121847040Y-115084517D01*
X121831686Y-115065506D01*
X121830720Y-115064444D01*
X121825071Y-115055696D01*
X121816896Y-115049252D01*
X121816894Y-115049249D01*
X121798528Y-115034771D01*
X121794053Y-115030794D01*
X121793992Y-115030865D01*
X121790035Y-115027512D01*
X121786352Y-115023829D01*
X121770561Y-115012545D01*
X121765815Y-115008982D01*
X121733507Y-114983512D01*
X121733506Y-114983511D01*
X121725330Y-114977066D01*
X121716643Y-114974015D01*
X121709157Y-114968666D01*
X121699181Y-114965683D01*
X121699180Y-114965682D01*
X121667798Y-114956297D01*
X121659786Y-114953901D01*
X121654157Y-114952072D01*
X121605498Y-114934984D01*
X121605369Y-114934973D01*
X121546034Y-114902740D01*
X121511875Y-114840502D01*
X121516786Y-114769675D01*
X121522670Y-114756249D01*
X121545532Y-114711380D01*
X121580312Y-114643120D01*
X121585026Y-114613360D01*
X121586337Y-114605079D01*
X121595500Y-114547226D01*
X121595500Y-114092774D01*
X121580312Y-113996880D01*
X121521422Y-113881302D01*
X121449405Y-113809285D01*
X121415379Y-113746973D01*
X121412500Y-113720190D01*
X121412500Y-113621213D01*
X121432502Y-113553092D01*
X121449405Y-113532117D01*
X121660119Y-113321404D01*
X121722431Y-113287379D01*
X121749214Y-113284500D01*
X129075788Y-113284500D01*
X129143909Y-113304502D01*
X129164883Y-113321405D01*
X131227900Y-115384423D01*
X131261926Y-115446735D01*
X131263725Y-115457063D01*
X131281096Y-115589007D01*
X131284255Y-115596633D01*
X131333309Y-115715059D01*
X131342900Y-115763278D01*
X131342900Y-116006404D01*
X131322898Y-116074525D01*
X131292465Y-116107230D01*
X131226596Y-116156596D01*
X131221215Y-116163776D01*
X131145311Y-116265054D01*
X131145309Y-116265057D01*
X131139929Y-116272236D01*
X131110990Y-116349432D01*
X131095732Y-116390134D01*
X131089202Y-116407552D01*
X131082500Y-116469244D01*
X131082500Y-117464756D01*
X131089202Y-117526448D01*
X131091974Y-117533841D01*
X131091974Y-117533843D01*
X131106296Y-117572046D01*
X131139929Y-117661764D01*
X131145309Y-117668943D01*
X131145311Y-117668946D01*
X131211287Y-117756977D01*
X131226596Y-117777404D01*
X131233776Y-117782785D01*
X131335054Y-117858689D01*
X131335057Y-117858691D01*
X131342236Y-117864071D01*
X131376957Y-117877087D01*
X131448061Y-117903743D01*
X131491893Y-117934319D01*
X131492531Y-117933588D01*
X131499263Y-117939460D01*
X131499281Y-117939473D01*
X131499292Y-117939486D01*
X131499297Y-117939491D01*
X131505156Y-117946290D01*
X131621279Y-118021557D01*
X131629881Y-118024129D01*
X131629884Y-118024131D01*
X131720956Y-118051367D01*
X131753859Y-118061207D01*
X131762835Y-118061262D01*
X131762836Y-118061262D01*
X131822059Y-118061623D01*
X131892238Y-118062052D01*
X131900869Y-118059585D01*
X131900871Y-118059585D01*
X132016659Y-118026493D01*
X132016662Y-118026492D01*
X132025293Y-118024025D01*
X132142327Y-117950182D01*
X132147293Y-117944560D01*
X132206306Y-117919147D01*
X132205909Y-117917478D01*
X132213592Y-117915651D01*
X132221448Y-117914798D01*
X132228846Y-117912025D01*
X132228849Y-117912024D01*
X132322043Y-117877087D01*
X132356764Y-117864071D01*
X132363943Y-117858691D01*
X132363946Y-117858689D01*
X132465224Y-117782785D01*
X132472404Y-117777404D01*
X132487713Y-117756977D01*
X132553689Y-117668946D01*
X132553691Y-117668943D01*
X132559071Y-117661764D01*
X132592704Y-117572046D01*
X132607026Y-117533843D01*
X132607026Y-117533841D01*
X132609798Y-117526448D01*
X132616500Y-117464756D01*
X132616500Y-116469244D01*
X132609798Y-116407552D01*
X132603269Y-116390134D01*
X132588010Y-116349432D01*
X132559071Y-116272236D01*
X132553691Y-116265057D01*
X132553689Y-116265054D01*
X132477785Y-116163776D01*
X132472404Y-116156596D01*
X132359535Y-116072005D01*
X132317020Y-116015147D01*
X132309100Y-115971180D01*
X132309100Y-115763278D01*
X132318691Y-115715059D01*
X132367745Y-115596633D01*
X132370904Y-115589007D01*
X132384930Y-115482472D01*
X132389048Y-115451188D01*
X132390126Y-115443000D01*
X132370904Y-115296993D01*
X132314547Y-115160937D01*
X132224897Y-115044103D01*
X132108063Y-114954453D01*
X131972007Y-114898096D01*
X131963823Y-114897019D01*
X131963821Y-114897018D01*
X131840070Y-114880726D01*
X131775142Y-114852003D01*
X131767421Y-114844899D01*
X129594044Y-112671521D01*
X129578685Y-112652505D01*
X129577719Y-112651444D01*
X129572071Y-112642696D01*
X129545528Y-112621771D01*
X129541053Y-112617794D01*
X129540992Y-112617865D01*
X129537035Y-112614512D01*
X129533352Y-112610829D01*
X129517561Y-112599545D01*
X129512815Y-112595982D01*
X129480507Y-112570512D01*
X129480506Y-112570511D01*
X129472330Y-112564066D01*
X129463643Y-112561015D01*
X129456157Y-112555666D01*
X129446181Y-112552683D01*
X129446180Y-112552682D01*
X129414798Y-112543297D01*
X129406786Y-112540901D01*
X129401157Y-112539072D01*
X129352498Y-112521984D01*
X129346909Y-112521500D01*
X129344198Y-112521500D01*
X129341531Y-112521385D01*
X129341468Y-112521366D01*
X129341475Y-112521192D01*
X129340729Y-112521145D01*
X129334476Y-112519275D01*
X129288746Y-112521072D01*
X129280322Y-112521403D01*
X129275375Y-112521500D01*
X121593136Y-112521500D01*
X121568847Y-112518915D01*
X121567400Y-112518847D01*
X121557220Y-112516655D01*
X121531628Y-112519684D01*
X121523660Y-112520627D01*
X121517679Y-112520980D01*
X121517687Y-112521072D01*
X121512508Y-112521500D01*
X121507308Y-112521500D01*
X121502181Y-112522353D01*
X121502173Y-112522354D01*
X121488151Y-112524688D01*
X121482275Y-112525525D01*
X121441431Y-112530359D01*
X121441429Y-112530360D01*
X121431092Y-112531583D01*
X121422795Y-112535567D01*
X121413717Y-112537078D01*
X121404555Y-112542022D01*
X121404551Y-112542023D01*
X121368356Y-112561553D01*
X121363072Y-112564246D01*
X121316602Y-112586560D01*
X121312308Y-112590170D01*
X121310376Y-112592102D01*
X121308427Y-112593889D01*
X121308374Y-112593918D01*
X121308255Y-112593788D01*
X121307687Y-112594289D01*
X121301943Y-112597388D01*
X121294876Y-112605033D01*
X121265146Y-112637195D01*
X121261716Y-112640762D01*
X120799517Y-113102960D01*
X120780506Y-113118314D01*
X120779444Y-113119280D01*
X120770696Y-113124929D01*
X120764252Y-113133104D01*
X120764249Y-113133106D01*
X120749771Y-113151472D01*
X120745794Y-113155947D01*
X120745865Y-113156008D01*
X120742512Y-113159965D01*
X120738829Y-113163648D01*
X120735803Y-113167883D01*
X120735801Y-113167885D01*
X120727547Y-113179436D01*
X120723984Y-113184182D01*
X120692066Y-113224670D01*
X120689015Y-113233357D01*
X120683666Y-113240843D01*
X120680683Y-113250819D01*
X120680682Y-113250820D01*
X120668902Y-113290211D01*
X120667072Y-113295843D01*
X120649984Y-113344502D01*
X120649500Y-113350091D01*
X120649500Y-113352802D01*
X120649385Y-113355469D01*
X120649366Y-113355532D01*
X120649192Y-113355525D01*
X120649145Y-113356271D01*
X120647275Y-113362524D01*
X120647684Y-113372928D01*
X120649403Y-113416678D01*
X120649500Y-113421625D01*
X120649500Y-113670483D01*
X120629498Y-113738604D01*
X120575842Y-113785097D01*
X120505568Y-113795201D01*
X120466297Y-113782750D01*
X120364120Y-113730688D01*
X120354331Y-113729138D01*
X120354329Y-113729137D01*
X120326079Y-113724663D01*
X120268226Y-113715500D01*
X119893774Y-113715500D01*
X119835921Y-113724663D01*
X119807671Y-113729137D01*
X119807669Y-113729138D01*
X119797880Y-113730688D01*
X119682302Y-113789578D01*
X119671885Y-113799995D01*
X119609573Y-113834021D01*
X119582790Y-113836900D01*
X117112298Y-113836900D01*
X117044177Y-113816898D01*
X117023203Y-113799996D01*
X116471005Y-113247799D01*
X116436980Y-113185486D01*
X116434100Y-113158703D01*
X116434100Y-106433958D01*
X123191496Y-106433958D01*
X123191636Y-106436873D01*
X123210963Y-106839240D01*
X123211724Y-106855088D01*
X123270766Y-107272549D01*
X123368117Y-107682772D01*
X123502944Y-108082248D01*
X123674094Y-108467562D01*
X123880104Y-108835420D01*
X124119213Y-109182676D01*
X124121076Y-109184908D01*
X124121082Y-109184916D01*
X124275130Y-109369482D01*
X124389376Y-109506361D01*
X124391444Y-109508418D01*
X124679389Y-109794859D01*
X124688283Y-109803707D01*
X124690525Y-109805558D01*
X124690530Y-109805563D01*
X125011136Y-110070321D01*
X125011144Y-110070327D01*
X125013377Y-110072171D01*
X125015786Y-110073811D01*
X125015787Y-110073812D01*
X125359462Y-110307812D01*
X125359467Y-110307815D01*
X125361880Y-110309458D01*
X125364428Y-110310868D01*
X125364437Y-110310873D01*
X125628964Y-110457201D01*
X125730812Y-110513540D01*
X126117017Y-110682670D01*
X126119774Y-110683584D01*
X126119778Y-110683586D01*
X126506144Y-110811739D01*
X126517194Y-110815404D01*
X126520029Y-110816061D01*
X126925076Y-110909946D01*
X126925085Y-110909948D01*
X126927921Y-110910605D01*
X127345685Y-110967460D01*
X127348535Y-110967587D01*
X127348536Y-110967587D01*
X127637061Y-110980437D01*
X127637078Y-110980437D01*
X127638484Y-110980500D01*
X129659267Y-110980500D01*
X129660706Y-110980433D01*
X129660723Y-110980433D01*
X129808031Y-110973615D01*
X129972165Y-110966018D01*
X130389728Y-110907705D01*
X130392550Y-110907040D01*
X130392558Y-110907039D01*
X130797280Y-110811739D01*
X130797285Y-110811737D01*
X130800120Y-110811070D01*
X131199831Y-110676941D01*
X131272208Y-110644944D01*
X131582765Y-110507648D01*
X131582776Y-110507642D01*
X131585444Y-110506463D01*
X131651789Y-110469460D01*
X131951123Y-110302511D01*
X131951130Y-110302506D01*
X131953661Y-110301095D01*
X132284979Y-110073812D01*
X132298927Y-110064244D01*
X132298934Y-110064239D01*
X132301333Y-110062593D01*
X132625489Y-109792995D01*
X132909570Y-109508418D01*
X132921302Y-109496666D01*
X132921306Y-109496661D01*
X132923356Y-109494608D01*
X133192387Y-109169982D01*
X133311335Y-108995938D01*
X133428640Y-108824299D01*
X133428646Y-108824289D01*
X133430283Y-108821894D01*
X133431689Y-108819363D01*
X133431695Y-108819353D01*
X133633591Y-108455871D01*
X133633595Y-108455862D01*
X133635008Y-108453319D01*
X133636181Y-108450652D01*
X133636186Y-108450643D01*
X133803638Y-108070078D01*
X133803641Y-108070071D01*
X133804812Y-108067409D01*
X133938244Y-107667465D01*
X133972316Y-107521627D01*
X134033497Y-107259753D01*
X134033498Y-107259745D01*
X134034162Y-107256905D01*
X134091746Y-106839240D01*
X134110504Y-106418042D01*
X134091177Y-106015668D01*
X134090416Y-105999817D01*
X134090415Y-105999807D01*
X134090276Y-105996912D01*
X134031234Y-105579451D01*
X133933883Y-105169228D01*
X133799056Y-104769752D01*
X133627906Y-104384438D01*
X133421896Y-104016580D01*
X133182787Y-103669324D01*
X133180924Y-103667092D01*
X133180918Y-103667084D01*
X133026870Y-103482518D01*
X132912624Y-103345639D01*
X132624485Y-103059005D01*
X132615788Y-103050353D01*
X132615786Y-103050351D01*
X132613717Y-103048293D01*
X132611475Y-103046442D01*
X132611470Y-103046437D01*
X132290864Y-102781679D01*
X132290856Y-102781673D01*
X132288623Y-102779829D01*
X132286213Y-102778188D01*
X131942538Y-102544188D01*
X131942533Y-102544185D01*
X131940120Y-102542542D01*
X131937572Y-102541132D01*
X131937563Y-102541127D01*
X131673036Y-102394799D01*
X131571188Y-102338460D01*
X131184983Y-102169330D01*
X131182226Y-102168416D01*
X131182222Y-102168414D01*
X130787568Y-102037512D01*
X130787566Y-102037511D01*
X130784806Y-102036596D01*
X130696989Y-102016241D01*
X130376924Y-101942054D01*
X130376915Y-101942052D01*
X130374079Y-101941395D01*
X129956315Y-101884540D01*
X129953465Y-101884413D01*
X129953464Y-101884413D01*
X129664939Y-101871563D01*
X129664922Y-101871563D01*
X129663516Y-101871500D01*
X127642733Y-101871500D01*
X127641294Y-101871567D01*
X127641277Y-101871567D01*
X127493969Y-101878385D01*
X127329835Y-101885982D01*
X126912272Y-101944295D01*
X126909450Y-101944960D01*
X126909442Y-101944961D01*
X126504720Y-102040261D01*
X126504715Y-102040263D01*
X126501880Y-102040930D01*
X126102169Y-102175059D01*
X126099507Y-102176236D01*
X125719235Y-102344352D01*
X125719224Y-102344358D01*
X125716556Y-102345537D01*
X125714003Y-102346961D01*
X125350877Y-102549489D01*
X125350870Y-102549494D01*
X125348339Y-102550905D01*
X125203029Y-102650588D01*
X125003073Y-102787756D01*
X125003066Y-102787761D01*
X125000667Y-102789407D01*
X124676511Y-103059005D01*
X124674455Y-103061065D01*
X124390377Y-103345639D01*
X124378644Y-103357392D01*
X124109613Y-103682018D01*
X123990665Y-103856062D01*
X123873360Y-104027701D01*
X123873354Y-104027711D01*
X123871717Y-104030106D01*
X123870311Y-104032637D01*
X123870305Y-104032647D01*
X123668409Y-104396129D01*
X123668405Y-104396138D01*
X123666992Y-104398681D01*
X123665819Y-104401348D01*
X123665814Y-104401357D01*
X123498362Y-104781922D01*
X123497188Y-104784591D01*
X123363756Y-105184535D01*
X123363092Y-105187378D01*
X123272155Y-105576618D01*
X123267838Y-105595095D01*
X123210254Y-106012760D01*
X123191496Y-106433958D01*
X116434100Y-106433958D01*
X116434100Y-49656000D01*
X116454102Y-49587879D01*
X116507758Y-49541386D01*
X116560100Y-49530000D01*
X117222000Y-49530000D01*
X117290121Y-49550002D01*
G37*
G04 #@! TD.AperFunction*
G04 #@! TA.AperFunction,Conductor*
G36*
X115410021Y-49550002D02*
G01*
X115456514Y-49603658D01*
X115467900Y-49656000D01*
X115467900Y-113342773D01*
X115466633Y-113354109D01*
X115467205Y-113354155D01*
X115466485Y-113363103D01*
X115464504Y-113371858D01*
X115465060Y-113380817D01*
X115467658Y-113422694D01*
X115467900Y-113430496D01*
X115467900Y-113445689D01*
X115468535Y-113450122D01*
X115469273Y-113455274D01*
X115470303Y-113465330D01*
X115473073Y-113509974D01*
X115476121Y-113518417D01*
X115477254Y-113523887D01*
X115479707Y-113533726D01*
X115481277Y-113539096D01*
X115482550Y-113547984D01*
X115486266Y-113556158D01*
X115486267Y-113556160D01*
X115501064Y-113588705D01*
X115504874Y-113598065D01*
X115520062Y-113640134D01*
X115525357Y-113647382D01*
X115527977Y-113652310D01*
X115533113Y-113661099D01*
X115536112Y-113665788D01*
X115539826Y-113673957D01*
X115545682Y-113680754D01*
X115545684Y-113680756D01*
X115557118Y-113694025D01*
X115569022Y-113707839D01*
X115575312Y-113715762D01*
X115579909Y-113722056D01*
X115579914Y-113722062D01*
X115582782Y-113725988D01*
X115593037Y-113736243D01*
X115599394Y-113743089D01*
X115630156Y-113778790D01*
X115637690Y-113783674D01*
X115644453Y-113789573D01*
X115644403Y-113789630D01*
X115654988Y-113798194D01*
X116470153Y-114613360D01*
X116477272Y-114622270D01*
X116477709Y-114621898D01*
X116483528Y-114628735D01*
X116488318Y-114636327D01*
X116495047Y-114642270D01*
X116495048Y-114642271D01*
X116526501Y-114670049D01*
X116532188Y-114675395D01*
X116542925Y-114686132D01*
X116546510Y-114688819D01*
X116546516Y-114688824D01*
X116550681Y-114691946D01*
X116558516Y-114698325D01*
X116573299Y-114711380D01*
X116611120Y-114771464D01*
X116610452Y-114842458D01*
X116571508Y-114901820D01*
X116506653Y-114930705D01*
X116486196Y-114931588D01*
X116477220Y-114929655D01*
X116444356Y-114933545D01*
X116443660Y-114933627D01*
X116437679Y-114933980D01*
X116437687Y-114934072D01*
X116432508Y-114934500D01*
X116427308Y-114934500D01*
X116422181Y-114935353D01*
X116422173Y-114935354D01*
X116408151Y-114937688D01*
X116402275Y-114938525D01*
X116361431Y-114943359D01*
X116361429Y-114943360D01*
X116351092Y-114944583D01*
X116342795Y-114948567D01*
X116333717Y-114950078D01*
X116324555Y-114955022D01*
X116324551Y-114955023D01*
X116288356Y-114974553D01*
X116283072Y-114977246D01*
X116236602Y-114999560D01*
X116232308Y-115003170D01*
X116230376Y-115005102D01*
X116228427Y-115006889D01*
X116228374Y-115006918D01*
X116228255Y-115006788D01*
X116227687Y-115007289D01*
X116221943Y-115010388D01*
X116214876Y-115018033D01*
X116185134Y-115050208D01*
X116181704Y-115053774D01*
X114830520Y-116404958D01*
X114811511Y-116420311D01*
X114810448Y-116421278D01*
X114801696Y-116426929D01*
X114781516Y-116452527D01*
X114780771Y-116453472D01*
X114776782Y-116457961D01*
X114776853Y-116458021D01*
X114776119Y-116458887D01*
X114775732Y-116459141D01*
X114770916Y-116464561D01*
X114769829Y-116465648D01*
X114768248Y-116464067D01*
X114716816Y-116497921D01*
X114645823Y-116498695D01*
X114585682Y-116460966D01*
X114555486Y-116396711D01*
X114554000Y-116377419D01*
X114554000Y-49656000D01*
X114574002Y-49587879D01*
X114627658Y-49541386D01*
X114680000Y-49530000D01*
X115341900Y-49530000D01*
X115410021Y-49550002D01*
G37*
G04 #@! TD.AperFunction*
M02*
