G04 #@! TF.GenerationSoftware,KiCad,Pcbnew,6.0.10-86aedd382b~118~ubuntu18.04.1*
G04 #@! TF.CreationDate,2024-08-26T14:17:38-06:00*
G04 #@! TF.ProjectId,ckt-axle,636b742d-6178-46c6-952e-6b696361645f,rev?*
G04 #@! TF.SameCoordinates,Original*
G04 #@! TF.FileFunction,Paste,Top*
G04 #@! TF.FilePolarity,Positive*
%FSLAX46Y46*%
G04 Gerber Fmt 4.6, Leading zero omitted, Abs format (unit mm)*
G04 Created by KiCad (PCBNEW 6.0.10-86aedd382b~118~ubuntu18.04.1) date 2024-08-26 14:17:38*
%MOMM*%
%LPD*%
G01*
G04 APERTURE LIST*
G04 APERTURE END LIST*
G36*
G01*
X118646000Y-119057000D02*
X118646000Y-119957000D01*
G75*
G02*
X118396000Y-120207000I-250000J0D01*
G01*
X117871000Y-120207000D01*
G75*
G02*
X117621000Y-119957000I0J250000D01*
G01*
X117621000Y-119057000D01*
G75*
G02*
X117871000Y-118807000I250000J0D01*
G01*
X118396000Y-118807000D01*
G75*
G02*
X118646000Y-119057000I0J-250000D01*
G01*
G37*
G36*
G01*
X116821000Y-119057000D02*
X116821000Y-119957000D01*
G75*
G02*
X116571000Y-120207000I-250000J0D01*
G01*
X116046000Y-120207000D01*
G75*
G02*
X115796000Y-119957000I0J250000D01*
G01*
X115796000Y-119057000D01*
G75*
G02*
X116046000Y-118807000I250000J0D01*
G01*
X116571000Y-118807000D01*
G75*
G02*
X116821000Y-119057000I0J-250000D01*
G01*
G37*
G36*
G01*
X121257000Y-123513000D02*
X121257000Y-122613000D01*
G75*
G02*
X121507000Y-122363000I250000J0D01*
G01*
X122032000Y-122363000D01*
G75*
G02*
X122282000Y-122613000I0J-250000D01*
G01*
X122282000Y-123513000D01*
G75*
G02*
X122032000Y-123763000I-250000J0D01*
G01*
X121507000Y-123763000D01*
G75*
G02*
X121257000Y-123513000I0J250000D01*
G01*
G37*
G36*
G01*
X123082000Y-123513000D02*
X123082000Y-122613000D01*
G75*
G02*
X123332000Y-122363000I250000J0D01*
G01*
X123857000Y-122363000D01*
G75*
G02*
X124107000Y-122613000I0J-250000D01*
G01*
X124107000Y-123513000D01*
G75*
G02*
X123857000Y-123763000I-250000J0D01*
G01*
X123332000Y-123763000D01*
G75*
G02*
X123082000Y-123513000I0J250000D01*
G01*
G37*
G36*
G01*
X126851000Y-122196000D02*
X126851000Y-120946000D01*
G75*
G02*
X127001000Y-120796000I150000J0D01*
G01*
X127301000Y-120796000D01*
G75*
G02*
X127451000Y-120946000I0J-150000D01*
G01*
X127451000Y-122196000D01*
G75*
G02*
X127301000Y-122346000I-150000J0D01*
G01*
X127001000Y-122346000D01*
G75*
G02*
X126851000Y-122196000I0J150000D01*
G01*
G37*
G36*
G01*
X127851000Y-122196000D02*
X127851000Y-120946000D01*
G75*
G02*
X128001000Y-120796000I150000J0D01*
G01*
X128301000Y-120796000D01*
G75*
G02*
X128451000Y-120946000I0J-150000D01*
G01*
X128451000Y-122196000D01*
G75*
G02*
X128301000Y-122346000I-150000J0D01*
G01*
X128001000Y-122346000D01*
G75*
G02*
X127851000Y-122196000I0J150000D01*
G01*
G37*
G36*
G01*
X128851000Y-122196000D02*
X128851000Y-120946000D01*
G75*
G02*
X129001000Y-120796000I150000J0D01*
G01*
X129301000Y-120796000D01*
G75*
G02*
X129451000Y-120946000I0J-150000D01*
G01*
X129451000Y-122196000D01*
G75*
G02*
X129301000Y-122346000I-150000J0D01*
G01*
X129001000Y-122346000D01*
G75*
G02*
X128851000Y-122196000I0J150000D01*
G01*
G37*
G36*
G01*
X129851000Y-122196000D02*
X129851000Y-120946000D01*
G75*
G02*
X130001000Y-120796000I150000J0D01*
G01*
X130301000Y-120796000D01*
G75*
G02*
X130451000Y-120946000I0J-150000D01*
G01*
X130451000Y-122196000D01*
G75*
G02*
X130301000Y-122346000I-150000J0D01*
G01*
X130001000Y-122346000D01*
G75*
G02*
X129851000Y-122196000I0J150000D01*
G01*
G37*
G36*
G01*
X130851000Y-126096000D02*
X130851000Y-124796000D01*
G75*
G02*
X131101000Y-124546000I250000J0D01*
G01*
X131801000Y-124546000D01*
G75*
G02*
X132051000Y-124796000I0J-250000D01*
G01*
X132051000Y-126096000D01*
G75*
G02*
X131801000Y-126346000I-250000J0D01*
G01*
X131101000Y-126346000D01*
G75*
G02*
X130851000Y-126096000I0J250000D01*
G01*
G37*
G36*
G01*
X125251000Y-126096000D02*
X125251000Y-124796000D01*
G75*
G02*
X125501000Y-124546000I250000J0D01*
G01*
X126201000Y-124546000D01*
G75*
G02*
X126451000Y-124796000I0J-250000D01*
G01*
X126451000Y-126096000D01*
G75*
G02*
X126201000Y-126346000I-250000J0D01*
G01*
X125501000Y-126346000D01*
G75*
G02*
X125251000Y-126096000I0J250000D01*
G01*
G37*
G36*
G01*
X124940000Y-117417000D02*
X124940000Y-116517000D01*
G75*
G02*
X125190000Y-116267000I250000J0D01*
G01*
X125715000Y-116267000D01*
G75*
G02*
X125965000Y-116517000I0J-250000D01*
G01*
X125965000Y-117417000D01*
G75*
G02*
X125715000Y-117667000I-250000J0D01*
G01*
X125190000Y-117667000D01*
G75*
G02*
X124940000Y-117417000I0J250000D01*
G01*
G37*
G36*
G01*
X126765000Y-117417000D02*
X126765000Y-116517000D01*
G75*
G02*
X127015000Y-116267000I250000J0D01*
G01*
X127540000Y-116267000D01*
G75*
G02*
X127790000Y-116517000I0J-250000D01*
G01*
X127790000Y-117417000D01*
G75*
G02*
X127540000Y-117667000I-250000J0D01*
G01*
X127015000Y-117667000D01*
G75*
G02*
X126765000Y-117417000I0J250000D01*
G01*
G37*
G36*
G01*
X132362000Y-116517000D02*
X132362000Y-117417000D01*
G75*
G02*
X132112000Y-117667000I-250000J0D01*
G01*
X131587000Y-117667000D01*
G75*
G02*
X131337000Y-117417000I0J250000D01*
G01*
X131337000Y-116517000D01*
G75*
G02*
X131587000Y-116267000I250000J0D01*
G01*
X132112000Y-116267000D01*
G75*
G02*
X132362000Y-116517000I0J-250000D01*
G01*
G37*
G36*
G01*
X130537000Y-116517000D02*
X130537000Y-117417000D01*
G75*
G02*
X130287000Y-117667000I-250000J0D01*
G01*
X129762000Y-117667000D01*
G75*
G02*
X129512000Y-117417000I0J250000D01*
G01*
X129512000Y-116517000D01*
G75*
G02*
X129762000Y-116267000I250000J0D01*
G01*
X130287000Y-116267000D01*
G75*
G02*
X130537000Y-116517000I0J-250000D01*
G01*
G37*
G36*
G01*
X120236000Y-117170000D02*
X119926000Y-117170000D01*
G75*
G02*
X119771000Y-117015000I0J155000D01*
G01*
X119771000Y-116625000D01*
G75*
G02*
X119926000Y-116470000I155000J0D01*
G01*
X120236000Y-116470000D01*
G75*
G02*
X120391000Y-116625000I0J-155000D01*
G01*
X120391000Y-117015000D01*
G75*
G02*
X120236000Y-117170000I-155000J0D01*
G01*
G37*
G36*
G01*
X121186000Y-117170000D02*
X120876000Y-117170000D01*
G75*
G02*
X120721000Y-117015000I0J155000D01*
G01*
X120721000Y-116625000D01*
G75*
G02*
X120876000Y-116470000I155000J0D01*
G01*
X121186000Y-116470000D01*
G75*
G02*
X121341000Y-116625000I0J-155000D01*
G01*
X121341000Y-117015000D01*
G75*
G02*
X121186000Y-117170000I-155000J0D01*
G01*
G37*
G36*
G01*
X122136000Y-117170000D02*
X121826000Y-117170000D01*
G75*
G02*
X121671000Y-117015000I0J155000D01*
G01*
X121671000Y-116625000D01*
G75*
G02*
X121826000Y-116470000I155000J0D01*
G01*
X122136000Y-116470000D01*
G75*
G02*
X122291000Y-116625000I0J-155000D01*
G01*
X122291000Y-117015000D01*
G75*
G02*
X122136000Y-117170000I-155000J0D01*
G01*
G37*
G36*
G01*
X122136000Y-114670000D02*
X121826000Y-114670000D01*
G75*
G02*
X121671000Y-114515000I0J155000D01*
G01*
X121671000Y-114125000D01*
G75*
G02*
X121826000Y-113970000I155000J0D01*
G01*
X122136000Y-113970000D01*
G75*
G02*
X122291000Y-114125000I0J-155000D01*
G01*
X122291000Y-114515000D01*
G75*
G02*
X122136000Y-114670000I-155000J0D01*
G01*
G37*
G36*
G01*
X121186000Y-114670000D02*
X120876000Y-114670000D01*
G75*
G02*
X120721000Y-114515000I0J155000D01*
G01*
X120721000Y-114125000D01*
G75*
G02*
X120876000Y-113970000I155000J0D01*
G01*
X121186000Y-113970000D01*
G75*
G02*
X121341000Y-114125000I0J-155000D01*
G01*
X121341000Y-114515000D01*
G75*
G02*
X121186000Y-114670000I-155000J0D01*
G01*
G37*
G36*
G01*
X120236000Y-114670000D02*
X119926000Y-114670000D01*
G75*
G02*
X119771000Y-114515000I0J155000D01*
G01*
X119771000Y-114125000D01*
G75*
G02*
X119926000Y-113970000I155000J0D01*
G01*
X120236000Y-113970000D01*
G75*
G02*
X120391000Y-114125000I0J-155000D01*
G01*
X120391000Y-114515000D01*
G75*
G02*
X120236000Y-114670000I-155000J0D01*
G01*
G37*
G36*
G01*
X120216000Y-119982000D02*
X120216000Y-119032000D01*
G75*
G02*
X120466000Y-118782000I250000J0D01*
G01*
X120966000Y-118782000D01*
G75*
G02*
X121216000Y-119032000I0J-250000D01*
G01*
X121216000Y-119982000D01*
G75*
G02*
X120966000Y-120232000I-250000J0D01*
G01*
X120466000Y-120232000D01*
G75*
G02*
X120216000Y-119982000I0J250000D01*
G01*
G37*
G36*
G01*
X122116000Y-119982000D02*
X122116000Y-119032000D01*
G75*
G02*
X122366000Y-118782000I250000J0D01*
G01*
X122866000Y-118782000D01*
G75*
G02*
X123116000Y-119032000I0J-250000D01*
G01*
X123116000Y-119982000D01*
G75*
G02*
X122866000Y-120232000I-250000J0D01*
G01*
X122366000Y-120232000D01*
G75*
G02*
X122116000Y-119982000I0J250000D01*
G01*
G37*
G36*
G01*
X141976000Y-48888000D02*
X140726000Y-48888000D01*
G75*
G02*
X140476000Y-48638000I0J250000D01*
G01*
X140476000Y-47888000D01*
G75*
G02*
X140726000Y-47638000I250000J0D01*
G01*
X141976000Y-47638000D01*
G75*
G02*
X142226000Y-47888000I0J-250000D01*
G01*
X142226000Y-48638000D01*
G75*
G02*
X141976000Y-48888000I-250000J0D01*
G01*
G37*
G36*
G01*
X141976000Y-46088000D02*
X140726000Y-46088000D01*
G75*
G02*
X140476000Y-45838000I0J250000D01*
G01*
X140476000Y-45088000D01*
G75*
G02*
X140726000Y-44838000I250000J0D01*
G01*
X141976000Y-44838000D01*
G75*
G02*
X142226000Y-45088000I0J-250000D01*
G01*
X142226000Y-45838000D01*
G75*
G02*
X141976000Y-46088000I-250000J0D01*
G01*
G37*
G36*
G01*
X116576000Y-48888000D02*
X115326000Y-48888000D01*
G75*
G02*
X115076000Y-48638000I0J250000D01*
G01*
X115076000Y-47888000D01*
G75*
G02*
X115326000Y-47638000I250000J0D01*
G01*
X116576000Y-47638000D01*
G75*
G02*
X116826000Y-47888000I0J-250000D01*
G01*
X116826000Y-48638000D01*
G75*
G02*
X116576000Y-48888000I-250000J0D01*
G01*
G37*
G36*
G01*
X116576000Y-46088000D02*
X115326000Y-46088000D01*
G75*
G02*
X115076000Y-45838000I0J250000D01*
G01*
X115076000Y-45088000D01*
G75*
G02*
X115326000Y-44838000I250000J0D01*
G01*
X116576000Y-44838000D01*
G75*
G02*
X116826000Y-45088000I0J-250000D01*
G01*
X116826000Y-45838000D01*
G75*
G02*
X116576000Y-46088000I-250000J0D01*
G01*
G37*
G36*
G01*
X140791250Y-124488000D02*
X139878750Y-124488000D01*
G75*
G02*
X139635000Y-124244250I0J243750D01*
G01*
X139635000Y-123756750D01*
G75*
G02*
X139878750Y-123513000I243750J0D01*
G01*
X140791250Y-123513000D01*
G75*
G02*
X141035000Y-123756750I0J-243750D01*
G01*
X141035000Y-124244250D01*
G75*
G02*
X140791250Y-124488000I-243750J0D01*
G01*
G37*
G36*
G01*
X140791250Y-122613000D02*
X139878750Y-122613000D01*
G75*
G02*
X139635000Y-122369250I0J243750D01*
G01*
X139635000Y-121881750D01*
G75*
G02*
X139878750Y-121638000I243750J0D01*
G01*
X140791250Y-121638000D01*
G75*
G02*
X141035000Y-121881750I0J-243750D01*
G01*
X141035000Y-122369250D01*
G75*
G02*
X140791250Y-122613000I-243750J0D01*
G01*
G37*
G36*
G01*
X135324000Y-123345000D02*
X134424000Y-123345000D01*
G75*
G02*
X134174000Y-123095000I0J250000D01*
G01*
X134174000Y-122570000D01*
G75*
G02*
X134424000Y-122320000I250000J0D01*
G01*
X135324000Y-122320000D01*
G75*
G02*
X135574000Y-122570000I0J-250000D01*
G01*
X135574000Y-123095000D01*
G75*
G02*
X135324000Y-123345000I-250000J0D01*
G01*
G37*
G36*
G01*
X135324000Y-121520000D02*
X134424000Y-121520000D01*
G75*
G02*
X134174000Y-121270000I0J250000D01*
G01*
X134174000Y-120745000D01*
G75*
G02*
X134424000Y-120495000I250000J0D01*
G01*
X135324000Y-120495000D01*
G75*
G02*
X135574000Y-120745000I0J-250000D01*
G01*
X135574000Y-121270000D01*
G75*
G02*
X135324000Y-121520000I-250000J0D01*
G01*
G37*
G36*
G01*
X117423250Y-124488000D02*
X116510750Y-124488000D01*
G75*
G02*
X116267000Y-124244250I0J243750D01*
G01*
X116267000Y-123756750D01*
G75*
G02*
X116510750Y-123513000I243750J0D01*
G01*
X117423250Y-123513000D01*
G75*
G02*
X117667000Y-123756750I0J-243750D01*
G01*
X117667000Y-124244250D01*
G75*
G02*
X117423250Y-124488000I-243750J0D01*
G01*
G37*
G36*
G01*
X117423250Y-122613000D02*
X116510750Y-122613000D01*
G75*
G02*
X116267000Y-122369250I0J243750D01*
G01*
X116267000Y-121881750D01*
G75*
G02*
X116510750Y-121638000I243750J0D01*
G01*
X117423250Y-121638000D01*
G75*
G02*
X117667000Y-121881750I0J-243750D01*
G01*
X117667000Y-122369250D01*
G75*
G02*
X117423250Y-122613000I-243750J0D01*
G01*
G37*
G36*
G01*
X140785000Y-120170000D02*
X139885000Y-120170000D01*
G75*
G02*
X139635000Y-119920000I0J250000D01*
G01*
X139635000Y-119395000D01*
G75*
G02*
X139885000Y-119145000I250000J0D01*
G01*
X140785000Y-119145000D01*
G75*
G02*
X141035000Y-119395000I0J-250000D01*
G01*
X141035000Y-119920000D01*
G75*
G02*
X140785000Y-120170000I-250000J0D01*
G01*
G37*
G36*
G01*
X140785000Y-118345000D02*
X139885000Y-118345000D01*
G75*
G02*
X139635000Y-118095000I0J250000D01*
G01*
X139635000Y-117570000D01*
G75*
G02*
X139885000Y-117320000I250000J0D01*
G01*
X140785000Y-117320000D01*
G75*
G02*
X141035000Y-117570000I0J-250000D01*
G01*
X141035000Y-118095000D01*
G75*
G02*
X140785000Y-118345000I-250000J0D01*
G01*
G37*
M02*
