G04 #@! TF.GenerationSoftware,KiCad,Pcbnew,6.0.10-86aedd382b~118~ubuntu18.04.1*
G04 #@! TF.CreationDate,2024-08-26T14:17:38-06:00*
G04 #@! TF.ProjectId,ckt-axle,636b742d-6178-46c6-952e-6b696361645f,rev?*
G04 #@! TF.SameCoordinates,Original*
G04 #@! TF.FileFunction,Legend,Top*
G04 #@! TF.FilePolarity,Positive*
%FSLAX46Y46*%
G04 Gerber Fmt 4.6, Leading zero omitted, Abs format (unit mm)*
G04 Created by KiCad (PCBNEW 6.0.10-86aedd382b~118~ubuntu18.04.1) date 2024-08-26 14:17:38*
%MOMM*%
%LPD*%
G01*
G04 APERTURE LIST*
%ADD10C,0.152400*%
%ADD11C,0.150000*%
%ADD12C,0.120000*%
G04 APERTURE END LIST*
D10*
X141665476Y-62227097D02*
X141617095Y-62275478D01*
X141471952Y-62323859D01*
X141375190Y-62323859D01*
X141230047Y-62275478D01*
X141133285Y-62178716D01*
X141084904Y-62081954D01*
X141036523Y-61888430D01*
X141036523Y-61743287D01*
X141084904Y-61549763D01*
X141133285Y-61453001D01*
X141230047Y-61356240D01*
X141375190Y-61307859D01*
X141471952Y-61307859D01*
X141617095Y-61356240D01*
X141665476Y-61404620D01*
X141133285Y-65063188D02*
X141471952Y-65063188D01*
X141617095Y-65595379D02*
X141133285Y-65595379D01*
X141133285Y-64579379D01*
X141617095Y-64579379D01*
X123280714Y-97969977D02*
X123232333Y-98018358D01*
X123087190Y-98066739D01*
X122990428Y-98066739D01*
X122845285Y-98018358D01*
X122748523Y-97921596D01*
X122700142Y-97824834D01*
X122651761Y-97631310D01*
X122651761Y-97486167D01*
X122700142Y-97292643D01*
X122748523Y-97195881D01*
X122845285Y-97099120D01*
X122990428Y-97050739D01*
X123087190Y-97050739D01*
X123232333Y-97099120D01*
X123280714Y-97147500D01*
X123716142Y-98066739D02*
X123716142Y-97050739D01*
X124296714Y-98066739D02*
X123861285Y-97486167D01*
X124296714Y-97050739D02*
X123716142Y-97631310D01*
X124587000Y-97050739D02*
X125167571Y-97050739D01*
X124877285Y-98066739D02*
X124877285Y-97050739D01*
X125506238Y-97679691D02*
X126280333Y-97679691D01*
X126715761Y-97776453D02*
X127199571Y-97776453D01*
X126619000Y-98066739D02*
X126957666Y-97050739D01*
X127296333Y-98066739D01*
X127538238Y-97050739D02*
X128215571Y-98066739D01*
X128215571Y-97050739D02*
X127538238Y-98066739D01*
X129086428Y-98066739D02*
X128602619Y-98066739D01*
X128602619Y-97050739D01*
X129425095Y-97534548D02*
X129763761Y-97534548D01*
X129908904Y-98066739D02*
X129425095Y-98066739D01*
X129425095Y-97050739D01*
X129908904Y-97050739D01*
X131795761Y-97389405D02*
X132037666Y-98066739D01*
X132279571Y-97389405D01*
X133198809Y-98066739D02*
X132618238Y-98066739D01*
X132908523Y-98066739D02*
X132908523Y-97050739D01*
X132811761Y-97195881D01*
X132715000Y-97292643D01*
X132618238Y-97341024D01*
X133634238Y-97969977D02*
X133682619Y-98018358D01*
X133634238Y-98066739D01*
X133585857Y-98018358D01*
X133634238Y-97969977D01*
X133634238Y-98066739D01*
X134069666Y-97147500D02*
X134118047Y-97099120D01*
X134214809Y-97050739D01*
X134456714Y-97050739D01*
X134553476Y-97099120D01*
X134601857Y-97147500D01*
X134650238Y-97244262D01*
X134650238Y-97341024D01*
X134601857Y-97486167D01*
X134021285Y-98066739D01*
X134650238Y-98066739D01*
X122240523Y-98928403D02*
X122143761Y-98880022D01*
X121950238Y-98880022D01*
X121853476Y-98928403D01*
X121756714Y-99025165D01*
X121708333Y-99121927D01*
X121708333Y-99315451D01*
X121756714Y-99412213D01*
X121853476Y-99508975D01*
X121950238Y-99557356D01*
X122143761Y-99557356D01*
X122240523Y-99508975D01*
X122047000Y-98541356D02*
X121805095Y-98589737D01*
X121563190Y-98734880D01*
X121418047Y-98976784D01*
X121369666Y-99218689D01*
X121418047Y-99460594D01*
X121563190Y-99702499D01*
X121805095Y-99847641D01*
X122047000Y-99896022D01*
X122288904Y-99847641D01*
X122530809Y-99702499D01*
X122675952Y-99460594D01*
X122724333Y-99218689D01*
X122675952Y-98976784D01*
X122530809Y-98734880D01*
X122288904Y-98589737D01*
X122047000Y-98541356D01*
X123111380Y-98783260D02*
X123159761Y-98734880D01*
X123256523Y-98686499D01*
X123498428Y-98686499D01*
X123595190Y-98734880D01*
X123643571Y-98783260D01*
X123691952Y-98880022D01*
X123691952Y-98976784D01*
X123643571Y-99121927D01*
X123063000Y-99702499D01*
X123691952Y-99702499D01*
X124320904Y-98686499D02*
X124417666Y-98686499D01*
X124514428Y-98734880D01*
X124562809Y-98783260D01*
X124611190Y-98880022D01*
X124659571Y-99073546D01*
X124659571Y-99315451D01*
X124611190Y-99508975D01*
X124562809Y-99605737D01*
X124514428Y-99654118D01*
X124417666Y-99702499D01*
X124320904Y-99702499D01*
X124224142Y-99654118D01*
X124175761Y-99605737D01*
X124127380Y-99508975D01*
X124079000Y-99315451D01*
X124079000Y-99073546D01*
X124127380Y-98880022D01*
X124175761Y-98783260D01*
X124224142Y-98734880D01*
X124320904Y-98686499D01*
X125046619Y-98783260D02*
X125095000Y-98734880D01*
X125191761Y-98686499D01*
X125433666Y-98686499D01*
X125530428Y-98734880D01*
X125578809Y-98783260D01*
X125627190Y-98880022D01*
X125627190Y-98976784D01*
X125578809Y-99121927D01*
X124998238Y-99702499D01*
X125627190Y-99702499D01*
X126498047Y-99025165D02*
X126498047Y-99702499D01*
X126256142Y-98638118D02*
X126014238Y-99363832D01*
X126643190Y-99363832D01*
X129159000Y-99605737D02*
X129110619Y-99654118D01*
X128965476Y-99702499D01*
X128868714Y-99702499D01*
X128723571Y-99654118D01*
X128626809Y-99557356D01*
X128578428Y-99460594D01*
X128530047Y-99267070D01*
X128530047Y-99121927D01*
X128578428Y-98928403D01*
X128626809Y-98831641D01*
X128723571Y-98734880D01*
X128868714Y-98686499D01*
X128965476Y-98686499D01*
X129110619Y-98734880D01*
X129159000Y-98783260D01*
X130175000Y-99605737D02*
X130126619Y-99654118D01*
X129981476Y-99702499D01*
X129884714Y-99702499D01*
X129739571Y-99654118D01*
X129642809Y-99557356D01*
X129594428Y-99460594D01*
X129546047Y-99267070D01*
X129546047Y-99121927D01*
X129594428Y-98928403D01*
X129642809Y-98831641D01*
X129739571Y-98734880D01*
X129884714Y-98686499D01*
X129981476Y-98686499D01*
X130126619Y-98734880D01*
X130175000Y-98783260D01*
X131723190Y-99170308D02*
X131868333Y-99218689D01*
X131916714Y-99267070D01*
X131965095Y-99363832D01*
X131965095Y-99508975D01*
X131916714Y-99605737D01*
X131868333Y-99654118D01*
X131771571Y-99702499D01*
X131384523Y-99702499D01*
X131384523Y-98686499D01*
X131723190Y-98686499D01*
X131819952Y-98734880D01*
X131868333Y-98783260D01*
X131916714Y-98880022D01*
X131916714Y-98976784D01*
X131868333Y-99073546D01*
X131819952Y-99121927D01*
X131723190Y-99170308D01*
X131384523Y-99170308D01*
X132594047Y-99218689D02*
X132594047Y-99702499D01*
X132255380Y-98686499D02*
X132594047Y-99218689D01*
X132932714Y-98686499D01*
X133271380Y-99315451D02*
X134045476Y-99315451D01*
X134480904Y-99654118D02*
X134626047Y-99702499D01*
X134867952Y-99702499D01*
X134964714Y-99654118D01*
X135013095Y-99605737D01*
X135061476Y-99508975D01*
X135061476Y-99412213D01*
X135013095Y-99315451D01*
X134964714Y-99267070D01*
X134867952Y-99218689D01*
X134674428Y-99170308D01*
X134577666Y-99121927D01*
X134529285Y-99073546D01*
X134480904Y-98976784D01*
X134480904Y-98880022D01*
X134529285Y-98783260D01*
X134577666Y-98734880D01*
X134674428Y-98686499D01*
X134916333Y-98686499D01*
X135061476Y-98734880D01*
X135448523Y-99412213D02*
X135932333Y-99412213D01*
X135351761Y-99702499D02*
X135690428Y-98686499D01*
X136029095Y-99702499D01*
X123909666Y-113362619D02*
X123909666Y-112685285D01*
X123909666Y-112346619D02*
X123861285Y-112395000D01*
X123909666Y-112443380D01*
X123958047Y-112395000D01*
X123909666Y-112346619D01*
X123909666Y-112443380D01*
X124828904Y-113362619D02*
X124828904Y-112830428D01*
X124780523Y-112733666D01*
X124683761Y-112685285D01*
X124490238Y-112685285D01*
X124393476Y-112733666D01*
X124828904Y-113314238D02*
X124732142Y-113362619D01*
X124490238Y-113362619D01*
X124393476Y-113314238D01*
X124345095Y-113217476D01*
X124345095Y-113120714D01*
X124393476Y-113023952D01*
X124490238Y-112975571D01*
X124732142Y-112975571D01*
X124828904Y-112927190D01*
X125264333Y-113314238D02*
X125361095Y-113362619D01*
X125554619Y-113362619D01*
X125651380Y-113314238D01*
X125699761Y-113217476D01*
X125699761Y-113169095D01*
X125651380Y-113072333D01*
X125554619Y-113023952D01*
X125409476Y-113023952D01*
X125312714Y-112975571D01*
X125264333Y-112878809D01*
X125264333Y-112830428D01*
X125312714Y-112733666D01*
X125409476Y-112685285D01*
X125554619Y-112685285D01*
X125651380Y-112733666D01*
X126570619Y-113314238D02*
X126473857Y-113362619D01*
X126280333Y-113362619D01*
X126183571Y-113314238D01*
X126135190Y-113265857D01*
X126086809Y-113169095D01*
X126086809Y-112878809D01*
X126135190Y-112782047D01*
X126183571Y-112733666D01*
X126280333Y-112685285D01*
X126473857Y-112685285D01*
X126570619Y-112733666D01*
X127441476Y-113362619D02*
X127441476Y-112830428D01*
X127393095Y-112733666D01*
X127296333Y-112685285D01*
X127102809Y-112685285D01*
X127006047Y-112733666D01*
X127441476Y-113314238D02*
X127344714Y-113362619D01*
X127102809Y-113362619D01*
X127006047Y-113314238D01*
X126957666Y-113217476D01*
X126957666Y-113120714D01*
X127006047Y-113023952D01*
X127102809Y-112975571D01*
X127344714Y-112975571D01*
X127441476Y-112927190D01*
X128070428Y-113362619D02*
X127973666Y-113314238D01*
X127925285Y-113217476D01*
X127925285Y-112346619D01*
X128844523Y-113314238D02*
X128747761Y-113362619D01*
X128554238Y-113362619D01*
X128457476Y-113314238D01*
X128409095Y-113217476D01*
X128409095Y-112830428D01*
X128457476Y-112733666D01*
X128554238Y-112685285D01*
X128747761Y-112685285D01*
X128844523Y-112733666D01*
X128892904Y-112830428D01*
X128892904Y-112927190D01*
X128409095Y-113023952D01*
X129763761Y-113362619D02*
X129763761Y-112346619D01*
X129763761Y-113314238D02*
X129667000Y-113362619D01*
X129473476Y-113362619D01*
X129376714Y-113314238D01*
X129328333Y-113265857D01*
X129279952Y-113169095D01*
X129279952Y-112878809D01*
X129328333Y-112782047D01*
X129376714Y-112733666D01*
X129473476Y-112685285D01*
X129667000Y-112685285D01*
X129763761Y-112733666D01*
X130247571Y-113265857D02*
X130295952Y-113314238D01*
X130247571Y-113362619D01*
X130199190Y-113314238D01*
X130247571Y-113265857D01*
X130247571Y-113362619D01*
X131166809Y-113314238D02*
X131070047Y-113362619D01*
X130876523Y-113362619D01*
X130779761Y-113314238D01*
X130731380Y-113265857D01*
X130683000Y-113169095D01*
X130683000Y-112878809D01*
X130731380Y-112782047D01*
X130779761Y-112733666D01*
X130876523Y-112685285D01*
X131070047Y-112685285D01*
X131166809Y-112733666D01*
X131747380Y-113362619D02*
X131650619Y-113314238D01*
X131602238Y-113265857D01*
X131553857Y-113169095D01*
X131553857Y-112878809D01*
X131602238Y-112782047D01*
X131650619Y-112733666D01*
X131747380Y-112685285D01*
X131892523Y-112685285D01*
X131989285Y-112733666D01*
X132037666Y-112782047D01*
X132086047Y-112878809D01*
X132086047Y-113169095D01*
X132037666Y-113265857D01*
X131989285Y-113314238D01*
X131892523Y-113362619D01*
X131747380Y-113362619D01*
X132521476Y-113362619D02*
X132521476Y-112685285D01*
X132521476Y-112782047D02*
X132569857Y-112733666D01*
X132666619Y-112685285D01*
X132811761Y-112685285D01*
X132908523Y-112733666D01*
X132956904Y-112830428D01*
X132956904Y-113362619D01*
X132956904Y-112830428D02*
X133005285Y-112733666D01*
X133102047Y-112685285D01*
X133247190Y-112685285D01*
X133343952Y-112733666D01*
X133392333Y-112830428D01*
X133392333Y-113362619D01*
X115612333Y-126316619D02*
X115612333Y-125300619D01*
X115999380Y-125300619D01*
X116096142Y-125349000D01*
X116144523Y-125397380D01*
X116192904Y-125494142D01*
X116192904Y-125639285D01*
X116144523Y-125736047D01*
X116096142Y-125784428D01*
X115999380Y-125832809D01*
X115612333Y-125832809D01*
X116531571Y-125300619D02*
X116773476Y-126316619D01*
X116967000Y-125590904D01*
X117160523Y-126316619D01*
X117402428Y-125300619D01*
X118370047Y-126316619D02*
X118031380Y-125832809D01*
X117789476Y-126316619D02*
X117789476Y-125300619D01*
X118176523Y-125300619D01*
X118273285Y-125349000D01*
X118321666Y-125397380D01*
X118370047Y-125494142D01*
X118370047Y-125639285D01*
X118321666Y-125736047D01*
X118273285Y-125784428D01*
X118176523Y-125832809D01*
X117789476Y-125832809D01*
X137232571Y-126316619D02*
X137232571Y-125300619D01*
X137474476Y-125300619D01*
X137619619Y-125349000D01*
X137716380Y-125445761D01*
X137764761Y-125542523D01*
X137813142Y-125736047D01*
X137813142Y-125881190D01*
X137764761Y-126074714D01*
X137716380Y-126171476D01*
X137619619Y-126268238D01*
X137474476Y-126316619D01*
X137232571Y-126316619D01*
X138248571Y-125784428D02*
X138587238Y-125784428D01*
X138732380Y-126316619D02*
X138248571Y-126316619D01*
X138248571Y-125300619D01*
X138732380Y-125300619D01*
X139022666Y-125300619D02*
X139603238Y-125300619D01*
X139312952Y-126316619D02*
X139312952Y-125300619D01*
X139941904Y-125784428D02*
X140280571Y-125784428D01*
X140425714Y-126316619D02*
X139941904Y-126316619D01*
X139941904Y-125300619D01*
X140425714Y-125300619D01*
X141441714Y-126219857D02*
X141393333Y-126268238D01*
X141248190Y-126316619D01*
X141151428Y-126316619D01*
X141006285Y-126268238D01*
X140909523Y-126171476D01*
X140861142Y-126074714D01*
X140812761Y-125881190D01*
X140812761Y-125736047D01*
X140861142Y-125542523D01*
X140909523Y-125445761D01*
X141006285Y-125349000D01*
X141151428Y-125300619D01*
X141248190Y-125300619D01*
X141393333Y-125349000D01*
X141441714Y-125397380D01*
X141732000Y-125300619D02*
X142312571Y-125300619D01*
X142022285Y-126316619D02*
X142022285Y-125300619D01*
X115563952Y-61936811D02*
X116338047Y-61936811D01*
X115951000Y-62323859D02*
X115951000Y-61549763D01*
X115563952Y-65208331D02*
X116338047Y-65208331D01*
D11*
X117054333Y-118181380D02*
X116721000Y-117705190D01*
X116482904Y-118181380D02*
X116482904Y-117181380D01*
X116863857Y-117181380D01*
X116959095Y-117229000D01*
X117006714Y-117276619D01*
X117054333Y-117371857D01*
X117054333Y-117514714D01*
X117006714Y-117609952D01*
X116959095Y-117657571D01*
X116863857Y-117705190D01*
X116482904Y-117705190D01*
X117435285Y-117276619D02*
X117482904Y-117229000D01*
X117578142Y-117181380D01*
X117816238Y-117181380D01*
X117911476Y-117229000D01*
X117959095Y-117276619D01*
X118006714Y-117371857D01*
X118006714Y-117467095D01*
X117959095Y-117609952D01*
X117387666Y-118181380D01*
X118006714Y-118181380D01*
X122642333Y-125293380D02*
X122309000Y-124817190D01*
X122070904Y-125293380D02*
X122070904Y-124293380D01*
X122451857Y-124293380D01*
X122547095Y-124341000D01*
X122594714Y-124388619D01*
X122642333Y-124483857D01*
X122642333Y-124626714D01*
X122594714Y-124721952D01*
X122547095Y-124769571D01*
X122451857Y-124817190D01*
X122070904Y-124817190D01*
X123499476Y-124293380D02*
X123309000Y-124293380D01*
X123213761Y-124341000D01*
X123166142Y-124388619D01*
X123070904Y-124531476D01*
X123023285Y-124721952D01*
X123023285Y-125102904D01*
X123070904Y-125198142D01*
X123118523Y-125245761D01*
X123213761Y-125293380D01*
X123404238Y-125293380D01*
X123499476Y-125245761D01*
X123547095Y-125198142D01*
X123594714Y-125102904D01*
X123594714Y-124864809D01*
X123547095Y-124769571D01*
X123499476Y-124721952D01*
X123404238Y-124674333D01*
X123213761Y-124674333D01*
X123118523Y-124721952D01*
X123070904Y-124769571D01*
X123023285Y-124864809D01*
X128317666Y-119043380D02*
X128317666Y-119757666D01*
X128270047Y-119900523D01*
X128174809Y-119995761D01*
X128031952Y-120043380D01*
X127936714Y-120043380D01*
X129317666Y-120043380D02*
X128746238Y-120043380D01*
X129031952Y-120043380D02*
X129031952Y-119043380D01*
X128936714Y-119186238D01*
X128841476Y-119281476D01*
X128746238Y-119329095D01*
X126706333Y-115641380D02*
X126373000Y-115165190D01*
X126134904Y-115641380D02*
X126134904Y-114641380D01*
X126515857Y-114641380D01*
X126611095Y-114689000D01*
X126658714Y-114736619D01*
X126706333Y-114831857D01*
X126706333Y-114974714D01*
X126658714Y-115069952D01*
X126611095Y-115117571D01*
X126515857Y-115165190D01*
X126134904Y-115165190D01*
X127658714Y-115641380D02*
X127087285Y-115641380D01*
X127373000Y-115641380D02*
X127373000Y-114641380D01*
X127277761Y-114784238D01*
X127182523Y-114879476D01*
X127087285Y-114927095D01*
X130135333Y-115641380D02*
X129802000Y-115165190D01*
X129563904Y-115641380D02*
X129563904Y-114641380D01*
X129944857Y-114641380D01*
X130040095Y-114689000D01*
X130087714Y-114736619D01*
X130135333Y-114831857D01*
X130135333Y-114974714D01*
X130087714Y-115069952D01*
X130040095Y-115117571D01*
X129944857Y-115165190D01*
X129563904Y-115165190D01*
X130468666Y-114641380D02*
X131087714Y-114641380D01*
X130754380Y-115022333D01*
X130897238Y-115022333D01*
X130992476Y-115069952D01*
X131040095Y-115117571D01*
X131087714Y-115212809D01*
X131087714Y-115450904D01*
X131040095Y-115546142D01*
X130992476Y-115593761D01*
X130897238Y-115641380D01*
X130611523Y-115641380D01*
X130516285Y-115593761D01*
X130468666Y-115546142D01*
X120935761Y-113196619D02*
X120840523Y-113149000D01*
X120745285Y-113053761D01*
X120602428Y-112910904D01*
X120507190Y-112863285D01*
X120411952Y-112863285D01*
X120459571Y-113101380D02*
X120364333Y-113053761D01*
X120269095Y-112958523D01*
X120221476Y-112768047D01*
X120221476Y-112434714D01*
X120269095Y-112244238D01*
X120364333Y-112149000D01*
X120459571Y-112101380D01*
X120650047Y-112101380D01*
X120745285Y-112149000D01*
X120840523Y-112244238D01*
X120888142Y-112434714D01*
X120888142Y-112768047D01*
X120840523Y-112958523D01*
X120745285Y-113053761D01*
X120650047Y-113101380D01*
X120459571Y-113101380D01*
X121269095Y-112196619D02*
X121316714Y-112149000D01*
X121411952Y-112101380D01*
X121650047Y-112101380D01*
X121745285Y-112149000D01*
X121792904Y-112196619D01*
X121840523Y-112291857D01*
X121840523Y-112387095D01*
X121792904Y-112529952D01*
X121221476Y-113101380D01*
X121840523Y-113101380D01*
X124293333Y-119737142D02*
X124245714Y-119784761D01*
X124102857Y-119832380D01*
X124007619Y-119832380D01*
X123864761Y-119784761D01*
X123769523Y-119689523D01*
X123721904Y-119594285D01*
X123674285Y-119403809D01*
X123674285Y-119260952D01*
X123721904Y-119070476D01*
X123769523Y-118975238D01*
X123864761Y-118880000D01*
X124007619Y-118832380D01*
X124102857Y-118832380D01*
X124245714Y-118880000D01*
X124293333Y-118927619D01*
X125245714Y-119832380D02*
X124674285Y-119832380D01*
X124960000Y-119832380D02*
X124960000Y-118832380D01*
X124864761Y-118975238D01*
X124769523Y-119070476D01*
X124674285Y-119118095D01*
X141255761Y-64047619D02*
X141160523Y-64000000D01*
X141065285Y-63904761D01*
X140922428Y-63761904D01*
X140827190Y-63714285D01*
X140731952Y-63714285D01*
X140779571Y-63952380D02*
X140684333Y-63904761D01*
X140589095Y-63809523D01*
X140541476Y-63619047D01*
X140541476Y-63285714D01*
X140589095Y-63095238D01*
X140684333Y-63000000D01*
X140779571Y-62952380D01*
X140970047Y-62952380D01*
X141065285Y-63000000D01*
X141160523Y-63095238D01*
X141208142Y-63285714D01*
X141208142Y-63619047D01*
X141160523Y-63809523D01*
X141065285Y-63904761D01*
X140970047Y-63952380D01*
X140779571Y-63952380D01*
X142160523Y-63952380D02*
X141589095Y-63952380D01*
X141874809Y-63952380D02*
X141874809Y-62952380D01*
X141779571Y-63095238D01*
X141684333Y-63190476D01*
X141589095Y-63238095D01*
X115212904Y-63952380D02*
X115212904Y-62952380D01*
X115451000Y-62952380D01*
X115593857Y-63000000D01*
X115689095Y-63095238D01*
X115736714Y-63190476D01*
X115784333Y-63380952D01*
X115784333Y-63523809D01*
X115736714Y-63714285D01*
X115689095Y-63809523D01*
X115593857Y-63904761D01*
X115451000Y-63952380D01*
X115212904Y-63952380D01*
X116736714Y-63952380D02*
X116165285Y-63952380D01*
X116451000Y-63952380D02*
X116451000Y-62952380D01*
X116355761Y-63095238D01*
X116260523Y-63190476D01*
X116165285Y-63238095D01*
X137310904Y-123515380D02*
X137310904Y-122515380D01*
X137549000Y-122515380D01*
X137691857Y-122563000D01*
X137787095Y-122658238D01*
X137834714Y-122753476D01*
X137882333Y-122943952D01*
X137882333Y-123086809D01*
X137834714Y-123277285D01*
X137787095Y-123372523D01*
X137691857Y-123467761D01*
X137549000Y-123515380D01*
X137310904Y-123515380D01*
X138263285Y-122610619D02*
X138310904Y-122563000D01*
X138406142Y-122515380D01*
X138644238Y-122515380D01*
X138739476Y-122563000D01*
X138787095Y-122610619D01*
X138834714Y-122705857D01*
X138834714Y-122801095D01*
X138787095Y-122943952D01*
X138215666Y-123515380D01*
X138834714Y-123515380D01*
X134707333Y-124912380D02*
X134374000Y-124436190D01*
X134135904Y-124912380D02*
X134135904Y-123912380D01*
X134516857Y-123912380D01*
X134612095Y-123960000D01*
X134659714Y-124007619D01*
X134707333Y-124102857D01*
X134707333Y-124245714D01*
X134659714Y-124340952D01*
X134612095Y-124388571D01*
X134516857Y-124436190D01*
X134135904Y-124436190D01*
X135564476Y-124245714D02*
X135564476Y-124912380D01*
X135326380Y-123864761D02*
X135088285Y-124579047D01*
X135707333Y-124579047D01*
X118514904Y-123515380D02*
X118514904Y-122515380D01*
X118753000Y-122515380D01*
X118895857Y-122563000D01*
X118991095Y-122658238D01*
X119038714Y-122753476D01*
X119086333Y-122943952D01*
X119086333Y-123086809D01*
X119038714Y-123277285D01*
X118991095Y-123372523D01*
X118895857Y-123467761D01*
X118753000Y-123515380D01*
X118514904Y-123515380D01*
X119419666Y-122515380D02*
X120038714Y-122515380D01*
X119705380Y-122896333D01*
X119848238Y-122896333D01*
X119943476Y-122943952D01*
X119991095Y-122991571D01*
X120038714Y-123086809D01*
X120038714Y-123324904D01*
X119991095Y-123420142D01*
X119943476Y-123467761D01*
X119848238Y-123515380D01*
X119562523Y-123515380D01*
X119467285Y-123467761D01*
X119419666Y-123420142D01*
X140168333Y-116784380D02*
X139835000Y-116308190D01*
X139596904Y-116784380D02*
X139596904Y-115784380D01*
X139977857Y-115784380D01*
X140073095Y-115832000D01*
X140120714Y-115879619D01*
X140168333Y-115974857D01*
X140168333Y-116117714D01*
X140120714Y-116212952D01*
X140073095Y-116260571D01*
X139977857Y-116308190D01*
X139596904Y-116308190D01*
X141073095Y-115784380D02*
X140596904Y-115784380D01*
X140549285Y-116260571D01*
X140596904Y-116212952D01*
X140692142Y-116165333D01*
X140930238Y-116165333D01*
X141025476Y-116212952D01*
X141073095Y-116260571D01*
X141120714Y-116355809D01*
X141120714Y-116593904D01*
X141073095Y-116689142D01*
X141025476Y-116736761D01*
X140930238Y-116784380D01*
X140692142Y-116784380D01*
X140596904Y-116736761D01*
X140549285Y-116689142D01*
D12*
X117448064Y-120242000D02*
X116993936Y-120242000D01*
X117448064Y-118772000D02*
X116993936Y-118772000D01*
X122454936Y-123798000D02*
X122909064Y-123798000D01*
X122454936Y-122328000D02*
X122909064Y-122328000D01*
X126591000Y-121786000D02*
X126591000Y-120796000D01*
X125541000Y-124286000D02*
X125541000Y-121786000D01*
X126711000Y-126256000D02*
X130591000Y-126256000D01*
X131761000Y-121786000D02*
X130711000Y-121786000D01*
X131761000Y-124286000D02*
X131761000Y-121786000D01*
X125541000Y-121786000D02*
X126591000Y-121786000D01*
X126137936Y-116232000D02*
X126592064Y-116232000D01*
X126137936Y-117702000D02*
X126592064Y-117702000D01*
X131164064Y-117702000D02*
X130709936Y-117702000D01*
X131164064Y-116232000D02*
X130709936Y-116232000D01*
X119471000Y-115570000D02*
X119471000Y-117370000D01*
X119471000Y-115570000D02*
X119471000Y-114770000D01*
X122591000Y-115570000D02*
X122591000Y-116370000D01*
X122591000Y-115570000D02*
X122591000Y-114770000D01*
X121404748Y-118772000D02*
X121927252Y-118772000D01*
X121404748Y-120242000D02*
X121927252Y-120242000D01*
X141295000Y-124748000D02*
X141295000Y-122063000D01*
X139375000Y-122063000D02*
X139375000Y-124748000D01*
X139375000Y-124748000D02*
X141295000Y-124748000D01*
X135609000Y-122147064D02*
X135609000Y-121692936D01*
X134139000Y-122147064D02*
X134139000Y-121692936D01*
X116007000Y-122063000D02*
X116007000Y-124748000D01*
X117927000Y-124748000D02*
X117927000Y-122063000D01*
X116007000Y-124748000D02*
X117927000Y-124748000D01*
X141070000Y-118972064D02*
X141070000Y-118517936D01*
X139600000Y-118972064D02*
X139600000Y-118517936D01*
M02*
