G04 #@! TF.GenerationSoftware,KiCad,Pcbnew,6.0.10-86aedd382b~118~ubuntu18.04.1*
G04 #@! TF.CreationDate,2024-08-26T14:17:38-06:00*
G04 #@! TF.ProjectId,ckt-axle,636b742d-6178-46c6-952e-6b696361645f,rev?*
G04 #@! TF.SameCoordinates,Original*
G04 #@! TF.FileFunction,Copper,L2,Bot*
G04 #@! TF.FilePolarity,Positive*
%FSLAX46Y46*%
G04 Gerber Fmt 4.6, Leading zero omitted, Abs format (unit mm)*
G04 Created by KiCad (PCBNEW 6.0.10-86aedd382b~118~ubuntu18.04.1) date 2024-08-26 14:17:38*
%MOMM*%
%LPD*%
G01*
G04 APERTURE LIST*
G04 #@! TA.AperFunction,ComponentPad*
%ADD10O,10.400000X8.600000*%
G04 #@! TD*
G04 #@! TA.AperFunction,ViaPad*
%ADD11C,0.609600*%
G04 #@! TD*
G04 #@! TA.AperFunction,Conductor*
%ADD12C,0.457200*%
G04 #@! TD*
G04 APERTURE END LIST*
D10*
X128651000Y-106426000D03*
D11*
X129540000Y-125349000D03*
X118491000Y-124079000D03*
X128651000Y-125349000D03*
X121031000Y-117983000D03*
X120015000Y-117983000D03*
X127762000Y-125349000D03*
X122047000Y-117983000D03*
X119380000Y-124079000D03*
X115951000Y-46736000D03*
X125476000Y-115443000D03*
X141351000Y-46736000D03*
X131826000Y-115443000D03*
D12*
X115951000Y-46736000D02*
X115951000Y-105918000D01*
X115951000Y-105918000D02*
X125476000Y-115443000D01*
X141351000Y-102997000D02*
X131826000Y-112522000D01*
X131826000Y-112522000D02*
X131826000Y-115443000D01*
X141351000Y-46736000D02*
X141351000Y-102997000D01*
G04 #@! TA.AperFunction,Conductor*
G36*
X115410021Y-49550002D02*
G01*
X115456514Y-49603658D01*
X115467900Y-49656000D01*
X115467900Y-105849773D01*
X115466633Y-105861109D01*
X115467205Y-105861155D01*
X115466485Y-105870103D01*
X115464504Y-105878858D01*
X115465060Y-105887817D01*
X115467658Y-105929694D01*
X115467900Y-105937496D01*
X115467900Y-105952689D01*
X115468535Y-105957122D01*
X115469273Y-105962274D01*
X115470303Y-105972330D01*
X115472517Y-106008014D01*
X115473073Y-106016974D01*
X115476121Y-106025417D01*
X115477254Y-106030887D01*
X115479707Y-106040726D01*
X115481277Y-106046096D01*
X115482550Y-106054984D01*
X115486266Y-106063158D01*
X115486267Y-106063160D01*
X115501064Y-106095705D01*
X115504874Y-106105065D01*
X115520062Y-106147134D01*
X115525357Y-106154382D01*
X115527977Y-106159310D01*
X115533113Y-106168099D01*
X115536112Y-106172788D01*
X115539826Y-106180957D01*
X115545682Y-106187754D01*
X115545684Y-106187756D01*
X115557118Y-106201025D01*
X115569022Y-106214839D01*
X115575312Y-106222762D01*
X115579909Y-106229056D01*
X115579914Y-106229062D01*
X115582782Y-106232988D01*
X115593036Y-106243242D01*
X115599393Y-106250088D01*
X115630156Y-106285790D01*
X115637690Y-106290674D01*
X115644453Y-106296573D01*
X115644403Y-106296630D01*
X115654990Y-106305196D01*
X124907924Y-115558131D01*
X124935238Y-115599007D01*
X124987453Y-115725063D01*
X125077103Y-115841897D01*
X125193937Y-115931547D01*
X125329993Y-115987904D01*
X125338177Y-115988981D01*
X125338179Y-115988982D01*
X125467812Y-116006048D01*
X125476000Y-116007126D01*
X125484188Y-116006048D01*
X125613821Y-115988982D01*
X125613823Y-115988981D01*
X125622007Y-115987904D01*
X125758063Y-115931547D01*
X125874897Y-115841897D01*
X125964547Y-115725063D01*
X126020904Y-115589007D01*
X126040126Y-115443000D01*
X126020904Y-115296993D01*
X125964547Y-115160937D01*
X125874897Y-115044103D01*
X125758063Y-114954453D01*
X125632007Y-114902238D01*
X125591131Y-114874924D01*
X121221246Y-110505039D01*
X117150164Y-106433958D01*
X123191496Y-106433958D01*
X123191636Y-106436873D01*
X123210963Y-106839240D01*
X123211724Y-106855088D01*
X123270766Y-107272549D01*
X123368117Y-107682772D01*
X123502944Y-108082248D01*
X123674094Y-108467562D01*
X123880104Y-108835420D01*
X124119213Y-109182676D01*
X124121076Y-109184908D01*
X124121082Y-109184916D01*
X124275130Y-109369482D01*
X124389376Y-109506361D01*
X124391444Y-109508418D01*
X124679389Y-109794859D01*
X124688283Y-109803707D01*
X124690525Y-109805558D01*
X124690530Y-109805563D01*
X125011136Y-110070321D01*
X125011144Y-110070327D01*
X125013377Y-110072171D01*
X125015786Y-110073811D01*
X125015787Y-110073812D01*
X125359462Y-110307812D01*
X125359467Y-110307815D01*
X125361880Y-110309458D01*
X125364428Y-110310868D01*
X125364437Y-110310873D01*
X125628964Y-110457201D01*
X125730812Y-110513540D01*
X126117017Y-110682670D01*
X126119774Y-110683584D01*
X126119778Y-110683586D01*
X126506144Y-110811739D01*
X126517194Y-110815404D01*
X126520029Y-110816061D01*
X126925076Y-110909946D01*
X126925085Y-110909948D01*
X126927921Y-110910605D01*
X127345685Y-110967460D01*
X127348535Y-110967587D01*
X127348536Y-110967587D01*
X127637061Y-110980437D01*
X127637078Y-110980437D01*
X127638484Y-110980500D01*
X129659267Y-110980500D01*
X129660706Y-110980433D01*
X129660723Y-110980433D01*
X129808031Y-110973615D01*
X129972165Y-110966018D01*
X130389728Y-110907705D01*
X130392550Y-110907040D01*
X130392558Y-110907039D01*
X130797280Y-110811739D01*
X130797285Y-110811737D01*
X130800120Y-110811070D01*
X131199831Y-110676941D01*
X131272208Y-110644944D01*
X131582765Y-110507648D01*
X131582776Y-110507642D01*
X131585444Y-110506463D01*
X131651789Y-110469460D01*
X131951123Y-110302511D01*
X131951130Y-110302506D01*
X131953661Y-110301095D01*
X132284979Y-110073812D01*
X132298927Y-110064244D01*
X132298934Y-110064239D01*
X132301333Y-110062593D01*
X132625489Y-109792995D01*
X132909570Y-109508418D01*
X132921302Y-109496666D01*
X132921306Y-109496661D01*
X132923356Y-109494608D01*
X133192387Y-109169982D01*
X133311335Y-108995938D01*
X133428640Y-108824299D01*
X133428646Y-108824289D01*
X133430283Y-108821894D01*
X133431689Y-108819363D01*
X133431695Y-108819353D01*
X133633591Y-108455871D01*
X133633595Y-108455862D01*
X133635008Y-108453319D01*
X133636181Y-108450652D01*
X133636186Y-108450643D01*
X133803638Y-108070078D01*
X133803641Y-108070071D01*
X133804812Y-108067409D01*
X133938244Y-107667465D01*
X133972316Y-107521627D01*
X134033497Y-107259753D01*
X134033498Y-107259745D01*
X134034162Y-107256905D01*
X134091746Y-106839240D01*
X134110504Y-106418042D01*
X134101781Y-106236433D01*
X134090416Y-105999817D01*
X134090415Y-105999807D01*
X134090276Y-105996912D01*
X134084648Y-105957122D01*
X134031642Y-105582335D01*
X134031642Y-105582333D01*
X134031234Y-105579451D01*
X133933883Y-105169228D01*
X133799056Y-104769752D01*
X133627906Y-104384438D01*
X133421896Y-104016580D01*
X133182787Y-103669324D01*
X133180924Y-103667092D01*
X133180918Y-103667084D01*
X133026870Y-103482518D01*
X132912624Y-103345639D01*
X132622680Y-103057209D01*
X132615788Y-103050353D01*
X132615786Y-103050351D01*
X132613717Y-103048293D01*
X132611475Y-103046442D01*
X132611470Y-103046437D01*
X132290864Y-102781679D01*
X132290856Y-102781673D01*
X132288623Y-102779829D01*
X132237034Y-102744703D01*
X131942538Y-102544188D01*
X131942533Y-102544185D01*
X131940120Y-102542542D01*
X131937572Y-102541132D01*
X131937563Y-102541127D01*
X131673036Y-102394799D01*
X131571188Y-102338460D01*
X131184983Y-102169330D01*
X131182226Y-102168416D01*
X131182222Y-102168414D01*
X130787568Y-102037512D01*
X130787566Y-102037511D01*
X130784806Y-102036596D01*
X130696989Y-102016241D01*
X130376924Y-101942054D01*
X130376915Y-101942052D01*
X130374079Y-101941395D01*
X129956315Y-101884540D01*
X129953465Y-101884413D01*
X129953464Y-101884413D01*
X129664939Y-101871563D01*
X129664922Y-101871563D01*
X129663516Y-101871500D01*
X127642733Y-101871500D01*
X127641294Y-101871567D01*
X127641277Y-101871567D01*
X127493969Y-101878385D01*
X127329835Y-101885982D01*
X126912272Y-101944295D01*
X126909450Y-101944960D01*
X126909442Y-101944961D01*
X126504720Y-102040261D01*
X126504715Y-102040263D01*
X126501880Y-102040930D01*
X126102169Y-102175059D01*
X126099507Y-102176236D01*
X125719235Y-102344352D01*
X125719224Y-102344358D01*
X125716556Y-102345537D01*
X125714003Y-102346961D01*
X125350877Y-102549489D01*
X125350870Y-102549494D01*
X125348339Y-102550905D01*
X125203029Y-102650588D01*
X125003073Y-102787756D01*
X125003066Y-102787761D01*
X125000667Y-102789407D01*
X124998420Y-102791276D01*
X124734498Y-103010778D01*
X124676511Y-103059005D01*
X124674455Y-103061065D01*
X124390377Y-103345639D01*
X124378644Y-103357392D01*
X124376791Y-103359628D01*
X124376790Y-103359629D01*
X124360495Y-103379291D01*
X124109613Y-103682018D01*
X123990665Y-103856062D01*
X123873360Y-104027701D01*
X123873354Y-104027711D01*
X123871717Y-104030106D01*
X123870311Y-104032637D01*
X123870305Y-104032647D01*
X123668409Y-104396129D01*
X123668405Y-104396138D01*
X123666992Y-104398681D01*
X123665819Y-104401348D01*
X123665814Y-104401357D01*
X123498362Y-104781922D01*
X123497188Y-104784591D01*
X123363756Y-105184535D01*
X123363092Y-105187378D01*
X123272155Y-105576618D01*
X123267838Y-105595095D01*
X123210254Y-106012760D01*
X123191496Y-106433958D01*
X117150164Y-106433958D01*
X116471005Y-105754799D01*
X116436979Y-105692487D01*
X116434100Y-105665704D01*
X116434100Y-49656000D01*
X116454102Y-49587879D01*
X116507758Y-49541386D01*
X116560100Y-49530000D01*
X117222000Y-49530000D01*
X117290121Y-49550002D01*
X117336614Y-49603658D01*
X117348000Y-49656000D01*
X117348000Y-92672575D01*
X117345579Y-92697153D01*
X117343024Y-92710000D01*
X117343824Y-92714021D01*
X117361194Y-93023322D01*
X117413760Y-93332703D01*
X117500635Y-93634254D01*
X117620727Y-93924181D01*
X117772526Y-94198839D01*
X117954122Y-94454775D01*
X118163231Y-94688769D01*
X118397225Y-94897878D01*
X118653161Y-95079474D01*
X118927819Y-95231273D01*
X118931082Y-95232625D01*
X118931087Y-95232627D01*
X119214477Y-95350011D01*
X119217746Y-95351365D01*
X119519297Y-95438240D01*
X119828678Y-95490806D01*
X120137979Y-95508176D01*
X120142000Y-95508976D01*
X120154847Y-95506421D01*
X120179425Y-95504000D01*
X137122575Y-95504000D01*
X137147153Y-95506421D01*
X137160000Y-95508976D01*
X137164021Y-95508176D01*
X137473322Y-95490806D01*
X137782703Y-95438240D01*
X138084254Y-95351365D01*
X138087523Y-95350011D01*
X138370913Y-95232627D01*
X138370918Y-95232625D01*
X138374181Y-95231273D01*
X138648839Y-95079474D01*
X138904775Y-94897878D01*
X139138769Y-94688769D01*
X139347878Y-94454775D01*
X139529474Y-94198839D01*
X139681273Y-93924181D01*
X139801365Y-93634254D01*
X139888240Y-93332703D01*
X139940806Y-93023322D01*
X139958176Y-92714021D01*
X139958976Y-92710000D01*
X139956421Y-92697153D01*
X139954000Y-92672575D01*
X139954000Y-49656000D01*
X139974002Y-49587879D01*
X140027658Y-49541386D01*
X140080000Y-49530000D01*
X140741900Y-49530000D01*
X140810021Y-49550002D01*
X140856514Y-49603658D01*
X140867900Y-49656000D01*
X140867900Y-102744703D01*
X140847898Y-102812824D01*
X140830995Y-102833798D01*
X131532643Y-112132151D01*
X131523728Y-112139274D01*
X131524100Y-112139711D01*
X131517267Y-112145526D01*
X131509673Y-112150318D01*
X131475944Y-112188509D01*
X131470598Y-112194196D01*
X131459868Y-112204926D01*
X131457184Y-112208506D01*
X131457177Y-112208515D01*
X131454054Y-112212681D01*
X131447677Y-112220514D01*
X131418069Y-112254040D01*
X131414256Y-112262162D01*
X131411201Y-112266812D01*
X131405955Y-112275542D01*
X131403273Y-112280441D01*
X131397894Y-112287618D01*
X131394746Y-112296016D01*
X131394744Y-112296019D01*
X131382192Y-112329502D01*
X131378274Y-112338801D01*
X131359258Y-112379303D01*
X131357878Y-112388170D01*
X131356247Y-112393503D01*
X131353668Y-112403335D01*
X131352469Y-112408787D01*
X131349317Y-112417195D01*
X131348652Y-112426145D01*
X131346002Y-112461805D01*
X131344848Y-112471850D01*
X131342900Y-112484361D01*
X131342900Y-112498867D01*
X131342554Y-112508204D01*
X131339062Y-112555196D01*
X131340935Y-112563971D01*
X131341546Y-112572930D01*
X131341471Y-112572935D01*
X131342900Y-112586476D01*
X131342900Y-115122722D01*
X131333309Y-115170941D01*
X131281096Y-115296993D01*
X131261874Y-115443000D01*
X131281096Y-115589007D01*
X131337453Y-115725063D01*
X131427103Y-115841897D01*
X131543937Y-115931547D01*
X131679993Y-115987904D01*
X131688177Y-115988981D01*
X131688179Y-115988982D01*
X131817812Y-116006048D01*
X131826000Y-116007126D01*
X131834188Y-116006048D01*
X131963821Y-115988982D01*
X131963823Y-115988981D01*
X131972007Y-115987904D01*
X132108063Y-115931547D01*
X132224897Y-115841897D01*
X132314547Y-115725063D01*
X132370904Y-115589007D01*
X132390126Y-115443000D01*
X132370904Y-115296993D01*
X132318691Y-115170941D01*
X132309100Y-115122722D01*
X132309100Y-112774296D01*
X132329102Y-112706175D01*
X132346005Y-112685201D01*
X141644357Y-103386850D01*
X141653270Y-103379728D01*
X141652898Y-103379291D01*
X141659735Y-103373472D01*
X141667327Y-103368682D01*
X141675323Y-103359629D01*
X141701049Y-103330499D01*
X141706395Y-103324812D01*
X141717132Y-103314075D01*
X141719819Y-103310490D01*
X141719824Y-103310484D01*
X141722946Y-103306319D01*
X141729327Y-103298481D01*
X141752990Y-103271687D01*
X141758931Y-103264960D01*
X141762744Y-103256838D01*
X141765799Y-103252188D01*
X141771039Y-103243467D01*
X141773723Y-103238564D01*
X141779106Y-103231382D01*
X141794805Y-103189506D01*
X141798732Y-103180188D01*
X141813926Y-103147825D01*
X141817742Y-103139697D01*
X141819124Y-103130825D01*
X141820753Y-103125495D01*
X141823327Y-103115686D01*
X141824531Y-103110211D01*
X141827682Y-103101805D01*
X141830996Y-103057205D01*
X141832151Y-103047159D01*
X141833350Y-103039461D01*
X141833351Y-103039450D01*
X141834100Y-103034639D01*
X141834100Y-103020116D01*
X141834447Y-103010778D01*
X141837273Y-102972755D01*
X141837273Y-102972753D01*
X141837938Y-102963804D01*
X141836065Y-102955030D01*
X141835454Y-102946066D01*
X141835529Y-102946061D01*
X141834100Y-102932524D01*
X141834100Y-49656000D01*
X141854102Y-49587879D01*
X141907758Y-49541386D01*
X141960100Y-49530000D01*
X142622000Y-49530000D01*
X142690121Y-49550002D01*
X142736614Y-49603658D01*
X142748000Y-49656000D01*
X142748000Y-126620000D01*
X142727998Y-126688121D01*
X142674342Y-126734614D01*
X142622000Y-126746000D01*
X114680000Y-126746000D01*
X114611879Y-126725998D01*
X114565386Y-126672342D01*
X114554000Y-126620000D01*
X114554000Y-49656000D01*
X114574002Y-49587879D01*
X114627658Y-49541386D01*
X114680000Y-49530000D01*
X115341900Y-49530000D01*
X115410021Y-49550002D01*
G37*
G04 #@! TD.AperFunction*
M02*
