G04 #@! TF.GenerationSoftware,KiCad,Pcbnew,9.0.9-9.0.9~ubuntu24.04.1*
G04 #@! TF.CreationDate,2026-05-29T12:01:27-06:00*
G04 #@! TF.ProjectId,ckt-axle-bar,636b742d-6178-46c6-952d-6261722e6b69,rev?*
G04 #@! TF.SameCoordinates,Original*
G04 #@! TF.FileFunction,Legend,Bot*
G04 #@! TF.FilePolarity,Positive*
%FSLAX46Y46*%
G04 Gerber Fmt 4.6, Leading zero omitted, Abs format (unit mm)*
G04 Created by KiCad (PCBNEW 9.0.9-9.0.9~ubuntu24.04.1) date 2026-05-29 12:01:27*
%MOMM*%
%LPD*%
G01*
G04 APERTURE LIST*
%ADD10C,0.152400*%
G04 APERTURE END LIST*
D10*
X101147483Y-58589334D02*
X101195864Y-58540953D01*
X101195864Y-58540953D02*
X101244244Y-58395810D01*
X101244244Y-58395810D02*
X101244244Y-58299048D01*
X101244244Y-58299048D02*
X101195864Y-58153905D01*
X101195864Y-58153905D02*
X101099102Y-58057143D01*
X101099102Y-58057143D02*
X101002340Y-58008762D01*
X101002340Y-58008762D02*
X100808816Y-57960381D01*
X100808816Y-57960381D02*
X100663673Y-57960381D01*
X100663673Y-57960381D02*
X100470149Y-58008762D01*
X100470149Y-58008762D02*
X100373387Y-58057143D01*
X100373387Y-58057143D02*
X100276625Y-58153905D01*
X100276625Y-58153905D02*
X100228244Y-58299048D01*
X100228244Y-58299048D02*
X100228244Y-58395810D01*
X100228244Y-58395810D02*
X100276625Y-58540953D01*
X100276625Y-58540953D02*
X100325006Y-58589334D01*
X101244244Y-59024762D02*
X100228244Y-59024762D01*
X101244244Y-59605334D02*
X100663673Y-59169905D01*
X100228244Y-59605334D02*
X100808816Y-59024762D01*
X100228244Y-59895619D02*
X100228244Y-60476191D01*
X101244244Y-60185905D02*
X100228244Y-60185905D01*
X100857197Y-60814857D02*
X100857197Y-61588953D01*
X100953959Y-62024381D02*
X100953959Y-62508191D01*
X101244244Y-61927619D02*
X100228244Y-62266286D01*
X100228244Y-62266286D02*
X101244244Y-62604953D01*
X100228244Y-62846857D02*
X101244244Y-63524191D01*
X100228244Y-63524191D02*
X101244244Y-62846857D01*
X101244244Y-64395048D02*
X101244244Y-63911238D01*
X101244244Y-63911238D02*
X100228244Y-63911238D01*
X100712054Y-64733714D02*
X100712054Y-65072381D01*
X101244244Y-65217524D02*
X101244244Y-64733714D01*
X101244244Y-64733714D02*
X100228244Y-64733714D01*
X100228244Y-64733714D02*
X100228244Y-65217524D01*
X100857197Y-65652952D02*
X100857197Y-66427048D01*
X100712054Y-67249524D02*
X100760435Y-67394667D01*
X100760435Y-67394667D02*
X100808816Y-67443048D01*
X100808816Y-67443048D02*
X100905578Y-67491429D01*
X100905578Y-67491429D02*
X101050721Y-67491429D01*
X101050721Y-67491429D02*
X101147483Y-67443048D01*
X101147483Y-67443048D02*
X101195864Y-67394667D01*
X101195864Y-67394667D02*
X101244244Y-67297905D01*
X101244244Y-67297905D02*
X101244244Y-66910857D01*
X101244244Y-66910857D02*
X100228244Y-66910857D01*
X100228244Y-66910857D02*
X100228244Y-67249524D01*
X100228244Y-67249524D02*
X100276625Y-67346286D01*
X100276625Y-67346286D02*
X100325006Y-67394667D01*
X100325006Y-67394667D02*
X100421768Y-67443048D01*
X100421768Y-67443048D02*
X100518530Y-67443048D01*
X100518530Y-67443048D02*
X100615292Y-67394667D01*
X100615292Y-67394667D02*
X100663673Y-67346286D01*
X100663673Y-67346286D02*
X100712054Y-67249524D01*
X100712054Y-67249524D02*
X100712054Y-66910857D01*
X100953959Y-67878476D02*
X100953959Y-68362286D01*
X101244244Y-67781714D02*
X100228244Y-68120381D01*
X100228244Y-68120381D02*
X101244244Y-68459048D01*
X101244244Y-69378286D02*
X100760435Y-69039619D01*
X101244244Y-68797714D02*
X100228244Y-68797714D01*
X100228244Y-68797714D02*
X100228244Y-69184762D01*
X100228244Y-69184762D02*
X100276625Y-69281524D01*
X100276625Y-69281524D02*
X100325006Y-69329905D01*
X100325006Y-69329905D02*
X100421768Y-69378286D01*
X100421768Y-69378286D02*
X100566911Y-69378286D01*
X100566911Y-69378286D02*
X100663673Y-69329905D01*
X100663673Y-69329905D02*
X100712054Y-69281524D01*
X100712054Y-69281524D02*
X100760435Y-69184762D01*
X100760435Y-69184762D02*
X100760435Y-68797714D01*
X100566911Y-71265142D02*
X101244244Y-71507047D01*
X101244244Y-71507047D02*
X100566911Y-71748952D01*
X101244244Y-72668190D02*
X101244244Y-72087618D01*
X101244244Y-72377904D02*
X100228244Y-72377904D01*
X100228244Y-72377904D02*
X100373387Y-72281142D01*
X100373387Y-72281142D02*
X100470149Y-72184380D01*
X100470149Y-72184380D02*
X100518530Y-72087618D01*
X101147483Y-73103618D02*
X101195864Y-73151999D01*
X101195864Y-73151999D02*
X101244244Y-73103618D01*
X101244244Y-73103618D02*
X101195864Y-73055237D01*
X101195864Y-73055237D02*
X101147483Y-73103618D01*
X101147483Y-73103618D02*
X101244244Y-73103618D01*
X100228244Y-73780952D02*
X100228244Y-73877714D01*
X100228244Y-73877714D02*
X100276625Y-73974476D01*
X100276625Y-73974476D02*
X100325006Y-74022857D01*
X100325006Y-74022857D02*
X100421768Y-74071238D01*
X100421768Y-74071238D02*
X100615292Y-74119619D01*
X100615292Y-74119619D02*
X100857197Y-74119619D01*
X100857197Y-74119619D02*
X101050721Y-74071238D01*
X101050721Y-74071238D02*
X101147483Y-74022857D01*
X101147483Y-74022857D02*
X101195864Y-73974476D01*
X101195864Y-73974476D02*
X101244244Y-73877714D01*
X101244244Y-73877714D02*
X101244244Y-73780952D01*
X101244244Y-73780952D02*
X101195864Y-73684190D01*
X101195864Y-73684190D02*
X101147483Y-73635809D01*
X101147483Y-73635809D02*
X101050721Y-73587428D01*
X101050721Y-73587428D02*
X100857197Y-73539047D01*
X100857197Y-73539047D02*
X100615292Y-73539047D01*
X100615292Y-73539047D02*
X100421768Y-73587428D01*
X100421768Y-73587428D02*
X100325006Y-73635809D01*
X100325006Y-73635809D02*
X100276625Y-73684190D01*
X100276625Y-73684190D02*
X100228244Y-73780952D01*
X102105852Y-59629524D02*
X102057471Y-59532763D01*
X102057471Y-59532763D02*
X102057471Y-59339239D01*
X102057471Y-59339239D02*
X102105852Y-59242477D01*
X102105852Y-59242477D02*
X102202614Y-59145715D01*
X102202614Y-59145715D02*
X102299376Y-59097334D01*
X102299376Y-59097334D02*
X102492900Y-59097334D01*
X102492900Y-59097334D02*
X102589662Y-59145715D01*
X102589662Y-59145715D02*
X102686424Y-59242477D01*
X102686424Y-59242477D02*
X102734805Y-59339239D01*
X102734805Y-59339239D02*
X102734805Y-59532763D01*
X102734805Y-59532763D02*
X102686424Y-59629524D01*
X101718805Y-59436001D02*
X101767186Y-59194096D01*
X101767186Y-59194096D02*
X101912328Y-58952191D01*
X101912328Y-58952191D02*
X102154233Y-58807048D01*
X102154233Y-58807048D02*
X102396138Y-58758667D01*
X102396138Y-58758667D02*
X102638043Y-58807048D01*
X102638043Y-58807048D02*
X102879947Y-58952191D01*
X102879947Y-58952191D02*
X103025090Y-59194096D01*
X103025090Y-59194096D02*
X103073471Y-59436001D01*
X103073471Y-59436001D02*
X103025090Y-59677905D01*
X103025090Y-59677905D02*
X102879947Y-59919810D01*
X102879947Y-59919810D02*
X102638043Y-60064953D01*
X102638043Y-60064953D02*
X102396138Y-60113334D01*
X102396138Y-60113334D02*
X102154233Y-60064953D01*
X102154233Y-60064953D02*
X101912328Y-59919810D01*
X101912328Y-59919810D02*
X101767186Y-59677905D01*
X101767186Y-59677905D02*
X101718805Y-59436001D01*
X101960709Y-60500381D02*
X101912328Y-60548762D01*
X101912328Y-60548762D02*
X101863947Y-60645524D01*
X101863947Y-60645524D02*
X101863947Y-60887429D01*
X101863947Y-60887429D02*
X101912328Y-60984191D01*
X101912328Y-60984191D02*
X101960709Y-61032572D01*
X101960709Y-61032572D02*
X102057471Y-61080953D01*
X102057471Y-61080953D02*
X102154233Y-61080953D01*
X102154233Y-61080953D02*
X102299376Y-61032572D01*
X102299376Y-61032572D02*
X102879947Y-60452000D01*
X102879947Y-60452000D02*
X102879947Y-61080953D01*
X101863947Y-61709905D02*
X101863947Y-61806667D01*
X101863947Y-61806667D02*
X101912328Y-61903429D01*
X101912328Y-61903429D02*
X101960709Y-61951810D01*
X101960709Y-61951810D02*
X102057471Y-62000191D01*
X102057471Y-62000191D02*
X102250995Y-62048572D01*
X102250995Y-62048572D02*
X102492900Y-62048572D01*
X102492900Y-62048572D02*
X102686424Y-62000191D01*
X102686424Y-62000191D02*
X102783186Y-61951810D01*
X102783186Y-61951810D02*
X102831567Y-61903429D01*
X102831567Y-61903429D02*
X102879947Y-61806667D01*
X102879947Y-61806667D02*
X102879947Y-61709905D01*
X102879947Y-61709905D02*
X102831567Y-61613143D01*
X102831567Y-61613143D02*
X102783186Y-61564762D01*
X102783186Y-61564762D02*
X102686424Y-61516381D01*
X102686424Y-61516381D02*
X102492900Y-61468000D01*
X102492900Y-61468000D02*
X102250995Y-61468000D01*
X102250995Y-61468000D02*
X102057471Y-61516381D01*
X102057471Y-61516381D02*
X101960709Y-61564762D01*
X101960709Y-61564762D02*
X101912328Y-61613143D01*
X101912328Y-61613143D02*
X101863947Y-61709905D01*
X101960709Y-62435619D02*
X101912328Y-62484000D01*
X101912328Y-62484000D02*
X101863947Y-62580762D01*
X101863947Y-62580762D02*
X101863947Y-62822667D01*
X101863947Y-62822667D02*
X101912328Y-62919429D01*
X101912328Y-62919429D02*
X101960709Y-62967810D01*
X101960709Y-62967810D02*
X102057471Y-63016191D01*
X102057471Y-63016191D02*
X102154233Y-63016191D01*
X102154233Y-63016191D02*
X102299376Y-62967810D01*
X102299376Y-62967810D02*
X102879947Y-62387238D01*
X102879947Y-62387238D02*
X102879947Y-63016191D01*
X101863947Y-63935429D02*
X101863947Y-63451619D01*
X101863947Y-63451619D02*
X102347757Y-63403238D01*
X102347757Y-63403238D02*
X102299376Y-63451619D01*
X102299376Y-63451619D02*
X102250995Y-63548381D01*
X102250995Y-63548381D02*
X102250995Y-63790286D01*
X102250995Y-63790286D02*
X102299376Y-63887048D01*
X102299376Y-63887048D02*
X102347757Y-63935429D01*
X102347757Y-63935429D02*
X102444519Y-63983810D01*
X102444519Y-63983810D02*
X102686424Y-63983810D01*
X102686424Y-63983810D02*
X102783186Y-63935429D01*
X102783186Y-63935429D02*
X102831567Y-63887048D01*
X102831567Y-63887048D02*
X102879947Y-63790286D01*
X102879947Y-63790286D02*
X102879947Y-63548381D01*
X102879947Y-63548381D02*
X102831567Y-63451619D01*
X102831567Y-63451619D02*
X102783186Y-63403238D01*
X102783186Y-66548000D02*
X102831567Y-66499619D01*
X102831567Y-66499619D02*
X102879947Y-66354476D01*
X102879947Y-66354476D02*
X102879947Y-66257714D01*
X102879947Y-66257714D02*
X102831567Y-66112571D01*
X102831567Y-66112571D02*
X102734805Y-66015809D01*
X102734805Y-66015809D02*
X102638043Y-65967428D01*
X102638043Y-65967428D02*
X102444519Y-65919047D01*
X102444519Y-65919047D02*
X102299376Y-65919047D01*
X102299376Y-65919047D02*
X102105852Y-65967428D01*
X102105852Y-65967428D02*
X102009090Y-66015809D01*
X102009090Y-66015809D02*
X101912328Y-66112571D01*
X101912328Y-66112571D02*
X101863947Y-66257714D01*
X101863947Y-66257714D02*
X101863947Y-66354476D01*
X101863947Y-66354476D02*
X101912328Y-66499619D01*
X101912328Y-66499619D02*
X101960709Y-66548000D01*
X102783186Y-67564000D02*
X102831567Y-67515619D01*
X102831567Y-67515619D02*
X102879947Y-67370476D01*
X102879947Y-67370476D02*
X102879947Y-67273714D01*
X102879947Y-67273714D02*
X102831567Y-67128571D01*
X102831567Y-67128571D02*
X102734805Y-67031809D01*
X102734805Y-67031809D02*
X102638043Y-66983428D01*
X102638043Y-66983428D02*
X102444519Y-66935047D01*
X102444519Y-66935047D02*
X102299376Y-66935047D01*
X102299376Y-66935047D02*
X102105852Y-66983428D01*
X102105852Y-66983428D02*
X102009090Y-67031809D01*
X102009090Y-67031809D02*
X101912328Y-67128571D01*
X101912328Y-67128571D02*
X101863947Y-67273714D01*
X101863947Y-67273714D02*
X101863947Y-67370476D01*
X101863947Y-67370476D02*
X101912328Y-67515619D01*
X101912328Y-67515619D02*
X101960709Y-67564000D01*
X102347757Y-69112190D02*
X102396138Y-69257333D01*
X102396138Y-69257333D02*
X102444519Y-69305714D01*
X102444519Y-69305714D02*
X102541281Y-69354095D01*
X102541281Y-69354095D02*
X102686424Y-69354095D01*
X102686424Y-69354095D02*
X102783186Y-69305714D01*
X102783186Y-69305714D02*
X102831567Y-69257333D01*
X102831567Y-69257333D02*
X102879947Y-69160571D01*
X102879947Y-69160571D02*
X102879947Y-68773523D01*
X102879947Y-68773523D02*
X101863947Y-68773523D01*
X101863947Y-68773523D02*
X101863947Y-69112190D01*
X101863947Y-69112190D02*
X101912328Y-69208952D01*
X101912328Y-69208952D02*
X101960709Y-69257333D01*
X101960709Y-69257333D02*
X102057471Y-69305714D01*
X102057471Y-69305714D02*
X102154233Y-69305714D01*
X102154233Y-69305714D02*
X102250995Y-69257333D01*
X102250995Y-69257333D02*
X102299376Y-69208952D01*
X102299376Y-69208952D02*
X102347757Y-69112190D01*
X102347757Y-69112190D02*
X102347757Y-68773523D01*
X102396138Y-69983047D02*
X102879947Y-69983047D01*
X101863947Y-69644380D02*
X102396138Y-69983047D01*
X102396138Y-69983047D02*
X101863947Y-70321714D01*
X102492900Y-70660380D02*
X102492900Y-71434476D01*
X102831567Y-71869904D02*
X102879947Y-72015047D01*
X102879947Y-72015047D02*
X102879947Y-72256952D01*
X102879947Y-72256952D02*
X102831567Y-72353714D01*
X102831567Y-72353714D02*
X102783186Y-72402095D01*
X102783186Y-72402095D02*
X102686424Y-72450476D01*
X102686424Y-72450476D02*
X102589662Y-72450476D01*
X102589662Y-72450476D02*
X102492900Y-72402095D01*
X102492900Y-72402095D02*
X102444519Y-72353714D01*
X102444519Y-72353714D02*
X102396138Y-72256952D01*
X102396138Y-72256952D02*
X102347757Y-72063428D01*
X102347757Y-72063428D02*
X102299376Y-71966666D01*
X102299376Y-71966666D02*
X102250995Y-71918285D01*
X102250995Y-71918285D02*
X102154233Y-71869904D01*
X102154233Y-71869904D02*
X102057471Y-71869904D01*
X102057471Y-71869904D02*
X101960709Y-71918285D01*
X101960709Y-71918285D02*
X101912328Y-71966666D01*
X101912328Y-71966666D02*
X101863947Y-72063428D01*
X101863947Y-72063428D02*
X101863947Y-72305333D01*
X101863947Y-72305333D02*
X101912328Y-72450476D01*
X102589662Y-72837523D02*
X102589662Y-73321333D01*
X102879947Y-72740761D02*
X101863947Y-73079428D01*
X101863947Y-73079428D02*
X102879947Y-73418095D01*
M02*
