G04 #@! TF.GenerationSoftware,KiCad,Pcbnew,9.0.9-9.0.9~ubuntu24.04.1*
G04 #@! TF.CreationDate,2026-05-29T12:01:27-06:00*
G04 #@! TF.ProjectId,ckt-axle-bar,636b742d-6178-46c6-952d-6261722e6b69,rev?*
G04 #@! TF.SameCoordinates,Original*
G04 #@! TF.FileFunction,Copper,L2,Bot*
G04 #@! TF.FilePolarity,Positive*
%FSLAX46Y46*%
G04 Gerber Fmt 4.6, Leading zero omitted, Abs format (unit mm)*
G04 Created by KiCad (PCBNEW 9.0.9-9.0.9~ubuntu24.04.1) date 2026-05-29 12:01:27*
%MOMM*%
%LPD*%
G01*
G04 APERTURE LIST*
G04 #@! TA.AperFunction,ViaPad*
%ADD10C,0.609600*%
G04 #@! TD*
G04 #@! TA.AperFunction,Conductor*
%ADD11C,0.254000*%
G04 #@! TD*
G04 APERTURE END LIST*
D10*
X102489000Y-74676000D03*
X99695000Y-62230000D03*
X99314000Y-68453000D03*
X101600000Y-74676000D03*
X114300000Y-49530000D03*
X100711000Y-74676000D03*
X103505000Y-59690000D03*
X88900000Y-49530000D03*
X100076000Y-54356000D03*
X111633000Y-49530000D03*
X103124000Y-54356000D03*
D11*
X100076000Y-54356000D02*
X100076000Y-50292000D01*
X100076000Y-50292000D02*
X99314000Y-49530000D01*
X99314000Y-49530000D02*
X88900000Y-49530000D01*
X103886000Y-49530000D02*
X111633000Y-49530000D01*
X103124000Y-54356000D02*
X103124000Y-50292000D01*
X103124000Y-50292000D02*
X103886000Y-49530000D01*
G04 #@! TA.AperFunction,Conductor*
G36*
X116527621Y-48534502D02*
G01*
X116574114Y-48588158D01*
X116585500Y-48640500D01*
X116585500Y-50419500D01*
X116565498Y-50487621D01*
X116511842Y-50534114D01*
X116459500Y-50545500D01*
X105486375Y-50545500D01*
X105392838Y-50584243D01*
X105392833Y-50584247D01*
X105321247Y-50655833D01*
X105321243Y-50655838D01*
X105282500Y-50749375D01*
X105282500Y-75819500D01*
X105262498Y-75887621D01*
X105208842Y-75934114D01*
X105156500Y-75945500D01*
X98043500Y-75945500D01*
X97975379Y-75925498D01*
X97928886Y-75871842D01*
X97917500Y-75819500D01*
X97917500Y-50749378D01*
X97917499Y-50749375D01*
X97878756Y-50655838D01*
X97878752Y-50655833D01*
X97807166Y-50584247D01*
X97807161Y-50584243D01*
X97713624Y-50545500D01*
X97713623Y-50545500D01*
X86740500Y-50545500D01*
X86672379Y-50525498D01*
X86625886Y-50471842D01*
X86614500Y-50419500D01*
X86614500Y-49603631D01*
X88340699Y-49603631D01*
X88378816Y-49745882D01*
X88452446Y-49873414D01*
X88452454Y-49873424D01*
X88556575Y-49977545D01*
X88556580Y-49977549D01*
X88556582Y-49977551D01*
X88684118Y-50051184D01*
X88826367Y-50089300D01*
X88826369Y-50089300D01*
X88973631Y-50089300D01*
X88973633Y-50089300D01*
X89115882Y-50051184D01*
X89243418Y-49977551D01*
X89243424Y-49977545D01*
X89272565Y-49948405D01*
X89334877Y-49914379D01*
X89361660Y-49911500D01*
X99103787Y-49911500D01*
X99171908Y-49931502D01*
X99192882Y-49948405D01*
X99657595Y-50413118D01*
X99691621Y-50475430D01*
X99694500Y-50502213D01*
X99694500Y-53894340D01*
X99674498Y-53962461D01*
X99657595Y-53983435D01*
X99628454Y-54012575D01*
X99628446Y-54012585D01*
X99554816Y-54140117D01*
X99516700Y-54282368D01*
X99516700Y-54429631D01*
X99516699Y-54429631D01*
X99554816Y-54571882D01*
X99628446Y-54699414D01*
X99628454Y-54699424D01*
X99732575Y-54803545D01*
X99732580Y-54803549D01*
X99732582Y-54803551D01*
X99860118Y-54877184D01*
X100002367Y-54915300D01*
X100002369Y-54915300D01*
X100149631Y-54915300D01*
X100149633Y-54915300D01*
X100291882Y-54877184D01*
X100419418Y-54803551D01*
X100523551Y-54699418D01*
X100597184Y-54571882D01*
X100635300Y-54429633D01*
X100635300Y-54429631D01*
X102564699Y-54429631D01*
X102602816Y-54571882D01*
X102676446Y-54699414D01*
X102676454Y-54699424D01*
X102780575Y-54803545D01*
X102780580Y-54803549D01*
X102780582Y-54803551D01*
X102908118Y-54877184D01*
X103050367Y-54915300D01*
X103050369Y-54915300D01*
X103197631Y-54915300D01*
X103197633Y-54915300D01*
X103339882Y-54877184D01*
X103467418Y-54803551D01*
X103571551Y-54699418D01*
X103645184Y-54571882D01*
X103683300Y-54429633D01*
X103683300Y-54282367D01*
X103645184Y-54140118D01*
X103571551Y-54012582D01*
X103571549Y-54012580D01*
X103571545Y-54012575D01*
X103542405Y-53983435D01*
X103508379Y-53921123D01*
X103505500Y-53894340D01*
X103505500Y-50502213D01*
X103525502Y-50434092D01*
X103542405Y-50413118D01*
X104007118Y-49948405D01*
X104069430Y-49914379D01*
X104096213Y-49911500D01*
X111171340Y-49911500D01*
X111239461Y-49931502D01*
X111260435Y-49948405D01*
X111289575Y-49977545D01*
X111289580Y-49977549D01*
X111289582Y-49977551D01*
X111417118Y-50051184D01*
X111559367Y-50089300D01*
X111559369Y-50089300D01*
X111706631Y-50089300D01*
X111706633Y-50089300D01*
X111848882Y-50051184D01*
X111976418Y-49977551D01*
X112080551Y-49873418D01*
X112154184Y-49745882D01*
X112192300Y-49603633D01*
X112192300Y-49456367D01*
X112154184Y-49314118D01*
X112102575Y-49224729D01*
X112080553Y-49186585D01*
X112080545Y-49186575D01*
X111976424Y-49082454D01*
X111976414Y-49082446D01*
X111848882Y-49008816D01*
X111706633Y-48970700D01*
X111559367Y-48970700D01*
X111464534Y-48996110D01*
X111417117Y-49008816D01*
X111289585Y-49082446D01*
X111289575Y-49082454D01*
X111260435Y-49111595D01*
X111198123Y-49145621D01*
X111171340Y-49148500D01*
X103943959Y-49148500D01*
X103943943Y-49148499D01*
X103936225Y-49148499D01*
X103835775Y-49148499D01*
X103787261Y-49161498D01*
X103738745Y-49174498D01*
X103651756Y-49224721D01*
X103651750Y-49224726D01*
X103420110Y-49456367D01*
X102889753Y-49986724D01*
X102854239Y-50022238D01*
X102818725Y-50057751D01*
X102818721Y-50057756D01*
X102768500Y-50144741D01*
X102742500Y-50241776D01*
X102742500Y-53894340D01*
X102722498Y-53962461D01*
X102705595Y-53983435D01*
X102676454Y-54012575D01*
X102676446Y-54012585D01*
X102602816Y-54140117D01*
X102564700Y-54282368D01*
X102564700Y-54429631D01*
X102564699Y-54429631D01*
X100635300Y-54429631D01*
X100635300Y-54282367D01*
X100597184Y-54140118D01*
X100523551Y-54012582D01*
X100523549Y-54012580D01*
X100523545Y-54012575D01*
X100494405Y-53983435D01*
X100460379Y-53921123D01*
X100457500Y-53894340D01*
X100457500Y-50352388D01*
X100457501Y-50352375D01*
X100457501Y-50241776D01*
X100431501Y-50144745D01*
X100381278Y-50057756D01*
X100381270Y-50057746D01*
X99548253Y-49224729D01*
X99548243Y-49224721D01*
X99461258Y-49174500D01*
X99449792Y-49171427D01*
X99364225Y-49148500D01*
X99364223Y-49148500D01*
X89361660Y-49148500D01*
X89293539Y-49128498D01*
X89272565Y-49111595D01*
X89243424Y-49082454D01*
X89243414Y-49082446D01*
X89115882Y-49008816D01*
X88973633Y-48970700D01*
X88826367Y-48970700D01*
X88731534Y-48996110D01*
X88684117Y-49008816D01*
X88556585Y-49082446D01*
X88556575Y-49082454D01*
X88452454Y-49186575D01*
X88452446Y-49186585D01*
X88378816Y-49314117D01*
X88340700Y-49456368D01*
X88340700Y-49603631D01*
X88340699Y-49603631D01*
X86614500Y-49603631D01*
X86614500Y-48640500D01*
X86634502Y-48572379D01*
X86688158Y-48525886D01*
X86740500Y-48514500D01*
X116459500Y-48514500D01*
X116527621Y-48534502D01*
G37*
G04 #@! TD.AperFunction*
M02*
