G04 #@! TF.GenerationSoftware,KiCad,Pcbnew,9.0.9-9.0.9~ubuntu24.04.1*
G04 #@! TF.CreationDate,2026-05-29T12:01:27-06:00*
G04 #@! TF.ProjectId,ckt-axle-bar,636b742d-6178-46c6-952d-6261722e6b69,rev?*
G04 #@! TF.SameCoordinates,Original*
G04 #@! TF.FileFunction,Copper,L1,Top*
G04 #@! TF.FilePolarity,Positive*
%FSLAX46Y46*%
G04 Gerber Fmt 4.6, Leading zero omitted, Abs format (unit mm)*
G04 Created by KiCad (PCBNEW 9.0.9-9.0.9~ubuntu24.04.1) date 2026-05-29 12:01:27*
%MOMM*%
%LPD*%
G01*
G04 APERTURE LIST*
G04 #@! TA.AperFunction,ViaPad*
%ADD10C,0.609600*%
G04 #@! TD*
G04 #@! TA.AperFunction,Conductor*
%ADD11C,0.254000*%
G04 #@! TD*
G04 #@! TA.AperFunction,Conductor*
%ADD12C,0.635000*%
G04 #@! TD*
G04 APERTURE END LIST*
G04 #@! TA.AperFunction,SMDPad,CuDef*
G36*
G01*
X101150000Y-64996000D02*
X102050000Y-64996000D01*
G75*
G02*
X102300000Y-65246000I0J-250000D01*
G01*
X102300000Y-65771000D01*
G75*
G02*
X102050000Y-66021000I-250000J0D01*
G01*
X101150000Y-66021000D01*
G75*
G02*
X100900000Y-65771000I0J250000D01*
G01*
X100900000Y-65246000D01*
G75*
G02*
X101150000Y-64996000I250000J0D01*
G01*
G37*
G04 #@! TD.AperFunction*
G04 #@! TA.AperFunction,SMDPad,CuDef*
G36*
G01*
X101150000Y-66821000D02*
X102050000Y-66821000D01*
G75*
G02*
X102300000Y-67071000I0J-250000D01*
G01*
X102300000Y-67596000D01*
G75*
G02*
X102050000Y-67846000I-250000J0D01*
G01*
X101150000Y-67846000D01*
G75*
G02*
X100900000Y-67596000I0J250000D01*
G01*
X100900000Y-67071000D01*
G75*
G02*
X101150000Y-66821000I250000J0D01*
G01*
G37*
G04 #@! TD.AperFunction*
G04 #@! TA.AperFunction,SMDPad,CuDef*
G36*
G01*
X99800000Y-71523000D02*
X99800000Y-70273000D01*
G75*
G02*
X99950000Y-70123000I150000J0D01*
G01*
X100250000Y-70123000D01*
G75*
G02*
X100400000Y-70273000I0J-150000D01*
G01*
X100400000Y-71523000D01*
G75*
G02*
X100250000Y-71673000I-150000J0D01*
G01*
X99950000Y-71673000D01*
G75*
G02*
X99800000Y-71523000I0J150000D01*
G01*
G37*
G04 #@! TD.AperFunction*
G04 #@! TA.AperFunction,SMDPad,CuDef*
G36*
G01*
X100800000Y-71523000D02*
X100800000Y-70273000D01*
G75*
G02*
X100950000Y-70123000I150000J0D01*
G01*
X101250000Y-70123000D01*
G75*
G02*
X101400000Y-70273000I0J-150000D01*
G01*
X101400000Y-71523000D01*
G75*
G02*
X101250000Y-71673000I-150000J0D01*
G01*
X100950000Y-71673000D01*
G75*
G02*
X100800000Y-71523000I0J150000D01*
G01*
G37*
G04 #@! TD.AperFunction*
G04 #@! TA.AperFunction,SMDPad,CuDef*
G36*
G01*
X101800000Y-71523000D02*
X101800000Y-70273000D01*
G75*
G02*
X101950000Y-70123000I150000J0D01*
G01*
X102250000Y-70123000D01*
G75*
G02*
X102400000Y-70273000I0J-150000D01*
G01*
X102400000Y-71523000D01*
G75*
G02*
X102250000Y-71673000I-150000J0D01*
G01*
X101950000Y-71673000D01*
G75*
G02*
X101800000Y-71523000I0J150000D01*
G01*
G37*
G04 #@! TD.AperFunction*
G04 #@! TA.AperFunction,SMDPad,CuDef*
G36*
G01*
X102800000Y-71523000D02*
X102800000Y-70273000D01*
G75*
G02*
X102950000Y-70123000I150000J0D01*
G01*
X103250000Y-70123000D01*
G75*
G02*
X103400000Y-70273000I0J-150000D01*
G01*
X103400000Y-71523000D01*
G75*
G02*
X103250000Y-71673000I-150000J0D01*
G01*
X102950000Y-71673000D01*
G75*
G02*
X102800000Y-71523000I0J150000D01*
G01*
G37*
G04 #@! TD.AperFunction*
G04 #@! TA.AperFunction,SMDPad,CuDef*
G36*
G01*
X98200000Y-75423000D02*
X98200000Y-74123000D01*
G75*
G02*
X98450000Y-73873000I250000J0D01*
G01*
X99150000Y-73873000D01*
G75*
G02*
X99400000Y-74123000I0J-250000D01*
G01*
X99400000Y-75423000D01*
G75*
G02*
X99150000Y-75673000I-250000J0D01*
G01*
X98450000Y-75673000D01*
G75*
G02*
X98200000Y-75423000I0J250000D01*
G01*
G37*
G04 #@! TD.AperFunction*
G04 #@! TA.AperFunction,SMDPad,CuDef*
G36*
G01*
X103800000Y-75423000D02*
X103800000Y-74123000D01*
G75*
G02*
X104050000Y-73873000I250000J0D01*
G01*
X104750000Y-73873000D01*
G75*
G02*
X105000000Y-74123000I0J-250000D01*
G01*
X105000000Y-75423000D01*
G75*
G02*
X104750000Y-75673000I-250000J0D01*
G01*
X104050000Y-75673000D01*
G75*
G02*
X103800000Y-75423000I0J250000D01*
G01*
G37*
G04 #@! TD.AperFunction*
G04 #@! TA.AperFunction,SMDPad,CuDef*
G36*
G01*
X100526000Y-57813000D02*
X99626000Y-57813000D01*
G75*
G02*
X99376000Y-57563000I0J250000D01*
G01*
X99376000Y-57038000D01*
G75*
G02*
X99626000Y-56788000I250000J0D01*
G01*
X100526000Y-56788000D01*
G75*
G02*
X100776000Y-57038000I0J-250000D01*
G01*
X100776000Y-57563000D01*
G75*
G02*
X100526000Y-57813000I-250000J0D01*
G01*
G37*
G04 #@! TD.AperFunction*
G04 #@! TA.AperFunction,SMDPad,CuDef*
G36*
G01*
X100526000Y-55988000D02*
X99626000Y-55988000D01*
G75*
G02*
X99376000Y-55738000I0J250000D01*
G01*
X99376000Y-55213000D01*
G75*
G02*
X99626000Y-54963000I250000J0D01*
G01*
X100526000Y-54963000D01*
G75*
G02*
X100776000Y-55213000I0J-250000D01*
G01*
X100776000Y-55738000D01*
G75*
G02*
X100526000Y-55988000I-250000J0D01*
G01*
G37*
G04 #@! TD.AperFunction*
G04 #@! TA.AperFunction,SMDPad,CuDef*
G36*
G01*
X102674000Y-54963000D02*
X103574000Y-54963000D01*
G75*
G02*
X103824000Y-55213000I0J-250000D01*
G01*
X103824000Y-55738000D01*
G75*
G02*
X103574000Y-55988000I-250000J0D01*
G01*
X102674000Y-55988000D01*
G75*
G02*
X102424000Y-55738000I0J250000D01*
G01*
X102424000Y-55213000D01*
G75*
G02*
X102674000Y-54963000I250000J0D01*
G01*
G37*
G04 #@! TD.AperFunction*
G04 #@! TA.AperFunction,SMDPad,CuDef*
G36*
G01*
X102674000Y-56788000D02*
X103574000Y-56788000D01*
G75*
G02*
X103824000Y-57038000I0J-250000D01*
G01*
X103824000Y-57563000D01*
G75*
G02*
X103574000Y-57813000I-250000J0D01*
G01*
X102674000Y-57813000D01*
G75*
G02*
X102424000Y-57563000I0J250000D01*
G01*
X102424000Y-57038000D01*
G75*
G02*
X102674000Y-56788000I250000J0D01*
G01*
G37*
G04 #@! TD.AperFunction*
G04 #@! TA.AperFunction,SMDPad,CuDef*
G36*
G01*
X100805000Y-62560000D02*
X100495000Y-62560000D01*
G75*
G02*
X100340000Y-62405000I0J155000D01*
G01*
X100340000Y-62015000D01*
G75*
G02*
X100495000Y-61860000I155000J0D01*
G01*
X100805000Y-61860000D01*
G75*
G02*
X100960000Y-62015000I0J-155000D01*
G01*
X100960000Y-62405000D01*
G75*
G02*
X100805000Y-62560000I-155000J0D01*
G01*
G37*
G04 #@! TD.AperFunction*
G04 #@! TA.AperFunction,SMDPad,CuDef*
G36*
G01*
X101755000Y-62560000D02*
X101445000Y-62560000D01*
G75*
G02*
X101290000Y-62405000I0J155000D01*
G01*
X101290000Y-62015000D01*
G75*
G02*
X101445000Y-61860000I155000J0D01*
G01*
X101755000Y-61860000D01*
G75*
G02*
X101910000Y-62015000I0J-155000D01*
G01*
X101910000Y-62405000D01*
G75*
G02*
X101755000Y-62560000I-155000J0D01*
G01*
G37*
G04 #@! TD.AperFunction*
G04 #@! TA.AperFunction,SMDPad,CuDef*
G36*
G01*
X102705000Y-62560000D02*
X102395000Y-62560000D01*
G75*
G02*
X102240000Y-62405000I0J155000D01*
G01*
X102240000Y-62015000D01*
G75*
G02*
X102395000Y-61860000I155000J0D01*
G01*
X102705000Y-61860000D01*
G75*
G02*
X102860000Y-62015000I0J-155000D01*
G01*
X102860000Y-62405000D01*
G75*
G02*
X102705000Y-62560000I-155000J0D01*
G01*
G37*
G04 #@! TD.AperFunction*
G04 #@! TA.AperFunction,SMDPad,CuDef*
G36*
G01*
X102705000Y-60060000D02*
X102395000Y-60060000D01*
G75*
G02*
X102240000Y-59905000I0J155000D01*
G01*
X102240000Y-59515000D01*
G75*
G02*
X102395000Y-59360000I155000J0D01*
G01*
X102705000Y-59360000D01*
G75*
G02*
X102860000Y-59515000I0J-155000D01*
G01*
X102860000Y-59905000D01*
G75*
G02*
X102705000Y-60060000I-155000J0D01*
G01*
G37*
G04 #@! TD.AperFunction*
G04 #@! TA.AperFunction,SMDPad,CuDef*
G36*
G01*
X101755000Y-60060000D02*
X101445000Y-60060000D01*
G75*
G02*
X101290000Y-59905000I0J155000D01*
G01*
X101290000Y-59515000D01*
G75*
G02*
X101445000Y-59360000I155000J0D01*
G01*
X101755000Y-59360000D01*
G75*
G02*
X101910000Y-59515000I0J-155000D01*
G01*
X101910000Y-59905000D01*
G75*
G02*
X101755000Y-60060000I-155000J0D01*
G01*
G37*
G04 #@! TD.AperFunction*
G04 #@! TA.AperFunction,SMDPad,CuDef*
G36*
G01*
X100805000Y-60060000D02*
X100495000Y-60060000D01*
G75*
G02*
X100340000Y-59905000I0J155000D01*
G01*
X100340000Y-59515000D01*
G75*
G02*
X100495000Y-59360000I155000J0D01*
G01*
X100805000Y-59360000D01*
G75*
G02*
X100960000Y-59515000I0J-155000D01*
G01*
X100960000Y-59905000D01*
G75*
G02*
X100805000Y-60060000I-155000J0D01*
G01*
G37*
G04 #@! TD.AperFunction*
G04 #@! TA.AperFunction,SMDPad,CuDef*
G36*
G01*
X98839000Y-64971000D02*
X99789000Y-64971000D01*
G75*
G02*
X100039000Y-65221000I0J-250000D01*
G01*
X100039000Y-65721000D01*
G75*
G02*
X99789000Y-65971000I-250000J0D01*
G01*
X98839000Y-65971000D01*
G75*
G02*
X98589000Y-65721000I0J250000D01*
G01*
X98589000Y-65221000D01*
G75*
G02*
X98839000Y-64971000I250000J0D01*
G01*
G37*
G04 #@! TD.AperFunction*
G04 #@! TA.AperFunction,SMDPad,CuDef*
G36*
G01*
X98839000Y-66871000D02*
X99789000Y-66871000D01*
G75*
G02*
X100039000Y-67121000I0J-250000D01*
G01*
X100039000Y-67621000D01*
G75*
G02*
X99789000Y-67871000I-250000J0D01*
G01*
X98839000Y-67871000D01*
G75*
G02*
X98589000Y-67621000I0J250000D01*
G01*
X98589000Y-67121000D01*
G75*
G02*
X98839000Y-66871000I250000J0D01*
G01*
G37*
G04 #@! TD.AperFunction*
G04 #@! TA.AperFunction,SMDPad,CuDef*
G36*
G01*
X116325000Y-48905000D02*
X116325000Y-50155000D01*
G75*
G02*
X116075000Y-50405000I-250000J0D01*
G01*
X115325000Y-50405000D01*
G75*
G02*
X115075000Y-50155000I0J250000D01*
G01*
X115075000Y-48905000D01*
G75*
G02*
X115325000Y-48655000I250000J0D01*
G01*
X116075000Y-48655000D01*
G75*
G02*
X116325000Y-48905000I0J-250000D01*
G01*
G37*
G04 #@! TD.AperFunction*
G04 #@! TA.AperFunction,SMDPad,CuDef*
G36*
G01*
X113525000Y-48905000D02*
X113525000Y-50155000D01*
G75*
G02*
X113275000Y-50405000I-250000J0D01*
G01*
X112525000Y-50405000D01*
G75*
G02*
X112275000Y-50155000I0J250000D01*
G01*
X112275000Y-48905000D01*
G75*
G02*
X112525000Y-48655000I250000J0D01*
G01*
X113275000Y-48655000D01*
G75*
G02*
X113525000Y-48905000I0J-250000D01*
G01*
G37*
G04 #@! TD.AperFunction*
G04 #@! TA.AperFunction,SMDPad,CuDef*
G36*
G01*
X86875000Y-50155000D02*
X86875000Y-48905000D01*
G75*
G02*
X87125000Y-48655000I250000J0D01*
G01*
X87875000Y-48655000D01*
G75*
G02*
X88125000Y-48905000I0J-250000D01*
G01*
X88125000Y-50155000D01*
G75*
G02*
X87875000Y-50405000I-250000J0D01*
G01*
X87125000Y-50405000D01*
G75*
G02*
X86875000Y-50155000I0J250000D01*
G01*
G37*
G04 #@! TD.AperFunction*
G04 #@! TA.AperFunction,SMDPad,CuDef*
G36*
G01*
X89675000Y-50155000D02*
X89675000Y-48905000D01*
G75*
G02*
X89925000Y-48655000I250000J0D01*
G01*
X90675000Y-48655000D01*
G75*
G02*
X90925000Y-48905000I0J-250000D01*
G01*
X90925000Y-50155000D01*
G75*
G02*
X90675000Y-50405000I-250000J0D01*
G01*
X89925000Y-50405000D01*
G75*
G02*
X89675000Y-50155000I0J250000D01*
G01*
G37*
G04 #@! TD.AperFunction*
G04 #@! TA.AperFunction,SMDPad,CuDef*
G36*
G01*
X104336000Y-67846000D02*
X103436000Y-67846000D01*
G75*
G02*
X103186000Y-67596000I0J250000D01*
G01*
X103186000Y-67071000D01*
G75*
G02*
X103436000Y-66821000I250000J0D01*
G01*
X104336000Y-66821000D01*
G75*
G02*
X104586000Y-67071000I0J-250000D01*
G01*
X104586000Y-67596000D01*
G75*
G02*
X104336000Y-67846000I-250000J0D01*
G01*
G37*
G04 #@! TD.AperFunction*
G04 #@! TA.AperFunction,SMDPad,CuDef*
G36*
G01*
X104336000Y-66021000D02*
X103436000Y-66021000D01*
G75*
G02*
X103186000Y-65771000I0J250000D01*
G01*
X103186000Y-65246000D01*
G75*
G02*
X103436000Y-64996000I250000J0D01*
G01*
X104336000Y-64996000D01*
G75*
G02*
X104586000Y-65246000I0J-250000D01*
G01*
X104586000Y-65771000D01*
G75*
G02*
X104336000Y-66021000I-250000J0D01*
G01*
G37*
G04 #@! TD.AperFunction*
D10*
X102489000Y-74676000D03*
X99695000Y-62230000D03*
X99314000Y-68453000D03*
X101600000Y-74676000D03*
X114300000Y-49530000D03*
X100711000Y-74676000D03*
X103505000Y-59690000D03*
X88900000Y-49530000D03*
X100076000Y-54356000D03*
X111633000Y-49530000D03*
X103124000Y-54356000D03*
D11*
X115700000Y-49530000D02*
X114300000Y-49530000D01*
X99969000Y-62210000D02*
X99949000Y-62230000D01*
X99314000Y-67371000D02*
X99314000Y-68453000D01*
D12*
X100100000Y-70898000D02*
X100100000Y-74017000D01*
D11*
X100650000Y-62210000D02*
X99715000Y-62210000D01*
X102550000Y-59710000D02*
X103485000Y-59710000D01*
X101600000Y-65508500D02*
X101600000Y-62210000D01*
X99351500Y-65508500D02*
X99314000Y-65471000D01*
X101600000Y-65508500D02*
X99351500Y-65508500D01*
X87500000Y-49530000D02*
X88900000Y-49530000D01*
X100076000Y-54356000D02*
X100076000Y-55499000D01*
X102743000Y-66421000D02*
X103759000Y-67437000D01*
X102743000Y-63373000D02*
X102743000Y-66421000D01*
X103100000Y-69366000D02*
X103886000Y-68580000D01*
X103100000Y-70898000D02*
X103100000Y-69366000D01*
X103886000Y-68580000D02*
X103886000Y-67333500D01*
X102743000Y-63373000D02*
X102550000Y-63180000D01*
X102550000Y-63180000D02*
X102550000Y-62210000D01*
X102100000Y-70898000D02*
X102100000Y-69143500D01*
X102100000Y-69143500D02*
X101600000Y-68643500D01*
X101600000Y-68643500D02*
X101600000Y-67333500D01*
X112900000Y-49530000D02*
X111633000Y-49530000D01*
X101600000Y-58420000D02*
X101600000Y-59710000D01*
X102131500Y-55475500D02*
X101854000Y-55753000D01*
X101854000Y-55753000D02*
X101854000Y-58166000D01*
X103124000Y-55475500D02*
X102131500Y-55475500D01*
X103124000Y-54356000D02*
X103124000Y-55475500D01*
X101727000Y-59583000D02*
X101600000Y-59710000D01*
X101854000Y-58166000D02*
X101600000Y-58420000D01*
X100076000Y-58166000D02*
X100650000Y-58740000D01*
X100650000Y-58740000D02*
X100650000Y-59710000D01*
X100076000Y-57300500D02*
X100076000Y-58166000D01*
G04 #@! TA.AperFunction,Conductor*
G36*
X105224621Y-73045002D02*
G01*
X105271114Y-73098658D01*
X105282500Y-73151000D01*
X105282500Y-75819500D01*
X105262498Y-75887621D01*
X105208842Y-75934114D01*
X105156500Y-75945500D01*
X98043500Y-75945500D01*
X97975379Y-75925498D01*
X97928886Y-75871842D01*
X97917500Y-75819500D01*
X97917500Y-73151000D01*
X97937502Y-73082879D01*
X97991158Y-73036386D01*
X98043500Y-73025000D01*
X105156500Y-73025000D01*
X105224621Y-73045002D01*
G37*
G04 #@! TD.AperFunction*
G04 #@! TA.AperFunction,Conductor*
G36*
X112018847Y-48534502D02*
G01*
X112065340Y-48588158D01*
X112075444Y-48658432D01*
X112068781Y-48684533D01*
X112026962Y-48796650D01*
X112026960Y-48796658D01*
X112020500Y-48856737D01*
X112020500Y-48891330D01*
X112000498Y-48959451D01*
X111946842Y-49005944D01*
X111876568Y-49016048D01*
X111856938Y-49010662D01*
X111856860Y-49010954D01*
X111848882Y-49008816D01*
X111706633Y-48970700D01*
X111559367Y-48970700D01*
X111464534Y-48996110D01*
X111417117Y-49008816D01*
X111289585Y-49082446D01*
X111289575Y-49082454D01*
X111185454Y-49186575D01*
X111185446Y-49186585D01*
X111111816Y-49314117D01*
X111073700Y-49456368D01*
X111073700Y-49603631D01*
X111073699Y-49603631D01*
X111111816Y-49745882D01*
X111185446Y-49873414D01*
X111185454Y-49873424D01*
X111289575Y-49977545D01*
X111289580Y-49977549D01*
X111289582Y-49977551D01*
X111289583Y-49977552D01*
X111289585Y-49977553D01*
X111321126Y-49995763D01*
X111417118Y-50051184D01*
X111559367Y-50089300D01*
X111559369Y-50089300D01*
X111706631Y-50089300D01*
X111706633Y-50089300D01*
X111848882Y-50051184D01*
X111848882Y-50051183D01*
X111856860Y-50049046D01*
X111857401Y-50051068D01*
X111916852Y-50044667D01*
X111980344Y-50076437D01*
X112016581Y-50137489D01*
X112020500Y-50168666D01*
X112020500Y-50203245D01*
X112020502Y-50203270D01*
X112026959Y-50263339D01*
X112026959Y-50263341D01*
X112068781Y-50375467D01*
X112073847Y-50446283D01*
X112039822Y-50508595D01*
X111977510Y-50542620D01*
X111950726Y-50545500D01*
X105486375Y-50545500D01*
X105392838Y-50584243D01*
X105392833Y-50584247D01*
X105321247Y-50655833D01*
X105321243Y-50655838D01*
X105282500Y-50749375D01*
X105282500Y-72639500D01*
X105262498Y-72707621D01*
X105208842Y-72754114D01*
X105156500Y-72765500D01*
X100798000Y-72765500D01*
X100729879Y-72745498D01*
X100683386Y-72691842D01*
X100672000Y-72639500D01*
X100672000Y-70822696D01*
X100672000Y-70822695D01*
X100658793Y-70773405D01*
X100654500Y-70740795D01*
X100654500Y-70241167D01*
X100639498Y-70146446D01*
X100639498Y-70146445D01*
X100600000Y-70068926D01*
X100581326Y-70032276D01*
X100490723Y-69941673D01*
X100376553Y-69883501D01*
X100311836Y-69873251D01*
X100281834Y-69868500D01*
X99918166Y-69868500D01*
X99892266Y-69872602D01*
X99823446Y-69883501D01*
X99709276Y-69941673D01*
X99618673Y-70032276D01*
X99560501Y-70146446D01*
X99545500Y-70241167D01*
X99545500Y-70740795D01*
X99541207Y-70773405D01*
X99528000Y-70822694D01*
X99528000Y-72639500D01*
X99507998Y-72707621D01*
X99454342Y-72754114D01*
X99402000Y-72765500D01*
X98043500Y-72765500D01*
X97975379Y-72745498D01*
X97928886Y-72691842D01*
X97917500Y-72639500D01*
X97917500Y-67072737D01*
X98334500Y-67072737D01*
X98334500Y-67669246D01*
X98334502Y-67669270D01*
X98340959Y-67729339D01*
X98340959Y-67729341D01*
X98391657Y-67865266D01*
X98391658Y-67865267D01*
X98478596Y-67981404D01*
X98594733Y-68068342D01*
X98708613Y-68110818D01*
X98765449Y-68153365D01*
X98790259Y-68219885D01*
X98786287Y-68261484D01*
X98754700Y-68379368D01*
X98754700Y-68526631D01*
X98754699Y-68526631D01*
X98792816Y-68668882D01*
X98866446Y-68796414D01*
X98866454Y-68796424D01*
X98970575Y-68900545D01*
X98970580Y-68900549D01*
X98970582Y-68900551D01*
X99098118Y-68974184D01*
X99240367Y-69012300D01*
X99240369Y-69012300D01*
X99387631Y-69012300D01*
X99387633Y-69012300D01*
X99529882Y-68974184D01*
X99657418Y-68900551D01*
X99761551Y-68796418D01*
X99835184Y-68668882D01*
X99873300Y-68526633D01*
X99873300Y-68379367D01*
X99841713Y-68261484D01*
X99843402Y-68190507D01*
X99883196Y-68131711D01*
X99919379Y-68110820D01*
X100033267Y-68068342D01*
X100149404Y-67981404D01*
X100236342Y-67865267D01*
X100287040Y-67729342D01*
X100293500Y-67669255D01*
X100293499Y-67072746D01*
X100287040Y-67012658D01*
X100236342Y-66876733D01*
X100149404Y-66760596D01*
X100033267Y-66673658D01*
X100033265Y-66673657D01*
X100033266Y-66673657D01*
X99897349Y-66622962D01*
X99897344Y-66622960D01*
X99897342Y-66622960D01*
X99867298Y-66619730D01*
X99837256Y-66616500D01*
X98790753Y-66616500D01*
X98790729Y-66616502D01*
X98730660Y-66622959D01*
X98730658Y-66622959D01*
X98594733Y-66673657D01*
X98478596Y-66760596D01*
X98391657Y-66876734D01*
X98340962Y-67012650D01*
X98340960Y-67012658D01*
X98334500Y-67072737D01*
X97917500Y-67072737D01*
X97917500Y-65172737D01*
X98334500Y-65172737D01*
X98334500Y-65769246D01*
X98334502Y-65769270D01*
X98340959Y-65829339D01*
X98340959Y-65829341D01*
X98391657Y-65965266D01*
X98391658Y-65965267D01*
X98478596Y-66081404D01*
X98594733Y-66168342D01*
X98730658Y-66219040D01*
X98790745Y-66225500D01*
X99837254Y-66225499D01*
X99897342Y-66219040D01*
X100033267Y-66168342D01*
X100149404Y-66081404D01*
X100236342Y-65965267D01*
X100236343Y-65965263D01*
X100236345Y-65965261D01*
X100240664Y-65957354D01*
X100243588Y-65958951D01*
X100247326Y-65953957D01*
X100256675Y-65933488D01*
X100268185Y-65926090D01*
X100276385Y-65915136D01*
X100297469Y-65907270D01*
X100316401Y-65895104D01*
X100338667Y-65891902D01*
X100342904Y-65890322D01*
X100351899Y-65890000D01*
X100568453Y-65890000D01*
X100636574Y-65910002D01*
X100683067Y-65963658D01*
X100686499Y-65971944D01*
X100702658Y-66015267D01*
X100789596Y-66131404D01*
X100905733Y-66218342D01*
X101041658Y-66269040D01*
X101101745Y-66275500D01*
X102098254Y-66275499D01*
X102130156Y-66272069D01*
X102158335Y-66269041D01*
X102158335Y-66269040D01*
X102158342Y-66269040D01*
X102191470Y-66256683D01*
X102222564Y-66254459D01*
X102253432Y-66250021D01*
X102257653Y-66251948D01*
X102262280Y-66251618D01*
X102289648Y-66266561D01*
X102318012Y-66279515D01*
X102320519Y-66283416D01*
X102324593Y-66285641D01*
X102339540Y-66313013D01*
X102356396Y-66339241D01*
X102357301Y-66345538D01*
X102358620Y-66347953D01*
X102361500Y-66374739D01*
X102361500Y-66467259D01*
X102341498Y-66535380D01*
X102287842Y-66581873D01*
X102217568Y-66591977D01*
X102191469Y-66585315D01*
X102158348Y-66572962D01*
X102158345Y-66572961D01*
X102158342Y-66572960D01*
X102114570Y-66568254D01*
X102098256Y-66566500D01*
X101101753Y-66566500D01*
X101101729Y-66566502D01*
X101041660Y-66572959D01*
X101041658Y-66572959D01*
X100905733Y-66623657D01*
X100789596Y-66710596D01*
X100702657Y-66826734D01*
X100651962Y-66962650D01*
X100651960Y-66962658D01*
X100645500Y-67022737D01*
X100645500Y-67644246D01*
X100645502Y-67644270D01*
X100651959Y-67704339D01*
X100651959Y-67704341D01*
X100702657Y-67840266D01*
X100724515Y-67869465D01*
X100789596Y-67956404D01*
X100905733Y-68043342D01*
X101041658Y-68094040D01*
X101100060Y-68100318D01*
X101101735Y-68100499D01*
X101101745Y-68100500D01*
X101105102Y-68100861D01*
X101104937Y-68102393D01*
X101166135Y-68123941D01*
X101209723Y-68179982D01*
X101218500Y-68226185D01*
X101218500Y-68693723D01*
X101218499Y-68693723D01*
X101218500Y-68693725D01*
X101244499Y-68790754D01*
X101269756Y-68834500D01*
X101294724Y-68877747D01*
X101681596Y-69264619D01*
X101715620Y-69326930D01*
X101718500Y-69353713D01*
X101718500Y-69880260D01*
X101698498Y-69948381D01*
X101681595Y-69969355D01*
X101618675Y-70032274D01*
X101618673Y-70032276D01*
X101560501Y-70146446D01*
X101545500Y-70241167D01*
X101545500Y-71554832D01*
X101560501Y-71649553D01*
X101618673Y-71763723D01*
X101709276Y-71854326D01*
X101766361Y-71883412D01*
X101823445Y-71912498D01*
X101918166Y-71927500D01*
X101918168Y-71927500D01*
X102281832Y-71927500D01*
X102281834Y-71927500D01*
X102376555Y-71912498D01*
X102490723Y-71854326D01*
X102510905Y-71834143D01*
X102573215Y-71800119D01*
X102644030Y-71805183D01*
X102689094Y-71834143D01*
X102709277Y-71854326D01*
X102823445Y-71912498D01*
X102918166Y-71927500D01*
X102918168Y-71927500D01*
X103281832Y-71927500D01*
X103281834Y-71927500D01*
X103376555Y-71912498D01*
X103490723Y-71854326D01*
X103581326Y-71763723D01*
X103639498Y-71649555D01*
X103654500Y-71554834D01*
X103654500Y-70241166D01*
X103639498Y-70146445D01*
X103600000Y-70068926D01*
X103581326Y-70032276D01*
X103518405Y-69969355D01*
X103484379Y-69907043D01*
X103481500Y-69880260D01*
X103481500Y-69576213D01*
X103501502Y-69508092D01*
X103518400Y-69487122D01*
X104191276Y-68814247D01*
X104241502Y-68727253D01*
X104267500Y-68630225D01*
X104267500Y-68529775D01*
X104267500Y-68226184D01*
X104287502Y-68158063D01*
X104341158Y-68111570D01*
X104380999Y-68101789D01*
X104380900Y-68100860D01*
X104418546Y-68096812D01*
X104444342Y-68094040D01*
X104580267Y-68043342D01*
X104696404Y-67956404D01*
X104783342Y-67840267D01*
X104834040Y-67704342D01*
X104840500Y-67644255D01*
X104840499Y-67022746D01*
X104834040Y-66962658D01*
X104783342Y-66826733D01*
X104696404Y-66710596D01*
X104580267Y-66623658D01*
X104580265Y-66623657D01*
X104580266Y-66623657D01*
X104444349Y-66572962D01*
X104444344Y-66572960D01*
X104444342Y-66572960D01*
X104436831Y-66572152D01*
X104384262Y-66566500D01*
X104384255Y-66566500D01*
X103480213Y-66566500D01*
X103412092Y-66546498D01*
X103391118Y-66529595D01*
X103161405Y-66299882D01*
X103127379Y-66237570D01*
X103124500Y-66210787D01*
X103124500Y-63322776D01*
X103124500Y-63322775D01*
X103098501Y-63225746D01*
X103098499Y-63225743D01*
X103098499Y-63225741D01*
X103048278Y-63138756D01*
X103048274Y-63138751D01*
X102977247Y-63067724D01*
X102968405Y-63058882D01*
X102934379Y-62996570D01*
X102931500Y-62969787D01*
X102931500Y-62809811D01*
X102951502Y-62741690D01*
X102968405Y-62720716D01*
X103040419Y-62648701D01*
X103040422Y-62648698D01*
X103099312Y-62533120D01*
X103114500Y-62437226D01*
X103114500Y-61982774D01*
X103099312Y-61886880D01*
X103040422Y-61771302D01*
X103040420Y-61771300D01*
X103040419Y-61771298D01*
X102948701Y-61679580D01*
X102948699Y-61679579D01*
X102948698Y-61679578D01*
X102833120Y-61620688D01*
X102737226Y-61605500D01*
X102362774Y-61605500D01*
X102266880Y-61620688D01*
X102266878Y-61620688D01*
X102266878Y-61620689D01*
X102151297Y-61679580D01*
X102149059Y-61681207D01*
X102145878Y-61682341D01*
X102142467Y-61684080D01*
X102142242Y-61683639D01*
X102082191Y-61705065D01*
X102013040Y-61688983D01*
X102000941Y-61681207D01*
X101998702Y-61679580D01*
X101981274Y-61670700D01*
X101883120Y-61620688D01*
X101787226Y-61605500D01*
X101412774Y-61605500D01*
X101316880Y-61620688D01*
X101316878Y-61620688D01*
X101316878Y-61620689D01*
X101201297Y-61679580D01*
X101199059Y-61681207D01*
X101195878Y-61682341D01*
X101192467Y-61684080D01*
X101192242Y-61683639D01*
X101132191Y-61705065D01*
X101063040Y-61688983D01*
X101050941Y-61681207D01*
X101048702Y-61679580D01*
X101031274Y-61670700D01*
X100933120Y-61620688D01*
X100837226Y-61605500D01*
X100462774Y-61605500D01*
X100366880Y-61620688D01*
X100366878Y-61620688D01*
X100366878Y-61620689D01*
X100251301Y-61679578D01*
X100176528Y-61754351D01*
X100114215Y-61788376D01*
X100043400Y-61783310D01*
X100024434Y-61774375D01*
X99983319Y-61750638D01*
X99910882Y-61708816D01*
X99768633Y-61670700D01*
X99621367Y-61670700D01*
X99553135Y-61688983D01*
X99479117Y-61708816D01*
X99351585Y-61782446D01*
X99351575Y-61782454D01*
X99247454Y-61886575D01*
X99247446Y-61886585D01*
X99173816Y-62014117D01*
X99135700Y-62156368D01*
X99135700Y-62303631D01*
X99135699Y-62303631D01*
X99173816Y-62445882D01*
X99247446Y-62573414D01*
X99247454Y-62573424D01*
X99351575Y-62677545D01*
X99351580Y-62677549D01*
X99351582Y-62677551D01*
X99479118Y-62751184D01*
X99621367Y-62789300D01*
X99621369Y-62789300D01*
X99768631Y-62789300D01*
X99768633Y-62789300D01*
X99910882Y-62751184D01*
X100038418Y-62677551D01*
X100038417Y-62677551D01*
X100045570Y-62673422D01*
X100046715Y-62675405D01*
X100101839Y-62654087D01*
X100171390Y-62668344D01*
X100201433Y-62690554D01*
X100251298Y-62740419D01*
X100251300Y-62740420D01*
X100251302Y-62740422D01*
X100366880Y-62799312D01*
X100462774Y-62814500D01*
X100462777Y-62814500D01*
X100837223Y-62814500D01*
X100837226Y-62814500D01*
X100933120Y-62799312D01*
X101035298Y-62747249D01*
X101105073Y-62734145D01*
X101170858Y-62760845D01*
X101211765Y-62818872D01*
X101218500Y-62859516D01*
X101218500Y-64615815D01*
X101198498Y-64683936D01*
X101144842Y-64730429D01*
X101105002Y-64740233D01*
X101105100Y-64741140D01*
X101041660Y-64747959D01*
X101041658Y-64747959D01*
X100905733Y-64798657D01*
X100789596Y-64885596D01*
X100702658Y-65001732D01*
X100702658Y-65001733D01*
X100686508Y-65045033D01*
X100673024Y-65063045D01*
X100663677Y-65083512D01*
X100652164Y-65090910D01*
X100643962Y-65101868D01*
X100622878Y-65109731D01*
X100603951Y-65121896D01*
X100581680Y-65125098D01*
X100577442Y-65126679D01*
X100568453Y-65127000D01*
X100379872Y-65127000D01*
X100311751Y-65106998D01*
X100265258Y-65053342D01*
X100261817Y-65045033D01*
X100236342Y-64976733D01*
X100149404Y-64860596D01*
X100033267Y-64773658D01*
X100033265Y-64773657D01*
X100033266Y-64773657D01*
X99897349Y-64722962D01*
X99897344Y-64722960D01*
X99897342Y-64722960D01*
X99867298Y-64719730D01*
X99837256Y-64716500D01*
X98790753Y-64716500D01*
X98790729Y-64716502D01*
X98730660Y-64722959D01*
X98730658Y-64722959D01*
X98594733Y-64773657D01*
X98478596Y-64860596D01*
X98391657Y-64976734D01*
X98340962Y-65112650D01*
X98340960Y-65112658D01*
X98334500Y-65172737D01*
X97917500Y-65172737D01*
X97917500Y-56989737D01*
X99121500Y-56989737D01*
X99121500Y-57611246D01*
X99121502Y-57611270D01*
X99127959Y-57671339D01*
X99127959Y-57671341D01*
X99178657Y-57807266D01*
X99178658Y-57807267D01*
X99265596Y-57923404D01*
X99381733Y-58010342D01*
X99517658Y-58061040D01*
X99576060Y-58067318D01*
X99577735Y-58067499D01*
X99577745Y-58067500D01*
X99581102Y-58067861D01*
X99580937Y-58069393D01*
X99642135Y-58090941D01*
X99685723Y-58146982D01*
X99689112Y-58156733D01*
X99694500Y-58174560D01*
X99694500Y-58216225D01*
X99720499Y-58313254D01*
X99746622Y-58358500D01*
X99770724Y-58400247D01*
X100231596Y-58861119D01*
X100246539Y-58888485D01*
X100263396Y-58914715D01*
X100264302Y-58921016D01*
X100265620Y-58923430D01*
X100268500Y-58950213D01*
X100268500Y-59110189D01*
X100248498Y-59178310D01*
X100231595Y-59199284D01*
X100159580Y-59271298D01*
X100159579Y-59271300D01*
X100159578Y-59271302D01*
X100100688Y-59386880D01*
X100085500Y-59482774D01*
X100085500Y-59937226D01*
X100100688Y-60033120D01*
X100158013Y-60145625D01*
X100159579Y-60148699D01*
X100159580Y-60148701D01*
X100251298Y-60240419D01*
X100251300Y-60240420D01*
X100251302Y-60240422D01*
X100366880Y-60299312D01*
X100462774Y-60314500D01*
X100462777Y-60314500D01*
X100837223Y-60314500D01*
X100837226Y-60314500D01*
X100933120Y-60299312D01*
X101048698Y-60240422D01*
X101048707Y-60240412D01*
X101050934Y-60238796D01*
X101054119Y-60237659D01*
X101057533Y-60235920D01*
X101057757Y-60236361D01*
X101117801Y-60214935D01*
X101186953Y-60231012D01*
X101199066Y-60238796D01*
X101201295Y-60240415D01*
X101201302Y-60240422D01*
X101316880Y-60299312D01*
X101412774Y-60314500D01*
X101412777Y-60314500D01*
X101787223Y-60314500D01*
X101787226Y-60314500D01*
X101883120Y-60299312D01*
X101998698Y-60240422D01*
X101998707Y-60240412D01*
X102000934Y-60238796D01*
X102004119Y-60237659D01*
X102007533Y-60235920D01*
X102007757Y-60236361D01*
X102067801Y-60214935D01*
X102136953Y-60231012D01*
X102149066Y-60238796D01*
X102151295Y-60240415D01*
X102151302Y-60240422D01*
X102266880Y-60299312D01*
X102362774Y-60314500D01*
X102362777Y-60314500D01*
X102737223Y-60314500D01*
X102737226Y-60314500D01*
X102833120Y-60299312D01*
X102948698Y-60240422D01*
X103023472Y-60165647D01*
X103085782Y-60131624D01*
X103156598Y-60136688D01*
X103175566Y-60145625D01*
X103180894Y-60148701D01*
X103289118Y-60211184D01*
X103431367Y-60249300D01*
X103431369Y-60249300D01*
X103578631Y-60249300D01*
X103578633Y-60249300D01*
X103720882Y-60211184D01*
X103848418Y-60137551D01*
X103952551Y-60033418D01*
X104026184Y-59905882D01*
X104064300Y-59763633D01*
X104064300Y-59616367D01*
X104026184Y-59474118D01*
X103952551Y-59346582D01*
X103952549Y-59346580D01*
X103952545Y-59346575D01*
X103848424Y-59242454D01*
X103848414Y-59242446D01*
X103720882Y-59168816D01*
X103684823Y-59159154D01*
X103578633Y-59130700D01*
X103431367Y-59130700D01*
X103336534Y-59156110D01*
X103289117Y-59168816D01*
X103154430Y-59246578D01*
X103153287Y-59244599D01*
X103098123Y-59265915D01*
X103028576Y-59251638D01*
X102998566Y-59229445D01*
X102948701Y-59179580D01*
X102948699Y-59179579D01*
X102948698Y-59179578D01*
X102833120Y-59120688D01*
X102737226Y-59105500D01*
X102362774Y-59105500D01*
X102266880Y-59120688D01*
X102168501Y-59170815D01*
X102164703Y-59172750D01*
X102094926Y-59185854D01*
X102029141Y-59159154D01*
X101988235Y-59101126D01*
X101981500Y-59060483D01*
X101981500Y-58630213D01*
X102001502Y-58562092D01*
X102018400Y-58541122D01*
X102159276Y-58400247D01*
X102183378Y-58358500D01*
X102209501Y-58313254D01*
X102235500Y-58216225D01*
X102235500Y-56291644D01*
X102255502Y-56223523D01*
X102309158Y-56177030D01*
X102379432Y-56166926D01*
X102421886Y-56181057D01*
X102429730Y-56185339D01*
X102429733Y-56185342D01*
X102565658Y-56236040D01*
X102625745Y-56242500D01*
X103622254Y-56242499D01*
X103682342Y-56236040D01*
X103818267Y-56185342D01*
X103934404Y-56098404D01*
X104021342Y-55982267D01*
X104072040Y-55846342D01*
X104078500Y-55786255D01*
X104078499Y-55164746D01*
X104072040Y-55104658D01*
X104021342Y-54968733D01*
X103934404Y-54852596D01*
X103818267Y-54765658D01*
X103773472Y-54748950D01*
X103721023Y-54729387D01*
X103664188Y-54686840D01*
X103639378Y-54620320D01*
X103643351Y-54578720D01*
X103645182Y-54571884D01*
X103645184Y-54571882D01*
X103683300Y-54429633D01*
X103683300Y-54282367D01*
X103645184Y-54140118D01*
X103571551Y-54012582D01*
X103571549Y-54012580D01*
X103571545Y-54012575D01*
X103467424Y-53908454D01*
X103467414Y-53908446D01*
X103339882Y-53834816D01*
X103197633Y-53796700D01*
X103050367Y-53796700D01*
X102955534Y-53822110D01*
X102908117Y-53834816D01*
X102780585Y-53908446D01*
X102780575Y-53908454D01*
X102676454Y-54012575D01*
X102676446Y-54012585D01*
X102602816Y-54140117D01*
X102564700Y-54282368D01*
X102564700Y-54429631D01*
X102564699Y-54429631D01*
X102604649Y-54578722D01*
X102602959Y-54649698D01*
X102563165Y-54708494D01*
X102526975Y-54729388D01*
X102429733Y-54765657D01*
X102313596Y-54852596D01*
X102226658Y-54968732D01*
X102222196Y-54980694D01*
X102210507Y-55012034D01*
X102167962Y-55068868D01*
X102101442Y-55093679D01*
X102092453Y-55094000D01*
X102081275Y-55094000D01*
X102041492Y-55104660D01*
X101984241Y-55120000D01*
X101897256Y-55170221D01*
X101897246Y-55170229D01*
X101833410Y-55234066D01*
X101833398Y-55234076D01*
X101602030Y-55465445D01*
X101602028Y-55465448D01*
X101548729Y-55518746D01*
X101548721Y-55518756D01*
X101498500Y-55605741D01*
X101472500Y-55702776D01*
X101472500Y-57955787D01*
X101463716Y-57985702D01*
X101457088Y-58016172D01*
X101453273Y-58021267D01*
X101452498Y-58023908D01*
X101435595Y-58044882D01*
X101365753Y-58114724D01*
X101333495Y-58146982D01*
X101294725Y-58185751D01*
X101294721Y-58185756D01*
X101244500Y-58272741D01*
X101218500Y-58369776D01*
X101218500Y-58491432D01*
X101198498Y-58559553D01*
X101144842Y-58606046D01*
X101074568Y-58616150D01*
X101009988Y-58586656D01*
X100983381Y-58554432D01*
X100955278Y-58505756D01*
X100955270Y-58505746D01*
X100682823Y-58233299D01*
X100648797Y-58170987D01*
X100653862Y-58100172D01*
X100696409Y-58043336D01*
X100727880Y-58026151D01*
X100770267Y-58010342D01*
X100886404Y-57923404D01*
X100973342Y-57807267D01*
X101024040Y-57671342D01*
X101030500Y-57611255D01*
X101030499Y-56989746D01*
X101024040Y-56929658D01*
X100973342Y-56793733D01*
X100886404Y-56677596D01*
X100770267Y-56590658D01*
X100770265Y-56590657D01*
X100770266Y-56590657D01*
X100634349Y-56539962D01*
X100634344Y-56539960D01*
X100634342Y-56539960D01*
X100604298Y-56536730D01*
X100574256Y-56533500D01*
X99577753Y-56533500D01*
X99577729Y-56533502D01*
X99517660Y-56539959D01*
X99517658Y-56539959D01*
X99381733Y-56590657D01*
X99265596Y-56677596D01*
X99178657Y-56793734D01*
X99127962Y-56929650D01*
X99127960Y-56929658D01*
X99121500Y-56989737D01*
X97917500Y-56989737D01*
X97917500Y-55164737D01*
X99121500Y-55164737D01*
X99121500Y-55786246D01*
X99121502Y-55786270D01*
X99127959Y-55846339D01*
X99127959Y-55846341D01*
X99178657Y-55982266D01*
X99178658Y-55982267D01*
X99265596Y-56098404D01*
X99381733Y-56185342D01*
X99517658Y-56236040D01*
X99577745Y-56242500D01*
X100574254Y-56242499D01*
X100634342Y-56236040D01*
X100770267Y-56185342D01*
X100886404Y-56098404D01*
X100973342Y-55982267D01*
X101024040Y-55846342D01*
X101030500Y-55786255D01*
X101030499Y-55164746D01*
X101024040Y-55104658D01*
X100973342Y-54968733D01*
X100886404Y-54852596D01*
X100770267Y-54765658D01*
X100725472Y-54748950D01*
X100673023Y-54729387D01*
X100616188Y-54686840D01*
X100591378Y-54620320D01*
X100595351Y-54578720D01*
X100597182Y-54571884D01*
X100597184Y-54571882D01*
X100635300Y-54429633D01*
X100635300Y-54282367D01*
X100597184Y-54140118D01*
X100523551Y-54012582D01*
X100523549Y-54012580D01*
X100523545Y-54012575D01*
X100419424Y-53908454D01*
X100419414Y-53908446D01*
X100291882Y-53834816D01*
X100149633Y-53796700D01*
X100002367Y-53796700D01*
X99907534Y-53822110D01*
X99860117Y-53834816D01*
X99732585Y-53908446D01*
X99732575Y-53908454D01*
X99628454Y-54012575D01*
X99628446Y-54012585D01*
X99554816Y-54140117D01*
X99516700Y-54282368D01*
X99516700Y-54429631D01*
X99516699Y-54429631D01*
X99556649Y-54578722D01*
X99554959Y-54649698D01*
X99515165Y-54708494D01*
X99478975Y-54729388D01*
X99381733Y-54765657D01*
X99265596Y-54852596D01*
X99178657Y-54968734D01*
X99127962Y-55104650D01*
X99127960Y-55104658D01*
X99121500Y-55164737D01*
X97917500Y-55164737D01*
X97917500Y-50749378D01*
X97917499Y-50749375D01*
X97878756Y-50655838D01*
X97878752Y-50655833D01*
X97807166Y-50584247D01*
X97807161Y-50584243D01*
X97713624Y-50545500D01*
X97713623Y-50545500D01*
X88449274Y-50545500D01*
X88381153Y-50525498D01*
X88334660Y-50471842D01*
X88324556Y-50401568D01*
X88331219Y-50375467D01*
X88373037Y-50263349D01*
X88373040Y-50263342D01*
X88379500Y-50203255D01*
X88379500Y-50093550D01*
X88399502Y-50025430D01*
X88453158Y-49978937D01*
X88523432Y-49968833D01*
X88568500Y-49984432D01*
X88684118Y-50051184D01*
X88826367Y-50089300D01*
X88826369Y-50089300D01*
X88973631Y-50089300D01*
X88973633Y-50089300D01*
X89115882Y-50051184D01*
X89243418Y-49977551D01*
X89347551Y-49873418D01*
X89421184Y-49745882D01*
X89459300Y-49603633D01*
X89459300Y-49456367D01*
X89421184Y-49314118D01*
X89347551Y-49186582D01*
X89347549Y-49186580D01*
X89347545Y-49186575D01*
X89243424Y-49082454D01*
X89243414Y-49082446D01*
X89115882Y-49008816D01*
X89105164Y-49005944D01*
X88973633Y-48970700D01*
X88826367Y-48970700D01*
X88694836Y-49005944D01*
X88684118Y-49008816D01*
X88568498Y-49075569D01*
X88499503Y-49092306D01*
X88432411Y-49069085D01*
X88388524Y-49013278D01*
X88379499Y-48966449D01*
X88379499Y-48856753D01*
X88379499Y-48856746D01*
X88373040Y-48796658D01*
X88331218Y-48684532D01*
X88326153Y-48613717D01*
X88360178Y-48551405D01*
X88422490Y-48517380D01*
X88449274Y-48514500D01*
X111950726Y-48514500D01*
X112018847Y-48534502D01*
G37*
G04 #@! TD.AperFunction*
M02*
