G04 #@! TF.GenerationSoftware,KiCad,Pcbnew,9.0.9-9.0.9~ubuntu24.04.1*
G04 #@! TF.CreationDate,2026-08-31T17:21:49-06:00*
G04 #@! TF.ProjectId,ckt-axle-bar-array,636b742d-6178-46c6-952d-6261722d6172,rev?*
G04 #@! TF.SameCoordinates,Original*
G04 #@! TF.FileFunction,Legend,Top*
G04 #@! TF.FilePolarity,Positive*
%FSLAX46Y46*%
G04 Gerber Fmt 4.6, Leading zero omitted, Abs format (unit mm)*
G04 Created by KiCad (PCBNEW 9.0.9-9.0.9~ubuntu24.04.1) date 2026-08-31 17:21:49*
%MOMM*%
%LPD*%
G01*
G04 APERTURE LIST*
%ADD10C,0.150000*%
%ADD11C,0.120000*%
G04 APERTURE END LIST*
D10*
X146394180Y-64410333D02*
X146870371Y-64077000D01*
X146394180Y-63838905D02*
X147394180Y-63838905D01*
X147394180Y-63838905D02*
X147394180Y-64219857D01*
X147394180Y-64219857D02*
X147346561Y-64315095D01*
X147346561Y-64315095D02*
X147298942Y-64362714D01*
X147298942Y-64362714D02*
X147203704Y-64410333D01*
X147203704Y-64410333D02*
X147060847Y-64410333D01*
X147060847Y-64410333D02*
X146965609Y-64362714D01*
X146965609Y-64362714D02*
X146917990Y-64315095D01*
X146917990Y-64315095D02*
X146870371Y-64219857D01*
X146870371Y-64219857D02*
X146870371Y-63838905D01*
X147298942Y-64791286D02*
X147346561Y-64838905D01*
X147346561Y-64838905D02*
X147394180Y-64934143D01*
X147394180Y-64934143D02*
X147394180Y-65172238D01*
X147394180Y-65172238D02*
X147346561Y-65267476D01*
X147346561Y-65267476D02*
X147298942Y-65315095D01*
X147298942Y-65315095D02*
X147203704Y-65362714D01*
X147203704Y-65362714D02*
X147108466Y-65362714D01*
X147108466Y-65362714D02*
X146965609Y-65315095D01*
X146965609Y-65315095D02*
X146394180Y-64743667D01*
X146394180Y-64743667D02*
X146394180Y-65362714D01*
X146394180Y-107844333D02*
X146870371Y-107511000D01*
X146394180Y-107272905D02*
X147394180Y-107272905D01*
X147394180Y-107272905D02*
X147394180Y-107653857D01*
X147394180Y-107653857D02*
X147346561Y-107749095D01*
X147346561Y-107749095D02*
X147298942Y-107796714D01*
X147298942Y-107796714D02*
X147203704Y-107844333D01*
X147203704Y-107844333D02*
X147060847Y-107844333D01*
X147060847Y-107844333D02*
X146965609Y-107796714D01*
X146965609Y-107796714D02*
X146917990Y-107749095D01*
X146917990Y-107749095D02*
X146870371Y-107653857D01*
X146870371Y-107653857D02*
X146870371Y-107272905D01*
X147298942Y-108225286D02*
X147346561Y-108272905D01*
X147346561Y-108272905D02*
X147394180Y-108368143D01*
X147394180Y-108368143D02*
X147394180Y-108606238D01*
X147394180Y-108606238D02*
X147346561Y-108701476D01*
X147346561Y-108701476D02*
X147298942Y-108749095D01*
X147298942Y-108749095D02*
X147203704Y-108796714D01*
X147203704Y-108796714D02*
X147108466Y-108796714D01*
X147108466Y-108796714D02*
X146965609Y-108749095D01*
X146965609Y-108749095D02*
X146394180Y-108177667D01*
X146394180Y-108177667D02*
X146394180Y-108796714D01*
X151525530Y-67222833D02*
X151948864Y-66926500D01*
X151525530Y-66714833D02*
X152414530Y-66714833D01*
X152414530Y-66714833D02*
X152414530Y-67053500D01*
X152414530Y-67053500D02*
X152372197Y-67138167D01*
X152372197Y-67138167D02*
X152329864Y-67180500D01*
X152329864Y-67180500D02*
X152245197Y-67222833D01*
X152245197Y-67222833D02*
X152118197Y-67222833D01*
X152118197Y-67222833D02*
X152033530Y-67180500D01*
X152033530Y-67180500D02*
X151991197Y-67138167D01*
X151991197Y-67138167D02*
X151948864Y-67053500D01*
X151948864Y-67053500D02*
X151948864Y-66714833D01*
X152414530Y-67519167D02*
X152414530Y-68069500D01*
X152414530Y-68069500D02*
X152075864Y-67773167D01*
X152075864Y-67773167D02*
X152075864Y-67900167D01*
X152075864Y-67900167D02*
X152033530Y-67984833D01*
X152033530Y-67984833D02*
X151991197Y-68027167D01*
X151991197Y-68027167D02*
X151906530Y-68069500D01*
X151906530Y-68069500D02*
X151694864Y-68069500D01*
X151694864Y-68069500D02*
X151610197Y-68027167D01*
X151610197Y-68027167D02*
X151567864Y-67984833D01*
X151567864Y-67984833D02*
X151525530Y-67900167D01*
X151525530Y-67900167D02*
X151525530Y-67646167D01*
X151525530Y-67646167D02*
X151567864Y-67561500D01*
X151567864Y-67561500D02*
X151610197Y-67519167D01*
X151525530Y-110656833D02*
X151948864Y-110360500D01*
X151525530Y-110148833D02*
X152414530Y-110148833D01*
X152414530Y-110148833D02*
X152414530Y-110487500D01*
X152414530Y-110487500D02*
X152372197Y-110572167D01*
X152372197Y-110572167D02*
X152329864Y-110614500D01*
X152329864Y-110614500D02*
X152245197Y-110656833D01*
X152245197Y-110656833D02*
X152118197Y-110656833D01*
X152118197Y-110656833D02*
X152033530Y-110614500D01*
X152033530Y-110614500D02*
X151991197Y-110572167D01*
X151991197Y-110572167D02*
X151948864Y-110487500D01*
X151948864Y-110487500D02*
X151948864Y-110148833D01*
X152414530Y-110953167D02*
X152414530Y-111503500D01*
X152414530Y-111503500D02*
X152075864Y-111207167D01*
X152075864Y-111207167D02*
X152075864Y-111334167D01*
X152075864Y-111334167D02*
X152033530Y-111418833D01*
X152033530Y-111418833D02*
X151991197Y-111461167D01*
X151991197Y-111461167D02*
X151906530Y-111503500D01*
X151906530Y-111503500D02*
X151694864Y-111503500D01*
X151694864Y-111503500D02*
X151610197Y-111461167D01*
X151610197Y-111461167D02*
X151567864Y-111418833D01*
X151567864Y-111418833D02*
X151525530Y-111334167D01*
X151525530Y-111334167D02*
X151525530Y-111080167D01*
X151525530Y-111080167D02*
X151567864Y-110995500D01*
X151567864Y-110995500D02*
X151610197Y-110953167D01*
X145474469Y-83648166D02*
X145051136Y-83944499D01*
X145474469Y-84156166D02*
X144585469Y-84156166D01*
X144585469Y-84156166D02*
X144585469Y-83817499D01*
X144585469Y-83817499D02*
X144627802Y-83732833D01*
X144627802Y-83732833D02*
X144670136Y-83690499D01*
X144670136Y-83690499D02*
X144754802Y-83648166D01*
X144754802Y-83648166D02*
X144881802Y-83648166D01*
X144881802Y-83648166D02*
X144966469Y-83690499D01*
X144966469Y-83690499D02*
X145008802Y-83732833D01*
X145008802Y-83732833D02*
X145051136Y-83817499D01*
X145051136Y-83817499D02*
X145051136Y-84156166D01*
X144585469Y-83351833D02*
X144585469Y-82801499D01*
X144585469Y-82801499D02*
X144924136Y-83097833D01*
X144924136Y-83097833D02*
X144924136Y-82970833D01*
X144924136Y-82970833D02*
X144966469Y-82886166D01*
X144966469Y-82886166D02*
X145008802Y-82843833D01*
X145008802Y-82843833D02*
X145093469Y-82801499D01*
X145093469Y-82801499D02*
X145305136Y-82801499D01*
X145305136Y-82801499D02*
X145389802Y-82843833D01*
X145389802Y-82843833D02*
X145432136Y-82886166D01*
X145432136Y-82886166D02*
X145474469Y-82970833D01*
X145474469Y-82970833D02*
X145474469Y-83224833D01*
X145474469Y-83224833D02*
X145432136Y-83309499D01*
X145432136Y-83309499D02*
X145389802Y-83351833D01*
X138250180Y-107804666D02*
X137535895Y-107804666D01*
X137535895Y-107804666D02*
X137393038Y-107757047D01*
X137393038Y-107757047D02*
X137297800Y-107661809D01*
X137297800Y-107661809D02*
X137250180Y-107518952D01*
X137250180Y-107518952D02*
X137250180Y-107423714D01*
X137250180Y-108804666D02*
X137250180Y-108233238D01*
X137250180Y-108518952D02*
X138250180Y-108518952D01*
X138250180Y-108518952D02*
X138107323Y-108423714D01*
X138107323Y-108423714D02*
X138012085Y-108328476D01*
X138012085Y-108328476D02*
X137964466Y-108233238D01*
X158749819Y-86500333D02*
X159464104Y-86500333D01*
X159464104Y-86500333D02*
X159606961Y-86547952D01*
X159606961Y-86547952D02*
X159702200Y-86643190D01*
X159702200Y-86643190D02*
X159749819Y-86786047D01*
X159749819Y-86786047D02*
X159749819Y-86881285D01*
X159749819Y-85500333D02*
X159749819Y-86071761D01*
X159749819Y-85786047D02*
X158749819Y-85786047D01*
X158749819Y-85786047D02*
X158892676Y-85881285D01*
X158892676Y-85881285D02*
X158987914Y-85976523D01*
X158987914Y-85976523D02*
X159035533Y-86071761D01*
X148773864Y-110593333D02*
X148816197Y-110508666D01*
X148816197Y-110508666D02*
X148900864Y-110424000D01*
X148900864Y-110424000D02*
X149027864Y-110297000D01*
X149027864Y-110297000D02*
X149070197Y-110212333D01*
X149070197Y-110212333D02*
X149070197Y-110127666D01*
X148858530Y-110170000D02*
X148900864Y-110085333D01*
X148900864Y-110085333D02*
X148985530Y-110000666D01*
X148985530Y-110000666D02*
X149154864Y-109958333D01*
X149154864Y-109958333D02*
X149451197Y-109958333D01*
X149451197Y-109958333D02*
X149620530Y-110000666D01*
X149620530Y-110000666D02*
X149705197Y-110085333D01*
X149705197Y-110085333D02*
X149747530Y-110170000D01*
X149747530Y-110170000D02*
X149747530Y-110339333D01*
X149747530Y-110339333D02*
X149705197Y-110424000D01*
X149705197Y-110424000D02*
X149620530Y-110508666D01*
X149620530Y-110508666D02*
X149451197Y-110551000D01*
X149451197Y-110551000D02*
X149154864Y-110551000D01*
X149154864Y-110551000D02*
X148985530Y-110508666D01*
X148985530Y-110508666D02*
X148900864Y-110424000D01*
X148900864Y-110424000D02*
X148858530Y-110339333D01*
X148858530Y-110339333D02*
X148858530Y-110170000D01*
X149662864Y-110889666D02*
X149705197Y-110931999D01*
X149705197Y-110931999D02*
X149747530Y-111016666D01*
X149747530Y-111016666D02*
X149747530Y-111228333D01*
X149747530Y-111228333D02*
X149705197Y-111312999D01*
X149705197Y-111312999D02*
X149662864Y-111355333D01*
X149662864Y-111355333D02*
X149578197Y-111397666D01*
X149578197Y-111397666D02*
X149493530Y-111397666D01*
X149493530Y-111397666D02*
X149366530Y-111355333D01*
X149366530Y-111355333D02*
X148858530Y-110847333D01*
X148858530Y-110847333D02*
X148858530Y-111397666D01*
X145474469Y-127082166D02*
X145051136Y-127378499D01*
X145474469Y-127590166D02*
X144585469Y-127590166D01*
X144585469Y-127590166D02*
X144585469Y-127251499D01*
X144585469Y-127251499D02*
X144627802Y-127166833D01*
X144627802Y-127166833D02*
X144670136Y-127124499D01*
X144670136Y-127124499D02*
X144754802Y-127082166D01*
X144754802Y-127082166D02*
X144881802Y-127082166D01*
X144881802Y-127082166D02*
X144966469Y-127124499D01*
X144966469Y-127124499D02*
X145008802Y-127166833D01*
X145008802Y-127166833D02*
X145051136Y-127251499D01*
X145051136Y-127251499D02*
X145051136Y-127590166D01*
X144585469Y-126785833D02*
X144585469Y-126235499D01*
X144585469Y-126235499D02*
X144924136Y-126531833D01*
X144924136Y-126531833D02*
X144924136Y-126404833D01*
X144924136Y-126404833D02*
X144966469Y-126320166D01*
X144966469Y-126320166D02*
X145008802Y-126277833D01*
X145008802Y-126277833D02*
X145093469Y-126235499D01*
X145093469Y-126235499D02*
X145305136Y-126235499D01*
X145305136Y-126235499D02*
X145389802Y-126277833D01*
X145389802Y-126277833D02*
X145432136Y-126320166D01*
X145432136Y-126320166D02*
X145474469Y-126404833D01*
X145474469Y-126404833D02*
X145474469Y-126658833D01*
X145474469Y-126658833D02*
X145432136Y-126743499D01*
X145432136Y-126743499D02*
X145389802Y-126785833D01*
X158749819Y-43066333D02*
X159464104Y-43066333D01*
X159464104Y-43066333D02*
X159606961Y-43113952D01*
X159606961Y-43113952D02*
X159702200Y-43209190D01*
X159702200Y-43209190D02*
X159749819Y-43352047D01*
X159749819Y-43352047D02*
X159749819Y-43447285D01*
X159749819Y-42066333D02*
X159749819Y-42637761D01*
X159749819Y-42352047D02*
X158749819Y-42352047D01*
X158749819Y-42352047D02*
X158892676Y-42447285D01*
X158892676Y-42447285D02*
X158987914Y-42542523D01*
X158987914Y-42542523D02*
X159035533Y-42637761D01*
X146394180Y-151278333D02*
X146870371Y-150945000D01*
X146394180Y-150706905D02*
X147394180Y-150706905D01*
X147394180Y-150706905D02*
X147394180Y-151087857D01*
X147394180Y-151087857D02*
X147346561Y-151183095D01*
X147346561Y-151183095D02*
X147298942Y-151230714D01*
X147298942Y-151230714D02*
X147203704Y-151278333D01*
X147203704Y-151278333D02*
X147060847Y-151278333D01*
X147060847Y-151278333D02*
X146965609Y-151230714D01*
X146965609Y-151230714D02*
X146917990Y-151183095D01*
X146917990Y-151183095D02*
X146870371Y-151087857D01*
X146870371Y-151087857D02*
X146870371Y-150706905D01*
X147298942Y-151659286D02*
X147346561Y-151706905D01*
X147346561Y-151706905D02*
X147394180Y-151802143D01*
X147394180Y-151802143D02*
X147394180Y-152040238D01*
X147394180Y-152040238D02*
X147346561Y-152135476D01*
X147346561Y-152135476D02*
X147298942Y-152183095D01*
X147298942Y-152183095D02*
X147203704Y-152230714D01*
X147203704Y-152230714D02*
X147108466Y-152230714D01*
X147108466Y-152230714D02*
X146965609Y-152183095D01*
X146965609Y-152183095D02*
X146394180Y-151611667D01*
X146394180Y-151611667D02*
X146394180Y-152230714D01*
X150510580Y-88746666D02*
X150558200Y-88794285D01*
X150558200Y-88794285D02*
X150605819Y-88937142D01*
X150605819Y-88937142D02*
X150605819Y-89032380D01*
X150605819Y-89032380D02*
X150558200Y-89175237D01*
X150558200Y-89175237D02*
X150462961Y-89270475D01*
X150462961Y-89270475D02*
X150367723Y-89318094D01*
X150367723Y-89318094D02*
X150177247Y-89365713D01*
X150177247Y-89365713D02*
X150034390Y-89365713D01*
X150034390Y-89365713D02*
X149843914Y-89318094D01*
X149843914Y-89318094D02*
X149748676Y-89270475D01*
X149748676Y-89270475D02*
X149653438Y-89175237D01*
X149653438Y-89175237D02*
X149605819Y-89032380D01*
X149605819Y-89032380D02*
X149605819Y-88937142D01*
X149605819Y-88937142D02*
X149653438Y-88794285D01*
X149653438Y-88794285D02*
X149701057Y-88746666D01*
X150605819Y-87794285D02*
X150605819Y-88365713D01*
X150605819Y-88079999D02*
X149605819Y-88079999D01*
X149605819Y-88079999D02*
X149748676Y-88175237D01*
X149748676Y-88175237D02*
X149843914Y-88270475D01*
X149843914Y-88270475D02*
X149891533Y-88365713D01*
X150605819Y-43026666D02*
X150129628Y-43359999D01*
X150605819Y-43598094D02*
X149605819Y-43598094D01*
X149605819Y-43598094D02*
X149605819Y-43217142D01*
X149605819Y-43217142D02*
X149653438Y-43121904D01*
X149653438Y-43121904D02*
X149701057Y-43074285D01*
X149701057Y-43074285D02*
X149796295Y-43026666D01*
X149796295Y-43026666D02*
X149939152Y-43026666D01*
X149939152Y-43026666D02*
X150034390Y-43074285D01*
X150034390Y-43074285D02*
X150082009Y-43121904D01*
X150082009Y-43121904D02*
X150129628Y-43217142D01*
X150129628Y-43217142D02*
X150129628Y-43598094D01*
X149701057Y-42645713D02*
X149653438Y-42598094D01*
X149653438Y-42598094D02*
X149605819Y-42502856D01*
X149605819Y-42502856D02*
X149605819Y-42264761D01*
X149605819Y-42264761D02*
X149653438Y-42169523D01*
X149653438Y-42169523D02*
X149701057Y-42121904D01*
X149701057Y-42121904D02*
X149796295Y-42074285D01*
X149796295Y-42074285D02*
X149891533Y-42074285D01*
X149891533Y-42074285D02*
X150034390Y-42121904D01*
X150034390Y-42121904D02*
X150605819Y-42693332D01*
X150605819Y-42693332D02*
X150605819Y-42074285D01*
X158749819Y-129934333D02*
X159464104Y-129934333D01*
X159464104Y-129934333D02*
X159606961Y-129981952D01*
X159606961Y-129981952D02*
X159702200Y-130077190D01*
X159702200Y-130077190D02*
X159749819Y-130220047D01*
X159749819Y-130220047D02*
X159749819Y-130315285D01*
X159749819Y-128934333D02*
X159749819Y-129505761D01*
X159749819Y-129220047D02*
X158749819Y-129220047D01*
X158749819Y-129220047D02*
X158892676Y-129315285D01*
X158892676Y-129315285D02*
X158987914Y-129410523D01*
X158987914Y-129410523D02*
X159035533Y-129505761D01*
X148226136Y-127145666D02*
X148183802Y-127230333D01*
X148183802Y-127230333D02*
X148099136Y-127315000D01*
X148099136Y-127315000D02*
X147972136Y-127442000D01*
X147972136Y-127442000D02*
X147929802Y-127526666D01*
X147929802Y-127526666D02*
X147929802Y-127611333D01*
X148141469Y-127569000D02*
X148099136Y-127653666D01*
X148099136Y-127653666D02*
X148014469Y-127738333D01*
X148014469Y-127738333D02*
X147845136Y-127780666D01*
X147845136Y-127780666D02*
X147548802Y-127780666D01*
X147548802Y-127780666D02*
X147379469Y-127738333D01*
X147379469Y-127738333D02*
X147294802Y-127653666D01*
X147294802Y-127653666D02*
X147252469Y-127569000D01*
X147252469Y-127569000D02*
X147252469Y-127399666D01*
X147252469Y-127399666D02*
X147294802Y-127315000D01*
X147294802Y-127315000D02*
X147379469Y-127230333D01*
X147379469Y-127230333D02*
X147548802Y-127188000D01*
X147548802Y-127188000D02*
X147845136Y-127188000D01*
X147845136Y-127188000D02*
X148014469Y-127230333D01*
X148014469Y-127230333D02*
X148099136Y-127315000D01*
X148099136Y-127315000D02*
X148141469Y-127399666D01*
X148141469Y-127399666D02*
X148141469Y-127569000D01*
X147337136Y-126849333D02*
X147294802Y-126807000D01*
X147294802Y-126807000D02*
X147252469Y-126722333D01*
X147252469Y-126722333D02*
X147252469Y-126510667D01*
X147252469Y-126510667D02*
X147294802Y-126426000D01*
X147294802Y-126426000D02*
X147337136Y-126383667D01*
X147337136Y-126383667D02*
X147421802Y-126341333D01*
X147421802Y-126341333D02*
X147506469Y-126341333D01*
X147506469Y-126341333D02*
X147633469Y-126383667D01*
X147633469Y-126383667D02*
X148141469Y-126891667D01*
X148141469Y-126891667D02*
X148141469Y-126341333D01*
X150605819Y-86460666D02*
X150129628Y-86793999D01*
X150605819Y-87032094D02*
X149605819Y-87032094D01*
X149605819Y-87032094D02*
X149605819Y-86651142D01*
X149605819Y-86651142D02*
X149653438Y-86555904D01*
X149653438Y-86555904D02*
X149701057Y-86508285D01*
X149701057Y-86508285D02*
X149796295Y-86460666D01*
X149796295Y-86460666D02*
X149939152Y-86460666D01*
X149939152Y-86460666D02*
X150034390Y-86508285D01*
X150034390Y-86508285D02*
X150082009Y-86555904D01*
X150082009Y-86555904D02*
X150129628Y-86651142D01*
X150129628Y-86651142D02*
X150129628Y-87032094D01*
X149701057Y-86079713D02*
X149653438Y-86032094D01*
X149653438Y-86032094D02*
X149605819Y-85936856D01*
X149605819Y-85936856D02*
X149605819Y-85698761D01*
X149605819Y-85698761D02*
X149653438Y-85603523D01*
X149653438Y-85603523D02*
X149701057Y-85555904D01*
X149701057Y-85555904D02*
X149796295Y-85508285D01*
X149796295Y-85508285D02*
X149891533Y-85508285D01*
X149891533Y-85508285D02*
X150034390Y-85555904D01*
X150034390Y-85555904D02*
X150605819Y-86127332D01*
X150605819Y-86127332D02*
X150605819Y-85508285D01*
X151525530Y-105068833D02*
X151948864Y-104772500D01*
X151525530Y-104560833D02*
X152414530Y-104560833D01*
X152414530Y-104560833D02*
X152414530Y-104899500D01*
X152414530Y-104899500D02*
X152372197Y-104984167D01*
X152372197Y-104984167D02*
X152329864Y-105026500D01*
X152329864Y-105026500D02*
X152245197Y-105068833D01*
X152245197Y-105068833D02*
X152118197Y-105068833D01*
X152118197Y-105068833D02*
X152033530Y-105026500D01*
X152033530Y-105026500D02*
X151991197Y-104984167D01*
X151991197Y-104984167D02*
X151948864Y-104899500D01*
X151948864Y-104899500D02*
X151948864Y-104560833D01*
X151525530Y-105915500D02*
X151525530Y-105407500D01*
X151525530Y-105661500D02*
X152414530Y-105661500D01*
X152414530Y-105661500D02*
X152287530Y-105576833D01*
X152287530Y-105576833D02*
X152202864Y-105492167D01*
X152202864Y-105492167D02*
X152160530Y-105407500D01*
X151525530Y-154090833D02*
X151948864Y-153794500D01*
X151525530Y-153582833D02*
X152414530Y-153582833D01*
X152414530Y-153582833D02*
X152414530Y-153921500D01*
X152414530Y-153921500D02*
X152372197Y-154006167D01*
X152372197Y-154006167D02*
X152329864Y-154048500D01*
X152329864Y-154048500D02*
X152245197Y-154090833D01*
X152245197Y-154090833D02*
X152118197Y-154090833D01*
X152118197Y-154090833D02*
X152033530Y-154048500D01*
X152033530Y-154048500D02*
X151991197Y-154006167D01*
X151991197Y-154006167D02*
X151948864Y-153921500D01*
X151948864Y-153921500D02*
X151948864Y-153582833D01*
X152414530Y-154387167D02*
X152414530Y-154937500D01*
X152414530Y-154937500D02*
X152075864Y-154641167D01*
X152075864Y-154641167D02*
X152075864Y-154768167D01*
X152075864Y-154768167D02*
X152033530Y-154852833D01*
X152033530Y-154852833D02*
X151991197Y-154895167D01*
X151991197Y-154895167D02*
X151906530Y-154937500D01*
X151906530Y-154937500D02*
X151694864Y-154937500D01*
X151694864Y-154937500D02*
X151610197Y-154895167D01*
X151610197Y-154895167D02*
X151567864Y-154852833D01*
X151567864Y-154852833D02*
X151525530Y-154768167D01*
X151525530Y-154768167D02*
X151525530Y-154514167D01*
X151525530Y-154514167D02*
X151567864Y-154429500D01*
X151567864Y-154429500D02*
X151610197Y-154387167D01*
X145474469Y-132670166D02*
X145051136Y-132966499D01*
X145474469Y-133178166D02*
X144585469Y-133178166D01*
X144585469Y-133178166D02*
X144585469Y-132839499D01*
X144585469Y-132839499D02*
X144627802Y-132754833D01*
X144627802Y-132754833D02*
X144670136Y-132712499D01*
X144670136Y-132712499D02*
X144754802Y-132670166D01*
X144754802Y-132670166D02*
X144881802Y-132670166D01*
X144881802Y-132670166D02*
X144966469Y-132712499D01*
X144966469Y-132712499D02*
X145008802Y-132754833D01*
X145008802Y-132754833D02*
X145051136Y-132839499D01*
X145051136Y-132839499D02*
X145051136Y-133178166D01*
X145474469Y-131823499D02*
X145474469Y-132331499D01*
X145474469Y-132077499D02*
X144585469Y-132077499D01*
X144585469Y-132077499D02*
X144712469Y-132162166D01*
X144712469Y-132162166D02*
X144797136Y-132246833D01*
X144797136Y-132246833D02*
X144839469Y-132331499D01*
X151525530Y-61634833D02*
X151948864Y-61338500D01*
X151525530Y-61126833D02*
X152414530Y-61126833D01*
X152414530Y-61126833D02*
X152414530Y-61465500D01*
X152414530Y-61465500D02*
X152372197Y-61550167D01*
X152372197Y-61550167D02*
X152329864Y-61592500D01*
X152329864Y-61592500D02*
X152245197Y-61634833D01*
X152245197Y-61634833D02*
X152118197Y-61634833D01*
X152118197Y-61634833D02*
X152033530Y-61592500D01*
X152033530Y-61592500D02*
X151991197Y-61550167D01*
X151991197Y-61550167D02*
X151948864Y-61465500D01*
X151948864Y-61465500D02*
X151948864Y-61126833D01*
X151525530Y-62481500D02*
X151525530Y-61973500D01*
X151525530Y-62227500D02*
X152414530Y-62227500D01*
X152414530Y-62227500D02*
X152287530Y-62142833D01*
X152287530Y-62142833D02*
X152202864Y-62058167D01*
X152202864Y-62058167D02*
X152160530Y-61973500D01*
X148226136Y-40277666D02*
X148183802Y-40362333D01*
X148183802Y-40362333D02*
X148099136Y-40447000D01*
X148099136Y-40447000D02*
X147972136Y-40574000D01*
X147972136Y-40574000D02*
X147929802Y-40658666D01*
X147929802Y-40658666D02*
X147929802Y-40743333D01*
X148141469Y-40701000D02*
X148099136Y-40785666D01*
X148099136Y-40785666D02*
X148014469Y-40870333D01*
X148014469Y-40870333D02*
X147845136Y-40912666D01*
X147845136Y-40912666D02*
X147548802Y-40912666D01*
X147548802Y-40912666D02*
X147379469Y-40870333D01*
X147379469Y-40870333D02*
X147294802Y-40785666D01*
X147294802Y-40785666D02*
X147252469Y-40701000D01*
X147252469Y-40701000D02*
X147252469Y-40531666D01*
X147252469Y-40531666D02*
X147294802Y-40447000D01*
X147294802Y-40447000D02*
X147379469Y-40362333D01*
X147379469Y-40362333D02*
X147548802Y-40320000D01*
X147548802Y-40320000D02*
X147845136Y-40320000D01*
X147845136Y-40320000D02*
X148014469Y-40362333D01*
X148014469Y-40362333D02*
X148099136Y-40447000D01*
X148099136Y-40447000D02*
X148141469Y-40531666D01*
X148141469Y-40531666D02*
X148141469Y-40701000D01*
X147337136Y-39981333D02*
X147294802Y-39939000D01*
X147294802Y-39939000D02*
X147252469Y-39854333D01*
X147252469Y-39854333D02*
X147252469Y-39642667D01*
X147252469Y-39642667D02*
X147294802Y-39558000D01*
X147294802Y-39558000D02*
X147337136Y-39515667D01*
X147337136Y-39515667D02*
X147421802Y-39473333D01*
X147421802Y-39473333D02*
X147506469Y-39473333D01*
X147506469Y-39473333D02*
X147633469Y-39515667D01*
X147633469Y-39515667D02*
X148141469Y-40023667D01*
X148141469Y-40023667D02*
X148141469Y-39473333D01*
X150605819Y-40740666D02*
X150129628Y-41073999D01*
X150605819Y-41312094D02*
X149605819Y-41312094D01*
X149605819Y-41312094D02*
X149605819Y-40931142D01*
X149605819Y-40931142D02*
X149653438Y-40835904D01*
X149653438Y-40835904D02*
X149701057Y-40788285D01*
X149701057Y-40788285D02*
X149796295Y-40740666D01*
X149796295Y-40740666D02*
X149939152Y-40740666D01*
X149939152Y-40740666D02*
X150034390Y-40788285D01*
X150034390Y-40788285D02*
X150082009Y-40835904D01*
X150082009Y-40835904D02*
X150129628Y-40931142D01*
X150129628Y-40931142D02*
X150129628Y-41312094D01*
X149939152Y-39883523D02*
X150605819Y-39883523D01*
X149558200Y-40121618D02*
X150272485Y-40359713D01*
X150272485Y-40359713D02*
X150272485Y-39740666D01*
X150510580Y-132180666D02*
X150558200Y-132228285D01*
X150558200Y-132228285D02*
X150605819Y-132371142D01*
X150605819Y-132371142D02*
X150605819Y-132466380D01*
X150605819Y-132466380D02*
X150558200Y-132609237D01*
X150558200Y-132609237D02*
X150462961Y-132704475D01*
X150462961Y-132704475D02*
X150367723Y-132752094D01*
X150367723Y-132752094D02*
X150177247Y-132799713D01*
X150177247Y-132799713D02*
X150034390Y-132799713D01*
X150034390Y-132799713D02*
X149843914Y-132752094D01*
X149843914Y-132752094D02*
X149748676Y-132704475D01*
X149748676Y-132704475D02*
X149653438Y-132609237D01*
X149653438Y-132609237D02*
X149605819Y-132466380D01*
X149605819Y-132466380D02*
X149605819Y-132371142D01*
X149605819Y-132371142D02*
X149653438Y-132228285D01*
X149653438Y-132228285D02*
X149701057Y-132180666D01*
X150605819Y-131228285D02*
X150605819Y-131799713D01*
X150605819Y-131513999D02*
X149605819Y-131513999D01*
X149605819Y-131513999D02*
X149748676Y-131609237D01*
X149748676Y-131609237D02*
X149843914Y-131704475D01*
X149843914Y-131704475D02*
X149891533Y-131799713D01*
X146489419Y-105558333D02*
X146441800Y-105510714D01*
X146441800Y-105510714D02*
X146394180Y-105367857D01*
X146394180Y-105367857D02*
X146394180Y-105272619D01*
X146394180Y-105272619D02*
X146441800Y-105129762D01*
X146441800Y-105129762D02*
X146537038Y-105034524D01*
X146537038Y-105034524D02*
X146632276Y-104986905D01*
X146632276Y-104986905D02*
X146822752Y-104939286D01*
X146822752Y-104939286D02*
X146965609Y-104939286D01*
X146965609Y-104939286D02*
X147156085Y-104986905D01*
X147156085Y-104986905D02*
X147251323Y-105034524D01*
X147251323Y-105034524D02*
X147346561Y-105129762D01*
X147346561Y-105129762D02*
X147394180Y-105272619D01*
X147394180Y-105272619D02*
X147394180Y-105367857D01*
X147394180Y-105367857D02*
X147346561Y-105510714D01*
X147346561Y-105510714D02*
X147298942Y-105558333D01*
X146394180Y-106510714D02*
X146394180Y-105939286D01*
X146394180Y-106225000D02*
X147394180Y-106225000D01*
X147394180Y-106225000D02*
X147251323Y-106129762D01*
X147251323Y-106129762D02*
X147156085Y-106034524D01*
X147156085Y-106034524D02*
X147108466Y-105939286D01*
X146489419Y-148992333D02*
X146441800Y-148944714D01*
X146441800Y-148944714D02*
X146394180Y-148801857D01*
X146394180Y-148801857D02*
X146394180Y-148706619D01*
X146394180Y-148706619D02*
X146441800Y-148563762D01*
X146441800Y-148563762D02*
X146537038Y-148468524D01*
X146537038Y-148468524D02*
X146632276Y-148420905D01*
X146632276Y-148420905D02*
X146822752Y-148373286D01*
X146822752Y-148373286D02*
X146965609Y-148373286D01*
X146965609Y-148373286D02*
X147156085Y-148420905D01*
X147156085Y-148420905D02*
X147251323Y-148468524D01*
X147251323Y-148468524D02*
X147346561Y-148563762D01*
X147346561Y-148563762D02*
X147394180Y-148706619D01*
X147394180Y-148706619D02*
X147394180Y-148801857D01*
X147394180Y-148801857D02*
X147346561Y-148944714D01*
X147346561Y-148944714D02*
X147298942Y-148992333D01*
X146394180Y-149944714D02*
X146394180Y-149373286D01*
X146394180Y-149659000D02*
X147394180Y-149659000D01*
X147394180Y-149659000D02*
X147251323Y-149563762D01*
X147251323Y-149563762D02*
X147156085Y-149468524D01*
X147156085Y-149468524D02*
X147108466Y-149373286D01*
X150510580Y-45312666D02*
X150558200Y-45360285D01*
X150558200Y-45360285D02*
X150605819Y-45503142D01*
X150605819Y-45503142D02*
X150605819Y-45598380D01*
X150605819Y-45598380D02*
X150558200Y-45741237D01*
X150558200Y-45741237D02*
X150462961Y-45836475D01*
X150462961Y-45836475D02*
X150367723Y-45884094D01*
X150367723Y-45884094D02*
X150177247Y-45931713D01*
X150177247Y-45931713D02*
X150034390Y-45931713D01*
X150034390Y-45931713D02*
X149843914Y-45884094D01*
X149843914Y-45884094D02*
X149748676Y-45836475D01*
X149748676Y-45836475D02*
X149653438Y-45741237D01*
X149653438Y-45741237D02*
X149605819Y-45598380D01*
X149605819Y-45598380D02*
X149605819Y-45503142D01*
X149605819Y-45503142D02*
X149653438Y-45360285D01*
X149653438Y-45360285D02*
X149701057Y-45312666D01*
X150605819Y-44360285D02*
X150605819Y-44931713D01*
X150605819Y-44645999D02*
X149605819Y-44645999D01*
X149605819Y-44645999D02*
X149748676Y-44741237D01*
X149748676Y-44741237D02*
X149843914Y-44836475D01*
X149843914Y-44836475D02*
X149891533Y-44931713D01*
X145474469Y-89236166D02*
X145051136Y-89532499D01*
X145474469Y-89744166D02*
X144585469Y-89744166D01*
X144585469Y-89744166D02*
X144585469Y-89405499D01*
X144585469Y-89405499D02*
X144627802Y-89320833D01*
X144627802Y-89320833D02*
X144670136Y-89278499D01*
X144670136Y-89278499D02*
X144754802Y-89236166D01*
X144754802Y-89236166D02*
X144881802Y-89236166D01*
X144881802Y-89236166D02*
X144966469Y-89278499D01*
X144966469Y-89278499D02*
X145008802Y-89320833D01*
X145008802Y-89320833D02*
X145051136Y-89405499D01*
X145051136Y-89405499D02*
X145051136Y-89744166D01*
X145474469Y-88389499D02*
X145474469Y-88897499D01*
X145474469Y-88643499D02*
X144585469Y-88643499D01*
X144585469Y-88643499D02*
X144712469Y-88728166D01*
X144712469Y-88728166D02*
X144797136Y-88812833D01*
X144797136Y-88812833D02*
X144839469Y-88897499D01*
X138250180Y-64370666D02*
X137535895Y-64370666D01*
X137535895Y-64370666D02*
X137393038Y-64323047D01*
X137393038Y-64323047D02*
X137297800Y-64227809D01*
X137297800Y-64227809D02*
X137250180Y-64084952D01*
X137250180Y-64084952D02*
X137250180Y-63989714D01*
X137250180Y-65370666D02*
X137250180Y-64799238D01*
X137250180Y-65084952D02*
X138250180Y-65084952D01*
X138250180Y-65084952D02*
X138107323Y-64989714D01*
X138107323Y-64989714D02*
X138012085Y-64894476D01*
X138012085Y-64894476D02*
X137964466Y-64799238D01*
X146394180Y-110130333D02*
X146870371Y-109797000D01*
X146394180Y-109558905D02*
X147394180Y-109558905D01*
X147394180Y-109558905D02*
X147394180Y-109939857D01*
X147394180Y-109939857D02*
X147346561Y-110035095D01*
X147346561Y-110035095D02*
X147298942Y-110082714D01*
X147298942Y-110082714D02*
X147203704Y-110130333D01*
X147203704Y-110130333D02*
X147060847Y-110130333D01*
X147060847Y-110130333D02*
X146965609Y-110082714D01*
X146965609Y-110082714D02*
X146917990Y-110035095D01*
X146917990Y-110035095D02*
X146870371Y-109939857D01*
X146870371Y-109939857D02*
X146870371Y-109558905D01*
X147060847Y-110987476D02*
X146394180Y-110987476D01*
X147441800Y-110749381D02*
X146727514Y-110511286D01*
X146727514Y-110511286D02*
X146727514Y-111130333D01*
X148773864Y-154027333D02*
X148816197Y-153942666D01*
X148816197Y-153942666D02*
X148900864Y-153858000D01*
X148900864Y-153858000D02*
X149027864Y-153731000D01*
X149027864Y-153731000D02*
X149070197Y-153646333D01*
X149070197Y-153646333D02*
X149070197Y-153561666D01*
X148858530Y-153604000D02*
X148900864Y-153519333D01*
X148900864Y-153519333D02*
X148985530Y-153434666D01*
X148985530Y-153434666D02*
X149154864Y-153392333D01*
X149154864Y-153392333D02*
X149451197Y-153392333D01*
X149451197Y-153392333D02*
X149620530Y-153434666D01*
X149620530Y-153434666D02*
X149705197Y-153519333D01*
X149705197Y-153519333D02*
X149747530Y-153604000D01*
X149747530Y-153604000D02*
X149747530Y-153773333D01*
X149747530Y-153773333D02*
X149705197Y-153858000D01*
X149705197Y-153858000D02*
X149620530Y-153942666D01*
X149620530Y-153942666D02*
X149451197Y-153985000D01*
X149451197Y-153985000D02*
X149154864Y-153985000D01*
X149154864Y-153985000D02*
X148985530Y-153942666D01*
X148985530Y-153942666D02*
X148900864Y-153858000D01*
X148900864Y-153858000D02*
X148858530Y-153773333D01*
X148858530Y-153773333D02*
X148858530Y-153604000D01*
X149662864Y-154323666D02*
X149705197Y-154365999D01*
X149705197Y-154365999D02*
X149747530Y-154450666D01*
X149747530Y-154450666D02*
X149747530Y-154662333D01*
X149747530Y-154662333D02*
X149705197Y-154746999D01*
X149705197Y-154746999D02*
X149662864Y-154789333D01*
X149662864Y-154789333D02*
X149578197Y-154831666D01*
X149578197Y-154831666D02*
X149493530Y-154831666D01*
X149493530Y-154831666D02*
X149366530Y-154789333D01*
X149366530Y-154789333D02*
X148858530Y-154281333D01*
X148858530Y-154281333D02*
X148858530Y-154831666D01*
X145474469Y-45802166D02*
X145051136Y-46098499D01*
X145474469Y-46310166D02*
X144585469Y-46310166D01*
X144585469Y-46310166D02*
X144585469Y-45971499D01*
X144585469Y-45971499D02*
X144627802Y-45886833D01*
X144627802Y-45886833D02*
X144670136Y-45844499D01*
X144670136Y-45844499D02*
X144754802Y-45802166D01*
X144754802Y-45802166D02*
X144881802Y-45802166D01*
X144881802Y-45802166D02*
X144966469Y-45844499D01*
X144966469Y-45844499D02*
X145008802Y-45886833D01*
X145008802Y-45886833D02*
X145051136Y-45971499D01*
X145051136Y-45971499D02*
X145051136Y-46310166D01*
X145474469Y-44955499D02*
X145474469Y-45463499D01*
X145474469Y-45209499D02*
X144585469Y-45209499D01*
X144585469Y-45209499D02*
X144712469Y-45294166D01*
X144712469Y-45294166D02*
X144797136Y-45378833D01*
X144797136Y-45378833D02*
X144839469Y-45463499D01*
X150605819Y-129894666D02*
X150129628Y-130227999D01*
X150605819Y-130466094D02*
X149605819Y-130466094D01*
X149605819Y-130466094D02*
X149605819Y-130085142D01*
X149605819Y-130085142D02*
X149653438Y-129989904D01*
X149653438Y-129989904D02*
X149701057Y-129942285D01*
X149701057Y-129942285D02*
X149796295Y-129894666D01*
X149796295Y-129894666D02*
X149939152Y-129894666D01*
X149939152Y-129894666D02*
X150034390Y-129942285D01*
X150034390Y-129942285D02*
X150082009Y-129989904D01*
X150082009Y-129989904D02*
X150129628Y-130085142D01*
X150129628Y-130085142D02*
X150129628Y-130466094D01*
X149701057Y-129513713D02*
X149653438Y-129466094D01*
X149653438Y-129466094D02*
X149605819Y-129370856D01*
X149605819Y-129370856D02*
X149605819Y-129132761D01*
X149605819Y-129132761D02*
X149653438Y-129037523D01*
X149653438Y-129037523D02*
X149701057Y-128989904D01*
X149701057Y-128989904D02*
X149796295Y-128942285D01*
X149796295Y-128942285D02*
X149891533Y-128942285D01*
X149891533Y-128942285D02*
X150034390Y-128989904D01*
X150034390Y-128989904D02*
X150605819Y-129561332D01*
X150605819Y-129561332D02*
X150605819Y-128942285D01*
X146489419Y-62124333D02*
X146441800Y-62076714D01*
X146441800Y-62076714D02*
X146394180Y-61933857D01*
X146394180Y-61933857D02*
X146394180Y-61838619D01*
X146394180Y-61838619D02*
X146441800Y-61695762D01*
X146441800Y-61695762D02*
X146537038Y-61600524D01*
X146537038Y-61600524D02*
X146632276Y-61552905D01*
X146632276Y-61552905D02*
X146822752Y-61505286D01*
X146822752Y-61505286D02*
X146965609Y-61505286D01*
X146965609Y-61505286D02*
X147156085Y-61552905D01*
X147156085Y-61552905D02*
X147251323Y-61600524D01*
X147251323Y-61600524D02*
X147346561Y-61695762D01*
X147346561Y-61695762D02*
X147394180Y-61838619D01*
X147394180Y-61838619D02*
X147394180Y-61933857D01*
X147394180Y-61933857D02*
X147346561Y-62076714D01*
X147346561Y-62076714D02*
X147298942Y-62124333D01*
X146394180Y-63076714D02*
X146394180Y-62505286D01*
X146394180Y-62791000D02*
X147394180Y-62791000D01*
X147394180Y-62791000D02*
X147251323Y-62695762D01*
X147251323Y-62695762D02*
X147156085Y-62600524D01*
X147156085Y-62600524D02*
X147108466Y-62505286D01*
X150605819Y-127608666D02*
X150129628Y-127941999D01*
X150605819Y-128180094D02*
X149605819Y-128180094D01*
X149605819Y-128180094D02*
X149605819Y-127799142D01*
X149605819Y-127799142D02*
X149653438Y-127703904D01*
X149653438Y-127703904D02*
X149701057Y-127656285D01*
X149701057Y-127656285D02*
X149796295Y-127608666D01*
X149796295Y-127608666D02*
X149939152Y-127608666D01*
X149939152Y-127608666D02*
X150034390Y-127656285D01*
X150034390Y-127656285D02*
X150082009Y-127703904D01*
X150082009Y-127703904D02*
X150129628Y-127799142D01*
X150129628Y-127799142D02*
X150129628Y-128180094D01*
X149939152Y-126751523D02*
X150605819Y-126751523D01*
X149558200Y-126989618D02*
X150272485Y-127227713D01*
X150272485Y-127227713D02*
X150272485Y-126608666D01*
X148226136Y-83711666D02*
X148183802Y-83796333D01*
X148183802Y-83796333D02*
X148099136Y-83881000D01*
X148099136Y-83881000D02*
X147972136Y-84008000D01*
X147972136Y-84008000D02*
X147929802Y-84092666D01*
X147929802Y-84092666D02*
X147929802Y-84177333D01*
X148141469Y-84135000D02*
X148099136Y-84219666D01*
X148099136Y-84219666D02*
X148014469Y-84304333D01*
X148014469Y-84304333D02*
X147845136Y-84346666D01*
X147845136Y-84346666D02*
X147548802Y-84346666D01*
X147548802Y-84346666D02*
X147379469Y-84304333D01*
X147379469Y-84304333D02*
X147294802Y-84219666D01*
X147294802Y-84219666D02*
X147252469Y-84135000D01*
X147252469Y-84135000D02*
X147252469Y-83965666D01*
X147252469Y-83965666D02*
X147294802Y-83881000D01*
X147294802Y-83881000D02*
X147379469Y-83796333D01*
X147379469Y-83796333D02*
X147548802Y-83754000D01*
X147548802Y-83754000D02*
X147845136Y-83754000D01*
X147845136Y-83754000D02*
X148014469Y-83796333D01*
X148014469Y-83796333D02*
X148099136Y-83881000D01*
X148099136Y-83881000D02*
X148141469Y-83965666D01*
X148141469Y-83965666D02*
X148141469Y-84135000D01*
X147337136Y-83415333D02*
X147294802Y-83373000D01*
X147294802Y-83373000D02*
X147252469Y-83288333D01*
X147252469Y-83288333D02*
X147252469Y-83076667D01*
X147252469Y-83076667D02*
X147294802Y-82992000D01*
X147294802Y-82992000D02*
X147337136Y-82949667D01*
X147337136Y-82949667D02*
X147421802Y-82907333D01*
X147421802Y-82907333D02*
X147506469Y-82907333D01*
X147506469Y-82907333D02*
X147633469Y-82949667D01*
X147633469Y-82949667D02*
X148141469Y-83457667D01*
X148141469Y-83457667D02*
X148141469Y-82907333D01*
X148773864Y-67159333D02*
X148816197Y-67074666D01*
X148816197Y-67074666D02*
X148900864Y-66990000D01*
X148900864Y-66990000D02*
X149027864Y-66863000D01*
X149027864Y-66863000D02*
X149070197Y-66778333D01*
X149070197Y-66778333D02*
X149070197Y-66693666D01*
X148858530Y-66736000D02*
X148900864Y-66651333D01*
X148900864Y-66651333D02*
X148985530Y-66566666D01*
X148985530Y-66566666D02*
X149154864Y-66524333D01*
X149154864Y-66524333D02*
X149451197Y-66524333D01*
X149451197Y-66524333D02*
X149620530Y-66566666D01*
X149620530Y-66566666D02*
X149705197Y-66651333D01*
X149705197Y-66651333D02*
X149747530Y-66736000D01*
X149747530Y-66736000D02*
X149747530Y-66905333D01*
X149747530Y-66905333D02*
X149705197Y-66990000D01*
X149705197Y-66990000D02*
X149620530Y-67074666D01*
X149620530Y-67074666D02*
X149451197Y-67117000D01*
X149451197Y-67117000D02*
X149154864Y-67117000D01*
X149154864Y-67117000D02*
X148985530Y-67074666D01*
X148985530Y-67074666D02*
X148900864Y-66990000D01*
X148900864Y-66990000D02*
X148858530Y-66905333D01*
X148858530Y-66905333D02*
X148858530Y-66736000D01*
X149662864Y-67455666D02*
X149705197Y-67497999D01*
X149705197Y-67497999D02*
X149747530Y-67582666D01*
X149747530Y-67582666D02*
X149747530Y-67794333D01*
X149747530Y-67794333D02*
X149705197Y-67878999D01*
X149705197Y-67878999D02*
X149662864Y-67921333D01*
X149662864Y-67921333D02*
X149578197Y-67963666D01*
X149578197Y-67963666D02*
X149493530Y-67963666D01*
X149493530Y-67963666D02*
X149366530Y-67921333D01*
X149366530Y-67921333D02*
X148858530Y-67413333D01*
X148858530Y-67413333D02*
X148858530Y-67963666D01*
X146394180Y-66696333D02*
X146870371Y-66363000D01*
X146394180Y-66124905D02*
X147394180Y-66124905D01*
X147394180Y-66124905D02*
X147394180Y-66505857D01*
X147394180Y-66505857D02*
X147346561Y-66601095D01*
X147346561Y-66601095D02*
X147298942Y-66648714D01*
X147298942Y-66648714D02*
X147203704Y-66696333D01*
X147203704Y-66696333D02*
X147060847Y-66696333D01*
X147060847Y-66696333D02*
X146965609Y-66648714D01*
X146965609Y-66648714D02*
X146917990Y-66601095D01*
X146917990Y-66601095D02*
X146870371Y-66505857D01*
X146870371Y-66505857D02*
X146870371Y-66124905D01*
X147060847Y-67553476D02*
X146394180Y-67553476D01*
X147441800Y-67315381D02*
X146727514Y-67077286D01*
X146727514Y-67077286D02*
X146727514Y-67696333D01*
X146394180Y-153564333D02*
X146870371Y-153231000D01*
X146394180Y-152992905D02*
X147394180Y-152992905D01*
X147394180Y-152992905D02*
X147394180Y-153373857D01*
X147394180Y-153373857D02*
X147346561Y-153469095D01*
X147346561Y-153469095D02*
X147298942Y-153516714D01*
X147298942Y-153516714D02*
X147203704Y-153564333D01*
X147203704Y-153564333D02*
X147060847Y-153564333D01*
X147060847Y-153564333D02*
X146965609Y-153516714D01*
X146965609Y-153516714D02*
X146917990Y-153469095D01*
X146917990Y-153469095D02*
X146870371Y-153373857D01*
X146870371Y-153373857D02*
X146870371Y-152992905D01*
X147060847Y-154421476D02*
X146394180Y-154421476D01*
X147441800Y-154183381D02*
X146727514Y-153945286D01*
X146727514Y-153945286D02*
X146727514Y-154564333D01*
X150605819Y-84174666D02*
X150129628Y-84507999D01*
X150605819Y-84746094D02*
X149605819Y-84746094D01*
X149605819Y-84746094D02*
X149605819Y-84365142D01*
X149605819Y-84365142D02*
X149653438Y-84269904D01*
X149653438Y-84269904D02*
X149701057Y-84222285D01*
X149701057Y-84222285D02*
X149796295Y-84174666D01*
X149796295Y-84174666D02*
X149939152Y-84174666D01*
X149939152Y-84174666D02*
X150034390Y-84222285D01*
X150034390Y-84222285D02*
X150082009Y-84269904D01*
X150082009Y-84269904D02*
X150129628Y-84365142D01*
X150129628Y-84365142D02*
X150129628Y-84746094D01*
X149939152Y-83317523D02*
X150605819Y-83317523D01*
X149558200Y-83555618D02*
X150272485Y-83793713D01*
X150272485Y-83793713D02*
X150272485Y-83174666D01*
X151525530Y-148502833D02*
X151948864Y-148206500D01*
X151525530Y-147994833D02*
X152414530Y-147994833D01*
X152414530Y-147994833D02*
X152414530Y-148333500D01*
X152414530Y-148333500D02*
X152372197Y-148418167D01*
X152372197Y-148418167D02*
X152329864Y-148460500D01*
X152329864Y-148460500D02*
X152245197Y-148502833D01*
X152245197Y-148502833D02*
X152118197Y-148502833D01*
X152118197Y-148502833D02*
X152033530Y-148460500D01*
X152033530Y-148460500D02*
X151991197Y-148418167D01*
X151991197Y-148418167D02*
X151948864Y-148333500D01*
X151948864Y-148333500D02*
X151948864Y-147994833D01*
X151525530Y-149349500D02*
X151525530Y-148841500D01*
X151525530Y-149095500D02*
X152414530Y-149095500D01*
X152414530Y-149095500D02*
X152287530Y-149010833D01*
X152287530Y-149010833D02*
X152202864Y-148926167D01*
X152202864Y-148926167D02*
X152160530Y-148841500D01*
X145474469Y-40214166D02*
X145051136Y-40510499D01*
X145474469Y-40722166D02*
X144585469Y-40722166D01*
X144585469Y-40722166D02*
X144585469Y-40383499D01*
X144585469Y-40383499D02*
X144627802Y-40298833D01*
X144627802Y-40298833D02*
X144670136Y-40256499D01*
X144670136Y-40256499D02*
X144754802Y-40214166D01*
X144754802Y-40214166D02*
X144881802Y-40214166D01*
X144881802Y-40214166D02*
X144966469Y-40256499D01*
X144966469Y-40256499D02*
X145008802Y-40298833D01*
X145008802Y-40298833D02*
X145051136Y-40383499D01*
X145051136Y-40383499D02*
X145051136Y-40722166D01*
X144585469Y-39917833D02*
X144585469Y-39367499D01*
X144585469Y-39367499D02*
X144924136Y-39663833D01*
X144924136Y-39663833D02*
X144924136Y-39536833D01*
X144924136Y-39536833D02*
X144966469Y-39452166D01*
X144966469Y-39452166D02*
X145008802Y-39409833D01*
X145008802Y-39409833D02*
X145093469Y-39367499D01*
X145093469Y-39367499D02*
X145305136Y-39367499D01*
X145305136Y-39367499D02*
X145389802Y-39409833D01*
X145389802Y-39409833D02*
X145432136Y-39452166D01*
X145432136Y-39452166D02*
X145474469Y-39536833D01*
X145474469Y-39536833D02*
X145474469Y-39790833D01*
X145474469Y-39790833D02*
X145432136Y-39875499D01*
X145432136Y-39875499D02*
X145389802Y-39917833D01*
X138250180Y-151238666D02*
X137535895Y-151238666D01*
X137535895Y-151238666D02*
X137393038Y-151191047D01*
X137393038Y-151191047D02*
X137297800Y-151095809D01*
X137297800Y-151095809D02*
X137250180Y-150952952D01*
X137250180Y-150952952D02*
X137250180Y-150857714D01*
X137250180Y-152238666D02*
X137250180Y-151667238D01*
X137250180Y-151952952D02*
X138250180Y-151952952D01*
X138250180Y-151952952D02*
X138107323Y-151857714D01*
X138107323Y-151857714D02*
X138012085Y-151762476D01*
X138012085Y-151762476D02*
X137964466Y-151667238D01*
D11*
X144536064Y-63842000D02*
X144081936Y-63842000D01*
X144536064Y-65312000D02*
X144081936Y-65312000D01*
X144536064Y-107276000D02*
X144081936Y-107276000D01*
X144536064Y-108746000D02*
X144081936Y-108746000D01*
X154569064Y-65366000D02*
X154114936Y-65366000D01*
X154569064Y-66836000D02*
X154114936Y-66836000D01*
X154569064Y-108800000D02*
X154114936Y-108800000D01*
X154569064Y-110270000D02*
X154114936Y-110270000D01*
X142430936Y-84035000D02*
X142885064Y-84035000D01*
X142430936Y-85505000D02*
X142885064Y-85505000D01*
X135147000Y-106071000D02*
X135147000Y-109951000D01*
X137117000Y-104901000D02*
X139617000Y-104901000D01*
X137117000Y-111121000D02*
X139617000Y-111121000D01*
X139617000Y-104901000D02*
X139617000Y-105951000D01*
X139617000Y-105951000D02*
X140607000Y-105951000D01*
X139617000Y-111121000D02*
X139617000Y-110071000D01*
X157383000Y-83184000D02*
X157383000Y-84234000D01*
X157383000Y-88354000D02*
X156393000Y-88354000D01*
X157383000Y-89404000D02*
X157383000Y-88354000D01*
X159883000Y-83184000D02*
X157383000Y-83184000D01*
X159883000Y-89404000D02*
X157383000Y-89404000D01*
X161853000Y-88234000D02*
X161853000Y-84354000D01*
X149770000Y-106451000D02*
X147970000Y-106451000D01*
X149770000Y-106451000D02*
X150570000Y-106451000D01*
X149770000Y-109571000D02*
X148970000Y-109571000D01*
X149770000Y-109571000D02*
X150570000Y-109571000D01*
X142430936Y-127469000D02*
X142885064Y-127469000D01*
X142430936Y-128939000D02*
X142885064Y-128939000D01*
X157383000Y-39750000D02*
X157383000Y-40800000D01*
X157383000Y-44920000D02*
X156393000Y-44920000D01*
X157383000Y-45970000D02*
X157383000Y-44920000D01*
X159883000Y-39750000D02*
X157383000Y-39750000D01*
X159883000Y-45970000D02*
X157383000Y-45970000D01*
X161853000Y-44800000D02*
X161853000Y-40920000D01*
X144536064Y-150710000D02*
X144081936Y-150710000D01*
X144536064Y-152180000D02*
X144081936Y-152180000D01*
X152429748Y-87845000D02*
X152952252Y-87845000D01*
X152429748Y-89315000D02*
X152952252Y-89315000D01*
X152463936Y-42125000D02*
X152918064Y-42125000D01*
X152463936Y-43595000D02*
X152918064Y-43595000D01*
X157383000Y-126618000D02*
X157383000Y-127668000D01*
X157383000Y-131788000D02*
X156393000Y-131788000D01*
X157383000Y-132838000D02*
X157383000Y-131788000D01*
X159883000Y-126618000D02*
X157383000Y-126618000D01*
X159883000Y-132838000D02*
X157383000Y-132838000D01*
X161853000Y-131668000D02*
X161853000Y-127788000D01*
X147230000Y-128168000D02*
X146430000Y-128168000D01*
X147230000Y-128168000D02*
X148030000Y-128168000D01*
X147230000Y-131288000D02*
X146430000Y-131288000D01*
X147230000Y-131288000D02*
X149030000Y-131288000D01*
X152463936Y-85559000D02*
X152918064Y-85559000D01*
X152463936Y-87029000D02*
X152918064Y-87029000D01*
X154114936Y-105752000D02*
X154569064Y-105752000D01*
X154114936Y-107222000D02*
X154569064Y-107222000D01*
X154569064Y-152234000D02*
X154114936Y-152234000D01*
X154569064Y-153704000D02*
X154114936Y-153704000D01*
X142885064Y-130517000D02*
X142430936Y-130517000D01*
X142885064Y-131987000D02*
X142430936Y-131987000D01*
X154114936Y-62318000D02*
X154569064Y-62318000D01*
X154114936Y-63788000D02*
X154569064Y-63788000D01*
X147230000Y-41300000D02*
X146430000Y-41300000D01*
X147230000Y-41300000D02*
X148030000Y-41300000D01*
X147230000Y-44420000D02*
X146430000Y-44420000D01*
X147230000Y-44420000D02*
X149030000Y-44420000D01*
X152918064Y-39839000D02*
X152463936Y-39839000D01*
X152918064Y-41309000D02*
X152463936Y-41309000D01*
X152429748Y-131279000D02*
X152952252Y-131279000D01*
X152429748Y-132749000D02*
X152952252Y-132749000D01*
X144570252Y-104990000D02*
X144047748Y-104990000D01*
X144570252Y-106460000D02*
X144047748Y-106460000D01*
X144570252Y-148424000D02*
X144047748Y-148424000D01*
X144570252Y-149894000D02*
X144047748Y-149894000D01*
X152429748Y-44411000D02*
X152952252Y-44411000D01*
X152429748Y-45881000D02*
X152952252Y-45881000D01*
X142885064Y-87083000D02*
X142430936Y-87083000D01*
X142885064Y-88553000D02*
X142430936Y-88553000D01*
X135147000Y-62637000D02*
X135147000Y-66517000D01*
X137117000Y-61467000D02*
X139617000Y-61467000D01*
X137117000Y-67687000D02*
X139617000Y-67687000D01*
X139617000Y-61467000D02*
X139617000Y-62517000D01*
X139617000Y-62517000D02*
X140607000Y-62517000D01*
X139617000Y-67687000D02*
X139617000Y-66637000D01*
X144081936Y-109562000D02*
X144536064Y-109562000D01*
X144081936Y-111032000D02*
X144536064Y-111032000D01*
X149770000Y-149885000D02*
X147970000Y-149885000D01*
X149770000Y-149885000D02*
X150570000Y-149885000D01*
X149770000Y-153005000D02*
X148970000Y-153005000D01*
X149770000Y-153005000D02*
X150570000Y-153005000D01*
X142885064Y-43649000D02*
X142430936Y-43649000D01*
X142885064Y-45119000D02*
X142430936Y-45119000D01*
X152463936Y-128993000D02*
X152918064Y-128993000D01*
X152463936Y-130463000D02*
X152918064Y-130463000D01*
X144570252Y-61556000D02*
X144047748Y-61556000D01*
X144570252Y-63026000D02*
X144047748Y-63026000D01*
X152918064Y-126707000D02*
X152463936Y-126707000D01*
X152918064Y-128177000D02*
X152463936Y-128177000D01*
X147230000Y-84734000D02*
X146430000Y-84734000D01*
X147230000Y-84734000D02*
X148030000Y-84734000D01*
X147230000Y-87854000D02*
X146430000Y-87854000D01*
X147230000Y-87854000D02*
X149030000Y-87854000D01*
X149770000Y-63017000D02*
X147970000Y-63017000D01*
X149770000Y-63017000D02*
X150570000Y-63017000D01*
X149770000Y-66137000D02*
X148970000Y-66137000D01*
X149770000Y-66137000D02*
X150570000Y-66137000D01*
X144081936Y-66128000D02*
X144536064Y-66128000D01*
X144081936Y-67598000D02*
X144536064Y-67598000D01*
X144081936Y-152996000D02*
X144536064Y-152996000D01*
X144081936Y-154466000D02*
X144536064Y-154466000D01*
X152918064Y-83273000D02*
X152463936Y-83273000D01*
X152918064Y-84743000D02*
X152463936Y-84743000D01*
X154114936Y-149186000D02*
X154569064Y-149186000D01*
X154114936Y-150656000D02*
X154569064Y-150656000D01*
X142430936Y-40601000D02*
X142885064Y-40601000D01*
X142430936Y-42071000D02*
X142885064Y-42071000D01*
X135147000Y-149505000D02*
X135147000Y-153385000D01*
X137117000Y-148335000D02*
X139617000Y-148335000D01*
X137117000Y-154555000D02*
X139617000Y-154555000D01*
X139617000Y-148335000D02*
X139617000Y-149385000D01*
X139617000Y-149385000D02*
X140607000Y-149385000D01*
X139617000Y-154555000D02*
X139617000Y-153505000D01*
M02*
