G04 #@! TF.GenerationSoftware,KiCad,Pcbnew,9.0.9-9.0.9~ubuntu24.04.1*
G04 #@! TF.CreationDate,2026-08-31T17:21:49-06:00*
G04 #@! TF.ProjectId,ckt-axle-bar-array,636b742d-6178-46c6-952d-6261722d6172,rev?*
G04 #@! TF.SameCoordinates,Original*
G04 #@! TF.FileFunction,Soldermask,Top*
G04 #@! TF.FilePolarity,Negative*
%FSLAX46Y46*%
G04 Gerber Fmt 4.6, Leading zero omitted, Abs format (unit mm)*
G04 Created by KiCad (PCBNEW 9.0.9-9.0.9~ubuntu24.04.1) date 2026-08-31 17:21:49*
%MOMM*%
%LPD*%
G01*
G04 APERTURE LIST*
%ADD10C,0.500000*%
%ADD11C,2.000000*%
G04 APERTURE END LIST*
G36*
G01*
X145810200Y-64087970D02*
X145810200Y-65066030D01*
G75*
G02*
X145523030Y-65353200I-287170J0D01*
G01*
X144919970Y-65353200D01*
G75*
G02*
X144632800Y-65066030I0J287170D01*
G01*
X144632800Y-64087970D01*
G75*
G02*
X144919970Y-63800800I287170J0D01*
G01*
X145523030Y-63800800D01*
G75*
G02*
X145810200Y-64087970I0J-287170D01*
G01*
G37*
G36*
G01*
X143985200Y-64087970D02*
X143985200Y-65066030D01*
G75*
G02*
X143698030Y-65353200I-287170J0D01*
G01*
X143094970Y-65353200D01*
G75*
G02*
X142807800Y-65066030I0J287170D01*
G01*
X142807800Y-64087970D01*
G75*
G02*
X143094970Y-63800800I287170J0D01*
G01*
X143698030Y-63800800D01*
G75*
G02*
X143985200Y-64087970I0J-287170D01*
G01*
G37*
G36*
G01*
X160529280Y-136643800D02*
X161870720Y-136643800D01*
G75*
G02*
X162151200Y-136924280I0J-280480D01*
G01*
X162151200Y-137765720D01*
G75*
G02*
X161870720Y-138046200I-280480J0D01*
G01*
X160529280Y-138046200D01*
G75*
G02*
X160248800Y-137765720I0J280480D01*
G01*
X160248800Y-136924280D01*
G75*
G02*
X160529280Y-136643800I280480J0D01*
G01*
G37*
G36*
G01*
X160529280Y-139443800D02*
X161870720Y-139443800D01*
G75*
G02*
X162151200Y-139724280I0J-280480D01*
G01*
X162151200Y-140565720D01*
G75*
G02*
X161870720Y-140846200I-280480J0D01*
G01*
X160529280Y-140846200D01*
G75*
G02*
X160248800Y-140565720I0J280480D01*
G01*
X160248800Y-139724280D01*
G75*
G02*
X160529280Y-139443800I280480J0D01*
G01*
G37*
G36*
G01*
X145810200Y-107521970D02*
X145810200Y-108500030D01*
G75*
G02*
X145523030Y-108787200I-287170J0D01*
G01*
X144919970Y-108787200D01*
G75*
G02*
X144632800Y-108500030I0J287170D01*
G01*
X144632800Y-107521970D01*
G75*
G02*
X144919970Y-107234800I287170J0D01*
G01*
X145523030Y-107234800D01*
G75*
G02*
X145810200Y-107521970I0J-287170D01*
G01*
G37*
G36*
G01*
X143985200Y-107521970D02*
X143985200Y-108500030D01*
G75*
G02*
X143698030Y-108787200I-287170J0D01*
G01*
X143094970Y-108787200D01*
G75*
G02*
X142807800Y-108500030I0J287170D01*
G01*
X142807800Y-107521970D01*
G75*
G02*
X143094970Y-107234800I287170J0D01*
G01*
X143698030Y-107234800D01*
G75*
G02*
X143985200Y-107521970I0J-287170D01*
G01*
G37*
G36*
G01*
X161870720Y-166246200D02*
X160529280Y-166246200D01*
G75*
G02*
X160248800Y-165965720I0J280480D01*
G01*
X160248800Y-165124280D01*
G75*
G02*
X160529280Y-164843800I280480J0D01*
G01*
X161870720Y-164843800D01*
G75*
G02*
X162151200Y-165124280I0J-280480D01*
G01*
X162151200Y-165965720D01*
G75*
G02*
X161870720Y-166246200I-280480J0D01*
G01*
G37*
G36*
G01*
X161870720Y-163446200D02*
X160529280Y-163446200D01*
G75*
G02*
X160248800Y-163165720I0J280480D01*
G01*
X160248800Y-162324280D01*
G75*
G02*
X160529280Y-162043800I280480J0D01*
G01*
X161870720Y-162043800D01*
G75*
G02*
X162151200Y-162324280I0J-280480D01*
G01*
X162151200Y-163165720D01*
G75*
G02*
X161870720Y-163446200I-280480J0D01*
G01*
G37*
D10*
X134530000Y-106511000D03*
G36*
G01*
X155843200Y-65611970D02*
X155843200Y-66590030D01*
G75*
G02*
X155556030Y-66877200I-287170J0D01*
G01*
X154952970Y-66877200D01*
G75*
G02*
X154665800Y-66590030I0J287170D01*
G01*
X154665800Y-65611970D01*
G75*
G02*
X154952970Y-65324800I287170J0D01*
G01*
X155556030Y-65324800D01*
G75*
G02*
X155843200Y-65611970I0J-287170D01*
G01*
G37*
G36*
G01*
X154018200Y-65611970D02*
X154018200Y-66590030D01*
G75*
G02*
X153731030Y-66877200I-287170J0D01*
G01*
X153127970Y-66877200D01*
G75*
G02*
X152840800Y-66590030I0J287170D01*
G01*
X152840800Y-65611970D01*
G75*
G02*
X153127970Y-65324800I287170J0D01*
G01*
X153731030Y-65324800D01*
G75*
G02*
X154018200Y-65611970I0J-287170D01*
G01*
G37*
G36*
G01*
X135129280Y-71492800D02*
X136470720Y-71492800D01*
G75*
G02*
X136751200Y-71773280I0J-280480D01*
G01*
X136751200Y-72614720D01*
G75*
G02*
X136470720Y-72895200I-280480J0D01*
G01*
X135129280Y-72895200D01*
G75*
G02*
X134848800Y-72614720I0J280480D01*
G01*
X134848800Y-71773280D01*
G75*
G02*
X135129280Y-71492800I280480J0D01*
G01*
G37*
G36*
G01*
X135129280Y-74292800D02*
X136470720Y-74292800D01*
G75*
G02*
X136751200Y-74573280I0J-280480D01*
G01*
X136751200Y-75414720D01*
G75*
G02*
X136470720Y-75695200I-280480J0D01*
G01*
X135129280Y-75695200D01*
G75*
G02*
X134848800Y-75414720I0J280480D01*
G01*
X134848800Y-74573280D01*
G75*
G02*
X135129280Y-74292800I280480J0D01*
G01*
G37*
X162470000Y-84794000D03*
G36*
G01*
X136470720Y-101095200D02*
X135129280Y-101095200D01*
G75*
G02*
X134848800Y-100814720I0J280480D01*
G01*
X134848800Y-99973280D01*
G75*
G02*
X135129280Y-99692800I280480J0D01*
G01*
X136470720Y-99692800D01*
G75*
G02*
X136751200Y-99973280I0J-280480D01*
G01*
X136751200Y-100814720D01*
G75*
G02*
X136470720Y-101095200I-280480J0D01*
G01*
G37*
G36*
G01*
X136470720Y-98295200D02*
X135129280Y-98295200D01*
G75*
G02*
X134848800Y-98014720I0J280480D01*
G01*
X134848800Y-97173280D01*
G75*
G02*
X135129280Y-96892800I280480J0D01*
G01*
X136470720Y-96892800D01*
G75*
G02*
X136751200Y-97173280I0J-280480D01*
G01*
X136751200Y-98014720D01*
G75*
G02*
X136470720Y-98295200I-280480J0D01*
G01*
G37*
D11*
X167550000Y-27620000D03*
G36*
G01*
X155843200Y-109045970D02*
X155843200Y-110024030D01*
G75*
G02*
X155556030Y-110311200I-287170J0D01*
G01*
X154952970Y-110311200D01*
G75*
G02*
X154665800Y-110024030I0J287170D01*
G01*
X154665800Y-109045970D01*
G75*
G02*
X154952970Y-108758800I287170J0D01*
G01*
X155556030Y-108758800D01*
G75*
G02*
X155843200Y-109045970I0J-287170D01*
G01*
G37*
G36*
G01*
X154018200Y-109045970D02*
X154018200Y-110024030D01*
G75*
G02*
X153731030Y-110311200I-287170J0D01*
G01*
X153127970Y-110311200D01*
G75*
G02*
X152840800Y-110024030I0J287170D01*
G01*
X152840800Y-109045970D01*
G75*
G02*
X153127970Y-108758800I287170J0D01*
G01*
X153731030Y-108758800D01*
G75*
G02*
X154018200Y-109045970I0J-287170D01*
G01*
G37*
G36*
G01*
X141156800Y-85259030D02*
X141156800Y-84280970D01*
G75*
G02*
X141443970Y-83993800I287170J0D01*
G01*
X142047030Y-83993800D01*
G75*
G02*
X142334200Y-84280970I0J-287170D01*
G01*
X142334200Y-85259030D01*
G75*
G02*
X142047030Y-85546200I-287170J0D01*
G01*
X141443970Y-85546200D01*
G75*
G02*
X141156800Y-85259030I0J287170D01*
G01*
G37*
G36*
G01*
X142981800Y-85259030D02*
X142981800Y-84280970D01*
G75*
G02*
X143268970Y-83993800I287170J0D01*
G01*
X143872030Y-83993800D01*
G75*
G02*
X144159200Y-84280970I0J-287170D01*
G01*
X144159200Y-85259030D01*
G75*
G02*
X143872030Y-85546200I-287170J0D01*
G01*
X143268970Y-85546200D01*
G75*
G02*
X142981800Y-85259030I0J287170D01*
G01*
G37*
G36*
G01*
X139168900Y-106134800D02*
X140495100Y-106134800D01*
G75*
G02*
X140683200Y-106322900I0J-188100D01*
G01*
X140683200Y-106699100D01*
G75*
G02*
X140495100Y-106887200I-188100J0D01*
G01*
X139168900Y-106887200D01*
G75*
G02*
X138980800Y-106699100I0J188100D01*
G01*
X138980800Y-106322900D01*
G75*
G02*
X139168900Y-106134800I188100J0D01*
G01*
G37*
G36*
G01*
X139168900Y-107134800D02*
X140495100Y-107134800D01*
G75*
G02*
X140683200Y-107322900I0J-188100D01*
G01*
X140683200Y-107699100D01*
G75*
G02*
X140495100Y-107887200I-188100J0D01*
G01*
X139168900Y-107887200D01*
G75*
G02*
X138980800Y-107699100I0J188100D01*
G01*
X138980800Y-107322900D01*
G75*
G02*
X139168900Y-107134800I188100J0D01*
G01*
G37*
G36*
G01*
X139168900Y-108134800D02*
X140495100Y-108134800D01*
G75*
G02*
X140683200Y-108322900I0J-188100D01*
G01*
X140683200Y-108699100D01*
G75*
G02*
X140495100Y-108887200I-188100J0D01*
G01*
X139168900Y-108887200D01*
G75*
G02*
X138980800Y-108699100I0J188100D01*
G01*
X138980800Y-108322900D01*
G75*
G02*
X139168900Y-108134800I188100J0D01*
G01*
G37*
G36*
G01*
X139168900Y-109134800D02*
X140495100Y-109134800D01*
G75*
G02*
X140683200Y-109322900I0J-188100D01*
G01*
X140683200Y-109699100D01*
G75*
G02*
X140495100Y-109887200I-188100J0D01*
G01*
X139168900Y-109887200D01*
G75*
G02*
X138980800Y-109699100I0J188100D01*
G01*
X138980800Y-109322900D01*
G75*
G02*
X139168900Y-109134800I188100J0D01*
G01*
G37*
G36*
G01*
X135262550Y-104534800D02*
X136651450Y-104534800D01*
G75*
G02*
X136933200Y-104816550I0J-281750D01*
G01*
X136933200Y-105605450D01*
G75*
G02*
X136651450Y-105887200I-281750J0D01*
G01*
X135262550Y-105887200D01*
G75*
G02*
X134980800Y-105605450I0J281750D01*
G01*
X134980800Y-104816550D01*
G75*
G02*
X135262550Y-104534800I281750J0D01*
G01*
G37*
G36*
G01*
X135262550Y-110134800D02*
X136651450Y-110134800D01*
G75*
G02*
X136933200Y-110416550I0J-281750D01*
G01*
X136933200Y-111205450D01*
G75*
G02*
X136651450Y-111487200I-281750J0D01*
G01*
X135262550Y-111487200D01*
G75*
G02*
X134980800Y-111205450I0J281750D01*
G01*
X134980800Y-110416550D01*
G75*
G02*
X135262550Y-110134800I281750J0D01*
G01*
G37*
G36*
G01*
X136470720Y-144529200D02*
X135129280Y-144529200D01*
G75*
G02*
X134848800Y-144248720I0J280480D01*
G01*
X134848800Y-143407280D01*
G75*
G02*
X135129280Y-143126800I280480J0D01*
G01*
X136470720Y-143126800D01*
G75*
G02*
X136751200Y-143407280I0J-280480D01*
G01*
X136751200Y-144248720D01*
G75*
G02*
X136470720Y-144529200I-280480J0D01*
G01*
G37*
G36*
G01*
X136470720Y-141729200D02*
X135129280Y-141729200D01*
G75*
G02*
X134848800Y-141448720I0J280480D01*
G01*
X134848800Y-140607280D01*
G75*
G02*
X135129280Y-140326800I280480J0D01*
G01*
X136470720Y-140326800D01*
G75*
G02*
X136751200Y-140607280I0J-280480D01*
G01*
X136751200Y-141448720D01*
G75*
G02*
X136470720Y-141729200I-280480J0D01*
G01*
G37*
D10*
X162470000Y-129228000D03*
G36*
G01*
X157831100Y-88170200D02*
X156504900Y-88170200D01*
G75*
G02*
X156316800Y-87982100I0J188100D01*
G01*
X156316800Y-87605900D01*
G75*
G02*
X156504900Y-87417800I188100J0D01*
G01*
X157831100Y-87417800D01*
G75*
G02*
X158019200Y-87605900I0J-188100D01*
G01*
X158019200Y-87982100D01*
G75*
G02*
X157831100Y-88170200I-188100J0D01*
G01*
G37*
G36*
G01*
X157831100Y-87170200D02*
X156504900Y-87170200D01*
G75*
G02*
X156316800Y-86982100I0J188100D01*
G01*
X156316800Y-86605900D01*
G75*
G02*
X156504900Y-86417800I188100J0D01*
G01*
X157831100Y-86417800D01*
G75*
G02*
X158019200Y-86605900I0J-188100D01*
G01*
X158019200Y-86982100D01*
G75*
G02*
X157831100Y-87170200I-188100J0D01*
G01*
G37*
G36*
G01*
X157831100Y-86170200D02*
X156504900Y-86170200D01*
G75*
G02*
X156316800Y-85982100I0J188100D01*
G01*
X156316800Y-85605900D01*
G75*
G02*
X156504900Y-85417800I188100J0D01*
G01*
X157831100Y-85417800D01*
G75*
G02*
X158019200Y-85605900I0J-188100D01*
G01*
X158019200Y-85982100D01*
G75*
G02*
X157831100Y-86170200I-188100J0D01*
G01*
G37*
G36*
G01*
X157831100Y-85170200D02*
X156504900Y-85170200D01*
G75*
G02*
X156316800Y-84982100I0J188100D01*
G01*
X156316800Y-84605900D01*
G75*
G02*
X156504900Y-84417800I188100J0D01*
G01*
X157831100Y-84417800D01*
G75*
G02*
X158019200Y-84605900I0J-188100D01*
G01*
X158019200Y-84982100D01*
G75*
G02*
X157831100Y-85170200I-188100J0D01*
G01*
G37*
G36*
G01*
X161737450Y-89770200D02*
X160348550Y-89770200D01*
G75*
G02*
X160066800Y-89488450I0J281750D01*
G01*
X160066800Y-88699550D01*
G75*
G02*
X160348550Y-88417800I281750J0D01*
G01*
X161737450Y-88417800D01*
G75*
G02*
X162019200Y-88699550I0J-281750D01*
G01*
X162019200Y-89488450D01*
G75*
G02*
X161737450Y-89770200I-281750J0D01*
G01*
G37*
G36*
G01*
X161737450Y-84170200D02*
X160348550Y-84170200D01*
G75*
G02*
X160066800Y-83888450I0J281750D01*
G01*
X160066800Y-83099550D01*
G75*
G02*
X160348550Y-82817800I281750J0D01*
G01*
X161737450Y-82817800D01*
G75*
G02*
X162019200Y-83099550I0J-281750D01*
G01*
X162019200Y-83888450D01*
G75*
G02*
X161737450Y-84170200I-281750J0D01*
G01*
G37*
G36*
G01*
X148093800Y-107254100D02*
X148093800Y-106867900D01*
G75*
G02*
X148286900Y-106674800I193100J0D01*
G01*
X148753100Y-106674800D01*
G75*
G02*
X148946200Y-106867900I0J-193100D01*
G01*
X148946200Y-107254100D01*
G75*
G02*
X148753100Y-107447200I-193100J0D01*
G01*
X148286900Y-107447200D01*
G75*
G02*
X148093800Y-107254100I0J193100D01*
G01*
G37*
G36*
G01*
X148093800Y-108204100D02*
X148093800Y-107817900D01*
G75*
G02*
X148286900Y-107624800I193100J0D01*
G01*
X148753100Y-107624800D01*
G75*
G02*
X148946200Y-107817900I0J-193100D01*
G01*
X148946200Y-108204100D01*
G75*
G02*
X148753100Y-108397200I-193100J0D01*
G01*
X148286900Y-108397200D01*
G75*
G02*
X148093800Y-108204100I0J193100D01*
G01*
G37*
G36*
G01*
X148093800Y-109154100D02*
X148093800Y-108767900D01*
G75*
G02*
X148286900Y-108574800I193100J0D01*
G01*
X148753100Y-108574800D01*
G75*
G02*
X148946200Y-108767900I0J-193100D01*
G01*
X148946200Y-109154100D01*
G75*
G02*
X148753100Y-109347200I-193100J0D01*
G01*
X148286900Y-109347200D01*
G75*
G02*
X148093800Y-109154100I0J193100D01*
G01*
G37*
G36*
G01*
X150593800Y-109154100D02*
X150593800Y-108767900D01*
G75*
G02*
X150786900Y-108574800I193100J0D01*
G01*
X151253100Y-108574800D01*
G75*
G02*
X151446200Y-108767900I0J-193100D01*
G01*
X151446200Y-109154100D01*
G75*
G02*
X151253100Y-109347200I-193100J0D01*
G01*
X150786900Y-109347200D01*
G75*
G02*
X150593800Y-109154100I0J193100D01*
G01*
G37*
G36*
G01*
X150593800Y-108204100D02*
X150593800Y-107817900D01*
G75*
G02*
X150786900Y-107624800I193100J0D01*
G01*
X151253100Y-107624800D01*
G75*
G02*
X151446200Y-107817900I0J-193100D01*
G01*
X151446200Y-108204100D01*
G75*
G02*
X151253100Y-108397200I-193100J0D01*
G01*
X150786900Y-108397200D01*
G75*
G02*
X150593800Y-108204100I0J193100D01*
G01*
G37*
G36*
G01*
X150593800Y-107254100D02*
X150593800Y-106867900D01*
G75*
G02*
X150786900Y-106674800I193100J0D01*
G01*
X151253100Y-106674800D01*
G75*
G02*
X151446200Y-106867900I0J-193100D01*
G01*
X151446200Y-107254100D01*
G75*
G02*
X151253100Y-107447200I-193100J0D01*
G01*
X150786900Y-107447200D01*
G75*
G02*
X150593800Y-107254100I0J193100D01*
G01*
G37*
G36*
G01*
X141156800Y-128693030D02*
X141156800Y-127714970D01*
G75*
G02*
X141443970Y-127427800I287170J0D01*
G01*
X142047030Y-127427800D01*
G75*
G02*
X142334200Y-127714970I0J-287170D01*
G01*
X142334200Y-128693030D01*
G75*
G02*
X142047030Y-128980200I-287170J0D01*
G01*
X141443970Y-128980200D01*
G75*
G02*
X141156800Y-128693030I0J287170D01*
G01*
G37*
G36*
G01*
X142981800Y-128693030D02*
X142981800Y-127714970D01*
G75*
G02*
X143268970Y-127427800I287170J0D01*
G01*
X143872030Y-127427800D01*
G75*
G02*
X144159200Y-127714970I0J-287170D01*
G01*
X144159200Y-128693030D01*
G75*
G02*
X143872030Y-128980200I-287170J0D01*
G01*
X143268970Y-128980200D01*
G75*
G02*
X142981800Y-128693030I0J287170D01*
G01*
G37*
X162470000Y-43360000D03*
D11*
X129450000Y-27620000D03*
G36*
G01*
X136470720Y-57661200D02*
X135129280Y-57661200D01*
G75*
G02*
X134848800Y-57380720I0J280480D01*
G01*
X134848800Y-56539280D01*
G75*
G02*
X135129280Y-56258800I280480J0D01*
G01*
X136470720Y-56258800D01*
G75*
G02*
X136751200Y-56539280I0J-280480D01*
G01*
X136751200Y-57380720D01*
G75*
G02*
X136470720Y-57661200I-280480J0D01*
G01*
G37*
G36*
G01*
X136470720Y-54861200D02*
X135129280Y-54861200D01*
G75*
G02*
X134848800Y-54580720I0J280480D01*
G01*
X134848800Y-53739280D01*
G75*
G02*
X135129280Y-53458800I280480J0D01*
G01*
X136470720Y-53458800D01*
G75*
G02*
X136751200Y-53739280I0J-280480D01*
G01*
X136751200Y-54580720D01*
G75*
G02*
X136470720Y-54861200I-280480J0D01*
G01*
G37*
D10*
X134530000Y-65077000D03*
G36*
G01*
X157831100Y-44736200D02*
X156504900Y-44736200D01*
G75*
G02*
X156316800Y-44548100I0J188100D01*
G01*
X156316800Y-44171900D01*
G75*
G02*
X156504900Y-43983800I188100J0D01*
G01*
X157831100Y-43983800D01*
G75*
G02*
X158019200Y-44171900I0J-188100D01*
G01*
X158019200Y-44548100D01*
G75*
G02*
X157831100Y-44736200I-188100J0D01*
G01*
G37*
G36*
G01*
X157831100Y-43736200D02*
X156504900Y-43736200D01*
G75*
G02*
X156316800Y-43548100I0J188100D01*
G01*
X156316800Y-43171900D01*
G75*
G02*
X156504900Y-42983800I188100J0D01*
G01*
X157831100Y-42983800D01*
G75*
G02*
X158019200Y-43171900I0J-188100D01*
G01*
X158019200Y-43548100D01*
G75*
G02*
X157831100Y-43736200I-188100J0D01*
G01*
G37*
G36*
G01*
X157831100Y-42736200D02*
X156504900Y-42736200D01*
G75*
G02*
X156316800Y-42548100I0J188100D01*
G01*
X156316800Y-42171900D01*
G75*
G02*
X156504900Y-41983800I188100J0D01*
G01*
X157831100Y-41983800D01*
G75*
G02*
X158019200Y-42171900I0J-188100D01*
G01*
X158019200Y-42548100D01*
G75*
G02*
X157831100Y-42736200I-188100J0D01*
G01*
G37*
G36*
G01*
X157831100Y-41736200D02*
X156504900Y-41736200D01*
G75*
G02*
X156316800Y-41548100I0J188100D01*
G01*
X156316800Y-41171900D01*
G75*
G02*
X156504900Y-40983800I188100J0D01*
G01*
X157831100Y-40983800D01*
G75*
G02*
X158019200Y-41171900I0J-188100D01*
G01*
X158019200Y-41548100D01*
G75*
G02*
X157831100Y-41736200I-188100J0D01*
G01*
G37*
G36*
G01*
X161737450Y-46336200D02*
X160348550Y-46336200D01*
G75*
G02*
X160066800Y-46054450I0J281750D01*
G01*
X160066800Y-45265550D01*
G75*
G02*
X160348550Y-44983800I281750J0D01*
G01*
X161737450Y-44983800D01*
G75*
G02*
X162019200Y-45265550I0J-281750D01*
G01*
X162019200Y-46054450D01*
G75*
G02*
X161737450Y-46336200I-281750J0D01*
G01*
G37*
G36*
G01*
X161737450Y-40736200D02*
X160348550Y-40736200D01*
G75*
G02*
X160066800Y-40454450I0J281750D01*
G01*
X160066800Y-39665550D01*
G75*
G02*
X160348550Y-39383800I281750J0D01*
G01*
X161737450Y-39383800D01*
G75*
G02*
X162019200Y-39665550I0J-281750D01*
G01*
X162019200Y-40454450D01*
G75*
G02*
X161737450Y-40736200I-281750J0D01*
G01*
G37*
X134530000Y-150945000D03*
X162470000Y-130228000D03*
G36*
G01*
X135129280Y-114926800D02*
X136470720Y-114926800D01*
G75*
G02*
X136751200Y-115207280I0J-280480D01*
G01*
X136751200Y-116048720D01*
G75*
G02*
X136470720Y-116329200I-280480J0D01*
G01*
X135129280Y-116329200D01*
G75*
G02*
X134848800Y-116048720I0J280480D01*
G01*
X134848800Y-115207280D01*
G75*
G02*
X135129280Y-114926800I280480J0D01*
G01*
G37*
G36*
G01*
X135129280Y-117726800D02*
X136470720Y-117726800D01*
G75*
G02*
X136751200Y-118007280I0J-280480D01*
G01*
X136751200Y-118848720D01*
G75*
G02*
X136470720Y-119129200I-280480J0D01*
G01*
X135129280Y-119129200D01*
G75*
G02*
X134848800Y-118848720I0J280480D01*
G01*
X134848800Y-118007280D01*
G75*
G02*
X135129280Y-117726800I280480J0D01*
G01*
G37*
G36*
G01*
X160529280Y-93209800D02*
X161870720Y-93209800D01*
G75*
G02*
X162151200Y-93490280I0J-280480D01*
G01*
X162151200Y-94331720D01*
G75*
G02*
X161870720Y-94612200I-280480J0D01*
G01*
X160529280Y-94612200D01*
G75*
G02*
X160248800Y-94331720I0J280480D01*
G01*
X160248800Y-93490280D01*
G75*
G02*
X160529280Y-93209800I280480J0D01*
G01*
G37*
G36*
G01*
X160529280Y-96009800D02*
X161870720Y-96009800D01*
G75*
G02*
X162151200Y-96290280I0J-280480D01*
G01*
X162151200Y-97131720D01*
G75*
G02*
X161870720Y-97412200I-280480J0D01*
G01*
X160529280Y-97412200D01*
G75*
G02*
X160248800Y-97131720I0J280480D01*
G01*
X160248800Y-96290280D01*
G75*
G02*
X160529280Y-96009800I280480J0D01*
G01*
G37*
G36*
G01*
X145810200Y-150955970D02*
X145810200Y-151934030D01*
G75*
G02*
X145523030Y-152221200I-287170J0D01*
G01*
X144919970Y-152221200D01*
G75*
G02*
X144632800Y-151934030I0J287170D01*
G01*
X144632800Y-150955970D01*
G75*
G02*
X144919970Y-150668800I287170J0D01*
G01*
X145523030Y-150668800D01*
G75*
G02*
X145810200Y-150955970I0J-287170D01*
G01*
G37*
G36*
G01*
X143985200Y-150955970D02*
X143985200Y-151934030D01*
G75*
G02*
X143698030Y-152221200I-287170J0D01*
G01*
X143094970Y-152221200D01*
G75*
G02*
X142807800Y-151934030I0J287170D01*
G01*
X142807800Y-150955970D01*
G75*
G02*
X143094970Y-150668800I287170J0D01*
G01*
X143698030Y-150668800D01*
G75*
G02*
X143985200Y-150955970I0J-287170D01*
G01*
G37*
X134530000Y-152945000D03*
G36*
G01*
X151164800Y-89093100D02*
X151164800Y-88066900D01*
G75*
G02*
X151452900Y-87778800I288100J0D01*
G01*
X152029100Y-87778800D01*
G75*
G02*
X152317200Y-88066900I0J-288100D01*
G01*
X152317200Y-89093100D01*
G75*
G02*
X152029100Y-89381200I-288100J0D01*
G01*
X151452900Y-89381200D01*
G75*
G02*
X151164800Y-89093100I0J288100D01*
G01*
G37*
G36*
G01*
X153064800Y-89093100D02*
X153064800Y-88066900D01*
G75*
G02*
X153352900Y-87778800I288100J0D01*
G01*
X153929100Y-87778800D01*
G75*
G02*
X154217200Y-88066900I0J-288100D01*
G01*
X154217200Y-89093100D01*
G75*
G02*
X153929100Y-89381200I-288100J0D01*
G01*
X153352900Y-89381200D01*
G75*
G02*
X153064800Y-89093100I0J288100D01*
G01*
G37*
G36*
G01*
X151189800Y-43349030D02*
X151189800Y-42370970D01*
G75*
G02*
X151476970Y-42083800I287170J0D01*
G01*
X152080030Y-42083800D01*
G75*
G02*
X152367200Y-42370970I0J-287170D01*
G01*
X152367200Y-43349030D01*
G75*
G02*
X152080030Y-43636200I-287170J0D01*
G01*
X151476970Y-43636200D01*
G75*
G02*
X151189800Y-43349030I0J287170D01*
G01*
G37*
G36*
G01*
X153014800Y-43349030D02*
X153014800Y-42370970D01*
G75*
G02*
X153301970Y-42083800I287170J0D01*
G01*
X153905030Y-42083800D01*
G75*
G02*
X154192200Y-42370970I0J-287170D01*
G01*
X154192200Y-43349030D01*
G75*
G02*
X153905030Y-43636200I-287170J0D01*
G01*
X153301970Y-43636200D01*
G75*
G02*
X153014800Y-43349030I0J287170D01*
G01*
G37*
G36*
G01*
X157831100Y-131604200D02*
X156504900Y-131604200D01*
G75*
G02*
X156316800Y-131416100I0J188100D01*
G01*
X156316800Y-131039900D01*
G75*
G02*
X156504900Y-130851800I188100J0D01*
G01*
X157831100Y-130851800D01*
G75*
G02*
X158019200Y-131039900I0J-188100D01*
G01*
X158019200Y-131416100D01*
G75*
G02*
X157831100Y-131604200I-188100J0D01*
G01*
G37*
G36*
G01*
X157831100Y-130604200D02*
X156504900Y-130604200D01*
G75*
G02*
X156316800Y-130416100I0J188100D01*
G01*
X156316800Y-130039900D01*
G75*
G02*
X156504900Y-129851800I188100J0D01*
G01*
X157831100Y-129851800D01*
G75*
G02*
X158019200Y-130039900I0J-188100D01*
G01*
X158019200Y-130416100D01*
G75*
G02*
X157831100Y-130604200I-188100J0D01*
G01*
G37*
G36*
G01*
X157831100Y-129604200D02*
X156504900Y-129604200D01*
G75*
G02*
X156316800Y-129416100I0J188100D01*
G01*
X156316800Y-129039900D01*
G75*
G02*
X156504900Y-128851800I188100J0D01*
G01*
X157831100Y-128851800D01*
G75*
G02*
X158019200Y-129039900I0J-188100D01*
G01*
X158019200Y-129416100D01*
G75*
G02*
X157831100Y-129604200I-188100J0D01*
G01*
G37*
G36*
G01*
X157831100Y-128604200D02*
X156504900Y-128604200D01*
G75*
G02*
X156316800Y-128416100I0J188100D01*
G01*
X156316800Y-128039900D01*
G75*
G02*
X156504900Y-127851800I188100J0D01*
G01*
X157831100Y-127851800D01*
G75*
G02*
X158019200Y-128039900I0J-188100D01*
G01*
X158019200Y-128416100D01*
G75*
G02*
X157831100Y-128604200I-188100J0D01*
G01*
G37*
G36*
G01*
X161737450Y-133204200D02*
X160348550Y-133204200D01*
G75*
G02*
X160066800Y-132922450I0J281750D01*
G01*
X160066800Y-132133550D01*
G75*
G02*
X160348550Y-131851800I281750J0D01*
G01*
X161737450Y-131851800D01*
G75*
G02*
X162019200Y-132133550I0J-281750D01*
G01*
X162019200Y-132922450D01*
G75*
G02*
X161737450Y-133204200I-281750J0D01*
G01*
G37*
G36*
G01*
X161737450Y-127604200D02*
X160348550Y-127604200D01*
G75*
G02*
X160066800Y-127322450I0J281750D01*
G01*
X160066800Y-126533550D01*
G75*
G02*
X160348550Y-126251800I281750J0D01*
G01*
X161737450Y-126251800D01*
G75*
G02*
X162019200Y-126533550I0J-281750D01*
G01*
X162019200Y-127322450D01*
G75*
G02*
X161737450Y-127604200I-281750J0D01*
G01*
G37*
G36*
G01*
X148906200Y-130484900D02*
X148906200Y-130871100D01*
G75*
G02*
X148713100Y-131064200I-193100J0D01*
G01*
X148246900Y-131064200D01*
G75*
G02*
X148053800Y-130871100I0J193100D01*
G01*
X148053800Y-130484900D01*
G75*
G02*
X148246900Y-130291800I193100J0D01*
G01*
X148713100Y-130291800D01*
G75*
G02*
X148906200Y-130484900I0J-193100D01*
G01*
G37*
G36*
G01*
X148906200Y-129534900D02*
X148906200Y-129921100D01*
G75*
G02*
X148713100Y-130114200I-193100J0D01*
G01*
X148246900Y-130114200D01*
G75*
G02*
X148053800Y-129921100I0J193100D01*
G01*
X148053800Y-129534900D01*
G75*
G02*
X148246900Y-129341800I193100J0D01*
G01*
X148713100Y-129341800D01*
G75*
G02*
X148906200Y-129534900I0J-193100D01*
G01*
G37*
G36*
G01*
X148906200Y-128584900D02*
X148906200Y-128971100D01*
G75*
G02*
X148713100Y-129164200I-193100J0D01*
G01*
X148246900Y-129164200D01*
G75*
G02*
X148053800Y-128971100I0J193100D01*
G01*
X148053800Y-128584900D01*
G75*
G02*
X148246900Y-128391800I193100J0D01*
G01*
X148713100Y-128391800D01*
G75*
G02*
X148906200Y-128584900I0J-193100D01*
G01*
G37*
G36*
G01*
X146406200Y-128584900D02*
X146406200Y-128971100D01*
G75*
G02*
X146213100Y-129164200I-193100J0D01*
G01*
X145746900Y-129164200D01*
G75*
G02*
X145553800Y-128971100I0J193100D01*
G01*
X145553800Y-128584900D01*
G75*
G02*
X145746900Y-128391800I193100J0D01*
G01*
X146213100Y-128391800D01*
G75*
G02*
X146406200Y-128584900I0J-193100D01*
G01*
G37*
G36*
G01*
X146406200Y-129534900D02*
X146406200Y-129921100D01*
G75*
G02*
X146213100Y-130114200I-193100J0D01*
G01*
X145746900Y-130114200D01*
G75*
G02*
X145553800Y-129921100I0J193100D01*
G01*
X145553800Y-129534900D01*
G75*
G02*
X145746900Y-129341800I193100J0D01*
G01*
X146213100Y-129341800D01*
G75*
G02*
X146406200Y-129534900I0J-193100D01*
G01*
G37*
G36*
G01*
X146406200Y-130484900D02*
X146406200Y-130871100D01*
G75*
G02*
X146213100Y-131064200I-193100J0D01*
G01*
X145746900Y-131064200D01*
G75*
G02*
X145553800Y-130871100I0J193100D01*
G01*
X145553800Y-130484900D01*
G75*
G02*
X145746900Y-130291800I193100J0D01*
G01*
X146213100Y-130291800D01*
G75*
G02*
X146406200Y-130484900I0J-193100D01*
G01*
G37*
G36*
G01*
X151189800Y-86783030D02*
X151189800Y-85804970D01*
G75*
G02*
X151476970Y-85517800I287170J0D01*
G01*
X152080030Y-85517800D01*
G75*
G02*
X152367200Y-85804970I0J-287170D01*
G01*
X152367200Y-86783030D01*
G75*
G02*
X152080030Y-87070200I-287170J0D01*
G01*
X151476970Y-87070200D01*
G75*
G02*
X151189800Y-86783030I0J287170D01*
G01*
G37*
G36*
G01*
X153014800Y-86783030D02*
X153014800Y-85804970D01*
G75*
G02*
X153301970Y-85517800I287170J0D01*
G01*
X153905030Y-85517800D01*
G75*
G02*
X154192200Y-85804970I0J-287170D01*
G01*
X154192200Y-86783030D01*
G75*
G02*
X153905030Y-87070200I-287170J0D01*
G01*
X153301970Y-87070200D01*
G75*
G02*
X153014800Y-86783030I0J287170D01*
G01*
G37*
X162470000Y-87794000D03*
G36*
G01*
X152840800Y-106976030D02*
X152840800Y-105997970D01*
G75*
G02*
X153127970Y-105710800I287170J0D01*
G01*
X153731030Y-105710800D01*
G75*
G02*
X154018200Y-105997970I0J-287170D01*
G01*
X154018200Y-106976030D01*
G75*
G02*
X153731030Y-107263200I-287170J0D01*
G01*
X153127970Y-107263200D01*
G75*
G02*
X152840800Y-106976030I0J287170D01*
G01*
G37*
G36*
G01*
X154665800Y-106976030D02*
X154665800Y-105997970D01*
G75*
G02*
X154952970Y-105710800I287170J0D01*
G01*
X155556030Y-105710800D01*
G75*
G02*
X155843200Y-105997970I0J-287170D01*
G01*
X155843200Y-106976030D01*
G75*
G02*
X155556030Y-107263200I-287170J0D01*
G01*
X154952970Y-107263200D01*
G75*
G02*
X154665800Y-106976030I0J287170D01*
G01*
G37*
G36*
G01*
X155843200Y-152479970D02*
X155843200Y-153458030D01*
G75*
G02*
X155556030Y-153745200I-287170J0D01*
G01*
X154952970Y-153745200D01*
G75*
G02*
X154665800Y-153458030I0J287170D01*
G01*
X154665800Y-152479970D01*
G75*
G02*
X154952970Y-152192800I287170J0D01*
G01*
X155556030Y-152192800D01*
G75*
G02*
X155843200Y-152479970I0J-287170D01*
G01*
G37*
G36*
G01*
X154018200Y-152479970D02*
X154018200Y-153458030D01*
G75*
G02*
X153731030Y-153745200I-287170J0D01*
G01*
X153127970Y-153745200D01*
G75*
G02*
X152840800Y-153458030I0J287170D01*
G01*
X152840800Y-152479970D01*
G75*
G02*
X153127970Y-152192800I287170J0D01*
G01*
X153731030Y-152192800D01*
G75*
G02*
X154018200Y-152479970I0J-287170D01*
G01*
G37*
G36*
G01*
X144159200Y-130762970D02*
X144159200Y-131741030D01*
G75*
G02*
X143872030Y-132028200I-287170J0D01*
G01*
X143268970Y-132028200D01*
G75*
G02*
X142981800Y-131741030I0J287170D01*
G01*
X142981800Y-130762970D01*
G75*
G02*
X143268970Y-130475800I287170J0D01*
G01*
X143872030Y-130475800D01*
G75*
G02*
X144159200Y-130762970I0J-287170D01*
G01*
G37*
G36*
G01*
X142334200Y-130762970D02*
X142334200Y-131741030D01*
G75*
G02*
X142047030Y-132028200I-287170J0D01*
G01*
X141443970Y-132028200D01*
G75*
G02*
X141156800Y-131741030I0J287170D01*
G01*
X141156800Y-130762970D01*
G75*
G02*
X141443970Y-130475800I287170J0D01*
G01*
X142047030Y-130475800D01*
G75*
G02*
X142334200Y-130762970I0J-287170D01*
G01*
G37*
G36*
G01*
X152840800Y-63542030D02*
X152840800Y-62563970D01*
G75*
G02*
X153127970Y-62276800I287170J0D01*
G01*
X153731030Y-62276800D01*
G75*
G02*
X154018200Y-62563970I0J-287170D01*
G01*
X154018200Y-63542030D01*
G75*
G02*
X153731030Y-63829200I-287170J0D01*
G01*
X153127970Y-63829200D01*
G75*
G02*
X152840800Y-63542030I0J287170D01*
G01*
G37*
G36*
G01*
X154665800Y-63542030D02*
X154665800Y-62563970D01*
G75*
G02*
X154952970Y-62276800I287170J0D01*
G01*
X155556030Y-62276800D01*
G75*
G02*
X155843200Y-62563970I0J-287170D01*
G01*
X155843200Y-63542030D01*
G75*
G02*
X155556030Y-63829200I-287170J0D01*
G01*
X154952970Y-63829200D01*
G75*
G02*
X154665800Y-63542030I0J287170D01*
G01*
G37*
X162470000Y-41360000D03*
G36*
G01*
X148906200Y-43616900D02*
X148906200Y-44003100D01*
G75*
G02*
X148713100Y-44196200I-193100J0D01*
G01*
X148246900Y-44196200D01*
G75*
G02*
X148053800Y-44003100I0J193100D01*
G01*
X148053800Y-43616900D01*
G75*
G02*
X148246900Y-43423800I193100J0D01*
G01*
X148713100Y-43423800D01*
G75*
G02*
X148906200Y-43616900I0J-193100D01*
G01*
G37*
G36*
G01*
X148906200Y-42666900D02*
X148906200Y-43053100D01*
G75*
G02*
X148713100Y-43246200I-193100J0D01*
G01*
X148246900Y-43246200D01*
G75*
G02*
X148053800Y-43053100I0J193100D01*
G01*
X148053800Y-42666900D01*
G75*
G02*
X148246900Y-42473800I193100J0D01*
G01*
X148713100Y-42473800D01*
G75*
G02*
X148906200Y-42666900I0J-193100D01*
G01*
G37*
G36*
G01*
X148906200Y-41716900D02*
X148906200Y-42103100D01*
G75*
G02*
X148713100Y-42296200I-193100J0D01*
G01*
X148246900Y-42296200D01*
G75*
G02*
X148053800Y-42103100I0J193100D01*
G01*
X148053800Y-41716900D01*
G75*
G02*
X148246900Y-41523800I193100J0D01*
G01*
X148713100Y-41523800D01*
G75*
G02*
X148906200Y-41716900I0J-193100D01*
G01*
G37*
G36*
G01*
X146406200Y-41716900D02*
X146406200Y-42103100D01*
G75*
G02*
X146213100Y-42296200I-193100J0D01*
G01*
X145746900Y-42296200D01*
G75*
G02*
X145553800Y-42103100I0J193100D01*
G01*
X145553800Y-41716900D01*
G75*
G02*
X145746900Y-41523800I193100J0D01*
G01*
X146213100Y-41523800D01*
G75*
G02*
X146406200Y-41716900I0J-193100D01*
G01*
G37*
G36*
G01*
X146406200Y-42666900D02*
X146406200Y-43053100D01*
G75*
G02*
X146213100Y-43246200I-193100J0D01*
G01*
X145746900Y-43246200D01*
G75*
G02*
X145553800Y-43053100I0J193100D01*
G01*
X145553800Y-42666900D01*
G75*
G02*
X145746900Y-42473800I193100J0D01*
G01*
X146213100Y-42473800D01*
G75*
G02*
X146406200Y-42666900I0J-193100D01*
G01*
G37*
G36*
G01*
X146406200Y-43616900D02*
X146406200Y-44003100D01*
G75*
G02*
X146213100Y-44196200I-193100J0D01*
G01*
X145746900Y-44196200D01*
G75*
G02*
X145553800Y-44003100I0J193100D01*
G01*
X145553800Y-43616900D01*
G75*
G02*
X145746900Y-43423800I193100J0D01*
G01*
X146213100Y-43423800D01*
G75*
G02*
X146406200Y-43616900I0J-193100D01*
G01*
G37*
X162470000Y-42360000D03*
G36*
G01*
X154192200Y-40084970D02*
X154192200Y-41063030D01*
G75*
G02*
X153905030Y-41350200I-287170J0D01*
G01*
X153301970Y-41350200D01*
G75*
G02*
X153014800Y-41063030I0J287170D01*
G01*
X153014800Y-40084970D01*
G75*
G02*
X153301970Y-39797800I287170J0D01*
G01*
X153905030Y-39797800D01*
G75*
G02*
X154192200Y-40084970I0J-287170D01*
G01*
G37*
G36*
G01*
X152367200Y-40084970D02*
X152367200Y-41063030D01*
G75*
G02*
X152080030Y-41350200I-287170J0D01*
G01*
X151476970Y-41350200D01*
G75*
G02*
X151189800Y-41063030I0J287170D01*
G01*
X151189800Y-40084970D01*
G75*
G02*
X151476970Y-39797800I287170J0D01*
G01*
X152080030Y-39797800D01*
G75*
G02*
X152367200Y-40084970I0J-287170D01*
G01*
G37*
G36*
G01*
X151164800Y-132527100D02*
X151164800Y-131500900D01*
G75*
G02*
X151452900Y-131212800I288100J0D01*
G01*
X152029100Y-131212800D01*
G75*
G02*
X152317200Y-131500900I0J-288100D01*
G01*
X152317200Y-132527100D01*
G75*
G02*
X152029100Y-132815200I-288100J0D01*
G01*
X151452900Y-132815200D01*
G75*
G02*
X151164800Y-132527100I0J288100D01*
G01*
G37*
G36*
G01*
X153064800Y-132527100D02*
X153064800Y-131500900D01*
G75*
G02*
X153352900Y-131212800I288100J0D01*
G01*
X153929100Y-131212800D01*
G75*
G02*
X154217200Y-131500900I0J-288100D01*
G01*
X154217200Y-132527100D01*
G75*
G02*
X153929100Y-132815200I-288100J0D01*
G01*
X153352900Y-132815200D01*
G75*
G02*
X153064800Y-132527100I0J288100D01*
G01*
G37*
G36*
G01*
X145835200Y-105211900D02*
X145835200Y-106238100D01*
G75*
G02*
X145547100Y-106526200I-288100J0D01*
G01*
X144970900Y-106526200D01*
G75*
G02*
X144682800Y-106238100I0J288100D01*
G01*
X144682800Y-105211900D01*
G75*
G02*
X144970900Y-104923800I288100J0D01*
G01*
X145547100Y-104923800D01*
G75*
G02*
X145835200Y-105211900I0J-288100D01*
G01*
G37*
G36*
G01*
X143935200Y-105211900D02*
X143935200Y-106238100D01*
G75*
G02*
X143647100Y-106526200I-288100J0D01*
G01*
X143070900Y-106526200D01*
G75*
G02*
X142782800Y-106238100I0J288100D01*
G01*
X142782800Y-105211900D01*
G75*
G02*
X143070900Y-104923800I288100J0D01*
G01*
X143647100Y-104923800D01*
G75*
G02*
X143935200Y-105211900I0J-288100D01*
G01*
G37*
G36*
G01*
X145835200Y-148645900D02*
X145835200Y-149672100D01*
G75*
G02*
X145547100Y-149960200I-288100J0D01*
G01*
X144970900Y-149960200D01*
G75*
G02*
X144682800Y-149672100I0J288100D01*
G01*
X144682800Y-148645900D01*
G75*
G02*
X144970900Y-148357800I288100J0D01*
G01*
X145547100Y-148357800D01*
G75*
G02*
X145835200Y-148645900I0J-288100D01*
G01*
G37*
G36*
G01*
X143935200Y-148645900D02*
X143935200Y-149672100D01*
G75*
G02*
X143647100Y-149960200I-288100J0D01*
G01*
X143070900Y-149960200D01*
G75*
G02*
X142782800Y-149672100I0J288100D01*
G01*
X142782800Y-148645900D01*
G75*
G02*
X143070900Y-148357800I288100J0D01*
G01*
X143647100Y-148357800D01*
G75*
G02*
X143935200Y-148645900I0J-288100D01*
G01*
G37*
G36*
G01*
X151164800Y-45659100D02*
X151164800Y-44632900D01*
G75*
G02*
X151452900Y-44344800I288100J0D01*
G01*
X152029100Y-44344800D01*
G75*
G02*
X152317200Y-44632900I0J-288100D01*
G01*
X152317200Y-45659100D01*
G75*
G02*
X152029100Y-45947200I-288100J0D01*
G01*
X151452900Y-45947200D01*
G75*
G02*
X151164800Y-45659100I0J288100D01*
G01*
G37*
G36*
G01*
X153064800Y-45659100D02*
X153064800Y-44632900D01*
G75*
G02*
X153352900Y-44344800I288100J0D01*
G01*
X153929100Y-44344800D01*
G75*
G02*
X154217200Y-44632900I0J-288100D01*
G01*
X154217200Y-45659100D01*
G75*
G02*
X153929100Y-45947200I-288100J0D01*
G01*
X153352900Y-45947200D01*
G75*
G02*
X153064800Y-45659100I0J288100D01*
G01*
G37*
G36*
G01*
X135129280Y-28058800D02*
X136470720Y-28058800D01*
G75*
G02*
X136751200Y-28339280I0J-280480D01*
G01*
X136751200Y-29180720D01*
G75*
G02*
X136470720Y-29461200I-280480J0D01*
G01*
X135129280Y-29461200D01*
G75*
G02*
X134848800Y-29180720I0J280480D01*
G01*
X134848800Y-28339280D01*
G75*
G02*
X135129280Y-28058800I280480J0D01*
G01*
G37*
G36*
G01*
X135129280Y-30858800D02*
X136470720Y-30858800D01*
G75*
G02*
X136751200Y-31139280I0J-280480D01*
G01*
X136751200Y-31980720D01*
G75*
G02*
X136470720Y-32261200I-280480J0D01*
G01*
X135129280Y-32261200D01*
G75*
G02*
X134848800Y-31980720I0J280480D01*
G01*
X134848800Y-31139280D01*
G75*
G02*
X135129280Y-30858800I280480J0D01*
G01*
G37*
X162470000Y-85794000D03*
G36*
G01*
X144159200Y-87328970D02*
X144159200Y-88307030D01*
G75*
G02*
X143872030Y-88594200I-287170J0D01*
G01*
X143268970Y-88594200D01*
G75*
G02*
X142981800Y-88307030I0J287170D01*
G01*
X142981800Y-87328970D01*
G75*
G02*
X143268970Y-87041800I287170J0D01*
G01*
X143872030Y-87041800D01*
G75*
G02*
X144159200Y-87328970I0J-287170D01*
G01*
G37*
G36*
G01*
X142334200Y-87328970D02*
X142334200Y-88307030D01*
G75*
G02*
X142047030Y-88594200I-287170J0D01*
G01*
X141443970Y-88594200D01*
G75*
G02*
X141156800Y-88307030I0J287170D01*
G01*
X141156800Y-87328970D01*
G75*
G02*
X141443970Y-87041800I287170J0D01*
G01*
X142047030Y-87041800D01*
G75*
G02*
X142334200Y-87328970I0J-287170D01*
G01*
G37*
X134530000Y-63077000D03*
G36*
G01*
X139168900Y-62700800D02*
X140495100Y-62700800D01*
G75*
G02*
X140683200Y-62888900I0J-188100D01*
G01*
X140683200Y-63265100D01*
G75*
G02*
X140495100Y-63453200I-188100J0D01*
G01*
X139168900Y-63453200D01*
G75*
G02*
X138980800Y-63265100I0J188100D01*
G01*
X138980800Y-62888900D01*
G75*
G02*
X139168900Y-62700800I188100J0D01*
G01*
G37*
G36*
G01*
X139168900Y-63700800D02*
X140495100Y-63700800D01*
G75*
G02*
X140683200Y-63888900I0J-188100D01*
G01*
X140683200Y-64265100D01*
G75*
G02*
X140495100Y-64453200I-188100J0D01*
G01*
X139168900Y-64453200D01*
G75*
G02*
X138980800Y-64265100I0J188100D01*
G01*
X138980800Y-63888900D01*
G75*
G02*
X139168900Y-63700800I188100J0D01*
G01*
G37*
G36*
G01*
X139168900Y-64700800D02*
X140495100Y-64700800D01*
G75*
G02*
X140683200Y-64888900I0J-188100D01*
G01*
X140683200Y-65265100D01*
G75*
G02*
X140495100Y-65453200I-188100J0D01*
G01*
X139168900Y-65453200D01*
G75*
G02*
X138980800Y-65265100I0J188100D01*
G01*
X138980800Y-64888900D01*
G75*
G02*
X139168900Y-64700800I188100J0D01*
G01*
G37*
G36*
G01*
X139168900Y-65700800D02*
X140495100Y-65700800D01*
G75*
G02*
X140683200Y-65888900I0J-188100D01*
G01*
X140683200Y-66265100D01*
G75*
G02*
X140495100Y-66453200I-188100J0D01*
G01*
X139168900Y-66453200D01*
G75*
G02*
X138980800Y-66265100I0J188100D01*
G01*
X138980800Y-65888900D01*
G75*
G02*
X139168900Y-65700800I188100J0D01*
G01*
G37*
G36*
G01*
X135262550Y-61100800D02*
X136651450Y-61100800D01*
G75*
G02*
X136933200Y-61382550I0J-281750D01*
G01*
X136933200Y-62171450D01*
G75*
G02*
X136651450Y-62453200I-281750J0D01*
G01*
X135262550Y-62453200D01*
G75*
G02*
X134980800Y-62171450I0J281750D01*
G01*
X134980800Y-61382550D01*
G75*
G02*
X135262550Y-61100800I281750J0D01*
G01*
G37*
G36*
G01*
X135262550Y-66700800D02*
X136651450Y-66700800D01*
G75*
G02*
X136933200Y-66982550I0J-281750D01*
G01*
X136933200Y-67771450D01*
G75*
G02*
X136651450Y-68053200I-281750J0D01*
G01*
X135262550Y-68053200D01*
G75*
G02*
X134980800Y-67771450I0J281750D01*
G01*
X134980800Y-66982550D01*
G75*
G02*
X135262550Y-66700800I281750J0D01*
G01*
G37*
G36*
G01*
X142807800Y-110786030D02*
X142807800Y-109807970D01*
G75*
G02*
X143094970Y-109520800I287170J0D01*
G01*
X143698030Y-109520800D01*
G75*
G02*
X143985200Y-109807970I0J-287170D01*
G01*
X143985200Y-110786030D01*
G75*
G02*
X143698030Y-111073200I-287170J0D01*
G01*
X143094970Y-111073200D01*
G75*
G02*
X142807800Y-110786030I0J287170D01*
G01*
G37*
G36*
G01*
X144632800Y-110786030D02*
X144632800Y-109807970D01*
G75*
G02*
X144919970Y-109520800I287170J0D01*
G01*
X145523030Y-109520800D01*
G75*
G02*
X145810200Y-109807970I0J-287170D01*
G01*
X145810200Y-110786030D01*
G75*
G02*
X145523030Y-111073200I-287170J0D01*
G01*
X144919970Y-111073200D01*
G75*
G02*
X144632800Y-110786030I0J287170D01*
G01*
G37*
G36*
G01*
X148093800Y-150688100D02*
X148093800Y-150301900D01*
G75*
G02*
X148286900Y-150108800I193100J0D01*
G01*
X148753100Y-150108800D01*
G75*
G02*
X148946200Y-150301900I0J-193100D01*
G01*
X148946200Y-150688100D01*
G75*
G02*
X148753100Y-150881200I-193100J0D01*
G01*
X148286900Y-150881200D01*
G75*
G02*
X148093800Y-150688100I0J193100D01*
G01*
G37*
G36*
G01*
X148093800Y-151638100D02*
X148093800Y-151251900D01*
G75*
G02*
X148286900Y-151058800I193100J0D01*
G01*
X148753100Y-151058800D01*
G75*
G02*
X148946200Y-151251900I0J-193100D01*
G01*
X148946200Y-151638100D01*
G75*
G02*
X148753100Y-151831200I-193100J0D01*
G01*
X148286900Y-151831200D01*
G75*
G02*
X148093800Y-151638100I0J193100D01*
G01*
G37*
G36*
G01*
X148093800Y-152588100D02*
X148093800Y-152201900D01*
G75*
G02*
X148286900Y-152008800I193100J0D01*
G01*
X148753100Y-152008800D01*
G75*
G02*
X148946200Y-152201900I0J-193100D01*
G01*
X148946200Y-152588100D01*
G75*
G02*
X148753100Y-152781200I-193100J0D01*
G01*
X148286900Y-152781200D01*
G75*
G02*
X148093800Y-152588100I0J193100D01*
G01*
G37*
G36*
G01*
X150593800Y-152588100D02*
X150593800Y-152201900D01*
G75*
G02*
X150786900Y-152008800I193100J0D01*
G01*
X151253100Y-152008800D01*
G75*
G02*
X151446200Y-152201900I0J-193100D01*
G01*
X151446200Y-152588100D01*
G75*
G02*
X151253100Y-152781200I-193100J0D01*
G01*
X150786900Y-152781200D01*
G75*
G02*
X150593800Y-152588100I0J193100D01*
G01*
G37*
G36*
G01*
X150593800Y-151638100D02*
X150593800Y-151251900D01*
G75*
G02*
X150786900Y-151058800I193100J0D01*
G01*
X151253100Y-151058800D01*
G75*
G02*
X151446200Y-151251900I0J-193100D01*
G01*
X151446200Y-151638100D01*
G75*
G02*
X151253100Y-151831200I-193100J0D01*
G01*
X150786900Y-151831200D01*
G75*
G02*
X150593800Y-151638100I0J193100D01*
G01*
G37*
G36*
G01*
X150593800Y-150688100D02*
X150593800Y-150301900D01*
G75*
G02*
X150786900Y-150108800I193100J0D01*
G01*
X151253100Y-150108800D01*
G75*
G02*
X151446200Y-150301900I0J-193100D01*
G01*
X151446200Y-150688100D01*
G75*
G02*
X151253100Y-150881200I-193100J0D01*
G01*
X150786900Y-150881200D01*
G75*
G02*
X150593800Y-150688100I0J193100D01*
G01*
G37*
G36*
G01*
X144159200Y-43894970D02*
X144159200Y-44873030D01*
G75*
G02*
X143872030Y-45160200I-287170J0D01*
G01*
X143268970Y-45160200D01*
G75*
G02*
X142981800Y-44873030I0J287170D01*
G01*
X142981800Y-43894970D01*
G75*
G02*
X143268970Y-43607800I287170J0D01*
G01*
X143872030Y-43607800D01*
G75*
G02*
X144159200Y-43894970I0J-287170D01*
G01*
G37*
G36*
G01*
X142334200Y-43894970D02*
X142334200Y-44873030D01*
G75*
G02*
X142047030Y-45160200I-287170J0D01*
G01*
X141443970Y-45160200D01*
G75*
G02*
X141156800Y-44873030I0J287170D01*
G01*
X141156800Y-43894970D01*
G75*
G02*
X141443970Y-43607800I287170J0D01*
G01*
X142047030Y-43607800D01*
G75*
G02*
X142334200Y-43894970I0J-287170D01*
G01*
G37*
X162470000Y-128228000D03*
G36*
G01*
X151189800Y-130217030D02*
X151189800Y-129238970D01*
G75*
G02*
X151476970Y-128951800I287170J0D01*
G01*
X152080030Y-128951800D01*
G75*
G02*
X152367200Y-129238970I0J-287170D01*
G01*
X152367200Y-130217030D01*
G75*
G02*
X152080030Y-130504200I-287170J0D01*
G01*
X151476970Y-130504200D01*
G75*
G02*
X151189800Y-130217030I0J287170D01*
G01*
G37*
G36*
G01*
X153014800Y-130217030D02*
X153014800Y-129238970D01*
G75*
G02*
X153301970Y-128951800I287170J0D01*
G01*
X153905030Y-128951800D01*
G75*
G02*
X154192200Y-129238970I0J-287170D01*
G01*
X154192200Y-130217030D01*
G75*
G02*
X153905030Y-130504200I-287170J0D01*
G01*
X153301970Y-130504200D01*
G75*
G02*
X153014800Y-130217030I0J287170D01*
G01*
G37*
G36*
G01*
X145835200Y-61777900D02*
X145835200Y-62804100D01*
G75*
G02*
X145547100Y-63092200I-288100J0D01*
G01*
X144970900Y-63092200D01*
G75*
G02*
X144682800Y-62804100I0J288100D01*
G01*
X144682800Y-61777900D01*
G75*
G02*
X144970900Y-61489800I288100J0D01*
G01*
X145547100Y-61489800D01*
G75*
G02*
X145835200Y-61777900I0J-288100D01*
G01*
G37*
G36*
G01*
X143935200Y-61777900D02*
X143935200Y-62804100D01*
G75*
G02*
X143647100Y-63092200I-288100J0D01*
G01*
X143070900Y-63092200D01*
G75*
G02*
X142782800Y-62804100I0J288100D01*
G01*
X142782800Y-61777900D01*
G75*
G02*
X143070900Y-61489800I288100J0D01*
G01*
X143647100Y-61489800D01*
G75*
G02*
X143935200Y-61777900I0J-288100D01*
G01*
G37*
X134530000Y-149945000D03*
G36*
G01*
X154192200Y-126952970D02*
X154192200Y-127931030D01*
G75*
G02*
X153905030Y-128218200I-287170J0D01*
G01*
X153301970Y-128218200D01*
G75*
G02*
X153014800Y-127931030I0J287170D01*
G01*
X153014800Y-126952970D01*
G75*
G02*
X153301970Y-126665800I287170J0D01*
G01*
X153905030Y-126665800D01*
G75*
G02*
X154192200Y-126952970I0J-287170D01*
G01*
G37*
G36*
G01*
X152367200Y-126952970D02*
X152367200Y-127931030D01*
G75*
G02*
X152080030Y-128218200I-287170J0D01*
G01*
X151476970Y-128218200D01*
G75*
G02*
X151189800Y-127931030I0J287170D01*
G01*
X151189800Y-126952970D01*
G75*
G02*
X151476970Y-126665800I287170J0D01*
G01*
X152080030Y-126665800D01*
G75*
G02*
X152367200Y-126952970I0J-287170D01*
G01*
G37*
G36*
G01*
X148906200Y-87050900D02*
X148906200Y-87437100D01*
G75*
G02*
X148713100Y-87630200I-193100J0D01*
G01*
X148246900Y-87630200D01*
G75*
G02*
X148053800Y-87437100I0J193100D01*
G01*
X148053800Y-87050900D01*
G75*
G02*
X148246900Y-86857800I193100J0D01*
G01*
X148713100Y-86857800D01*
G75*
G02*
X148906200Y-87050900I0J-193100D01*
G01*
G37*
G36*
G01*
X148906200Y-86100900D02*
X148906200Y-86487100D01*
G75*
G02*
X148713100Y-86680200I-193100J0D01*
G01*
X148246900Y-86680200D01*
G75*
G02*
X148053800Y-86487100I0J193100D01*
G01*
X148053800Y-86100900D01*
G75*
G02*
X148246900Y-85907800I193100J0D01*
G01*
X148713100Y-85907800D01*
G75*
G02*
X148906200Y-86100900I0J-193100D01*
G01*
G37*
G36*
G01*
X148906200Y-85150900D02*
X148906200Y-85537100D01*
G75*
G02*
X148713100Y-85730200I-193100J0D01*
G01*
X148246900Y-85730200D01*
G75*
G02*
X148053800Y-85537100I0J193100D01*
G01*
X148053800Y-85150900D01*
G75*
G02*
X148246900Y-84957800I193100J0D01*
G01*
X148713100Y-84957800D01*
G75*
G02*
X148906200Y-85150900I0J-193100D01*
G01*
G37*
G36*
G01*
X146406200Y-85150900D02*
X146406200Y-85537100D01*
G75*
G02*
X146213100Y-85730200I-193100J0D01*
G01*
X145746900Y-85730200D01*
G75*
G02*
X145553800Y-85537100I0J193100D01*
G01*
X145553800Y-85150900D01*
G75*
G02*
X145746900Y-84957800I193100J0D01*
G01*
X146213100Y-84957800D01*
G75*
G02*
X146406200Y-85150900I0J-193100D01*
G01*
G37*
G36*
G01*
X146406200Y-86100900D02*
X146406200Y-86487100D01*
G75*
G02*
X146213100Y-86680200I-193100J0D01*
G01*
X145746900Y-86680200D01*
G75*
G02*
X145553800Y-86487100I0J193100D01*
G01*
X145553800Y-86100900D01*
G75*
G02*
X145746900Y-85907800I193100J0D01*
G01*
X146213100Y-85907800D01*
G75*
G02*
X146406200Y-86100900I0J-193100D01*
G01*
G37*
G36*
G01*
X146406200Y-87050900D02*
X146406200Y-87437100D01*
G75*
G02*
X146213100Y-87630200I-193100J0D01*
G01*
X145746900Y-87630200D01*
G75*
G02*
X145553800Y-87437100I0J193100D01*
G01*
X145553800Y-87050900D01*
G75*
G02*
X145746900Y-86857800I193100J0D01*
G01*
X146213100Y-86857800D01*
G75*
G02*
X146406200Y-87050900I0J-193100D01*
G01*
G37*
X134530000Y-107511000D03*
D11*
X129450000Y-166685000D03*
G36*
G01*
X148093800Y-63820100D02*
X148093800Y-63433900D01*
G75*
G02*
X148286900Y-63240800I193100J0D01*
G01*
X148753100Y-63240800D01*
G75*
G02*
X148946200Y-63433900I0J-193100D01*
G01*
X148946200Y-63820100D01*
G75*
G02*
X148753100Y-64013200I-193100J0D01*
G01*
X148286900Y-64013200D01*
G75*
G02*
X148093800Y-63820100I0J193100D01*
G01*
G37*
G36*
G01*
X148093800Y-64770100D02*
X148093800Y-64383900D01*
G75*
G02*
X148286900Y-64190800I193100J0D01*
G01*
X148753100Y-64190800D01*
G75*
G02*
X148946200Y-64383900I0J-193100D01*
G01*
X148946200Y-64770100D01*
G75*
G02*
X148753100Y-64963200I-193100J0D01*
G01*
X148286900Y-64963200D01*
G75*
G02*
X148093800Y-64770100I0J193100D01*
G01*
G37*
G36*
G01*
X148093800Y-65720100D02*
X148093800Y-65333900D01*
G75*
G02*
X148286900Y-65140800I193100J0D01*
G01*
X148753100Y-65140800D01*
G75*
G02*
X148946200Y-65333900I0J-193100D01*
G01*
X148946200Y-65720100D01*
G75*
G02*
X148753100Y-65913200I-193100J0D01*
G01*
X148286900Y-65913200D01*
G75*
G02*
X148093800Y-65720100I0J193100D01*
G01*
G37*
G36*
G01*
X150593800Y-65720100D02*
X150593800Y-65333900D01*
G75*
G02*
X150786900Y-65140800I193100J0D01*
G01*
X151253100Y-65140800D01*
G75*
G02*
X151446200Y-65333900I0J-193100D01*
G01*
X151446200Y-65720100D01*
G75*
G02*
X151253100Y-65913200I-193100J0D01*
G01*
X150786900Y-65913200D01*
G75*
G02*
X150593800Y-65720100I0J193100D01*
G01*
G37*
G36*
G01*
X150593800Y-64770100D02*
X150593800Y-64383900D01*
G75*
G02*
X150786900Y-64190800I193100J0D01*
G01*
X151253100Y-64190800D01*
G75*
G02*
X151446200Y-64383900I0J-193100D01*
G01*
X151446200Y-64770100D01*
G75*
G02*
X151253100Y-64963200I-193100J0D01*
G01*
X150786900Y-64963200D01*
G75*
G02*
X150593800Y-64770100I0J193100D01*
G01*
G37*
G36*
G01*
X150593800Y-63820100D02*
X150593800Y-63433900D01*
G75*
G02*
X150786900Y-63240800I193100J0D01*
G01*
X151253100Y-63240800D01*
G75*
G02*
X151446200Y-63433900I0J-193100D01*
G01*
X151446200Y-63820100D01*
G75*
G02*
X151253100Y-64013200I-193100J0D01*
G01*
X150786900Y-64013200D01*
G75*
G02*
X150593800Y-63820100I0J193100D01*
G01*
G37*
G36*
G01*
X142807800Y-67352030D02*
X142807800Y-66373970D01*
G75*
G02*
X143094970Y-66086800I287170J0D01*
G01*
X143698030Y-66086800D01*
G75*
G02*
X143985200Y-66373970I0J-287170D01*
G01*
X143985200Y-67352030D01*
G75*
G02*
X143698030Y-67639200I-287170J0D01*
G01*
X143094970Y-67639200D01*
G75*
G02*
X142807800Y-67352030I0J287170D01*
G01*
G37*
G36*
G01*
X144632800Y-67352030D02*
X144632800Y-66373970D01*
G75*
G02*
X144919970Y-66086800I287170J0D01*
G01*
X145523030Y-66086800D01*
G75*
G02*
X145810200Y-66373970I0J-287170D01*
G01*
X145810200Y-67352030D01*
G75*
G02*
X145523030Y-67639200I-287170J0D01*
G01*
X144919970Y-67639200D01*
G75*
G02*
X144632800Y-67352030I0J287170D01*
G01*
G37*
G36*
G01*
X161870720Y-79378200D02*
X160529280Y-79378200D01*
G75*
G02*
X160248800Y-79097720I0J280480D01*
G01*
X160248800Y-78256280D01*
G75*
G02*
X160529280Y-77975800I280480J0D01*
G01*
X161870720Y-77975800D01*
G75*
G02*
X162151200Y-78256280I0J-280480D01*
G01*
X162151200Y-79097720D01*
G75*
G02*
X161870720Y-79378200I-280480J0D01*
G01*
G37*
G36*
G01*
X161870720Y-76578200D02*
X160529280Y-76578200D01*
G75*
G02*
X160248800Y-76297720I0J280480D01*
G01*
X160248800Y-75456280D01*
G75*
G02*
X160529280Y-75175800I280480J0D01*
G01*
X161870720Y-75175800D01*
G75*
G02*
X162151200Y-75456280I0J-280480D01*
G01*
X162151200Y-76297720D01*
G75*
G02*
X161870720Y-76578200I-280480J0D01*
G01*
G37*
D10*
X162470000Y-44360000D03*
G36*
G01*
X142807800Y-154220030D02*
X142807800Y-153241970D01*
G75*
G02*
X143094970Y-152954800I287170J0D01*
G01*
X143698030Y-152954800D01*
G75*
G02*
X143985200Y-153241970I0J-287170D01*
G01*
X143985200Y-154220030D01*
G75*
G02*
X143698030Y-154507200I-287170J0D01*
G01*
X143094970Y-154507200D01*
G75*
G02*
X142807800Y-154220030I0J287170D01*
G01*
G37*
G36*
G01*
X144632800Y-154220030D02*
X144632800Y-153241970D01*
G75*
G02*
X144919970Y-152954800I287170J0D01*
G01*
X145523030Y-152954800D01*
G75*
G02*
X145810200Y-153241970I0J-287170D01*
G01*
X145810200Y-154220030D01*
G75*
G02*
X145523030Y-154507200I-287170J0D01*
G01*
X144919970Y-154507200D01*
G75*
G02*
X144632800Y-154220030I0J287170D01*
G01*
G37*
X134530000Y-109511000D03*
X134530000Y-66077000D03*
X162470000Y-86794000D03*
X134530000Y-64077000D03*
X134530000Y-108511000D03*
G36*
G01*
X154192200Y-83518970D02*
X154192200Y-84497030D01*
G75*
G02*
X153905030Y-84784200I-287170J0D01*
G01*
X153301970Y-84784200D01*
G75*
G02*
X153014800Y-84497030I0J287170D01*
G01*
X153014800Y-83518970D01*
G75*
G02*
X153301970Y-83231800I287170J0D01*
G01*
X153905030Y-83231800D01*
G75*
G02*
X154192200Y-83518970I0J-287170D01*
G01*
G37*
G36*
G01*
X152367200Y-83518970D02*
X152367200Y-84497030D01*
G75*
G02*
X152080030Y-84784200I-287170J0D01*
G01*
X151476970Y-84784200D01*
G75*
G02*
X151189800Y-84497030I0J287170D01*
G01*
X151189800Y-83518970D01*
G75*
G02*
X151476970Y-83231800I287170J0D01*
G01*
X152080030Y-83231800D01*
G75*
G02*
X152367200Y-83518970I0J-287170D01*
G01*
G37*
X134530000Y-151945000D03*
G36*
G01*
X161870720Y-122812200D02*
X160529280Y-122812200D01*
G75*
G02*
X160248800Y-122531720I0J280480D01*
G01*
X160248800Y-121690280D01*
G75*
G02*
X160529280Y-121409800I280480J0D01*
G01*
X161870720Y-121409800D01*
G75*
G02*
X162151200Y-121690280I0J-280480D01*
G01*
X162151200Y-122531720D01*
G75*
G02*
X161870720Y-122812200I-280480J0D01*
G01*
G37*
G36*
G01*
X161870720Y-120012200D02*
X160529280Y-120012200D01*
G75*
G02*
X160248800Y-119731720I0J280480D01*
G01*
X160248800Y-118890280D01*
G75*
G02*
X160529280Y-118609800I280480J0D01*
G01*
X161870720Y-118609800D01*
G75*
G02*
X162151200Y-118890280I0J-280480D01*
G01*
X162151200Y-119731720D01*
G75*
G02*
X161870720Y-120012200I-280480J0D01*
G01*
G37*
X162470000Y-131228000D03*
G36*
G01*
X152840800Y-150410030D02*
X152840800Y-149431970D01*
G75*
G02*
X153127970Y-149144800I287170J0D01*
G01*
X153731030Y-149144800D01*
G75*
G02*
X154018200Y-149431970I0J-287170D01*
G01*
X154018200Y-150410030D01*
G75*
G02*
X153731030Y-150697200I-287170J0D01*
G01*
X153127970Y-150697200D01*
G75*
G02*
X152840800Y-150410030I0J287170D01*
G01*
G37*
G36*
G01*
X154665800Y-150410030D02*
X154665800Y-149431970D01*
G75*
G02*
X154952970Y-149144800I287170J0D01*
G01*
X155556030Y-149144800D01*
G75*
G02*
X155843200Y-149431970I0J-287170D01*
G01*
X155843200Y-150410030D01*
G75*
G02*
X155556030Y-150697200I-287170J0D01*
G01*
X154952970Y-150697200D01*
G75*
G02*
X154665800Y-150410030I0J287170D01*
G01*
G37*
G36*
G01*
X141156800Y-41825030D02*
X141156800Y-40846970D01*
G75*
G02*
X141443970Y-40559800I287170J0D01*
G01*
X142047030Y-40559800D01*
G75*
G02*
X142334200Y-40846970I0J-287170D01*
G01*
X142334200Y-41825030D01*
G75*
G02*
X142047030Y-42112200I-287170J0D01*
G01*
X141443970Y-42112200D01*
G75*
G02*
X141156800Y-41825030I0J287170D01*
G01*
G37*
G36*
G01*
X142981800Y-41825030D02*
X142981800Y-40846970D01*
G75*
G02*
X143268970Y-40559800I287170J0D01*
G01*
X143872030Y-40559800D01*
G75*
G02*
X144159200Y-40846970I0J-287170D01*
G01*
X144159200Y-41825030D01*
G75*
G02*
X143872030Y-42112200I-287170J0D01*
G01*
X143268970Y-42112200D01*
G75*
G02*
X142981800Y-41825030I0J287170D01*
G01*
G37*
G36*
G01*
X139168900Y-149568800D02*
X140495100Y-149568800D01*
G75*
G02*
X140683200Y-149756900I0J-188100D01*
G01*
X140683200Y-150133100D01*
G75*
G02*
X140495100Y-150321200I-188100J0D01*
G01*
X139168900Y-150321200D01*
G75*
G02*
X138980800Y-150133100I0J188100D01*
G01*
X138980800Y-149756900D01*
G75*
G02*
X139168900Y-149568800I188100J0D01*
G01*
G37*
G36*
G01*
X139168900Y-150568800D02*
X140495100Y-150568800D01*
G75*
G02*
X140683200Y-150756900I0J-188100D01*
G01*
X140683200Y-151133100D01*
G75*
G02*
X140495100Y-151321200I-188100J0D01*
G01*
X139168900Y-151321200D01*
G75*
G02*
X138980800Y-151133100I0J188100D01*
G01*
X138980800Y-150756900D01*
G75*
G02*
X139168900Y-150568800I188100J0D01*
G01*
G37*
G36*
G01*
X139168900Y-151568800D02*
X140495100Y-151568800D01*
G75*
G02*
X140683200Y-151756900I0J-188100D01*
G01*
X140683200Y-152133100D01*
G75*
G02*
X140495100Y-152321200I-188100J0D01*
G01*
X139168900Y-152321200D01*
G75*
G02*
X138980800Y-152133100I0J188100D01*
G01*
X138980800Y-151756900D01*
G75*
G02*
X139168900Y-151568800I188100J0D01*
G01*
G37*
G36*
G01*
X139168900Y-152568800D02*
X140495100Y-152568800D01*
G75*
G02*
X140683200Y-152756900I0J-188100D01*
G01*
X140683200Y-153133100D01*
G75*
G02*
X140495100Y-153321200I-188100J0D01*
G01*
X139168900Y-153321200D01*
G75*
G02*
X138980800Y-153133100I0J188100D01*
G01*
X138980800Y-152756900D01*
G75*
G02*
X139168900Y-152568800I188100J0D01*
G01*
G37*
G36*
G01*
X135262550Y-147968800D02*
X136651450Y-147968800D01*
G75*
G02*
X136933200Y-148250550I0J-281750D01*
G01*
X136933200Y-149039450D01*
G75*
G02*
X136651450Y-149321200I-281750J0D01*
G01*
X135262550Y-149321200D01*
G75*
G02*
X134980800Y-149039450I0J281750D01*
G01*
X134980800Y-148250550D01*
G75*
G02*
X135262550Y-147968800I281750J0D01*
G01*
G37*
G36*
G01*
X135262550Y-153568800D02*
X136651450Y-153568800D01*
G75*
G02*
X136933200Y-153850550I0J-281750D01*
G01*
X136933200Y-154639450D01*
G75*
G02*
X136651450Y-154921200I-281750J0D01*
G01*
X135262550Y-154921200D01*
G75*
G02*
X134980800Y-154639450I0J281750D01*
G01*
X134980800Y-153850550D01*
G75*
G02*
X135262550Y-153568800I281750J0D01*
G01*
G37*
G36*
G01*
X160529280Y-49775800D02*
X161870720Y-49775800D01*
G75*
G02*
X162151200Y-50056280I0J-280480D01*
G01*
X162151200Y-50897720D01*
G75*
G02*
X161870720Y-51178200I-280480J0D01*
G01*
X160529280Y-51178200D01*
G75*
G02*
X160248800Y-50897720I0J280480D01*
G01*
X160248800Y-50056280D01*
G75*
G02*
X160529280Y-49775800I280480J0D01*
G01*
G37*
G36*
G01*
X160529280Y-52575800D02*
X161870720Y-52575800D01*
G75*
G02*
X162151200Y-52856280I0J-280480D01*
G01*
X162151200Y-53697720D01*
G75*
G02*
X161870720Y-53978200I-280480J0D01*
G01*
X160529280Y-53978200D01*
G75*
G02*
X160248800Y-53697720I0J280480D01*
G01*
X160248800Y-52856280D01*
G75*
G02*
X160529280Y-52575800I280480J0D01*
G01*
G37*
M02*
