G04 #@! TF.GenerationSoftware,KiCad,Pcbnew,9.0.9-9.0.9~ubuntu24.04.1*
G04 #@! TF.CreationDate,2026-08-31T17:21:49-06:00*
G04 #@! TF.ProjectId,ckt-axle-bar-array,636b742d-6178-46c6-952d-6261722d6172,rev?*
G04 #@! TF.SameCoordinates,Original*
G04 #@! TF.FileFunction,Profile,NP*
%FSLAX46Y46*%
G04 Gerber Fmt 4.6, Leading zero omitted, Abs format (unit mm)*
G04 Created by KiCad (PCBNEW 9.0.9-9.0.9~ubuntu24.04.1) date 2026-08-31 17:21:49*
%MOMM*%
%LPD*%
G01*
G04 APERTURE LIST*
G04 #@! TA.AperFunction,Profile*
%ADD10C,0.100000*%
G04 #@! TD*
G04 APERTURE END LIST*
D10*
X126910000Y-20015586D02*
X126910000Y-174289413D01*
X126910000Y-174289438D02*
X126910349Y-174303675D01*
X126910349Y-20001324D02*
X126910000Y-20015561D01*
X126911324Y-174304650D02*
X126925561Y-174304999D01*
X126925561Y-20000000D02*
X126911324Y-20000349D01*
X126925586Y-174305000D02*
X170074413Y-174305000D01*
X131990000Y-26349012D02*
X131991528Y-26286733D01*
X131990000Y-61807987D02*
X131990000Y-26349012D01*
X131990000Y-67346012D02*
X131991528Y-67283733D01*
X131990000Y-105241987D02*
X131990000Y-67346012D01*
X131990000Y-110780012D02*
X131991528Y-110717733D01*
X131990000Y-148675987D02*
X131990000Y-110780012D01*
X131990000Y-154214012D02*
X131991528Y-154151733D01*
X131990000Y-167955987D02*
X131990000Y-154214012D01*
X131991528Y-26286733D02*
X131996110Y-26224616D01*
X131991528Y-61870266D02*
X131990000Y-61807987D01*
X131991528Y-67283733D02*
X131996110Y-67221616D01*
X131991528Y-105304266D02*
X131990000Y-105241987D01*
X131991528Y-110717733D02*
X131996110Y-110655616D01*
X131991528Y-148738266D02*
X131990000Y-148675987D01*
X131991528Y-154151733D02*
X131996110Y-154089616D01*
X131991528Y-168018266D02*
X131990000Y-167955987D01*
X131996110Y-26224616D02*
X132003735Y-26162799D01*
X131996110Y-61932383D02*
X131991528Y-61870266D01*
X131996110Y-67221616D02*
X132003735Y-67159799D01*
X131996110Y-105366383D02*
X131991528Y-105304266D01*
X131996110Y-110655616D02*
X132003735Y-110593799D01*
X131996110Y-148800383D02*
X131991528Y-148738266D01*
X131996110Y-154089616D02*
X132003735Y-154027799D01*
X131996110Y-168080383D02*
X131991528Y-168018266D01*
X132003735Y-26162799D02*
X132014383Y-26101430D01*
X132003735Y-61994200D02*
X131996110Y-61932383D01*
X132003735Y-67159799D02*
X132014383Y-67098430D01*
X132003735Y-105428200D02*
X131996110Y-105366383D01*
X132003735Y-110593799D02*
X132014383Y-110532430D01*
X132003735Y-148862200D02*
X131996110Y-148800383D01*
X132003735Y-154027799D02*
X132014383Y-153966430D01*
X132003735Y-168142200D02*
X131996110Y-168080383D01*
X132014383Y-26101430D02*
X132028030Y-26040658D01*
X132014383Y-62055569D02*
X132003735Y-61994200D01*
X132014383Y-67098430D02*
X132028030Y-67037658D01*
X132014383Y-105489569D02*
X132003735Y-105428200D01*
X132014383Y-110532430D02*
X132028030Y-110471658D01*
X132014383Y-148923569D02*
X132003735Y-148862200D01*
X132014383Y-153966430D02*
X132028030Y-153905658D01*
X132014383Y-168203569D02*
X132003735Y-168142200D01*
X132028030Y-26040658D02*
X132044643Y-25980628D01*
X132028030Y-62116341D02*
X132014383Y-62055569D01*
X132028030Y-67037658D02*
X132044643Y-66977628D01*
X132028030Y-105550341D02*
X132014383Y-105489569D01*
X132028030Y-110471658D02*
X132044643Y-110411628D01*
X132028030Y-148984341D02*
X132014383Y-148923569D01*
X132028030Y-153905658D02*
X132044643Y-153845628D01*
X132028030Y-168264341D02*
X132014383Y-168203569D01*
X132044643Y-25980628D02*
X132064180Y-25921486D01*
X132044643Y-62176371D02*
X132028030Y-62116341D01*
X132044643Y-66977628D02*
X132064180Y-66918486D01*
X132044643Y-105610371D02*
X132028030Y-105550341D01*
X132044643Y-110411628D02*
X132064180Y-110352486D01*
X132044643Y-149044371D02*
X132028030Y-148984341D01*
X132044643Y-153845628D02*
X132064180Y-153786486D01*
X132044643Y-168324371D02*
X132028030Y-168264341D01*
X132064180Y-25921486D02*
X132086597Y-25863374D01*
X132064180Y-62235513D02*
X132044643Y-62176371D01*
X132064180Y-66918486D02*
X132086597Y-66860374D01*
X132064180Y-105669513D02*
X132044643Y-105610371D01*
X132064180Y-110352486D02*
X132086597Y-110294374D01*
X132064180Y-149103513D02*
X132044643Y-149044371D01*
X132064180Y-153786486D02*
X132086597Y-153728374D01*
X132064180Y-168383513D02*
X132044643Y-168324371D01*
X132086597Y-25863374D02*
X132111837Y-25806432D01*
X132086597Y-62293625D02*
X132064180Y-62235513D01*
X132086597Y-66860374D02*
X132111837Y-66803432D01*
X132086597Y-105727625D02*
X132064180Y-105669513D01*
X132086597Y-110294374D02*
X132111837Y-110237432D01*
X132086597Y-149161625D02*
X132064180Y-149103513D01*
X132086597Y-153728374D02*
X132111837Y-153671432D01*
X132086597Y-168441625D02*
X132064180Y-168383513D01*
X132111837Y-25806432D02*
X132139842Y-25750797D01*
X132111837Y-62350567D02*
X132086597Y-62293625D01*
X132111837Y-66803432D02*
X132139842Y-66747797D01*
X132111837Y-105784567D02*
X132086597Y-105727625D01*
X132111837Y-110237432D02*
X132139842Y-110181797D01*
X132111837Y-149218567D02*
X132086597Y-149161625D01*
X132111837Y-153671432D02*
X132139842Y-153615797D01*
X132111837Y-168498567D02*
X132086597Y-168441625D01*
X132139842Y-25750797D02*
X132170542Y-25696603D01*
X132139842Y-62406202D02*
X132111837Y-62350567D01*
X132139842Y-66747797D02*
X132170542Y-66693603D01*
X132139842Y-105840202D02*
X132111837Y-105784567D01*
X132139842Y-110181797D02*
X132170542Y-110127603D01*
X132139842Y-149274202D02*
X132111837Y-149218567D01*
X132139842Y-153615797D02*
X132170542Y-153561603D01*
X132139842Y-168554202D02*
X132111837Y-168498567D01*
X132170542Y-25696603D02*
X132203865Y-25643981D01*
X132170542Y-62460396D02*
X132139842Y-62406202D01*
X132170542Y-66693603D02*
X132203865Y-66640981D01*
X132170542Y-105894396D02*
X132139842Y-105840202D01*
X132170542Y-110127603D02*
X132203865Y-110074981D01*
X132170542Y-149328396D02*
X132139842Y-149274202D01*
X132170542Y-153561603D02*
X132203865Y-153508981D01*
X132170542Y-168608396D02*
X132139842Y-168554202D01*
X132203865Y-25643981D02*
X132239729Y-25593057D01*
X132203865Y-62513018D02*
X132170542Y-62460396D01*
X132203865Y-66640981D02*
X132239729Y-66590057D01*
X132203865Y-105947018D02*
X132170542Y-105894396D01*
X132203865Y-110074981D02*
X132239729Y-110024057D01*
X132203865Y-149381018D02*
X132170542Y-149328396D01*
X132203865Y-153508981D02*
X132239729Y-153458057D01*
X132203865Y-168661018D02*
X132170542Y-168608396D01*
X132239729Y-25593057D02*
X132278049Y-25543955D01*
X132239729Y-62563942D02*
X132203865Y-62513018D01*
X132239729Y-66590057D02*
X132278049Y-66540955D01*
X132239729Y-105997942D02*
X132203865Y-105947018D01*
X132239729Y-110024057D02*
X132278049Y-109974955D01*
X132239729Y-149431942D02*
X132203865Y-149381018D01*
X132239729Y-153458057D02*
X132278049Y-153408955D01*
X132239729Y-168711942D02*
X132203865Y-168661018D01*
X132278049Y-25543955D02*
X132318733Y-25496791D01*
X132278049Y-62613044D02*
X132239729Y-62563942D01*
X132278049Y-66540955D02*
X132318733Y-66493791D01*
X132278049Y-106047044D02*
X132239729Y-105997942D01*
X132278049Y-109974955D02*
X132318733Y-109927791D01*
X132278049Y-149481044D02*
X132239729Y-149431942D01*
X132278049Y-153408955D02*
X132318733Y-153361791D01*
X132278049Y-168761044D02*
X132239729Y-168711942D01*
X132318733Y-25496791D02*
X132361681Y-25451681D01*
X132318733Y-62660208D02*
X132278049Y-62613044D01*
X132318733Y-66493791D02*
X132361681Y-66448681D01*
X132318733Y-106094208D02*
X132278049Y-106047044D01*
X132318733Y-109927791D02*
X132361681Y-109882681D01*
X132318733Y-149528208D02*
X132278049Y-149481044D01*
X132318733Y-153361791D02*
X132361681Y-153316681D01*
X132318733Y-168808208D02*
X132278049Y-168761044D01*
X132361681Y-25451681D02*
X132406791Y-25408733D01*
X132361681Y-62705318D02*
X132318733Y-62660208D01*
X132361681Y-66448681D02*
X132406791Y-66405733D01*
X132361681Y-106139318D02*
X132318733Y-106094208D01*
X132361681Y-109882681D02*
X132406791Y-109839733D01*
X132361681Y-149573318D02*
X132318733Y-149528208D01*
X132361681Y-153316681D02*
X132406791Y-153273733D01*
X132361681Y-168853318D02*
X132318733Y-168808208D01*
X132406791Y-25408733D02*
X132453955Y-25368049D01*
X132406791Y-62748266D02*
X132361681Y-62705318D01*
X132406791Y-66405733D02*
X132453955Y-66365049D01*
X132406791Y-106182266D02*
X132361681Y-106139318D01*
X132406791Y-109839733D02*
X132453955Y-109799049D01*
X132406791Y-149616266D02*
X132361681Y-149573318D01*
X132406791Y-153273733D02*
X132453955Y-153233049D01*
X132406791Y-168896266D02*
X132361681Y-168853318D01*
X132453955Y-25368049D02*
X132503057Y-25329729D01*
X132453955Y-62788950D02*
X132406791Y-62748266D01*
X132453955Y-66365049D02*
X132503057Y-66326729D01*
X132453955Y-106222950D02*
X132406791Y-106182266D01*
X132453955Y-109799049D02*
X132503057Y-109760729D01*
X132453955Y-149656950D02*
X132406791Y-149616266D01*
X132453955Y-153233049D02*
X132503057Y-153194729D01*
X132453955Y-168936950D02*
X132406791Y-168896266D01*
X132503057Y-25329729D02*
X132553981Y-25293865D01*
X132503057Y-62827270D02*
X132453955Y-62788950D01*
X132503057Y-66326729D02*
X132553981Y-66290865D01*
X132503057Y-106261270D02*
X132453955Y-106222950D01*
X132503057Y-109760729D02*
X132553981Y-109724865D01*
X132503057Y-149695270D02*
X132453955Y-149656950D01*
X132503057Y-153194729D02*
X132553981Y-153158865D01*
X132503057Y-168975270D02*
X132453955Y-168936950D01*
X132553981Y-25293865D02*
X132606603Y-25260542D01*
X132553981Y-62863134D02*
X132503057Y-62827270D01*
X132553981Y-66290865D02*
X132606603Y-66257542D01*
X132553981Y-106297134D02*
X132503057Y-106261270D01*
X132553981Y-109724865D02*
X132606603Y-109691542D01*
X132553981Y-149731134D02*
X132503057Y-149695270D01*
X132553981Y-153158865D02*
X132606603Y-153125542D01*
X132553981Y-169011134D02*
X132503057Y-168975270D01*
X132606603Y-25260542D02*
X132660797Y-25229842D01*
X132606603Y-62896457D02*
X132553981Y-62863134D01*
X132606603Y-66257542D02*
X132660797Y-66226842D01*
X132606603Y-106330457D02*
X132553981Y-106297134D01*
X132606603Y-109691542D02*
X132660797Y-109660842D01*
X132606603Y-149764457D02*
X132553981Y-149731134D01*
X132606603Y-153125542D02*
X132660797Y-153094842D01*
X132606603Y-169044457D02*
X132553981Y-169011134D01*
X132660797Y-25229842D02*
X132716432Y-25201837D01*
X132660797Y-62927157D02*
X132606603Y-62896457D01*
X132660797Y-66226842D02*
X132716432Y-66198837D01*
X132660797Y-106361157D02*
X132606603Y-106330457D01*
X132660797Y-109660842D02*
X132716432Y-109632837D01*
X132660797Y-149795157D02*
X132606603Y-149764457D01*
X132660797Y-153094842D02*
X132716432Y-153066837D01*
X132660797Y-169075157D02*
X132606603Y-169044457D01*
X132716432Y-25201837D02*
X132773374Y-25176597D01*
X132716432Y-62955162D02*
X132660797Y-62927157D01*
X132716432Y-66198837D02*
X132773374Y-66173597D01*
X132716432Y-106389162D02*
X132660797Y-106361157D01*
X132716432Y-109632837D02*
X132773374Y-109607597D01*
X132716432Y-149823162D02*
X132660797Y-149795157D01*
X132716432Y-153066837D02*
X132773374Y-153041597D01*
X132716432Y-169103162D02*
X132660797Y-169075157D01*
X132773374Y-25176597D02*
X132831486Y-25154180D01*
X132773374Y-62980402D02*
X132716432Y-62955162D01*
X132773374Y-66173597D02*
X132831486Y-66151180D01*
X132773374Y-106414402D02*
X132716432Y-106389162D01*
X132773374Y-109607597D02*
X132831486Y-109585180D01*
X132773374Y-149848402D02*
X132716432Y-149823162D01*
X132773374Y-153041597D02*
X132831486Y-153019180D01*
X132773374Y-169128402D02*
X132716432Y-169103162D01*
X132831486Y-25154180D02*
X132890628Y-25134643D01*
X132831486Y-63002819D02*
X132773374Y-62980402D01*
X132831486Y-66151180D02*
X132890628Y-66131643D01*
X132831486Y-106436819D02*
X132773374Y-106414402D01*
X132831486Y-109585180D02*
X132890628Y-109565643D01*
X132831486Y-149870819D02*
X132773374Y-149848402D01*
X132831486Y-153019180D02*
X132890628Y-152999643D01*
X132831486Y-169150819D02*
X132773374Y-169128402D01*
X132890628Y-25134643D02*
X132950658Y-25118030D01*
X132890628Y-63022356D02*
X132831486Y-63002819D01*
X132890628Y-66131643D02*
X132950658Y-66115030D01*
X132890628Y-106456356D02*
X132831486Y-106436819D01*
X132890628Y-109565643D02*
X132950658Y-109549030D01*
X132890628Y-149890356D02*
X132831486Y-149870819D01*
X132890628Y-152999643D02*
X132950658Y-152983030D01*
X132890628Y-169170356D02*
X132831486Y-169150819D01*
X132950658Y-25118030D02*
X133011430Y-25104383D01*
X132950658Y-63038969D02*
X132890628Y-63022356D01*
X132950658Y-66115030D02*
X133011430Y-66101383D01*
X132950658Y-106472969D02*
X132890628Y-106456356D01*
X132950658Y-109549030D02*
X133011430Y-109535383D01*
X132950658Y-149906969D02*
X132890628Y-149890356D01*
X132950658Y-152983030D02*
X133011430Y-152969383D01*
X132950658Y-169186969D02*
X132890628Y-169170356D01*
X133011430Y-25104383D02*
X133072799Y-25093735D01*
X133011430Y-63052616D02*
X132950658Y-63038969D01*
X133011430Y-66101383D02*
X133072799Y-66090735D01*
X133011430Y-106486616D02*
X132950658Y-106472969D01*
X133011430Y-109535383D02*
X133072799Y-109524735D01*
X133011430Y-149920616D02*
X132950658Y-149906969D01*
X133011430Y-152969383D02*
X133072799Y-152958735D01*
X133011430Y-169200616D02*
X132950658Y-169186969D01*
X133072799Y-25093735D02*
X133134616Y-25086110D01*
X133072799Y-63063264D02*
X133011430Y-63052616D01*
X133072799Y-66090735D02*
X133134616Y-66083110D01*
X133072799Y-106497264D02*
X133011430Y-106486616D01*
X133072799Y-109524735D02*
X133134616Y-109517110D01*
X133072799Y-149931264D02*
X133011430Y-149920616D01*
X133072799Y-152958735D02*
X133134616Y-152951110D01*
X133072799Y-169211264D02*
X133011430Y-169200616D01*
X133134616Y-25086110D02*
X133196733Y-25081528D01*
X133134616Y-63070889D02*
X133072799Y-63063264D01*
X133134616Y-66083110D02*
X133196733Y-66078528D01*
X133134616Y-106504889D02*
X133072799Y-106497264D01*
X133134616Y-109517110D02*
X133196733Y-109512528D01*
X133134616Y-149938889D02*
X133072799Y-149931264D01*
X133134616Y-152951110D02*
X133196733Y-152946528D01*
X133134616Y-169218889D02*
X133072799Y-169211264D01*
X133196733Y-25081528D02*
X133259012Y-25080000D01*
X133196733Y-63075471D02*
X133134616Y-63070889D01*
X133196733Y-66078528D02*
X133259012Y-66077000D01*
X133196733Y-106509471D02*
X133134616Y-106504889D01*
X133196733Y-109512528D02*
X133259012Y-109511000D01*
X133196733Y-149943471D02*
X133134616Y-149938889D01*
X133196733Y-152946528D02*
X133259012Y-152945000D01*
X133196733Y-169223471D02*
X133134616Y-169218889D01*
X133259012Y-25080000D02*
X163740987Y-25080000D01*
X133259012Y-63077000D02*
X133196733Y-63075471D01*
X133259012Y-66077000D02*
X133260987Y-66077000D01*
X133259012Y-106511000D02*
X133196733Y-106509471D01*
X133259012Y-109511000D02*
X133260987Y-109511000D01*
X133259012Y-149945000D02*
X133196733Y-149943471D01*
X133259012Y-152945000D02*
X133260987Y-152945000D01*
X133259012Y-169225000D02*
X133196733Y-169223471D01*
X133260987Y-63077000D02*
X133259012Y-63077000D01*
X133260987Y-66077000D02*
X133323266Y-66078528D01*
X133260987Y-106511000D02*
X133259012Y-106511000D01*
X133260987Y-109511000D02*
X133323266Y-109512528D01*
X133260987Y-149945000D02*
X133259012Y-149945000D01*
X133260987Y-152945000D02*
X133323266Y-152946528D01*
X133323266Y-63075471D02*
X133260987Y-63077000D01*
X133323266Y-66078528D02*
X133385383Y-66083110D01*
X133323266Y-106509471D02*
X133260987Y-106511000D01*
X133323266Y-109512528D02*
X133385383Y-109517110D01*
X133323266Y-149943471D02*
X133260987Y-149945000D01*
X133323266Y-152946528D02*
X133385383Y-152951110D01*
X133385383Y-63070889D02*
X133323266Y-63075471D01*
X133385383Y-66083110D02*
X133447200Y-66090735D01*
X133385383Y-106504889D02*
X133323266Y-106509471D01*
X133385383Y-109517110D02*
X133447200Y-109524735D01*
X133385383Y-149938889D02*
X133323266Y-149943471D01*
X133385383Y-152951110D02*
X133447200Y-152958735D01*
X133447200Y-63063264D02*
X133385383Y-63070889D01*
X133447200Y-66090735D02*
X133508569Y-66101383D01*
X133447200Y-106497264D02*
X133385383Y-106504889D01*
X133447200Y-109524735D02*
X133508569Y-109535383D01*
X133447200Y-149931264D02*
X133385383Y-149938889D01*
X133447200Y-152958735D02*
X133508569Y-152969383D01*
X133508569Y-63052616D02*
X133447200Y-63063264D01*
X133508569Y-66101383D02*
X133569341Y-66115030D01*
X133508569Y-106486616D02*
X133447200Y-106497264D01*
X133508569Y-109535383D02*
X133569341Y-109549030D01*
X133508569Y-149920616D02*
X133447200Y-149931264D01*
X133508569Y-152969383D02*
X133569341Y-152983030D01*
X133569341Y-63038969D02*
X133508569Y-63052616D01*
X133569341Y-66115030D02*
X133629371Y-66131643D01*
X133569341Y-106472969D02*
X133508569Y-106486616D01*
X133569341Y-109549030D02*
X133629371Y-109565643D01*
X133569341Y-149906969D02*
X133508569Y-149920616D01*
X133569341Y-152983030D02*
X133629371Y-152999643D01*
X133629371Y-63022356D02*
X133569341Y-63038969D01*
X133629371Y-66131643D02*
X133688513Y-66151180D01*
X133629371Y-106456356D02*
X133569341Y-106472969D01*
X133629371Y-109565643D02*
X133688513Y-109585180D01*
X133629371Y-149890356D02*
X133569341Y-149906969D01*
X133629371Y-152999643D02*
X133688513Y-153019180D01*
X133688513Y-63002819D02*
X133629371Y-63022356D01*
X133688513Y-66151180D02*
X133746625Y-66173597D01*
X133688513Y-106436819D02*
X133629371Y-106456356D01*
X133688513Y-109585180D02*
X133746625Y-109607597D01*
X133688513Y-149870819D02*
X133629371Y-149890356D01*
X133688513Y-153019180D02*
X133746625Y-153041597D01*
X133746625Y-62980402D02*
X133688513Y-63002819D01*
X133746625Y-66173597D02*
X133803567Y-66198837D01*
X133746625Y-106414402D02*
X133688513Y-106436819D01*
X133746625Y-109607597D02*
X133803567Y-109632837D01*
X133746625Y-149848402D02*
X133688513Y-149870819D01*
X133746625Y-153041597D02*
X133803567Y-153066837D01*
X133803567Y-62955162D02*
X133746625Y-62980402D01*
X133803567Y-66198837D02*
X133859202Y-66226842D01*
X133803567Y-106389162D02*
X133746625Y-106414402D01*
X133803567Y-109632837D02*
X133859202Y-109660842D01*
X133803567Y-149823162D02*
X133746625Y-149848402D01*
X133803567Y-153066837D02*
X133859202Y-153094842D01*
X133859202Y-62927157D02*
X133803567Y-62955162D01*
X133859202Y-66226842D02*
X133913396Y-66257542D01*
X133859202Y-106361157D02*
X133803567Y-106389162D01*
X133859202Y-109660842D02*
X133913396Y-109691542D01*
X133859202Y-149795157D02*
X133803567Y-149823162D01*
X133859202Y-153094842D02*
X133913396Y-153125542D01*
X133913396Y-62896457D02*
X133859202Y-62927157D01*
X133913396Y-66257542D02*
X133966018Y-66290865D01*
X133913396Y-106330457D02*
X133859202Y-106361157D01*
X133913396Y-109691542D02*
X133966018Y-109724865D01*
X133913396Y-149764457D02*
X133859202Y-149795157D01*
X133913396Y-153125542D02*
X133966018Y-153158865D01*
X133966018Y-62863134D02*
X133913396Y-62896457D01*
X133966018Y-66290865D02*
X134016942Y-66326729D01*
X133966018Y-106297134D02*
X133913396Y-106330457D01*
X133966018Y-109724865D02*
X134016942Y-109760729D01*
X133966018Y-149731134D02*
X133913396Y-149764457D01*
X133966018Y-153158865D02*
X134016942Y-153194729D01*
X134016942Y-62827270D02*
X133966018Y-62863134D01*
X134016942Y-66326729D02*
X134066044Y-66365049D01*
X134016942Y-106261270D02*
X133966018Y-106297134D01*
X134016942Y-109760729D02*
X134066044Y-109799049D01*
X134016942Y-149695270D02*
X133966018Y-149731134D01*
X134016942Y-153194729D02*
X134066044Y-153233049D01*
X134066044Y-62788950D02*
X134016942Y-62827270D01*
X134066044Y-66365049D02*
X134113208Y-66405733D01*
X134066044Y-106222950D02*
X134016942Y-106261270D01*
X134066044Y-109799049D02*
X134113208Y-109839733D01*
X134066044Y-149656950D02*
X134016942Y-149695270D01*
X134066044Y-153233049D02*
X134113208Y-153273733D01*
X134113208Y-62748266D02*
X134066044Y-62788950D01*
X134113208Y-66405733D02*
X134158318Y-66448681D01*
X134113208Y-106182266D02*
X134066044Y-106222950D01*
X134113208Y-109839733D02*
X134158318Y-109882681D01*
X134113208Y-149616266D02*
X134066044Y-149656950D01*
X134113208Y-153273733D02*
X134158318Y-153316681D01*
X134158318Y-62705318D02*
X134113208Y-62748266D01*
X134158318Y-66448681D02*
X134201266Y-66493791D01*
X134158318Y-106139318D02*
X134113208Y-106182266D01*
X134158318Y-109882681D02*
X134201266Y-109927791D01*
X134158318Y-149573318D02*
X134113208Y-149616266D01*
X134158318Y-153316681D02*
X134201266Y-153361791D01*
X134201266Y-62660208D02*
X134158318Y-62705318D01*
X134201266Y-66493791D02*
X134241950Y-66540955D01*
X134201266Y-106094208D02*
X134158318Y-106139318D01*
X134201266Y-109927791D02*
X134241950Y-109974955D01*
X134201266Y-149528208D02*
X134158318Y-149573318D01*
X134201266Y-153361791D02*
X134241950Y-153408955D01*
X134241950Y-62613044D02*
X134201266Y-62660208D01*
X134241950Y-66540955D02*
X134280270Y-66590057D01*
X134241950Y-106047044D02*
X134201266Y-106094208D01*
X134241950Y-109974955D02*
X134280270Y-110024057D01*
X134241950Y-149481044D02*
X134201266Y-149528208D01*
X134241950Y-153408955D02*
X134280270Y-153458057D01*
X134280270Y-62563942D02*
X134241950Y-62613044D01*
X134280270Y-66590057D02*
X134316134Y-66640981D01*
X134280270Y-105997942D02*
X134241950Y-106047044D01*
X134280270Y-110024057D02*
X134316134Y-110074981D01*
X134280270Y-149431942D02*
X134241950Y-149481044D01*
X134280270Y-153458057D02*
X134316134Y-153508981D01*
X134316134Y-62513018D02*
X134280270Y-62563942D01*
X134316134Y-66640981D02*
X134349457Y-66693603D01*
X134316134Y-105947018D02*
X134280270Y-105997942D01*
X134316134Y-110074981D02*
X134349457Y-110127603D01*
X134316134Y-149381018D02*
X134280270Y-149431942D01*
X134316134Y-153508981D02*
X134349457Y-153561603D01*
X134349457Y-62460396D02*
X134316134Y-62513018D01*
X134349457Y-66693603D02*
X134380157Y-66747797D01*
X134349457Y-105894396D02*
X134316134Y-105947018D01*
X134349457Y-110127603D02*
X134380157Y-110181797D01*
X134349457Y-149328396D02*
X134316134Y-149381018D01*
X134349457Y-153561603D02*
X134380157Y-153615797D01*
X134380157Y-62406202D02*
X134349457Y-62460396D01*
X134380157Y-66747797D02*
X134408162Y-66803432D01*
X134380157Y-105840202D02*
X134349457Y-105894396D01*
X134380157Y-110181797D02*
X134408162Y-110237432D01*
X134380157Y-149274202D02*
X134349457Y-149328396D01*
X134380157Y-153615797D02*
X134408162Y-153671432D01*
X134408162Y-62350567D02*
X134380157Y-62406202D01*
X134408162Y-66803432D02*
X134433402Y-66860374D01*
X134408162Y-105784567D02*
X134380157Y-105840202D01*
X134408162Y-110237432D02*
X134433402Y-110294374D01*
X134408162Y-149218567D02*
X134380157Y-149274202D01*
X134408162Y-153671432D02*
X134433402Y-153728374D01*
X134433402Y-62293625D02*
X134408162Y-62350567D01*
X134433402Y-66860374D02*
X134455819Y-66918486D01*
X134433402Y-105727625D02*
X134408162Y-105784567D01*
X134433402Y-110294374D02*
X134455819Y-110352486D01*
X134433402Y-149161625D02*
X134408162Y-149218567D01*
X134433402Y-153728374D02*
X134455819Y-153786486D01*
X134455819Y-62235513D02*
X134433402Y-62293625D01*
X134455819Y-66918486D02*
X134475356Y-66977628D01*
X134455819Y-105669513D02*
X134433402Y-105727625D01*
X134455819Y-110352486D02*
X134475356Y-110411628D01*
X134455819Y-149103513D02*
X134433402Y-149161625D01*
X134455819Y-153786486D02*
X134475356Y-153845628D01*
X134475356Y-62176371D02*
X134455819Y-62235513D01*
X134475356Y-66977628D02*
X134491969Y-67037658D01*
X134475356Y-105610371D02*
X134455819Y-105669513D01*
X134475356Y-110411628D02*
X134491969Y-110471658D01*
X134475356Y-149044371D02*
X134455819Y-149103513D01*
X134475356Y-153845628D02*
X134491969Y-153905658D01*
X134491969Y-62116341D02*
X134475356Y-62176371D01*
X134491969Y-67037658D02*
X134505616Y-67098430D01*
X134491969Y-105550341D02*
X134475356Y-105610371D01*
X134491969Y-110471658D02*
X134505616Y-110532430D01*
X134491969Y-148984341D02*
X134475356Y-149044371D01*
X134491969Y-153905658D02*
X134505616Y-153966430D01*
X134505616Y-62055569D02*
X134491969Y-62116341D01*
X134505616Y-67098430D02*
X134516264Y-67159799D01*
X134505616Y-105489569D02*
X134491969Y-105550341D01*
X134505616Y-110532430D02*
X134516264Y-110593799D01*
X134505616Y-148923569D02*
X134491969Y-148984341D01*
X134505616Y-153966430D02*
X134516264Y-154027799D01*
X134516264Y-61994200D02*
X134505616Y-62055569D01*
X134516264Y-67159799D02*
X134523889Y-67221616D01*
X134516264Y-105428200D02*
X134505616Y-105489569D01*
X134516264Y-110593799D02*
X134523889Y-110655616D01*
X134516264Y-148862200D02*
X134505616Y-148923569D01*
X134516264Y-154027799D02*
X134523889Y-154089616D01*
X134523889Y-61932383D02*
X134516264Y-61994200D01*
X134523889Y-67221616D02*
X134528471Y-67283733D01*
X134523889Y-105366383D02*
X134516264Y-105428200D01*
X134523889Y-110655616D02*
X134528471Y-110717733D01*
X134523889Y-148800383D02*
X134516264Y-148862200D01*
X134523889Y-154089616D02*
X134528471Y-154151733D01*
X134528471Y-61870266D02*
X134523889Y-61932383D01*
X134528471Y-67283733D02*
X134530000Y-67346012D01*
X134528471Y-105304266D02*
X134523889Y-105366383D01*
X134528471Y-110717733D02*
X134530000Y-110780012D01*
X134528471Y-148738266D02*
X134523889Y-148800383D01*
X134528471Y-154151733D02*
X134530000Y-154214012D01*
X134530000Y-27635586D02*
X134530000Y-58084413D01*
X134530000Y-58084438D02*
X134530349Y-58098675D01*
X134530000Y-60655586D02*
X134530000Y-61807987D01*
X134530000Y-61807987D02*
X134528471Y-61870266D01*
X134530000Y-67346012D02*
X134530000Y-68498413D01*
X134530000Y-68498438D02*
X134530349Y-68512675D01*
X134530000Y-71069586D02*
X134530000Y-101518413D01*
X134530000Y-101518438D02*
X134530349Y-101532675D01*
X134530000Y-104089586D02*
X134530000Y-105241987D01*
X134530000Y-105241987D02*
X134528471Y-105304266D01*
X134530000Y-110780012D02*
X134530000Y-111932413D01*
X134530000Y-111932438D02*
X134530349Y-111946675D01*
X134530000Y-114503586D02*
X134530000Y-144952413D01*
X134530000Y-144952438D02*
X134530349Y-144966675D01*
X134530000Y-147523586D02*
X134530000Y-148675987D01*
X134530000Y-148675987D02*
X134528471Y-148738266D01*
X134530000Y-154214012D02*
X134530000Y-155366413D01*
X134530000Y-155366438D02*
X134530349Y-155380675D01*
X134530349Y-27621324D02*
X134530000Y-27635561D01*
X134530349Y-60641324D02*
X134530000Y-60655561D01*
X134530349Y-71055324D02*
X134530000Y-71069561D01*
X134530349Y-104075324D02*
X134530000Y-104089561D01*
X134530349Y-114489324D02*
X134530000Y-114503561D01*
X134530349Y-147509324D02*
X134530000Y-147523561D01*
X134531324Y-58099650D02*
X134545561Y-58099999D01*
X134531324Y-68513650D02*
X134545561Y-68513999D01*
X134531324Y-101533650D02*
X134545561Y-101533999D01*
X134531324Y-111947650D02*
X134545561Y-111947999D01*
X134531324Y-144967650D02*
X134545561Y-144967999D01*
X134531324Y-155381650D02*
X134545561Y-155381999D01*
X134545561Y-27620000D02*
X134531324Y-27620349D01*
X134545561Y-60640000D02*
X134531324Y-60640349D01*
X134545561Y-71054000D02*
X134531324Y-71054349D01*
X134545561Y-104074000D02*
X134531324Y-104074349D01*
X134545561Y-114488000D02*
X134531324Y-114488349D01*
X134545561Y-147508000D02*
X134531324Y-147508349D01*
X134545586Y-58100000D02*
X137054413Y-58100000D01*
X134545586Y-68514000D02*
X158660987Y-68514000D01*
X134545586Y-101534000D02*
X137054413Y-101534000D01*
X134545586Y-111948000D02*
X158660987Y-111948000D01*
X134545586Y-144968000D02*
X137054413Y-144968000D01*
X134545586Y-155382000D02*
X158660987Y-155382000D01*
X137054413Y-27620000D02*
X134545586Y-27620000D01*
X137054413Y-71054000D02*
X134545586Y-71054000D01*
X137054413Y-114488000D02*
X134545586Y-114488000D01*
X137054438Y-58099999D02*
X137068675Y-58099650D01*
X137054438Y-101533999D02*
X137068675Y-101533650D01*
X137054438Y-144967999D02*
X137068675Y-144967650D01*
X137068675Y-27620349D02*
X137054438Y-27620000D01*
X137068675Y-71054349D02*
X137054438Y-71054000D01*
X137068675Y-114488349D02*
X137054438Y-114488000D01*
X137069650Y-58098675D02*
X137069999Y-58084438D01*
X137069650Y-101532675D02*
X137069999Y-101518438D01*
X137069650Y-144966675D02*
X137069999Y-144952438D01*
X137069999Y-27635561D02*
X137069650Y-27621324D01*
X137070000Y-37653987D02*
X137070000Y-27635586D01*
X137070000Y-48066012D02*
X137071528Y-48003733D01*
X137070000Y-58084413D02*
X137070000Y-48066012D01*
X137069999Y-71069561D02*
X137069650Y-71055324D01*
X137070000Y-81087987D02*
X137070000Y-71069586D01*
X137070000Y-91500012D02*
X137071528Y-91437733D01*
X137070000Y-101518413D02*
X137070000Y-91500012D01*
X137069999Y-114503561D02*
X137069650Y-114489324D01*
X137070000Y-124521987D02*
X137070000Y-114503586D01*
X137070000Y-134934012D02*
X137071528Y-134871733D01*
X137070000Y-144952413D02*
X137070000Y-134934012D01*
X137071528Y-37716266D02*
X137070000Y-37653987D01*
X137071528Y-48003733D02*
X137076110Y-47941616D01*
X137071528Y-81150266D02*
X137070000Y-81087987D01*
X137071528Y-91437733D02*
X137076110Y-91375616D01*
X137071528Y-124584266D02*
X137070000Y-124521987D01*
X137071528Y-134871733D02*
X137076110Y-134809616D01*
X137076110Y-37778383D02*
X137071528Y-37716266D01*
X137076110Y-47941616D02*
X137083735Y-47879799D01*
X137076110Y-81212383D02*
X137071528Y-81150266D01*
X137076110Y-91375616D02*
X137083735Y-91313799D01*
X137076110Y-124646383D02*
X137071528Y-124584266D01*
X137076110Y-134809616D02*
X137083735Y-134747799D01*
X137083735Y-37840200D02*
X137076110Y-37778383D01*
X137083735Y-47879799D02*
X137094383Y-47818430D01*
X137083735Y-81274200D02*
X137076110Y-81212383D01*
X137083735Y-91313799D02*
X137094383Y-91252430D01*
X137083735Y-124708200D02*
X137076110Y-124646383D01*
X137083735Y-134747799D02*
X137094383Y-134686430D01*
X137094383Y-37901569D02*
X137083735Y-37840200D01*
X137094383Y-47818430D02*
X137108030Y-47757658D01*
X137094383Y-81335569D02*
X137083735Y-81274200D01*
X137094383Y-91252430D02*
X137108030Y-91191658D01*
X137094383Y-124769569D02*
X137083735Y-124708200D01*
X137094383Y-134686430D02*
X137108030Y-134625658D01*
X137108030Y-37962341D02*
X137094383Y-37901569D01*
X137108030Y-47757658D02*
X137124643Y-47697628D01*
X137108030Y-81396341D02*
X137094383Y-81335569D01*
X137108030Y-91191658D02*
X137124643Y-91131628D01*
X137108030Y-124830341D02*
X137094383Y-124769569D01*
X137108030Y-134625658D02*
X137124643Y-134565628D01*
X137124643Y-38022371D02*
X137108030Y-37962341D01*
X137124643Y-47697628D02*
X137144180Y-47638486D01*
X137124643Y-81456371D02*
X137108030Y-81396341D01*
X137124643Y-91131628D02*
X137144180Y-91072486D01*
X137124643Y-124890371D02*
X137108030Y-124830341D01*
X137124643Y-134565628D02*
X137144180Y-134506486D01*
X137144180Y-38081513D02*
X137124643Y-38022371D01*
X137144180Y-47638486D02*
X137166597Y-47580374D01*
X137144180Y-81515513D02*
X137124643Y-81456371D01*
X137144180Y-91072486D02*
X137166597Y-91014374D01*
X137144180Y-124949513D02*
X137124643Y-124890371D01*
X137144180Y-134506486D02*
X137166597Y-134448374D01*
X137166597Y-38139625D02*
X137144180Y-38081513D01*
X137166597Y-47580374D02*
X137191837Y-47523432D01*
X137166597Y-81573625D02*
X137144180Y-81515513D01*
X137166597Y-91014374D02*
X137191837Y-90957432D01*
X137166597Y-125007625D02*
X137144180Y-124949513D01*
X137166597Y-134448374D02*
X137191837Y-134391432D01*
X137191837Y-38196567D02*
X137166597Y-38139625D01*
X137191837Y-47523432D02*
X137219842Y-47467797D01*
X137191837Y-81630567D02*
X137166597Y-81573625D01*
X137191837Y-90957432D02*
X137219842Y-90901797D01*
X137191837Y-125064567D02*
X137166597Y-125007625D01*
X137191837Y-134391432D02*
X137219842Y-134335797D01*
X137219842Y-38252202D02*
X137191837Y-38196567D01*
X137219842Y-47467797D02*
X137250542Y-47413603D01*
X137219842Y-81686202D02*
X137191837Y-81630567D01*
X137219842Y-90901797D02*
X137250542Y-90847603D01*
X137219842Y-125120202D02*
X137191837Y-125064567D01*
X137219842Y-134335797D02*
X137250542Y-134281603D01*
X137250542Y-38306396D02*
X137219842Y-38252202D01*
X137250542Y-47413603D02*
X137283865Y-47360981D01*
X137250542Y-81740396D02*
X137219842Y-81686202D01*
X137250542Y-90847603D02*
X137283865Y-90794981D01*
X137250542Y-125174396D02*
X137219842Y-125120202D01*
X137250542Y-134281603D02*
X137283865Y-134228981D01*
X137283865Y-38359018D02*
X137250542Y-38306396D01*
X137283865Y-47360981D02*
X137319729Y-47310057D01*
X137283865Y-81793018D02*
X137250542Y-81740396D01*
X137283865Y-90794981D02*
X137319729Y-90744057D01*
X137283865Y-125227018D02*
X137250542Y-125174396D01*
X137283865Y-134228981D02*
X137319729Y-134178057D01*
X137319729Y-38409942D02*
X137283865Y-38359018D01*
X137319729Y-47310057D02*
X137358049Y-47260955D01*
X137319729Y-81843942D02*
X137283865Y-81793018D01*
X137319729Y-90744057D02*
X137358049Y-90694955D01*
X137319729Y-125277942D02*
X137283865Y-125227018D01*
X137319729Y-134178057D02*
X137358049Y-134128955D01*
X137358049Y-38459044D02*
X137319729Y-38409942D01*
X137358049Y-47260955D02*
X137398733Y-47213791D01*
X137358049Y-81893044D02*
X137319729Y-81843942D01*
X137358049Y-90694955D02*
X137398733Y-90647791D01*
X137358049Y-125327044D02*
X137319729Y-125277942D01*
X137358049Y-134128955D02*
X137398733Y-134081791D01*
X137398733Y-38506208D02*
X137358049Y-38459044D01*
X137398733Y-47213791D02*
X137441681Y-47168681D01*
X137398733Y-81940208D02*
X137358049Y-81893044D01*
X137398733Y-90647791D02*
X137441681Y-90602681D01*
X137398733Y-125374208D02*
X137358049Y-125327044D01*
X137398733Y-134081791D02*
X137441681Y-134036681D01*
X137441681Y-38551318D02*
X137398733Y-38506208D01*
X137441681Y-47168681D02*
X137486791Y-47125733D01*
X137441681Y-81985318D02*
X137398733Y-81940208D01*
X137441681Y-90602681D02*
X137486791Y-90559733D01*
X137441681Y-125419318D02*
X137398733Y-125374208D01*
X137441681Y-134036681D02*
X137486791Y-133993733D01*
X137486791Y-38594266D02*
X137441681Y-38551318D01*
X137486791Y-47125733D02*
X137533955Y-47085049D01*
X137486791Y-82028266D02*
X137441681Y-81985318D01*
X137486791Y-90559733D02*
X137533955Y-90519049D01*
X137486791Y-125462266D02*
X137441681Y-125419318D01*
X137486791Y-133993733D02*
X137533955Y-133953049D01*
X137533955Y-38634950D02*
X137486791Y-38594266D01*
X137533955Y-47085049D02*
X137583057Y-47046729D01*
X137533955Y-82068950D02*
X137486791Y-82028266D01*
X137533955Y-90519049D02*
X137583057Y-90480729D01*
X137533955Y-125502950D02*
X137486791Y-125462266D01*
X137533955Y-133953049D02*
X137583057Y-133914729D01*
X137583057Y-38673270D02*
X137533955Y-38634950D01*
X137583057Y-47046729D02*
X137633981Y-47010865D01*
X137583057Y-82107270D02*
X137533955Y-82068950D01*
X137583057Y-90480729D02*
X137633981Y-90444865D01*
X137583057Y-125541270D02*
X137533955Y-125502950D01*
X137583057Y-133914729D02*
X137633981Y-133878865D01*
X137633981Y-38709134D02*
X137583057Y-38673270D01*
X137633981Y-47010865D02*
X137686603Y-46977542D01*
X137633981Y-82143134D02*
X137583057Y-82107270D01*
X137633981Y-90444865D02*
X137686603Y-90411542D01*
X137633981Y-125577134D02*
X137583057Y-125541270D01*
X137633981Y-133878865D02*
X137686603Y-133845542D01*
X137686603Y-38742457D02*
X137633981Y-38709134D01*
X137686603Y-46977542D02*
X137740797Y-46946842D01*
X137686603Y-82176457D02*
X137633981Y-82143134D01*
X137686603Y-90411542D02*
X137740797Y-90380842D01*
X137686603Y-125610457D02*
X137633981Y-125577134D01*
X137686603Y-133845542D02*
X137740797Y-133814842D01*
X137740797Y-38773157D02*
X137686603Y-38742457D01*
X137740797Y-46946842D02*
X137796432Y-46918837D01*
X137740797Y-82207157D02*
X137686603Y-82176457D01*
X137740797Y-90380842D02*
X137796432Y-90352837D01*
X137740797Y-125641157D02*
X137686603Y-125610457D01*
X137740797Y-133814842D02*
X137796432Y-133786837D01*
X137796432Y-38801162D02*
X137740797Y-38773157D01*
X137796432Y-46918837D02*
X137853374Y-46893597D01*
X137796432Y-82235162D02*
X137740797Y-82207157D01*
X137796432Y-90352837D02*
X137853374Y-90327597D01*
X137796432Y-125669162D02*
X137740797Y-125641157D01*
X137796432Y-133786837D02*
X137853374Y-133761597D01*
X137853374Y-38826402D02*
X137796432Y-38801162D01*
X137853374Y-46893597D02*
X137911486Y-46871180D01*
X137853374Y-82260402D02*
X137796432Y-82235162D01*
X137853374Y-90327597D02*
X137911486Y-90305180D01*
X137853374Y-125694402D02*
X137796432Y-125669162D01*
X137853374Y-133761597D02*
X137911486Y-133739180D01*
X137911486Y-38848819D02*
X137853374Y-38826402D01*
X137911486Y-46871180D02*
X137970628Y-46851643D01*
X137911486Y-82282819D02*
X137853374Y-82260402D01*
X137911486Y-90305180D02*
X137970628Y-90285643D01*
X137911486Y-125716819D02*
X137853374Y-125694402D01*
X137911486Y-133739180D02*
X137970628Y-133719643D01*
X137970628Y-38868356D02*
X137911486Y-38848819D01*
X137970628Y-46851643D02*
X138030658Y-46835030D01*
X137970628Y-82302356D02*
X137911486Y-82282819D01*
X137970628Y-90285643D02*
X138030658Y-90269030D01*
X137970628Y-125736356D02*
X137911486Y-125716819D01*
X137970628Y-133719643D02*
X138030658Y-133703030D01*
X138030658Y-38884969D02*
X137970628Y-38868356D01*
X138030658Y-46835030D02*
X138091430Y-46821383D01*
X138030658Y-82318969D02*
X137970628Y-82302356D01*
X138030658Y-90269030D02*
X138091430Y-90255383D01*
X138030658Y-125752969D02*
X137970628Y-125736356D01*
X138030658Y-133703030D02*
X138091430Y-133689383D01*
X138091430Y-38898616D02*
X138030658Y-38884969D01*
X138091430Y-46821383D02*
X138152799Y-46810735D01*
X138091430Y-82332616D02*
X138030658Y-82318969D01*
X138091430Y-90255383D02*
X138152799Y-90244735D01*
X138091430Y-125766616D02*
X138030658Y-125752969D01*
X138091430Y-133689383D02*
X138152799Y-133678735D01*
X138152799Y-38909264D02*
X138091430Y-38898616D01*
X138152799Y-46810735D02*
X138214616Y-46803110D01*
X138152799Y-82343264D02*
X138091430Y-82332616D01*
X138152799Y-90244735D02*
X138214616Y-90237110D01*
X138152799Y-125777264D02*
X138091430Y-125766616D01*
X138152799Y-133678735D02*
X138214616Y-133671110D01*
X138214616Y-38916889D02*
X138152799Y-38909264D01*
X138214616Y-46803110D02*
X138276733Y-46798528D01*
X138214616Y-82350889D02*
X138152799Y-82343264D01*
X138214616Y-90237110D02*
X138276733Y-90232528D01*
X138214616Y-125784889D02*
X138152799Y-125777264D01*
X138214616Y-133671110D02*
X138276733Y-133666528D01*
X138276733Y-38921471D02*
X138214616Y-38916889D01*
X138276733Y-46798528D02*
X138339012Y-46797000D01*
X138276733Y-82355471D02*
X138214616Y-82350889D01*
X138276733Y-90232528D02*
X138339012Y-90231000D01*
X138276733Y-125789471D02*
X138214616Y-125784889D01*
X138276733Y-133666528D02*
X138339012Y-133665000D01*
X138339012Y-38923000D02*
X138276733Y-38921471D01*
X138339012Y-46797000D02*
X162454413Y-46797000D01*
X138339012Y-82357000D02*
X138276733Y-82355471D01*
X138339012Y-90231000D02*
X162454413Y-90231000D01*
X138339012Y-125791000D02*
X138276733Y-125789471D01*
X138339012Y-133665000D02*
X162454413Y-133665000D01*
X158660987Y-60640000D02*
X134545586Y-60640000D01*
X158660987Y-68514000D02*
X158723266Y-68515528D01*
X158660987Y-104074000D02*
X134545586Y-104074000D01*
X158660987Y-111948000D02*
X158723266Y-111949528D01*
X158660987Y-147508000D02*
X134545586Y-147508000D01*
X158660987Y-155382000D02*
X158723266Y-155383528D01*
X158723266Y-60638471D02*
X158660987Y-60640000D01*
X158723266Y-68515528D02*
X158785383Y-68520110D01*
X158723266Y-104072471D02*
X158660987Y-104074000D01*
X158723266Y-111949528D02*
X158785383Y-111954110D01*
X158723266Y-147506471D02*
X158660987Y-147508000D01*
X158723266Y-155383528D02*
X158785383Y-155388110D01*
X158785383Y-60633889D02*
X158723266Y-60638471D01*
X158785383Y-68520110D02*
X158847200Y-68527735D01*
X158785383Y-104067889D02*
X158723266Y-104072471D01*
X158785383Y-111954110D02*
X158847200Y-111961735D01*
X158785383Y-147501889D02*
X158723266Y-147506471D01*
X158785383Y-155388110D02*
X158847200Y-155395735D01*
X158847200Y-60626264D02*
X158785383Y-60633889D01*
X158847200Y-68527735D02*
X158908569Y-68538383D01*
X158847200Y-104060264D02*
X158785383Y-104067889D01*
X158847200Y-111961735D02*
X158908569Y-111972383D01*
X158847200Y-147494264D02*
X158785383Y-147501889D01*
X158847200Y-155395735D02*
X158908569Y-155406383D01*
X158908569Y-60615616D02*
X158847200Y-60626264D01*
X158908569Y-68538383D02*
X158969341Y-68552030D01*
X158908569Y-104049616D02*
X158847200Y-104060264D01*
X158908569Y-111972383D02*
X158969341Y-111986030D01*
X158908569Y-147483616D02*
X158847200Y-147494264D01*
X158908569Y-155406383D02*
X158969341Y-155420030D01*
X158969341Y-60601969D02*
X158908569Y-60615616D01*
X158969341Y-68552030D02*
X159029371Y-68568643D01*
X158969341Y-104035969D02*
X158908569Y-104049616D01*
X158969341Y-111986030D02*
X159029371Y-112002643D01*
X158969341Y-147469969D02*
X158908569Y-147483616D01*
X158969341Y-155420030D02*
X159029371Y-155436643D01*
X159029371Y-60585356D02*
X158969341Y-60601969D01*
X159029371Y-68568643D02*
X159088513Y-68588180D01*
X159029371Y-104019356D02*
X158969341Y-104035969D01*
X159029371Y-112002643D02*
X159088513Y-112022180D01*
X159029371Y-147453356D02*
X158969341Y-147469969D01*
X159029371Y-155436643D02*
X159088513Y-155456180D01*
X159088513Y-60565819D02*
X159029371Y-60585356D01*
X159088513Y-68588180D02*
X159146625Y-68610597D01*
X159088513Y-103999819D02*
X159029371Y-104019356D01*
X159088513Y-112022180D02*
X159146625Y-112044597D01*
X159088513Y-147433819D02*
X159029371Y-147453356D01*
X159088513Y-155456180D02*
X159146625Y-155478597D01*
X159146625Y-60543402D02*
X159088513Y-60565819D01*
X159146625Y-68610597D02*
X159203567Y-68635837D01*
X159146625Y-103977402D02*
X159088513Y-103999819D01*
X159146625Y-112044597D02*
X159203567Y-112069837D01*
X159146625Y-147411402D02*
X159088513Y-147433819D01*
X159146625Y-155478597D02*
X159203567Y-155503837D01*
X159203567Y-60518162D02*
X159146625Y-60543402D01*
X159203567Y-68635837D02*
X159259202Y-68663842D01*
X159203567Y-103952162D02*
X159146625Y-103977402D01*
X159203567Y-112069837D02*
X159259202Y-112097842D01*
X159203567Y-147386162D02*
X159146625Y-147411402D01*
X159203567Y-155503837D02*
X159259202Y-155531842D01*
X159259202Y-60490157D02*
X159203567Y-60518162D01*
X159259202Y-68663842D02*
X159313396Y-68694542D01*
X159259202Y-103924157D02*
X159203567Y-103952162D01*
X159259202Y-112097842D02*
X159313396Y-112128542D01*
X159259202Y-147358157D02*
X159203567Y-147386162D01*
X159259202Y-155531842D02*
X159313396Y-155562542D01*
X159313396Y-60459457D02*
X159259202Y-60490157D01*
X159313396Y-68694542D02*
X159366018Y-68727865D01*
X159313396Y-103893457D02*
X159259202Y-103924157D01*
X159313396Y-112128542D02*
X159366018Y-112161865D01*
X159313396Y-147327457D02*
X159259202Y-147358157D01*
X159313396Y-155562542D02*
X159366018Y-155595865D01*
X159366018Y-60426134D02*
X159313396Y-60459457D01*
X159366018Y-68727865D02*
X159416942Y-68763729D01*
X159366018Y-103860134D02*
X159313396Y-103893457D01*
X159366018Y-112161865D02*
X159416942Y-112197729D01*
X159366018Y-147294134D02*
X159313396Y-147327457D01*
X159366018Y-155595865D02*
X159416942Y-155631729D01*
X159416942Y-60390270D02*
X159366018Y-60426134D01*
X159416942Y-68763729D02*
X159466044Y-68802049D01*
X159416942Y-103824270D02*
X159366018Y-103860134D01*
X159416942Y-112197729D02*
X159466044Y-112236049D01*
X159416942Y-147258270D02*
X159366018Y-147294134D01*
X159416942Y-155631729D02*
X159466044Y-155670049D01*
X159466044Y-60351950D02*
X159416942Y-60390270D01*
X159466044Y-68802049D02*
X159513208Y-68842733D01*
X159466044Y-103785950D02*
X159416942Y-103824270D01*
X159466044Y-112236049D02*
X159513208Y-112276733D01*
X159466044Y-147219950D02*
X159416942Y-147258270D01*
X159466044Y-155670049D02*
X159513208Y-155710733D01*
X159513208Y-60311266D02*
X159466044Y-60351950D01*
X159513208Y-68842733D02*
X159558318Y-68885681D01*
X159513208Y-103745266D02*
X159466044Y-103785950D01*
X159513208Y-112276733D02*
X159558318Y-112319681D01*
X159513208Y-147179266D02*
X159466044Y-147219950D01*
X159513208Y-155710733D02*
X159558318Y-155753681D01*
X159558318Y-60268318D02*
X159513208Y-60311266D01*
X159558318Y-68885681D02*
X159601266Y-68930791D01*
X159558318Y-103702318D02*
X159513208Y-103745266D01*
X159558318Y-112319681D02*
X159601266Y-112364791D01*
X159558318Y-147136318D02*
X159513208Y-147179266D01*
X159558318Y-155753681D02*
X159601266Y-155798791D01*
X159601266Y-60223208D02*
X159558318Y-60268318D01*
X159601266Y-68930791D02*
X159641950Y-68977955D01*
X159601266Y-103657208D02*
X159558318Y-103702318D01*
X159601266Y-112364791D02*
X159641950Y-112411955D01*
X159601266Y-147091208D02*
X159558318Y-147136318D01*
X159601266Y-155798791D02*
X159641950Y-155845955D01*
X159641950Y-60176044D02*
X159601266Y-60223208D01*
X159641950Y-68977955D02*
X159680270Y-69027057D01*
X159641950Y-103610044D02*
X159601266Y-103657208D01*
X159641950Y-112411955D02*
X159680270Y-112461057D01*
X159641950Y-147044044D02*
X159601266Y-147091208D01*
X159641950Y-155845955D02*
X159680270Y-155895057D01*
X159680270Y-60126942D02*
X159641950Y-60176044D01*
X159680270Y-69027057D02*
X159716134Y-69077981D01*
X159680270Y-103560942D02*
X159641950Y-103610044D01*
X159680270Y-112461057D02*
X159716134Y-112511981D01*
X159680270Y-146994942D02*
X159641950Y-147044044D01*
X159680270Y-155895057D02*
X159716134Y-155945981D01*
X159716134Y-60076018D02*
X159680270Y-60126942D01*
X159716134Y-69077981D02*
X159749457Y-69130603D01*
X159716134Y-103510018D02*
X159680270Y-103560942D01*
X159716134Y-112511981D02*
X159749457Y-112564603D01*
X159716134Y-146944018D02*
X159680270Y-146994942D01*
X159716134Y-155945981D02*
X159749457Y-155998603D01*
X159749457Y-60023396D02*
X159716134Y-60076018D01*
X159749457Y-69130603D02*
X159780157Y-69184797D01*
X159749457Y-103457396D02*
X159716134Y-103510018D01*
X159749457Y-112564603D02*
X159780157Y-112618797D01*
X159749457Y-146891396D02*
X159716134Y-146944018D01*
X159749457Y-155998603D02*
X159780157Y-156052797D01*
X159780157Y-59969202D02*
X159749457Y-60023396D01*
X159780157Y-69184797D02*
X159808162Y-69240432D01*
X159780157Y-103403202D02*
X159749457Y-103457396D01*
X159780157Y-112618797D02*
X159808162Y-112674432D01*
X159780157Y-146837202D02*
X159749457Y-146891396D01*
X159780157Y-156052797D02*
X159808162Y-156108432D01*
X159808162Y-59913567D02*
X159780157Y-59969202D01*
X159808162Y-69240432D02*
X159833402Y-69297374D01*
X159808162Y-103347567D02*
X159780157Y-103403202D01*
X159808162Y-112674432D02*
X159833402Y-112731374D01*
X159808162Y-146781567D02*
X159780157Y-146837202D01*
X159808162Y-156108432D02*
X159833402Y-156165374D01*
X159833402Y-59856625D02*
X159808162Y-59913567D01*
X159833402Y-69297374D02*
X159855819Y-69355486D01*
X159833402Y-103290625D02*
X159808162Y-103347567D01*
X159833402Y-112731374D02*
X159855819Y-112789486D01*
X159833402Y-146724625D02*
X159808162Y-146781567D01*
X159833402Y-156165374D02*
X159855819Y-156223486D01*
X159855819Y-59798513D02*
X159833402Y-59856625D01*
X159855819Y-69355486D02*
X159875356Y-69414628D01*
X159855819Y-103232513D02*
X159833402Y-103290625D01*
X159855819Y-112789486D02*
X159875356Y-112848628D01*
X159855819Y-146666513D02*
X159833402Y-146724625D01*
X159855819Y-156223486D02*
X159875356Y-156282628D01*
X159875356Y-59739371D02*
X159855819Y-59798513D01*
X159875356Y-69414628D02*
X159891969Y-69474658D01*
X159875356Y-103173371D02*
X159855819Y-103232513D01*
X159875356Y-112848628D02*
X159891969Y-112908658D01*
X159875356Y-146607371D02*
X159855819Y-146666513D01*
X159875356Y-156282628D02*
X159891969Y-156342658D01*
X159891969Y-59679341D02*
X159875356Y-59739371D01*
X159891969Y-69474658D02*
X159905616Y-69535430D01*
X159891969Y-103113341D02*
X159875356Y-103173371D01*
X159891969Y-112908658D02*
X159905616Y-112969430D01*
X159891969Y-146547341D02*
X159875356Y-146607371D01*
X159891969Y-156342658D02*
X159905616Y-156403430D01*
X159905616Y-59618569D02*
X159891969Y-59679341D01*
X159905616Y-69535430D02*
X159916264Y-69596799D01*
X159905616Y-103052569D02*
X159891969Y-103113341D01*
X159905616Y-112969430D02*
X159916264Y-113030799D01*
X159905616Y-146486569D02*
X159891969Y-146547341D01*
X159905616Y-156403430D02*
X159916264Y-156464799D01*
X159916264Y-59557200D02*
X159905616Y-59618569D01*
X159916264Y-69596799D02*
X159923889Y-69658616D01*
X159916264Y-102991200D02*
X159905616Y-103052569D01*
X159916264Y-113030799D02*
X159923889Y-113092616D01*
X159916264Y-146425200D02*
X159905616Y-146486569D01*
X159916264Y-156464799D02*
X159923889Y-156526616D01*
X159923889Y-59495383D02*
X159916264Y-59557200D01*
X159923889Y-69658616D02*
X159928471Y-69720733D01*
X159923889Y-102929383D02*
X159916264Y-102991200D01*
X159923889Y-113092616D02*
X159928471Y-113154733D01*
X159923889Y-146363383D02*
X159916264Y-146425200D01*
X159923889Y-156526616D02*
X159928471Y-156588733D01*
X159928471Y-59433266D02*
X159923889Y-59495383D01*
X159928471Y-69720733D02*
X159930000Y-69783012D01*
X159928471Y-102867266D02*
X159923889Y-102929383D01*
X159928471Y-113154733D02*
X159930000Y-113217012D01*
X159928471Y-146301266D02*
X159923889Y-146363383D01*
X159928471Y-156588733D02*
X159930000Y-156651012D01*
X159930000Y-49352586D02*
X159930000Y-59370987D01*
X159930000Y-59370987D02*
X159928471Y-59433266D01*
X159930000Y-69783012D02*
X159930000Y-79801413D01*
X159930000Y-79801438D02*
X159930349Y-79815675D01*
X159930000Y-92786586D02*
X159930000Y-102804987D01*
X159930000Y-102804987D02*
X159928471Y-102867266D01*
X159930000Y-113217012D02*
X159930000Y-123235413D01*
X159930000Y-123235438D02*
X159930349Y-123249675D01*
X159930000Y-136220586D02*
X159930000Y-146238987D01*
X159930000Y-146238987D02*
X159928471Y-146301266D01*
X159930000Y-156651012D02*
X159930000Y-166669413D01*
X159930000Y-166669438D02*
X159930349Y-166683675D01*
X159930349Y-49338324D02*
X159930000Y-49352561D01*
X159930349Y-92772324D02*
X159930000Y-92786561D01*
X159930349Y-136206324D02*
X159930000Y-136220561D01*
X159931324Y-79816650D02*
X159945561Y-79816999D01*
X159931324Y-123250650D02*
X159945561Y-123250999D01*
X159931324Y-166684650D02*
X159945561Y-166684999D01*
X159945561Y-49337000D02*
X159931324Y-49337349D01*
X159945561Y-92771000D02*
X159931324Y-92771349D01*
X159945561Y-136205000D02*
X159931324Y-136205349D01*
X159945586Y-79817000D02*
X162454413Y-79817000D01*
X159945586Y-123251000D02*
X162454413Y-123251000D01*
X159945586Y-166685000D02*
X162454413Y-166685000D01*
X162454413Y-38923000D02*
X138339012Y-38923000D01*
X162454413Y-49337000D02*
X159945586Y-49337000D01*
X162454413Y-82357000D02*
X138339012Y-82357000D01*
X162454413Y-92771000D02*
X159945586Y-92771000D01*
X162454413Y-125791000D02*
X138339012Y-125791000D01*
X162454413Y-136205000D02*
X159945586Y-136205000D01*
X162454438Y-46796999D02*
X162468675Y-46796650D01*
X162454438Y-79816999D02*
X162468675Y-79816650D01*
X162454438Y-90230999D02*
X162468675Y-90230650D01*
X162454438Y-123250999D02*
X162468675Y-123250650D01*
X162454438Y-133664999D02*
X162468675Y-133664650D01*
X162454438Y-166684999D02*
X162468675Y-166684650D01*
X162468675Y-38923349D02*
X162454438Y-38923000D01*
X162468675Y-49337349D02*
X162454438Y-49337000D01*
X162468675Y-82357349D02*
X162454438Y-82357000D01*
X162468675Y-92771349D02*
X162454438Y-92771000D01*
X162468675Y-125791349D02*
X162454438Y-125791000D01*
X162468675Y-136205349D02*
X162454438Y-136205000D01*
X162469650Y-46795675D02*
X162469999Y-46781438D01*
X162469650Y-79815675D02*
X162469999Y-79801438D01*
X162469650Y-90229675D02*
X162469999Y-90215438D01*
X162469650Y-123249675D02*
X162469999Y-123235438D01*
X162469650Y-133663675D02*
X162469999Y-133649438D01*
X162469650Y-166683675D02*
X162469999Y-166669438D01*
X162469999Y-38938561D02*
X162469650Y-38924324D01*
X162470000Y-40090987D02*
X162470000Y-38938586D01*
X162470000Y-45629012D02*
X162471528Y-45566733D01*
X162470000Y-46781413D02*
X162470000Y-45629012D01*
X162469999Y-49352561D02*
X162469650Y-49338324D01*
X162470000Y-79801413D02*
X162470000Y-49352586D01*
X162469999Y-82372561D02*
X162469650Y-82358324D01*
X162470000Y-83524987D02*
X162470000Y-82372586D01*
X162470000Y-89063012D02*
X162471528Y-89000733D01*
X162470000Y-90215413D02*
X162470000Y-89063012D01*
X162469999Y-92786561D02*
X162469650Y-92772324D01*
X162470000Y-123235413D02*
X162470000Y-92786586D01*
X162469999Y-125806561D02*
X162469650Y-125792324D01*
X162470000Y-126958987D02*
X162470000Y-125806586D01*
X162470000Y-132497012D02*
X162471528Y-132434733D01*
X162470000Y-133649413D02*
X162470000Y-132497012D01*
X162469999Y-136220561D02*
X162469650Y-136206324D01*
X162470000Y-166669413D02*
X162470000Y-136220586D01*
X162471528Y-40153266D02*
X162470000Y-40090987D01*
X162471528Y-45566733D02*
X162476110Y-45504616D01*
X162471528Y-83587266D02*
X162470000Y-83524987D01*
X162471528Y-89000733D02*
X162476110Y-88938616D01*
X162471528Y-127021266D02*
X162470000Y-126958987D01*
X162471528Y-132434733D02*
X162476110Y-132372616D01*
X162476110Y-40215383D02*
X162471528Y-40153266D01*
X162476110Y-45504616D02*
X162483735Y-45442799D01*
X162476110Y-83649383D02*
X162471528Y-83587266D01*
X162476110Y-88938616D02*
X162483735Y-88876799D01*
X162476110Y-127083383D02*
X162471528Y-127021266D01*
X162476110Y-132372616D02*
X162483735Y-132310799D01*
X162483735Y-40277200D02*
X162476110Y-40215383D01*
X162483735Y-45442799D02*
X162494383Y-45381430D01*
X162483735Y-83711200D02*
X162476110Y-83649383D01*
X162483735Y-88876799D02*
X162494383Y-88815430D01*
X162483735Y-127145200D02*
X162476110Y-127083383D01*
X162483735Y-132310799D02*
X162494383Y-132249430D01*
X162494383Y-40338569D02*
X162483735Y-40277200D01*
X162494383Y-45381430D02*
X162508030Y-45320658D01*
X162494383Y-83772569D02*
X162483735Y-83711200D01*
X162494383Y-88815430D02*
X162508030Y-88754658D01*
X162494383Y-127206569D02*
X162483735Y-127145200D01*
X162494383Y-132249430D02*
X162508030Y-132188658D01*
X162508030Y-40399341D02*
X162494383Y-40338569D01*
X162508030Y-45320658D02*
X162524643Y-45260628D01*
X162508030Y-83833341D02*
X162494383Y-83772569D01*
X162508030Y-88754658D02*
X162524643Y-88694628D01*
X162508030Y-127267341D02*
X162494383Y-127206569D01*
X162508030Y-132188658D02*
X162524643Y-132128628D01*
X162524643Y-40459371D02*
X162508030Y-40399341D01*
X162524643Y-45260628D02*
X162544180Y-45201486D01*
X162524643Y-83893371D02*
X162508030Y-83833341D01*
X162524643Y-88694628D02*
X162544180Y-88635486D01*
X162524643Y-127327371D02*
X162508030Y-127267341D01*
X162524643Y-132128628D02*
X162544180Y-132069486D01*
X162544180Y-40518513D02*
X162524643Y-40459371D01*
X162544180Y-45201486D02*
X162566597Y-45143374D01*
X162544180Y-83952513D02*
X162524643Y-83893371D01*
X162544180Y-88635486D02*
X162566597Y-88577374D01*
X162544180Y-127386513D02*
X162524643Y-127327371D01*
X162544180Y-132069486D02*
X162566597Y-132011374D01*
X162566597Y-40576625D02*
X162544180Y-40518513D01*
X162566597Y-45143374D02*
X162591837Y-45086432D01*
X162566597Y-84010625D02*
X162544180Y-83952513D01*
X162566597Y-88577374D02*
X162591837Y-88520432D01*
X162566597Y-127444625D02*
X162544180Y-127386513D01*
X162566597Y-132011374D02*
X162591837Y-131954432D01*
X162591837Y-40633567D02*
X162566597Y-40576625D01*
X162591837Y-45086432D02*
X162619842Y-45030797D01*
X162591837Y-84067567D02*
X162566597Y-84010625D01*
X162591837Y-88520432D02*
X162619842Y-88464797D01*
X162591837Y-127501567D02*
X162566597Y-127444625D01*
X162591837Y-131954432D02*
X162619842Y-131898797D01*
X162619842Y-40689202D02*
X162591837Y-40633567D01*
X162619842Y-45030797D02*
X162650542Y-44976603D01*
X162619842Y-84123202D02*
X162591837Y-84067567D01*
X162619842Y-88464797D02*
X162650542Y-88410603D01*
X162619842Y-127557202D02*
X162591837Y-127501567D01*
X162619842Y-131898797D02*
X162650542Y-131844603D01*
X162650542Y-40743396D02*
X162619842Y-40689202D01*
X162650542Y-44976603D02*
X162683865Y-44923981D01*
X162650542Y-84177396D02*
X162619842Y-84123202D01*
X162650542Y-88410603D02*
X162683865Y-88357981D01*
X162650542Y-127611396D02*
X162619842Y-127557202D01*
X162650542Y-131844603D02*
X162683865Y-131791981D01*
X162683865Y-40796018D02*
X162650542Y-40743396D01*
X162683865Y-44923981D02*
X162719729Y-44873057D01*
X162683865Y-84230018D02*
X162650542Y-84177396D01*
X162683865Y-88357981D02*
X162719729Y-88307057D01*
X162683865Y-127664018D02*
X162650542Y-127611396D01*
X162683865Y-131791981D02*
X162719729Y-131741057D01*
X162719729Y-40846942D02*
X162683865Y-40796018D01*
X162719729Y-44873057D02*
X162758049Y-44823955D01*
X162719729Y-84280942D02*
X162683865Y-84230018D01*
X162719729Y-88307057D02*
X162758049Y-88257955D01*
X162719729Y-127714942D02*
X162683865Y-127664018D01*
X162719729Y-131741057D02*
X162758049Y-131691955D01*
X162758049Y-40896044D02*
X162719729Y-40846942D01*
X162758049Y-44823955D02*
X162798733Y-44776791D01*
X162758049Y-84330044D02*
X162719729Y-84280942D01*
X162758049Y-88257955D02*
X162798733Y-88210791D01*
X162758049Y-127764044D02*
X162719729Y-127714942D01*
X162758049Y-131691955D02*
X162798733Y-131644791D01*
X162798733Y-40943208D02*
X162758049Y-40896044D01*
X162798733Y-44776791D02*
X162841681Y-44731681D01*
X162798733Y-84377208D02*
X162758049Y-84330044D01*
X162798733Y-88210791D02*
X162841681Y-88165681D01*
X162798733Y-127811208D02*
X162758049Y-127764044D01*
X162798733Y-131644791D02*
X162841681Y-131599681D01*
X162841681Y-40988318D02*
X162798733Y-40943208D01*
X162841681Y-44731681D02*
X162886791Y-44688733D01*
X162841681Y-84422318D02*
X162798733Y-84377208D01*
X162841681Y-88165681D02*
X162886791Y-88122733D01*
X162841681Y-127856318D02*
X162798733Y-127811208D01*
X162841681Y-131599681D02*
X162886791Y-131556733D01*
X162886791Y-41031266D02*
X162841681Y-40988318D01*
X162886791Y-44688733D02*
X162933955Y-44648049D01*
X162886791Y-84465266D02*
X162841681Y-84422318D01*
X162886791Y-88122733D02*
X162933955Y-88082049D01*
X162886791Y-127899266D02*
X162841681Y-127856318D01*
X162886791Y-131556733D02*
X162933955Y-131516049D01*
X162933955Y-41071950D02*
X162886791Y-41031266D01*
X162933955Y-44648049D02*
X162983057Y-44609729D01*
X162933955Y-84505950D02*
X162886791Y-84465266D01*
X162933955Y-88082049D02*
X162983057Y-88043729D01*
X162933955Y-127939950D02*
X162886791Y-127899266D01*
X162933955Y-131516049D02*
X162983057Y-131477729D01*
X162983057Y-41110270D02*
X162933955Y-41071950D01*
X162983057Y-44609729D02*
X163033981Y-44573865D01*
X162983057Y-84544270D02*
X162933955Y-84505950D01*
X162983057Y-88043729D02*
X163033981Y-88007865D01*
X162983057Y-127978270D02*
X162933955Y-127939950D01*
X162983057Y-131477729D02*
X163033981Y-131441865D01*
X163033981Y-41146134D02*
X162983057Y-41110270D01*
X163033981Y-44573865D02*
X163086603Y-44540542D01*
X163033981Y-84580134D02*
X162983057Y-84544270D01*
X163033981Y-88007865D02*
X163086603Y-87974542D01*
X163033981Y-128014134D02*
X162983057Y-127978270D01*
X163033981Y-131441865D02*
X163086603Y-131408542D01*
X163086603Y-41179457D02*
X163033981Y-41146134D01*
X163086603Y-44540542D02*
X163140797Y-44509842D01*
X163086603Y-84613457D02*
X163033981Y-84580134D01*
X163086603Y-87974542D02*
X163140797Y-87943842D01*
X163086603Y-128047457D02*
X163033981Y-128014134D01*
X163086603Y-131408542D02*
X163140797Y-131377842D01*
X163140797Y-41210157D02*
X163086603Y-41179457D01*
X163140797Y-44509842D02*
X163196432Y-44481837D01*
X163140797Y-84644157D02*
X163086603Y-84613457D01*
X163140797Y-87943842D02*
X163196432Y-87915837D01*
X163140797Y-128078157D02*
X163086603Y-128047457D01*
X163140797Y-131377842D02*
X163196432Y-131349837D01*
X163196432Y-41238162D02*
X163140797Y-41210157D01*
X163196432Y-44481837D02*
X163253374Y-44456597D01*
X163196432Y-84672162D02*
X163140797Y-84644157D01*
X163196432Y-87915837D02*
X163253374Y-87890597D01*
X163196432Y-128106162D02*
X163140797Y-128078157D01*
X163196432Y-131349837D02*
X163253374Y-131324597D01*
X163253374Y-41263402D02*
X163196432Y-41238162D01*
X163253374Y-44456597D02*
X163311486Y-44434180D01*
X163253374Y-84697402D02*
X163196432Y-84672162D01*
X163253374Y-87890597D02*
X163311486Y-87868180D01*
X163253374Y-128131402D02*
X163196432Y-128106162D01*
X163253374Y-131324597D02*
X163311486Y-131302180D01*
X163311486Y-41285819D02*
X163253374Y-41263402D01*
X163311486Y-44434180D02*
X163370628Y-44414643D01*
X163311486Y-84719819D02*
X163253374Y-84697402D01*
X163311486Y-87868180D02*
X163370628Y-87848643D01*
X163311486Y-128153819D02*
X163253374Y-128131402D01*
X163311486Y-131302180D02*
X163370628Y-131282643D01*
X163370628Y-41305356D02*
X163311486Y-41285819D01*
X163370628Y-44414643D02*
X163430658Y-44398030D01*
X163370628Y-84739356D02*
X163311486Y-84719819D01*
X163370628Y-87848643D02*
X163430658Y-87832030D01*
X163370628Y-128173356D02*
X163311486Y-128153819D01*
X163370628Y-131282643D02*
X163430658Y-131266030D01*
X163430658Y-41321969D02*
X163370628Y-41305356D01*
X163430658Y-44398030D02*
X163491430Y-44384383D01*
X163430658Y-84755969D02*
X163370628Y-84739356D01*
X163430658Y-87832030D02*
X163491430Y-87818383D01*
X163430658Y-128189969D02*
X163370628Y-128173356D01*
X163430658Y-131266030D02*
X163491430Y-131252383D01*
X163491430Y-41335616D02*
X163430658Y-41321969D01*
X163491430Y-44384383D02*
X163552799Y-44373735D01*
X163491430Y-84769616D02*
X163430658Y-84755969D01*
X163491430Y-87818383D02*
X163552799Y-87807735D01*
X163491430Y-128203616D02*
X163430658Y-128189969D01*
X163491430Y-131252383D02*
X163552799Y-131241735D01*
X163552799Y-41346264D02*
X163491430Y-41335616D01*
X163552799Y-44373735D02*
X163614616Y-44366110D01*
X163552799Y-84780264D02*
X163491430Y-84769616D01*
X163552799Y-87807735D02*
X163614616Y-87800110D01*
X163552799Y-128214264D02*
X163491430Y-128203616D01*
X163552799Y-131241735D02*
X163614616Y-131234110D01*
X163614616Y-41353889D02*
X163552799Y-41346264D01*
X163614616Y-44366110D02*
X163676733Y-44361528D01*
X163614616Y-84787889D02*
X163552799Y-84780264D01*
X163614616Y-87800110D02*
X163676733Y-87795528D01*
X163614616Y-128221889D02*
X163552799Y-128214264D01*
X163614616Y-131234110D02*
X163676733Y-131229528D01*
X163676733Y-41358471D02*
X163614616Y-41353889D01*
X163676733Y-44361528D02*
X163739012Y-44360000D01*
X163676733Y-84792471D02*
X163614616Y-84787889D01*
X163676733Y-87795528D02*
X163739012Y-87794000D01*
X163676733Y-128226471D02*
X163614616Y-128221889D01*
X163676733Y-131229528D02*
X163739012Y-131228000D01*
X163739012Y-41360000D02*
X163676733Y-41358471D01*
X163739012Y-44360000D02*
X163740987Y-44360000D01*
X163739012Y-84794000D02*
X163676733Y-84792471D01*
X163739012Y-87794000D02*
X163740987Y-87794000D01*
X163739012Y-128228000D02*
X163676733Y-128226471D01*
X163739012Y-131228000D02*
X163740987Y-131228000D01*
X163740987Y-25080000D02*
X163803266Y-25081528D01*
X163740987Y-41360000D02*
X163739012Y-41360000D01*
X163740987Y-44360000D02*
X163803266Y-44361528D01*
X163740987Y-84794000D02*
X163739012Y-84794000D01*
X163740987Y-87794000D02*
X163803266Y-87795528D01*
X163740987Y-128228000D02*
X163739012Y-128228000D01*
X163740987Y-131228000D02*
X163803266Y-131229528D01*
X163740987Y-169225000D02*
X133259012Y-169225000D01*
X163803266Y-25081528D02*
X163865383Y-25086110D01*
X163803266Y-41358471D02*
X163740987Y-41360000D01*
X163803266Y-44361528D02*
X163865383Y-44366110D01*
X163803266Y-84792471D02*
X163740987Y-84794000D01*
X163803266Y-87795528D02*
X163865383Y-87800110D01*
X163803266Y-128226471D02*
X163740987Y-128228000D01*
X163803266Y-131229528D02*
X163865383Y-131234110D01*
X163803266Y-169223471D02*
X163740987Y-169225000D01*
X163865383Y-25086110D02*
X163927200Y-25093735D01*
X163865383Y-41353889D02*
X163803266Y-41358471D01*
X163865383Y-44366110D02*
X163927200Y-44373735D01*
X163865383Y-84787889D02*
X163803266Y-84792471D01*
X163865383Y-87800110D02*
X163927200Y-87807735D01*
X163865383Y-128221889D02*
X163803266Y-128226471D01*
X163865383Y-131234110D02*
X163927200Y-131241735D01*
X163865383Y-169218889D02*
X163803266Y-169223471D01*
X163927200Y-25093735D02*
X163988569Y-25104383D01*
X163927200Y-41346264D02*
X163865383Y-41353889D01*
X163927200Y-44373735D02*
X163988569Y-44384383D01*
X163927200Y-84780264D02*
X163865383Y-84787889D01*
X163927200Y-87807735D02*
X163988569Y-87818383D01*
X163927200Y-128214264D02*
X163865383Y-128221889D01*
X163927200Y-131241735D02*
X163988569Y-131252383D01*
X163927200Y-169211264D02*
X163865383Y-169218889D01*
X163988569Y-25104383D02*
X164049341Y-25118030D01*
X163988569Y-41335616D02*
X163927200Y-41346264D01*
X163988569Y-44384383D02*
X164049341Y-44398030D01*
X163988569Y-84769616D02*
X163927200Y-84780264D01*
X163988569Y-87818383D02*
X164049341Y-87832030D01*
X163988569Y-128203616D02*
X163927200Y-128214264D01*
X163988569Y-131252383D02*
X164049341Y-131266030D01*
X163988569Y-169200616D02*
X163927200Y-169211264D01*
X164049341Y-25118030D02*
X164109371Y-25134643D01*
X164049341Y-41321969D02*
X163988569Y-41335616D01*
X164049341Y-44398030D02*
X164109371Y-44414643D01*
X164049341Y-84755969D02*
X163988569Y-84769616D01*
X164049341Y-87832030D02*
X164109371Y-87848643D01*
X164049341Y-128189969D02*
X163988569Y-128203616D01*
X164049341Y-131266030D02*
X164109371Y-131282643D01*
X164049341Y-169186969D02*
X163988569Y-169200616D01*
X164109371Y-25134643D02*
X164168513Y-25154180D01*
X164109371Y-41305356D02*
X164049341Y-41321969D01*
X164109371Y-44414643D02*
X164168513Y-44434180D01*
X164109371Y-84739356D02*
X164049341Y-84755969D01*
X164109371Y-87848643D02*
X164168513Y-87868180D01*
X164109371Y-128173356D02*
X164049341Y-128189969D01*
X164109371Y-131282643D02*
X164168513Y-131302180D01*
X164109371Y-169170356D02*
X164049341Y-169186969D01*
X164168513Y-25154180D02*
X164226625Y-25176597D01*
X164168513Y-41285819D02*
X164109371Y-41305356D01*
X164168513Y-44434180D02*
X164226625Y-44456597D01*
X164168513Y-84719819D02*
X164109371Y-84739356D01*
X164168513Y-87868180D02*
X164226625Y-87890597D01*
X164168513Y-128153819D02*
X164109371Y-128173356D01*
X164168513Y-131302180D02*
X164226625Y-131324597D01*
X164168513Y-169150819D02*
X164109371Y-169170356D01*
X164226625Y-25176597D02*
X164283567Y-25201837D01*
X164226625Y-41263402D02*
X164168513Y-41285819D01*
X164226625Y-44456597D02*
X164283567Y-44481837D01*
X164226625Y-84697402D02*
X164168513Y-84719819D01*
X164226625Y-87890597D02*
X164283567Y-87915837D01*
X164226625Y-128131402D02*
X164168513Y-128153819D01*
X164226625Y-131324597D02*
X164283567Y-131349837D01*
X164226625Y-169128402D02*
X164168513Y-169150819D01*
X164283567Y-25201837D02*
X164339202Y-25229842D01*
X164283567Y-41238162D02*
X164226625Y-41263402D01*
X164283567Y-44481837D02*
X164339202Y-44509842D01*
X164283567Y-84672162D02*
X164226625Y-84697402D01*
X164283567Y-87915837D02*
X164339202Y-87943842D01*
X164283567Y-128106162D02*
X164226625Y-128131402D01*
X164283567Y-131349837D02*
X164339202Y-131377842D01*
X164283567Y-169103162D02*
X164226625Y-169128402D01*
X164339202Y-25229842D02*
X164393396Y-25260542D01*
X164339202Y-41210157D02*
X164283567Y-41238162D01*
X164339202Y-44509842D02*
X164393396Y-44540542D01*
X164339202Y-84644157D02*
X164283567Y-84672162D01*
X164339202Y-87943842D02*
X164393396Y-87974542D01*
X164339202Y-128078157D02*
X164283567Y-128106162D01*
X164339202Y-131377842D02*
X164393396Y-131408542D01*
X164339202Y-169075157D02*
X164283567Y-169103162D01*
X164393396Y-25260542D02*
X164446018Y-25293865D01*
X164393396Y-41179457D02*
X164339202Y-41210157D01*
X164393396Y-44540542D02*
X164446018Y-44573865D01*
X164393396Y-84613457D02*
X164339202Y-84644157D01*
X164393396Y-87974542D02*
X164446018Y-88007865D01*
X164393396Y-128047457D02*
X164339202Y-128078157D01*
X164393396Y-131408542D02*
X164446018Y-131441865D01*
X164393396Y-169044457D02*
X164339202Y-169075157D01*
X164446018Y-25293865D02*
X164496942Y-25329729D01*
X164446018Y-41146134D02*
X164393396Y-41179457D01*
X164446018Y-44573865D02*
X164496942Y-44609729D01*
X164446018Y-84580134D02*
X164393396Y-84613457D01*
X164446018Y-88007865D02*
X164496942Y-88043729D01*
X164446018Y-128014134D02*
X164393396Y-128047457D01*
X164446018Y-131441865D02*
X164496942Y-131477729D01*
X164446018Y-169011134D02*
X164393396Y-169044457D01*
X164496942Y-25329729D02*
X164546044Y-25368049D01*
X164496942Y-41110270D02*
X164446018Y-41146134D01*
X164496942Y-44609729D02*
X164546044Y-44648049D01*
X164496942Y-84544270D02*
X164446018Y-84580134D01*
X164496942Y-88043729D02*
X164546044Y-88082049D01*
X164496942Y-127978270D02*
X164446018Y-128014134D01*
X164496942Y-131477729D02*
X164546044Y-131516049D01*
X164496942Y-168975270D02*
X164446018Y-169011134D01*
X164546044Y-25368049D02*
X164593208Y-25408733D01*
X164546044Y-41071950D02*
X164496942Y-41110270D01*
X164546044Y-44648049D02*
X164593208Y-44688733D01*
X164546044Y-84505950D02*
X164496942Y-84544270D01*
X164546044Y-88082049D02*
X164593208Y-88122733D01*
X164546044Y-127939950D02*
X164496942Y-127978270D01*
X164546044Y-131516049D02*
X164593208Y-131556733D01*
X164546044Y-168936950D02*
X164496942Y-168975270D01*
X164593208Y-25408733D02*
X164638318Y-25451681D01*
X164593208Y-41031266D02*
X164546044Y-41071950D01*
X164593208Y-44688733D02*
X164638318Y-44731681D01*
X164593208Y-84465266D02*
X164546044Y-84505950D01*
X164593208Y-88122733D02*
X164638318Y-88165681D01*
X164593208Y-127899266D02*
X164546044Y-127939950D01*
X164593208Y-131556733D02*
X164638318Y-131599681D01*
X164593208Y-168896266D02*
X164546044Y-168936950D01*
X164638318Y-25451681D02*
X164681266Y-25496791D01*
X164638318Y-40988318D02*
X164593208Y-41031266D01*
X164638318Y-44731681D02*
X164681266Y-44776791D01*
X164638318Y-84422318D02*
X164593208Y-84465266D01*
X164638318Y-88165681D02*
X164681266Y-88210791D01*
X164638318Y-127856318D02*
X164593208Y-127899266D01*
X164638318Y-131599681D02*
X164681266Y-131644791D01*
X164638318Y-168853318D02*
X164593208Y-168896266D01*
X164681266Y-25496791D02*
X164721950Y-25543955D01*
X164681266Y-40943208D02*
X164638318Y-40988318D01*
X164681266Y-44776791D02*
X164721950Y-44823955D01*
X164681266Y-84377208D02*
X164638318Y-84422318D01*
X164681266Y-88210791D02*
X164721950Y-88257955D01*
X164681266Y-127811208D02*
X164638318Y-127856318D01*
X164681266Y-131644791D02*
X164721950Y-131691955D01*
X164681266Y-168808208D02*
X164638318Y-168853318D01*
X164721950Y-25543955D02*
X164760270Y-25593057D01*
X164721950Y-40896044D02*
X164681266Y-40943208D01*
X164721950Y-44823955D02*
X164760270Y-44873057D01*
X164721950Y-84330044D02*
X164681266Y-84377208D01*
X164721950Y-88257955D02*
X164760270Y-88307057D01*
X164721950Y-127764044D02*
X164681266Y-127811208D01*
X164721950Y-131691955D02*
X164760270Y-131741057D01*
X164721950Y-168761044D02*
X164681266Y-168808208D01*
X164760270Y-25593057D02*
X164796134Y-25643981D01*
X164760270Y-40846942D02*
X164721950Y-40896044D01*
X164760270Y-44873057D02*
X164796134Y-44923981D01*
X164760270Y-84280942D02*
X164721950Y-84330044D01*
X164760270Y-88307057D02*
X164796134Y-88357981D01*
X164760270Y-127714942D02*
X164721950Y-127764044D01*
X164760270Y-131741057D02*
X164796134Y-131791981D01*
X164760270Y-168711942D02*
X164721950Y-168761044D01*
X164796134Y-25643981D02*
X164829457Y-25696603D01*
X164796134Y-40796018D02*
X164760270Y-40846942D01*
X164796134Y-44923981D02*
X164829457Y-44976603D01*
X164796134Y-84230018D02*
X164760270Y-84280942D01*
X164796134Y-88357981D02*
X164829457Y-88410603D01*
X164796134Y-127664018D02*
X164760270Y-127714942D01*
X164796134Y-131791981D02*
X164829457Y-131844603D01*
X164796134Y-168661018D02*
X164760270Y-168711942D01*
X164829457Y-25696603D02*
X164860157Y-25750797D01*
X164829457Y-40743396D02*
X164796134Y-40796018D01*
X164829457Y-44976603D02*
X164860157Y-45030797D01*
X164829457Y-84177396D02*
X164796134Y-84230018D01*
X164829457Y-88410603D02*
X164860157Y-88464797D01*
X164829457Y-127611396D02*
X164796134Y-127664018D01*
X164829457Y-131844603D02*
X164860157Y-131898797D01*
X164829457Y-168608396D02*
X164796134Y-168661018D01*
X164860157Y-25750797D02*
X164888162Y-25806432D01*
X164860157Y-40689202D02*
X164829457Y-40743396D01*
X164860157Y-45030797D02*
X164888162Y-45086432D01*
X164860157Y-84123202D02*
X164829457Y-84177396D01*
X164860157Y-88464797D02*
X164888162Y-88520432D01*
X164860157Y-127557202D02*
X164829457Y-127611396D01*
X164860157Y-131898797D02*
X164888162Y-131954432D01*
X164860157Y-168554202D02*
X164829457Y-168608396D01*
X164888162Y-25806432D02*
X164913402Y-25863374D01*
X164888162Y-40633567D02*
X164860157Y-40689202D01*
X164888162Y-45086432D02*
X164913402Y-45143374D01*
X164888162Y-84067567D02*
X164860157Y-84123202D01*
X164888162Y-88520432D02*
X164913402Y-88577374D01*
X164888162Y-127501567D02*
X164860157Y-127557202D01*
X164888162Y-131954432D02*
X164913402Y-132011374D01*
X164888162Y-168498567D02*
X164860157Y-168554202D01*
X164913402Y-25863374D02*
X164935819Y-25921486D01*
X164913402Y-40576625D02*
X164888162Y-40633567D01*
X164913402Y-45143374D02*
X164935819Y-45201486D01*
X164913402Y-84010625D02*
X164888162Y-84067567D01*
X164913402Y-88577374D02*
X164935819Y-88635486D01*
X164913402Y-127444625D02*
X164888162Y-127501567D01*
X164913402Y-132011374D02*
X164935819Y-132069486D01*
X164913402Y-168441625D02*
X164888162Y-168498567D01*
X164935819Y-25921486D02*
X164955356Y-25980628D01*
X164935819Y-40518513D02*
X164913402Y-40576625D01*
X164935819Y-45201486D02*
X164955356Y-45260628D01*
X164935819Y-83952513D02*
X164913402Y-84010625D01*
X164935819Y-88635486D02*
X164955356Y-88694628D01*
X164935819Y-127386513D02*
X164913402Y-127444625D01*
X164935819Y-132069486D02*
X164955356Y-132128628D01*
X164935819Y-168383513D02*
X164913402Y-168441625D01*
X164955356Y-25980628D02*
X164971969Y-26040658D01*
X164955356Y-40459371D02*
X164935819Y-40518513D01*
X164955356Y-45260628D02*
X164971969Y-45320658D01*
X164955356Y-83893371D02*
X164935819Y-83952513D01*
X164955356Y-88694628D02*
X164971969Y-88754658D01*
X164955356Y-127327371D02*
X164935819Y-127386513D01*
X164955356Y-132128628D02*
X164971969Y-132188658D01*
X164955356Y-168324371D02*
X164935819Y-168383513D01*
X164971969Y-26040658D02*
X164985616Y-26101430D01*
X164971969Y-40399341D02*
X164955356Y-40459371D01*
X164971969Y-45320658D02*
X164985616Y-45381430D01*
X164971969Y-83833341D02*
X164955356Y-83893371D01*
X164971969Y-88754658D02*
X164985616Y-88815430D01*
X164971969Y-127267341D02*
X164955356Y-127327371D01*
X164971969Y-132188658D02*
X164985616Y-132249430D01*
X164971969Y-168264341D02*
X164955356Y-168324371D01*
X164985616Y-26101430D02*
X164996264Y-26162799D01*
X164985616Y-40338569D02*
X164971969Y-40399341D01*
X164985616Y-45381430D02*
X164996264Y-45442799D01*
X164985616Y-83772569D02*
X164971969Y-83833341D01*
X164985616Y-88815430D02*
X164996264Y-88876799D01*
X164985616Y-127206569D02*
X164971969Y-127267341D01*
X164985616Y-132249430D02*
X164996264Y-132310799D01*
X164985616Y-168203569D02*
X164971969Y-168264341D01*
X164996264Y-26162799D02*
X165003889Y-26224616D01*
X164996264Y-40277200D02*
X164985616Y-40338569D01*
X164996264Y-45442799D02*
X165003889Y-45504616D01*
X164996264Y-83711200D02*
X164985616Y-83772569D01*
X164996264Y-88876799D02*
X165003889Y-88938616D01*
X164996264Y-127145200D02*
X164985616Y-127206569D01*
X164996264Y-132310799D02*
X165003889Y-132372616D01*
X164996264Y-168142200D02*
X164985616Y-168203569D01*
X165003889Y-26224616D02*
X165008471Y-26286733D01*
X165003889Y-40215383D02*
X164996264Y-40277200D01*
X165003889Y-45504616D02*
X165008471Y-45566733D01*
X165003889Y-83649383D02*
X164996264Y-83711200D01*
X165003889Y-88938616D02*
X165008471Y-89000733D01*
X165003889Y-127083383D02*
X164996264Y-127145200D01*
X165003889Y-132372616D02*
X165008471Y-132434733D01*
X165003889Y-168080383D02*
X164996264Y-168142200D01*
X165008471Y-26286733D02*
X165010000Y-26349012D01*
X165008471Y-40153266D02*
X165003889Y-40215383D01*
X165008471Y-45566733D02*
X165010000Y-45629012D01*
X165008471Y-83587266D02*
X165003889Y-83649383D01*
X165008471Y-89000733D02*
X165010000Y-89063012D01*
X165008471Y-127021266D02*
X165003889Y-127083383D01*
X165008471Y-132434733D02*
X165010000Y-132497012D01*
X165008471Y-168018266D02*
X165003889Y-168080383D01*
X165010000Y-26349012D02*
X165010000Y-40090987D01*
X165010000Y-40090987D02*
X165008471Y-40153266D01*
X165010000Y-45629012D02*
X165010000Y-83524987D01*
X165010000Y-83524987D02*
X165008471Y-83587266D01*
X165010000Y-89063012D02*
X165010000Y-126958987D01*
X165010000Y-126958987D02*
X165008471Y-127021266D01*
X165010000Y-132497012D02*
X165010000Y-167955987D01*
X165010000Y-167955987D02*
X165008471Y-168018266D01*
X170074413Y-20000000D02*
X126925586Y-20000000D01*
X170074438Y-174304999D02*
X170088675Y-174304650D01*
X170088675Y-20000349D02*
X170074438Y-20000000D01*
X170089650Y-174303675D02*
X170089999Y-174289438D01*
X170089999Y-20015561D02*
X170089650Y-20001324D01*
X170090000Y-174289413D02*
X170090000Y-20015586D01*
M02*
