M48
INCH,TZ
T1C0.0120
%
G90
G05
T1
X53465Y-11874
X53465Y-12924
X53465Y-21874
X53465Y-28974
X53465Y-30024
X53465Y-38974
X53465Y-46074
X53465Y-47124
X53465Y-56074
X53565Y-25074
X53565Y-25424
X53565Y-25774
X53565Y-42174
X53565Y-42524
X53565Y-42874
X53565Y-59274
X53565Y-59624
X53565Y-59974
X55365Y-16274
X55365Y-17474
X55365Y-33374
X55365Y-34574
X55365Y-50474
X55365Y-51674
X56015Y-24524
X56015Y-41624
X56015Y-58724
X57465Y-16124
X57465Y-33224
X57465Y-50324
X58465Y-17624
X58465Y-24674
X58465Y-34724
X58465Y-41774
X58465Y-51824
X58465Y-58874
X59465Y-26174
X59465Y-43274
X59465Y-60374
X60915Y-17774
X60915Y-34874
X60915Y-51974
X61565Y-24824
X61565Y-26024
X61565Y-41924
X61565Y-43124
X61565Y-59024
X61565Y-60224
X63365Y-16524
X63365Y-16874
X63365Y-17224
X63365Y-33624
X63365Y-33974
X63365Y-34324
X63365Y-50724
X63365Y-51074
X63365Y-51424
X63465Y-20424
X63465Y-29374
X63465Y-30424
X63465Y-37524
X63465Y-46474
X63465Y-47524
X63465Y-54624
X63465Y-63574
X63465Y-64624
M30
