G04 #@! TF.GenerationSoftware,KiCad,Pcbnew,9.0.9-9.0.9~ubuntu24.04.1*
G04 #@! TF.CreationDate,2026-08-31T17:21:49-06:00*
G04 #@! TF.ProjectId,ckt-axle-bar-array,636b742d-6178-46c6-952d-6261722d6172,rev?*
G04 #@! TF.SameCoordinates,Original*
G04 #@! TF.FileFunction,Copper,L2,Bot*
G04 #@! TF.FilePolarity,Positive*
%FSLAX46Y46*%
G04 Gerber Fmt 4.6, Leading zero omitted, Abs format (unit mm)*
G04 Created by KiCad (PCBNEW 9.0.9-9.0.9~ubuntu24.04.1) date 2026-08-31 17:21:49*
%MOMM*%
%LPD*%
G01*
G04 APERTURE LIST*
G04 #@! TA.AperFunction,SMDPad,CuDef*
%ADD10C,1.000000*%
G04 #@! TD*
G04 #@! TA.AperFunction,ViaPad*
%ADD11C,0.609600*%
G04 #@! TD*
G04 #@! TA.AperFunction,Conductor*
%ADD12C,0.254000*%
G04 #@! TD*
G04 APERTURE END LIST*
D10*
X129450000Y-166685000D03*
X167550000Y-27620000D03*
X129450000Y-27620000D03*
D11*
X160946000Y-43749000D03*
X148500000Y-44765000D03*
X135800000Y-30160000D03*
X160946000Y-42860000D03*
X154723000Y-45146000D03*
X145960000Y-40955000D03*
X160946000Y-41971000D03*
X135800000Y-55560000D03*
X140626000Y-44384000D03*
X140626000Y-41336000D03*
X135800000Y-32827000D03*
X142277000Y-62291000D03*
X151040000Y-66482000D03*
X136054000Y-63688000D03*
X136054000Y-64577000D03*
X161200000Y-77277000D03*
X136054000Y-65466000D03*
X148500000Y-62672000D03*
X156374000Y-63053000D03*
X161200000Y-51877000D03*
X156374000Y-66101000D03*
X161200000Y-74610000D03*
X160946000Y-85405000D03*
X160946000Y-87183000D03*
X148500000Y-88199000D03*
X145960000Y-84389000D03*
X154723000Y-88580000D03*
X135800000Y-73594000D03*
X160946000Y-86294000D03*
X135800000Y-98994000D03*
X140626000Y-87818000D03*
X140626000Y-84770000D03*
X135800000Y-76261000D03*
X136054000Y-108011000D03*
X136054000Y-108900000D03*
X148500000Y-106106000D03*
X136054000Y-107122000D03*
X142277000Y-105725000D03*
X151040000Y-109916000D03*
X161200000Y-120711000D03*
X156374000Y-106487000D03*
X161200000Y-95311000D03*
X156374000Y-109535000D03*
X161200000Y-118044000D03*
X160946000Y-129728000D03*
X160946000Y-130617000D03*
X154723000Y-132014000D03*
X135800000Y-117028000D03*
X160946000Y-128839000D03*
X145960000Y-127823000D03*
X148500000Y-131633000D03*
X135800000Y-142428000D03*
X140626000Y-131252000D03*
X140626000Y-128204000D03*
X135800000Y-119695000D03*
X136054000Y-151445000D03*
X142277000Y-149159000D03*
X136054000Y-152334000D03*
X151040000Y-153350000D03*
X136054000Y-150556000D03*
X148500000Y-149540000D03*
X161200000Y-164145000D03*
X156374000Y-149921000D03*
X161200000Y-138745000D03*
X161200000Y-161478000D03*
X156374000Y-152969000D03*
D12*
X140626000Y-44384000D02*
X136562000Y-44384000D01*
X135800000Y-45146000D02*
X135800000Y-55560000D01*
X136562000Y-44384000D02*
X135800000Y-45146000D01*
X140626000Y-41336000D02*
X136562000Y-41336000D01*
X135800000Y-40574000D02*
X135800000Y-32827000D01*
X136562000Y-41336000D02*
X135800000Y-40574000D01*
X156374000Y-63053000D02*
X160438000Y-63053000D01*
X160438000Y-63053000D02*
X161200000Y-62291000D01*
X161200000Y-62291000D02*
X161200000Y-51877000D01*
X156374000Y-66101000D02*
X160438000Y-66101000D01*
X160438000Y-66101000D02*
X161200000Y-66863000D01*
X161200000Y-66863000D02*
X161200000Y-74610000D01*
X135800000Y-88580000D02*
X135800000Y-98994000D01*
X136562000Y-87818000D02*
X135800000Y-88580000D01*
X140626000Y-87818000D02*
X136562000Y-87818000D01*
X135800000Y-84008000D02*
X135800000Y-76261000D01*
X140626000Y-84770000D02*
X136562000Y-84770000D01*
X136562000Y-84770000D02*
X135800000Y-84008000D01*
X161200000Y-105725000D02*
X161200000Y-95311000D01*
X160438000Y-106487000D02*
X161200000Y-105725000D01*
X156374000Y-106487000D02*
X160438000Y-106487000D01*
X156374000Y-109535000D02*
X160438000Y-109535000D01*
X161200000Y-110297000D02*
X161200000Y-118044000D01*
X160438000Y-109535000D02*
X161200000Y-110297000D01*
X140626000Y-131252000D02*
X136562000Y-131252000D01*
X135800000Y-132014000D02*
X135800000Y-142428000D01*
X136562000Y-131252000D02*
X135800000Y-132014000D01*
X140626000Y-128204000D02*
X136562000Y-128204000D01*
X135800000Y-127442000D02*
X135800000Y-119695000D01*
X136562000Y-128204000D02*
X135800000Y-127442000D01*
X156374000Y-149921000D02*
X160438000Y-149921000D01*
X161200000Y-149159000D02*
X161200000Y-138745000D01*
X160438000Y-149921000D02*
X161200000Y-149159000D01*
X160438000Y-152969000D02*
X161200000Y-153731000D01*
X156374000Y-152969000D02*
X160438000Y-152969000D01*
X161200000Y-153731000D02*
X161200000Y-161478000D01*
G04 #@! TA.AperFunction,Conductor*
G36*
X162157621Y-93045502D02*
G01*
X162204114Y-93099158D01*
X162215500Y-93151500D01*
X162215500Y-122870500D01*
X162195498Y-122938621D01*
X162141842Y-122985114D01*
X162089500Y-122996500D01*
X160310500Y-122996500D01*
X160242379Y-122976498D01*
X160195886Y-122922842D01*
X160184500Y-122870500D01*
X160184500Y-113264396D01*
X160185666Y-113261374D01*
X160184500Y-113213881D01*
X160184500Y-113206442D01*
X160185448Y-113191016D01*
X160186005Y-113186496D01*
X160182968Y-113145329D01*
X160182665Y-113139181D01*
X160182312Y-113124803D01*
X160182618Y-113112426D01*
X160182670Y-113111707D01*
X160182672Y-113111702D01*
X160182579Y-113110955D01*
X160181670Y-113098612D01*
X160181652Y-113097880D01*
X160181490Y-113097159D01*
X160179374Y-113084974D01*
X160177615Y-113070718D01*
X160177012Y-113064581D01*
X160175957Y-113050282D01*
X160175653Y-113037899D01*
X160175670Y-113037174D01*
X160175672Y-113037169D01*
X160175545Y-113036441D01*
X160174030Y-113024150D01*
X160173975Y-113023412D01*
X160173975Y-113023408D01*
X160173972Y-113023403D01*
X160173774Y-113022684D01*
X160171067Y-113010633D01*
X160168602Y-112996427D01*
X160167707Y-112990393D01*
X160165951Y-112976156D01*
X160165043Y-112963820D01*
X160165024Y-112963064D01*
X160165023Y-112963062D01*
X160165024Y-112963060D01*
X160163499Y-112956270D01*
X160162652Y-112949401D01*
X160161499Y-112947368D01*
X160159124Y-112936790D01*
X160159124Y-112936789D01*
X160159123Y-112936786D01*
X160155974Y-112922761D01*
X160154769Y-112916700D01*
X160152322Y-112902596D01*
X160150808Y-112890326D01*
X160150752Y-112889566D01*
X160150553Y-112888848D01*
X160150550Y-112888838D01*
X160148900Y-112882875D01*
X160147715Y-112876045D01*
X160146462Y-112874066D01*
X160139737Y-112849767D01*
X160138237Y-112843776D01*
X160135096Y-112829789D01*
X160132979Y-112817583D01*
X160132890Y-112816870D01*
X160132891Y-112816867D01*
X160132656Y-112816155D01*
X160129357Y-112804234D01*
X160129194Y-112803508D01*
X160129193Y-112803503D01*
X160129189Y-112803498D01*
X160128888Y-112802818D01*
X160124438Y-112791278D01*
X160119931Y-112777633D01*
X160118138Y-112771723D01*
X160114326Y-112757949D01*
X160111614Y-112745873D01*
X160111483Y-112745117D01*
X160111213Y-112744418D01*
X160111209Y-112744407D01*
X160108978Y-112738624D01*
X160107134Y-112731959D01*
X160105696Y-112730118D01*
X160101796Y-112720007D01*
X160101792Y-112719997D01*
X160096630Y-112706615D01*
X160094547Y-112700794D01*
X160090041Y-112687155D01*
X160086739Y-112675221D01*
X160086583Y-112674528D01*
X160086583Y-112674522D01*
X160086283Y-112673845D01*
X160081837Y-112662319D01*
X160081596Y-112661589D01*
X160081594Y-112661587D01*
X160081592Y-112661580D01*
X160081210Y-112660906D01*
X160075663Y-112649888D01*
X160069841Y-112636753D01*
X160067497Y-112631094D01*
X160062326Y-112617690D01*
X160058449Y-112605949D01*
X160058248Y-112605224D01*
X160058248Y-112605221D01*
X160057904Y-112604537D01*
X160055117Y-112599001D01*
X160052628Y-112592547D01*
X160051015Y-112590853D01*
X160039679Y-112568333D01*
X160037046Y-112562766D01*
X160031225Y-112549635D01*
X160026775Y-112538095D01*
X160026546Y-112537402D01*
X160026180Y-112536756D01*
X160020627Y-112525724D01*
X160020315Y-112525020D01*
X160020313Y-112525018D01*
X160020313Y-112525017D01*
X160019879Y-112524401D01*
X160013264Y-112513956D01*
X160006189Y-112501467D01*
X160003289Y-112496041D01*
X159996833Y-112483215D01*
X159991823Y-112471912D01*
X159991556Y-112471220D01*
X159991555Y-112471214D01*
X159987835Y-112465340D01*
X159984720Y-112459151D01*
X159982948Y-112457622D01*
X159969461Y-112436325D01*
X159966301Y-112431054D01*
X159959212Y-112418539D01*
X159953653Y-112407492D01*
X159953359Y-112406829D01*
X159953359Y-112406828D01*
X159952980Y-112406290D01*
X159952516Y-112404927D01*
X159948328Y-112395474D01*
X159949172Y-112395099D01*
X159930113Y-112339079D01*
X159930000Y-112333744D01*
X159930000Y-111948000D01*
X159544255Y-111948000D01*
X159528877Y-111943949D01*
X159515585Y-111944695D01*
X159492627Y-111934400D01*
X159482179Y-111931648D01*
X159476786Y-111928595D01*
X159471170Y-111924640D01*
X159468897Y-111924128D01*
X159459492Y-111918804D01*
X159459488Y-111918800D01*
X159459466Y-111918789D01*
X159446962Y-111911706D01*
X159441665Y-111908531D01*
X159434444Y-111903958D01*
X159429531Y-111900847D01*
X159419440Y-111893740D01*
X159418846Y-111893277D01*
X159418177Y-111892940D01*
X159407433Y-111886854D01*
X159406785Y-111886443D01*
X159406060Y-111886164D01*
X159394776Y-111881161D01*
X159385320Y-111876401D01*
X159381961Y-111874710D01*
X159376524Y-111871803D01*
X159364051Y-111864738D01*
X159353590Y-111858114D01*
X159352977Y-111857682D01*
X159352288Y-111857377D01*
X159352287Y-111857377D01*
X159346624Y-111854866D01*
X159340596Y-111851452D01*
X159338273Y-111851165D01*
X159315250Y-111840960D01*
X159309672Y-111838322D01*
X159296828Y-111831857D01*
X159286079Y-111825767D01*
X159285457Y-111825373D01*
X159285452Y-111825371D01*
X159284766Y-111825106D01*
X159273461Y-111820095D01*
X159272777Y-111819750D01*
X159272034Y-111819545D01*
X159260305Y-111815669D01*
X159246915Y-111810504D01*
X159241233Y-111808151D01*
X159228110Y-111802334D01*
X159217087Y-111796786D01*
X159216413Y-111796404D01*
X159216410Y-111796403D01*
X159209802Y-111794220D01*
X159203476Y-111791416D01*
X159201140Y-111791358D01*
X159190845Y-111787956D01*
X159190843Y-111787954D01*
X159177211Y-111783452D01*
X159171381Y-111781366D01*
X159157997Y-111776203D01*
X159146689Y-111771191D01*
X159146043Y-111770866D01*
X159146040Y-111770865D01*
X159145326Y-111770667D01*
X159133604Y-111766794D01*
X159132884Y-111766516D01*
X159132104Y-111766381D01*
X159120070Y-111763677D01*
X159106258Y-111759855D01*
X159100361Y-111758066D01*
X159086717Y-111753559D01*
X159075184Y-111749110D01*
X159074498Y-111748806D01*
X159073754Y-111748639D01*
X159061854Y-111745346D01*
X159061130Y-111745106D01*
X159060377Y-111745014D01*
X159048198Y-111742900D01*
X159034213Y-111739759D01*
X159028216Y-111738257D01*
X159014395Y-111734432D01*
X159002661Y-111730556D01*
X159001954Y-111730283D01*
X159001214Y-111730155D01*
X158989159Y-111727448D01*
X158988430Y-111727246D01*
X158987655Y-111727189D01*
X158975413Y-111725678D01*
X158961298Y-111723229D01*
X158955230Y-111722022D01*
X158941212Y-111718874D01*
X158929315Y-111715583D01*
X158928592Y-111715344D01*
X158927851Y-111715253D01*
X158915689Y-111713143D01*
X158914939Y-111712974D01*
X158914175Y-111712956D01*
X158901844Y-111712045D01*
X158887614Y-111710289D01*
X158881513Y-111709384D01*
X158867382Y-111706933D01*
X158855311Y-111704223D01*
X158854591Y-111704023D01*
X158853834Y-111703968D01*
X158853832Y-111703968D01*
X158851977Y-111703831D01*
X158847664Y-111703512D01*
X158840830Y-111702327D01*
X158838546Y-111702839D01*
X158827732Y-111702041D01*
X158827726Y-111702041D01*
X158813422Y-111700986D01*
X158807269Y-111700380D01*
X158802267Y-111699763D01*
X158793021Y-111698622D01*
X158780848Y-111696511D01*
X158780112Y-111696345D01*
X158779346Y-111696327D01*
X158779346Y-111696326D01*
X158773176Y-111696174D01*
X158766297Y-111695327D01*
X158764039Y-111695950D01*
X158754008Y-111695704D01*
X158748883Y-111695579D01*
X158738843Y-111695333D01*
X158732667Y-111695030D01*
X158717485Y-111693910D01*
X158691502Y-111691994D01*
X158691501Y-111691994D01*
X158691499Y-111691994D01*
X158686967Y-111692553D01*
X158671549Y-111693500D01*
X158665649Y-111693500D01*
X158662560Y-111693462D01*
X158653937Y-111693250D01*
X158616621Y-111692335D01*
X158616620Y-111692335D01*
X158613478Y-111692258D01*
X158599058Y-111693500D01*
X134910500Y-111693500D01*
X134842379Y-111673498D01*
X134795886Y-111619842D01*
X134784500Y-111567500D01*
X134784500Y-110827396D01*
X134785666Y-110824374D01*
X134784500Y-110776881D01*
X134784500Y-110769442D01*
X134785448Y-110754016D01*
X134786005Y-110749496D01*
X134782968Y-110708329D01*
X134782665Y-110702181D01*
X134782312Y-110687803D01*
X134782618Y-110675426D01*
X134782670Y-110674707D01*
X134782672Y-110674702D01*
X134782579Y-110673955D01*
X134781670Y-110661612D01*
X134781652Y-110660880D01*
X134781490Y-110660159D01*
X134779374Y-110647974D01*
X134777615Y-110633718D01*
X134777012Y-110627581D01*
X134775957Y-110613282D01*
X134775653Y-110600899D01*
X134775670Y-110600174D01*
X134775672Y-110600169D01*
X134775545Y-110599441D01*
X134774030Y-110587150D01*
X134773975Y-110586412D01*
X134773975Y-110586408D01*
X134773972Y-110586403D01*
X134773774Y-110585684D01*
X134771067Y-110573633D01*
X134768602Y-110559427D01*
X134767707Y-110553393D01*
X134765951Y-110539156D01*
X134765043Y-110526820D01*
X134765024Y-110526064D01*
X134765023Y-110526062D01*
X134765024Y-110526060D01*
X134763499Y-110519270D01*
X134762652Y-110512401D01*
X134761499Y-110510368D01*
X134759124Y-110499790D01*
X134759124Y-110499789D01*
X134759123Y-110499786D01*
X134755974Y-110485761D01*
X134754769Y-110479700D01*
X134752322Y-110465596D01*
X134750808Y-110453326D01*
X134750752Y-110452566D01*
X134750553Y-110451848D01*
X134750550Y-110451838D01*
X134748900Y-110445875D01*
X134747715Y-110439045D01*
X134746462Y-110437066D01*
X134739737Y-110412767D01*
X134738237Y-110406776D01*
X134735096Y-110392789D01*
X134732979Y-110380583D01*
X134732890Y-110379870D01*
X134732891Y-110379867D01*
X134732656Y-110379155D01*
X134729357Y-110367234D01*
X134729194Y-110366508D01*
X134729193Y-110366503D01*
X134729189Y-110366498D01*
X134728888Y-110365818D01*
X134724438Y-110354278D01*
X134719931Y-110340633D01*
X134718138Y-110334723D01*
X134714326Y-110320949D01*
X134711614Y-110308873D01*
X134711483Y-110308117D01*
X134711213Y-110307418D01*
X134711209Y-110307407D01*
X134708978Y-110301624D01*
X134707134Y-110294959D01*
X134705696Y-110293118D01*
X134701796Y-110283007D01*
X134701792Y-110282997D01*
X134696630Y-110269615D01*
X134694547Y-110263794D01*
X134690041Y-110250155D01*
X134686739Y-110238221D01*
X134686583Y-110237528D01*
X134686583Y-110237522D01*
X134686283Y-110236845D01*
X134681837Y-110225319D01*
X134681596Y-110224589D01*
X134681594Y-110224587D01*
X134681592Y-110224580D01*
X134681210Y-110223906D01*
X134675663Y-110212888D01*
X134669841Y-110199753D01*
X134667497Y-110194094D01*
X134662326Y-110180690D01*
X134658449Y-110168949D01*
X134658248Y-110168224D01*
X134658248Y-110168221D01*
X134657902Y-110167535D01*
X134652888Y-110156221D01*
X134648792Y-110145601D01*
X134642941Y-110074846D01*
X134676271Y-110012160D01*
X134718133Y-109983851D01*
X134724721Y-109981121D01*
X134724730Y-109981119D01*
X134839770Y-109914700D01*
X134933700Y-109820770D01*
X135000119Y-109705730D01*
X135026137Y-109608631D01*
X155814699Y-109608631D01*
X155852816Y-109750882D01*
X155926446Y-109878414D01*
X155926454Y-109878424D01*
X156030575Y-109982545D01*
X156030580Y-109982549D01*
X156030582Y-109982551D01*
X156030583Y-109982552D01*
X156030585Y-109982553D01*
X156053589Y-109995834D01*
X156158118Y-110056184D01*
X156300367Y-110094300D01*
X156300369Y-110094300D01*
X156447631Y-110094300D01*
X156447633Y-110094300D01*
X156589882Y-110056184D01*
X156717418Y-109982551D01*
X156718852Y-109981117D01*
X156746565Y-109953405D01*
X156808877Y-109919379D01*
X156835660Y-109916500D01*
X160227787Y-109916500D01*
X160295908Y-109936502D01*
X160316882Y-109953405D01*
X160781595Y-110418118D01*
X160815621Y-110480430D01*
X160818500Y-110507213D01*
X160818500Y-117582340D01*
X160798498Y-117650461D01*
X160781595Y-117671435D01*
X160752454Y-117700575D01*
X160752446Y-117700585D01*
X160678816Y-117828117D01*
X160640700Y-117970368D01*
X160640700Y-118117631D01*
X160640699Y-118117631D01*
X160678816Y-118259882D01*
X160752446Y-118387414D01*
X160752454Y-118387424D01*
X160856575Y-118491545D01*
X160856580Y-118491549D01*
X160856582Y-118491551D01*
X160984118Y-118565184D01*
X161126367Y-118603300D01*
X161126369Y-118603300D01*
X161273631Y-118603300D01*
X161273633Y-118603300D01*
X161415882Y-118565184D01*
X161543418Y-118491551D01*
X161647551Y-118387418D01*
X161721184Y-118259882D01*
X161759300Y-118117633D01*
X161759300Y-117970367D01*
X161721184Y-117828118D01*
X161647551Y-117700582D01*
X161647549Y-117700580D01*
X161647545Y-117700575D01*
X161618405Y-117671435D01*
X161584379Y-117609123D01*
X161581500Y-117582340D01*
X161581500Y-110357388D01*
X161581501Y-110357375D01*
X161581501Y-110246776D01*
X161579209Y-110238221D01*
X161555502Y-110149747D01*
X161547832Y-110136462D01*
X161505278Y-110062756D01*
X161505270Y-110062746D01*
X160672253Y-109229729D01*
X160672243Y-109229721D01*
X160585258Y-109179500D01*
X160573792Y-109176427D01*
X160488225Y-109153500D01*
X160488223Y-109153500D01*
X156835660Y-109153500D01*
X156767539Y-109133498D01*
X156746565Y-109116595D01*
X156717424Y-109087454D01*
X156717414Y-109087446D01*
X156589882Y-109013816D01*
X156579373Y-109011000D01*
X156447633Y-108975700D01*
X156300367Y-108975700D01*
X156205534Y-109001110D01*
X156158117Y-109013816D01*
X156030585Y-109087446D01*
X156030575Y-109087454D01*
X155926454Y-109191575D01*
X155926446Y-109191585D01*
X155852816Y-109319117D01*
X155814700Y-109461368D01*
X155814700Y-109608631D01*
X155814699Y-109608631D01*
X135026137Y-109608631D01*
X135034500Y-109577419D01*
X135034500Y-109444581D01*
X135000119Y-109316270D01*
X134950151Y-109229724D01*
X134933702Y-109201233D01*
X134933694Y-109201223D01*
X134833931Y-109101460D01*
X134836054Y-109099336D01*
X134802677Y-109053628D01*
X134798453Y-108982757D01*
X134833216Y-108920853D01*
X134836228Y-108918242D01*
X134933694Y-108820776D01*
X134933700Y-108820770D01*
X135000119Y-108705730D01*
X135034500Y-108577419D01*
X135034500Y-108444581D01*
X135000119Y-108316270D01*
X134933700Y-108201230D01*
X134933698Y-108201228D01*
X134933694Y-108201223D01*
X134833931Y-108101460D01*
X134836054Y-108099336D01*
X134802677Y-108053628D01*
X134798453Y-107982757D01*
X134833216Y-107920853D01*
X134836228Y-107918242D01*
X134933694Y-107820776D01*
X134933700Y-107820770D01*
X135000119Y-107705730D01*
X135034500Y-107577419D01*
X135034500Y-107444581D01*
X135000119Y-107316270D01*
X134933700Y-107201230D01*
X134933698Y-107201228D01*
X134933694Y-107201223D01*
X134833931Y-107101460D01*
X134836054Y-107099336D01*
X134802677Y-107053628D01*
X134798453Y-106982757D01*
X134833216Y-106920853D01*
X134836228Y-106918242D01*
X134933694Y-106820776D01*
X134933700Y-106820770D01*
X135000119Y-106705730D01*
X135034500Y-106577419D01*
X135034500Y-106560631D01*
X155814699Y-106560631D01*
X155852816Y-106702882D01*
X155926446Y-106830414D01*
X155926454Y-106830424D01*
X156030575Y-106934545D01*
X156030580Y-106934549D01*
X156030582Y-106934551D01*
X156158118Y-107008184D01*
X156300367Y-107046300D01*
X156300369Y-107046300D01*
X156447631Y-107046300D01*
X156447633Y-107046300D01*
X156589882Y-107008184D01*
X156717418Y-106934551D01*
X156731116Y-106920853D01*
X156746565Y-106905405D01*
X156808877Y-106871379D01*
X156835660Y-106868500D01*
X160488223Y-106868500D01*
X160488225Y-106868500D01*
X160585254Y-106842501D01*
X160585257Y-106842499D01*
X160585258Y-106842499D01*
X160628750Y-106817388D01*
X160672247Y-106792276D01*
X160743276Y-106721247D01*
X161505276Y-105959247D01*
X161555502Y-105872253D01*
X161581501Y-105775225D01*
X161581501Y-105674775D01*
X161581501Y-105667058D01*
X161581500Y-105667040D01*
X161581500Y-95772659D01*
X161601502Y-95704538D01*
X161618401Y-95683567D01*
X161647551Y-95654418D01*
X161721184Y-95526882D01*
X161759300Y-95384633D01*
X161759300Y-95237367D01*
X161721184Y-95095118D01*
X161647551Y-94967582D01*
X161647549Y-94967580D01*
X161647545Y-94967575D01*
X161543424Y-94863454D01*
X161543414Y-94863446D01*
X161415882Y-94789816D01*
X161273633Y-94751700D01*
X161126367Y-94751700D01*
X161031534Y-94777110D01*
X160984117Y-94789816D01*
X160856585Y-94863446D01*
X160856575Y-94863454D01*
X160752454Y-94967575D01*
X160752446Y-94967585D01*
X160678816Y-95095117D01*
X160640700Y-95237368D01*
X160640700Y-95384631D01*
X160640699Y-95384631D01*
X160678816Y-95526882D01*
X160752446Y-95654414D01*
X160752448Y-95654417D01*
X160752449Y-95654418D01*
X160781595Y-95683564D01*
X160815620Y-95745874D01*
X160818500Y-95772659D01*
X160818500Y-105514787D01*
X160798498Y-105582908D01*
X160781595Y-105603882D01*
X160316882Y-106068595D01*
X160254570Y-106102621D01*
X160227787Y-106105500D01*
X156835660Y-106105500D01*
X156767539Y-106085498D01*
X156746565Y-106068595D01*
X156717424Y-106039454D01*
X156717414Y-106039446D01*
X156589882Y-105965816D01*
X156565366Y-105959247D01*
X156447633Y-105927700D01*
X156300367Y-105927700D01*
X156205534Y-105953110D01*
X156158117Y-105965816D01*
X156030585Y-106039446D01*
X156030575Y-106039454D01*
X155926454Y-106143575D01*
X155926446Y-106143585D01*
X155852816Y-106271117D01*
X155814700Y-106413368D01*
X155814700Y-106560631D01*
X155814699Y-106560631D01*
X135034500Y-106560631D01*
X135034500Y-106444581D01*
X135000119Y-106316270D01*
X134959470Y-106245865D01*
X134933702Y-106201233D01*
X134933694Y-106201223D01*
X134839776Y-106107305D01*
X134839766Y-106107297D01*
X134724728Y-106040880D01*
X134718126Y-106038145D01*
X134712183Y-106033355D01*
X134704745Y-106031651D01*
X134684922Y-106011384D01*
X134662848Y-105993594D01*
X134660438Y-105986352D01*
X134655102Y-105980897D01*
X134649382Y-105953128D01*
X134640431Y-105926229D01*
X134641961Y-105917103D01*
X134640779Y-105911360D01*
X134648790Y-105876402D01*
X134652626Y-105866453D01*
X134652628Y-105866452D01*
X134652895Y-105865758D01*
X134657902Y-105854463D01*
X134658248Y-105853778D01*
X134658248Y-105853769D01*
X134658450Y-105853046D01*
X134662326Y-105841307D01*
X134667499Y-105827897D01*
X134669834Y-105822258D01*
X134675667Y-105809101D01*
X134681219Y-105798073D01*
X134681589Y-105797417D01*
X134681596Y-105797410D01*
X134683777Y-105790806D01*
X134686583Y-105784477D01*
X134686640Y-105782139D01*
X134694554Y-105758181D01*
X134696620Y-105752407D01*
X134701796Y-105738989D01*
X134706818Y-105727666D01*
X134707128Y-105727047D01*
X134707134Y-105727040D01*
X134707329Y-105726333D01*
X134711213Y-105714579D01*
X134711484Y-105713878D01*
X134711483Y-105713870D01*
X134711613Y-105713127D01*
X134714317Y-105701081D01*
X134718153Y-105687221D01*
X134719931Y-105681361D01*
X134722108Y-105674771D01*
X134724440Y-105667710D01*
X134728894Y-105656170D01*
X134729192Y-105655497D01*
X134729191Y-105655497D01*
X134729193Y-105655496D01*
X134730714Y-105648720D01*
X134732891Y-105642132D01*
X134732718Y-105639796D01*
X134738238Y-105615218D01*
X134739740Y-105609222D01*
X134743568Y-105595390D01*
X134747452Y-105583635D01*
X134747712Y-105582958D01*
X134747715Y-105582954D01*
X134747841Y-105582222D01*
X134750555Y-105570143D01*
X134750752Y-105569432D01*
X134750752Y-105569428D01*
X134750809Y-105568667D01*
X134752322Y-105556401D01*
X134754769Y-105542297D01*
X134755974Y-105536235D01*
X134759124Y-105522204D01*
X134762431Y-105510263D01*
X134762648Y-105509604D01*
X134762652Y-105509598D01*
X134762739Y-105508884D01*
X134764854Y-105496694D01*
X134765024Y-105495939D01*
X134765023Y-105495933D01*
X134765042Y-105495180D01*
X134765948Y-105482869D01*
X134767712Y-105468563D01*
X134768605Y-105462548D01*
X134771064Y-105448379D01*
X134773777Y-105436303D01*
X134773970Y-105435599D01*
X134773975Y-105435591D01*
X134774485Y-105428666D01*
X134775672Y-105421830D01*
X134775158Y-105419544D01*
X134776037Y-105407625D01*
X134777012Y-105394414D01*
X134777618Y-105388262D01*
X134779372Y-105374042D01*
X134781491Y-105361836D01*
X134781649Y-105361125D01*
X134781652Y-105361120D01*
X134781822Y-105354185D01*
X134782672Y-105347297D01*
X134782046Y-105345037D01*
X134782665Y-105319814D01*
X134782968Y-105313668D01*
X134786005Y-105272505D01*
X134785447Y-105267978D01*
X134784500Y-105252555D01*
X134784500Y-105246662D01*
X134784538Y-105243569D01*
X134785743Y-105194490D01*
X134784500Y-105180053D01*
X134784500Y-104454500D01*
X134804502Y-104386379D01*
X134858158Y-104339886D01*
X134910500Y-104328500D01*
X158613603Y-104328500D01*
X158616626Y-104329666D01*
X158664118Y-104328500D01*
X158671556Y-104328500D01*
X158686980Y-104329448D01*
X158691501Y-104330005D01*
X158691501Y-104330004D01*
X158691502Y-104330005D01*
X158732668Y-104326967D01*
X158738814Y-104326665D01*
X158753194Y-104326312D01*
X158765558Y-104326617D01*
X158766292Y-104326670D01*
X158766297Y-104326672D01*
X158767045Y-104326579D01*
X158779386Y-104325670D01*
X158779502Y-104325667D01*
X158780120Y-104325652D01*
X158780121Y-104325651D01*
X158780827Y-104325493D01*
X158793033Y-104323374D01*
X158807277Y-104321617D01*
X158813430Y-104321011D01*
X158827714Y-104319957D01*
X158840097Y-104319653D01*
X158840824Y-104319670D01*
X158840830Y-104319672D01*
X158841554Y-104319546D01*
X158853843Y-104318030D01*
X158854591Y-104317975D01*
X158854597Y-104317971D01*
X158855300Y-104317778D01*
X158867375Y-104315065D01*
X158881530Y-104312609D01*
X158887614Y-104311708D01*
X158891855Y-104311184D01*
X158901841Y-104309952D01*
X158914197Y-104309041D01*
X158914928Y-104309022D01*
X158914938Y-104309024D01*
X158919632Y-104307969D01*
X158921718Y-104307500D01*
X158928598Y-104306653D01*
X158930635Y-104305499D01*
X158955242Y-104299972D01*
X158961245Y-104298777D01*
X158975430Y-104296316D01*
X158987671Y-104294808D01*
X158988427Y-104294751D01*
X158988432Y-104294752D01*
X158988969Y-104294603D01*
X158989148Y-104294554D01*
X158989149Y-104294553D01*
X158995121Y-104292900D01*
X159001955Y-104291715D01*
X159003934Y-104290461D01*
X159028260Y-104283728D01*
X159034202Y-104282240D01*
X159048205Y-104279096D01*
X159060397Y-104276981D01*
X159061125Y-104276890D01*
X159061132Y-104276891D01*
X159061840Y-104276656D01*
X159073758Y-104273358D01*
X159074496Y-104273193D01*
X159074500Y-104273190D01*
X159075170Y-104272894D01*
X159086710Y-104268440D01*
X159100372Y-104263927D01*
X159106221Y-104262153D01*
X159120081Y-104258317D01*
X159132127Y-104255613D01*
X159132870Y-104255483D01*
X159132878Y-104255484D01*
X159139367Y-104252980D01*
X159146040Y-104251134D01*
X159147882Y-104249695D01*
X159171407Y-104240620D01*
X159177178Y-104238555D01*
X159190857Y-104234036D01*
X159202768Y-104230741D01*
X159203466Y-104230583D01*
X159203476Y-104230583D01*
X159204139Y-104230288D01*
X159215694Y-104225832D01*
X159216410Y-104225596D01*
X159216415Y-104225591D01*
X159217077Y-104225217D01*
X159228110Y-104219663D01*
X159241247Y-104213840D01*
X159246894Y-104211501D01*
X159260303Y-104206328D01*
X159272059Y-104202445D01*
X159272763Y-104202249D01*
X159272778Y-104202248D01*
X159278992Y-104199119D01*
X159285452Y-104196628D01*
X159287145Y-104195015D01*
X159309694Y-104183664D01*
X159315232Y-104181045D01*
X159328357Y-104175227D01*
X159339891Y-104170779D01*
X159340589Y-104170547D01*
X159340596Y-104170547D01*
X159341234Y-104170185D01*
X159352286Y-104164621D01*
X159352979Y-104164315D01*
X159352983Y-104164310D01*
X159353587Y-104163886D01*
X159364053Y-104157257D01*
X159376525Y-104150193D01*
X159381943Y-104147296D01*
X159394779Y-104140834D01*
X159406077Y-104135828D01*
X159406781Y-104135556D01*
X159406781Y-104135555D01*
X159406785Y-104135555D01*
X159412658Y-104131835D01*
X159418848Y-104128720D01*
X159420376Y-104126948D01*
X159441677Y-104113458D01*
X159446924Y-104110313D01*
X159459472Y-104103205D01*
X159470509Y-104097651D01*
X159471161Y-104097360D01*
X159471170Y-104097359D01*
X159471210Y-104097330D01*
X159471701Y-104096986D01*
X159473031Y-104096533D01*
X159482530Y-104092324D01*
X159482906Y-104093172D01*
X159538912Y-104074113D01*
X159544255Y-104074000D01*
X159930000Y-104074000D01*
X159930000Y-103688255D01*
X159934048Y-103672883D01*
X159933301Y-103659601D01*
X159943586Y-103636662D01*
X159946344Y-103626193D01*
X159949405Y-103620784D01*
X159953359Y-103615171D01*
X159953868Y-103612898D01*
X159957925Y-103605730D01*
X159959199Y-103603480D01*
X159959202Y-103603478D01*
X159959219Y-103603446D01*
X159966298Y-103590949D01*
X159969466Y-103585665D01*
X159977144Y-103573541D01*
X159984270Y-103563424D01*
X159984714Y-103562852D01*
X159984720Y-103562848D01*
X159985053Y-103562184D01*
X159991151Y-103551422D01*
X159991555Y-103550785D01*
X159991556Y-103550776D01*
X159991827Y-103550078D01*
X159996841Y-103538767D01*
X160003288Y-103525959D01*
X160006182Y-103520542D01*
X160013264Y-103508040D01*
X160019889Y-103497583D01*
X160020312Y-103496982D01*
X160020312Y-103496981D01*
X160020315Y-103496979D01*
X160023132Y-103490623D01*
X160026546Y-103484597D01*
X160026832Y-103482275D01*
X160037053Y-103459215D01*
X160039669Y-103453684D01*
X160046146Y-103440816D01*
X160052245Y-103430054D01*
X160052621Y-103429458D01*
X160052628Y-103429452D01*
X160052890Y-103428770D01*
X160057902Y-103417463D01*
X160058248Y-103416778D01*
X160058248Y-103416769D01*
X160058450Y-103416046D01*
X160062326Y-103404307D01*
X160067499Y-103390897D01*
X160069834Y-103385258D01*
X160075667Y-103372101D01*
X160081219Y-103361073D01*
X160081589Y-103360417D01*
X160081596Y-103360410D01*
X160083777Y-103353806D01*
X160086583Y-103347477D01*
X160086640Y-103345139D01*
X160094554Y-103321181D01*
X160096620Y-103315407D01*
X160101796Y-103301989D01*
X160106818Y-103290666D01*
X160107128Y-103290047D01*
X160107134Y-103290040D01*
X160107329Y-103289333D01*
X160111213Y-103277579D01*
X160111484Y-103276878D01*
X160111483Y-103276870D01*
X160111613Y-103276127D01*
X160114317Y-103264081D01*
X160118153Y-103250221D01*
X160119931Y-103244361D01*
X160121797Y-103238712D01*
X160124440Y-103230710D01*
X160128894Y-103219170D01*
X160129192Y-103218497D01*
X160129191Y-103218497D01*
X160129193Y-103218496D01*
X160130714Y-103211720D01*
X160132891Y-103205132D01*
X160132718Y-103202796D01*
X160138238Y-103178218D01*
X160139740Y-103172222D01*
X160143568Y-103158390D01*
X160147452Y-103146635D01*
X160147712Y-103145958D01*
X160147715Y-103145954D01*
X160147841Y-103145222D01*
X160150555Y-103133143D01*
X160150752Y-103132432D01*
X160150752Y-103132428D01*
X160150809Y-103131667D01*
X160152322Y-103119401D01*
X160154769Y-103105297D01*
X160155974Y-103099235D01*
X160159124Y-103085204D01*
X160162431Y-103073263D01*
X160162648Y-103072604D01*
X160162652Y-103072598D01*
X160162739Y-103071884D01*
X160164854Y-103059694D01*
X160165024Y-103058939D01*
X160165023Y-103058933D01*
X160165042Y-103058180D01*
X160165948Y-103045869D01*
X160167712Y-103031563D01*
X160168605Y-103025548D01*
X160171064Y-103011379D01*
X160173777Y-102999303D01*
X160173970Y-102998599D01*
X160173975Y-102998591D01*
X160174485Y-102991666D01*
X160175672Y-102984830D01*
X160175158Y-102982544D01*
X160176037Y-102970625D01*
X160177012Y-102957414D01*
X160177618Y-102951262D01*
X160179372Y-102937042D01*
X160181491Y-102924836D01*
X160181649Y-102924125D01*
X160181652Y-102924120D01*
X160181822Y-102917185D01*
X160182672Y-102910297D01*
X160182046Y-102908037D01*
X160182665Y-102882814D01*
X160182968Y-102876668D01*
X160186005Y-102835505D01*
X160185447Y-102830978D01*
X160184500Y-102815555D01*
X160184500Y-102809662D01*
X160184538Y-102806569D01*
X160185743Y-102757490D01*
X160184500Y-102743053D01*
X160184500Y-93151500D01*
X160204502Y-93083379D01*
X160258158Y-93036886D01*
X160310500Y-93025500D01*
X162089500Y-93025500D01*
X162157621Y-93045502D01*
G37*
G04 #@! TD.AperFunction*
G04 #@! TA.AperFunction,Conductor*
G36*
X162157621Y-49611502D02*
G01*
X162204114Y-49665158D01*
X162215500Y-49717500D01*
X162215500Y-79436500D01*
X162195498Y-79504621D01*
X162141842Y-79551114D01*
X162089500Y-79562500D01*
X160310500Y-79562500D01*
X160242379Y-79542498D01*
X160195886Y-79488842D01*
X160184500Y-79436500D01*
X160184500Y-69830396D01*
X160185666Y-69827374D01*
X160184500Y-69779881D01*
X160184500Y-69772442D01*
X160185448Y-69757016D01*
X160186005Y-69752496D01*
X160182968Y-69711329D01*
X160182665Y-69705181D01*
X160182312Y-69690803D01*
X160182618Y-69678426D01*
X160182670Y-69677707D01*
X160182672Y-69677702D01*
X160182579Y-69676955D01*
X160181670Y-69664612D01*
X160181652Y-69663880D01*
X160181490Y-69663159D01*
X160179374Y-69650974D01*
X160177615Y-69636718D01*
X160177012Y-69630581D01*
X160175957Y-69616282D01*
X160175653Y-69603899D01*
X160175670Y-69603174D01*
X160175672Y-69603169D01*
X160175545Y-69602441D01*
X160174030Y-69590150D01*
X160173975Y-69589412D01*
X160173975Y-69589408D01*
X160173972Y-69589403D01*
X160173774Y-69588684D01*
X160171067Y-69576633D01*
X160168602Y-69562427D01*
X160167707Y-69556393D01*
X160165951Y-69542156D01*
X160165043Y-69529820D01*
X160165024Y-69529064D01*
X160165023Y-69529062D01*
X160165024Y-69529060D01*
X160163499Y-69522270D01*
X160162652Y-69515401D01*
X160161499Y-69513368D01*
X160159124Y-69502790D01*
X160159124Y-69502789D01*
X160159123Y-69502786D01*
X160155974Y-69488761D01*
X160154769Y-69482700D01*
X160152322Y-69468596D01*
X160150808Y-69456326D01*
X160150752Y-69455566D01*
X160150553Y-69454848D01*
X160150550Y-69454838D01*
X160148900Y-69448875D01*
X160147715Y-69442045D01*
X160146462Y-69440066D01*
X160139737Y-69415767D01*
X160138237Y-69409776D01*
X160135096Y-69395789D01*
X160132979Y-69383583D01*
X160132890Y-69382870D01*
X160132891Y-69382867D01*
X160132656Y-69382155D01*
X160129357Y-69370234D01*
X160129194Y-69369508D01*
X160129193Y-69369503D01*
X160129189Y-69369498D01*
X160128888Y-69368818D01*
X160124438Y-69357278D01*
X160119931Y-69343633D01*
X160118138Y-69337723D01*
X160114326Y-69323949D01*
X160111614Y-69311873D01*
X160111483Y-69311117D01*
X160111213Y-69310418D01*
X160111209Y-69310407D01*
X160108978Y-69304624D01*
X160107134Y-69297959D01*
X160105696Y-69296118D01*
X160101796Y-69286007D01*
X160101792Y-69285997D01*
X160096630Y-69272615D01*
X160094547Y-69266794D01*
X160090041Y-69253155D01*
X160086739Y-69241221D01*
X160086583Y-69240528D01*
X160086583Y-69240522D01*
X160086283Y-69239845D01*
X160081837Y-69228319D01*
X160081596Y-69227589D01*
X160081594Y-69227587D01*
X160081592Y-69227580D01*
X160081210Y-69226906D01*
X160075663Y-69215888D01*
X160069841Y-69202753D01*
X160067497Y-69197094D01*
X160062326Y-69183690D01*
X160058449Y-69171949D01*
X160058248Y-69171224D01*
X160058248Y-69171221D01*
X160057904Y-69170537D01*
X160055117Y-69165001D01*
X160052628Y-69158547D01*
X160051015Y-69156853D01*
X160039679Y-69134333D01*
X160037046Y-69128766D01*
X160031225Y-69115635D01*
X160026775Y-69104095D01*
X160026546Y-69103402D01*
X160026180Y-69102756D01*
X160020627Y-69091724D01*
X160020315Y-69091020D01*
X160020313Y-69091018D01*
X160020313Y-69091017D01*
X160019879Y-69090401D01*
X160013264Y-69079956D01*
X160006189Y-69067467D01*
X160003289Y-69062041D01*
X159996833Y-69049215D01*
X159991823Y-69037912D01*
X159991556Y-69037220D01*
X159991555Y-69037214D01*
X159987835Y-69031340D01*
X159984720Y-69025151D01*
X159982948Y-69023622D01*
X159969461Y-69002325D01*
X159966301Y-68997054D01*
X159959212Y-68984539D01*
X159953653Y-68973492D01*
X159953359Y-68972829D01*
X159953359Y-68972828D01*
X159952980Y-68972290D01*
X159952516Y-68970927D01*
X159948328Y-68961474D01*
X159949172Y-68961099D01*
X159930113Y-68905079D01*
X159930000Y-68899744D01*
X159930000Y-68514000D01*
X159544255Y-68514000D01*
X159528877Y-68509949D01*
X159515585Y-68510695D01*
X159492627Y-68500400D01*
X159482179Y-68497648D01*
X159476786Y-68494595D01*
X159471170Y-68490640D01*
X159468897Y-68490128D01*
X159459492Y-68484804D01*
X159459488Y-68484800D01*
X159459466Y-68484789D01*
X159446962Y-68477706D01*
X159441665Y-68474531D01*
X159434444Y-68469958D01*
X159429531Y-68466847D01*
X159419440Y-68459740D01*
X159418846Y-68459277D01*
X159418177Y-68458940D01*
X159407433Y-68452854D01*
X159406785Y-68452443D01*
X159406060Y-68452164D01*
X159394776Y-68447161D01*
X159385320Y-68442401D01*
X159381961Y-68440710D01*
X159376524Y-68437803D01*
X159364051Y-68430738D01*
X159353590Y-68424114D01*
X159352977Y-68423682D01*
X159352288Y-68423377D01*
X159352287Y-68423377D01*
X159346624Y-68420866D01*
X159340596Y-68417452D01*
X159338273Y-68417165D01*
X159315250Y-68406960D01*
X159309672Y-68404322D01*
X159296828Y-68397857D01*
X159286079Y-68391767D01*
X159285457Y-68391373D01*
X159285452Y-68391371D01*
X159284766Y-68391106D01*
X159273461Y-68386095D01*
X159272777Y-68385750D01*
X159272034Y-68385545D01*
X159260305Y-68381669D01*
X159246915Y-68376504D01*
X159241233Y-68374151D01*
X159228110Y-68368334D01*
X159217087Y-68362786D01*
X159216413Y-68362404D01*
X159216410Y-68362403D01*
X159209802Y-68360220D01*
X159203476Y-68357416D01*
X159201140Y-68357358D01*
X159190845Y-68353956D01*
X159190843Y-68353954D01*
X159177211Y-68349452D01*
X159171381Y-68347366D01*
X159157997Y-68342203D01*
X159146689Y-68337191D01*
X159146043Y-68336866D01*
X159146040Y-68336865D01*
X159145326Y-68336667D01*
X159133604Y-68332794D01*
X159132884Y-68332516D01*
X159132104Y-68332381D01*
X159120070Y-68329677D01*
X159106258Y-68325855D01*
X159100361Y-68324066D01*
X159086717Y-68319559D01*
X159075184Y-68315110D01*
X159074498Y-68314806D01*
X159073754Y-68314639D01*
X159061854Y-68311346D01*
X159061130Y-68311106D01*
X159060377Y-68311014D01*
X159048198Y-68308900D01*
X159034213Y-68305759D01*
X159028216Y-68304257D01*
X159014395Y-68300432D01*
X159002661Y-68296556D01*
X159001954Y-68296283D01*
X159001214Y-68296155D01*
X158989159Y-68293448D01*
X158988430Y-68293246D01*
X158987655Y-68293189D01*
X158975413Y-68291678D01*
X158961298Y-68289229D01*
X158955230Y-68288022D01*
X158941212Y-68284874D01*
X158929315Y-68281583D01*
X158928592Y-68281344D01*
X158927851Y-68281253D01*
X158915689Y-68279143D01*
X158914939Y-68278974D01*
X158914175Y-68278956D01*
X158901844Y-68278045D01*
X158887614Y-68276289D01*
X158881513Y-68275384D01*
X158867382Y-68272933D01*
X158855311Y-68270223D01*
X158854591Y-68270023D01*
X158853834Y-68269968D01*
X158853832Y-68269968D01*
X158851977Y-68269831D01*
X158847664Y-68269512D01*
X158840830Y-68268327D01*
X158838546Y-68268839D01*
X158827732Y-68268041D01*
X158827726Y-68268041D01*
X158813422Y-68266986D01*
X158807269Y-68266380D01*
X158802267Y-68265763D01*
X158793021Y-68264622D01*
X158780848Y-68262511D01*
X158780112Y-68262345D01*
X158779346Y-68262327D01*
X158779346Y-68262326D01*
X158773176Y-68262174D01*
X158766297Y-68261327D01*
X158764039Y-68261950D01*
X158754008Y-68261704D01*
X158748883Y-68261579D01*
X158738843Y-68261333D01*
X158732667Y-68261030D01*
X158717485Y-68259910D01*
X158691502Y-68257994D01*
X158691501Y-68257994D01*
X158691499Y-68257994D01*
X158686967Y-68258553D01*
X158671549Y-68259500D01*
X158665649Y-68259500D01*
X158662560Y-68259462D01*
X158653937Y-68259250D01*
X158616621Y-68258335D01*
X158616620Y-68258335D01*
X158613478Y-68258258D01*
X158599058Y-68259500D01*
X134910500Y-68259500D01*
X134842379Y-68239498D01*
X134795886Y-68185842D01*
X134784500Y-68133500D01*
X134784500Y-67393396D01*
X134785666Y-67390374D01*
X134784500Y-67342881D01*
X134784500Y-67335442D01*
X134785448Y-67320016D01*
X134786005Y-67315496D01*
X134782968Y-67274329D01*
X134782665Y-67268181D01*
X134782312Y-67253803D01*
X134782618Y-67241426D01*
X134782670Y-67240707D01*
X134782672Y-67240702D01*
X134782579Y-67239955D01*
X134781670Y-67227612D01*
X134781652Y-67226880D01*
X134781490Y-67226159D01*
X134779374Y-67213974D01*
X134777615Y-67199718D01*
X134777012Y-67193581D01*
X134775957Y-67179282D01*
X134775653Y-67166899D01*
X134775670Y-67166174D01*
X134775672Y-67166169D01*
X134775545Y-67165441D01*
X134774030Y-67153150D01*
X134773975Y-67152412D01*
X134773975Y-67152408D01*
X134773972Y-67152403D01*
X134773774Y-67151684D01*
X134771067Y-67139633D01*
X134768602Y-67125427D01*
X134767707Y-67119393D01*
X134765951Y-67105156D01*
X134765043Y-67092820D01*
X134765024Y-67092064D01*
X134765023Y-67092062D01*
X134765024Y-67092060D01*
X134763499Y-67085270D01*
X134762652Y-67078401D01*
X134761499Y-67076368D01*
X134759124Y-67065790D01*
X134759124Y-67065789D01*
X134759123Y-67065786D01*
X134755974Y-67051761D01*
X134754769Y-67045700D01*
X134752322Y-67031596D01*
X134750808Y-67019326D01*
X134750752Y-67018566D01*
X134750553Y-67017848D01*
X134750550Y-67017838D01*
X134748900Y-67011875D01*
X134747715Y-67005045D01*
X134746462Y-67003066D01*
X134739737Y-66978767D01*
X134738237Y-66972776D01*
X134735096Y-66958789D01*
X134732979Y-66946583D01*
X134732890Y-66945870D01*
X134732891Y-66945867D01*
X134732656Y-66945155D01*
X134729357Y-66933234D01*
X134729194Y-66932508D01*
X134729193Y-66932503D01*
X134729189Y-66932498D01*
X134728888Y-66931818D01*
X134724438Y-66920278D01*
X134719931Y-66906633D01*
X134718138Y-66900723D01*
X134714326Y-66886949D01*
X134711614Y-66874873D01*
X134711483Y-66874117D01*
X134711213Y-66873418D01*
X134711209Y-66873407D01*
X134708978Y-66867624D01*
X134707134Y-66860959D01*
X134705696Y-66859118D01*
X134701796Y-66849007D01*
X134701792Y-66848997D01*
X134696630Y-66835615D01*
X134694547Y-66829794D01*
X134690041Y-66816155D01*
X134686739Y-66804221D01*
X134686583Y-66803528D01*
X134686583Y-66803522D01*
X134686283Y-66802845D01*
X134681837Y-66791319D01*
X134681596Y-66790589D01*
X134681594Y-66790587D01*
X134681592Y-66790580D01*
X134681210Y-66789906D01*
X134675663Y-66778888D01*
X134669841Y-66765753D01*
X134667497Y-66760094D01*
X134662326Y-66746690D01*
X134658449Y-66734949D01*
X134658248Y-66734224D01*
X134658248Y-66734221D01*
X134657902Y-66733535D01*
X134652888Y-66722221D01*
X134648792Y-66711601D01*
X134642941Y-66640846D01*
X134676271Y-66578160D01*
X134718133Y-66549851D01*
X134724721Y-66547121D01*
X134724730Y-66547119D01*
X134839770Y-66480700D01*
X134933700Y-66386770D01*
X135000119Y-66271730D01*
X135026137Y-66174631D01*
X155814699Y-66174631D01*
X155852816Y-66316882D01*
X155926446Y-66444414D01*
X155926454Y-66444424D01*
X156030575Y-66548545D01*
X156030580Y-66548549D01*
X156030582Y-66548551D01*
X156030583Y-66548552D01*
X156030585Y-66548553D01*
X156053589Y-66561834D01*
X156158118Y-66622184D01*
X156300367Y-66660300D01*
X156300369Y-66660300D01*
X156447631Y-66660300D01*
X156447633Y-66660300D01*
X156589882Y-66622184D01*
X156717418Y-66548551D01*
X156718852Y-66547117D01*
X156746565Y-66519405D01*
X156808877Y-66485379D01*
X156835660Y-66482500D01*
X160227787Y-66482500D01*
X160295908Y-66502502D01*
X160316882Y-66519405D01*
X160781595Y-66984118D01*
X160815621Y-67046430D01*
X160818500Y-67073213D01*
X160818500Y-74148340D01*
X160798498Y-74216461D01*
X160781595Y-74237435D01*
X160752454Y-74266575D01*
X160752446Y-74266585D01*
X160678816Y-74394117D01*
X160640700Y-74536368D01*
X160640700Y-74683631D01*
X160640699Y-74683631D01*
X160678816Y-74825882D01*
X160752446Y-74953414D01*
X160752454Y-74953424D01*
X160856575Y-75057545D01*
X160856580Y-75057549D01*
X160856582Y-75057551D01*
X160984118Y-75131184D01*
X161126367Y-75169300D01*
X161126369Y-75169300D01*
X161273631Y-75169300D01*
X161273633Y-75169300D01*
X161415882Y-75131184D01*
X161543418Y-75057551D01*
X161647551Y-74953418D01*
X161721184Y-74825882D01*
X161759300Y-74683633D01*
X161759300Y-74536367D01*
X161721184Y-74394118D01*
X161647551Y-74266582D01*
X161647549Y-74266580D01*
X161647545Y-74266575D01*
X161618405Y-74237435D01*
X161584379Y-74175123D01*
X161581500Y-74148340D01*
X161581500Y-66923388D01*
X161581501Y-66923375D01*
X161581501Y-66812776D01*
X161579209Y-66804221D01*
X161555502Y-66715747D01*
X161547832Y-66702462D01*
X161505278Y-66628756D01*
X161505270Y-66628746D01*
X160672253Y-65795729D01*
X160672243Y-65795721D01*
X160585258Y-65745500D01*
X160573792Y-65742427D01*
X160488225Y-65719500D01*
X160488223Y-65719500D01*
X156835660Y-65719500D01*
X156767539Y-65699498D01*
X156746565Y-65682595D01*
X156717424Y-65653454D01*
X156717414Y-65653446D01*
X156589882Y-65579816D01*
X156579373Y-65577000D01*
X156447633Y-65541700D01*
X156300367Y-65541700D01*
X156205534Y-65567110D01*
X156158117Y-65579816D01*
X156030585Y-65653446D01*
X156030575Y-65653454D01*
X155926454Y-65757575D01*
X155926446Y-65757585D01*
X155852816Y-65885117D01*
X155814700Y-66027368D01*
X155814700Y-66174631D01*
X155814699Y-66174631D01*
X135026137Y-66174631D01*
X135034500Y-66143419D01*
X135034500Y-66010581D01*
X135000119Y-65882270D01*
X134950151Y-65795724D01*
X134933702Y-65767233D01*
X134933694Y-65767223D01*
X134833931Y-65667460D01*
X134836054Y-65665336D01*
X134802677Y-65619628D01*
X134798453Y-65548757D01*
X134833216Y-65486853D01*
X134836228Y-65484242D01*
X134933694Y-65386776D01*
X134933700Y-65386770D01*
X135000119Y-65271730D01*
X135034500Y-65143419D01*
X135034500Y-65010581D01*
X135000119Y-64882270D01*
X134933700Y-64767230D01*
X134933698Y-64767228D01*
X134933694Y-64767223D01*
X134833931Y-64667460D01*
X134836054Y-64665336D01*
X134802677Y-64619628D01*
X134798453Y-64548757D01*
X134833216Y-64486853D01*
X134836228Y-64484242D01*
X134933694Y-64386776D01*
X134933700Y-64386770D01*
X135000119Y-64271730D01*
X135034500Y-64143419D01*
X135034500Y-64010581D01*
X135000119Y-63882270D01*
X134933700Y-63767230D01*
X134933698Y-63767228D01*
X134933694Y-63767223D01*
X134833931Y-63667460D01*
X134836054Y-63665336D01*
X134802677Y-63619628D01*
X134798453Y-63548757D01*
X134833216Y-63486853D01*
X134836228Y-63484242D01*
X134933694Y-63386776D01*
X134933700Y-63386770D01*
X135000119Y-63271730D01*
X135034500Y-63143419D01*
X135034500Y-63126631D01*
X155814699Y-63126631D01*
X155852816Y-63268882D01*
X155926446Y-63396414D01*
X155926454Y-63396424D01*
X156030575Y-63500545D01*
X156030580Y-63500549D01*
X156030582Y-63500551D01*
X156158118Y-63574184D01*
X156300367Y-63612300D01*
X156300369Y-63612300D01*
X156447631Y-63612300D01*
X156447633Y-63612300D01*
X156589882Y-63574184D01*
X156717418Y-63500551D01*
X156731116Y-63486853D01*
X156746565Y-63471405D01*
X156808877Y-63437379D01*
X156835660Y-63434500D01*
X160488223Y-63434500D01*
X160488225Y-63434500D01*
X160585254Y-63408501D01*
X160585257Y-63408499D01*
X160585258Y-63408499D01*
X160628750Y-63383388D01*
X160672247Y-63358276D01*
X160743276Y-63287247D01*
X161505276Y-62525247D01*
X161555502Y-62438253D01*
X161581501Y-62341225D01*
X161581501Y-62240775D01*
X161581501Y-62233058D01*
X161581500Y-62233040D01*
X161581500Y-52338659D01*
X161601502Y-52270538D01*
X161618401Y-52249567D01*
X161647551Y-52220418D01*
X161721184Y-52092882D01*
X161759300Y-51950633D01*
X161759300Y-51803367D01*
X161721184Y-51661118D01*
X161647551Y-51533582D01*
X161647549Y-51533580D01*
X161647545Y-51533575D01*
X161543424Y-51429454D01*
X161543414Y-51429446D01*
X161415882Y-51355816D01*
X161273633Y-51317700D01*
X161126367Y-51317700D01*
X161031534Y-51343110D01*
X160984117Y-51355816D01*
X160856585Y-51429446D01*
X160856575Y-51429454D01*
X160752454Y-51533575D01*
X160752446Y-51533585D01*
X160678816Y-51661117D01*
X160640700Y-51803368D01*
X160640700Y-51950631D01*
X160640699Y-51950631D01*
X160678816Y-52092882D01*
X160752446Y-52220414D01*
X160752448Y-52220417D01*
X160752449Y-52220418D01*
X160781595Y-52249564D01*
X160815620Y-52311874D01*
X160818500Y-52338659D01*
X160818500Y-62080787D01*
X160798498Y-62148908D01*
X160781595Y-62169882D01*
X160316882Y-62634595D01*
X160254570Y-62668621D01*
X160227787Y-62671500D01*
X156835660Y-62671500D01*
X156767539Y-62651498D01*
X156746565Y-62634595D01*
X156717424Y-62605454D01*
X156717414Y-62605446D01*
X156589882Y-62531816D01*
X156565366Y-62525247D01*
X156447633Y-62493700D01*
X156300367Y-62493700D01*
X156205534Y-62519110D01*
X156158117Y-62531816D01*
X156030585Y-62605446D01*
X156030575Y-62605454D01*
X155926454Y-62709575D01*
X155926446Y-62709585D01*
X155852816Y-62837117D01*
X155814700Y-62979368D01*
X155814700Y-63126631D01*
X155814699Y-63126631D01*
X135034500Y-63126631D01*
X135034500Y-63010581D01*
X135000119Y-62882270D01*
X134959470Y-62811865D01*
X134933702Y-62767233D01*
X134933694Y-62767223D01*
X134839776Y-62673305D01*
X134839766Y-62673297D01*
X134724728Y-62606880D01*
X134718126Y-62604145D01*
X134712183Y-62599355D01*
X134704745Y-62597651D01*
X134684922Y-62577384D01*
X134662848Y-62559594D01*
X134660438Y-62552352D01*
X134655102Y-62546897D01*
X134649382Y-62519128D01*
X134640431Y-62492229D01*
X134641961Y-62483103D01*
X134640779Y-62477360D01*
X134648790Y-62442402D01*
X134652626Y-62432453D01*
X134652628Y-62432452D01*
X134652895Y-62431758D01*
X134657902Y-62420463D01*
X134658248Y-62419778D01*
X134658248Y-62419769D01*
X134658450Y-62419046D01*
X134662326Y-62407307D01*
X134667499Y-62393897D01*
X134669834Y-62388258D01*
X134675667Y-62375101D01*
X134681219Y-62364073D01*
X134681589Y-62363417D01*
X134681596Y-62363410D01*
X134683777Y-62356806D01*
X134686583Y-62350477D01*
X134686640Y-62348139D01*
X134694554Y-62324181D01*
X134696620Y-62318407D01*
X134701796Y-62304989D01*
X134706818Y-62293666D01*
X134707128Y-62293047D01*
X134707134Y-62293040D01*
X134707329Y-62292333D01*
X134711213Y-62280579D01*
X134711484Y-62279878D01*
X134711483Y-62279870D01*
X134711613Y-62279127D01*
X134714317Y-62267081D01*
X134718153Y-62253221D01*
X134719931Y-62247361D01*
X134722108Y-62240771D01*
X134724440Y-62233710D01*
X134728894Y-62222170D01*
X134729192Y-62221497D01*
X134729191Y-62221497D01*
X134729193Y-62221496D01*
X134730714Y-62214720D01*
X134732891Y-62208132D01*
X134732718Y-62205796D01*
X134738238Y-62181218D01*
X134739740Y-62175222D01*
X134743568Y-62161390D01*
X134747452Y-62149635D01*
X134747712Y-62148958D01*
X134747715Y-62148954D01*
X134747841Y-62148222D01*
X134750555Y-62136143D01*
X134750752Y-62135432D01*
X134750752Y-62135428D01*
X134750809Y-62134667D01*
X134752322Y-62122401D01*
X134754769Y-62108297D01*
X134755974Y-62102235D01*
X134759124Y-62088204D01*
X134762431Y-62076263D01*
X134762648Y-62075604D01*
X134762652Y-62075598D01*
X134762739Y-62074884D01*
X134764854Y-62062694D01*
X134765024Y-62061939D01*
X134765023Y-62061933D01*
X134765042Y-62061180D01*
X134765948Y-62048869D01*
X134767712Y-62034563D01*
X134768605Y-62028548D01*
X134771064Y-62014379D01*
X134773777Y-62002303D01*
X134773970Y-62001599D01*
X134773975Y-62001591D01*
X134774485Y-61994666D01*
X134775672Y-61987830D01*
X134775158Y-61985544D01*
X134776037Y-61973625D01*
X134777012Y-61960414D01*
X134777618Y-61954262D01*
X134779372Y-61940042D01*
X134781491Y-61927836D01*
X134781649Y-61927125D01*
X134781652Y-61927120D01*
X134781822Y-61920185D01*
X134782672Y-61913297D01*
X134782046Y-61911037D01*
X134782665Y-61885814D01*
X134782968Y-61879668D01*
X134786005Y-61838505D01*
X134785447Y-61833978D01*
X134784500Y-61818555D01*
X134784500Y-61812662D01*
X134784538Y-61809569D01*
X134785743Y-61760490D01*
X134784500Y-61746053D01*
X134784500Y-61020500D01*
X134804502Y-60952379D01*
X134858158Y-60905886D01*
X134910500Y-60894500D01*
X158613603Y-60894500D01*
X158616626Y-60895666D01*
X158664118Y-60894500D01*
X158671556Y-60894500D01*
X158686980Y-60895448D01*
X158691501Y-60896005D01*
X158691501Y-60896004D01*
X158691502Y-60896005D01*
X158732668Y-60892967D01*
X158738814Y-60892665D01*
X158753194Y-60892312D01*
X158765558Y-60892617D01*
X158766292Y-60892670D01*
X158766297Y-60892672D01*
X158767045Y-60892579D01*
X158779386Y-60891670D01*
X158779502Y-60891667D01*
X158780120Y-60891652D01*
X158780121Y-60891651D01*
X158780827Y-60891493D01*
X158793033Y-60889374D01*
X158807277Y-60887617D01*
X158813430Y-60887011D01*
X158827714Y-60885957D01*
X158840097Y-60885653D01*
X158840824Y-60885670D01*
X158840830Y-60885672D01*
X158841554Y-60885546D01*
X158853843Y-60884030D01*
X158854591Y-60883975D01*
X158854597Y-60883971D01*
X158855300Y-60883778D01*
X158867375Y-60881065D01*
X158881530Y-60878609D01*
X158887614Y-60877708D01*
X158891855Y-60877184D01*
X158901841Y-60875952D01*
X158914197Y-60875041D01*
X158914928Y-60875022D01*
X158914938Y-60875024D01*
X158919632Y-60873969D01*
X158921718Y-60873500D01*
X158928598Y-60872653D01*
X158930635Y-60871499D01*
X158955242Y-60865972D01*
X158961245Y-60864777D01*
X158975430Y-60862316D01*
X158987671Y-60860808D01*
X158988427Y-60860751D01*
X158988432Y-60860752D01*
X158988969Y-60860603D01*
X158989148Y-60860554D01*
X158989149Y-60860553D01*
X158995121Y-60858900D01*
X159001955Y-60857715D01*
X159003934Y-60856461D01*
X159028260Y-60849728D01*
X159034202Y-60848240D01*
X159048205Y-60845096D01*
X159060397Y-60842981D01*
X159061125Y-60842890D01*
X159061132Y-60842891D01*
X159061840Y-60842656D01*
X159073758Y-60839358D01*
X159074496Y-60839193D01*
X159074500Y-60839190D01*
X159075170Y-60838894D01*
X159086710Y-60834440D01*
X159100372Y-60829927D01*
X159106221Y-60828153D01*
X159120081Y-60824317D01*
X159132127Y-60821613D01*
X159132870Y-60821483D01*
X159132878Y-60821484D01*
X159139367Y-60818980D01*
X159146040Y-60817134D01*
X159147882Y-60815695D01*
X159171407Y-60806620D01*
X159177178Y-60804555D01*
X159190857Y-60800036D01*
X159202768Y-60796741D01*
X159203466Y-60796583D01*
X159203476Y-60796583D01*
X159204139Y-60796288D01*
X159215694Y-60791832D01*
X159216410Y-60791596D01*
X159216415Y-60791591D01*
X159217077Y-60791217D01*
X159228110Y-60785663D01*
X159241247Y-60779840D01*
X159246894Y-60777501D01*
X159260303Y-60772328D01*
X159272059Y-60768445D01*
X159272763Y-60768249D01*
X159272778Y-60768248D01*
X159278992Y-60765119D01*
X159285452Y-60762628D01*
X159287145Y-60761015D01*
X159309694Y-60749664D01*
X159315232Y-60747045D01*
X159328357Y-60741227D01*
X159339891Y-60736779D01*
X159340589Y-60736547D01*
X159340596Y-60736547D01*
X159341234Y-60736185D01*
X159352286Y-60730621D01*
X159352979Y-60730315D01*
X159352983Y-60730310D01*
X159353587Y-60729886D01*
X159364053Y-60723257D01*
X159376525Y-60716193D01*
X159381943Y-60713296D01*
X159394779Y-60706834D01*
X159406077Y-60701828D01*
X159406781Y-60701556D01*
X159406781Y-60701555D01*
X159406785Y-60701555D01*
X159412658Y-60697835D01*
X159418848Y-60694720D01*
X159420376Y-60692948D01*
X159441677Y-60679458D01*
X159446924Y-60676313D01*
X159459472Y-60669205D01*
X159470509Y-60663651D01*
X159471161Y-60663360D01*
X159471170Y-60663359D01*
X159471210Y-60663330D01*
X159471701Y-60662986D01*
X159473031Y-60662533D01*
X159482530Y-60658324D01*
X159482906Y-60659172D01*
X159538912Y-60640113D01*
X159544255Y-60640000D01*
X159930000Y-60640000D01*
X159930000Y-60254255D01*
X159934048Y-60238883D01*
X159933301Y-60225601D01*
X159943586Y-60202662D01*
X159946344Y-60192193D01*
X159949405Y-60186784D01*
X159953359Y-60181171D01*
X159953868Y-60178898D01*
X159957925Y-60171730D01*
X159959199Y-60169480D01*
X159959202Y-60169478D01*
X159959219Y-60169446D01*
X159966298Y-60156949D01*
X159969466Y-60151665D01*
X159977144Y-60139541D01*
X159984270Y-60129424D01*
X159984714Y-60128852D01*
X159984720Y-60128848D01*
X159985053Y-60128184D01*
X159991151Y-60117422D01*
X159991555Y-60116785D01*
X159991556Y-60116776D01*
X159991827Y-60116078D01*
X159996841Y-60104767D01*
X160003288Y-60091959D01*
X160006182Y-60086542D01*
X160013264Y-60074040D01*
X160019889Y-60063583D01*
X160020312Y-60062982D01*
X160020312Y-60062981D01*
X160020315Y-60062979D01*
X160023132Y-60056623D01*
X160026546Y-60050597D01*
X160026832Y-60048275D01*
X160037053Y-60025215D01*
X160039669Y-60019684D01*
X160046146Y-60006816D01*
X160052245Y-59996054D01*
X160052621Y-59995458D01*
X160052628Y-59995452D01*
X160052890Y-59994770D01*
X160057902Y-59983463D01*
X160058248Y-59982778D01*
X160058248Y-59982769D01*
X160058450Y-59982046D01*
X160062326Y-59970307D01*
X160067499Y-59956897D01*
X160069834Y-59951258D01*
X160075667Y-59938101D01*
X160081219Y-59927073D01*
X160081589Y-59926417D01*
X160081596Y-59926410D01*
X160083777Y-59919806D01*
X160086583Y-59913477D01*
X160086640Y-59911139D01*
X160094554Y-59887181D01*
X160096620Y-59881407D01*
X160101796Y-59867989D01*
X160106818Y-59856666D01*
X160107128Y-59856047D01*
X160107134Y-59856040D01*
X160107329Y-59855333D01*
X160111213Y-59843579D01*
X160111484Y-59842878D01*
X160111483Y-59842870D01*
X160111613Y-59842127D01*
X160114317Y-59830081D01*
X160118153Y-59816221D01*
X160119931Y-59810361D01*
X160121797Y-59804712D01*
X160124440Y-59796710D01*
X160128894Y-59785170D01*
X160129192Y-59784497D01*
X160129191Y-59784497D01*
X160129193Y-59784496D01*
X160130714Y-59777720D01*
X160132891Y-59771132D01*
X160132718Y-59768796D01*
X160138238Y-59744218D01*
X160139740Y-59738222D01*
X160143568Y-59724390D01*
X160147452Y-59712635D01*
X160147712Y-59711958D01*
X160147715Y-59711954D01*
X160147841Y-59711222D01*
X160150555Y-59699143D01*
X160150752Y-59698432D01*
X160150752Y-59698428D01*
X160150809Y-59697667D01*
X160152322Y-59685401D01*
X160154769Y-59671297D01*
X160155974Y-59665235D01*
X160159124Y-59651204D01*
X160162431Y-59639263D01*
X160162648Y-59638604D01*
X160162652Y-59638598D01*
X160162739Y-59637884D01*
X160164854Y-59625694D01*
X160165024Y-59624939D01*
X160165023Y-59624933D01*
X160165042Y-59624180D01*
X160165948Y-59611869D01*
X160167712Y-59597563D01*
X160168605Y-59591548D01*
X160171064Y-59577379D01*
X160173777Y-59565303D01*
X160173970Y-59564599D01*
X160173975Y-59564591D01*
X160174485Y-59557666D01*
X160175672Y-59550830D01*
X160175158Y-59548544D01*
X160176037Y-59536625D01*
X160177012Y-59523414D01*
X160177618Y-59517262D01*
X160179372Y-59503042D01*
X160181491Y-59490836D01*
X160181649Y-59490125D01*
X160181652Y-59490120D01*
X160181822Y-59483185D01*
X160182672Y-59476297D01*
X160182046Y-59474037D01*
X160182665Y-59448814D01*
X160182968Y-59442668D01*
X160186005Y-59401505D01*
X160185447Y-59396978D01*
X160184500Y-59381555D01*
X160184500Y-59375662D01*
X160184538Y-59372569D01*
X160185743Y-59323490D01*
X160184500Y-59309053D01*
X160184500Y-49717500D01*
X160204502Y-49649379D01*
X160258158Y-49602886D01*
X160310500Y-49591500D01*
X162089500Y-49591500D01*
X162157621Y-49611502D01*
G37*
G04 #@! TD.AperFunction*
G04 #@! TA.AperFunction,Conductor*
G36*
X136757621Y-114762502D02*
G01*
X136804114Y-114816158D01*
X136815500Y-114868500D01*
X136815500Y-124460059D01*
X136814258Y-124474482D01*
X136815462Y-124523558D01*
X136815500Y-124526648D01*
X136815500Y-124532549D01*
X136814553Y-124547967D01*
X136813994Y-124552499D01*
X136817030Y-124593667D01*
X136817333Y-124599843D01*
X136817685Y-124614193D01*
X136817383Y-124626533D01*
X136817326Y-124627297D01*
X136817419Y-124628047D01*
X136818327Y-124640346D01*
X136818345Y-124641112D01*
X136818511Y-124641848D01*
X136820624Y-124654029D01*
X136822380Y-124668269D01*
X136822986Y-124674422D01*
X136824041Y-124688726D01*
X136824344Y-124701068D01*
X136824325Y-124701822D01*
X136824455Y-124702568D01*
X136825968Y-124714834D01*
X136826023Y-124715591D01*
X136826223Y-124716311D01*
X136828933Y-124728382D01*
X136831384Y-124742513D01*
X136832289Y-124748614D01*
X136834045Y-124762844D01*
X136834956Y-124775175D01*
X136834974Y-124775939D01*
X136835143Y-124776689D01*
X136835142Y-124776689D01*
X136836499Y-124782732D01*
X136837346Y-124789598D01*
X136838497Y-124791632D01*
X136840872Y-124802207D01*
X136840874Y-124802212D01*
X136844022Y-124816230D01*
X136845229Y-124822298D01*
X136847678Y-124836413D01*
X136849189Y-124848655D01*
X136849246Y-124849430D01*
X136849446Y-124850153D01*
X136851098Y-124856121D01*
X136852284Y-124862955D01*
X136853536Y-124864932D01*
X136856430Y-124875389D01*
X136856432Y-124875395D01*
X136860257Y-124889216D01*
X136861759Y-124895213D01*
X136864900Y-124909198D01*
X136867014Y-124921377D01*
X136867106Y-124922130D01*
X136867344Y-124922848D01*
X136869285Y-124928725D01*
X136870806Y-124935496D01*
X136872153Y-124937410D01*
X136875556Y-124947711D01*
X136875559Y-124947717D01*
X136880066Y-124961361D01*
X136881855Y-124967258D01*
X136885677Y-124981070D01*
X136888381Y-124993104D01*
X136888516Y-124993884D01*
X136888791Y-124994596D01*
X136888792Y-124994596D01*
X136891018Y-125000367D01*
X136892865Y-125007040D01*
X136894302Y-125008880D01*
X136898205Y-125018999D01*
X136898205Y-125019001D01*
X136903366Y-125032381D01*
X136905452Y-125038211D01*
X136909960Y-125051859D01*
X136913250Y-125063741D01*
X136913413Y-125064470D01*
X136913713Y-125065145D01*
X136918160Y-125076675D01*
X136918403Y-125077410D01*
X136918404Y-125077413D01*
X136918786Y-125078087D01*
X136924334Y-125089110D01*
X136930151Y-125102233D01*
X136932504Y-125107915D01*
X136937669Y-125121305D01*
X136941545Y-125133034D01*
X136941750Y-125133777D01*
X136941751Y-125133778D01*
X136944879Y-125139992D01*
X136947371Y-125146452D01*
X136948981Y-125148142D01*
X136953851Y-125157819D01*
X136953861Y-125157835D01*
X136960318Y-125170663D01*
X136962960Y-125176250D01*
X136968772Y-125189364D01*
X136973215Y-125200879D01*
X136973451Y-125201596D01*
X136973819Y-125202244D01*
X136979377Y-125213288D01*
X136979682Y-125213977D01*
X136980114Y-125214590D01*
X136986738Y-125225051D01*
X136993803Y-125237524D01*
X136996710Y-125242961D01*
X137003161Y-125255776D01*
X137008164Y-125267060D01*
X137008443Y-125267785D01*
X137008851Y-125268429D01*
X137008852Y-125268429D01*
X137012163Y-125273658D01*
X137015279Y-125279848D01*
X137017050Y-125281376D01*
X137030531Y-125302665D01*
X137033706Y-125307962D01*
X137040789Y-125320466D01*
X137046340Y-125331492D01*
X137046640Y-125332170D01*
X137047020Y-125332709D01*
X137047482Y-125334068D01*
X137051666Y-125343503D01*
X137050819Y-125343878D01*
X137069887Y-125399922D01*
X137070000Y-125405255D01*
X137070000Y-125791000D01*
X137455744Y-125791000D01*
X137471116Y-125795048D01*
X137484401Y-125794302D01*
X137507351Y-125804591D01*
X137517808Y-125807346D01*
X137523217Y-125810407D01*
X137528828Y-125814359D01*
X137531097Y-125814868D01*
X137540513Y-125820197D01*
X137540516Y-125820200D01*
X137540537Y-125820210D01*
X137553054Y-125827301D01*
X137558331Y-125830465D01*
X137570460Y-125838146D01*
X137580562Y-125845260D01*
X137581150Y-125845719D01*
X137581151Y-125845720D01*
X137581808Y-125846050D01*
X137592565Y-125852144D01*
X137593214Y-125852555D01*
X137593220Y-125852556D01*
X137593912Y-125852823D01*
X137605215Y-125857833D01*
X137618041Y-125864289D01*
X137623467Y-125867189D01*
X137635956Y-125874264D01*
X137646401Y-125880879D01*
X137647017Y-125881313D01*
X137647018Y-125881313D01*
X137647020Y-125881315D01*
X137653375Y-125884132D01*
X137659402Y-125887546D01*
X137661723Y-125887832D01*
X137684766Y-125898046D01*
X137690333Y-125900679D01*
X137703167Y-125907139D01*
X137713919Y-125913230D01*
X137714547Y-125913628D01*
X137715219Y-125913887D01*
X137726535Y-125918902D01*
X137727221Y-125919248D01*
X137727224Y-125919248D01*
X137727949Y-125919449D01*
X137739690Y-125923326D01*
X137753094Y-125928497D01*
X137758753Y-125930841D01*
X137771888Y-125936663D01*
X137782906Y-125942210D01*
X137783580Y-125942592D01*
X137783587Y-125942594D01*
X137783589Y-125942596D01*
X137790192Y-125944777D01*
X137796522Y-125947583D01*
X137798859Y-125947640D01*
X137822794Y-125955547D01*
X137828615Y-125957630D01*
X137841997Y-125962792D01*
X137853313Y-125967809D01*
X137853958Y-125968134D01*
X137854656Y-125968327D01*
X137866418Y-125972213D01*
X137867117Y-125972483D01*
X137867119Y-125972483D01*
X137867121Y-125972484D01*
X137867122Y-125972483D01*
X137867873Y-125972614D01*
X137879942Y-125975324D01*
X137893734Y-125979141D01*
X137899633Y-125980931D01*
X137913278Y-125985438D01*
X137924818Y-125989888D01*
X137925498Y-125990189D01*
X137925503Y-125990193D01*
X137926234Y-125990357D01*
X137926236Y-125990358D01*
X137932285Y-125991716D01*
X137938867Y-125993891D01*
X137941199Y-125993718D01*
X137951784Y-125996095D01*
X137951789Y-125996096D01*
X137965776Y-125999237D01*
X137971767Y-126000737D01*
X137983278Y-126003923D01*
X137985612Y-126004569D01*
X137997343Y-126008444D01*
X137998044Y-126008714D01*
X137998045Y-126008715D01*
X137998781Y-126008842D01*
X138010848Y-126011553D01*
X138011566Y-126011752D01*
X138012326Y-126011808D01*
X138024596Y-126013322D01*
X138038700Y-126015769D01*
X138044762Y-126016974D01*
X138058789Y-126020124D01*
X138070724Y-126023428D01*
X138071401Y-126023652D01*
X138072123Y-126023741D01*
X138084313Y-126025856D01*
X138085060Y-126026024D01*
X138085062Y-126026023D01*
X138085064Y-126026024D01*
X138085820Y-126026043D01*
X138098156Y-126026951D01*
X138112393Y-126028707D01*
X138118427Y-126029602D01*
X138132633Y-126032067D01*
X138144684Y-126034774D01*
X138145403Y-126034972D01*
X138145408Y-126034975D01*
X138145751Y-126035000D01*
X138146150Y-126035030D01*
X138146155Y-126035030D01*
X138149096Y-126035246D01*
X138152334Y-126035485D01*
X138159169Y-126036672D01*
X138161454Y-126036158D01*
X138172280Y-126036956D01*
X138172282Y-126036957D01*
X138186581Y-126038012D01*
X138192718Y-126038615D01*
X138206974Y-126040374D01*
X138219159Y-126042490D01*
X138219877Y-126042651D01*
X138219879Y-126042652D01*
X138220214Y-126042660D01*
X138220612Y-126042670D01*
X138232955Y-126043579D01*
X138233702Y-126043672D01*
X138233707Y-126043670D01*
X138234426Y-126043618D01*
X138246803Y-126043312D01*
X138261181Y-126043665D01*
X138267329Y-126043968D01*
X138308497Y-126047005D01*
X138313019Y-126046448D01*
X138328443Y-126045500D01*
X138334336Y-126045500D01*
X138337429Y-126045538D01*
X138386508Y-126046743D01*
X138400946Y-126045500D01*
X162089500Y-126045500D01*
X162157621Y-126065502D01*
X162204114Y-126119158D01*
X162215500Y-126171500D01*
X162215500Y-126911600D01*
X162214335Y-126914621D01*
X162215500Y-126962108D01*
X162215500Y-126969549D01*
X162214553Y-126984967D01*
X162213994Y-126989499D01*
X162217030Y-127030667D01*
X162217333Y-127036843D01*
X162217685Y-127051193D01*
X162217383Y-127063533D01*
X162217326Y-127064297D01*
X162217419Y-127065047D01*
X162218327Y-127077346D01*
X162218345Y-127078112D01*
X162218511Y-127078848D01*
X162220624Y-127091029D01*
X162222380Y-127105269D01*
X162222986Y-127111422D01*
X162224041Y-127125726D01*
X162224344Y-127138068D01*
X162224325Y-127138822D01*
X162224455Y-127139568D01*
X162225968Y-127151834D01*
X162226023Y-127152591D01*
X162226223Y-127153311D01*
X162228933Y-127165382D01*
X162231384Y-127179513D01*
X162232289Y-127185614D01*
X162234045Y-127199844D01*
X162234956Y-127212175D01*
X162234974Y-127212939D01*
X162235143Y-127213689D01*
X162235142Y-127213689D01*
X162236499Y-127219732D01*
X162237346Y-127226598D01*
X162238497Y-127228632D01*
X162240872Y-127239207D01*
X162240874Y-127239212D01*
X162244022Y-127253230D01*
X162245229Y-127259298D01*
X162247678Y-127273413D01*
X162249189Y-127285655D01*
X162249246Y-127286430D01*
X162249446Y-127287153D01*
X162251098Y-127293121D01*
X162252284Y-127299955D01*
X162253536Y-127301932D01*
X162256430Y-127312389D01*
X162256432Y-127312395D01*
X162260257Y-127326216D01*
X162261759Y-127332213D01*
X162264900Y-127346198D01*
X162267014Y-127358377D01*
X162267106Y-127359130D01*
X162267344Y-127359848D01*
X162269285Y-127365725D01*
X162270806Y-127372496D01*
X162272153Y-127374410D01*
X162275556Y-127384711D01*
X162275559Y-127384717D01*
X162280066Y-127398361D01*
X162281855Y-127404258D01*
X162285677Y-127418070D01*
X162288381Y-127430104D01*
X162288516Y-127430884D01*
X162288791Y-127431596D01*
X162288792Y-127431596D01*
X162291018Y-127437367D01*
X162292865Y-127444040D01*
X162294302Y-127445880D01*
X162298205Y-127455999D01*
X162298205Y-127456001D01*
X162303366Y-127469381D01*
X162305452Y-127475211D01*
X162309960Y-127488859D01*
X162313250Y-127500741D01*
X162313413Y-127501470D01*
X162313713Y-127502145D01*
X162318160Y-127513675D01*
X162318403Y-127514410D01*
X162318404Y-127514413D01*
X162318786Y-127515087D01*
X162324334Y-127526110D01*
X162330151Y-127539233D01*
X162332504Y-127544915D01*
X162337669Y-127558305D01*
X162341545Y-127570034D01*
X162341750Y-127570777D01*
X162342095Y-127571461D01*
X162347105Y-127582762D01*
X162347371Y-127583452D01*
X162347372Y-127583453D01*
X162351208Y-127593399D01*
X162357058Y-127664155D01*
X162323726Y-127726840D01*
X162281876Y-127755144D01*
X162275271Y-127757880D01*
X162160233Y-127824297D01*
X162160223Y-127824305D01*
X162066305Y-127918223D01*
X162066297Y-127918233D01*
X161999881Y-128033269D01*
X161965500Y-128161582D01*
X161965500Y-128294417D01*
X161965499Y-128294417D01*
X161999881Y-128422730D01*
X162066297Y-128537766D01*
X162066305Y-128537776D01*
X162166069Y-128637540D01*
X162163948Y-128639660D01*
X162197334Y-128685405D01*
X162201538Y-128756277D01*
X162166759Y-128818171D01*
X162163755Y-128820773D01*
X162066305Y-128918223D01*
X162066297Y-128918233D01*
X161999881Y-129033269D01*
X161965500Y-129161582D01*
X161965500Y-129294417D01*
X161965499Y-129294417D01*
X161999881Y-129422730D01*
X162066297Y-129537766D01*
X162066305Y-129537776D01*
X162166069Y-129637540D01*
X162163948Y-129639660D01*
X162197334Y-129685405D01*
X162201538Y-129756277D01*
X162166759Y-129818171D01*
X162163755Y-129820773D01*
X162066305Y-129918223D01*
X162066297Y-129918233D01*
X161999881Y-130033269D01*
X161965500Y-130161582D01*
X161965500Y-130294417D01*
X161965499Y-130294417D01*
X161999881Y-130422730D01*
X162066297Y-130537766D01*
X162066305Y-130537776D01*
X162166069Y-130637540D01*
X162163948Y-130639660D01*
X162197334Y-130685405D01*
X162201538Y-130756277D01*
X162166759Y-130818171D01*
X162163755Y-130820773D01*
X162066305Y-130918223D01*
X162066297Y-130918233D01*
X161999881Y-131033269D01*
X161965500Y-131161582D01*
X161965500Y-131294417D01*
X161965499Y-131294417D01*
X161999881Y-131422730D01*
X162066297Y-131537766D01*
X162066305Y-131537776D01*
X162160223Y-131631694D01*
X162160228Y-131631698D01*
X162160230Y-131631700D01*
X162160231Y-131631701D01*
X162160233Y-131631702D01*
X162168334Y-131636379D01*
X162275270Y-131698119D01*
X162275275Y-131698120D01*
X162281869Y-131700852D01*
X162287820Y-131705647D01*
X162295269Y-131707356D01*
X162315081Y-131727617D01*
X162337149Y-131745402D01*
X162339562Y-131752654D01*
X162344905Y-131758118D01*
X162350617Y-131785871D01*
X162359568Y-131812766D01*
X162358034Y-131821905D01*
X162359218Y-131827657D01*
X162351203Y-131862613D01*
X162347105Y-131873235D01*
X162342102Y-131884521D01*
X162341752Y-131885216D01*
X162341546Y-131885961D01*
X162337668Y-131897696D01*
X162332503Y-131911085D01*
X162330136Y-131916800D01*
X162324334Y-131929888D01*
X162318795Y-131940896D01*
X162318400Y-131941592D01*
X162318154Y-131942339D01*
X162313718Y-131953839D01*
X162313416Y-131954519D01*
X162313255Y-131955238D01*
X162309961Y-131967140D01*
X162305451Y-131980792D01*
X162303369Y-131986611D01*
X162298206Y-131999997D01*
X162293195Y-132011302D01*
X162292863Y-132011960D01*
X162292665Y-132012678D01*
X162288794Y-132024396D01*
X162288514Y-132025121D01*
X162288380Y-132025894D01*
X162285673Y-132037945D01*
X162281859Y-132051725D01*
X162280065Y-132057636D01*
X162275556Y-132071286D01*
X162271117Y-132082800D01*
X162270805Y-132083504D01*
X162270635Y-132084261D01*
X162269282Y-132090282D01*
X162267108Y-132096867D01*
X162267279Y-132099198D01*
X162264901Y-132109789D01*
X162264901Y-132109794D01*
X162261760Y-132123781D01*
X162260257Y-132129781D01*
X162256432Y-132143602D01*
X162252561Y-132155322D01*
X162252282Y-132156043D01*
X162252154Y-132156786D01*
X162249451Y-132168826D01*
X162249247Y-132169562D01*
X162249190Y-132170337D01*
X162247679Y-132182581D01*
X162245230Y-132196697D01*
X162244022Y-132202766D01*
X162240873Y-132216789D01*
X162237586Y-132228673D01*
X162237345Y-132229400D01*
X162237254Y-132230145D01*
X162235143Y-132242308D01*
X162234974Y-132243058D01*
X162234956Y-132243812D01*
X162234046Y-132256146D01*
X162232290Y-132270379D01*
X162231384Y-132276488D01*
X162228932Y-132290622D01*
X162226227Y-132302670D01*
X162226024Y-132303402D01*
X162225968Y-132304167D01*
X162224456Y-132316419D01*
X162224325Y-132317170D01*
X162224344Y-132317919D01*
X162224041Y-132330273D01*
X162222986Y-132344576D01*
X162222379Y-132350735D01*
X162220622Y-132364976D01*
X162218515Y-132377127D01*
X162218346Y-132377879D01*
X162218346Y-132377883D01*
X162218175Y-132384820D01*
X162217327Y-132391702D01*
X162217951Y-132393959D01*
X162217685Y-132404799D01*
X162217333Y-132419152D01*
X162217030Y-132425331D01*
X162213993Y-132466498D01*
X162214551Y-132471014D01*
X162215500Y-132486446D01*
X162215500Y-132492349D01*
X162215462Y-132495438D01*
X162214258Y-132544520D01*
X162215500Y-132558941D01*
X162215500Y-133284500D01*
X162195498Y-133352621D01*
X162141842Y-133399114D01*
X162089500Y-133410500D01*
X138386398Y-133410500D01*
X138383378Y-133409335D01*
X138335891Y-133410500D01*
X138328450Y-133410500D01*
X138313031Y-133409553D01*
X138308499Y-133408994D01*
X138308497Y-133408994D01*
X138291424Y-133410253D01*
X138267330Y-133412030D01*
X138261153Y-133412333D01*
X138246799Y-133412685D01*
X138234452Y-133412382D01*
X138233703Y-133412326D01*
X138233019Y-133412411D01*
X138232946Y-133412420D01*
X138220658Y-133413326D01*
X138219883Y-133413346D01*
X138219880Y-133413346D01*
X138219132Y-133413515D01*
X138206978Y-133415622D01*
X138192726Y-133417380D01*
X138186567Y-133417987D01*
X138172273Y-133419041D01*
X138159922Y-133419344D01*
X138159170Y-133419325D01*
X138158419Y-133419456D01*
X138146167Y-133420968D01*
X138145403Y-133421024D01*
X138144664Y-133421229D01*
X138132623Y-133423932D01*
X138118483Y-133426386D01*
X138112387Y-133427290D01*
X138100254Y-133428787D01*
X138098148Y-133429047D01*
X138085842Y-133429955D01*
X138085063Y-133429974D01*
X138084298Y-133430146D01*
X138084297Y-133430145D01*
X138078264Y-133431499D01*
X138071401Y-133432347D01*
X138069370Y-133433496D01*
X138058790Y-133435873D01*
X138058789Y-133435872D01*
X138058789Y-133435873D01*
X138044764Y-133439022D01*
X138038701Y-133440228D01*
X138024586Y-133442677D01*
X138012342Y-133444189D01*
X138011566Y-133444246D01*
X138010835Y-133444448D01*
X138010836Y-133444449D01*
X138009149Y-133444915D01*
X138004875Y-133446098D01*
X137998045Y-133447284D01*
X137996065Y-133448536D01*
X137985615Y-133451428D01*
X137985613Y-133451427D01*
X137971773Y-133455258D01*
X137965781Y-133456759D01*
X137951788Y-133459902D01*
X137939603Y-133462017D01*
X137938869Y-133462107D01*
X137938437Y-133462249D01*
X137938139Y-133462348D01*
X137926260Y-133465635D01*
X137925505Y-133465804D01*
X137924800Y-133466117D01*
X137913286Y-133470556D01*
X137899636Y-133475065D01*
X137893725Y-133476859D01*
X137888509Y-133478302D01*
X137879940Y-133480674D01*
X137867894Y-133483380D01*
X137867121Y-133483514D01*
X137866396Y-133483794D01*
X137860626Y-133486019D01*
X137853959Y-133487865D01*
X137852119Y-133489300D01*
X137842004Y-133493202D01*
X137841997Y-133493206D01*
X137828611Y-133498369D01*
X137822789Y-133500451D01*
X137809142Y-133504959D01*
X137797248Y-133508252D01*
X137796522Y-133508414D01*
X137795832Y-133508721D01*
X137784341Y-133513153D01*
X137783591Y-133513400D01*
X137782895Y-133513795D01*
X137771882Y-133519337D01*
X137758780Y-133525145D01*
X137753063Y-133527513D01*
X137739701Y-133532667D01*
X137727975Y-133536541D01*
X137727220Y-133536749D01*
X137726532Y-133537095D01*
X137726533Y-133537096D01*
X137720997Y-133539882D01*
X137714547Y-133542371D01*
X137712855Y-133543980D01*
X137703179Y-133548851D01*
X137703171Y-133548856D01*
X137690346Y-133555312D01*
X137684753Y-133557957D01*
X137671637Y-133563771D01*
X137660113Y-133568217D01*
X137659402Y-133568451D01*
X137658738Y-133568828D01*
X137647742Y-133574363D01*
X137647022Y-133574681D01*
X137646398Y-133575122D01*
X137635954Y-133581735D01*
X137623491Y-133588795D01*
X137618038Y-133591709D01*
X137605216Y-133598163D01*
X137593936Y-133603165D01*
X137593214Y-133603443D01*
X137592555Y-133603861D01*
X137592554Y-133603860D01*
X137587327Y-133607169D01*
X137581151Y-133610279D01*
X137579625Y-133612045D01*
X137570476Y-133617839D01*
X137570470Y-133617844D01*
X137558336Y-133625529D01*
X137553023Y-133628713D01*
X137540546Y-133635781D01*
X137529506Y-133641339D01*
X137528827Y-133641639D01*
X137528279Y-133642026D01*
X137526892Y-133642497D01*
X137517494Y-133646664D01*
X137517120Y-133645821D01*
X137461064Y-133664888D01*
X137455742Y-133665000D01*
X137070000Y-133665000D01*
X137070000Y-134050743D01*
X137065948Y-134066121D01*
X137066694Y-134079416D01*
X137056394Y-134102388D01*
X137053646Y-134112821D01*
X137050589Y-134118218D01*
X137046640Y-134123829D01*
X137046129Y-134126096D01*
X137040803Y-134135505D01*
X137040800Y-134135507D01*
X137040790Y-134135528D01*
X137033706Y-134148034D01*
X137030523Y-134153346D01*
X137022847Y-134165467D01*
X137015746Y-134175551D01*
X137015279Y-134176149D01*
X137014940Y-134176823D01*
X137008861Y-134187555D01*
X137008441Y-134188217D01*
X137008163Y-134188939D01*
X137003161Y-134200222D01*
X136996714Y-134213029D01*
X136993804Y-134218473D01*
X136986738Y-134230948D01*
X136980126Y-134241391D01*
X136979683Y-134242019D01*
X136979375Y-134242714D01*
X136976868Y-134248372D01*
X136973452Y-134254403D01*
X136973165Y-134256725D01*
X136963907Y-134277610D01*
X136962959Y-134279750D01*
X136960318Y-134285333D01*
X136953858Y-134298167D01*
X136947773Y-134308910D01*
X136947370Y-134309545D01*
X136947102Y-134310242D01*
X136942102Y-134321521D01*
X136941752Y-134322216D01*
X136941546Y-134322961D01*
X136937668Y-134334696D01*
X136932503Y-134348085D01*
X136930136Y-134353800D01*
X136924334Y-134366888D01*
X136918795Y-134377896D01*
X136918400Y-134378592D01*
X136918159Y-134379321D01*
X136918160Y-134379322D01*
X136916216Y-134385203D01*
X136913416Y-134391523D01*
X136913358Y-134393854D01*
X136909962Y-134404133D01*
X136909961Y-134404140D01*
X136905451Y-134417792D01*
X136903369Y-134423611D01*
X136898206Y-134436997D01*
X136893195Y-134448302D01*
X136892863Y-134448960D01*
X136892665Y-134449678D01*
X136888794Y-134461396D01*
X136888514Y-134462121D01*
X136888380Y-134462894D01*
X136885673Y-134474945D01*
X136881859Y-134488725D01*
X136880065Y-134494636D01*
X136875556Y-134508286D01*
X136871117Y-134519800D01*
X136870805Y-134520504D01*
X136870635Y-134521261D01*
X136869282Y-134527282D01*
X136867108Y-134533867D01*
X136867279Y-134536198D01*
X136864901Y-134546789D01*
X136864901Y-134546794D01*
X136861760Y-134560781D01*
X136860257Y-134566781D01*
X136856432Y-134580602D01*
X136852561Y-134592322D01*
X136852282Y-134593043D01*
X136852154Y-134593786D01*
X136849451Y-134605826D01*
X136849247Y-134606562D01*
X136849190Y-134607337D01*
X136847679Y-134619581D01*
X136845230Y-134633697D01*
X136844022Y-134639766D01*
X136840873Y-134653789D01*
X136837586Y-134665673D01*
X136837345Y-134666400D01*
X136837254Y-134667145D01*
X136835143Y-134679308D01*
X136834974Y-134680058D01*
X136834956Y-134680812D01*
X136834046Y-134693146D01*
X136832290Y-134707379D01*
X136831384Y-134713488D01*
X136828932Y-134727622D01*
X136826227Y-134739670D01*
X136826024Y-134740402D01*
X136825968Y-134741167D01*
X136824456Y-134753419D01*
X136824325Y-134754170D01*
X136824344Y-134754919D01*
X136824041Y-134767273D01*
X136822986Y-134781576D01*
X136822379Y-134787735D01*
X136820622Y-134801976D01*
X136818515Y-134814127D01*
X136818346Y-134814879D01*
X136818346Y-134814883D01*
X136818175Y-134821820D01*
X136817327Y-134828702D01*
X136817951Y-134830959D01*
X136817685Y-134841799D01*
X136817333Y-134856152D01*
X136817030Y-134862331D01*
X136813993Y-134903498D01*
X136814551Y-134908014D01*
X136815500Y-134923446D01*
X136815500Y-134929349D01*
X136815462Y-134932438D01*
X136814258Y-134981520D01*
X136815500Y-134995941D01*
X136815500Y-144587500D01*
X136795498Y-144655621D01*
X136741842Y-144702114D01*
X136689500Y-144713500D01*
X134910500Y-144713500D01*
X134842379Y-144693498D01*
X134795886Y-144639842D01*
X134784500Y-144587500D01*
X134784500Y-142501631D01*
X135240699Y-142501631D01*
X135278816Y-142643882D01*
X135352446Y-142771414D01*
X135352454Y-142771424D01*
X135456575Y-142875545D01*
X135456580Y-142875549D01*
X135456582Y-142875551D01*
X135584118Y-142949184D01*
X135726367Y-142987300D01*
X135726369Y-142987300D01*
X135873631Y-142987300D01*
X135873633Y-142987300D01*
X136015882Y-142949184D01*
X136143418Y-142875551D01*
X136247551Y-142771418D01*
X136321184Y-142643882D01*
X136359300Y-142501633D01*
X136359300Y-142354367D01*
X136321184Y-142212118D01*
X136247551Y-142084582D01*
X136247549Y-142084580D01*
X136247545Y-142084575D01*
X136218405Y-142055435D01*
X136184379Y-141993123D01*
X136181500Y-141966340D01*
X136181500Y-132224213D01*
X136201502Y-132156092D01*
X136218405Y-132135118D01*
X136683118Y-131670405D01*
X136745430Y-131636379D01*
X136772213Y-131633500D01*
X140164340Y-131633500D01*
X140232461Y-131653502D01*
X140253435Y-131670405D01*
X140282575Y-131699545D01*
X140282580Y-131699549D01*
X140282582Y-131699551D01*
X140282583Y-131699552D01*
X140282585Y-131699553D01*
X140298470Y-131708724D01*
X140410118Y-131773184D01*
X140552367Y-131811300D01*
X140552369Y-131811300D01*
X140699631Y-131811300D01*
X140699633Y-131811300D01*
X140841882Y-131773184D01*
X140969418Y-131699551D01*
X141073551Y-131595418D01*
X141147184Y-131467882D01*
X141185300Y-131325633D01*
X141185300Y-131178367D01*
X141147184Y-131036118D01*
X141102121Y-130958066D01*
X141073553Y-130908585D01*
X141073545Y-130908575D01*
X140969424Y-130804454D01*
X140969414Y-130804446D01*
X140841882Y-130730816D01*
X140831373Y-130728000D01*
X140699633Y-130692700D01*
X140552367Y-130692700D01*
X140457534Y-130718110D01*
X140410117Y-130730816D01*
X140282585Y-130804446D01*
X140282575Y-130804454D01*
X140253435Y-130833595D01*
X140191123Y-130867621D01*
X140164340Y-130870500D01*
X136619959Y-130870500D01*
X136619943Y-130870499D01*
X136612225Y-130870499D01*
X136511775Y-130870499D01*
X136463261Y-130883498D01*
X136414745Y-130896498D01*
X136327756Y-130946721D01*
X136327750Y-130946726D01*
X136112896Y-131161581D01*
X135565753Y-131708724D01*
X135546860Y-131727617D01*
X135494725Y-131779751D01*
X135494721Y-131779756D01*
X135444500Y-131866741D01*
X135436206Y-131897696D01*
X135420788Y-131955238D01*
X135418500Y-131963776D01*
X135418500Y-141966340D01*
X135398498Y-142034461D01*
X135381595Y-142055435D01*
X135352454Y-142084575D01*
X135352446Y-142084585D01*
X135278816Y-142212117D01*
X135240700Y-142354368D01*
X135240700Y-142501631D01*
X135240699Y-142501631D01*
X134784500Y-142501631D01*
X134784500Y-119768631D01*
X135240699Y-119768631D01*
X135278816Y-119910882D01*
X135352446Y-120038414D01*
X135352448Y-120038417D01*
X135352449Y-120038418D01*
X135381595Y-120067564D01*
X135415620Y-120129874D01*
X135418500Y-120156659D01*
X135418500Y-127492223D01*
X135418499Y-127492223D01*
X135444498Y-127589251D01*
X135444501Y-127589258D01*
X135480136Y-127650979D01*
X135480138Y-127650982D01*
X135494723Y-127676245D01*
X135494727Y-127676251D01*
X136327746Y-128509270D01*
X136327751Y-128509274D01*
X136327753Y-128509276D01*
X136414747Y-128559502D01*
X136511775Y-128585501D01*
X136511777Y-128585501D01*
X136619943Y-128585501D01*
X136619959Y-128585500D01*
X140164340Y-128585500D01*
X140232461Y-128605502D01*
X140253435Y-128622405D01*
X140282575Y-128651545D01*
X140282580Y-128651549D01*
X140282582Y-128651551D01*
X140410118Y-128725184D01*
X140552367Y-128763300D01*
X140552369Y-128763300D01*
X140699631Y-128763300D01*
X140699633Y-128763300D01*
X140841882Y-128725184D01*
X140969418Y-128651551D01*
X141073551Y-128547418D01*
X141147184Y-128419882D01*
X141185300Y-128277633D01*
X141185300Y-128130367D01*
X141147184Y-127988118D01*
X141073551Y-127860582D01*
X141073549Y-127860580D01*
X141073545Y-127860575D01*
X140969424Y-127756454D01*
X140969414Y-127756446D01*
X140841882Y-127682816D01*
X140817359Y-127676245D01*
X140699633Y-127644700D01*
X140552367Y-127644700D01*
X140479761Y-127664155D01*
X140410117Y-127682816D01*
X140282585Y-127756446D01*
X140282575Y-127756454D01*
X140253435Y-127785595D01*
X140191123Y-127819621D01*
X140164340Y-127822500D01*
X136772213Y-127822500D01*
X136704092Y-127802498D01*
X136683118Y-127785595D01*
X136218405Y-127320882D01*
X136184379Y-127258570D01*
X136181500Y-127231787D01*
X136181500Y-120156659D01*
X136201502Y-120088538D01*
X136218401Y-120067567D01*
X136247551Y-120038418D01*
X136321184Y-119910882D01*
X136359300Y-119768633D01*
X136359300Y-119621367D01*
X136321184Y-119479118D01*
X136247551Y-119351582D01*
X136247549Y-119351580D01*
X136247545Y-119351575D01*
X136143424Y-119247454D01*
X136143414Y-119247446D01*
X136015882Y-119173816D01*
X135873633Y-119135700D01*
X135726367Y-119135700D01*
X135631534Y-119161110D01*
X135584117Y-119173816D01*
X135456585Y-119247446D01*
X135456575Y-119247454D01*
X135352454Y-119351575D01*
X135352446Y-119351585D01*
X135278816Y-119479117D01*
X135240700Y-119621368D01*
X135240700Y-119768631D01*
X135240699Y-119768631D01*
X134784500Y-119768631D01*
X134784500Y-114868500D01*
X134804502Y-114800379D01*
X134858158Y-114753886D01*
X134910500Y-114742500D01*
X136689500Y-114742500D01*
X136757621Y-114762502D01*
G37*
G04 #@! TD.AperFunction*
G04 #@! TA.AperFunction,Conductor*
G36*
X162157621Y-136479502D02*
G01*
X162204114Y-136533158D01*
X162215500Y-136585500D01*
X162215500Y-166304500D01*
X162195498Y-166372621D01*
X162141842Y-166419114D01*
X162089500Y-166430500D01*
X160310500Y-166430500D01*
X160242379Y-166410498D01*
X160195886Y-166356842D01*
X160184500Y-166304500D01*
X160184500Y-156698396D01*
X160185666Y-156695374D01*
X160184500Y-156647881D01*
X160184500Y-156640442D01*
X160185448Y-156625016D01*
X160186005Y-156620496D01*
X160182968Y-156579329D01*
X160182665Y-156573181D01*
X160182312Y-156558803D01*
X160182618Y-156546426D01*
X160182670Y-156545707D01*
X160182672Y-156545702D01*
X160182579Y-156544955D01*
X160181670Y-156532612D01*
X160181652Y-156531880D01*
X160181490Y-156531159D01*
X160179374Y-156518974D01*
X160177615Y-156504718D01*
X160177012Y-156498581D01*
X160175957Y-156484282D01*
X160175653Y-156471899D01*
X160175670Y-156471174D01*
X160175672Y-156471169D01*
X160175545Y-156470441D01*
X160174030Y-156458150D01*
X160173975Y-156457412D01*
X160173975Y-156457408D01*
X160173972Y-156457403D01*
X160173774Y-156456684D01*
X160171067Y-156444633D01*
X160168602Y-156430427D01*
X160167707Y-156424393D01*
X160165951Y-156410156D01*
X160165043Y-156397820D01*
X160165024Y-156397064D01*
X160165023Y-156397062D01*
X160165024Y-156397060D01*
X160163499Y-156390270D01*
X160162652Y-156383401D01*
X160161499Y-156381368D01*
X160159124Y-156370790D01*
X160159124Y-156370789D01*
X160159123Y-156370786D01*
X160155974Y-156356761D01*
X160154769Y-156350700D01*
X160152322Y-156336596D01*
X160150808Y-156324326D01*
X160150752Y-156323566D01*
X160150553Y-156322848D01*
X160150550Y-156322838D01*
X160148900Y-156316875D01*
X160147715Y-156310045D01*
X160146462Y-156308066D01*
X160139737Y-156283767D01*
X160138237Y-156277776D01*
X160135096Y-156263789D01*
X160132979Y-156251583D01*
X160132890Y-156250870D01*
X160132891Y-156250867D01*
X160132656Y-156250155D01*
X160129357Y-156238234D01*
X160129194Y-156237508D01*
X160129193Y-156237503D01*
X160129189Y-156237498D01*
X160128888Y-156236818D01*
X160124438Y-156225278D01*
X160119931Y-156211633D01*
X160118138Y-156205723D01*
X160114326Y-156191949D01*
X160111614Y-156179873D01*
X160111483Y-156179117D01*
X160111213Y-156178418D01*
X160111209Y-156178407D01*
X160108978Y-156172624D01*
X160107134Y-156165959D01*
X160105696Y-156164118D01*
X160101796Y-156154007D01*
X160101792Y-156153997D01*
X160096630Y-156140615D01*
X160094547Y-156134794D01*
X160090041Y-156121155D01*
X160086739Y-156109221D01*
X160086583Y-156108528D01*
X160086583Y-156108522D01*
X160086283Y-156107845D01*
X160081837Y-156096319D01*
X160081596Y-156095589D01*
X160081594Y-156095587D01*
X160081592Y-156095580D01*
X160081210Y-156094906D01*
X160075663Y-156083888D01*
X160069841Y-156070753D01*
X160067497Y-156065094D01*
X160062326Y-156051690D01*
X160058449Y-156039949D01*
X160058248Y-156039224D01*
X160058248Y-156039221D01*
X160057904Y-156038537D01*
X160055117Y-156033001D01*
X160052628Y-156026547D01*
X160051015Y-156024853D01*
X160039679Y-156002333D01*
X160037046Y-155996766D01*
X160031225Y-155983635D01*
X160026775Y-155972095D01*
X160026546Y-155971402D01*
X160026180Y-155970756D01*
X160020627Y-155959724D01*
X160020315Y-155959020D01*
X160020313Y-155959018D01*
X160020313Y-155959017D01*
X160019879Y-155958401D01*
X160013264Y-155947956D01*
X160006189Y-155935467D01*
X160003289Y-155930041D01*
X159996833Y-155917215D01*
X159991823Y-155905912D01*
X159991556Y-155905220D01*
X159991555Y-155905214D01*
X159987835Y-155899340D01*
X159984720Y-155893151D01*
X159982948Y-155891622D01*
X159969461Y-155870325D01*
X159966301Y-155865054D01*
X159959212Y-155852539D01*
X159953653Y-155841492D01*
X159953359Y-155840829D01*
X159953359Y-155840828D01*
X159952980Y-155840290D01*
X159952516Y-155838927D01*
X159948328Y-155829474D01*
X159949172Y-155829099D01*
X159930113Y-155773079D01*
X159930000Y-155767744D01*
X159930000Y-155382000D01*
X159544255Y-155382000D01*
X159528877Y-155377949D01*
X159515585Y-155378695D01*
X159492627Y-155368400D01*
X159482179Y-155365648D01*
X159476786Y-155362595D01*
X159471170Y-155358640D01*
X159468897Y-155358128D01*
X159459492Y-155352804D01*
X159459488Y-155352800D01*
X159459466Y-155352789D01*
X159446962Y-155345706D01*
X159441665Y-155342531D01*
X159434444Y-155337958D01*
X159429531Y-155334847D01*
X159419440Y-155327740D01*
X159418846Y-155327277D01*
X159418177Y-155326940D01*
X159407433Y-155320854D01*
X159406785Y-155320443D01*
X159406060Y-155320164D01*
X159394776Y-155315161D01*
X159385320Y-155310401D01*
X159381961Y-155308710D01*
X159376524Y-155305803D01*
X159364051Y-155298738D01*
X159353590Y-155292114D01*
X159352977Y-155291682D01*
X159352288Y-155291377D01*
X159352287Y-155291377D01*
X159346624Y-155288866D01*
X159340596Y-155285452D01*
X159338273Y-155285165D01*
X159315250Y-155274960D01*
X159309672Y-155272322D01*
X159296828Y-155265857D01*
X159286079Y-155259767D01*
X159285457Y-155259373D01*
X159285452Y-155259371D01*
X159284766Y-155259106D01*
X159273461Y-155254095D01*
X159272777Y-155253750D01*
X159272034Y-155253545D01*
X159260305Y-155249669D01*
X159246915Y-155244504D01*
X159241233Y-155242151D01*
X159228110Y-155236334D01*
X159217087Y-155230786D01*
X159216413Y-155230404D01*
X159216410Y-155230403D01*
X159209802Y-155228220D01*
X159203476Y-155225416D01*
X159201140Y-155225358D01*
X159190845Y-155221956D01*
X159190843Y-155221954D01*
X159177211Y-155217452D01*
X159171381Y-155215366D01*
X159157997Y-155210203D01*
X159146689Y-155205191D01*
X159146043Y-155204866D01*
X159146040Y-155204865D01*
X159145326Y-155204667D01*
X159133604Y-155200794D01*
X159132884Y-155200516D01*
X159132104Y-155200381D01*
X159120070Y-155197677D01*
X159106258Y-155193855D01*
X159100361Y-155192066D01*
X159086717Y-155187559D01*
X159075184Y-155183110D01*
X159074498Y-155182806D01*
X159073754Y-155182639D01*
X159061854Y-155179346D01*
X159061130Y-155179106D01*
X159060377Y-155179014D01*
X159048198Y-155176900D01*
X159034213Y-155173759D01*
X159028216Y-155172257D01*
X159014395Y-155168432D01*
X159002661Y-155164556D01*
X159001954Y-155164283D01*
X159001214Y-155164155D01*
X158989159Y-155161448D01*
X158988430Y-155161246D01*
X158987655Y-155161189D01*
X158975413Y-155159678D01*
X158961298Y-155157229D01*
X158955230Y-155156022D01*
X158941212Y-155152874D01*
X158929315Y-155149583D01*
X158928592Y-155149344D01*
X158927851Y-155149253D01*
X158915689Y-155147143D01*
X158914939Y-155146974D01*
X158914175Y-155146956D01*
X158901844Y-155146045D01*
X158887614Y-155144289D01*
X158881513Y-155143384D01*
X158867382Y-155140933D01*
X158855311Y-155138223D01*
X158854591Y-155138023D01*
X158853834Y-155137968D01*
X158853832Y-155137968D01*
X158851977Y-155137831D01*
X158847664Y-155137512D01*
X158840830Y-155136327D01*
X158838546Y-155136839D01*
X158827732Y-155136041D01*
X158827726Y-155136041D01*
X158813422Y-155134986D01*
X158807269Y-155134380D01*
X158802267Y-155133763D01*
X158793021Y-155132622D01*
X158780848Y-155130511D01*
X158780112Y-155130345D01*
X158779346Y-155130327D01*
X158779346Y-155130326D01*
X158773176Y-155130174D01*
X158766297Y-155129327D01*
X158764039Y-155129950D01*
X158754008Y-155129704D01*
X158748883Y-155129579D01*
X158738843Y-155129333D01*
X158732667Y-155129030D01*
X158717485Y-155127910D01*
X158691502Y-155125994D01*
X158691501Y-155125994D01*
X158691499Y-155125994D01*
X158686967Y-155126553D01*
X158671549Y-155127500D01*
X158665649Y-155127500D01*
X158662560Y-155127462D01*
X158653937Y-155127250D01*
X158616621Y-155126335D01*
X158616620Y-155126335D01*
X158613478Y-155126258D01*
X158599058Y-155127500D01*
X134910500Y-155127500D01*
X134842379Y-155107498D01*
X134795886Y-155053842D01*
X134784500Y-155001500D01*
X134784500Y-154261396D01*
X134785666Y-154258374D01*
X134784500Y-154210881D01*
X134784500Y-154203442D01*
X134785448Y-154188016D01*
X134786005Y-154183496D01*
X134782968Y-154142329D01*
X134782665Y-154136181D01*
X134782312Y-154121803D01*
X134782618Y-154109426D01*
X134782670Y-154108707D01*
X134782672Y-154108702D01*
X134782579Y-154107955D01*
X134781670Y-154095612D01*
X134781652Y-154094880D01*
X134781490Y-154094159D01*
X134779374Y-154081974D01*
X134777615Y-154067718D01*
X134777012Y-154061581D01*
X134775957Y-154047282D01*
X134775653Y-154034899D01*
X134775670Y-154034174D01*
X134775672Y-154034169D01*
X134775545Y-154033441D01*
X134774030Y-154021150D01*
X134773975Y-154020412D01*
X134773975Y-154020408D01*
X134773972Y-154020403D01*
X134773774Y-154019684D01*
X134771067Y-154007633D01*
X134768602Y-153993427D01*
X134767707Y-153987393D01*
X134765951Y-153973156D01*
X134765043Y-153960820D01*
X134765024Y-153960064D01*
X134765023Y-153960062D01*
X134765024Y-153960060D01*
X134763499Y-153953270D01*
X134762652Y-153946401D01*
X134761499Y-153944368D01*
X134759124Y-153933790D01*
X134759124Y-153933789D01*
X134759123Y-153933786D01*
X134755974Y-153919761D01*
X134754769Y-153913700D01*
X134752322Y-153899596D01*
X134750808Y-153887326D01*
X134750752Y-153886566D01*
X134750553Y-153885848D01*
X134750550Y-153885838D01*
X134748900Y-153879875D01*
X134747715Y-153873045D01*
X134746462Y-153871066D01*
X134739737Y-153846767D01*
X134738237Y-153840776D01*
X134735096Y-153826789D01*
X134732979Y-153814583D01*
X134732890Y-153813870D01*
X134732891Y-153813867D01*
X134732656Y-153813155D01*
X134729357Y-153801234D01*
X134729194Y-153800508D01*
X134729193Y-153800503D01*
X134729189Y-153800498D01*
X134728888Y-153799818D01*
X134724438Y-153788278D01*
X134719931Y-153774633D01*
X134718138Y-153768723D01*
X134714326Y-153754949D01*
X134711614Y-153742873D01*
X134711483Y-153742117D01*
X134711213Y-153741418D01*
X134711209Y-153741407D01*
X134708978Y-153735624D01*
X134707134Y-153728959D01*
X134705696Y-153727118D01*
X134701796Y-153717007D01*
X134701792Y-153716997D01*
X134696630Y-153703615D01*
X134694547Y-153697794D01*
X134690041Y-153684155D01*
X134686739Y-153672221D01*
X134686583Y-153671528D01*
X134686583Y-153671522D01*
X134686283Y-153670845D01*
X134681837Y-153659319D01*
X134681596Y-153658589D01*
X134681594Y-153658587D01*
X134681592Y-153658580D01*
X134681210Y-153657906D01*
X134675663Y-153646888D01*
X134669841Y-153633753D01*
X134667497Y-153628094D01*
X134662326Y-153614690D01*
X134658449Y-153602949D01*
X134658248Y-153602224D01*
X134658248Y-153602221D01*
X134657902Y-153601535D01*
X134652888Y-153590221D01*
X134648792Y-153579601D01*
X134642941Y-153508846D01*
X134676271Y-153446160D01*
X134718133Y-153417851D01*
X134724721Y-153415121D01*
X134724730Y-153415119D01*
X134839770Y-153348700D01*
X134933700Y-153254770D01*
X135000119Y-153139730D01*
X135026137Y-153042631D01*
X155814699Y-153042631D01*
X155852816Y-153184882D01*
X155926446Y-153312414D01*
X155926454Y-153312424D01*
X156030575Y-153416545D01*
X156030580Y-153416549D01*
X156030582Y-153416551D01*
X156030583Y-153416552D01*
X156030585Y-153416553D01*
X156053589Y-153429834D01*
X156158118Y-153490184D01*
X156300367Y-153528300D01*
X156300369Y-153528300D01*
X156447631Y-153528300D01*
X156447633Y-153528300D01*
X156589882Y-153490184D01*
X156717418Y-153416551D01*
X156718852Y-153415117D01*
X156746565Y-153387405D01*
X156808877Y-153353379D01*
X156835660Y-153350500D01*
X160227787Y-153350500D01*
X160295908Y-153370502D01*
X160316882Y-153387405D01*
X160781595Y-153852118D01*
X160815621Y-153914430D01*
X160818500Y-153941213D01*
X160818500Y-161016340D01*
X160798498Y-161084461D01*
X160781595Y-161105435D01*
X160752454Y-161134575D01*
X160752446Y-161134585D01*
X160678816Y-161262117D01*
X160640700Y-161404368D01*
X160640700Y-161551631D01*
X160640699Y-161551631D01*
X160678816Y-161693882D01*
X160752446Y-161821414D01*
X160752454Y-161821424D01*
X160856575Y-161925545D01*
X160856580Y-161925549D01*
X160856582Y-161925551D01*
X160984118Y-161999184D01*
X161126367Y-162037300D01*
X161126369Y-162037300D01*
X161273631Y-162037300D01*
X161273633Y-162037300D01*
X161415882Y-161999184D01*
X161543418Y-161925551D01*
X161647551Y-161821418D01*
X161721184Y-161693882D01*
X161759300Y-161551633D01*
X161759300Y-161404367D01*
X161721184Y-161262118D01*
X161647551Y-161134582D01*
X161647549Y-161134580D01*
X161647545Y-161134575D01*
X161618405Y-161105435D01*
X161584379Y-161043123D01*
X161581500Y-161016340D01*
X161581500Y-153791388D01*
X161581501Y-153791375D01*
X161581501Y-153680776D01*
X161579209Y-153672221D01*
X161555502Y-153583747D01*
X161547832Y-153570462D01*
X161505278Y-153496756D01*
X161505270Y-153496746D01*
X160672253Y-152663729D01*
X160672243Y-152663721D01*
X160585258Y-152613500D01*
X160573792Y-152610427D01*
X160488225Y-152587500D01*
X160488223Y-152587500D01*
X156835660Y-152587500D01*
X156767539Y-152567498D01*
X156746565Y-152550595D01*
X156717424Y-152521454D01*
X156717414Y-152521446D01*
X156589882Y-152447816D01*
X156579373Y-152445000D01*
X156447633Y-152409700D01*
X156300367Y-152409700D01*
X156205534Y-152435110D01*
X156158117Y-152447816D01*
X156030585Y-152521446D01*
X156030575Y-152521454D01*
X155926454Y-152625575D01*
X155926446Y-152625585D01*
X155852816Y-152753117D01*
X155814700Y-152895368D01*
X155814700Y-153042631D01*
X155814699Y-153042631D01*
X135026137Y-153042631D01*
X135034500Y-153011419D01*
X135034500Y-152878581D01*
X135000119Y-152750270D01*
X134950151Y-152663724D01*
X134933702Y-152635233D01*
X134933694Y-152635223D01*
X134833931Y-152535460D01*
X134836054Y-152533336D01*
X134802677Y-152487628D01*
X134798453Y-152416757D01*
X134833216Y-152354853D01*
X134836228Y-152352242D01*
X134933694Y-152254776D01*
X134933700Y-152254770D01*
X135000119Y-152139730D01*
X135034500Y-152011419D01*
X135034500Y-151878581D01*
X135000119Y-151750270D01*
X134933700Y-151635230D01*
X134933698Y-151635228D01*
X134933694Y-151635223D01*
X134833931Y-151535460D01*
X134836054Y-151533336D01*
X134802677Y-151487628D01*
X134798453Y-151416757D01*
X134833216Y-151354853D01*
X134836228Y-151352242D01*
X134933694Y-151254776D01*
X134933700Y-151254770D01*
X135000119Y-151139730D01*
X135034500Y-151011419D01*
X135034500Y-150878581D01*
X135000119Y-150750270D01*
X134933700Y-150635230D01*
X134933698Y-150635228D01*
X134933694Y-150635223D01*
X134833931Y-150535460D01*
X134836054Y-150533336D01*
X134802677Y-150487628D01*
X134798453Y-150416757D01*
X134833216Y-150354853D01*
X134836228Y-150352242D01*
X134933694Y-150254776D01*
X134933700Y-150254770D01*
X135000119Y-150139730D01*
X135034500Y-150011419D01*
X135034500Y-149994631D01*
X155814699Y-149994631D01*
X155852816Y-150136882D01*
X155926446Y-150264414D01*
X155926454Y-150264424D01*
X156030575Y-150368545D01*
X156030580Y-150368549D01*
X156030582Y-150368551D01*
X156158118Y-150442184D01*
X156300367Y-150480300D01*
X156300369Y-150480300D01*
X156447631Y-150480300D01*
X156447633Y-150480300D01*
X156589882Y-150442184D01*
X156717418Y-150368551D01*
X156731116Y-150354853D01*
X156746565Y-150339405D01*
X156808877Y-150305379D01*
X156835660Y-150302500D01*
X160488223Y-150302500D01*
X160488225Y-150302500D01*
X160585254Y-150276501D01*
X160585257Y-150276499D01*
X160585258Y-150276499D01*
X160628750Y-150251388D01*
X160672247Y-150226276D01*
X160743276Y-150155247D01*
X161505276Y-149393247D01*
X161555502Y-149306253D01*
X161581501Y-149209225D01*
X161581501Y-149108775D01*
X161581501Y-149101058D01*
X161581500Y-149101040D01*
X161581500Y-139206659D01*
X161601502Y-139138538D01*
X161618401Y-139117567D01*
X161647551Y-139088418D01*
X161721184Y-138960882D01*
X161759300Y-138818633D01*
X161759300Y-138671367D01*
X161721184Y-138529118D01*
X161647551Y-138401582D01*
X161647549Y-138401580D01*
X161647545Y-138401575D01*
X161543424Y-138297454D01*
X161543414Y-138297446D01*
X161415882Y-138223816D01*
X161273633Y-138185700D01*
X161126367Y-138185700D01*
X161031534Y-138211110D01*
X160984117Y-138223816D01*
X160856585Y-138297446D01*
X160856575Y-138297454D01*
X160752454Y-138401575D01*
X160752446Y-138401585D01*
X160678816Y-138529117D01*
X160640700Y-138671368D01*
X160640700Y-138818631D01*
X160640699Y-138818631D01*
X160678816Y-138960882D01*
X160752446Y-139088414D01*
X160752448Y-139088417D01*
X160752449Y-139088418D01*
X160781595Y-139117564D01*
X160815620Y-139179874D01*
X160818500Y-139206659D01*
X160818500Y-148948787D01*
X160798498Y-149016908D01*
X160781595Y-149037882D01*
X160316882Y-149502595D01*
X160254570Y-149536621D01*
X160227787Y-149539500D01*
X156835660Y-149539500D01*
X156767539Y-149519498D01*
X156746565Y-149502595D01*
X156717424Y-149473454D01*
X156717414Y-149473446D01*
X156589882Y-149399816D01*
X156565366Y-149393247D01*
X156447633Y-149361700D01*
X156300367Y-149361700D01*
X156205534Y-149387110D01*
X156158117Y-149399816D01*
X156030585Y-149473446D01*
X156030575Y-149473454D01*
X155926454Y-149577575D01*
X155926446Y-149577585D01*
X155852816Y-149705117D01*
X155814700Y-149847368D01*
X155814700Y-149994631D01*
X155814699Y-149994631D01*
X135034500Y-149994631D01*
X135034500Y-149878581D01*
X135000119Y-149750270D01*
X134959470Y-149679865D01*
X134933702Y-149635233D01*
X134933694Y-149635223D01*
X134839776Y-149541305D01*
X134839766Y-149541297D01*
X134724728Y-149474880D01*
X134718126Y-149472145D01*
X134712183Y-149467355D01*
X134704745Y-149465651D01*
X134684922Y-149445384D01*
X134662848Y-149427594D01*
X134660438Y-149420352D01*
X134655102Y-149414897D01*
X134649382Y-149387128D01*
X134640431Y-149360229D01*
X134641961Y-149351103D01*
X134640779Y-149345360D01*
X134648790Y-149310402D01*
X134652626Y-149300453D01*
X134652628Y-149300452D01*
X134652895Y-149299758D01*
X134657902Y-149288463D01*
X134658248Y-149287778D01*
X134658248Y-149287769D01*
X134658450Y-149287046D01*
X134662326Y-149275307D01*
X134667499Y-149261897D01*
X134669834Y-149256258D01*
X134675667Y-149243101D01*
X134681219Y-149232073D01*
X134681589Y-149231417D01*
X134681596Y-149231410D01*
X134683777Y-149224806D01*
X134686583Y-149218477D01*
X134686640Y-149216139D01*
X134694554Y-149192181D01*
X134696620Y-149186407D01*
X134701796Y-149172989D01*
X134706818Y-149161666D01*
X134707128Y-149161047D01*
X134707134Y-149161040D01*
X134707329Y-149160333D01*
X134711213Y-149148579D01*
X134711484Y-149147878D01*
X134711483Y-149147870D01*
X134711613Y-149147127D01*
X134714317Y-149135081D01*
X134718153Y-149121221D01*
X134719931Y-149115361D01*
X134722108Y-149108771D01*
X134724440Y-149101710D01*
X134728894Y-149090170D01*
X134729192Y-149089497D01*
X134729191Y-149089497D01*
X134729193Y-149089496D01*
X134730714Y-149082720D01*
X134732891Y-149076132D01*
X134732718Y-149073796D01*
X134738238Y-149049218D01*
X134739740Y-149043222D01*
X134743568Y-149029390D01*
X134747452Y-149017635D01*
X134747712Y-149016958D01*
X134747715Y-149016954D01*
X134747841Y-149016222D01*
X134750555Y-149004143D01*
X134750752Y-149003432D01*
X134750752Y-149003428D01*
X134750809Y-149002667D01*
X134752322Y-148990401D01*
X134754769Y-148976297D01*
X134755974Y-148970235D01*
X134759124Y-148956204D01*
X134762431Y-148944263D01*
X134762648Y-148943604D01*
X134762652Y-148943598D01*
X134762739Y-148942884D01*
X134764854Y-148930694D01*
X134765024Y-148929939D01*
X134765023Y-148929933D01*
X134765042Y-148929180D01*
X134765948Y-148916869D01*
X134767712Y-148902563D01*
X134768605Y-148896548D01*
X134771064Y-148882379D01*
X134773777Y-148870303D01*
X134773970Y-148869599D01*
X134773975Y-148869591D01*
X134774485Y-148862666D01*
X134775672Y-148855830D01*
X134775158Y-148853544D01*
X134776037Y-148841625D01*
X134777012Y-148828414D01*
X134777618Y-148822262D01*
X134779372Y-148808042D01*
X134781491Y-148795836D01*
X134781649Y-148795125D01*
X134781652Y-148795120D01*
X134781822Y-148788185D01*
X134782672Y-148781297D01*
X134782046Y-148779037D01*
X134782665Y-148753814D01*
X134782968Y-148747668D01*
X134786005Y-148706505D01*
X134785447Y-148701978D01*
X134784500Y-148686555D01*
X134784500Y-148680662D01*
X134784538Y-148677569D01*
X134785743Y-148628490D01*
X134784500Y-148614053D01*
X134784500Y-147888500D01*
X134804502Y-147820379D01*
X134858158Y-147773886D01*
X134910500Y-147762500D01*
X158613603Y-147762500D01*
X158616626Y-147763666D01*
X158664118Y-147762500D01*
X158671556Y-147762500D01*
X158686980Y-147763448D01*
X158691501Y-147764005D01*
X158691501Y-147764004D01*
X158691502Y-147764005D01*
X158732668Y-147760967D01*
X158738814Y-147760665D01*
X158753194Y-147760312D01*
X158765558Y-147760617D01*
X158766292Y-147760670D01*
X158766297Y-147760672D01*
X158767045Y-147760579D01*
X158779386Y-147759670D01*
X158779502Y-147759667D01*
X158780120Y-147759652D01*
X158780121Y-147759651D01*
X158780827Y-147759493D01*
X158793033Y-147757374D01*
X158807277Y-147755617D01*
X158813430Y-147755011D01*
X158827714Y-147753957D01*
X158840097Y-147753653D01*
X158840824Y-147753670D01*
X158840830Y-147753672D01*
X158841554Y-147753546D01*
X158853843Y-147752030D01*
X158854591Y-147751975D01*
X158854597Y-147751971D01*
X158855300Y-147751778D01*
X158867375Y-147749065D01*
X158881530Y-147746609D01*
X158887614Y-147745708D01*
X158891855Y-147745184D01*
X158901841Y-147743952D01*
X158914197Y-147743041D01*
X158914928Y-147743022D01*
X158914938Y-147743024D01*
X158919632Y-147741969D01*
X158921718Y-147741500D01*
X158928598Y-147740653D01*
X158930635Y-147739499D01*
X158955242Y-147733972D01*
X158961245Y-147732777D01*
X158975430Y-147730316D01*
X158987671Y-147728808D01*
X158988427Y-147728751D01*
X158988432Y-147728752D01*
X158988969Y-147728603D01*
X158989148Y-147728554D01*
X158989149Y-147728553D01*
X158995121Y-147726900D01*
X159001955Y-147725715D01*
X159003934Y-147724461D01*
X159028260Y-147717728D01*
X159034202Y-147716240D01*
X159048205Y-147713096D01*
X159060397Y-147710981D01*
X159061125Y-147710890D01*
X159061132Y-147710891D01*
X159061840Y-147710656D01*
X159073758Y-147707358D01*
X159074496Y-147707193D01*
X159074500Y-147707190D01*
X159075170Y-147706894D01*
X159086710Y-147702440D01*
X159100372Y-147697927D01*
X159106221Y-147696153D01*
X159120081Y-147692317D01*
X159132127Y-147689613D01*
X159132870Y-147689483D01*
X159132878Y-147689484D01*
X159139367Y-147686980D01*
X159146040Y-147685134D01*
X159147882Y-147683695D01*
X159171407Y-147674620D01*
X159177178Y-147672555D01*
X159190857Y-147668036D01*
X159202768Y-147664741D01*
X159203466Y-147664583D01*
X159203476Y-147664583D01*
X159204139Y-147664288D01*
X159215694Y-147659832D01*
X159216410Y-147659596D01*
X159216415Y-147659591D01*
X159217077Y-147659217D01*
X159228110Y-147653663D01*
X159241247Y-147647840D01*
X159246894Y-147645501D01*
X159260303Y-147640328D01*
X159272059Y-147636445D01*
X159272763Y-147636249D01*
X159272778Y-147636248D01*
X159278992Y-147633119D01*
X159285452Y-147630628D01*
X159287145Y-147629015D01*
X159309694Y-147617664D01*
X159315232Y-147615045D01*
X159328357Y-147609227D01*
X159339891Y-147604779D01*
X159340589Y-147604547D01*
X159340596Y-147604547D01*
X159341234Y-147604185D01*
X159352286Y-147598621D01*
X159352979Y-147598315D01*
X159352983Y-147598310D01*
X159353587Y-147597886D01*
X159364053Y-147591257D01*
X159376525Y-147584193D01*
X159381943Y-147581296D01*
X159394779Y-147574834D01*
X159406077Y-147569828D01*
X159406781Y-147569556D01*
X159406781Y-147569555D01*
X159406785Y-147569555D01*
X159412658Y-147565835D01*
X159418848Y-147562720D01*
X159420376Y-147560948D01*
X159441677Y-147547458D01*
X159446924Y-147544313D01*
X159459472Y-147537205D01*
X159470509Y-147531651D01*
X159471161Y-147531360D01*
X159471170Y-147531359D01*
X159471210Y-147531330D01*
X159471701Y-147530986D01*
X159473031Y-147530533D01*
X159482530Y-147526324D01*
X159482906Y-147527172D01*
X159538912Y-147508113D01*
X159544255Y-147508000D01*
X159930000Y-147508000D01*
X159930000Y-147122255D01*
X159934048Y-147106883D01*
X159933301Y-147093601D01*
X159943586Y-147070662D01*
X159946344Y-147060193D01*
X159949405Y-147054784D01*
X159953359Y-147049171D01*
X159953868Y-147046898D01*
X159957925Y-147039730D01*
X159959199Y-147037480D01*
X159959202Y-147037478D01*
X159959219Y-147037446D01*
X159966298Y-147024949D01*
X159969466Y-147019665D01*
X159977144Y-147007541D01*
X159984270Y-146997424D01*
X159984714Y-146996852D01*
X159984720Y-146996848D01*
X159985053Y-146996184D01*
X159991151Y-146985422D01*
X159991555Y-146984785D01*
X159991556Y-146984776D01*
X159991827Y-146984078D01*
X159996841Y-146972767D01*
X160003288Y-146959959D01*
X160006182Y-146954542D01*
X160013264Y-146942040D01*
X160019889Y-146931583D01*
X160020312Y-146930982D01*
X160020312Y-146930981D01*
X160020315Y-146930979D01*
X160023132Y-146924623D01*
X160026546Y-146918597D01*
X160026832Y-146916275D01*
X160037053Y-146893215D01*
X160039669Y-146887684D01*
X160046146Y-146874816D01*
X160052245Y-146864054D01*
X160052621Y-146863458D01*
X160052628Y-146863452D01*
X160052890Y-146862770D01*
X160057902Y-146851463D01*
X160058248Y-146850778D01*
X160058248Y-146850769D01*
X160058450Y-146850046D01*
X160062326Y-146838307D01*
X160067499Y-146824897D01*
X160069834Y-146819258D01*
X160075667Y-146806101D01*
X160081219Y-146795073D01*
X160081589Y-146794417D01*
X160081596Y-146794410D01*
X160083777Y-146787806D01*
X160086583Y-146781477D01*
X160086640Y-146779139D01*
X160094554Y-146755181D01*
X160096620Y-146749407D01*
X160101796Y-146735989D01*
X160106818Y-146724666D01*
X160107128Y-146724047D01*
X160107134Y-146724040D01*
X160107329Y-146723333D01*
X160111213Y-146711579D01*
X160111484Y-146710878D01*
X160111483Y-146710870D01*
X160111613Y-146710127D01*
X160114317Y-146698081D01*
X160118153Y-146684221D01*
X160119931Y-146678361D01*
X160121797Y-146672712D01*
X160124440Y-146664710D01*
X160128894Y-146653170D01*
X160129192Y-146652497D01*
X160129191Y-146652497D01*
X160129193Y-146652496D01*
X160130714Y-146645720D01*
X160132891Y-146639132D01*
X160132718Y-146636796D01*
X160138238Y-146612218D01*
X160139740Y-146606222D01*
X160143568Y-146592390D01*
X160147452Y-146580635D01*
X160147712Y-146579958D01*
X160147715Y-146579954D01*
X160147841Y-146579222D01*
X160150555Y-146567143D01*
X160150752Y-146566432D01*
X160150752Y-146566428D01*
X160150809Y-146565667D01*
X160152322Y-146553401D01*
X160154769Y-146539297D01*
X160155974Y-146533235D01*
X160159124Y-146519204D01*
X160162431Y-146507263D01*
X160162648Y-146506604D01*
X160162652Y-146506598D01*
X160162739Y-146505884D01*
X160164854Y-146493694D01*
X160165024Y-146492939D01*
X160165023Y-146492933D01*
X160165042Y-146492180D01*
X160165948Y-146479869D01*
X160167712Y-146465563D01*
X160168605Y-146459548D01*
X160171064Y-146445379D01*
X160173777Y-146433303D01*
X160173970Y-146432599D01*
X160173975Y-146432591D01*
X160174485Y-146425666D01*
X160175672Y-146418830D01*
X160175158Y-146416544D01*
X160176037Y-146404625D01*
X160177012Y-146391414D01*
X160177618Y-146385262D01*
X160179372Y-146371042D01*
X160181491Y-146358836D01*
X160181649Y-146358125D01*
X160181652Y-146358120D01*
X160181822Y-146351185D01*
X160182672Y-146344297D01*
X160182046Y-146342037D01*
X160182665Y-146316814D01*
X160182968Y-146310668D01*
X160186005Y-146269505D01*
X160185447Y-146264978D01*
X160184500Y-146249555D01*
X160184500Y-146243662D01*
X160184538Y-146240569D01*
X160185743Y-146191490D01*
X160184500Y-146177053D01*
X160184500Y-136585500D01*
X160204502Y-136517379D01*
X160258158Y-136470886D01*
X160310500Y-136459500D01*
X162089500Y-136459500D01*
X162157621Y-136479502D01*
G37*
G04 #@! TD.AperFunction*
G04 #@! TA.AperFunction,Conductor*
G36*
X136757621Y-27894502D02*
G01*
X136804114Y-27948158D01*
X136815500Y-28000500D01*
X136815500Y-37592059D01*
X136814258Y-37606482D01*
X136815462Y-37655558D01*
X136815500Y-37658648D01*
X136815500Y-37664549D01*
X136814553Y-37679967D01*
X136813994Y-37684499D01*
X136817030Y-37725667D01*
X136817333Y-37731843D01*
X136817685Y-37746193D01*
X136817383Y-37758533D01*
X136817326Y-37759297D01*
X136817419Y-37760047D01*
X136818327Y-37772346D01*
X136818345Y-37773112D01*
X136818511Y-37773848D01*
X136820624Y-37786029D01*
X136822380Y-37800269D01*
X136822986Y-37806422D01*
X136824041Y-37820726D01*
X136824344Y-37833068D01*
X136824325Y-37833822D01*
X136824455Y-37834568D01*
X136825968Y-37846834D01*
X136826023Y-37847591D01*
X136826223Y-37848311D01*
X136828933Y-37860382D01*
X136831384Y-37874513D01*
X136832289Y-37880614D01*
X136834045Y-37894844D01*
X136834956Y-37907175D01*
X136834974Y-37907939D01*
X136835143Y-37908689D01*
X136835142Y-37908689D01*
X136836499Y-37914732D01*
X136837346Y-37921598D01*
X136838497Y-37923632D01*
X136840872Y-37934207D01*
X136840874Y-37934212D01*
X136844022Y-37948230D01*
X136845229Y-37954298D01*
X136847678Y-37968413D01*
X136849189Y-37980655D01*
X136849246Y-37981430D01*
X136849446Y-37982153D01*
X136851098Y-37988121D01*
X136852284Y-37994955D01*
X136853536Y-37996932D01*
X136856430Y-38007389D01*
X136856432Y-38007395D01*
X136860257Y-38021216D01*
X136861759Y-38027213D01*
X136864900Y-38041198D01*
X136867014Y-38053377D01*
X136867106Y-38054130D01*
X136867344Y-38054848D01*
X136869285Y-38060725D01*
X136870806Y-38067496D01*
X136872153Y-38069410D01*
X136875556Y-38079711D01*
X136875559Y-38079717D01*
X136880066Y-38093361D01*
X136881855Y-38099258D01*
X136885677Y-38113070D01*
X136888381Y-38125104D01*
X136888516Y-38125884D01*
X136888791Y-38126596D01*
X136888792Y-38126596D01*
X136891018Y-38132367D01*
X136892865Y-38139040D01*
X136894302Y-38140880D01*
X136898205Y-38150999D01*
X136898205Y-38151001D01*
X136903366Y-38164381D01*
X136905452Y-38170211D01*
X136909960Y-38183859D01*
X136913250Y-38195741D01*
X136913413Y-38196470D01*
X136913713Y-38197145D01*
X136918160Y-38208675D01*
X136918403Y-38209410D01*
X136918404Y-38209413D01*
X136918786Y-38210087D01*
X136924334Y-38221110D01*
X136930151Y-38234233D01*
X136932504Y-38239915D01*
X136937669Y-38253305D01*
X136941545Y-38265034D01*
X136941750Y-38265777D01*
X136941751Y-38265778D01*
X136944879Y-38271992D01*
X136947371Y-38278452D01*
X136948981Y-38280142D01*
X136953851Y-38289819D01*
X136953861Y-38289835D01*
X136960318Y-38302663D01*
X136962960Y-38308250D01*
X136968772Y-38321364D01*
X136973215Y-38332879D01*
X136973451Y-38333596D01*
X136973819Y-38334244D01*
X136979377Y-38345288D01*
X136979682Y-38345977D01*
X136980114Y-38346590D01*
X136986738Y-38357051D01*
X136993803Y-38369524D01*
X136996710Y-38374961D01*
X137003161Y-38387776D01*
X137008164Y-38399060D01*
X137008443Y-38399785D01*
X137008851Y-38400429D01*
X137008852Y-38400429D01*
X137012163Y-38405658D01*
X137015279Y-38411848D01*
X137017050Y-38413376D01*
X137030531Y-38434665D01*
X137033706Y-38439962D01*
X137040789Y-38452466D01*
X137046340Y-38463492D01*
X137046640Y-38464170D01*
X137047020Y-38464709D01*
X137047482Y-38466068D01*
X137051666Y-38475503D01*
X137050819Y-38475878D01*
X137069887Y-38531922D01*
X137070000Y-38537255D01*
X137070000Y-38923000D01*
X137455744Y-38923000D01*
X137471116Y-38927048D01*
X137484401Y-38926302D01*
X137507351Y-38936591D01*
X137517808Y-38939346D01*
X137523217Y-38942407D01*
X137528828Y-38946359D01*
X137531097Y-38946868D01*
X137540513Y-38952197D01*
X137540516Y-38952200D01*
X137540537Y-38952210D01*
X137553054Y-38959301D01*
X137558331Y-38962465D01*
X137570460Y-38970146D01*
X137580562Y-38977260D01*
X137581150Y-38977719D01*
X137581151Y-38977720D01*
X137581808Y-38978050D01*
X137592565Y-38984144D01*
X137593214Y-38984555D01*
X137593220Y-38984556D01*
X137593912Y-38984823D01*
X137605215Y-38989833D01*
X137618041Y-38996289D01*
X137623467Y-38999189D01*
X137635956Y-39006264D01*
X137646401Y-39012879D01*
X137647017Y-39013313D01*
X137647018Y-39013313D01*
X137647020Y-39013315D01*
X137653375Y-39016132D01*
X137659402Y-39019546D01*
X137661723Y-39019832D01*
X137684766Y-39030046D01*
X137690333Y-39032679D01*
X137703167Y-39039139D01*
X137713919Y-39045230D01*
X137714547Y-39045628D01*
X137715219Y-39045887D01*
X137726535Y-39050902D01*
X137727221Y-39051248D01*
X137727224Y-39051248D01*
X137727949Y-39051449D01*
X137739690Y-39055326D01*
X137753094Y-39060497D01*
X137758753Y-39062841D01*
X137771888Y-39068663D01*
X137782906Y-39074210D01*
X137783580Y-39074592D01*
X137783587Y-39074594D01*
X137783589Y-39074596D01*
X137790192Y-39076777D01*
X137796522Y-39079583D01*
X137798859Y-39079640D01*
X137822794Y-39087547D01*
X137828615Y-39089630D01*
X137841997Y-39094792D01*
X137853313Y-39099809D01*
X137853958Y-39100134D01*
X137854656Y-39100327D01*
X137866418Y-39104213D01*
X137867117Y-39104483D01*
X137867119Y-39104483D01*
X137867121Y-39104484D01*
X137867122Y-39104483D01*
X137867873Y-39104614D01*
X137879942Y-39107324D01*
X137893734Y-39111141D01*
X137899633Y-39112931D01*
X137913278Y-39117438D01*
X137924818Y-39121888D01*
X137925498Y-39122189D01*
X137925503Y-39122193D01*
X137926234Y-39122357D01*
X137926236Y-39122358D01*
X137932285Y-39123716D01*
X137938867Y-39125891D01*
X137941199Y-39125718D01*
X137951784Y-39128095D01*
X137951789Y-39128096D01*
X137965776Y-39131237D01*
X137971767Y-39132737D01*
X137983278Y-39135923D01*
X137985612Y-39136569D01*
X137997343Y-39140444D01*
X137998044Y-39140714D01*
X137998045Y-39140715D01*
X137998781Y-39140842D01*
X138010848Y-39143553D01*
X138011566Y-39143752D01*
X138012326Y-39143808D01*
X138024596Y-39145322D01*
X138038700Y-39147769D01*
X138044762Y-39148974D01*
X138058789Y-39152124D01*
X138070724Y-39155428D01*
X138071401Y-39155652D01*
X138072123Y-39155741D01*
X138084313Y-39157856D01*
X138085060Y-39158024D01*
X138085062Y-39158023D01*
X138085064Y-39158024D01*
X138085820Y-39158043D01*
X138098156Y-39158951D01*
X138112393Y-39160707D01*
X138118427Y-39161602D01*
X138132633Y-39164067D01*
X138144684Y-39166774D01*
X138145403Y-39166972D01*
X138145408Y-39166975D01*
X138145751Y-39167000D01*
X138146150Y-39167030D01*
X138146155Y-39167030D01*
X138149096Y-39167246D01*
X138152334Y-39167485D01*
X138159169Y-39168672D01*
X138161454Y-39168158D01*
X138172280Y-39168956D01*
X138172282Y-39168957D01*
X138186581Y-39170012D01*
X138192718Y-39170615D01*
X138206974Y-39172374D01*
X138219159Y-39174490D01*
X138219877Y-39174651D01*
X138219879Y-39174652D01*
X138220214Y-39174660D01*
X138220612Y-39174670D01*
X138232955Y-39175579D01*
X138233702Y-39175672D01*
X138233707Y-39175670D01*
X138234426Y-39175618D01*
X138246803Y-39175312D01*
X138261181Y-39175665D01*
X138267329Y-39175968D01*
X138308497Y-39179005D01*
X138313019Y-39178448D01*
X138328443Y-39177500D01*
X138334336Y-39177500D01*
X138337429Y-39177538D01*
X138386508Y-39178743D01*
X138400946Y-39177500D01*
X162089500Y-39177500D01*
X162157621Y-39197502D01*
X162204114Y-39251158D01*
X162215500Y-39303500D01*
X162215500Y-40043600D01*
X162214335Y-40046621D01*
X162215500Y-40094108D01*
X162215500Y-40101549D01*
X162214553Y-40116967D01*
X162213994Y-40121499D01*
X162217030Y-40162667D01*
X162217333Y-40168843D01*
X162217685Y-40183193D01*
X162217383Y-40195533D01*
X162217326Y-40196297D01*
X162217419Y-40197047D01*
X162218327Y-40209346D01*
X162218345Y-40210112D01*
X162218511Y-40210848D01*
X162220624Y-40223029D01*
X162222380Y-40237269D01*
X162222986Y-40243422D01*
X162224041Y-40257726D01*
X162224344Y-40270068D01*
X162224325Y-40270822D01*
X162224455Y-40271568D01*
X162225968Y-40283834D01*
X162226023Y-40284591D01*
X162226223Y-40285311D01*
X162228933Y-40297382D01*
X162231384Y-40311513D01*
X162232289Y-40317614D01*
X162234045Y-40331844D01*
X162234956Y-40344175D01*
X162234974Y-40344939D01*
X162235143Y-40345689D01*
X162235142Y-40345689D01*
X162236499Y-40351732D01*
X162237346Y-40358598D01*
X162238497Y-40360632D01*
X162240872Y-40371207D01*
X162240874Y-40371212D01*
X162244022Y-40385230D01*
X162245229Y-40391298D01*
X162247678Y-40405413D01*
X162249189Y-40417655D01*
X162249246Y-40418430D01*
X162249446Y-40419153D01*
X162251098Y-40425121D01*
X162252284Y-40431955D01*
X162253536Y-40433932D01*
X162256430Y-40444389D01*
X162256432Y-40444395D01*
X162260257Y-40458216D01*
X162261759Y-40464213D01*
X162264900Y-40478198D01*
X162267014Y-40490377D01*
X162267106Y-40491130D01*
X162267344Y-40491848D01*
X162269285Y-40497725D01*
X162270806Y-40504496D01*
X162272153Y-40506410D01*
X162275556Y-40516711D01*
X162275559Y-40516717D01*
X162280066Y-40530361D01*
X162281855Y-40536258D01*
X162285677Y-40550070D01*
X162288381Y-40562104D01*
X162288516Y-40562884D01*
X162288791Y-40563596D01*
X162288792Y-40563596D01*
X162291018Y-40569367D01*
X162292865Y-40576040D01*
X162294302Y-40577880D01*
X162298205Y-40587999D01*
X162298205Y-40588001D01*
X162303366Y-40601381D01*
X162305452Y-40607211D01*
X162309960Y-40620859D01*
X162313250Y-40632741D01*
X162313413Y-40633470D01*
X162313713Y-40634145D01*
X162318160Y-40645675D01*
X162318403Y-40646410D01*
X162318404Y-40646413D01*
X162318786Y-40647087D01*
X162324334Y-40658110D01*
X162330151Y-40671233D01*
X162332504Y-40676915D01*
X162337669Y-40690305D01*
X162341545Y-40702034D01*
X162341750Y-40702777D01*
X162342095Y-40703461D01*
X162347105Y-40714762D01*
X162347371Y-40715452D01*
X162347372Y-40715453D01*
X162351208Y-40725399D01*
X162357058Y-40796155D01*
X162323726Y-40858840D01*
X162281876Y-40887144D01*
X162275271Y-40889880D01*
X162160233Y-40956297D01*
X162160223Y-40956305D01*
X162066305Y-41050223D01*
X162066297Y-41050233D01*
X161999881Y-41165269D01*
X161965500Y-41293582D01*
X161965500Y-41426417D01*
X161965499Y-41426417D01*
X161999881Y-41554730D01*
X162066297Y-41669766D01*
X162066305Y-41669776D01*
X162166069Y-41769540D01*
X162163948Y-41771660D01*
X162197334Y-41817405D01*
X162201538Y-41888277D01*
X162166759Y-41950171D01*
X162163755Y-41952773D01*
X162066305Y-42050223D01*
X162066297Y-42050233D01*
X161999881Y-42165269D01*
X161965500Y-42293582D01*
X161965500Y-42426417D01*
X161965499Y-42426417D01*
X161999881Y-42554730D01*
X162066297Y-42669766D01*
X162066305Y-42669776D01*
X162166069Y-42769540D01*
X162163948Y-42771660D01*
X162197334Y-42817405D01*
X162201538Y-42888277D01*
X162166759Y-42950171D01*
X162163755Y-42952773D01*
X162066305Y-43050223D01*
X162066297Y-43050233D01*
X161999881Y-43165269D01*
X161965500Y-43293582D01*
X161965500Y-43426417D01*
X161965499Y-43426417D01*
X161999881Y-43554730D01*
X162066297Y-43669766D01*
X162066305Y-43669776D01*
X162166069Y-43769540D01*
X162163948Y-43771660D01*
X162197334Y-43817405D01*
X162201538Y-43888277D01*
X162166759Y-43950171D01*
X162163755Y-43952773D01*
X162066305Y-44050223D01*
X162066297Y-44050233D01*
X161999881Y-44165269D01*
X161965500Y-44293582D01*
X161965500Y-44426417D01*
X161965499Y-44426417D01*
X161999881Y-44554730D01*
X162066297Y-44669766D01*
X162066305Y-44669776D01*
X162160223Y-44763694D01*
X162160228Y-44763698D01*
X162160230Y-44763700D01*
X162160231Y-44763701D01*
X162160233Y-44763702D01*
X162168334Y-44768379D01*
X162275270Y-44830119D01*
X162275275Y-44830120D01*
X162281869Y-44832852D01*
X162287820Y-44837647D01*
X162295269Y-44839356D01*
X162315081Y-44859617D01*
X162337149Y-44877402D01*
X162339562Y-44884654D01*
X162344905Y-44890118D01*
X162350617Y-44917871D01*
X162359568Y-44944766D01*
X162358034Y-44953905D01*
X162359218Y-44959657D01*
X162351203Y-44994613D01*
X162347105Y-45005235D01*
X162342102Y-45016521D01*
X162341752Y-45017216D01*
X162341546Y-45017961D01*
X162337668Y-45029696D01*
X162332503Y-45043085D01*
X162330136Y-45048800D01*
X162324334Y-45061888D01*
X162318795Y-45072896D01*
X162318400Y-45073592D01*
X162318154Y-45074339D01*
X162313718Y-45085839D01*
X162313416Y-45086519D01*
X162313255Y-45087238D01*
X162309961Y-45099140D01*
X162305451Y-45112792D01*
X162303369Y-45118611D01*
X162298206Y-45131997D01*
X162293195Y-45143302D01*
X162292863Y-45143960D01*
X162292665Y-45144678D01*
X162288794Y-45156396D01*
X162288514Y-45157121D01*
X162288380Y-45157894D01*
X162285673Y-45169945D01*
X162281859Y-45183725D01*
X162280065Y-45189636D01*
X162275556Y-45203286D01*
X162271117Y-45214800D01*
X162270805Y-45215504D01*
X162270635Y-45216261D01*
X162269282Y-45222282D01*
X162267108Y-45228867D01*
X162267279Y-45231198D01*
X162264901Y-45241789D01*
X162264901Y-45241794D01*
X162261760Y-45255781D01*
X162260257Y-45261781D01*
X162256432Y-45275602D01*
X162252561Y-45287322D01*
X162252282Y-45288043D01*
X162252154Y-45288786D01*
X162249451Y-45300826D01*
X162249247Y-45301562D01*
X162249190Y-45302337D01*
X162247679Y-45314581D01*
X162245230Y-45328697D01*
X162244022Y-45334766D01*
X162240873Y-45348789D01*
X162237586Y-45360673D01*
X162237345Y-45361400D01*
X162237254Y-45362145D01*
X162235143Y-45374308D01*
X162234974Y-45375058D01*
X162234956Y-45375812D01*
X162234046Y-45388146D01*
X162232290Y-45402379D01*
X162231384Y-45408488D01*
X162228932Y-45422622D01*
X162226227Y-45434670D01*
X162226024Y-45435402D01*
X162225968Y-45436167D01*
X162224456Y-45448419D01*
X162224325Y-45449170D01*
X162224344Y-45449919D01*
X162224041Y-45462273D01*
X162222986Y-45476576D01*
X162222379Y-45482735D01*
X162220622Y-45496976D01*
X162218515Y-45509127D01*
X162218346Y-45509879D01*
X162218346Y-45509883D01*
X162218175Y-45516820D01*
X162217327Y-45523702D01*
X162217951Y-45525959D01*
X162217685Y-45536799D01*
X162217333Y-45551152D01*
X162217030Y-45557331D01*
X162213993Y-45598498D01*
X162214551Y-45603014D01*
X162215500Y-45618446D01*
X162215500Y-45624349D01*
X162215462Y-45627438D01*
X162214258Y-45676520D01*
X162215500Y-45690941D01*
X162215500Y-46416500D01*
X162195498Y-46484621D01*
X162141842Y-46531114D01*
X162089500Y-46542500D01*
X138386398Y-46542500D01*
X138383378Y-46541335D01*
X138335891Y-46542500D01*
X138328450Y-46542500D01*
X138313031Y-46541553D01*
X138308499Y-46540994D01*
X138308497Y-46540994D01*
X138291424Y-46542253D01*
X138267330Y-46544030D01*
X138261153Y-46544333D01*
X138246799Y-46544685D01*
X138234452Y-46544382D01*
X138233703Y-46544326D01*
X138233019Y-46544411D01*
X138232946Y-46544420D01*
X138220658Y-46545326D01*
X138219883Y-46545346D01*
X138219880Y-46545346D01*
X138219132Y-46545515D01*
X138206978Y-46547622D01*
X138192726Y-46549380D01*
X138186567Y-46549987D01*
X138172273Y-46551041D01*
X138159922Y-46551344D01*
X138159170Y-46551325D01*
X138158419Y-46551456D01*
X138146167Y-46552968D01*
X138145403Y-46553024D01*
X138144664Y-46553229D01*
X138132623Y-46555932D01*
X138118483Y-46558386D01*
X138112387Y-46559290D01*
X138100254Y-46560787D01*
X138098148Y-46561047D01*
X138085842Y-46561955D01*
X138085063Y-46561974D01*
X138084298Y-46562146D01*
X138084297Y-46562145D01*
X138078264Y-46563499D01*
X138071401Y-46564347D01*
X138069370Y-46565496D01*
X138058790Y-46567873D01*
X138058789Y-46567872D01*
X138058789Y-46567873D01*
X138044764Y-46571022D01*
X138038701Y-46572228D01*
X138024586Y-46574677D01*
X138012342Y-46576189D01*
X138011566Y-46576246D01*
X138010835Y-46576448D01*
X138010836Y-46576449D01*
X138009149Y-46576915D01*
X138004875Y-46578098D01*
X137998045Y-46579284D01*
X137996065Y-46580536D01*
X137985615Y-46583428D01*
X137985613Y-46583427D01*
X137971773Y-46587258D01*
X137965781Y-46588759D01*
X137951788Y-46591902D01*
X137939603Y-46594017D01*
X137938869Y-46594107D01*
X137938437Y-46594249D01*
X137938139Y-46594348D01*
X137926260Y-46597635D01*
X137925505Y-46597804D01*
X137924800Y-46598117D01*
X137913286Y-46602556D01*
X137899636Y-46607065D01*
X137893725Y-46608859D01*
X137888509Y-46610302D01*
X137879940Y-46612674D01*
X137867894Y-46615380D01*
X137867121Y-46615514D01*
X137866396Y-46615794D01*
X137860626Y-46618019D01*
X137853959Y-46619865D01*
X137852119Y-46621300D01*
X137842004Y-46625202D01*
X137841997Y-46625206D01*
X137828611Y-46630369D01*
X137822789Y-46632451D01*
X137809142Y-46636959D01*
X137797248Y-46640252D01*
X137796522Y-46640414D01*
X137795832Y-46640721D01*
X137784341Y-46645153D01*
X137783591Y-46645400D01*
X137782895Y-46645795D01*
X137771882Y-46651337D01*
X137758780Y-46657145D01*
X137753063Y-46659513D01*
X137739701Y-46664667D01*
X137727975Y-46668541D01*
X137727220Y-46668749D01*
X137726532Y-46669095D01*
X137726533Y-46669096D01*
X137720997Y-46671882D01*
X137714547Y-46674371D01*
X137712855Y-46675980D01*
X137703179Y-46680851D01*
X137703171Y-46680856D01*
X137690346Y-46687312D01*
X137684753Y-46689957D01*
X137671637Y-46695771D01*
X137660113Y-46700217D01*
X137659402Y-46700451D01*
X137658738Y-46700828D01*
X137647742Y-46706363D01*
X137647022Y-46706681D01*
X137646398Y-46707122D01*
X137635954Y-46713735D01*
X137623491Y-46720795D01*
X137618038Y-46723709D01*
X137605216Y-46730163D01*
X137593936Y-46735165D01*
X137593214Y-46735443D01*
X137592555Y-46735861D01*
X137592554Y-46735860D01*
X137587327Y-46739169D01*
X137581151Y-46742279D01*
X137579625Y-46744045D01*
X137570476Y-46749839D01*
X137570470Y-46749844D01*
X137558336Y-46757529D01*
X137553023Y-46760713D01*
X137540546Y-46767781D01*
X137529506Y-46773339D01*
X137528827Y-46773639D01*
X137528279Y-46774026D01*
X137526892Y-46774497D01*
X137517494Y-46778664D01*
X137517120Y-46777821D01*
X137461064Y-46796888D01*
X137455742Y-46797000D01*
X137070000Y-46797000D01*
X137070000Y-47182743D01*
X137065948Y-47198121D01*
X137066694Y-47211416D01*
X137056394Y-47234388D01*
X137053646Y-47244821D01*
X137050589Y-47250218D01*
X137046640Y-47255829D01*
X137046129Y-47258096D01*
X137040803Y-47267505D01*
X137040800Y-47267507D01*
X137040790Y-47267528D01*
X137033706Y-47280034D01*
X137030523Y-47285346D01*
X137022847Y-47297467D01*
X137015746Y-47307551D01*
X137015279Y-47308149D01*
X137014940Y-47308823D01*
X137008861Y-47319555D01*
X137008441Y-47320217D01*
X137008163Y-47320939D01*
X137003161Y-47332222D01*
X136996714Y-47345029D01*
X136993804Y-47350473D01*
X136986738Y-47362948D01*
X136980126Y-47373391D01*
X136979683Y-47374019D01*
X136979375Y-47374714D01*
X136976868Y-47380372D01*
X136973452Y-47386403D01*
X136973165Y-47388725D01*
X136963907Y-47409610D01*
X136962959Y-47411750D01*
X136960318Y-47417333D01*
X136953858Y-47430167D01*
X136947773Y-47440910D01*
X136947370Y-47441545D01*
X136947102Y-47442242D01*
X136942102Y-47453521D01*
X136941752Y-47454216D01*
X136941546Y-47454961D01*
X136937668Y-47466696D01*
X136932503Y-47480085D01*
X136930136Y-47485800D01*
X136924334Y-47498888D01*
X136918795Y-47509896D01*
X136918400Y-47510592D01*
X136918159Y-47511321D01*
X136918160Y-47511322D01*
X136916216Y-47517203D01*
X136913416Y-47523523D01*
X136913358Y-47525854D01*
X136909962Y-47536133D01*
X136909961Y-47536140D01*
X136905451Y-47549792D01*
X136903369Y-47555611D01*
X136898206Y-47568997D01*
X136893195Y-47580302D01*
X136892863Y-47580960D01*
X136892665Y-47581678D01*
X136888794Y-47593396D01*
X136888514Y-47594121D01*
X136888380Y-47594894D01*
X136885673Y-47606945D01*
X136881859Y-47620725D01*
X136880065Y-47626636D01*
X136875556Y-47640286D01*
X136871117Y-47651800D01*
X136870805Y-47652504D01*
X136870635Y-47653261D01*
X136869282Y-47659282D01*
X136867108Y-47665867D01*
X136867279Y-47668198D01*
X136864901Y-47678789D01*
X136864901Y-47678794D01*
X136861760Y-47692781D01*
X136860257Y-47698781D01*
X136856432Y-47712602D01*
X136852561Y-47724322D01*
X136852282Y-47725043D01*
X136852154Y-47725786D01*
X136849451Y-47737826D01*
X136849247Y-47738562D01*
X136849190Y-47739337D01*
X136847679Y-47751581D01*
X136845230Y-47765697D01*
X136844022Y-47771766D01*
X136840873Y-47785789D01*
X136837586Y-47797673D01*
X136837345Y-47798400D01*
X136837254Y-47799145D01*
X136835143Y-47811308D01*
X136834974Y-47812058D01*
X136834956Y-47812812D01*
X136834046Y-47825146D01*
X136832290Y-47839379D01*
X136831384Y-47845488D01*
X136828932Y-47859622D01*
X136826227Y-47871670D01*
X136826024Y-47872402D01*
X136825968Y-47873167D01*
X136824456Y-47885419D01*
X136824325Y-47886170D01*
X136824344Y-47886919D01*
X136824041Y-47899273D01*
X136822986Y-47913576D01*
X136822379Y-47919735D01*
X136820622Y-47933976D01*
X136818515Y-47946127D01*
X136818346Y-47946879D01*
X136818346Y-47946883D01*
X136818175Y-47953820D01*
X136817327Y-47960702D01*
X136817951Y-47962959D01*
X136817685Y-47973799D01*
X136817333Y-47988152D01*
X136817030Y-47994331D01*
X136813993Y-48035498D01*
X136814551Y-48040014D01*
X136815500Y-48055446D01*
X136815500Y-48061349D01*
X136815462Y-48064438D01*
X136814258Y-48113520D01*
X136815500Y-48127941D01*
X136815500Y-57719500D01*
X136795498Y-57787621D01*
X136741842Y-57834114D01*
X136689500Y-57845500D01*
X134910500Y-57845500D01*
X134842379Y-57825498D01*
X134795886Y-57771842D01*
X134784500Y-57719500D01*
X134784500Y-55633631D01*
X135240699Y-55633631D01*
X135278816Y-55775882D01*
X135352446Y-55903414D01*
X135352454Y-55903424D01*
X135456575Y-56007545D01*
X135456580Y-56007549D01*
X135456582Y-56007551D01*
X135584118Y-56081184D01*
X135726367Y-56119300D01*
X135726369Y-56119300D01*
X135873631Y-56119300D01*
X135873633Y-56119300D01*
X136015882Y-56081184D01*
X136143418Y-56007551D01*
X136247551Y-55903418D01*
X136321184Y-55775882D01*
X136359300Y-55633633D01*
X136359300Y-55486367D01*
X136321184Y-55344118D01*
X136247551Y-55216582D01*
X136247549Y-55216580D01*
X136247545Y-55216575D01*
X136218405Y-55187435D01*
X136184379Y-55125123D01*
X136181500Y-55098340D01*
X136181500Y-45356213D01*
X136201502Y-45288092D01*
X136218405Y-45267118D01*
X136683118Y-44802405D01*
X136745430Y-44768379D01*
X136772213Y-44765500D01*
X140164340Y-44765500D01*
X140232461Y-44785502D01*
X140253435Y-44802405D01*
X140282575Y-44831545D01*
X140282580Y-44831549D01*
X140282582Y-44831551D01*
X140282583Y-44831552D01*
X140282585Y-44831553D01*
X140298470Y-44840724D01*
X140410118Y-44905184D01*
X140552367Y-44943300D01*
X140552369Y-44943300D01*
X140699631Y-44943300D01*
X140699633Y-44943300D01*
X140841882Y-44905184D01*
X140969418Y-44831551D01*
X141073551Y-44727418D01*
X141147184Y-44599882D01*
X141185300Y-44457633D01*
X141185300Y-44310367D01*
X141147184Y-44168118D01*
X141102121Y-44090066D01*
X141073553Y-44040585D01*
X141073545Y-44040575D01*
X140969424Y-43936454D01*
X140969414Y-43936446D01*
X140841882Y-43862816D01*
X140831373Y-43860000D01*
X140699633Y-43824700D01*
X140552367Y-43824700D01*
X140457534Y-43850110D01*
X140410117Y-43862816D01*
X140282585Y-43936446D01*
X140282575Y-43936454D01*
X140253435Y-43965595D01*
X140191123Y-43999621D01*
X140164340Y-44002500D01*
X136619959Y-44002500D01*
X136619943Y-44002499D01*
X136612225Y-44002499D01*
X136511775Y-44002499D01*
X136463261Y-44015498D01*
X136414745Y-44028498D01*
X136327756Y-44078721D01*
X136327750Y-44078726D01*
X136112896Y-44293581D01*
X135565753Y-44840724D01*
X135546860Y-44859617D01*
X135494725Y-44911751D01*
X135494721Y-44911756D01*
X135444500Y-44998741D01*
X135436206Y-45029696D01*
X135420788Y-45087238D01*
X135418500Y-45095776D01*
X135418500Y-55098340D01*
X135398498Y-55166461D01*
X135381595Y-55187435D01*
X135352454Y-55216575D01*
X135352446Y-55216585D01*
X135278816Y-55344117D01*
X135240700Y-55486368D01*
X135240700Y-55633631D01*
X135240699Y-55633631D01*
X134784500Y-55633631D01*
X134784500Y-32900631D01*
X135240699Y-32900631D01*
X135278816Y-33042882D01*
X135352446Y-33170414D01*
X135352448Y-33170417D01*
X135352449Y-33170418D01*
X135381595Y-33199564D01*
X135415620Y-33261874D01*
X135418500Y-33288659D01*
X135418500Y-40624223D01*
X135418499Y-40624223D01*
X135444498Y-40721251D01*
X135444501Y-40721258D01*
X135480136Y-40782979D01*
X135480138Y-40782982D01*
X135494723Y-40808245D01*
X135494727Y-40808251D01*
X136327746Y-41641270D01*
X136327751Y-41641274D01*
X136327753Y-41641276D01*
X136414747Y-41691502D01*
X136511775Y-41717501D01*
X136511777Y-41717501D01*
X136619943Y-41717501D01*
X136619959Y-41717500D01*
X140164340Y-41717500D01*
X140232461Y-41737502D01*
X140253435Y-41754405D01*
X140282575Y-41783545D01*
X140282580Y-41783549D01*
X140282582Y-41783551D01*
X140410118Y-41857184D01*
X140552367Y-41895300D01*
X140552369Y-41895300D01*
X140699631Y-41895300D01*
X140699633Y-41895300D01*
X140841882Y-41857184D01*
X140969418Y-41783551D01*
X141073551Y-41679418D01*
X141147184Y-41551882D01*
X141185300Y-41409633D01*
X141185300Y-41262367D01*
X141147184Y-41120118D01*
X141073551Y-40992582D01*
X141073549Y-40992580D01*
X141073545Y-40992575D01*
X140969424Y-40888454D01*
X140969414Y-40888446D01*
X140841882Y-40814816D01*
X140817359Y-40808245D01*
X140699633Y-40776700D01*
X140552367Y-40776700D01*
X140479761Y-40796155D01*
X140410117Y-40814816D01*
X140282585Y-40888446D01*
X140282575Y-40888454D01*
X140253435Y-40917595D01*
X140191123Y-40951621D01*
X140164340Y-40954500D01*
X136772213Y-40954500D01*
X136704092Y-40934498D01*
X136683118Y-40917595D01*
X136218405Y-40452882D01*
X136184379Y-40390570D01*
X136181500Y-40363787D01*
X136181500Y-33288659D01*
X136201502Y-33220538D01*
X136218401Y-33199567D01*
X136247551Y-33170418D01*
X136321184Y-33042882D01*
X136359300Y-32900633D01*
X136359300Y-32753367D01*
X136321184Y-32611118D01*
X136247551Y-32483582D01*
X136247549Y-32483580D01*
X136247545Y-32483575D01*
X136143424Y-32379454D01*
X136143414Y-32379446D01*
X136015882Y-32305816D01*
X135873633Y-32267700D01*
X135726367Y-32267700D01*
X135631534Y-32293110D01*
X135584117Y-32305816D01*
X135456585Y-32379446D01*
X135456575Y-32379454D01*
X135352454Y-32483575D01*
X135352446Y-32483585D01*
X135278816Y-32611117D01*
X135240700Y-32753368D01*
X135240700Y-32900631D01*
X135240699Y-32900631D01*
X134784500Y-32900631D01*
X134784500Y-28000500D01*
X134804502Y-27932379D01*
X134858158Y-27885886D01*
X134910500Y-27874500D01*
X136689500Y-27874500D01*
X136757621Y-27894502D01*
G37*
G04 #@! TD.AperFunction*
G04 #@! TA.AperFunction,Conductor*
G36*
X136757621Y-71328502D02*
G01*
X136804114Y-71382158D01*
X136815500Y-71434500D01*
X136815500Y-81026059D01*
X136814258Y-81040482D01*
X136815462Y-81089558D01*
X136815500Y-81092648D01*
X136815500Y-81098549D01*
X136814553Y-81113967D01*
X136813994Y-81118499D01*
X136817030Y-81159667D01*
X136817333Y-81165843D01*
X136817685Y-81180193D01*
X136817383Y-81192533D01*
X136817326Y-81193297D01*
X136817419Y-81194047D01*
X136818327Y-81206346D01*
X136818345Y-81207112D01*
X136818511Y-81207848D01*
X136820624Y-81220029D01*
X136822380Y-81234269D01*
X136822986Y-81240422D01*
X136824041Y-81254726D01*
X136824344Y-81267068D01*
X136824325Y-81267822D01*
X136824455Y-81268568D01*
X136825968Y-81280834D01*
X136826023Y-81281591D01*
X136826223Y-81282311D01*
X136828933Y-81294382D01*
X136831384Y-81308513D01*
X136832289Y-81314614D01*
X136834045Y-81328844D01*
X136834956Y-81341175D01*
X136834974Y-81341939D01*
X136835143Y-81342689D01*
X136835142Y-81342689D01*
X136836499Y-81348732D01*
X136837346Y-81355598D01*
X136838497Y-81357632D01*
X136840872Y-81368207D01*
X136840874Y-81368212D01*
X136844022Y-81382230D01*
X136845229Y-81388298D01*
X136847678Y-81402413D01*
X136849189Y-81414655D01*
X136849246Y-81415430D01*
X136849446Y-81416153D01*
X136851098Y-81422121D01*
X136852284Y-81428955D01*
X136853536Y-81430932D01*
X136856430Y-81441389D01*
X136856432Y-81441395D01*
X136860257Y-81455216D01*
X136861759Y-81461213D01*
X136864900Y-81475198D01*
X136867014Y-81487377D01*
X136867106Y-81488130D01*
X136867344Y-81488848D01*
X136869285Y-81494725D01*
X136870806Y-81501496D01*
X136872153Y-81503410D01*
X136875556Y-81513711D01*
X136875559Y-81513717D01*
X136880066Y-81527361D01*
X136881855Y-81533258D01*
X136885677Y-81547070D01*
X136888381Y-81559104D01*
X136888516Y-81559884D01*
X136888791Y-81560596D01*
X136888792Y-81560596D01*
X136891018Y-81566367D01*
X136892865Y-81573040D01*
X136894302Y-81574880D01*
X136898205Y-81584999D01*
X136898205Y-81585001D01*
X136903366Y-81598381D01*
X136905452Y-81604211D01*
X136909960Y-81617859D01*
X136913250Y-81629741D01*
X136913413Y-81630470D01*
X136913713Y-81631145D01*
X136918160Y-81642675D01*
X136918403Y-81643410D01*
X136918404Y-81643413D01*
X136918786Y-81644087D01*
X136924334Y-81655110D01*
X136930151Y-81668233D01*
X136932504Y-81673915D01*
X136937669Y-81687305D01*
X136941545Y-81699034D01*
X136941750Y-81699777D01*
X136941751Y-81699778D01*
X136944879Y-81705992D01*
X136947371Y-81712452D01*
X136948981Y-81714142D01*
X136953851Y-81723819D01*
X136953861Y-81723835D01*
X136960318Y-81736663D01*
X136962960Y-81742250D01*
X136968772Y-81755364D01*
X136973215Y-81766879D01*
X136973451Y-81767596D01*
X136973819Y-81768244D01*
X136979377Y-81779288D01*
X136979682Y-81779977D01*
X136980114Y-81780590D01*
X136986738Y-81791051D01*
X136993803Y-81803524D01*
X136996710Y-81808961D01*
X137003161Y-81821776D01*
X137008164Y-81833060D01*
X137008443Y-81833785D01*
X137008851Y-81834429D01*
X137008852Y-81834429D01*
X137012163Y-81839658D01*
X137015279Y-81845848D01*
X137017050Y-81847376D01*
X137030531Y-81868665D01*
X137033706Y-81873962D01*
X137040789Y-81886466D01*
X137046340Y-81897492D01*
X137046640Y-81898170D01*
X137047020Y-81898709D01*
X137047482Y-81900068D01*
X137051666Y-81909503D01*
X137050819Y-81909878D01*
X137069887Y-81965922D01*
X137070000Y-81971255D01*
X137070000Y-82357000D01*
X137455744Y-82357000D01*
X137471116Y-82361048D01*
X137484401Y-82360302D01*
X137507351Y-82370591D01*
X137517808Y-82373346D01*
X137523217Y-82376407D01*
X137528828Y-82380359D01*
X137531097Y-82380868D01*
X137540513Y-82386197D01*
X137540516Y-82386200D01*
X137540537Y-82386210D01*
X137553054Y-82393301D01*
X137558331Y-82396465D01*
X137570460Y-82404146D01*
X137580562Y-82411260D01*
X137581150Y-82411719D01*
X137581151Y-82411720D01*
X137581808Y-82412050D01*
X137592565Y-82418144D01*
X137593214Y-82418555D01*
X137593220Y-82418556D01*
X137593912Y-82418823D01*
X137605215Y-82423833D01*
X137618041Y-82430289D01*
X137623467Y-82433189D01*
X137635956Y-82440264D01*
X137646401Y-82446879D01*
X137647017Y-82447313D01*
X137647018Y-82447313D01*
X137647020Y-82447315D01*
X137653375Y-82450132D01*
X137659402Y-82453546D01*
X137661723Y-82453832D01*
X137684766Y-82464046D01*
X137690333Y-82466679D01*
X137703167Y-82473139D01*
X137713919Y-82479230D01*
X137714547Y-82479628D01*
X137715219Y-82479887D01*
X137726535Y-82484902D01*
X137727221Y-82485248D01*
X137727224Y-82485248D01*
X137727949Y-82485449D01*
X137739690Y-82489326D01*
X137753094Y-82494497D01*
X137758753Y-82496841D01*
X137771888Y-82502663D01*
X137782906Y-82508210D01*
X137783580Y-82508592D01*
X137783587Y-82508594D01*
X137783589Y-82508596D01*
X137790192Y-82510777D01*
X137796522Y-82513583D01*
X137798859Y-82513640D01*
X137822794Y-82521547D01*
X137828615Y-82523630D01*
X137841997Y-82528792D01*
X137853313Y-82533809D01*
X137853958Y-82534134D01*
X137854656Y-82534327D01*
X137866418Y-82538213D01*
X137867117Y-82538483D01*
X137867119Y-82538483D01*
X137867121Y-82538484D01*
X137867122Y-82538483D01*
X137867873Y-82538614D01*
X137879942Y-82541324D01*
X137893734Y-82545141D01*
X137899633Y-82546931D01*
X137913278Y-82551438D01*
X137924818Y-82555888D01*
X137925498Y-82556189D01*
X137925503Y-82556193D01*
X137926234Y-82556357D01*
X137926236Y-82556358D01*
X137932285Y-82557716D01*
X137938867Y-82559891D01*
X137941199Y-82559718D01*
X137951784Y-82562095D01*
X137951789Y-82562096D01*
X137965776Y-82565237D01*
X137971767Y-82566737D01*
X137983278Y-82569923D01*
X137985612Y-82570569D01*
X137997343Y-82574444D01*
X137998044Y-82574714D01*
X137998045Y-82574715D01*
X137998781Y-82574842D01*
X138010848Y-82577553D01*
X138011566Y-82577752D01*
X138012326Y-82577808D01*
X138024596Y-82579322D01*
X138038700Y-82581769D01*
X138044762Y-82582974D01*
X138058789Y-82586124D01*
X138070724Y-82589428D01*
X138071401Y-82589652D01*
X138072123Y-82589741D01*
X138084313Y-82591856D01*
X138085060Y-82592024D01*
X138085062Y-82592023D01*
X138085064Y-82592024D01*
X138085820Y-82592043D01*
X138098156Y-82592951D01*
X138112393Y-82594707D01*
X138118427Y-82595602D01*
X138132633Y-82598067D01*
X138144684Y-82600774D01*
X138145403Y-82600972D01*
X138145408Y-82600975D01*
X138145751Y-82601000D01*
X138146150Y-82601030D01*
X138146155Y-82601030D01*
X138149096Y-82601246D01*
X138152334Y-82601485D01*
X138159169Y-82602672D01*
X138161454Y-82602158D01*
X138172280Y-82602956D01*
X138172282Y-82602957D01*
X138186581Y-82604012D01*
X138192718Y-82604615D01*
X138206974Y-82606374D01*
X138219159Y-82608490D01*
X138219877Y-82608651D01*
X138219879Y-82608652D01*
X138220214Y-82608660D01*
X138220612Y-82608670D01*
X138232955Y-82609579D01*
X138233702Y-82609672D01*
X138233707Y-82609670D01*
X138234426Y-82609618D01*
X138246803Y-82609312D01*
X138261181Y-82609665D01*
X138267329Y-82609968D01*
X138308497Y-82613005D01*
X138313019Y-82612448D01*
X138328443Y-82611500D01*
X138334336Y-82611500D01*
X138337429Y-82611538D01*
X138386508Y-82612743D01*
X138400946Y-82611500D01*
X162089500Y-82611500D01*
X162157621Y-82631502D01*
X162204114Y-82685158D01*
X162215500Y-82737500D01*
X162215500Y-83477600D01*
X162214335Y-83480621D01*
X162215500Y-83528108D01*
X162215500Y-83535549D01*
X162214553Y-83550967D01*
X162213994Y-83555499D01*
X162217030Y-83596667D01*
X162217333Y-83602843D01*
X162217685Y-83617193D01*
X162217383Y-83629533D01*
X162217326Y-83630297D01*
X162217419Y-83631047D01*
X162218327Y-83643346D01*
X162218345Y-83644112D01*
X162218511Y-83644848D01*
X162220624Y-83657029D01*
X162222380Y-83671269D01*
X162222986Y-83677422D01*
X162224041Y-83691726D01*
X162224344Y-83704068D01*
X162224325Y-83704822D01*
X162224455Y-83705568D01*
X162225968Y-83717834D01*
X162226023Y-83718591D01*
X162226223Y-83719311D01*
X162228933Y-83731382D01*
X162231384Y-83745513D01*
X162232289Y-83751614D01*
X162234045Y-83765844D01*
X162234956Y-83778175D01*
X162234974Y-83778939D01*
X162235143Y-83779689D01*
X162235142Y-83779689D01*
X162236499Y-83785732D01*
X162237346Y-83792598D01*
X162238497Y-83794632D01*
X162240872Y-83805207D01*
X162240874Y-83805212D01*
X162244022Y-83819230D01*
X162245229Y-83825298D01*
X162247678Y-83839413D01*
X162249189Y-83851655D01*
X162249246Y-83852430D01*
X162249446Y-83853153D01*
X162251098Y-83859121D01*
X162252284Y-83865955D01*
X162253536Y-83867932D01*
X162256430Y-83878389D01*
X162256432Y-83878395D01*
X162260257Y-83892216D01*
X162261759Y-83898213D01*
X162264900Y-83912198D01*
X162267014Y-83924377D01*
X162267106Y-83925130D01*
X162267344Y-83925848D01*
X162269285Y-83931725D01*
X162270806Y-83938496D01*
X162272153Y-83940410D01*
X162275556Y-83950711D01*
X162275559Y-83950717D01*
X162280066Y-83964361D01*
X162281855Y-83970258D01*
X162285677Y-83984070D01*
X162288381Y-83996104D01*
X162288516Y-83996884D01*
X162288791Y-83997596D01*
X162288792Y-83997596D01*
X162291018Y-84003367D01*
X162292865Y-84010040D01*
X162294302Y-84011880D01*
X162298205Y-84021999D01*
X162298205Y-84022001D01*
X162303366Y-84035381D01*
X162305452Y-84041211D01*
X162309960Y-84054859D01*
X162313250Y-84066741D01*
X162313413Y-84067470D01*
X162313713Y-84068145D01*
X162318160Y-84079675D01*
X162318403Y-84080410D01*
X162318404Y-84080413D01*
X162318786Y-84081087D01*
X162324334Y-84092110D01*
X162330151Y-84105233D01*
X162332504Y-84110915D01*
X162337669Y-84124305D01*
X162341545Y-84136034D01*
X162341750Y-84136777D01*
X162342095Y-84137461D01*
X162347105Y-84148762D01*
X162347371Y-84149452D01*
X162347372Y-84149453D01*
X162351208Y-84159399D01*
X162357058Y-84230155D01*
X162323726Y-84292840D01*
X162281876Y-84321144D01*
X162275271Y-84323880D01*
X162160233Y-84390297D01*
X162160223Y-84390305D01*
X162066305Y-84484223D01*
X162066297Y-84484233D01*
X161999881Y-84599269D01*
X161965500Y-84727582D01*
X161965500Y-84860417D01*
X161965499Y-84860417D01*
X161999881Y-84988730D01*
X162066297Y-85103766D01*
X162066305Y-85103776D01*
X162166069Y-85203540D01*
X162163948Y-85205660D01*
X162197334Y-85251405D01*
X162201538Y-85322277D01*
X162166759Y-85384171D01*
X162163755Y-85386773D01*
X162066305Y-85484223D01*
X162066297Y-85484233D01*
X161999881Y-85599269D01*
X161965500Y-85727582D01*
X161965500Y-85860417D01*
X161965499Y-85860417D01*
X161999881Y-85988730D01*
X162066297Y-86103766D01*
X162066305Y-86103776D01*
X162166069Y-86203540D01*
X162163948Y-86205660D01*
X162197334Y-86251405D01*
X162201538Y-86322277D01*
X162166759Y-86384171D01*
X162163755Y-86386773D01*
X162066305Y-86484223D01*
X162066297Y-86484233D01*
X161999881Y-86599269D01*
X161965500Y-86727582D01*
X161965500Y-86860417D01*
X161965499Y-86860417D01*
X161999881Y-86988730D01*
X162066297Y-87103766D01*
X162066305Y-87103776D01*
X162166069Y-87203540D01*
X162163948Y-87205660D01*
X162197334Y-87251405D01*
X162201538Y-87322277D01*
X162166759Y-87384171D01*
X162163755Y-87386773D01*
X162066305Y-87484223D01*
X162066297Y-87484233D01*
X161999881Y-87599269D01*
X161965500Y-87727582D01*
X161965500Y-87860417D01*
X161965499Y-87860417D01*
X161999881Y-87988730D01*
X162066297Y-88103766D01*
X162066305Y-88103776D01*
X162160223Y-88197694D01*
X162160228Y-88197698D01*
X162160230Y-88197700D01*
X162160231Y-88197701D01*
X162160233Y-88197702D01*
X162168334Y-88202379D01*
X162275270Y-88264119D01*
X162275275Y-88264120D01*
X162281869Y-88266852D01*
X162287820Y-88271647D01*
X162295269Y-88273356D01*
X162315081Y-88293617D01*
X162337149Y-88311402D01*
X162339562Y-88318654D01*
X162344905Y-88324118D01*
X162350617Y-88351871D01*
X162359568Y-88378766D01*
X162358034Y-88387905D01*
X162359218Y-88393657D01*
X162351203Y-88428613D01*
X162347105Y-88439235D01*
X162342102Y-88450521D01*
X162341752Y-88451216D01*
X162341546Y-88451961D01*
X162337668Y-88463696D01*
X162332503Y-88477085D01*
X162330136Y-88482800D01*
X162324334Y-88495888D01*
X162318795Y-88506896D01*
X162318400Y-88507592D01*
X162318154Y-88508339D01*
X162313718Y-88519839D01*
X162313416Y-88520519D01*
X162313255Y-88521238D01*
X162309961Y-88533140D01*
X162305451Y-88546792D01*
X162303369Y-88552611D01*
X162298206Y-88565997D01*
X162293195Y-88577302D01*
X162292863Y-88577960D01*
X162292665Y-88578678D01*
X162288794Y-88590396D01*
X162288514Y-88591121D01*
X162288380Y-88591894D01*
X162285673Y-88603945D01*
X162281859Y-88617725D01*
X162280065Y-88623636D01*
X162275556Y-88637286D01*
X162271117Y-88648800D01*
X162270805Y-88649504D01*
X162270635Y-88650261D01*
X162269282Y-88656282D01*
X162267108Y-88662867D01*
X162267279Y-88665198D01*
X162264901Y-88675789D01*
X162264901Y-88675794D01*
X162261760Y-88689781D01*
X162260257Y-88695781D01*
X162256432Y-88709602D01*
X162252561Y-88721322D01*
X162252282Y-88722043D01*
X162252154Y-88722786D01*
X162249451Y-88734826D01*
X162249247Y-88735562D01*
X162249190Y-88736337D01*
X162247679Y-88748581D01*
X162245230Y-88762697D01*
X162244022Y-88768766D01*
X162240873Y-88782789D01*
X162237586Y-88794673D01*
X162237345Y-88795400D01*
X162237254Y-88796145D01*
X162235143Y-88808308D01*
X162234974Y-88809058D01*
X162234956Y-88809812D01*
X162234046Y-88822146D01*
X162232290Y-88836379D01*
X162231384Y-88842488D01*
X162228932Y-88856622D01*
X162226227Y-88868670D01*
X162226024Y-88869402D01*
X162225968Y-88870167D01*
X162224456Y-88882419D01*
X162224325Y-88883170D01*
X162224344Y-88883919D01*
X162224041Y-88896273D01*
X162222986Y-88910576D01*
X162222379Y-88916735D01*
X162220622Y-88930976D01*
X162218515Y-88943127D01*
X162218346Y-88943879D01*
X162218346Y-88943883D01*
X162218175Y-88950820D01*
X162217327Y-88957702D01*
X162217951Y-88959959D01*
X162217685Y-88970799D01*
X162217333Y-88985152D01*
X162217030Y-88991331D01*
X162213993Y-89032498D01*
X162214551Y-89037014D01*
X162215500Y-89052446D01*
X162215500Y-89058349D01*
X162215462Y-89061438D01*
X162214258Y-89110520D01*
X162215500Y-89124941D01*
X162215500Y-89850500D01*
X162195498Y-89918621D01*
X162141842Y-89965114D01*
X162089500Y-89976500D01*
X138386398Y-89976500D01*
X138383378Y-89975335D01*
X138335891Y-89976500D01*
X138328450Y-89976500D01*
X138313031Y-89975553D01*
X138308499Y-89974994D01*
X138308497Y-89974994D01*
X138291424Y-89976253D01*
X138267330Y-89978030D01*
X138261153Y-89978333D01*
X138246799Y-89978685D01*
X138234452Y-89978382D01*
X138233703Y-89978326D01*
X138233019Y-89978411D01*
X138232946Y-89978420D01*
X138220658Y-89979326D01*
X138219883Y-89979346D01*
X138219880Y-89979346D01*
X138219132Y-89979515D01*
X138206978Y-89981622D01*
X138192726Y-89983380D01*
X138186567Y-89983987D01*
X138172273Y-89985041D01*
X138159922Y-89985344D01*
X138159170Y-89985325D01*
X138158419Y-89985456D01*
X138146167Y-89986968D01*
X138145403Y-89987024D01*
X138144664Y-89987229D01*
X138132623Y-89989932D01*
X138118483Y-89992386D01*
X138112387Y-89993290D01*
X138100254Y-89994787D01*
X138098148Y-89995047D01*
X138085842Y-89995955D01*
X138085063Y-89995974D01*
X138084298Y-89996146D01*
X138084297Y-89996145D01*
X138078264Y-89997499D01*
X138071401Y-89998347D01*
X138069370Y-89999496D01*
X138058790Y-90001873D01*
X138058789Y-90001872D01*
X138058789Y-90001873D01*
X138044764Y-90005022D01*
X138038701Y-90006228D01*
X138024586Y-90008677D01*
X138012342Y-90010189D01*
X138011566Y-90010246D01*
X138010835Y-90010448D01*
X138010836Y-90010449D01*
X138009149Y-90010915D01*
X138004875Y-90012098D01*
X137998045Y-90013284D01*
X137996065Y-90014536D01*
X137985615Y-90017428D01*
X137985613Y-90017427D01*
X137971773Y-90021258D01*
X137965781Y-90022759D01*
X137951788Y-90025902D01*
X137939603Y-90028017D01*
X137938869Y-90028107D01*
X137938437Y-90028249D01*
X137938139Y-90028348D01*
X137926260Y-90031635D01*
X137925505Y-90031804D01*
X137924800Y-90032117D01*
X137913286Y-90036556D01*
X137899636Y-90041065D01*
X137893725Y-90042859D01*
X137888509Y-90044302D01*
X137879940Y-90046674D01*
X137867894Y-90049380D01*
X137867121Y-90049514D01*
X137866396Y-90049794D01*
X137860626Y-90052019D01*
X137853959Y-90053865D01*
X137852119Y-90055300D01*
X137842004Y-90059202D01*
X137841997Y-90059206D01*
X137828611Y-90064369D01*
X137822789Y-90066451D01*
X137809142Y-90070959D01*
X137797248Y-90074252D01*
X137796522Y-90074414D01*
X137795832Y-90074721D01*
X137784341Y-90079153D01*
X137783591Y-90079400D01*
X137782895Y-90079795D01*
X137771882Y-90085337D01*
X137758780Y-90091145D01*
X137753063Y-90093513D01*
X137739701Y-90098667D01*
X137727975Y-90102541D01*
X137727220Y-90102749D01*
X137726532Y-90103095D01*
X137726533Y-90103096D01*
X137720997Y-90105882D01*
X137714547Y-90108371D01*
X137712855Y-90109980D01*
X137703179Y-90114851D01*
X137703171Y-90114856D01*
X137690346Y-90121312D01*
X137684753Y-90123957D01*
X137671637Y-90129771D01*
X137660113Y-90134217D01*
X137659402Y-90134451D01*
X137658738Y-90134828D01*
X137647742Y-90140363D01*
X137647022Y-90140681D01*
X137646398Y-90141122D01*
X137635954Y-90147735D01*
X137623491Y-90154795D01*
X137618038Y-90157709D01*
X137605216Y-90164163D01*
X137593936Y-90169165D01*
X137593214Y-90169443D01*
X137592555Y-90169861D01*
X137592554Y-90169860D01*
X137587327Y-90173169D01*
X137581151Y-90176279D01*
X137579625Y-90178045D01*
X137570476Y-90183839D01*
X137570470Y-90183844D01*
X137558336Y-90191529D01*
X137553023Y-90194713D01*
X137540546Y-90201781D01*
X137529506Y-90207339D01*
X137528827Y-90207639D01*
X137528279Y-90208026D01*
X137526892Y-90208497D01*
X137517494Y-90212664D01*
X137517120Y-90211821D01*
X137461064Y-90230888D01*
X137455742Y-90231000D01*
X137070000Y-90231000D01*
X137070000Y-90616743D01*
X137065948Y-90632121D01*
X137066694Y-90645416D01*
X137056394Y-90668388D01*
X137053646Y-90678821D01*
X137050589Y-90684218D01*
X137046640Y-90689829D01*
X137046129Y-90692096D01*
X137040803Y-90701505D01*
X137040800Y-90701507D01*
X137040790Y-90701528D01*
X137033706Y-90714034D01*
X137030523Y-90719346D01*
X137022847Y-90731467D01*
X137015746Y-90741551D01*
X137015279Y-90742149D01*
X137014940Y-90742823D01*
X137008861Y-90753555D01*
X137008441Y-90754217D01*
X137008163Y-90754939D01*
X137003161Y-90766222D01*
X136996714Y-90779029D01*
X136993804Y-90784473D01*
X136986738Y-90796948D01*
X136980126Y-90807391D01*
X136979683Y-90808019D01*
X136979375Y-90808714D01*
X136976868Y-90814372D01*
X136973452Y-90820403D01*
X136973165Y-90822725D01*
X136963907Y-90843610D01*
X136962959Y-90845750D01*
X136960318Y-90851333D01*
X136953858Y-90864167D01*
X136947773Y-90874910D01*
X136947370Y-90875545D01*
X136947102Y-90876242D01*
X136942102Y-90887521D01*
X136941752Y-90888216D01*
X136941546Y-90888961D01*
X136937668Y-90900696D01*
X136932503Y-90914085D01*
X136930136Y-90919800D01*
X136924334Y-90932888D01*
X136918795Y-90943896D01*
X136918400Y-90944592D01*
X136918159Y-90945321D01*
X136918160Y-90945322D01*
X136916216Y-90951203D01*
X136913416Y-90957523D01*
X136913358Y-90959854D01*
X136909962Y-90970133D01*
X136909961Y-90970140D01*
X136905451Y-90983792D01*
X136903369Y-90989611D01*
X136898206Y-91002997D01*
X136893195Y-91014302D01*
X136892863Y-91014960D01*
X136892665Y-91015678D01*
X136888794Y-91027396D01*
X136888514Y-91028121D01*
X136888380Y-91028894D01*
X136885673Y-91040945D01*
X136881859Y-91054725D01*
X136880065Y-91060636D01*
X136875556Y-91074286D01*
X136871117Y-91085800D01*
X136870805Y-91086504D01*
X136870635Y-91087261D01*
X136869282Y-91093282D01*
X136867108Y-91099867D01*
X136867279Y-91102198D01*
X136864901Y-91112789D01*
X136864901Y-91112794D01*
X136861760Y-91126781D01*
X136860257Y-91132781D01*
X136856432Y-91146602D01*
X136852561Y-91158322D01*
X136852282Y-91159043D01*
X136852154Y-91159786D01*
X136849451Y-91171826D01*
X136849247Y-91172562D01*
X136849190Y-91173337D01*
X136847679Y-91185581D01*
X136845230Y-91199697D01*
X136844022Y-91205766D01*
X136840873Y-91219789D01*
X136837586Y-91231673D01*
X136837345Y-91232400D01*
X136837254Y-91233145D01*
X136835143Y-91245308D01*
X136834974Y-91246058D01*
X136834956Y-91246812D01*
X136834046Y-91259146D01*
X136832290Y-91273379D01*
X136831384Y-91279488D01*
X136828932Y-91293622D01*
X136826227Y-91305670D01*
X136826024Y-91306402D01*
X136825968Y-91307167D01*
X136824456Y-91319419D01*
X136824325Y-91320170D01*
X136824344Y-91320919D01*
X136824041Y-91333273D01*
X136822986Y-91347576D01*
X136822379Y-91353735D01*
X136820622Y-91367976D01*
X136818515Y-91380127D01*
X136818346Y-91380879D01*
X136818346Y-91380883D01*
X136818175Y-91387820D01*
X136817327Y-91394702D01*
X136817951Y-91396959D01*
X136817685Y-91407799D01*
X136817333Y-91422152D01*
X136817030Y-91428331D01*
X136813993Y-91469498D01*
X136814551Y-91474014D01*
X136815500Y-91489446D01*
X136815500Y-91495349D01*
X136815462Y-91498438D01*
X136814258Y-91547520D01*
X136815500Y-91561941D01*
X136815500Y-101153500D01*
X136795498Y-101221621D01*
X136741842Y-101268114D01*
X136689500Y-101279500D01*
X134910500Y-101279500D01*
X134842379Y-101259498D01*
X134795886Y-101205842D01*
X134784500Y-101153500D01*
X134784500Y-99067631D01*
X135240699Y-99067631D01*
X135278816Y-99209882D01*
X135352446Y-99337414D01*
X135352454Y-99337424D01*
X135456575Y-99441545D01*
X135456580Y-99441549D01*
X135456582Y-99441551D01*
X135584118Y-99515184D01*
X135726367Y-99553300D01*
X135726369Y-99553300D01*
X135873631Y-99553300D01*
X135873633Y-99553300D01*
X136015882Y-99515184D01*
X136143418Y-99441551D01*
X136247551Y-99337418D01*
X136321184Y-99209882D01*
X136359300Y-99067633D01*
X136359300Y-98920367D01*
X136321184Y-98778118D01*
X136247551Y-98650582D01*
X136247549Y-98650580D01*
X136247545Y-98650575D01*
X136218405Y-98621435D01*
X136184379Y-98559123D01*
X136181500Y-98532340D01*
X136181500Y-88790213D01*
X136201502Y-88722092D01*
X136218405Y-88701118D01*
X136683118Y-88236405D01*
X136745430Y-88202379D01*
X136772213Y-88199500D01*
X140164340Y-88199500D01*
X140232461Y-88219502D01*
X140253435Y-88236405D01*
X140282575Y-88265545D01*
X140282580Y-88265549D01*
X140282582Y-88265551D01*
X140282583Y-88265552D01*
X140282585Y-88265553D01*
X140298470Y-88274724D01*
X140410118Y-88339184D01*
X140552367Y-88377300D01*
X140552369Y-88377300D01*
X140699631Y-88377300D01*
X140699633Y-88377300D01*
X140841882Y-88339184D01*
X140969418Y-88265551D01*
X141073551Y-88161418D01*
X141147184Y-88033882D01*
X141185300Y-87891633D01*
X141185300Y-87744367D01*
X141147184Y-87602118D01*
X141102121Y-87524066D01*
X141073553Y-87474585D01*
X141073545Y-87474575D01*
X140969424Y-87370454D01*
X140969414Y-87370446D01*
X140841882Y-87296816D01*
X140831373Y-87294000D01*
X140699633Y-87258700D01*
X140552367Y-87258700D01*
X140457534Y-87284110D01*
X140410117Y-87296816D01*
X140282585Y-87370446D01*
X140282575Y-87370454D01*
X140253435Y-87399595D01*
X140191123Y-87433621D01*
X140164340Y-87436500D01*
X136619959Y-87436500D01*
X136619943Y-87436499D01*
X136612225Y-87436499D01*
X136511775Y-87436499D01*
X136463261Y-87449498D01*
X136414745Y-87462498D01*
X136327756Y-87512721D01*
X136327750Y-87512726D01*
X136112896Y-87727581D01*
X135565753Y-88274724D01*
X135546860Y-88293617D01*
X135494725Y-88345751D01*
X135494721Y-88345756D01*
X135444500Y-88432741D01*
X135436206Y-88463696D01*
X135420788Y-88521238D01*
X135418500Y-88529776D01*
X135418500Y-98532340D01*
X135398498Y-98600461D01*
X135381595Y-98621435D01*
X135352454Y-98650575D01*
X135352446Y-98650585D01*
X135278816Y-98778117D01*
X135240700Y-98920368D01*
X135240700Y-99067631D01*
X135240699Y-99067631D01*
X134784500Y-99067631D01*
X134784500Y-76334631D01*
X135240699Y-76334631D01*
X135278816Y-76476882D01*
X135352446Y-76604414D01*
X135352448Y-76604417D01*
X135352449Y-76604418D01*
X135381595Y-76633564D01*
X135415620Y-76695874D01*
X135418500Y-76722659D01*
X135418500Y-84058223D01*
X135418499Y-84058223D01*
X135444498Y-84155251D01*
X135444501Y-84155258D01*
X135480136Y-84216979D01*
X135480138Y-84216982D01*
X135494723Y-84242245D01*
X135494727Y-84242251D01*
X136327746Y-85075270D01*
X136327751Y-85075274D01*
X136327753Y-85075276D01*
X136414747Y-85125502D01*
X136511775Y-85151501D01*
X136511777Y-85151501D01*
X136619943Y-85151501D01*
X136619959Y-85151500D01*
X140164340Y-85151500D01*
X140232461Y-85171502D01*
X140253435Y-85188405D01*
X140282575Y-85217545D01*
X140282580Y-85217549D01*
X140282582Y-85217551D01*
X140410118Y-85291184D01*
X140552367Y-85329300D01*
X140552369Y-85329300D01*
X140699631Y-85329300D01*
X140699633Y-85329300D01*
X140841882Y-85291184D01*
X140969418Y-85217551D01*
X141073551Y-85113418D01*
X141147184Y-84985882D01*
X141185300Y-84843633D01*
X141185300Y-84696367D01*
X141147184Y-84554118D01*
X141073551Y-84426582D01*
X141073549Y-84426580D01*
X141073545Y-84426575D01*
X140969424Y-84322454D01*
X140969414Y-84322446D01*
X140841882Y-84248816D01*
X140817359Y-84242245D01*
X140699633Y-84210700D01*
X140552367Y-84210700D01*
X140479761Y-84230155D01*
X140410117Y-84248816D01*
X140282585Y-84322446D01*
X140282575Y-84322454D01*
X140253435Y-84351595D01*
X140191123Y-84385621D01*
X140164340Y-84388500D01*
X136772213Y-84388500D01*
X136704092Y-84368498D01*
X136683118Y-84351595D01*
X136218405Y-83886882D01*
X136184379Y-83824570D01*
X136181500Y-83797787D01*
X136181500Y-76722659D01*
X136201502Y-76654538D01*
X136218401Y-76633567D01*
X136247551Y-76604418D01*
X136321184Y-76476882D01*
X136359300Y-76334633D01*
X136359300Y-76187367D01*
X136321184Y-76045118D01*
X136247551Y-75917582D01*
X136247549Y-75917580D01*
X136247545Y-75917575D01*
X136143424Y-75813454D01*
X136143414Y-75813446D01*
X136015882Y-75739816D01*
X135873633Y-75701700D01*
X135726367Y-75701700D01*
X135631534Y-75727110D01*
X135584117Y-75739816D01*
X135456585Y-75813446D01*
X135456575Y-75813454D01*
X135352454Y-75917575D01*
X135352446Y-75917585D01*
X135278816Y-76045117D01*
X135240700Y-76187368D01*
X135240700Y-76334631D01*
X135240699Y-76334631D01*
X134784500Y-76334631D01*
X134784500Y-71434500D01*
X134804502Y-71366379D01*
X134858158Y-71319886D01*
X134910500Y-71308500D01*
X136689500Y-71308500D01*
X136757621Y-71328502D01*
G37*
G04 #@! TD.AperFunction*
M02*
