G04 #@! TF.GenerationSoftware,KiCad,Pcbnew,9.0.9-9.0.9~ubuntu24.04.1*
G04 #@! TF.CreationDate,2026-08-31T17:21:49-06:00*
G04 #@! TF.ProjectId,ckt-axle-bar-array,636b742d-6178-46c6-952d-6261722d6172,rev?*
G04 #@! TF.SameCoordinates,Original*
G04 #@! TF.FileFunction,Paste,Top*
G04 #@! TF.FilePolarity,Positive*
%FSLAX46Y46*%
G04 Gerber Fmt 4.6, Leading zero omitted, Abs format (unit mm)*
G04 Created by KiCad (PCBNEW 9.0.9-9.0.9~ubuntu24.04.1) date 2026-08-31 17:21:49*
%MOMM*%
%LPD*%
G01*
G04 APERTURE LIST*
G04 APERTURE END LIST*
G36*
G01*
X145734000Y-64127000D02*
X145734000Y-65027000D01*
G75*
G02*
X145484000Y-65277000I-250000J0D01*
G01*
X144959000Y-65277000D01*
G75*
G02*
X144709000Y-65027000I0J250000D01*
G01*
X144709000Y-64127000D01*
G75*
G02*
X144959000Y-63877000I250000J0D01*
G01*
X145484000Y-63877000D01*
G75*
G02*
X145734000Y-64127000I0J-250000D01*
G01*
G37*
G36*
G01*
X143909000Y-64127000D02*
X143909000Y-65027000D01*
G75*
G02*
X143659000Y-65277000I-250000J0D01*
G01*
X143134000Y-65277000D01*
G75*
G02*
X142884000Y-65027000I0J250000D01*
G01*
X142884000Y-64127000D01*
G75*
G02*
X143134000Y-63877000I250000J0D01*
G01*
X143659000Y-63877000D01*
G75*
G02*
X143909000Y-64127000I0J-250000D01*
G01*
G37*
G36*
G01*
X160575000Y-136720000D02*
X161825000Y-136720000D01*
G75*
G02*
X162075000Y-136970000I0J-250000D01*
G01*
X162075000Y-137720000D01*
G75*
G02*
X161825000Y-137970000I-250000J0D01*
G01*
X160575000Y-137970000D01*
G75*
G02*
X160325000Y-137720000I0J250000D01*
G01*
X160325000Y-136970000D01*
G75*
G02*
X160575000Y-136720000I250000J0D01*
G01*
G37*
G36*
G01*
X160575000Y-139520000D02*
X161825000Y-139520000D01*
G75*
G02*
X162075000Y-139770000I0J-250000D01*
G01*
X162075000Y-140520000D01*
G75*
G02*
X161825000Y-140770000I-250000J0D01*
G01*
X160575000Y-140770000D01*
G75*
G02*
X160325000Y-140520000I0J250000D01*
G01*
X160325000Y-139770000D01*
G75*
G02*
X160575000Y-139520000I250000J0D01*
G01*
G37*
G36*
G01*
X145734000Y-107561000D02*
X145734000Y-108461000D01*
G75*
G02*
X145484000Y-108711000I-250000J0D01*
G01*
X144959000Y-108711000D01*
G75*
G02*
X144709000Y-108461000I0J250000D01*
G01*
X144709000Y-107561000D01*
G75*
G02*
X144959000Y-107311000I250000J0D01*
G01*
X145484000Y-107311000D01*
G75*
G02*
X145734000Y-107561000I0J-250000D01*
G01*
G37*
G36*
G01*
X143909000Y-107561000D02*
X143909000Y-108461000D01*
G75*
G02*
X143659000Y-108711000I-250000J0D01*
G01*
X143134000Y-108711000D01*
G75*
G02*
X142884000Y-108461000I0J250000D01*
G01*
X142884000Y-107561000D01*
G75*
G02*
X143134000Y-107311000I250000J0D01*
G01*
X143659000Y-107311000D01*
G75*
G02*
X143909000Y-107561000I0J-250000D01*
G01*
G37*
G36*
G01*
X161825000Y-166170000D02*
X160575000Y-166170000D01*
G75*
G02*
X160325000Y-165920000I0J250000D01*
G01*
X160325000Y-165170000D01*
G75*
G02*
X160575000Y-164920000I250000J0D01*
G01*
X161825000Y-164920000D01*
G75*
G02*
X162075000Y-165170000I0J-250000D01*
G01*
X162075000Y-165920000D01*
G75*
G02*
X161825000Y-166170000I-250000J0D01*
G01*
G37*
G36*
G01*
X161825000Y-163370000D02*
X160575000Y-163370000D01*
G75*
G02*
X160325000Y-163120000I0J250000D01*
G01*
X160325000Y-162370000D01*
G75*
G02*
X160575000Y-162120000I250000J0D01*
G01*
X161825000Y-162120000D01*
G75*
G02*
X162075000Y-162370000I0J-250000D01*
G01*
X162075000Y-163120000D01*
G75*
G02*
X161825000Y-163370000I-250000J0D01*
G01*
G37*
G36*
G01*
X155767000Y-65651000D02*
X155767000Y-66551000D01*
G75*
G02*
X155517000Y-66801000I-250000J0D01*
G01*
X154992000Y-66801000D01*
G75*
G02*
X154742000Y-66551000I0J250000D01*
G01*
X154742000Y-65651000D01*
G75*
G02*
X154992000Y-65401000I250000J0D01*
G01*
X155517000Y-65401000D01*
G75*
G02*
X155767000Y-65651000I0J-250000D01*
G01*
G37*
G36*
G01*
X153942000Y-65651000D02*
X153942000Y-66551000D01*
G75*
G02*
X153692000Y-66801000I-250000J0D01*
G01*
X153167000Y-66801000D01*
G75*
G02*
X152917000Y-66551000I0J250000D01*
G01*
X152917000Y-65651000D01*
G75*
G02*
X153167000Y-65401000I250000J0D01*
G01*
X153692000Y-65401000D01*
G75*
G02*
X153942000Y-65651000I0J-250000D01*
G01*
G37*
G36*
G01*
X135175000Y-71569000D02*
X136425000Y-71569000D01*
G75*
G02*
X136675000Y-71819000I0J-250000D01*
G01*
X136675000Y-72569000D01*
G75*
G02*
X136425000Y-72819000I-250000J0D01*
G01*
X135175000Y-72819000D01*
G75*
G02*
X134925000Y-72569000I0J250000D01*
G01*
X134925000Y-71819000D01*
G75*
G02*
X135175000Y-71569000I250000J0D01*
G01*
G37*
G36*
G01*
X135175000Y-74369000D02*
X136425000Y-74369000D01*
G75*
G02*
X136675000Y-74619000I0J-250000D01*
G01*
X136675000Y-75369000D01*
G75*
G02*
X136425000Y-75619000I-250000J0D01*
G01*
X135175000Y-75619000D01*
G75*
G02*
X134925000Y-75369000I0J250000D01*
G01*
X134925000Y-74619000D01*
G75*
G02*
X135175000Y-74369000I250000J0D01*
G01*
G37*
G36*
G01*
X136425000Y-101019000D02*
X135175000Y-101019000D01*
G75*
G02*
X134925000Y-100769000I0J250000D01*
G01*
X134925000Y-100019000D01*
G75*
G02*
X135175000Y-99769000I250000J0D01*
G01*
X136425000Y-99769000D01*
G75*
G02*
X136675000Y-100019000I0J-250000D01*
G01*
X136675000Y-100769000D01*
G75*
G02*
X136425000Y-101019000I-250000J0D01*
G01*
G37*
G36*
G01*
X136425000Y-98219000D02*
X135175000Y-98219000D01*
G75*
G02*
X134925000Y-97969000I0J250000D01*
G01*
X134925000Y-97219000D01*
G75*
G02*
X135175000Y-96969000I250000J0D01*
G01*
X136425000Y-96969000D01*
G75*
G02*
X136675000Y-97219000I0J-250000D01*
G01*
X136675000Y-97969000D01*
G75*
G02*
X136425000Y-98219000I-250000J0D01*
G01*
G37*
G36*
G01*
X155767000Y-109085000D02*
X155767000Y-109985000D01*
G75*
G02*
X155517000Y-110235000I-250000J0D01*
G01*
X154992000Y-110235000D01*
G75*
G02*
X154742000Y-109985000I0J250000D01*
G01*
X154742000Y-109085000D01*
G75*
G02*
X154992000Y-108835000I250000J0D01*
G01*
X155517000Y-108835000D01*
G75*
G02*
X155767000Y-109085000I0J-250000D01*
G01*
G37*
G36*
G01*
X153942000Y-109085000D02*
X153942000Y-109985000D01*
G75*
G02*
X153692000Y-110235000I-250000J0D01*
G01*
X153167000Y-110235000D01*
G75*
G02*
X152917000Y-109985000I0J250000D01*
G01*
X152917000Y-109085000D01*
G75*
G02*
X153167000Y-108835000I250000J0D01*
G01*
X153692000Y-108835000D01*
G75*
G02*
X153942000Y-109085000I0J-250000D01*
G01*
G37*
G36*
G01*
X141233000Y-85220000D02*
X141233000Y-84320000D01*
G75*
G02*
X141483000Y-84070000I250000J0D01*
G01*
X142008000Y-84070000D01*
G75*
G02*
X142258000Y-84320000I0J-250000D01*
G01*
X142258000Y-85220000D01*
G75*
G02*
X142008000Y-85470000I-250000J0D01*
G01*
X141483000Y-85470000D01*
G75*
G02*
X141233000Y-85220000I0J250000D01*
G01*
G37*
G36*
G01*
X143058000Y-85220000D02*
X143058000Y-84320000D01*
G75*
G02*
X143308000Y-84070000I250000J0D01*
G01*
X143833000Y-84070000D01*
G75*
G02*
X144083000Y-84320000I0J-250000D01*
G01*
X144083000Y-85220000D01*
G75*
G02*
X143833000Y-85470000I-250000J0D01*
G01*
X143308000Y-85470000D01*
G75*
G02*
X143058000Y-85220000I0J250000D01*
G01*
G37*
G36*
G01*
X139207000Y-106211000D02*
X140457000Y-106211000D01*
G75*
G02*
X140607000Y-106361000I0J-150000D01*
G01*
X140607000Y-106661000D01*
G75*
G02*
X140457000Y-106811000I-150000J0D01*
G01*
X139207000Y-106811000D01*
G75*
G02*
X139057000Y-106661000I0J150000D01*
G01*
X139057000Y-106361000D01*
G75*
G02*
X139207000Y-106211000I150000J0D01*
G01*
G37*
G36*
G01*
X139207000Y-107211000D02*
X140457000Y-107211000D01*
G75*
G02*
X140607000Y-107361000I0J-150000D01*
G01*
X140607000Y-107661000D01*
G75*
G02*
X140457000Y-107811000I-150000J0D01*
G01*
X139207000Y-107811000D01*
G75*
G02*
X139057000Y-107661000I0J150000D01*
G01*
X139057000Y-107361000D01*
G75*
G02*
X139207000Y-107211000I150000J0D01*
G01*
G37*
G36*
G01*
X139207000Y-108211000D02*
X140457000Y-108211000D01*
G75*
G02*
X140607000Y-108361000I0J-150000D01*
G01*
X140607000Y-108661000D01*
G75*
G02*
X140457000Y-108811000I-150000J0D01*
G01*
X139207000Y-108811000D01*
G75*
G02*
X139057000Y-108661000I0J150000D01*
G01*
X139057000Y-108361000D01*
G75*
G02*
X139207000Y-108211000I150000J0D01*
G01*
G37*
G36*
G01*
X139207000Y-109211000D02*
X140457000Y-109211000D01*
G75*
G02*
X140607000Y-109361000I0J-150000D01*
G01*
X140607000Y-109661000D01*
G75*
G02*
X140457000Y-109811000I-150000J0D01*
G01*
X139207000Y-109811000D01*
G75*
G02*
X139057000Y-109661000I0J150000D01*
G01*
X139057000Y-109361000D01*
G75*
G02*
X139207000Y-109211000I150000J0D01*
G01*
G37*
G36*
G01*
X135307000Y-104611000D02*
X136607000Y-104611000D01*
G75*
G02*
X136857000Y-104861000I0J-250000D01*
G01*
X136857000Y-105561000D01*
G75*
G02*
X136607000Y-105811000I-250000J0D01*
G01*
X135307000Y-105811000D01*
G75*
G02*
X135057000Y-105561000I0J250000D01*
G01*
X135057000Y-104861000D01*
G75*
G02*
X135307000Y-104611000I250000J0D01*
G01*
G37*
G36*
G01*
X135307000Y-110211000D02*
X136607000Y-110211000D01*
G75*
G02*
X136857000Y-110461000I0J-250000D01*
G01*
X136857000Y-111161000D01*
G75*
G02*
X136607000Y-111411000I-250000J0D01*
G01*
X135307000Y-111411000D01*
G75*
G02*
X135057000Y-111161000I0J250000D01*
G01*
X135057000Y-110461000D01*
G75*
G02*
X135307000Y-110211000I250000J0D01*
G01*
G37*
G36*
G01*
X136425000Y-144453000D02*
X135175000Y-144453000D01*
G75*
G02*
X134925000Y-144203000I0J250000D01*
G01*
X134925000Y-143453000D01*
G75*
G02*
X135175000Y-143203000I250000J0D01*
G01*
X136425000Y-143203000D01*
G75*
G02*
X136675000Y-143453000I0J-250000D01*
G01*
X136675000Y-144203000D01*
G75*
G02*
X136425000Y-144453000I-250000J0D01*
G01*
G37*
G36*
G01*
X136425000Y-141653000D02*
X135175000Y-141653000D01*
G75*
G02*
X134925000Y-141403000I0J250000D01*
G01*
X134925000Y-140653000D01*
G75*
G02*
X135175000Y-140403000I250000J0D01*
G01*
X136425000Y-140403000D01*
G75*
G02*
X136675000Y-140653000I0J-250000D01*
G01*
X136675000Y-141403000D01*
G75*
G02*
X136425000Y-141653000I-250000J0D01*
G01*
G37*
G36*
G01*
X157793000Y-88094000D02*
X156543000Y-88094000D01*
G75*
G02*
X156393000Y-87944000I0J150000D01*
G01*
X156393000Y-87644000D01*
G75*
G02*
X156543000Y-87494000I150000J0D01*
G01*
X157793000Y-87494000D01*
G75*
G02*
X157943000Y-87644000I0J-150000D01*
G01*
X157943000Y-87944000D01*
G75*
G02*
X157793000Y-88094000I-150000J0D01*
G01*
G37*
G36*
G01*
X157793000Y-87094000D02*
X156543000Y-87094000D01*
G75*
G02*
X156393000Y-86944000I0J150000D01*
G01*
X156393000Y-86644000D01*
G75*
G02*
X156543000Y-86494000I150000J0D01*
G01*
X157793000Y-86494000D01*
G75*
G02*
X157943000Y-86644000I0J-150000D01*
G01*
X157943000Y-86944000D01*
G75*
G02*
X157793000Y-87094000I-150000J0D01*
G01*
G37*
G36*
G01*
X157793000Y-86094000D02*
X156543000Y-86094000D01*
G75*
G02*
X156393000Y-85944000I0J150000D01*
G01*
X156393000Y-85644000D01*
G75*
G02*
X156543000Y-85494000I150000J0D01*
G01*
X157793000Y-85494000D01*
G75*
G02*
X157943000Y-85644000I0J-150000D01*
G01*
X157943000Y-85944000D01*
G75*
G02*
X157793000Y-86094000I-150000J0D01*
G01*
G37*
G36*
G01*
X157793000Y-85094000D02*
X156543000Y-85094000D01*
G75*
G02*
X156393000Y-84944000I0J150000D01*
G01*
X156393000Y-84644000D01*
G75*
G02*
X156543000Y-84494000I150000J0D01*
G01*
X157793000Y-84494000D01*
G75*
G02*
X157943000Y-84644000I0J-150000D01*
G01*
X157943000Y-84944000D01*
G75*
G02*
X157793000Y-85094000I-150000J0D01*
G01*
G37*
G36*
G01*
X161693000Y-89694000D02*
X160393000Y-89694000D01*
G75*
G02*
X160143000Y-89444000I0J250000D01*
G01*
X160143000Y-88744000D01*
G75*
G02*
X160393000Y-88494000I250000J0D01*
G01*
X161693000Y-88494000D01*
G75*
G02*
X161943000Y-88744000I0J-250000D01*
G01*
X161943000Y-89444000D01*
G75*
G02*
X161693000Y-89694000I-250000J0D01*
G01*
G37*
G36*
G01*
X161693000Y-84094000D02*
X160393000Y-84094000D01*
G75*
G02*
X160143000Y-83844000I0J250000D01*
G01*
X160143000Y-83144000D01*
G75*
G02*
X160393000Y-82894000I250000J0D01*
G01*
X161693000Y-82894000D01*
G75*
G02*
X161943000Y-83144000I0J-250000D01*
G01*
X161943000Y-83844000D01*
G75*
G02*
X161693000Y-84094000I-250000J0D01*
G01*
G37*
G36*
G01*
X148170000Y-107216000D02*
X148170000Y-106906000D01*
G75*
G02*
X148325000Y-106751000I155000J0D01*
G01*
X148715000Y-106751000D01*
G75*
G02*
X148870000Y-106906000I0J-155000D01*
G01*
X148870000Y-107216000D01*
G75*
G02*
X148715000Y-107371000I-155000J0D01*
G01*
X148325000Y-107371000D01*
G75*
G02*
X148170000Y-107216000I0J155000D01*
G01*
G37*
G36*
G01*
X148170000Y-108166000D02*
X148170000Y-107856000D01*
G75*
G02*
X148325000Y-107701000I155000J0D01*
G01*
X148715000Y-107701000D01*
G75*
G02*
X148870000Y-107856000I0J-155000D01*
G01*
X148870000Y-108166000D01*
G75*
G02*
X148715000Y-108321000I-155000J0D01*
G01*
X148325000Y-108321000D01*
G75*
G02*
X148170000Y-108166000I0J155000D01*
G01*
G37*
G36*
G01*
X148170000Y-109116000D02*
X148170000Y-108806000D01*
G75*
G02*
X148325000Y-108651000I155000J0D01*
G01*
X148715000Y-108651000D01*
G75*
G02*
X148870000Y-108806000I0J-155000D01*
G01*
X148870000Y-109116000D01*
G75*
G02*
X148715000Y-109271000I-155000J0D01*
G01*
X148325000Y-109271000D01*
G75*
G02*
X148170000Y-109116000I0J155000D01*
G01*
G37*
G36*
G01*
X150670000Y-109116000D02*
X150670000Y-108806000D01*
G75*
G02*
X150825000Y-108651000I155000J0D01*
G01*
X151215000Y-108651000D01*
G75*
G02*
X151370000Y-108806000I0J-155000D01*
G01*
X151370000Y-109116000D01*
G75*
G02*
X151215000Y-109271000I-155000J0D01*
G01*
X150825000Y-109271000D01*
G75*
G02*
X150670000Y-109116000I0J155000D01*
G01*
G37*
G36*
G01*
X150670000Y-108166000D02*
X150670000Y-107856000D01*
G75*
G02*
X150825000Y-107701000I155000J0D01*
G01*
X151215000Y-107701000D01*
G75*
G02*
X151370000Y-107856000I0J-155000D01*
G01*
X151370000Y-108166000D01*
G75*
G02*
X151215000Y-108321000I-155000J0D01*
G01*
X150825000Y-108321000D01*
G75*
G02*
X150670000Y-108166000I0J155000D01*
G01*
G37*
G36*
G01*
X150670000Y-107216000D02*
X150670000Y-106906000D01*
G75*
G02*
X150825000Y-106751000I155000J0D01*
G01*
X151215000Y-106751000D01*
G75*
G02*
X151370000Y-106906000I0J-155000D01*
G01*
X151370000Y-107216000D01*
G75*
G02*
X151215000Y-107371000I-155000J0D01*
G01*
X150825000Y-107371000D01*
G75*
G02*
X150670000Y-107216000I0J155000D01*
G01*
G37*
G36*
G01*
X141233000Y-128654000D02*
X141233000Y-127754000D01*
G75*
G02*
X141483000Y-127504000I250000J0D01*
G01*
X142008000Y-127504000D01*
G75*
G02*
X142258000Y-127754000I0J-250000D01*
G01*
X142258000Y-128654000D01*
G75*
G02*
X142008000Y-128904000I-250000J0D01*
G01*
X141483000Y-128904000D01*
G75*
G02*
X141233000Y-128654000I0J250000D01*
G01*
G37*
G36*
G01*
X143058000Y-128654000D02*
X143058000Y-127754000D01*
G75*
G02*
X143308000Y-127504000I250000J0D01*
G01*
X143833000Y-127504000D01*
G75*
G02*
X144083000Y-127754000I0J-250000D01*
G01*
X144083000Y-128654000D01*
G75*
G02*
X143833000Y-128904000I-250000J0D01*
G01*
X143308000Y-128904000D01*
G75*
G02*
X143058000Y-128654000I0J250000D01*
G01*
G37*
G36*
G01*
X136425000Y-57585000D02*
X135175000Y-57585000D01*
G75*
G02*
X134925000Y-57335000I0J250000D01*
G01*
X134925000Y-56585000D01*
G75*
G02*
X135175000Y-56335000I250000J0D01*
G01*
X136425000Y-56335000D01*
G75*
G02*
X136675000Y-56585000I0J-250000D01*
G01*
X136675000Y-57335000D01*
G75*
G02*
X136425000Y-57585000I-250000J0D01*
G01*
G37*
G36*
G01*
X136425000Y-54785000D02*
X135175000Y-54785000D01*
G75*
G02*
X134925000Y-54535000I0J250000D01*
G01*
X134925000Y-53785000D01*
G75*
G02*
X135175000Y-53535000I250000J0D01*
G01*
X136425000Y-53535000D01*
G75*
G02*
X136675000Y-53785000I0J-250000D01*
G01*
X136675000Y-54535000D01*
G75*
G02*
X136425000Y-54785000I-250000J0D01*
G01*
G37*
G36*
G01*
X157793000Y-44660000D02*
X156543000Y-44660000D01*
G75*
G02*
X156393000Y-44510000I0J150000D01*
G01*
X156393000Y-44210000D01*
G75*
G02*
X156543000Y-44060000I150000J0D01*
G01*
X157793000Y-44060000D01*
G75*
G02*
X157943000Y-44210000I0J-150000D01*
G01*
X157943000Y-44510000D01*
G75*
G02*
X157793000Y-44660000I-150000J0D01*
G01*
G37*
G36*
G01*
X157793000Y-43660000D02*
X156543000Y-43660000D01*
G75*
G02*
X156393000Y-43510000I0J150000D01*
G01*
X156393000Y-43210000D01*
G75*
G02*
X156543000Y-43060000I150000J0D01*
G01*
X157793000Y-43060000D01*
G75*
G02*
X157943000Y-43210000I0J-150000D01*
G01*
X157943000Y-43510000D01*
G75*
G02*
X157793000Y-43660000I-150000J0D01*
G01*
G37*
G36*
G01*
X157793000Y-42660000D02*
X156543000Y-42660000D01*
G75*
G02*
X156393000Y-42510000I0J150000D01*
G01*
X156393000Y-42210000D01*
G75*
G02*
X156543000Y-42060000I150000J0D01*
G01*
X157793000Y-42060000D01*
G75*
G02*
X157943000Y-42210000I0J-150000D01*
G01*
X157943000Y-42510000D01*
G75*
G02*
X157793000Y-42660000I-150000J0D01*
G01*
G37*
G36*
G01*
X157793000Y-41660000D02*
X156543000Y-41660000D01*
G75*
G02*
X156393000Y-41510000I0J150000D01*
G01*
X156393000Y-41210000D01*
G75*
G02*
X156543000Y-41060000I150000J0D01*
G01*
X157793000Y-41060000D01*
G75*
G02*
X157943000Y-41210000I0J-150000D01*
G01*
X157943000Y-41510000D01*
G75*
G02*
X157793000Y-41660000I-150000J0D01*
G01*
G37*
G36*
G01*
X161693000Y-46260000D02*
X160393000Y-46260000D01*
G75*
G02*
X160143000Y-46010000I0J250000D01*
G01*
X160143000Y-45310000D01*
G75*
G02*
X160393000Y-45060000I250000J0D01*
G01*
X161693000Y-45060000D01*
G75*
G02*
X161943000Y-45310000I0J-250000D01*
G01*
X161943000Y-46010000D01*
G75*
G02*
X161693000Y-46260000I-250000J0D01*
G01*
G37*
G36*
G01*
X161693000Y-40660000D02*
X160393000Y-40660000D01*
G75*
G02*
X160143000Y-40410000I0J250000D01*
G01*
X160143000Y-39710000D01*
G75*
G02*
X160393000Y-39460000I250000J0D01*
G01*
X161693000Y-39460000D01*
G75*
G02*
X161943000Y-39710000I0J-250000D01*
G01*
X161943000Y-40410000D01*
G75*
G02*
X161693000Y-40660000I-250000J0D01*
G01*
G37*
G36*
G01*
X135175000Y-115003000D02*
X136425000Y-115003000D01*
G75*
G02*
X136675000Y-115253000I0J-250000D01*
G01*
X136675000Y-116003000D01*
G75*
G02*
X136425000Y-116253000I-250000J0D01*
G01*
X135175000Y-116253000D01*
G75*
G02*
X134925000Y-116003000I0J250000D01*
G01*
X134925000Y-115253000D01*
G75*
G02*
X135175000Y-115003000I250000J0D01*
G01*
G37*
G36*
G01*
X135175000Y-117803000D02*
X136425000Y-117803000D01*
G75*
G02*
X136675000Y-118053000I0J-250000D01*
G01*
X136675000Y-118803000D01*
G75*
G02*
X136425000Y-119053000I-250000J0D01*
G01*
X135175000Y-119053000D01*
G75*
G02*
X134925000Y-118803000I0J250000D01*
G01*
X134925000Y-118053000D01*
G75*
G02*
X135175000Y-117803000I250000J0D01*
G01*
G37*
G36*
G01*
X160575000Y-93286000D02*
X161825000Y-93286000D01*
G75*
G02*
X162075000Y-93536000I0J-250000D01*
G01*
X162075000Y-94286000D01*
G75*
G02*
X161825000Y-94536000I-250000J0D01*
G01*
X160575000Y-94536000D01*
G75*
G02*
X160325000Y-94286000I0J250000D01*
G01*
X160325000Y-93536000D01*
G75*
G02*
X160575000Y-93286000I250000J0D01*
G01*
G37*
G36*
G01*
X160575000Y-96086000D02*
X161825000Y-96086000D01*
G75*
G02*
X162075000Y-96336000I0J-250000D01*
G01*
X162075000Y-97086000D01*
G75*
G02*
X161825000Y-97336000I-250000J0D01*
G01*
X160575000Y-97336000D01*
G75*
G02*
X160325000Y-97086000I0J250000D01*
G01*
X160325000Y-96336000D01*
G75*
G02*
X160575000Y-96086000I250000J0D01*
G01*
G37*
G36*
G01*
X145734000Y-150995000D02*
X145734000Y-151895000D01*
G75*
G02*
X145484000Y-152145000I-250000J0D01*
G01*
X144959000Y-152145000D01*
G75*
G02*
X144709000Y-151895000I0J250000D01*
G01*
X144709000Y-150995000D01*
G75*
G02*
X144959000Y-150745000I250000J0D01*
G01*
X145484000Y-150745000D01*
G75*
G02*
X145734000Y-150995000I0J-250000D01*
G01*
G37*
G36*
G01*
X143909000Y-150995000D02*
X143909000Y-151895000D01*
G75*
G02*
X143659000Y-152145000I-250000J0D01*
G01*
X143134000Y-152145000D01*
G75*
G02*
X142884000Y-151895000I0J250000D01*
G01*
X142884000Y-150995000D01*
G75*
G02*
X143134000Y-150745000I250000J0D01*
G01*
X143659000Y-150745000D01*
G75*
G02*
X143909000Y-150995000I0J-250000D01*
G01*
G37*
G36*
G01*
X151241000Y-89055000D02*
X151241000Y-88105000D01*
G75*
G02*
X151491000Y-87855000I250000J0D01*
G01*
X151991000Y-87855000D01*
G75*
G02*
X152241000Y-88105000I0J-250000D01*
G01*
X152241000Y-89055000D01*
G75*
G02*
X151991000Y-89305000I-250000J0D01*
G01*
X151491000Y-89305000D01*
G75*
G02*
X151241000Y-89055000I0J250000D01*
G01*
G37*
G36*
G01*
X153141000Y-89055000D02*
X153141000Y-88105000D01*
G75*
G02*
X153391000Y-87855000I250000J0D01*
G01*
X153891000Y-87855000D01*
G75*
G02*
X154141000Y-88105000I0J-250000D01*
G01*
X154141000Y-89055000D01*
G75*
G02*
X153891000Y-89305000I-250000J0D01*
G01*
X153391000Y-89305000D01*
G75*
G02*
X153141000Y-89055000I0J250000D01*
G01*
G37*
G36*
G01*
X151266000Y-43310000D02*
X151266000Y-42410000D01*
G75*
G02*
X151516000Y-42160000I250000J0D01*
G01*
X152041000Y-42160000D01*
G75*
G02*
X152291000Y-42410000I0J-250000D01*
G01*
X152291000Y-43310000D01*
G75*
G02*
X152041000Y-43560000I-250000J0D01*
G01*
X151516000Y-43560000D01*
G75*
G02*
X151266000Y-43310000I0J250000D01*
G01*
G37*
G36*
G01*
X153091000Y-43310000D02*
X153091000Y-42410000D01*
G75*
G02*
X153341000Y-42160000I250000J0D01*
G01*
X153866000Y-42160000D01*
G75*
G02*
X154116000Y-42410000I0J-250000D01*
G01*
X154116000Y-43310000D01*
G75*
G02*
X153866000Y-43560000I-250000J0D01*
G01*
X153341000Y-43560000D01*
G75*
G02*
X153091000Y-43310000I0J250000D01*
G01*
G37*
G36*
G01*
X157793000Y-131528000D02*
X156543000Y-131528000D01*
G75*
G02*
X156393000Y-131378000I0J150000D01*
G01*
X156393000Y-131078000D01*
G75*
G02*
X156543000Y-130928000I150000J0D01*
G01*
X157793000Y-130928000D01*
G75*
G02*
X157943000Y-131078000I0J-150000D01*
G01*
X157943000Y-131378000D01*
G75*
G02*
X157793000Y-131528000I-150000J0D01*
G01*
G37*
G36*
G01*
X157793000Y-130528000D02*
X156543000Y-130528000D01*
G75*
G02*
X156393000Y-130378000I0J150000D01*
G01*
X156393000Y-130078000D01*
G75*
G02*
X156543000Y-129928000I150000J0D01*
G01*
X157793000Y-129928000D01*
G75*
G02*
X157943000Y-130078000I0J-150000D01*
G01*
X157943000Y-130378000D01*
G75*
G02*
X157793000Y-130528000I-150000J0D01*
G01*
G37*
G36*
G01*
X157793000Y-129528000D02*
X156543000Y-129528000D01*
G75*
G02*
X156393000Y-129378000I0J150000D01*
G01*
X156393000Y-129078000D01*
G75*
G02*
X156543000Y-128928000I150000J0D01*
G01*
X157793000Y-128928000D01*
G75*
G02*
X157943000Y-129078000I0J-150000D01*
G01*
X157943000Y-129378000D01*
G75*
G02*
X157793000Y-129528000I-150000J0D01*
G01*
G37*
G36*
G01*
X157793000Y-128528000D02*
X156543000Y-128528000D01*
G75*
G02*
X156393000Y-128378000I0J150000D01*
G01*
X156393000Y-128078000D01*
G75*
G02*
X156543000Y-127928000I150000J0D01*
G01*
X157793000Y-127928000D01*
G75*
G02*
X157943000Y-128078000I0J-150000D01*
G01*
X157943000Y-128378000D01*
G75*
G02*
X157793000Y-128528000I-150000J0D01*
G01*
G37*
G36*
G01*
X161693000Y-133128000D02*
X160393000Y-133128000D01*
G75*
G02*
X160143000Y-132878000I0J250000D01*
G01*
X160143000Y-132178000D01*
G75*
G02*
X160393000Y-131928000I250000J0D01*
G01*
X161693000Y-131928000D01*
G75*
G02*
X161943000Y-132178000I0J-250000D01*
G01*
X161943000Y-132878000D01*
G75*
G02*
X161693000Y-133128000I-250000J0D01*
G01*
G37*
G36*
G01*
X161693000Y-127528000D02*
X160393000Y-127528000D01*
G75*
G02*
X160143000Y-127278000I0J250000D01*
G01*
X160143000Y-126578000D01*
G75*
G02*
X160393000Y-126328000I250000J0D01*
G01*
X161693000Y-126328000D01*
G75*
G02*
X161943000Y-126578000I0J-250000D01*
G01*
X161943000Y-127278000D01*
G75*
G02*
X161693000Y-127528000I-250000J0D01*
G01*
G37*
G36*
G01*
X148830000Y-130523000D02*
X148830000Y-130833000D01*
G75*
G02*
X148675000Y-130988000I-155000J0D01*
G01*
X148285000Y-130988000D01*
G75*
G02*
X148130000Y-130833000I0J155000D01*
G01*
X148130000Y-130523000D01*
G75*
G02*
X148285000Y-130368000I155000J0D01*
G01*
X148675000Y-130368000D01*
G75*
G02*
X148830000Y-130523000I0J-155000D01*
G01*
G37*
G36*
G01*
X148830000Y-129573000D02*
X148830000Y-129883000D01*
G75*
G02*
X148675000Y-130038000I-155000J0D01*
G01*
X148285000Y-130038000D01*
G75*
G02*
X148130000Y-129883000I0J155000D01*
G01*
X148130000Y-129573000D01*
G75*
G02*
X148285000Y-129418000I155000J0D01*
G01*
X148675000Y-129418000D01*
G75*
G02*
X148830000Y-129573000I0J-155000D01*
G01*
G37*
G36*
G01*
X148830000Y-128623000D02*
X148830000Y-128933000D01*
G75*
G02*
X148675000Y-129088000I-155000J0D01*
G01*
X148285000Y-129088000D01*
G75*
G02*
X148130000Y-128933000I0J155000D01*
G01*
X148130000Y-128623000D01*
G75*
G02*
X148285000Y-128468000I155000J0D01*
G01*
X148675000Y-128468000D01*
G75*
G02*
X148830000Y-128623000I0J-155000D01*
G01*
G37*
G36*
G01*
X146330000Y-128623000D02*
X146330000Y-128933000D01*
G75*
G02*
X146175000Y-129088000I-155000J0D01*
G01*
X145785000Y-129088000D01*
G75*
G02*
X145630000Y-128933000I0J155000D01*
G01*
X145630000Y-128623000D01*
G75*
G02*
X145785000Y-128468000I155000J0D01*
G01*
X146175000Y-128468000D01*
G75*
G02*
X146330000Y-128623000I0J-155000D01*
G01*
G37*
G36*
G01*
X146330000Y-129573000D02*
X146330000Y-129883000D01*
G75*
G02*
X146175000Y-130038000I-155000J0D01*
G01*
X145785000Y-130038000D01*
G75*
G02*
X145630000Y-129883000I0J155000D01*
G01*
X145630000Y-129573000D01*
G75*
G02*
X145785000Y-129418000I155000J0D01*
G01*
X146175000Y-129418000D01*
G75*
G02*
X146330000Y-129573000I0J-155000D01*
G01*
G37*
G36*
G01*
X146330000Y-130523000D02*
X146330000Y-130833000D01*
G75*
G02*
X146175000Y-130988000I-155000J0D01*
G01*
X145785000Y-130988000D01*
G75*
G02*
X145630000Y-130833000I0J155000D01*
G01*
X145630000Y-130523000D01*
G75*
G02*
X145785000Y-130368000I155000J0D01*
G01*
X146175000Y-130368000D01*
G75*
G02*
X146330000Y-130523000I0J-155000D01*
G01*
G37*
G36*
G01*
X151266000Y-86744000D02*
X151266000Y-85844000D01*
G75*
G02*
X151516000Y-85594000I250000J0D01*
G01*
X152041000Y-85594000D01*
G75*
G02*
X152291000Y-85844000I0J-250000D01*
G01*
X152291000Y-86744000D01*
G75*
G02*
X152041000Y-86994000I-250000J0D01*
G01*
X151516000Y-86994000D01*
G75*
G02*
X151266000Y-86744000I0J250000D01*
G01*
G37*
G36*
G01*
X153091000Y-86744000D02*
X153091000Y-85844000D01*
G75*
G02*
X153341000Y-85594000I250000J0D01*
G01*
X153866000Y-85594000D01*
G75*
G02*
X154116000Y-85844000I0J-250000D01*
G01*
X154116000Y-86744000D01*
G75*
G02*
X153866000Y-86994000I-250000J0D01*
G01*
X153341000Y-86994000D01*
G75*
G02*
X153091000Y-86744000I0J250000D01*
G01*
G37*
G36*
G01*
X152917000Y-106937000D02*
X152917000Y-106037000D01*
G75*
G02*
X153167000Y-105787000I250000J0D01*
G01*
X153692000Y-105787000D01*
G75*
G02*
X153942000Y-106037000I0J-250000D01*
G01*
X153942000Y-106937000D01*
G75*
G02*
X153692000Y-107187000I-250000J0D01*
G01*
X153167000Y-107187000D01*
G75*
G02*
X152917000Y-106937000I0J250000D01*
G01*
G37*
G36*
G01*
X154742000Y-106937000D02*
X154742000Y-106037000D01*
G75*
G02*
X154992000Y-105787000I250000J0D01*
G01*
X155517000Y-105787000D01*
G75*
G02*
X155767000Y-106037000I0J-250000D01*
G01*
X155767000Y-106937000D01*
G75*
G02*
X155517000Y-107187000I-250000J0D01*
G01*
X154992000Y-107187000D01*
G75*
G02*
X154742000Y-106937000I0J250000D01*
G01*
G37*
G36*
G01*
X155767000Y-152519000D02*
X155767000Y-153419000D01*
G75*
G02*
X155517000Y-153669000I-250000J0D01*
G01*
X154992000Y-153669000D01*
G75*
G02*
X154742000Y-153419000I0J250000D01*
G01*
X154742000Y-152519000D01*
G75*
G02*
X154992000Y-152269000I250000J0D01*
G01*
X155517000Y-152269000D01*
G75*
G02*
X155767000Y-152519000I0J-250000D01*
G01*
G37*
G36*
G01*
X153942000Y-152519000D02*
X153942000Y-153419000D01*
G75*
G02*
X153692000Y-153669000I-250000J0D01*
G01*
X153167000Y-153669000D01*
G75*
G02*
X152917000Y-153419000I0J250000D01*
G01*
X152917000Y-152519000D01*
G75*
G02*
X153167000Y-152269000I250000J0D01*
G01*
X153692000Y-152269000D01*
G75*
G02*
X153942000Y-152519000I0J-250000D01*
G01*
G37*
G36*
G01*
X144083000Y-130802000D02*
X144083000Y-131702000D01*
G75*
G02*
X143833000Y-131952000I-250000J0D01*
G01*
X143308000Y-131952000D01*
G75*
G02*
X143058000Y-131702000I0J250000D01*
G01*
X143058000Y-130802000D01*
G75*
G02*
X143308000Y-130552000I250000J0D01*
G01*
X143833000Y-130552000D01*
G75*
G02*
X144083000Y-130802000I0J-250000D01*
G01*
G37*
G36*
G01*
X142258000Y-130802000D02*
X142258000Y-131702000D01*
G75*
G02*
X142008000Y-131952000I-250000J0D01*
G01*
X141483000Y-131952000D01*
G75*
G02*
X141233000Y-131702000I0J250000D01*
G01*
X141233000Y-130802000D01*
G75*
G02*
X141483000Y-130552000I250000J0D01*
G01*
X142008000Y-130552000D01*
G75*
G02*
X142258000Y-130802000I0J-250000D01*
G01*
G37*
G36*
G01*
X152917000Y-63503000D02*
X152917000Y-62603000D01*
G75*
G02*
X153167000Y-62353000I250000J0D01*
G01*
X153692000Y-62353000D01*
G75*
G02*
X153942000Y-62603000I0J-250000D01*
G01*
X153942000Y-63503000D01*
G75*
G02*
X153692000Y-63753000I-250000J0D01*
G01*
X153167000Y-63753000D01*
G75*
G02*
X152917000Y-63503000I0J250000D01*
G01*
G37*
G36*
G01*
X154742000Y-63503000D02*
X154742000Y-62603000D01*
G75*
G02*
X154992000Y-62353000I250000J0D01*
G01*
X155517000Y-62353000D01*
G75*
G02*
X155767000Y-62603000I0J-250000D01*
G01*
X155767000Y-63503000D01*
G75*
G02*
X155517000Y-63753000I-250000J0D01*
G01*
X154992000Y-63753000D01*
G75*
G02*
X154742000Y-63503000I0J250000D01*
G01*
G37*
G36*
G01*
X148830000Y-43655000D02*
X148830000Y-43965000D01*
G75*
G02*
X148675000Y-44120000I-155000J0D01*
G01*
X148285000Y-44120000D01*
G75*
G02*
X148130000Y-43965000I0J155000D01*
G01*
X148130000Y-43655000D01*
G75*
G02*
X148285000Y-43500000I155000J0D01*
G01*
X148675000Y-43500000D01*
G75*
G02*
X148830000Y-43655000I0J-155000D01*
G01*
G37*
G36*
G01*
X148830000Y-42705000D02*
X148830000Y-43015000D01*
G75*
G02*
X148675000Y-43170000I-155000J0D01*
G01*
X148285000Y-43170000D01*
G75*
G02*
X148130000Y-43015000I0J155000D01*
G01*
X148130000Y-42705000D01*
G75*
G02*
X148285000Y-42550000I155000J0D01*
G01*
X148675000Y-42550000D01*
G75*
G02*
X148830000Y-42705000I0J-155000D01*
G01*
G37*
G36*
G01*
X148830000Y-41755000D02*
X148830000Y-42065000D01*
G75*
G02*
X148675000Y-42220000I-155000J0D01*
G01*
X148285000Y-42220000D01*
G75*
G02*
X148130000Y-42065000I0J155000D01*
G01*
X148130000Y-41755000D01*
G75*
G02*
X148285000Y-41600000I155000J0D01*
G01*
X148675000Y-41600000D01*
G75*
G02*
X148830000Y-41755000I0J-155000D01*
G01*
G37*
G36*
G01*
X146330000Y-41755000D02*
X146330000Y-42065000D01*
G75*
G02*
X146175000Y-42220000I-155000J0D01*
G01*
X145785000Y-42220000D01*
G75*
G02*
X145630000Y-42065000I0J155000D01*
G01*
X145630000Y-41755000D01*
G75*
G02*
X145785000Y-41600000I155000J0D01*
G01*
X146175000Y-41600000D01*
G75*
G02*
X146330000Y-41755000I0J-155000D01*
G01*
G37*
G36*
G01*
X146330000Y-42705000D02*
X146330000Y-43015000D01*
G75*
G02*
X146175000Y-43170000I-155000J0D01*
G01*
X145785000Y-43170000D01*
G75*
G02*
X145630000Y-43015000I0J155000D01*
G01*
X145630000Y-42705000D01*
G75*
G02*
X145785000Y-42550000I155000J0D01*
G01*
X146175000Y-42550000D01*
G75*
G02*
X146330000Y-42705000I0J-155000D01*
G01*
G37*
G36*
G01*
X146330000Y-43655000D02*
X146330000Y-43965000D01*
G75*
G02*
X146175000Y-44120000I-155000J0D01*
G01*
X145785000Y-44120000D01*
G75*
G02*
X145630000Y-43965000I0J155000D01*
G01*
X145630000Y-43655000D01*
G75*
G02*
X145785000Y-43500000I155000J0D01*
G01*
X146175000Y-43500000D01*
G75*
G02*
X146330000Y-43655000I0J-155000D01*
G01*
G37*
G36*
G01*
X154116000Y-40124000D02*
X154116000Y-41024000D01*
G75*
G02*
X153866000Y-41274000I-250000J0D01*
G01*
X153341000Y-41274000D01*
G75*
G02*
X153091000Y-41024000I0J250000D01*
G01*
X153091000Y-40124000D01*
G75*
G02*
X153341000Y-39874000I250000J0D01*
G01*
X153866000Y-39874000D01*
G75*
G02*
X154116000Y-40124000I0J-250000D01*
G01*
G37*
G36*
G01*
X152291000Y-40124000D02*
X152291000Y-41024000D01*
G75*
G02*
X152041000Y-41274000I-250000J0D01*
G01*
X151516000Y-41274000D01*
G75*
G02*
X151266000Y-41024000I0J250000D01*
G01*
X151266000Y-40124000D01*
G75*
G02*
X151516000Y-39874000I250000J0D01*
G01*
X152041000Y-39874000D01*
G75*
G02*
X152291000Y-40124000I0J-250000D01*
G01*
G37*
G36*
G01*
X151241000Y-132489000D02*
X151241000Y-131539000D01*
G75*
G02*
X151491000Y-131289000I250000J0D01*
G01*
X151991000Y-131289000D01*
G75*
G02*
X152241000Y-131539000I0J-250000D01*
G01*
X152241000Y-132489000D01*
G75*
G02*
X151991000Y-132739000I-250000J0D01*
G01*
X151491000Y-132739000D01*
G75*
G02*
X151241000Y-132489000I0J250000D01*
G01*
G37*
G36*
G01*
X153141000Y-132489000D02*
X153141000Y-131539000D01*
G75*
G02*
X153391000Y-131289000I250000J0D01*
G01*
X153891000Y-131289000D01*
G75*
G02*
X154141000Y-131539000I0J-250000D01*
G01*
X154141000Y-132489000D01*
G75*
G02*
X153891000Y-132739000I-250000J0D01*
G01*
X153391000Y-132739000D01*
G75*
G02*
X153141000Y-132489000I0J250000D01*
G01*
G37*
G36*
G01*
X145759000Y-105250000D02*
X145759000Y-106200000D01*
G75*
G02*
X145509000Y-106450000I-250000J0D01*
G01*
X145009000Y-106450000D01*
G75*
G02*
X144759000Y-106200000I0J250000D01*
G01*
X144759000Y-105250000D01*
G75*
G02*
X145009000Y-105000000I250000J0D01*
G01*
X145509000Y-105000000D01*
G75*
G02*
X145759000Y-105250000I0J-250000D01*
G01*
G37*
G36*
G01*
X143859000Y-105250000D02*
X143859000Y-106200000D01*
G75*
G02*
X143609000Y-106450000I-250000J0D01*
G01*
X143109000Y-106450000D01*
G75*
G02*
X142859000Y-106200000I0J250000D01*
G01*
X142859000Y-105250000D01*
G75*
G02*
X143109000Y-105000000I250000J0D01*
G01*
X143609000Y-105000000D01*
G75*
G02*
X143859000Y-105250000I0J-250000D01*
G01*
G37*
G36*
G01*
X145759000Y-148684000D02*
X145759000Y-149634000D01*
G75*
G02*
X145509000Y-149884000I-250000J0D01*
G01*
X145009000Y-149884000D01*
G75*
G02*
X144759000Y-149634000I0J250000D01*
G01*
X144759000Y-148684000D01*
G75*
G02*
X145009000Y-148434000I250000J0D01*
G01*
X145509000Y-148434000D01*
G75*
G02*
X145759000Y-148684000I0J-250000D01*
G01*
G37*
G36*
G01*
X143859000Y-148684000D02*
X143859000Y-149634000D01*
G75*
G02*
X143609000Y-149884000I-250000J0D01*
G01*
X143109000Y-149884000D01*
G75*
G02*
X142859000Y-149634000I0J250000D01*
G01*
X142859000Y-148684000D01*
G75*
G02*
X143109000Y-148434000I250000J0D01*
G01*
X143609000Y-148434000D01*
G75*
G02*
X143859000Y-148684000I0J-250000D01*
G01*
G37*
G36*
G01*
X151241000Y-45621000D02*
X151241000Y-44671000D01*
G75*
G02*
X151491000Y-44421000I250000J0D01*
G01*
X151991000Y-44421000D01*
G75*
G02*
X152241000Y-44671000I0J-250000D01*
G01*
X152241000Y-45621000D01*
G75*
G02*
X151991000Y-45871000I-250000J0D01*
G01*
X151491000Y-45871000D01*
G75*
G02*
X151241000Y-45621000I0J250000D01*
G01*
G37*
G36*
G01*
X153141000Y-45621000D02*
X153141000Y-44671000D01*
G75*
G02*
X153391000Y-44421000I250000J0D01*
G01*
X153891000Y-44421000D01*
G75*
G02*
X154141000Y-44671000I0J-250000D01*
G01*
X154141000Y-45621000D01*
G75*
G02*
X153891000Y-45871000I-250000J0D01*
G01*
X153391000Y-45871000D01*
G75*
G02*
X153141000Y-45621000I0J250000D01*
G01*
G37*
G36*
G01*
X135175000Y-28135000D02*
X136425000Y-28135000D01*
G75*
G02*
X136675000Y-28385000I0J-250000D01*
G01*
X136675000Y-29135000D01*
G75*
G02*
X136425000Y-29385000I-250000J0D01*
G01*
X135175000Y-29385000D01*
G75*
G02*
X134925000Y-29135000I0J250000D01*
G01*
X134925000Y-28385000D01*
G75*
G02*
X135175000Y-28135000I250000J0D01*
G01*
G37*
G36*
G01*
X135175000Y-30935000D02*
X136425000Y-30935000D01*
G75*
G02*
X136675000Y-31185000I0J-250000D01*
G01*
X136675000Y-31935000D01*
G75*
G02*
X136425000Y-32185000I-250000J0D01*
G01*
X135175000Y-32185000D01*
G75*
G02*
X134925000Y-31935000I0J250000D01*
G01*
X134925000Y-31185000D01*
G75*
G02*
X135175000Y-30935000I250000J0D01*
G01*
G37*
G36*
G01*
X144083000Y-87368000D02*
X144083000Y-88268000D01*
G75*
G02*
X143833000Y-88518000I-250000J0D01*
G01*
X143308000Y-88518000D01*
G75*
G02*
X143058000Y-88268000I0J250000D01*
G01*
X143058000Y-87368000D01*
G75*
G02*
X143308000Y-87118000I250000J0D01*
G01*
X143833000Y-87118000D01*
G75*
G02*
X144083000Y-87368000I0J-250000D01*
G01*
G37*
G36*
G01*
X142258000Y-87368000D02*
X142258000Y-88268000D01*
G75*
G02*
X142008000Y-88518000I-250000J0D01*
G01*
X141483000Y-88518000D01*
G75*
G02*
X141233000Y-88268000I0J250000D01*
G01*
X141233000Y-87368000D01*
G75*
G02*
X141483000Y-87118000I250000J0D01*
G01*
X142008000Y-87118000D01*
G75*
G02*
X142258000Y-87368000I0J-250000D01*
G01*
G37*
G36*
G01*
X139207000Y-62777000D02*
X140457000Y-62777000D01*
G75*
G02*
X140607000Y-62927000I0J-150000D01*
G01*
X140607000Y-63227000D01*
G75*
G02*
X140457000Y-63377000I-150000J0D01*
G01*
X139207000Y-63377000D01*
G75*
G02*
X139057000Y-63227000I0J150000D01*
G01*
X139057000Y-62927000D01*
G75*
G02*
X139207000Y-62777000I150000J0D01*
G01*
G37*
G36*
G01*
X139207000Y-63777000D02*
X140457000Y-63777000D01*
G75*
G02*
X140607000Y-63927000I0J-150000D01*
G01*
X140607000Y-64227000D01*
G75*
G02*
X140457000Y-64377000I-150000J0D01*
G01*
X139207000Y-64377000D01*
G75*
G02*
X139057000Y-64227000I0J150000D01*
G01*
X139057000Y-63927000D01*
G75*
G02*
X139207000Y-63777000I150000J0D01*
G01*
G37*
G36*
G01*
X139207000Y-64777000D02*
X140457000Y-64777000D01*
G75*
G02*
X140607000Y-64927000I0J-150000D01*
G01*
X140607000Y-65227000D01*
G75*
G02*
X140457000Y-65377000I-150000J0D01*
G01*
X139207000Y-65377000D01*
G75*
G02*
X139057000Y-65227000I0J150000D01*
G01*
X139057000Y-64927000D01*
G75*
G02*
X139207000Y-64777000I150000J0D01*
G01*
G37*
G36*
G01*
X139207000Y-65777000D02*
X140457000Y-65777000D01*
G75*
G02*
X140607000Y-65927000I0J-150000D01*
G01*
X140607000Y-66227000D01*
G75*
G02*
X140457000Y-66377000I-150000J0D01*
G01*
X139207000Y-66377000D01*
G75*
G02*
X139057000Y-66227000I0J150000D01*
G01*
X139057000Y-65927000D01*
G75*
G02*
X139207000Y-65777000I150000J0D01*
G01*
G37*
G36*
G01*
X135307000Y-61177000D02*
X136607000Y-61177000D01*
G75*
G02*
X136857000Y-61427000I0J-250000D01*
G01*
X136857000Y-62127000D01*
G75*
G02*
X136607000Y-62377000I-250000J0D01*
G01*
X135307000Y-62377000D01*
G75*
G02*
X135057000Y-62127000I0J250000D01*
G01*
X135057000Y-61427000D01*
G75*
G02*
X135307000Y-61177000I250000J0D01*
G01*
G37*
G36*
G01*
X135307000Y-66777000D02*
X136607000Y-66777000D01*
G75*
G02*
X136857000Y-67027000I0J-250000D01*
G01*
X136857000Y-67727000D01*
G75*
G02*
X136607000Y-67977000I-250000J0D01*
G01*
X135307000Y-67977000D01*
G75*
G02*
X135057000Y-67727000I0J250000D01*
G01*
X135057000Y-67027000D01*
G75*
G02*
X135307000Y-66777000I250000J0D01*
G01*
G37*
G36*
G01*
X142884000Y-110747000D02*
X142884000Y-109847000D01*
G75*
G02*
X143134000Y-109597000I250000J0D01*
G01*
X143659000Y-109597000D01*
G75*
G02*
X143909000Y-109847000I0J-250000D01*
G01*
X143909000Y-110747000D01*
G75*
G02*
X143659000Y-110997000I-250000J0D01*
G01*
X143134000Y-110997000D01*
G75*
G02*
X142884000Y-110747000I0J250000D01*
G01*
G37*
G36*
G01*
X144709000Y-110747000D02*
X144709000Y-109847000D01*
G75*
G02*
X144959000Y-109597000I250000J0D01*
G01*
X145484000Y-109597000D01*
G75*
G02*
X145734000Y-109847000I0J-250000D01*
G01*
X145734000Y-110747000D01*
G75*
G02*
X145484000Y-110997000I-250000J0D01*
G01*
X144959000Y-110997000D01*
G75*
G02*
X144709000Y-110747000I0J250000D01*
G01*
G37*
G36*
G01*
X148170000Y-150650000D02*
X148170000Y-150340000D01*
G75*
G02*
X148325000Y-150185000I155000J0D01*
G01*
X148715000Y-150185000D01*
G75*
G02*
X148870000Y-150340000I0J-155000D01*
G01*
X148870000Y-150650000D01*
G75*
G02*
X148715000Y-150805000I-155000J0D01*
G01*
X148325000Y-150805000D01*
G75*
G02*
X148170000Y-150650000I0J155000D01*
G01*
G37*
G36*
G01*
X148170000Y-151600000D02*
X148170000Y-151290000D01*
G75*
G02*
X148325000Y-151135000I155000J0D01*
G01*
X148715000Y-151135000D01*
G75*
G02*
X148870000Y-151290000I0J-155000D01*
G01*
X148870000Y-151600000D01*
G75*
G02*
X148715000Y-151755000I-155000J0D01*
G01*
X148325000Y-151755000D01*
G75*
G02*
X148170000Y-151600000I0J155000D01*
G01*
G37*
G36*
G01*
X148170000Y-152550000D02*
X148170000Y-152240000D01*
G75*
G02*
X148325000Y-152085000I155000J0D01*
G01*
X148715000Y-152085000D01*
G75*
G02*
X148870000Y-152240000I0J-155000D01*
G01*
X148870000Y-152550000D01*
G75*
G02*
X148715000Y-152705000I-155000J0D01*
G01*
X148325000Y-152705000D01*
G75*
G02*
X148170000Y-152550000I0J155000D01*
G01*
G37*
G36*
G01*
X150670000Y-152550000D02*
X150670000Y-152240000D01*
G75*
G02*
X150825000Y-152085000I155000J0D01*
G01*
X151215000Y-152085000D01*
G75*
G02*
X151370000Y-152240000I0J-155000D01*
G01*
X151370000Y-152550000D01*
G75*
G02*
X151215000Y-152705000I-155000J0D01*
G01*
X150825000Y-152705000D01*
G75*
G02*
X150670000Y-152550000I0J155000D01*
G01*
G37*
G36*
G01*
X150670000Y-151600000D02*
X150670000Y-151290000D01*
G75*
G02*
X150825000Y-151135000I155000J0D01*
G01*
X151215000Y-151135000D01*
G75*
G02*
X151370000Y-151290000I0J-155000D01*
G01*
X151370000Y-151600000D01*
G75*
G02*
X151215000Y-151755000I-155000J0D01*
G01*
X150825000Y-151755000D01*
G75*
G02*
X150670000Y-151600000I0J155000D01*
G01*
G37*
G36*
G01*
X150670000Y-150650000D02*
X150670000Y-150340000D01*
G75*
G02*
X150825000Y-150185000I155000J0D01*
G01*
X151215000Y-150185000D01*
G75*
G02*
X151370000Y-150340000I0J-155000D01*
G01*
X151370000Y-150650000D01*
G75*
G02*
X151215000Y-150805000I-155000J0D01*
G01*
X150825000Y-150805000D01*
G75*
G02*
X150670000Y-150650000I0J155000D01*
G01*
G37*
G36*
G01*
X144083000Y-43934000D02*
X144083000Y-44834000D01*
G75*
G02*
X143833000Y-45084000I-250000J0D01*
G01*
X143308000Y-45084000D01*
G75*
G02*
X143058000Y-44834000I0J250000D01*
G01*
X143058000Y-43934000D01*
G75*
G02*
X143308000Y-43684000I250000J0D01*
G01*
X143833000Y-43684000D01*
G75*
G02*
X144083000Y-43934000I0J-250000D01*
G01*
G37*
G36*
G01*
X142258000Y-43934000D02*
X142258000Y-44834000D01*
G75*
G02*
X142008000Y-45084000I-250000J0D01*
G01*
X141483000Y-45084000D01*
G75*
G02*
X141233000Y-44834000I0J250000D01*
G01*
X141233000Y-43934000D01*
G75*
G02*
X141483000Y-43684000I250000J0D01*
G01*
X142008000Y-43684000D01*
G75*
G02*
X142258000Y-43934000I0J-250000D01*
G01*
G37*
G36*
G01*
X151266000Y-130178000D02*
X151266000Y-129278000D01*
G75*
G02*
X151516000Y-129028000I250000J0D01*
G01*
X152041000Y-129028000D01*
G75*
G02*
X152291000Y-129278000I0J-250000D01*
G01*
X152291000Y-130178000D01*
G75*
G02*
X152041000Y-130428000I-250000J0D01*
G01*
X151516000Y-130428000D01*
G75*
G02*
X151266000Y-130178000I0J250000D01*
G01*
G37*
G36*
G01*
X153091000Y-130178000D02*
X153091000Y-129278000D01*
G75*
G02*
X153341000Y-129028000I250000J0D01*
G01*
X153866000Y-129028000D01*
G75*
G02*
X154116000Y-129278000I0J-250000D01*
G01*
X154116000Y-130178000D01*
G75*
G02*
X153866000Y-130428000I-250000J0D01*
G01*
X153341000Y-130428000D01*
G75*
G02*
X153091000Y-130178000I0J250000D01*
G01*
G37*
G36*
G01*
X145759000Y-61816000D02*
X145759000Y-62766000D01*
G75*
G02*
X145509000Y-63016000I-250000J0D01*
G01*
X145009000Y-63016000D01*
G75*
G02*
X144759000Y-62766000I0J250000D01*
G01*
X144759000Y-61816000D01*
G75*
G02*
X145009000Y-61566000I250000J0D01*
G01*
X145509000Y-61566000D01*
G75*
G02*
X145759000Y-61816000I0J-250000D01*
G01*
G37*
G36*
G01*
X143859000Y-61816000D02*
X143859000Y-62766000D01*
G75*
G02*
X143609000Y-63016000I-250000J0D01*
G01*
X143109000Y-63016000D01*
G75*
G02*
X142859000Y-62766000I0J250000D01*
G01*
X142859000Y-61816000D01*
G75*
G02*
X143109000Y-61566000I250000J0D01*
G01*
X143609000Y-61566000D01*
G75*
G02*
X143859000Y-61816000I0J-250000D01*
G01*
G37*
G36*
G01*
X154116000Y-126992000D02*
X154116000Y-127892000D01*
G75*
G02*
X153866000Y-128142000I-250000J0D01*
G01*
X153341000Y-128142000D01*
G75*
G02*
X153091000Y-127892000I0J250000D01*
G01*
X153091000Y-126992000D01*
G75*
G02*
X153341000Y-126742000I250000J0D01*
G01*
X153866000Y-126742000D01*
G75*
G02*
X154116000Y-126992000I0J-250000D01*
G01*
G37*
G36*
G01*
X152291000Y-126992000D02*
X152291000Y-127892000D01*
G75*
G02*
X152041000Y-128142000I-250000J0D01*
G01*
X151516000Y-128142000D01*
G75*
G02*
X151266000Y-127892000I0J250000D01*
G01*
X151266000Y-126992000D01*
G75*
G02*
X151516000Y-126742000I250000J0D01*
G01*
X152041000Y-126742000D01*
G75*
G02*
X152291000Y-126992000I0J-250000D01*
G01*
G37*
G36*
G01*
X148830000Y-87089000D02*
X148830000Y-87399000D01*
G75*
G02*
X148675000Y-87554000I-155000J0D01*
G01*
X148285000Y-87554000D01*
G75*
G02*
X148130000Y-87399000I0J155000D01*
G01*
X148130000Y-87089000D01*
G75*
G02*
X148285000Y-86934000I155000J0D01*
G01*
X148675000Y-86934000D01*
G75*
G02*
X148830000Y-87089000I0J-155000D01*
G01*
G37*
G36*
G01*
X148830000Y-86139000D02*
X148830000Y-86449000D01*
G75*
G02*
X148675000Y-86604000I-155000J0D01*
G01*
X148285000Y-86604000D01*
G75*
G02*
X148130000Y-86449000I0J155000D01*
G01*
X148130000Y-86139000D01*
G75*
G02*
X148285000Y-85984000I155000J0D01*
G01*
X148675000Y-85984000D01*
G75*
G02*
X148830000Y-86139000I0J-155000D01*
G01*
G37*
G36*
G01*
X148830000Y-85189000D02*
X148830000Y-85499000D01*
G75*
G02*
X148675000Y-85654000I-155000J0D01*
G01*
X148285000Y-85654000D01*
G75*
G02*
X148130000Y-85499000I0J155000D01*
G01*
X148130000Y-85189000D01*
G75*
G02*
X148285000Y-85034000I155000J0D01*
G01*
X148675000Y-85034000D01*
G75*
G02*
X148830000Y-85189000I0J-155000D01*
G01*
G37*
G36*
G01*
X146330000Y-85189000D02*
X146330000Y-85499000D01*
G75*
G02*
X146175000Y-85654000I-155000J0D01*
G01*
X145785000Y-85654000D01*
G75*
G02*
X145630000Y-85499000I0J155000D01*
G01*
X145630000Y-85189000D01*
G75*
G02*
X145785000Y-85034000I155000J0D01*
G01*
X146175000Y-85034000D01*
G75*
G02*
X146330000Y-85189000I0J-155000D01*
G01*
G37*
G36*
G01*
X146330000Y-86139000D02*
X146330000Y-86449000D01*
G75*
G02*
X146175000Y-86604000I-155000J0D01*
G01*
X145785000Y-86604000D01*
G75*
G02*
X145630000Y-86449000I0J155000D01*
G01*
X145630000Y-86139000D01*
G75*
G02*
X145785000Y-85984000I155000J0D01*
G01*
X146175000Y-85984000D01*
G75*
G02*
X146330000Y-86139000I0J-155000D01*
G01*
G37*
G36*
G01*
X146330000Y-87089000D02*
X146330000Y-87399000D01*
G75*
G02*
X146175000Y-87554000I-155000J0D01*
G01*
X145785000Y-87554000D01*
G75*
G02*
X145630000Y-87399000I0J155000D01*
G01*
X145630000Y-87089000D01*
G75*
G02*
X145785000Y-86934000I155000J0D01*
G01*
X146175000Y-86934000D01*
G75*
G02*
X146330000Y-87089000I0J-155000D01*
G01*
G37*
G36*
G01*
X148170000Y-63782000D02*
X148170000Y-63472000D01*
G75*
G02*
X148325000Y-63317000I155000J0D01*
G01*
X148715000Y-63317000D01*
G75*
G02*
X148870000Y-63472000I0J-155000D01*
G01*
X148870000Y-63782000D01*
G75*
G02*
X148715000Y-63937000I-155000J0D01*
G01*
X148325000Y-63937000D01*
G75*
G02*
X148170000Y-63782000I0J155000D01*
G01*
G37*
G36*
G01*
X148170000Y-64732000D02*
X148170000Y-64422000D01*
G75*
G02*
X148325000Y-64267000I155000J0D01*
G01*
X148715000Y-64267000D01*
G75*
G02*
X148870000Y-64422000I0J-155000D01*
G01*
X148870000Y-64732000D01*
G75*
G02*
X148715000Y-64887000I-155000J0D01*
G01*
X148325000Y-64887000D01*
G75*
G02*
X148170000Y-64732000I0J155000D01*
G01*
G37*
G36*
G01*
X148170000Y-65682000D02*
X148170000Y-65372000D01*
G75*
G02*
X148325000Y-65217000I155000J0D01*
G01*
X148715000Y-65217000D01*
G75*
G02*
X148870000Y-65372000I0J-155000D01*
G01*
X148870000Y-65682000D01*
G75*
G02*
X148715000Y-65837000I-155000J0D01*
G01*
X148325000Y-65837000D01*
G75*
G02*
X148170000Y-65682000I0J155000D01*
G01*
G37*
G36*
G01*
X150670000Y-65682000D02*
X150670000Y-65372000D01*
G75*
G02*
X150825000Y-65217000I155000J0D01*
G01*
X151215000Y-65217000D01*
G75*
G02*
X151370000Y-65372000I0J-155000D01*
G01*
X151370000Y-65682000D01*
G75*
G02*
X151215000Y-65837000I-155000J0D01*
G01*
X150825000Y-65837000D01*
G75*
G02*
X150670000Y-65682000I0J155000D01*
G01*
G37*
G36*
G01*
X150670000Y-64732000D02*
X150670000Y-64422000D01*
G75*
G02*
X150825000Y-64267000I155000J0D01*
G01*
X151215000Y-64267000D01*
G75*
G02*
X151370000Y-64422000I0J-155000D01*
G01*
X151370000Y-64732000D01*
G75*
G02*
X151215000Y-64887000I-155000J0D01*
G01*
X150825000Y-64887000D01*
G75*
G02*
X150670000Y-64732000I0J155000D01*
G01*
G37*
G36*
G01*
X150670000Y-63782000D02*
X150670000Y-63472000D01*
G75*
G02*
X150825000Y-63317000I155000J0D01*
G01*
X151215000Y-63317000D01*
G75*
G02*
X151370000Y-63472000I0J-155000D01*
G01*
X151370000Y-63782000D01*
G75*
G02*
X151215000Y-63937000I-155000J0D01*
G01*
X150825000Y-63937000D01*
G75*
G02*
X150670000Y-63782000I0J155000D01*
G01*
G37*
G36*
G01*
X142884000Y-67313000D02*
X142884000Y-66413000D01*
G75*
G02*
X143134000Y-66163000I250000J0D01*
G01*
X143659000Y-66163000D01*
G75*
G02*
X143909000Y-66413000I0J-250000D01*
G01*
X143909000Y-67313000D01*
G75*
G02*
X143659000Y-67563000I-250000J0D01*
G01*
X143134000Y-67563000D01*
G75*
G02*
X142884000Y-67313000I0J250000D01*
G01*
G37*
G36*
G01*
X144709000Y-67313000D02*
X144709000Y-66413000D01*
G75*
G02*
X144959000Y-66163000I250000J0D01*
G01*
X145484000Y-66163000D01*
G75*
G02*
X145734000Y-66413000I0J-250000D01*
G01*
X145734000Y-67313000D01*
G75*
G02*
X145484000Y-67563000I-250000J0D01*
G01*
X144959000Y-67563000D01*
G75*
G02*
X144709000Y-67313000I0J250000D01*
G01*
G37*
G36*
G01*
X161825000Y-79302000D02*
X160575000Y-79302000D01*
G75*
G02*
X160325000Y-79052000I0J250000D01*
G01*
X160325000Y-78302000D01*
G75*
G02*
X160575000Y-78052000I250000J0D01*
G01*
X161825000Y-78052000D01*
G75*
G02*
X162075000Y-78302000I0J-250000D01*
G01*
X162075000Y-79052000D01*
G75*
G02*
X161825000Y-79302000I-250000J0D01*
G01*
G37*
G36*
G01*
X161825000Y-76502000D02*
X160575000Y-76502000D01*
G75*
G02*
X160325000Y-76252000I0J250000D01*
G01*
X160325000Y-75502000D01*
G75*
G02*
X160575000Y-75252000I250000J0D01*
G01*
X161825000Y-75252000D01*
G75*
G02*
X162075000Y-75502000I0J-250000D01*
G01*
X162075000Y-76252000D01*
G75*
G02*
X161825000Y-76502000I-250000J0D01*
G01*
G37*
G36*
G01*
X142884000Y-154181000D02*
X142884000Y-153281000D01*
G75*
G02*
X143134000Y-153031000I250000J0D01*
G01*
X143659000Y-153031000D01*
G75*
G02*
X143909000Y-153281000I0J-250000D01*
G01*
X143909000Y-154181000D01*
G75*
G02*
X143659000Y-154431000I-250000J0D01*
G01*
X143134000Y-154431000D01*
G75*
G02*
X142884000Y-154181000I0J250000D01*
G01*
G37*
G36*
G01*
X144709000Y-154181000D02*
X144709000Y-153281000D01*
G75*
G02*
X144959000Y-153031000I250000J0D01*
G01*
X145484000Y-153031000D01*
G75*
G02*
X145734000Y-153281000I0J-250000D01*
G01*
X145734000Y-154181000D01*
G75*
G02*
X145484000Y-154431000I-250000J0D01*
G01*
X144959000Y-154431000D01*
G75*
G02*
X144709000Y-154181000I0J250000D01*
G01*
G37*
G36*
G01*
X154116000Y-83558000D02*
X154116000Y-84458000D01*
G75*
G02*
X153866000Y-84708000I-250000J0D01*
G01*
X153341000Y-84708000D01*
G75*
G02*
X153091000Y-84458000I0J250000D01*
G01*
X153091000Y-83558000D01*
G75*
G02*
X153341000Y-83308000I250000J0D01*
G01*
X153866000Y-83308000D01*
G75*
G02*
X154116000Y-83558000I0J-250000D01*
G01*
G37*
G36*
G01*
X152291000Y-83558000D02*
X152291000Y-84458000D01*
G75*
G02*
X152041000Y-84708000I-250000J0D01*
G01*
X151516000Y-84708000D01*
G75*
G02*
X151266000Y-84458000I0J250000D01*
G01*
X151266000Y-83558000D01*
G75*
G02*
X151516000Y-83308000I250000J0D01*
G01*
X152041000Y-83308000D01*
G75*
G02*
X152291000Y-83558000I0J-250000D01*
G01*
G37*
G36*
G01*
X161825000Y-122736000D02*
X160575000Y-122736000D01*
G75*
G02*
X160325000Y-122486000I0J250000D01*
G01*
X160325000Y-121736000D01*
G75*
G02*
X160575000Y-121486000I250000J0D01*
G01*
X161825000Y-121486000D01*
G75*
G02*
X162075000Y-121736000I0J-250000D01*
G01*
X162075000Y-122486000D01*
G75*
G02*
X161825000Y-122736000I-250000J0D01*
G01*
G37*
G36*
G01*
X161825000Y-119936000D02*
X160575000Y-119936000D01*
G75*
G02*
X160325000Y-119686000I0J250000D01*
G01*
X160325000Y-118936000D01*
G75*
G02*
X160575000Y-118686000I250000J0D01*
G01*
X161825000Y-118686000D01*
G75*
G02*
X162075000Y-118936000I0J-250000D01*
G01*
X162075000Y-119686000D01*
G75*
G02*
X161825000Y-119936000I-250000J0D01*
G01*
G37*
G36*
G01*
X152917000Y-150371000D02*
X152917000Y-149471000D01*
G75*
G02*
X153167000Y-149221000I250000J0D01*
G01*
X153692000Y-149221000D01*
G75*
G02*
X153942000Y-149471000I0J-250000D01*
G01*
X153942000Y-150371000D01*
G75*
G02*
X153692000Y-150621000I-250000J0D01*
G01*
X153167000Y-150621000D01*
G75*
G02*
X152917000Y-150371000I0J250000D01*
G01*
G37*
G36*
G01*
X154742000Y-150371000D02*
X154742000Y-149471000D01*
G75*
G02*
X154992000Y-149221000I250000J0D01*
G01*
X155517000Y-149221000D01*
G75*
G02*
X155767000Y-149471000I0J-250000D01*
G01*
X155767000Y-150371000D01*
G75*
G02*
X155517000Y-150621000I-250000J0D01*
G01*
X154992000Y-150621000D01*
G75*
G02*
X154742000Y-150371000I0J250000D01*
G01*
G37*
G36*
G01*
X141233000Y-41786000D02*
X141233000Y-40886000D01*
G75*
G02*
X141483000Y-40636000I250000J0D01*
G01*
X142008000Y-40636000D01*
G75*
G02*
X142258000Y-40886000I0J-250000D01*
G01*
X142258000Y-41786000D01*
G75*
G02*
X142008000Y-42036000I-250000J0D01*
G01*
X141483000Y-42036000D01*
G75*
G02*
X141233000Y-41786000I0J250000D01*
G01*
G37*
G36*
G01*
X143058000Y-41786000D02*
X143058000Y-40886000D01*
G75*
G02*
X143308000Y-40636000I250000J0D01*
G01*
X143833000Y-40636000D01*
G75*
G02*
X144083000Y-40886000I0J-250000D01*
G01*
X144083000Y-41786000D01*
G75*
G02*
X143833000Y-42036000I-250000J0D01*
G01*
X143308000Y-42036000D01*
G75*
G02*
X143058000Y-41786000I0J250000D01*
G01*
G37*
G36*
G01*
X139207000Y-149645000D02*
X140457000Y-149645000D01*
G75*
G02*
X140607000Y-149795000I0J-150000D01*
G01*
X140607000Y-150095000D01*
G75*
G02*
X140457000Y-150245000I-150000J0D01*
G01*
X139207000Y-150245000D01*
G75*
G02*
X139057000Y-150095000I0J150000D01*
G01*
X139057000Y-149795000D01*
G75*
G02*
X139207000Y-149645000I150000J0D01*
G01*
G37*
G36*
G01*
X139207000Y-150645000D02*
X140457000Y-150645000D01*
G75*
G02*
X140607000Y-150795000I0J-150000D01*
G01*
X140607000Y-151095000D01*
G75*
G02*
X140457000Y-151245000I-150000J0D01*
G01*
X139207000Y-151245000D01*
G75*
G02*
X139057000Y-151095000I0J150000D01*
G01*
X139057000Y-150795000D01*
G75*
G02*
X139207000Y-150645000I150000J0D01*
G01*
G37*
G36*
G01*
X139207000Y-151645000D02*
X140457000Y-151645000D01*
G75*
G02*
X140607000Y-151795000I0J-150000D01*
G01*
X140607000Y-152095000D01*
G75*
G02*
X140457000Y-152245000I-150000J0D01*
G01*
X139207000Y-152245000D01*
G75*
G02*
X139057000Y-152095000I0J150000D01*
G01*
X139057000Y-151795000D01*
G75*
G02*
X139207000Y-151645000I150000J0D01*
G01*
G37*
G36*
G01*
X139207000Y-152645000D02*
X140457000Y-152645000D01*
G75*
G02*
X140607000Y-152795000I0J-150000D01*
G01*
X140607000Y-153095000D01*
G75*
G02*
X140457000Y-153245000I-150000J0D01*
G01*
X139207000Y-153245000D01*
G75*
G02*
X139057000Y-153095000I0J150000D01*
G01*
X139057000Y-152795000D01*
G75*
G02*
X139207000Y-152645000I150000J0D01*
G01*
G37*
G36*
G01*
X135307000Y-148045000D02*
X136607000Y-148045000D01*
G75*
G02*
X136857000Y-148295000I0J-250000D01*
G01*
X136857000Y-148995000D01*
G75*
G02*
X136607000Y-149245000I-250000J0D01*
G01*
X135307000Y-149245000D01*
G75*
G02*
X135057000Y-148995000I0J250000D01*
G01*
X135057000Y-148295000D01*
G75*
G02*
X135307000Y-148045000I250000J0D01*
G01*
G37*
G36*
G01*
X135307000Y-153645000D02*
X136607000Y-153645000D01*
G75*
G02*
X136857000Y-153895000I0J-250000D01*
G01*
X136857000Y-154595000D01*
G75*
G02*
X136607000Y-154845000I-250000J0D01*
G01*
X135307000Y-154845000D01*
G75*
G02*
X135057000Y-154595000I0J250000D01*
G01*
X135057000Y-153895000D01*
G75*
G02*
X135307000Y-153645000I250000J0D01*
G01*
G37*
G36*
G01*
X160575000Y-49852000D02*
X161825000Y-49852000D01*
G75*
G02*
X162075000Y-50102000I0J-250000D01*
G01*
X162075000Y-50852000D01*
G75*
G02*
X161825000Y-51102000I-250000J0D01*
G01*
X160575000Y-51102000D01*
G75*
G02*
X160325000Y-50852000I0J250000D01*
G01*
X160325000Y-50102000D01*
G75*
G02*
X160575000Y-49852000I250000J0D01*
G01*
G37*
G36*
G01*
X160575000Y-52652000D02*
X161825000Y-52652000D01*
G75*
G02*
X162075000Y-52902000I0J-250000D01*
G01*
X162075000Y-53652000D01*
G75*
G02*
X161825000Y-53902000I-250000J0D01*
G01*
X160575000Y-53902000D01*
G75*
G02*
X160325000Y-53652000I0J250000D01*
G01*
X160325000Y-52902000D01*
G75*
G02*
X160575000Y-52652000I250000J0D01*
G01*
G37*
M02*
