G04 #@! TF.GenerationSoftware,KiCad,Pcbnew,9.0.9-9.0.9~ubuntu24.04.1*
G04 #@! TF.CreationDate,2026-08-31T17:21:49-06:00*
G04 #@! TF.ProjectId,ckt-axle-bar-array,636b742d-6178-46c6-952d-6261722d6172,rev?*
G04 #@! TF.SameCoordinates,Original*
G04 #@! TF.FileFunction,Legend,Bot*
G04 #@! TF.FilePolarity,Positive*
%FSLAX46Y46*%
G04 Gerber Fmt 4.6, Leading zero omitted, Abs format (unit mm)*
G04 Created by KiCad (PCBNEW 9.0.9-9.0.9~ubuntu24.04.1) date 2026-08-31 17:21:49*
%MOMM*%
%LPD*%
G01*
G04 APERTURE LIST*
%ADD10C,0.152400*%
G04 APERTURE END LIST*
D10*
X152140665Y-64124483D02*
X152189046Y-64172864D01*
X152189046Y-64172864D02*
X152334189Y-64221244D01*
X152334189Y-64221244D02*
X152430951Y-64221244D01*
X152430951Y-64221244D02*
X152576094Y-64172864D01*
X152576094Y-64172864D02*
X152672856Y-64076102D01*
X152672856Y-64076102D02*
X152721237Y-63979340D01*
X152721237Y-63979340D02*
X152769618Y-63785816D01*
X152769618Y-63785816D02*
X152769618Y-63640673D01*
X152769618Y-63640673D02*
X152721237Y-63447149D01*
X152721237Y-63447149D02*
X152672856Y-63350387D01*
X152672856Y-63350387D02*
X152576094Y-63253625D01*
X152576094Y-63253625D02*
X152430951Y-63205244D01*
X152430951Y-63205244D02*
X152334189Y-63205244D01*
X152334189Y-63205244D02*
X152189046Y-63253625D01*
X152189046Y-63253625D02*
X152140665Y-63302006D01*
X151705237Y-64221244D02*
X151705237Y-63205244D01*
X151124665Y-64221244D02*
X151560094Y-63640673D01*
X151124665Y-63205244D02*
X151705237Y-63785816D01*
X150834380Y-63205244D02*
X150253808Y-63205244D01*
X150544094Y-64221244D02*
X150544094Y-63205244D01*
X149915142Y-63834197D02*
X149141047Y-63834197D01*
X148705618Y-63930959D02*
X148221808Y-63930959D01*
X148802380Y-64221244D02*
X148463713Y-63205244D01*
X148463713Y-63205244D02*
X148125046Y-64221244D01*
X147883142Y-63205244D02*
X147205808Y-64221244D01*
X147205808Y-63205244D02*
X147883142Y-64221244D01*
X146334951Y-64221244D02*
X146818761Y-64221244D01*
X146818761Y-64221244D02*
X146818761Y-63205244D01*
X145996285Y-63689054D02*
X145657618Y-63689054D01*
X145512475Y-64221244D02*
X145996285Y-64221244D01*
X145996285Y-64221244D02*
X145996285Y-63205244D01*
X145996285Y-63205244D02*
X145512475Y-63205244D01*
X145077047Y-63834197D02*
X144302952Y-63834197D01*
X143480475Y-63689054D02*
X143335332Y-63737435D01*
X143335332Y-63737435D02*
X143286951Y-63785816D01*
X143286951Y-63785816D02*
X143238570Y-63882578D01*
X143238570Y-63882578D02*
X143238570Y-64027721D01*
X143238570Y-64027721D02*
X143286951Y-64124483D01*
X143286951Y-64124483D02*
X143335332Y-64172864D01*
X143335332Y-64172864D02*
X143432094Y-64221244D01*
X143432094Y-64221244D02*
X143819142Y-64221244D01*
X143819142Y-64221244D02*
X143819142Y-63205244D01*
X143819142Y-63205244D02*
X143480475Y-63205244D01*
X143480475Y-63205244D02*
X143383713Y-63253625D01*
X143383713Y-63253625D02*
X143335332Y-63302006D01*
X143335332Y-63302006D02*
X143286951Y-63398768D01*
X143286951Y-63398768D02*
X143286951Y-63495530D01*
X143286951Y-63495530D02*
X143335332Y-63592292D01*
X143335332Y-63592292D02*
X143383713Y-63640673D01*
X143383713Y-63640673D02*
X143480475Y-63689054D01*
X143480475Y-63689054D02*
X143819142Y-63689054D01*
X142851523Y-63930959D02*
X142367713Y-63930959D01*
X142948285Y-64221244D02*
X142609618Y-63205244D01*
X142609618Y-63205244D02*
X142270951Y-64221244D01*
X141351713Y-64221244D02*
X141690380Y-63737435D01*
X141932285Y-64221244D02*
X141932285Y-63205244D01*
X141932285Y-63205244D02*
X141545237Y-63205244D01*
X141545237Y-63205244D02*
X141448475Y-63253625D01*
X141448475Y-63253625D02*
X141400094Y-63302006D01*
X141400094Y-63302006D02*
X141351713Y-63398768D01*
X141351713Y-63398768D02*
X141351713Y-63543911D01*
X141351713Y-63543911D02*
X141400094Y-63640673D01*
X141400094Y-63640673D02*
X141448475Y-63689054D01*
X141448475Y-63689054D02*
X141545237Y-63737435D01*
X141545237Y-63737435D02*
X141932285Y-63737435D01*
X139464857Y-63543911D02*
X139222952Y-64221244D01*
X139222952Y-64221244D02*
X138981047Y-63543911D01*
X138061809Y-64221244D02*
X138642381Y-64221244D01*
X138352095Y-64221244D02*
X138352095Y-63205244D01*
X138352095Y-63205244D02*
X138448857Y-63350387D01*
X138448857Y-63350387D02*
X138545619Y-63447149D01*
X138545619Y-63447149D02*
X138642381Y-63495530D01*
X137626381Y-64124483D02*
X137578000Y-64172864D01*
X137578000Y-64172864D02*
X137626381Y-64221244D01*
X137626381Y-64221244D02*
X137674762Y-64172864D01*
X137674762Y-64172864D02*
X137626381Y-64124483D01*
X137626381Y-64124483D02*
X137626381Y-64221244D01*
X136949047Y-63205244D02*
X136852285Y-63205244D01*
X136852285Y-63205244D02*
X136755523Y-63253625D01*
X136755523Y-63253625D02*
X136707142Y-63302006D01*
X136707142Y-63302006D02*
X136658761Y-63398768D01*
X136658761Y-63398768D02*
X136610380Y-63592292D01*
X136610380Y-63592292D02*
X136610380Y-63834197D01*
X136610380Y-63834197D02*
X136658761Y-64027721D01*
X136658761Y-64027721D02*
X136707142Y-64124483D01*
X136707142Y-64124483D02*
X136755523Y-64172864D01*
X136755523Y-64172864D02*
X136852285Y-64221244D01*
X136852285Y-64221244D02*
X136949047Y-64221244D01*
X136949047Y-64221244D02*
X137045809Y-64172864D01*
X137045809Y-64172864D02*
X137094190Y-64124483D01*
X137094190Y-64124483D02*
X137142571Y-64027721D01*
X137142571Y-64027721D02*
X137190952Y-63834197D01*
X137190952Y-63834197D02*
X137190952Y-63592292D01*
X137190952Y-63592292D02*
X137142571Y-63398768D01*
X137142571Y-63398768D02*
X137094190Y-63302006D01*
X137094190Y-63302006D02*
X137045809Y-63253625D01*
X137045809Y-63253625D02*
X136949047Y-63205244D01*
X151100475Y-65082852D02*
X151197236Y-65034471D01*
X151197236Y-65034471D02*
X151390760Y-65034471D01*
X151390760Y-65034471D02*
X151487522Y-65082852D01*
X151487522Y-65082852D02*
X151584284Y-65179614D01*
X151584284Y-65179614D02*
X151632665Y-65276376D01*
X151632665Y-65276376D02*
X151632665Y-65469900D01*
X151632665Y-65469900D02*
X151584284Y-65566662D01*
X151584284Y-65566662D02*
X151487522Y-65663424D01*
X151487522Y-65663424D02*
X151390760Y-65711805D01*
X151390760Y-65711805D02*
X151197236Y-65711805D01*
X151197236Y-65711805D02*
X151100475Y-65663424D01*
X151293998Y-64695805D02*
X151535903Y-64744186D01*
X151535903Y-64744186D02*
X151777808Y-64889328D01*
X151777808Y-64889328D02*
X151922951Y-65131233D01*
X151922951Y-65131233D02*
X151971332Y-65373138D01*
X151971332Y-65373138D02*
X151922951Y-65615043D01*
X151922951Y-65615043D02*
X151777808Y-65856947D01*
X151777808Y-65856947D02*
X151535903Y-66002090D01*
X151535903Y-66002090D02*
X151293998Y-66050471D01*
X151293998Y-66050471D02*
X151052094Y-66002090D01*
X151052094Y-66002090D02*
X150810189Y-65856947D01*
X150810189Y-65856947D02*
X150665046Y-65615043D01*
X150665046Y-65615043D02*
X150616665Y-65373138D01*
X150616665Y-65373138D02*
X150665046Y-65131233D01*
X150665046Y-65131233D02*
X150810189Y-64889328D01*
X150810189Y-64889328D02*
X151052094Y-64744186D01*
X151052094Y-64744186D02*
X151293998Y-64695805D01*
X150229618Y-64937709D02*
X150181237Y-64889328D01*
X150181237Y-64889328D02*
X150084475Y-64840947D01*
X150084475Y-64840947D02*
X149842570Y-64840947D01*
X149842570Y-64840947D02*
X149745808Y-64889328D01*
X149745808Y-64889328D02*
X149697427Y-64937709D01*
X149697427Y-64937709D02*
X149649046Y-65034471D01*
X149649046Y-65034471D02*
X149649046Y-65131233D01*
X149649046Y-65131233D02*
X149697427Y-65276376D01*
X149697427Y-65276376D02*
X150277999Y-65856947D01*
X150277999Y-65856947D02*
X149649046Y-65856947D01*
X149020094Y-64840947D02*
X148923332Y-64840947D01*
X148923332Y-64840947D02*
X148826570Y-64889328D01*
X148826570Y-64889328D02*
X148778189Y-64937709D01*
X148778189Y-64937709D02*
X148729808Y-65034471D01*
X148729808Y-65034471D02*
X148681427Y-65227995D01*
X148681427Y-65227995D02*
X148681427Y-65469900D01*
X148681427Y-65469900D02*
X148729808Y-65663424D01*
X148729808Y-65663424D02*
X148778189Y-65760186D01*
X148778189Y-65760186D02*
X148826570Y-65808567D01*
X148826570Y-65808567D02*
X148923332Y-65856947D01*
X148923332Y-65856947D02*
X149020094Y-65856947D01*
X149020094Y-65856947D02*
X149116856Y-65808567D01*
X149116856Y-65808567D02*
X149165237Y-65760186D01*
X149165237Y-65760186D02*
X149213618Y-65663424D01*
X149213618Y-65663424D02*
X149261999Y-65469900D01*
X149261999Y-65469900D02*
X149261999Y-65227995D01*
X149261999Y-65227995D02*
X149213618Y-65034471D01*
X149213618Y-65034471D02*
X149165237Y-64937709D01*
X149165237Y-64937709D02*
X149116856Y-64889328D01*
X149116856Y-64889328D02*
X149020094Y-64840947D01*
X148294380Y-64937709D02*
X148245999Y-64889328D01*
X148245999Y-64889328D02*
X148149237Y-64840947D01*
X148149237Y-64840947D02*
X147907332Y-64840947D01*
X147907332Y-64840947D02*
X147810570Y-64889328D01*
X147810570Y-64889328D02*
X147762189Y-64937709D01*
X147762189Y-64937709D02*
X147713808Y-65034471D01*
X147713808Y-65034471D02*
X147713808Y-65131233D01*
X147713808Y-65131233D02*
X147762189Y-65276376D01*
X147762189Y-65276376D02*
X148342761Y-65856947D01*
X148342761Y-65856947D02*
X147713808Y-65856947D01*
X146794570Y-64840947D02*
X147278380Y-64840947D01*
X147278380Y-64840947D02*
X147326761Y-65324757D01*
X147326761Y-65324757D02*
X147278380Y-65276376D01*
X147278380Y-65276376D02*
X147181618Y-65227995D01*
X147181618Y-65227995D02*
X146939713Y-65227995D01*
X146939713Y-65227995D02*
X146842951Y-65276376D01*
X146842951Y-65276376D02*
X146794570Y-65324757D01*
X146794570Y-65324757D02*
X146746189Y-65421519D01*
X146746189Y-65421519D02*
X146746189Y-65663424D01*
X146746189Y-65663424D02*
X146794570Y-65760186D01*
X146794570Y-65760186D02*
X146842951Y-65808567D01*
X146842951Y-65808567D02*
X146939713Y-65856947D01*
X146939713Y-65856947D02*
X147181618Y-65856947D01*
X147181618Y-65856947D02*
X147278380Y-65808567D01*
X147278380Y-65808567D02*
X147326761Y-65760186D01*
X144181999Y-65760186D02*
X144230380Y-65808567D01*
X144230380Y-65808567D02*
X144375523Y-65856947D01*
X144375523Y-65856947D02*
X144472285Y-65856947D01*
X144472285Y-65856947D02*
X144617428Y-65808567D01*
X144617428Y-65808567D02*
X144714190Y-65711805D01*
X144714190Y-65711805D02*
X144762571Y-65615043D01*
X144762571Y-65615043D02*
X144810952Y-65421519D01*
X144810952Y-65421519D02*
X144810952Y-65276376D01*
X144810952Y-65276376D02*
X144762571Y-65082852D01*
X144762571Y-65082852D02*
X144714190Y-64986090D01*
X144714190Y-64986090D02*
X144617428Y-64889328D01*
X144617428Y-64889328D02*
X144472285Y-64840947D01*
X144472285Y-64840947D02*
X144375523Y-64840947D01*
X144375523Y-64840947D02*
X144230380Y-64889328D01*
X144230380Y-64889328D02*
X144181999Y-64937709D01*
X143165999Y-65760186D02*
X143214380Y-65808567D01*
X143214380Y-65808567D02*
X143359523Y-65856947D01*
X143359523Y-65856947D02*
X143456285Y-65856947D01*
X143456285Y-65856947D02*
X143601428Y-65808567D01*
X143601428Y-65808567D02*
X143698190Y-65711805D01*
X143698190Y-65711805D02*
X143746571Y-65615043D01*
X143746571Y-65615043D02*
X143794952Y-65421519D01*
X143794952Y-65421519D02*
X143794952Y-65276376D01*
X143794952Y-65276376D02*
X143746571Y-65082852D01*
X143746571Y-65082852D02*
X143698190Y-64986090D01*
X143698190Y-64986090D02*
X143601428Y-64889328D01*
X143601428Y-64889328D02*
X143456285Y-64840947D01*
X143456285Y-64840947D02*
X143359523Y-64840947D01*
X143359523Y-64840947D02*
X143214380Y-64889328D01*
X143214380Y-64889328D02*
X143165999Y-64937709D01*
X141617809Y-65324757D02*
X141472666Y-65373138D01*
X141472666Y-65373138D02*
X141424285Y-65421519D01*
X141424285Y-65421519D02*
X141375904Y-65518281D01*
X141375904Y-65518281D02*
X141375904Y-65663424D01*
X141375904Y-65663424D02*
X141424285Y-65760186D01*
X141424285Y-65760186D02*
X141472666Y-65808567D01*
X141472666Y-65808567D02*
X141569428Y-65856947D01*
X141569428Y-65856947D02*
X141956476Y-65856947D01*
X141956476Y-65856947D02*
X141956476Y-64840947D01*
X141956476Y-64840947D02*
X141617809Y-64840947D01*
X141617809Y-64840947D02*
X141521047Y-64889328D01*
X141521047Y-64889328D02*
X141472666Y-64937709D01*
X141472666Y-64937709D02*
X141424285Y-65034471D01*
X141424285Y-65034471D02*
X141424285Y-65131233D01*
X141424285Y-65131233D02*
X141472666Y-65227995D01*
X141472666Y-65227995D02*
X141521047Y-65276376D01*
X141521047Y-65276376D02*
X141617809Y-65324757D01*
X141617809Y-65324757D02*
X141956476Y-65324757D01*
X140746952Y-65373138D02*
X140746952Y-65856947D01*
X141085619Y-64840947D02*
X140746952Y-65373138D01*
X140746952Y-65373138D02*
X140408285Y-64840947D01*
X140069619Y-65469900D02*
X139295524Y-65469900D01*
X138860095Y-65808567D02*
X138714952Y-65856947D01*
X138714952Y-65856947D02*
X138473047Y-65856947D01*
X138473047Y-65856947D02*
X138376285Y-65808567D01*
X138376285Y-65808567D02*
X138327904Y-65760186D01*
X138327904Y-65760186D02*
X138279523Y-65663424D01*
X138279523Y-65663424D02*
X138279523Y-65566662D01*
X138279523Y-65566662D02*
X138327904Y-65469900D01*
X138327904Y-65469900D02*
X138376285Y-65421519D01*
X138376285Y-65421519D02*
X138473047Y-65373138D01*
X138473047Y-65373138D02*
X138666571Y-65324757D01*
X138666571Y-65324757D02*
X138763333Y-65276376D01*
X138763333Y-65276376D02*
X138811714Y-65227995D01*
X138811714Y-65227995D02*
X138860095Y-65131233D01*
X138860095Y-65131233D02*
X138860095Y-65034471D01*
X138860095Y-65034471D02*
X138811714Y-64937709D01*
X138811714Y-64937709D02*
X138763333Y-64889328D01*
X138763333Y-64889328D02*
X138666571Y-64840947D01*
X138666571Y-64840947D02*
X138424666Y-64840947D01*
X138424666Y-64840947D02*
X138279523Y-64889328D01*
X137892476Y-65566662D02*
X137408666Y-65566662D01*
X137989238Y-65856947D02*
X137650571Y-64840947D01*
X137650571Y-64840947D02*
X137311904Y-65856947D01*
X152140665Y-107558483D02*
X152189046Y-107606864D01*
X152189046Y-107606864D02*
X152334189Y-107655244D01*
X152334189Y-107655244D02*
X152430951Y-107655244D01*
X152430951Y-107655244D02*
X152576094Y-107606864D01*
X152576094Y-107606864D02*
X152672856Y-107510102D01*
X152672856Y-107510102D02*
X152721237Y-107413340D01*
X152721237Y-107413340D02*
X152769618Y-107219816D01*
X152769618Y-107219816D02*
X152769618Y-107074673D01*
X152769618Y-107074673D02*
X152721237Y-106881149D01*
X152721237Y-106881149D02*
X152672856Y-106784387D01*
X152672856Y-106784387D02*
X152576094Y-106687625D01*
X152576094Y-106687625D02*
X152430951Y-106639244D01*
X152430951Y-106639244D02*
X152334189Y-106639244D01*
X152334189Y-106639244D02*
X152189046Y-106687625D01*
X152189046Y-106687625D02*
X152140665Y-106736006D01*
X151705237Y-107655244D02*
X151705237Y-106639244D01*
X151124665Y-107655244D02*
X151560094Y-107074673D01*
X151124665Y-106639244D02*
X151705237Y-107219816D01*
X150834380Y-106639244D02*
X150253808Y-106639244D01*
X150544094Y-107655244D02*
X150544094Y-106639244D01*
X149915142Y-107268197D02*
X149141047Y-107268197D01*
X148705618Y-107364959D02*
X148221808Y-107364959D01*
X148802380Y-107655244D02*
X148463713Y-106639244D01*
X148463713Y-106639244D02*
X148125046Y-107655244D01*
X147883142Y-106639244D02*
X147205808Y-107655244D01*
X147205808Y-106639244D02*
X147883142Y-107655244D01*
X146334951Y-107655244D02*
X146818761Y-107655244D01*
X146818761Y-107655244D02*
X146818761Y-106639244D01*
X145996285Y-107123054D02*
X145657618Y-107123054D01*
X145512475Y-107655244D02*
X145996285Y-107655244D01*
X145996285Y-107655244D02*
X145996285Y-106639244D01*
X145996285Y-106639244D02*
X145512475Y-106639244D01*
X145077047Y-107268197D02*
X144302952Y-107268197D01*
X143480475Y-107123054D02*
X143335332Y-107171435D01*
X143335332Y-107171435D02*
X143286951Y-107219816D01*
X143286951Y-107219816D02*
X143238570Y-107316578D01*
X143238570Y-107316578D02*
X143238570Y-107461721D01*
X143238570Y-107461721D02*
X143286951Y-107558483D01*
X143286951Y-107558483D02*
X143335332Y-107606864D01*
X143335332Y-107606864D02*
X143432094Y-107655244D01*
X143432094Y-107655244D02*
X143819142Y-107655244D01*
X143819142Y-107655244D02*
X143819142Y-106639244D01*
X143819142Y-106639244D02*
X143480475Y-106639244D01*
X143480475Y-106639244D02*
X143383713Y-106687625D01*
X143383713Y-106687625D02*
X143335332Y-106736006D01*
X143335332Y-106736006D02*
X143286951Y-106832768D01*
X143286951Y-106832768D02*
X143286951Y-106929530D01*
X143286951Y-106929530D02*
X143335332Y-107026292D01*
X143335332Y-107026292D02*
X143383713Y-107074673D01*
X143383713Y-107074673D02*
X143480475Y-107123054D01*
X143480475Y-107123054D02*
X143819142Y-107123054D01*
X142851523Y-107364959D02*
X142367713Y-107364959D01*
X142948285Y-107655244D02*
X142609618Y-106639244D01*
X142609618Y-106639244D02*
X142270951Y-107655244D01*
X141351713Y-107655244D02*
X141690380Y-107171435D01*
X141932285Y-107655244D02*
X141932285Y-106639244D01*
X141932285Y-106639244D02*
X141545237Y-106639244D01*
X141545237Y-106639244D02*
X141448475Y-106687625D01*
X141448475Y-106687625D02*
X141400094Y-106736006D01*
X141400094Y-106736006D02*
X141351713Y-106832768D01*
X141351713Y-106832768D02*
X141351713Y-106977911D01*
X141351713Y-106977911D02*
X141400094Y-107074673D01*
X141400094Y-107074673D02*
X141448475Y-107123054D01*
X141448475Y-107123054D02*
X141545237Y-107171435D01*
X141545237Y-107171435D02*
X141932285Y-107171435D01*
X139464857Y-106977911D02*
X139222952Y-107655244D01*
X139222952Y-107655244D02*
X138981047Y-106977911D01*
X138061809Y-107655244D02*
X138642381Y-107655244D01*
X138352095Y-107655244D02*
X138352095Y-106639244D01*
X138352095Y-106639244D02*
X138448857Y-106784387D01*
X138448857Y-106784387D02*
X138545619Y-106881149D01*
X138545619Y-106881149D02*
X138642381Y-106929530D01*
X137626381Y-107558483D02*
X137578000Y-107606864D01*
X137578000Y-107606864D02*
X137626381Y-107655244D01*
X137626381Y-107655244D02*
X137674762Y-107606864D01*
X137674762Y-107606864D02*
X137626381Y-107558483D01*
X137626381Y-107558483D02*
X137626381Y-107655244D01*
X136949047Y-106639244D02*
X136852285Y-106639244D01*
X136852285Y-106639244D02*
X136755523Y-106687625D01*
X136755523Y-106687625D02*
X136707142Y-106736006D01*
X136707142Y-106736006D02*
X136658761Y-106832768D01*
X136658761Y-106832768D02*
X136610380Y-107026292D01*
X136610380Y-107026292D02*
X136610380Y-107268197D01*
X136610380Y-107268197D02*
X136658761Y-107461721D01*
X136658761Y-107461721D02*
X136707142Y-107558483D01*
X136707142Y-107558483D02*
X136755523Y-107606864D01*
X136755523Y-107606864D02*
X136852285Y-107655244D01*
X136852285Y-107655244D02*
X136949047Y-107655244D01*
X136949047Y-107655244D02*
X137045809Y-107606864D01*
X137045809Y-107606864D02*
X137094190Y-107558483D01*
X137094190Y-107558483D02*
X137142571Y-107461721D01*
X137142571Y-107461721D02*
X137190952Y-107268197D01*
X137190952Y-107268197D02*
X137190952Y-107026292D01*
X137190952Y-107026292D02*
X137142571Y-106832768D01*
X137142571Y-106832768D02*
X137094190Y-106736006D01*
X137094190Y-106736006D02*
X137045809Y-106687625D01*
X137045809Y-106687625D02*
X136949047Y-106639244D01*
X151100475Y-108516852D02*
X151197236Y-108468471D01*
X151197236Y-108468471D02*
X151390760Y-108468471D01*
X151390760Y-108468471D02*
X151487522Y-108516852D01*
X151487522Y-108516852D02*
X151584284Y-108613614D01*
X151584284Y-108613614D02*
X151632665Y-108710376D01*
X151632665Y-108710376D02*
X151632665Y-108903900D01*
X151632665Y-108903900D02*
X151584284Y-109000662D01*
X151584284Y-109000662D02*
X151487522Y-109097424D01*
X151487522Y-109097424D02*
X151390760Y-109145805D01*
X151390760Y-109145805D02*
X151197236Y-109145805D01*
X151197236Y-109145805D02*
X151100475Y-109097424D01*
X151293998Y-108129805D02*
X151535903Y-108178186D01*
X151535903Y-108178186D02*
X151777808Y-108323328D01*
X151777808Y-108323328D02*
X151922951Y-108565233D01*
X151922951Y-108565233D02*
X151971332Y-108807138D01*
X151971332Y-108807138D02*
X151922951Y-109049043D01*
X151922951Y-109049043D02*
X151777808Y-109290947D01*
X151777808Y-109290947D02*
X151535903Y-109436090D01*
X151535903Y-109436090D02*
X151293998Y-109484471D01*
X151293998Y-109484471D02*
X151052094Y-109436090D01*
X151052094Y-109436090D02*
X150810189Y-109290947D01*
X150810189Y-109290947D02*
X150665046Y-109049043D01*
X150665046Y-109049043D02*
X150616665Y-108807138D01*
X150616665Y-108807138D02*
X150665046Y-108565233D01*
X150665046Y-108565233D02*
X150810189Y-108323328D01*
X150810189Y-108323328D02*
X151052094Y-108178186D01*
X151052094Y-108178186D02*
X151293998Y-108129805D01*
X150229618Y-108371709D02*
X150181237Y-108323328D01*
X150181237Y-108323328D02*
X150084475Y-108274947D01*
X150084475Y-108274947D02*
X149842570Y-108274947D01*
X149842570Y-108274947D02*
X149745808Y-108323328D01*
X149745808Y-108323328D02*
X149697427Y-108371709D01*
X149697427Y-108371709D02*
X149649046Y-108468471D01*
X149649046Y-108468471D02*
X149649046Y-108565233D01*
X149649046Y-108565233D02*
X149697427Y-108710376D01*
X149697427Y-108710376D02*
X150277999Y-109290947D01*
X150277999Y-109290947D02*
X149649046Y-109290947D01*
X149020094Y-108274947D02*
X148923332Y-108274947D01*
X148923332Y-108274947D02*
X148826570Y-108323328D01*
X148826570Y-108323328D02*
X148778189Y-108371709D01*
X148778189Y-108371709D02*
X148729808Y-108468471D01*
X148729808Y-108468471D02*
X148681427Y-108661995D01*
X148681427Y-108661995D02*
X148681427Y-108903900D01*
X148681427Y-108903900D02*
X148729808Y-109097424D01*
X148729808Y-109097424D02*
X148778189Y-109194186D01*
X148778189Y-109194186D02*
X148826570Y-109242567D01*
X148826570Y-109242567D02*
X148923332Y-109290947D01*
X148923332Y-109290947D02*
X149020094Y-109290947D01*
X149020094Y-109290947D02*
X149116856Y-109242567D01*
X149116856Y-109242567D02*
X149165237Y-109194186D01*
X149165237Y-109194186D02*
X149213618Y-109097424D01*
X149213618Y-109097424D02*
X149261999Y-108903900D01*
X149261999Y-108903900D02*
X149261999Y-108661995D01*
X149261999Y-108661995D02*
X149213618Y-108468471D01*
X149213618Y-108468471D02*
X149165237Y-108371709D01*
X149165237Y-108371709D02*
X149116856Y-108323328D01*
X149116856Y-108323328D02*
X149020094Y-108274947D01*
X148294380Y-108371709D02*
X148245999Y-108323328D01*
X148245999Y-108323328D02*
X148149237Y-108274947D01*
X148149237Y-108274947D02*
X147907332Y-108274947D01*
X147907332Y-108274947D02*
X147810570Y-108323328D01*
X147810570Y-108323328D02*
X147762189Y-108371709D01*
X147762189Y-108371709D02*
X147713808Y-108468471D01*
X147713808Y-108468471D02*
X147713808Y-108565233D01*
X147713808Y-108565233D02*
X147762189Y-108710376D01*
X147762189Y-108710376D02*
X148342761Y-109290947D01*
X148342761Y-109290947D02*
X147713808Y-109290947D01*
X146794570Y-108274947D02*
X147278380Y-108274947D01*
X147278380Y-108274947D02*
X147326761Y-108758757D01*
X147326761Y-108758757D02*
X147278380Y-108710376D01*
X147278380Y-108710376D02*
X147181618Y-108661995D01*
X147181618Y-108661995D02*
X146939713Y-108661995D01*
X146939713Y-108661995D02*
X146842951Y-108710376D01*
X146842951Y-108710376D02*
X146794570Y-108758757D01*
X146794570Y-108758757D02*
X146746189Y-108855519D01*
X146746189Y-108855519D02*
X146746189Y-109097424D01*
X146746189Y-109097424D02*
X146794570Y-109194186D01*
X146794570Y-109194186D02*
X146842951Y-109242567D01*
X146842951Y-109242567D02*
X146939713Y-109290947D01*
X146939713Y-109290947D02*
X147181618Y-109290947D01*
X147181618Y-109290947D02*
X147278380Y-109242567D01*
X147278380Y-109242567D02*
X147326761Y-109194186D01*
X144181999Y-109194186D02*
X144230380Y-109242567D01*
X144230380Y-109242567D02*
X144375523Y-109290947D01*
X144375523Y-109290947D02*
X144472285Y-109290947D01*
X144472285Y-109290947D02*
X144617428Y-109242567D01*
X144617428Y-109242567D02*
X144714190Y-109145805D01*
X144714190Y-109145805D02*
X144762571Y-109049043D01*
X144762571Y-109049043D02*
X144810952Y-108855519D01*
X144810952Y-108855519D02*
X144810952Y-108710376D01*
X144810952Y-108710376D02*
X144762571Y-108516852D01*
X144762571Y-108516852D02*
X144714190Y-108420090D01*
X144714190Y-108420090D02*
X144617428Y-108323328D01*
X144617428Y-108323328D02*
X144472285Y-108274947D01*
X144472285Y-108274947D02*
X144375523Y-108274947D01*
X144375523Y-108274947D02*
X144230380Y-108323328D01*
X144230380Y-108323328D02*
X144181999Y-108371709D01*
X143165999Y-109194186D02*
X143214380Y-109242567D01*
X143214380Y-109242567D02*
X143359523Y-109290947D01*
X143359523Y-109290947D02*
X143456285Y-109290947D01*
X143456285Y-109290947D02*
X143601428Y-109242567D01*
X143601428Y-109242567D02*
X143698190Y-109145805D01*
X143698190Y-109145805D02*
X143746571Y-109049043D01*
X143746571Y-109049043D02*
X143794952Y-108855519D01*
X143794952Y-108855519D02*
X143794952Y-108710376D01*
X143794952Y-108710376D02*
X143746571Y-108516852D01*
X143746571Y-108516852D02*
X143698190Y-108420090D01*
X143698190Y-108420090D02*
X143601428Y-108323328D01*
X143601428Y-108323328D02*
X143456285Y-108274947D01*
X143456285Y-108274947D02*
X143359523Y-108274947D01*
X143359523Y-108274947D02*
X143214380Y-108323328D01*
X143214380Y-108323328D02*
X143165999Y-108371709D01*
X141617809Y-108758757D02*
X141472666Y-108807138D01*
X141472666Y-108807138D02*
X141424285Y-108855519D01*
X141424285Y-108855519D02*
X141375904Y-108952281D01*
X141375904Y-108952281D02*
X141375904Y-109097424D01*
X141375904Y-109097424D02*
X141424285Y-109194186D01*
X141424285Y-109194186D02*
X141472666Y-109242567D01*
X141472666Y-109242567D02*
X141569428Y-109290947D01*
X141569428Y-109290947D02*
X141956476Y-109290947D01*
X141956476Y-109290947D02*
X141956476Y-108274947D01*
X141956476Y-108274947D02*
X141617809Y-108274947D01*
X141617809Y-108274947D02*
X141521047Y-108323328D01*
X141521047Y-108323328D02*
X141472666Y-108371709D01*
X141472666Y-108371709D02*
X141424285Y-108468471D01*
X141424285Y-108468471D02*
X141424285Y-108565233D01*
X141424285Y-108565233D02*
X141472666Y-108661995D01*
X141472666Y-108661995D02*
X141521047Y-108710376D01*
X141521047Y-108710376D02*
X141617809Y-108758757D01*
X141617809Y-108758757D02*
X141956476Y-108758757D01*
X140746952Y-108807138D02*
X140746952Y-109290947D01*
X141085619Y-108274947D02*
X140746952Y-108807138D01*
X140746952Y-108807138D02*
X140408285Y-108274947D01*
X140069619Y-108903900D02*
X139295524Y-108903900D01*
X138860095Y-109242567D02*
X138714952Y-109290947D01*
X138714952Y-109290947D02*
X138473047Y-109290947D01*
X138473047Y-109290947D02*
X138376285Y-109242567D01*
X138376285Y-109242567D02*
X138327904Y-109194186D01*
X138327904Y-109194186D02*
X138279523Y-109097424D01*
X138279523Y-109097424D02*
X138279523Y-109000662D01*
X138279523Y-109000662D02*
X138327904Y-108903900D01*
X138327904Y-108903900D02*
X138376285Y-108855519D01*
X138376285Y-108855519D02*
X138473047Y-108807138D01*
X138473047Y-108807138D02*
X138666571Y-108758757D01*
X138666571Y-108758757D02*
X138763333Y-108710376D01*
X138763333Y-108710376D02*
X138811714Y-108661995D01*
X138811714Y-108661995D02*
X138860095Y-108565233D01*
X138860095Y-108565233D02*
X138860095Y-108468471D01*
X138860095Y-108468471D02*
X138811714Y-108371709D01*
X138811714Y-108371709D02*
X138763333Y-108323328D01*
X138763333Y-108323328D02*
X138666571Y-108274947D01*
X138666571Y-108274947D02*
X138424666Y-108274947D01*
X138424666Y-108274947D02*
X138279523Y-108323328D01*
X137892476Y-109000662D02*
X137408666Y-109000662D01*
X137989238Y-109290947D02*
X137650571Y-108274947D01*
X137650571Y-108274947D02*
X137311904Y-109290947D01*
X152140665Y-150992483D02*
X152189046Y-151040864D01*
X152189046Y-151040864D02*
X152334189Y-151089244D01*
X152334189Y-151089244D02*
X152430951Y-151089244D01*
X152430951Y-151089244D02*
X152576094Y-151040864D01*
X152576094Y-151040864D02*
X152672856Y-150944102D01*
X152672856Y-150944102D02*
X152721237Y-150847340D01*
X152721237Y-150847340D02*
X152769618Y-150653816D01*
X152769618Y-150653816D02*
X152769618Y-150508673D01*
X152769618Y-150508673D02*
X152721237Y-150315149D01*
X152721237Y-150315149D02*
X152672856Y-150218387D01*
X152672856Y-150218387D02*
X152576094Y-150121625D01*
X152576094Y-150121625D02*
X152430951Y-150073244D01*
X152430951Y-150073244D02*
X152334189Y-150073244D01*
X152334189Y-150073244D02*
X152189046Y-150121625D01*
X152189046Y-150121625D02*
X152140665Y-150170006D01*
X151705237Y-151089244D02*
X151705237Y-150073244D01*
X151124665Y-151089244D02*
X151560094Y-150508673D01*
X151124665Y-150073244D02*
X151705237Y-150653816D01*
X150834380Y-150073244D02*
X150253808Y-150073244D01*
X150544094Y-151089244D02*
X150544094Y-150073244D01*
X149915142Y-150702197D02*
X149141047Y-150702197D01*
X148705618Y-150798959D02*
X148221808Y-150798959D01*
X148802380Y-151089244D02*
X148463713Y-150073244D01*
X148463713Y-150073244D02*
X148125046Y-151089244D01*
X147883142Y-150073244D02*
X147205808Y-151089244D01*
X147205808Y-150073244D02*
X147883142Y-151089244D01*
X146334951Y-151089244D02*
X146818761Y-151089244D01*
X146818761Y-151089244D02*
X146818761Y-150073244D01*
X145996285Y-150557054D02*
X145657618Y-150557054D01*
X145512475Y-151089244D02*
X145996285Y-151089244D01*
X145996285Y-151089244D02*
X145996285Y-150073244D01*
X145996285Y-150073244D02*
X145512475Y-150073244D01*
X145077047Y-150702197D02*
X144302952Y-150702197D01*
X143480475Y-150557054D02*
X143335332Y-150605435D01*
X143335332Y-150605435D02*
X143286951Y-150653816D01*
X143286951Y-150653816D02*
X143238570Y-150750578D01*
X143238570Y-150750578D02*
X143238570Y-150895721D01*
X143238570Y-150895721D02*
X143286951Y-150992483D01*
X143286951Y-150992483D02*
X143335332Y-151040864D01*
X143335332Y-151040864D02*
X143432094Y-151089244D01*
X143432094Y-151089244D02*
X143819142Y-151089244D01*
X143819142Y-151089244D02*
X143819142Y-150073244D01*
X143819142Y-150073244D02*
X143480475Y-150073244D01*
X143480475Y-150073244D02*
X143383713Y-150121625D01*
X143383713Y-150121625D02*
X143335332Y-150170006D01*
X143335332Y-150170006D02*
X143286951Y-150266768D01*
X143286951Y-150266768D02*
X143286951Y-150363530D01*
X143286951Y-150363530D02*
X143335332Y-150460292D01*
X143335332Y-150460292D02*
X143383713Y-150508673D01*
X143383713Y-150508673D02*
X143480475Y-150557054D01*
X143480475Y-150557054D02*
X143819142Y-150557054D01*
X142851523Y-150798959D02*
X142367713Y-150798959D01*
X142948285Y-151089244D02*
X142609618Y-150073244D01*
X142609618Y-150073244D02*
X142270951Y-151089244D01*
X141351713Y-151089244D02*
X141690380Y-150605435D01*
X141932285Y-151089244D02*
X141932285Y-150073244D01*
X141932285Y-150073244D02*
X141545237Y-150073244D01*
X141545237Y-150073244D02*
X141448475Y-150121625D01*
X141448475Y-150121625D02*
X141400094Y-150170006D01*
X141400094Y-150170006D02*
X141351713Y-150266768D01*
X141351713Y-150266768D02*
X141351713Y-150411911D01*
X141351713Y-150411911D02*
X141400094Y-150508673D01*
X141400094Y-150508673D02*
X141448475Y-150557054D01*
X141448475Y-150557054D02*
X141545237Y-150605435D01*
X141545237Y-150605435D02*
X141932285Y-150605435D01*
X139464857Y-150411911D02*
X139222952Y-151089244D01*
X139222952Y-151089244D02*
X138981047Y-150411911D01*
X138061809Y-151089244D02*
X138642381Y-151089244D01*
X138352095Y-151089244D02*
X138352095Y-150073244D01*
X138352095Y-150073244D02*
X138448857Y-150218387D01*
X138448857Y-150218387D02*
X138545619Y-150315149D01*
X138545619Y-150315149D02*
X138642381Y-150363530D01*
X137626381Y-150992483D02*
X137578000Y-151040864D01*
X137578000Y-151040864D02*
X137626381Y-151089244D01*
X137626381Y-151089244D02*
X137674762Y-151040864D01*
X137674762Y-151040864D02*
X137626381Y-150992483D01*
X137626381Y-150992483D02*
X137626381Y-151089244D01*
X136949047Y-150073244D02*
X136852285Y-150073244D01*
X136852285Y-150073244D02*
X136755523Y-150121625D01*
X136755523Y-150121625D02*
X136707142Y-150170006D01*
X136707142Y-150170006D02*
X136658761Y-150266768D01*
X136658761Y-150266768D02*
X136610380Y-150460292D01*
X136610380Y-150460292D02*
X136610380Y-150702197D01*
X136610380Y-150702197D02*
X136658761Y-150895721D01*
X136658761Y-150895721D02*
X136707142Y-150992483D01*
X136707142Y-150992483D02*
X136755523Y-151040864D01*
X136755523Y-151040864D02*
X136852285Y-151089244D01*
X136852285Y-151089244D02*
X136949047Y-151089244D01*
X136949047Y-151089244D02*
X137045809Y-151040864D01*
X137045809Y-151040864D02*
X137094190Y-150992483D01*
X137094190Y-150992483D02*
X137142571Y-150895721D01*
X137142571Y-150895721D02*
X137190952Y-150702197D01*
X137190952Y-150702197D02*
X137190952Y-150460292D01*
X137190952Y-150460292D02*
X137142571Y-150266768D01*
X137142571Y-150266768D02*
X137094190Y-150170006D01*
X137094190Y-150170006D02*
X137045809Y-150121625D01*
X137045809Y-150121625D02*
X136949047Y-150073244D01*
X151100475Y-151950852D02*
X151197236Y-151902471D01*
X151197236Y-151902471D02*
X151390760Y-151902471D01*
X151390760Y-151902471D02*
X151487522Y-151950852D01*
X151487522Y-151950852D02*
X151584284Y-152047614D01*
X151584284Y-152047614D02*
X151632665Y-152144376D01*
X151632665Y-152144376D02*
X151632665Y-152337900D01*
X151632665Y-152337900D02*
X151584284Y-152434662D01*
X151584284Y-152434662D02*
X151487522Y-152531424D01*
X151487522Y-152531424D02*
X151390760Y-152579805D01*
X151390760Y-152579805D02*
X151197236Y-152579805D01*
X151197236Y-152579805D02*
X151100475Y-152531424D01*
X151293998Y-151563805D02*
X151535903Y-151612186D01*
X151535903Y-151612186D02*
X151777808Y-151757328D01*
X151777808Y-151757328D02*
X151922951Y-151999233D01*
X151922951Y-151999233D02*
X151971332Y-152241138D01*
X151971332Y-152241138D02*
X151922951Y-152483043D01*
X151922951Y-152483043D02*
X151777808Y-152724947D01*
X151777808Y-152724947D02*
X151535903Y-152870090D01*
X151535903Y-152870090D02*
X151293998Y-152918471D01*
X151293998Y-152918471D02*
X151052094Y-152870090D01*
X151052094Y-152870090D02*
X150810189Y-152724947D01*
X150810189Y-152724947D02*
X150665046Y-152483043D01*
X150665046Y-152483043D02*
X150616665Y-152241138D01*
X150616665Y-152241138D02*
X150665046Y-151999233D01*
X150665046Y-151999233D02*
X150810189Y-151757328D01*
X150810189Y-151757328D02*
X151052094Y-151612186D01*
X151052094Y-151612186D02*
X151293998Y-151563805D01*
X150229618Y-151805709D02*
X150181237Y-151757328D01*
X150181237Y-151757328D02*
X150084475Y-151708947D01*
X150084475Y-151708947D02*
X149842570Y-151708947D01*
X149842570Y-151708947D02*
X149745808Y-151757328D01*
X149745808Y-151757328D02*
X149697427Y-151805709D01*
X149697427Y-151805709D02*
X149649046Y-151902471D01*
X149649046Y-151902471D02*
X149649046Y-151999233D01*
X149649046Y-151999233D02*
X149697427Y-152144376D01*
X149697427Y-152144376D02*
X150277999Y-152724947D01*
X150277999Y-152724947D02*
X149649046Y-152724947D01*
X149020094Y-151708947D02*
X148923332Y-151708947D01*
X148923332Y-151708947D02*
X148826570Y-151757328D01*
X148826570Y-151757328D02*
X148778189Y-151805709D01*
X148778189Y-151805709D02*
X148729808Y-151902471D01*
X148729808Y-151902471D02*
X148681427Y-152095995D01*
X148681427Y-152095995D02*
X148681427Y-152337900D01*
X148681427Y-152337900D02*
X148729808Y-152531424D01*
X148729808Y-152531424D02*
X148778189Y-152628186D01*
X148778189Y-152628186D02*
X148826570Y-152676567D01*
X148826570Y-152676567D02*
X148923332Y-152724947D01*
X148923332Y-152724947D02*
X149020094Y-152724947D01*
X149020094Y-152724947D02*
X149116856Y-152676567D01*
X149116856Y-152676567D02*
X149165237Y-152628186D01*
X149165237Y-152628186D02*
X149213618Y-152531424D01*
X149213618Y-152531424D02*
X149261999Y-152337900D01*
X149261999Y-152337900D02*
X149261999Y-152095995D01*
X149261999Y-152095995D02*
X149213618Y-151902471D01*
X149213618Y-151902471D02*
X149165237Y-151805709D01*
X149165237Y-151805709D02*
X149116856Y-151757328D01*
X149116856Y-151757328D02*
X149020094Y-151708947D01*
X148294380Y-151805709D02*
X148245999Y-151757328D01*
X148245999Y-151757328D02*
X148149237Y-151708947D01*
X148149237Y-151708947D02*
X147907332Y-151708947D01*
X147907332Y-151708947D02*
X147810570Y-151757328D01*
X147810570Y-151757328D02*
X147762189Y-151805709D01*
X147762189Y-151805709D02*
X147713808Y-151902471D01*
X147713808Y-151902471D02*
X147713808Y-151999233D01*
X147713808Y-151999233D02*
X147762189Y-152144376D01*
X147762189Y-152144376D02*
X148342761Y-152724947D01*
X148342761Y-152724947D02*
X147713808Y-152724947D01*
X146794570Y-151708947D02*
X147278380Y-151708947D01*
X147278380Y-151708947D02*
X147326761Y-152192757D01*
X147326761Y-152192757D02*
X147278380Y-152144376D01*
X147278380Y-152144376D02*
X147181618Y-152095995D01*
X147181618Y-152095995D02*
X146939713Y-152095995D01*
X146939713Y-152095995D02*
X146842951Y-152144376D01*
X146842951Y-152144376D02*
X146794570Y-152192757D01*
X146794570Y-152192757D02*
X146746189Y-152289519D01*
X146746189Y-152289519D02*
X146746189Y-152531424D01*
X146746189Y-152531424D02*
X146794570Y-152628186D01*
X146794570Y-152628186D02*
X146842951Y-152676567D01*
X146842951Y-152676567D02*
X146939713Y-152724947D01*
X146939713Y-152724947D02*
X147181618Y-152724947D01*
X147181618Y-152724947D02*
X147278380Y-152676567D01*
X147278380Y-152676567D02*
X147326761Y-152628186D01*
X144181999Y-152628186D02*
X144230380Y-152676567D01*
X144230380Y-152676567D02*
X144375523Y-152724947D01*
X144375523Y-152724947D02*
X144472285Y-152724947D01*
X144472285Y-152724947D02*
X144617428Y-152676567D01*
X144617428Y-152676567D02*
X144714190Y-152579805D01*
X144714190Y-152579805D02*
X144762571Y-152483043D01*
X144762571Y-152483043D02*
X144810952Y-152289519D01*
X144810952Y-152289519D02*
X144810952Y-152144376D01*
X144810952Y-152144376D02*
X144762571Y-151950852D01*
X144762571Y-151950852D02*
X144714190Y-151854090D01*
X144714190Y-151854090D02*
X144617428Y-151757328D01*
X144617428Y-151757328D02*
X144472285Y-151708947D01*
X144472285Y-151708947D02*
X144375523Y-151708947D01*
X144375523Y-151708947D02*
X144230380Y-151757328D01*
X144230380Y-151757328D02*
X144181999Y-151805709D01*
X143165999Y-152628186D02*
X143214380Y-152676567D01*
X143214380Y-152676567D02*
X143359523Y-152724947D01*
X143359523Y-152724947D02*
X143456285Y-152724947D01*
X143456285Y-152724947D02*
X143601428Y-152676567D01*
X143601428Y-152676567D02*
X143698190Y-152579805D01*
X143698190Y-152579805D02*
X143746571Y-152483043D01*
X143746571Y-152483043D02*
X143794952Y-152289519D01*
X143794952Y-152289519D02*
X143794952Y-152144376D01*
X143794952Y-152144376D02*
X143746571Y-151950852D01*
X143746571Y-151950852D02*
X143698190Y-151854090D01*
X143698190Y-151854090D02*
X143601428Y-151757328D01*
X143601428Y-151757328D02*
X143456285Y-151708947D01*
X143456285Y-151708947D02*
X143359523Y-151708947D01*
X143359523Y-151708947D02*
X143214380Y-151757328D01*
X143214380Y-151757328D02*
X143165999Y-151805709D01*
X141617809Y-152192757D02*
X141472666Y-152241138D01*
X141472666Y-152241138D02*
X141424285Y-152289519D01*
X141424285Y-152289519D02*
X141375904Y-152386281D01*
X141375904Y-152386281D02*
X141375904Y-152531424D01*
X141375904Y-152531424D02*
X141424285Y-152628186D01*
X141424285Y-152628186D02*
X141472666Y-152676567D01*
X141472666Y-152676567D02*
X141569428Y-152724947D01*
X141569428Y-152724947D02*
X141956476Y-152724947D01*
X141956476Y-152724947D02*
X141956476Y-151708947D01*
X141956476Y-151708947D02*
X141617809Y-151708947D01*
X141617809Y-151708947D02*
X141521047Y-151757328D01*
X141521047Y-151757328D02*
X141472666Y-151805709D01*
X141472666Y-151805709D02*
X141424285Y-151902471D01*
X141424285Y-151902471D02*
X141424285Y-151999233D01*
X141424285Y-151999233D02*
X141472666Y-152095995D01*
X141472666Y-152095995D02*
X141521047Y-152144376D01*
X141521047Y-152144376D02*
X141617809Y-152192757D01*
X141617809Y-152192757D02*
X141956476Y-152192757D01*
X140746952Y-152241138D02*
X140746952Y-152724947D01*
X141085619Y-151708947D02*
X140746952Y-152241138D01*
X140746952Y-152241138D02*
X140408285Y-151708947D01*
X140069619Y-152337900D02*
X139295524Y-152337900D01*
X138860095Y-152676567D02*
X138714952Y-152724947D01*
X138714952Y-152724947D02*
X138473047Y-152724947D01*
X138473047Y-152724947D02*
X138376285Y-152676567D01*
X138376285Y-152676567D02*
X138327904Y-152628186D01*
X138327904Y-152628186D02*
X138279523Y-152531424D01*
X138279523Y-152531424D02*
X138279523Y-152434662D01*
X138279523Y-152434662D02*
X138327904Y-152337900D01*
X138327904Y-152337900D02*
X138376285Y-152289519D01*
X138376285Y-152289519D02*
X138473047Y-152241138D01*
X138473047Y-152241138D02*
X138666571Y-152192757D01*
X138666571Y-152192757D02*
X138763333Y-152144376D01*
X138763333Y-152144376D02*
X138811714Y-152095995D01*
X138811714Y-152095995D02*
X138860095Y-151999233D01*
X138860095Y-151999233D02*
X138860095Y-151902471D01*
X138860095Y-151902471D02*
X138811714Y-151805709D01*
X138811714Y-151805709D02*
X138763333Y-151757328D01*
X138763333Y-151757328D02*
X138666571Y-151708947D01*
X138666571Y-151708947D02*
X138424666Y-151708947D01*
X138424666Y-151708947D02*
X138279523Y-151757328D01*
X137892476Y-152434662D02*
X137408666Y-152434662D01*
X137989238Y-152724947D02*
X137650571Y-151708947D01*
X137650571Y-151708947D02*
X137311904Y-152724947D01*
X144859334Y-43312516D02*
X144810953Y-43264136D01*
X144810953Y-43264136D02*
X144665810Y-43215755D01*
X144665810Y-43215755D02*
X144569048Y-43215755D01*
X144569048Y-43215755D02*
X144423905Y-43264136D01*
X144423905Y-43264136D02*
X144327143Y-43360897D01*
X144327143Y-43360897D02*
X144278762Y-43457659D01*
X144278762Y-43457659D02*
X144230381Y-43651183D01*
X144230381Y-43651183D02*
X144230381Y-43796326D01*
X144230381Y-43796326D02*
X144278762Y-43989850D01*
X144278762Y-43989850D02*
X144327143Y-44086612D01*
X144327143Y-44086612D02*
X144423905Y-44183374D01*
X144423905Y-44183374D02*
X144569048Y-44231755D01*
X144569048Y-44231755D02*
X144665810Y-44231755D01*
X144665810Y-44231755D02*
X144810953Y-44183374D01*
X144810953Y-44183374D02*
X144859334Y-44134993D01*
X145294762Y-43215755D02*
X145294762Y-44231755D01*
X145875334Y-43215755D02*
X145439905Y-43796326D01*
X145875334Y-44231755D02*
X145294762Y-43651183D01*
X146165619Y-44231755D02*
X146746191Y-44231755D01*
X146455905Y-43215755D02*
X146455905Y-44231755D01*
X147084857Y-43602802D02*
X147858953Y-43602802D01*
X148294381Y-43506040D02*
X148778191Y-43506040D01*
X148197619Y-43215755D02*
X148536286Y-44231755D01*
X148536286Y-44231755D02*
X148874953Y-43215755D01*
X149116857Y-44231755D02*
X149794191Y-43215755D01*
X149794191Y-44231755D02*
X149116857Y-43215755D01*
X150665048Y-43215755D02*
X150181238Y-43215755D01*
X150181238Y-43215755D02*
X150181238Y-44231755D01*
X151003714Y-43747945D02*
X151342381Y-43747945D01*
X151487524Y-43215755D02*
X151003714Y-43215755D01*
X151003714Y-43215755D02*
X151003714Y-44231755D01*
X151003714Y-44231755D02*
X151487524Y-44231755D01*
X151922952Y-43602802D02*
X152697048Y-43602802D01*
X153519524Y-43747945D02*
X153664667Y-43699564D01*
X153664667Y-43699564D02*
X153713048Y-43651183D01*
X153713048Y-43651183D02*
X153761429Y-43554421D01*
X153761429Y-43554421D02*
X153761429Y-43409278D01*
X153761429Y-43409278D02*
X153713048Y-43312516D01*
X153713048Y-43312516D02*
X153664667Y-43264136D01*
X153664667Y-43264136D02*
X153567905Y-43215755D01*
X153567905Y-43215755D02*
X153180857Y-43215755D01*
X153180857Y-43215755D02*
X153180857Y-44231755D01*
X153180857Y-44231755D02*
X153519524Y-44231755D01*
X153519524Y-44231755D02*
X153616286Y-44183374D01*
X153616286Y-44183374D02*
X153664667Y-44134993D01*
X153664667Y-44134993D02*
X153713048Y-44038231D01*
X153713048Y-44038231D02*
X153713048Y-43941469D01*
X153713048Y-43941469D02*
X153664667Y-43844707D01*
X153664667Y-43844707D02*
X153616286Y-43796326D01*
X153616286Y-43796326D02*
X153519524Y-43747945D01*
X153519524Y-43747945D02*
X153180857Y-43747945D01*
X154148476Y-43506040D02*
X154632286Y-43506040D01*
X154051714Y-43215755D02*
X154390381Y-44231755D01*
X154390381Y-44231755D02*
X154729048Y-43215755D01*
X155648286Y-43215755D02*
X155309619Y-43699564D01*
X155067714Y-43215755D02*
X155067714Y-44231755D01*
X155067714Y-44231755D02*
X155454762Y-44231755D01*
X155454762Y-44231755D02*
X155551524Y-44183374D01*
X155551524Y-44183374D02*
X155599905Y-44134993D01*
X155599905Y-44134993D02*
X155648286Y-44038231D01*
X155648286Y-44038231D02*
X155648286Y-43893088D01*
X155648286Y-43893088D02*
X155599905Y-43796326D01*
X155599905Y-43796326D02*
X155551524Y-43747945D01*
X155551524Y-43747945D02*
X155454762Y-43699564D01*
X155454762Y-43699564D02*
X155067714Y-43699564D01*
X157535142Y-43893088D02*
X157777047Y-43215755D01*
X157777047Y-43215755D02*
X158018952Y-43893088D01*
X158938190Y-43215755D02*
X158357618Y-43215755D01*
X158647904Y-43215755D02*
X158647904Y-44231755D01*
X158647904Y-44231755D02*
X158551142Y-44086612D01*
X158551142Y-44086612D02*
X158454380Y-43989850D01*
X158454380Y-43989850D02*
X158357618Y-43941469D01*
X159373618Y-43312516D02*
X159421999Y-43264136D01*
X159421999Y-43264136D02*
X159373618Y-43215755D01*
X159373618Y-43215755D02*
X159325237Y-43264136D01*
X159325237Y-43264136D02*
X159373618Y-43312516D01*
X159373618Y-43312516D02*
X159373618Y-43215755D01*
X160050952Y-44231755D02*
X160147714Y-44231755D01*
X160147714Y-44231755D02*
X160244476Y-44183374D01*
X160244476Y-44183374D02*
X160292857Y-44134993D01*
X160292857Y-44134993D02*
X160341238Y-44038231D01*
X160341238Y-44038231D02*
X160389619Y-43844707D01*
X160389619Y-43844707D02*
X160389619Y-43602802D01*
X160389619Y-43602802D02*
X160341238Y-43409278D01*
X160341238Y-43409278D02*
X160292857Y-43312516D01*
X160292857Y-43312516D02*
X160244476Y-43264136D01*
X160244476Y-43264136D02*
X160147714Y-43215755D01*
X160147714Y-43215755D02*
X160050952Y-43215755D01*
X160050952Y-43215755D02*
X159954190Y-43264136D01*
X159954190Y-43264136D02*
X159905809Y-43312516D01*
X159905809Y-43312516D02*
X159857428Y-43409278D01*
X159857428Y-43409278D02*
X159809047Y-43602802D01*
X159809047Y-43602802D02*
X159809047Y-43844707D01*
X159809047Y-43844707D02*
X159857428Y-44038231D01*
X159857428Y-44038231D02*
X159905809Y-44134993D01*
X159905809Y-44134993D02*
X159954190Y-44183374D01*
X159954190Y-44183374D02*
X160050952Y-44231755D01*
X145899524Y-42354147D02*
X145802763Y-42402528D01*
X145802763Y-42402528D02*
X145609239Y-42402528D01*
X145609239Y-42402528D02*
X145512477Y-42354147D01*
X145512477Y-42354147D02*
X145415715Y-42257385D01*
X145415715Y-42257385D02*
X145367334Y-42160623D01*
X145367334Y-42160623D02*
X145367334Y-41967099D01*
X145367334Y-41967099D02*
X145415715Y-41870337D01*
X145415715Y-41870337D02*
X145512477Y-41773575D01*
X145512477Y-41773575D02*
X145609239Y-41725194D01*
X145609239Y-41725194D02*
X145802763Y-41725194D01*
X145802763Y-41725194D02*
X145899524Y-41773575D01*
X145706001Y-42741194D02*
X145464096Y-42692813D01*
X145464096Y-42692813D02*
X145222191Y-42547671D01*
X145222191Y-42547671D02*
X145077048Y-42305766D01*
X145077048Y-42305766D02*
X145028667Y-42063861D01*
X145028667Y-42063861D02*
X145077048Y-41821956D01*
X145077048Y-41821956D02*
X145222191Y-41580052D01*
X145222191Y-41580052D02*
X145464096Y-41434909D01*
X145464096Y-41434909D02*
X145706001Y-41386528D01*
X145706001Y-41386528D02*
X145947905Y-41434909D01*
X145947905Y-41434909D02*
X146189810Y-41580052D01*
X146189810Y-41580052D02*
X146334953Y-41821956D01*
X146334953Y-41821956D02*
X146383334Y-42063861D01*
X146383334Y-42063861D02*
X146334953Y-42305766D01*
X146334953Y-42305766D02*
X146189810Y-42547671D01*
X146189810Y-42547671D02*
X145947905Y-42692813D01*
X145947905Y-42692813D02*
X145706001Y-42741194D01*
X146770381Y-42499290D02*
X146818762Y-42547671D01*
X146818762Y-42547671D02*
X146915524Y-42596052D01*
X146915524Y-42596052D02*
X147157429Y-42596052D01*
X147157429Y-42596052D02*
X147254191Y-42547671D01*
X147254191Y-42547671D02*
X147302572Y-42499290D01*
X147302572Y-42499290D02*
X147350953Y-42402528D01*
X147350953Y-42402528D02*
X147350953Y-42305766D01*
X147350953Y-42305766D02*
X147302572Y-42160623D01*
X147302572Y-42160623D02*
X146722000Y-41580052D01*
X146722000Y-41580052D02*
X147350953Y-41580052D01*
X147979905Y-42596052D02*
X148076667Y-42596052D01*
X148076667Y-42596052D02*
X148173429Y-42547671D01*
X148173429Y-42547671D02*
X148221810Y-42499290D01*
X148221810Y-42499290D02*
X148270191Y-42402528D01*
X148270191Y-42402528D02*
X148318572Y-42209004D01*
X148318572Y-42209004D02*
X148318572Y-41967099D01*
X148318572Y-41967099D02*
X148270191Y-41773575D01*
X148270191Y-41773575D02*
X148221810Y-41676813D01*
X148221810Y-41676813D02*
X148173429Y-41628433D01*
X148173429Y-41628433D02*
X148076667Y-41580052D01*
X148076667Y-41580052D02*
X147979905Y-41580052D01*
X147979905Y-41580052D02*
X147883143Y-41628433D01*
X147883143Y-41628433D02*
X147834762Y-41676813D01*
X147834762Y-41676813D02*
X147786381Y-41773575D01*
X147786381Y-41773575D02*
X147738000Y-41967099D01*
X147738000Y-41967099D02*
X147738000Y-42209004D01*
X147738000Y-42209004D02*
X147786381Y-42402528D01*
X147786381Y-42402528D02*
X147834762Y-42499290D01*
X147834762Y-42499290D02*
X147883143Y-42547671D01*
X147883143Y-42547671D02*
X147979905Y-42596052D01*
X148705619Y-42499290D02*
X148754000Y-42547671D01*
X148754000Y-42547671D02*
X148850762Y-42596052D01*
X148850762Y-42596052D02*
X149092667Y-42596052D01*
X149092667Y-42596052D02*
X149189429Y-42547671D01*
X149189429Y-42547671D02*
X149237810Y-42499290D01*
X149237810Y-42499290D02*
X149286191Y-42402528D01*
X149286191Y-42402528D02*
X149286191Y-42305766D01*
X149286191Y-42305766D02*
X149237810Y-42160623D01*
X149237810Y-42160623D02*
X148657238Y-41580052D01*
X148657238Y-41580052D02*
X149286191Y-41580052D01*
X150205429Y-42596052D02*
X149721619Y-42596052D01*
X149721619Y-42596052D02*
X149673238Y-42112242D01*
X149673238Y-42112242D02*
X149721619Y-42160623D01*
X149721619Y-42160623D02*
X149818381Y-42209004D01*
X149818381Y-42209004D02*
X150060286Y-42209004D01*
X150060286Y-42209004D02*
X150157048Y-42160623D01*
X150157048Y-42160623D02*
X150205429Y-42112242D01*
X150205429Y-42112242D02*
X150253810Y-42015480D01*
X150253810Y-42015480D02*
X150253810Y-41773575D01*
X150253810Y-41773575D02*
X150205429Y-41676813D01*
X150205429Y-41676813D02*
X150157048Y-41628433D01*
X150157048Y-41628433D02*
X150060286Y-41580052D01*
X150060286Y-41580052D02*
X149818381Y-41580052D01*
X149818381Y-41580052D02*
X149721619Y-41628433D01*
X149721619Y-41628433D02*
X149673238Y-41676813D01*
X152818000Y-41676813D02*
X152769619Y-41628433D01*
X152769619Y-41628433D02*
X152624476Y-41580052D01*
X152624476Y-41580052D02*
X152527714Y-41580052D01*
X152527714Y-41580052D02*
X152382571Y-41628433D01*
X152382571Y-41628433D02*
X152285809Y-41725194D01*
X152285809Y-41725194D02*
X152237428Y-41821956D01*
X152237428Y-41821956D02*
X152189047Y-42015480D01*
X152189047Y-42015480D02*
X152189047Y-42160623D01*
X152189047Y-42160623D02*
X152237428Y-42354147D01*
X152237428Y-42354147D02*
X152285809Y-42450909D01*
X152285809Y-42450909D02*
X152382571Y-42547671D01*
X152382571Y-42547671D02*
X152527714Y-42596052D01*
X152527714Y-42596052D02*
X152624476Y-42596052D01*
X152624476Y-42596052D02*
X152769619Y-42547671D01*
X152769619Y-42547671D02*
X152818000Y-42499290D01*
X153834000Y-41676813D02*
X153785619Y-41628433D01*
X153785619Y-41628433D02*
X153640476Y-41580052D01*
X153640476Y-41580052D02*
X153543714Y-41580052D01*
X153543714Y-41580052D02*
X153398571Y-41628433D01*
X153398571Y-41628433D02*
X153301809Y-41725194D01*
X153301809Y-41725194D02*
X153253428Y-41821956D01*
X153253428Y-41821956D02*
X153205047Y-42015480D01*
X153205047Y-42015480D02*
X153205047Y-42160623D01*
X153205047Y-42160623D02*
X153253428Y-42354147D01*
X153253428Y-42354147D02*
X153301809Y-42450909D01*
X153301809Y-42450909D02*
X153398571Y-42547671D01*
X153398571Y-42547671D02*
X153543714Y-42596052D01*
X153543714Y-42596052D02*
X153640476Y-42596052D01*
X153640476Y-42596052D02*
X153785619Y-42547671D01*
X153785619Y-42547671D02*
X153834000Y-42499290D01*
X155382190Y-42112242D02*
X155527333Y-42063861D01*
X155527333Y-42063861D02*
X155575714Y-42015480D01*
X155575714Y-42015480D02*
X155624095Y-41918718D01*
X155624095Y-41918718D02*
X155624095Y-41773575D01*
X155624095Y-41773575D02*
X155575714Y-41676813D01*
X155575714Y-41676813D02*
X155527333Y-41628433D01*
X155527333Y-41628433D02*
X155430571Y-41580052D01*
X155430571Y-41580052D02*
X155043523Y-41580052D01*
X155043523Y-41580052D02*
X155043523Y-42596052D01*
X155043523Y-42596052D02*
X155382190Y-42596052D01*
X155382190Y-42596052D02*
X155478952Y-42547671D01*
X155478952Y-42547671D02*
X155527333Y-42499290D01*
X155527333Y-42499290D02*
X155575714Y-42402528D01*
X155575714Y-42402528D02*
X155575714Y-42305766D01*
X155575714Y-42305766D02*
X155527333Y-42209004D01*
X155527333Y-42209004D02*
X155478952Y-42160623D01*
X155478952Y-42160623D02*
X155382190Y-42112242D01*
X155382190Y-42112242D02*
X155043523Y-42112242D01*
X156253047Y-42063861D02*
X156253047Y-41580052D01*
X155914380Y-42596052D02*
X156253047Y-42063861D01*
X156253047Y-42063861D02*
X156591714Y-42596052D01*
X156930380Y-41967099D02*
X157704476Y-41967099D01*
X158139904Y-41628433D02*
X158285047Y-41580052D01*
X158285047Y-41580052D02*
X158526952Y-41580052D01*
X158526952Y-41580052D02*
X158623714Y-41628433D01*
X158623714Y-41628433D02*
X158672095Y-41676813D01*
X158672095Y-41676813D02*
X158720476Y-41773575D01*
X158720476Y-41773575D02*
X158720476Y-41870337D01*
X158720476Y-41870337D02*
X158672095Y-41967099D01*
X158672095Y-41967099D02*
X158623714Y-42015480D01*
X158623714Y-42015480D02*
X158526952Y-42063861D01*
X158526952Y-42063861D02*
X158333428Y-42112242D01*
X158333428Y-42112242D02*
X158236666Y-42160623D01*
X158236666Y-42160623D02*
X158188285Y-42209004D01*
X158188285Y-42209004D02*
X158139904Y-42305766D01*
X158139904Y-42305766D02*
X158139904Y-42402528D01*
X158139904Y-42402528D02*
X158188285Y-42499290D01*
X158188285Y-42499290D02*
X158236666Y-42547671D01*
X158236666Y-42547671D02*
X158333428Y-42596052D01*
X158333428Y-42596052D02*
X158575333Y-42596052D01*
X158575333Y-42596052D02*
X158720476Y-42547671D01*
X159107523Y-41870337D02*
X159591333Y-41870337D01*
X159010761Y-41580052D02*
X159349428Y-42596052D01*
X159349428Y-42596052D02*
X159688095Y-41580052D01*
X144859334Y-86746516D02*
X144810953Y-86698136D01*
X144810953Y-86698136D02*
X144665810Y-86649755D01*
X144665810Y-86649755D02*
X144569048Y-86649755D01*
X144569048Y-86649755D02*
X144423905Y-86698136D01*
X144423905Y-86698136D02*
X144327143Y-86794897D01*
X144327143Y-86794897D02*
X144278762Y-86891659D01*
X144278762Y-86891659D02*
X144230381Y-87085183D01*
X144230381Y-87085183D02*
X144230381Y-87230326D01*
X144230381Y-87230326D02*
X144278762Y-87423850D01*
X144278762Y-87423850D02*
X144327143Y-87520612D01*
X144327143Y-87520612D02*
X144423905Y-87617374D01*
X144423905Y-87617374D02*
X144569048Y-87665755D01*
X144569048Y-87665755D02*
X144665810Y-87665755D01*
X144665810Y-87665755D02*
X144810953Y-87617374D01*
X144810953Y-87617374D02*
X144859334Y-87568993D01*
X145294762Y-86649755D02*
X145294762Y-87665755D01*
X145875334Y-86649755D02*
X145439905Y-87230326D01*
X145875334Y-87665755D02*
X145294762Y-87085183D01*
X146165619Y-87665755D02*
X146746191Y-87665755D01*
X146455905Y-86649755D02*
X146455905Y-87665755D01*
X147084857Y-87036802D02*
X147858953Y-87036802D01*
X148294381Y-86940040D02*
X148778191Y-86940040D01*
X148197619Y-86649755D02*
X148536286Y-87665755D01*
X148536286Y-87665755D02*
X148874953Y-86649755D01*
X149116857Y-87665755D02*
X149794191Y-86649755D01*
X149794191Y-87665755D02*
X149116857Y-86649755D01*
X150665048Y-86649755D02*
X150181238Y-86649755D01*
X150181238Y-86649755D02*
X150181238Y-87665755D01*
X151003714Y-87181945D02*
X151342381Y-87181945D01*
X151487524Y-86649755D02*
X151003714Y-86649755D01*
X151003714Y-86649755D02*
X151003714Y-87665755D01*
X151003714Y-87665755D02*
X151487524Y-87665755D01*
X151922952Y-87036802D02*
X152697048Y-87036802D01*
X153519524Y-87181945D02*
X153664667Y-87133564D01*
X153664667Y-87133564D02*
X153713048Y-87085183D01*
X153713048Y-87085183D02*
X153761429Y-86988421D01*
X153761429Y-86988421D02*
X153761429Y-86843278D01*
X153761429Y-86843278D02*
X153713048Y-86746516D01*
X153713048Y-86746516D02*
X153664667Y-86698136D01*
X153664667Y-86698136D02*
X153567905Y-86649755D01*
X153567905Y-86649755D02*
X153180857Y-86649755D01*
X153180857Y-86649755D02*
X153180857Y-87665755D01*
X153180857Y-87665755D02*
X153519524Y-87665755D01*
X153519524Y-87665755D02*
X153616286Y-87617374D01*
X153616286Y-87617374D02*
X153664667Y-87568993D01*
X153664667Y-87568993D02*
X153713048Y-87472231D01*
X153713048Y-87472231D02*
X153713048Y-87375469D01*
X153713048Y-87375469D02*
X153664667Y-87278707D01*
X153664667Y-87278707D02*
X153616286Y-87230326D01*
X153616286Y-87230326D02*
X153519524Y-87181945D01*
X153519524Y-87181945D02*
X153180857Y-87181945D01*
X154148476Y-86940040D02*
X154632286Y-86940040D01*
X154051714Y-86649755D02*
X154390381Y-87665755D01*
X154390381Y-87665755D02*
X154729048Y-86649755D01*
X155648286Y-86649755D02*
X155309619Y-87133564D01*
X155067714Y-86649755D02*
X155067714Y-87665755D01*
X155067714Y-87665755D02*
X155454762Y-87665755D01*
X155454762Y-87665755D02*
X155551524Y-87617374D01*
X155551524Y-87617374D02*
X155599905Y-87568993D01*
X155599905Y-87568993D02*
X155648286Y-87472231D01*
X155648286Y-87472231D02*
X155648286Y-87327088D01*
X155648286Y-87327088D02*
X155599905Y-87230326D01*
X155599905Y-87230326D02*
X155551524Y-87181945D01*
X155551524Y-87181945D02*
X155454762Y-87133564D01*
X155454762Y-87133564D02*
X155067714Y-87133564D01*
X157535142Y-87327088D02*
X157777047Y-86649755D01*
X157777047Y-86649755D02*
X158018952Y-87327088D01*
X158938190Y-86649755D02*
X158357618Y-86649755D01*
X158647904Y-86649755D02*
X158647904Y-87665755D01*
X158647904Y-87665755D02*
X158551142Y-87520612D01*
X158551142Y-87520612D02*
X158454380Y-87423850D01*
X158454380Y-87423850D02*
X158357618Y-87375469D01*
X159373618Y-86746516D02*
X159421999Y-86698136D01*
X159421999Y-86698136D02*
X159373618Y-86649755D01*
X159373618Y-86649755D02*
X159325237Y-86698136D01*
X159325237Y-86698136D02*
X159373618Y-86746516D01*
X159373618Y-86746516D02*
X159373618Y-86649755D01*
X160050952Y-87665755D02*
X160147714Y-87665755D01*
X160147714Y-87665755D02*
X160244476Y-87617374D01*
X160244476Y-87617374D02*
X160292857Y-87568993D01*
X160292857Y-87568993D02*
X160341238Y-87472231D01*
X160341238Y-87472231D02*
X160389619Y-87278707D01*
X160389619Y-87278707D02*
X160389619Y-87036802D01*
X160389619Y-87036802D02*
X160341238Y-86843278D01*
X160341238Y-86843278D02*
X160292857Y-86746516D01*
X160292857Y-86746516D02*
X160244476Y-86698136D01*
X160244476Y-86698136D02*
X160147714Y-86649755D01*
X160147714Y-86649755D02*
X160050952Y-86649755D01*
X160050952Y-86649755D02*
X159954190Y-86698136D01*
X159954190Y-86698136D02*
X159905809Y-86746516D01*
X159905809Y-86746516D02*
X159857428Y-86843278D01*
X159857428Y-86843278D02*
X159809047Y-87036802D01*
X159809047Y-87036802D02*
X159809047Y-87278707D01*
X159809047Y-87278707D02*
X159857428Y-87472231D01*
X159857428Y-87472231D02*
X159905809Y-87568993D01*
X159905809Y-87568993D02*
X159954190Y-87617374D01*
X159954190Y-87617374D02*
X160050952Y-87665755D01*
X145899524Y-85788147D02*
X145802763Y-85836528D01*
X145802763Y-85836528D02*
X145609239Y-85836528D01*
X145609239Y-85836528D02*
X145512477Y-85788147D01*
X145512477Y-85788147D02*
X145415715Y-85691385D01*
X145415715Y-85691385D02*
X145367334Y-85594623D01*
X145367334Y-85594623D02*
X145367334Y-85401099D01*
X145367334Y-85401099D02*
X145415715Y-85304337D01*
X145415715Y-85304337D02*
X145512477Y-85207575D01*
X145512477Y-85207575D02*
X145609239Y-85159194D01*
X145609239Y-85159194D02*
X145802763Y-85159194D01*
X145802763Y-85159194D02*
X145899524Y-85207575D01*
X145706001Y-86175194D02*
X145464096Y-86126813D01*
X145464096Y-86126813D02*
X145222191Y-85981671D01*
X145222191Y-85981671D02*
X145077048Y-85739766D01*
X145077048Y-85739766D02*
X145028667Y-85497861D01*
X145028667Y-85497861D02*
X145077048Y-85255956D01*
X145077048Y-85255956D02*
X145222191Y-85014052D01*
X145222191Y-85014052D02*
X145464096Y-84868909D01*
X145464096Y-84868909D02*
X145706001Y-84820528D01*
X145706001Y-84820528D02*
X145947905Y-84868909D01*
X145947905Y-84868909D02*
X146189810Y-85014052D01*
X146189810Y-85014052D02*
X146334953Y-85255956D01*
X146334953Y-85255956D02*
X146383334Y-85497861D01*
X146383334Y-85497861D02*
X146334953Y-85739766D01*
X146334953Y-85739766D02*
X146189810Y-85981671D01*
X146189810Y-85981671D02*
X145947905Y-86126813D01*
X145947905Y-86126813D02*
X145706001Y-86175194D01*
X146770381Y-85933290D02*
X146818762Y-85981671D01*
X146818762Y-85981671D02*
X146915524Y-86030052D01*
X146915524Y-86030052D02*
X147157429Y-86030052D01*
X147157429Y-86030052D02*
X147254191Y-85981671D01*
X147254191Y-85981671D02*
X147302572Y-85933290D01*
X147302572Y-85933290D02*
X147350953Y-85836528D01*
X147350953Y-85836528D02*
X147350953Y-85739766D01*
X147350953Y-85739766D02*
X147302572Y-85594623D01*
X147302572Y-85594623D02*
X146722000Y-85014052D01*
X146722000Y-85014052D02*
X147350953Y-85014052D01*
X147979905Y-86030052D02*
X148076667Y-86030052D01*
X148076667Y-86030052D02*
X148173429Y-85981671D01*
X148173429Y-85981671D02*
X148221810Y-85933290D01*
X148221810Y-85933290D02*
X148270191Y-85836528D01*
X148270191Y-85836528D02*
X148318572Y-85643004D01*
X148318572Y-85643004D02*
X148318572Y-85401099D01*
X148318572Y-85401099D02*
X148270191Y-85207575D01*
X148270191Y-85207575D02*
X148221810Y-85110813D01*
X148221810Y-85110813D02*
X148173429Y-85062433D01*
X148173429Y-85062433D02*
X148076667Y-85014052D01*
X148076667Y-85014052D02*
X147979905Y-85014052D01*
X147979905Y-85014052D02*
X147883143Y-85062433D01*
X147883143Y-85062433D02*
X147834762Y-85110813D01*
X147834762Y-85110813D02*
X147786381Y-85207575D01*
X147786381Y-85207575D02*
X147738000Y-85401099D01*
X147738000Y-85401099D02*
X147738000Y-85643004D01*
X147738000Y-85643004D02*
X147786381Y-85836528D01*
X147786381Y-85836528D02*
X147834762Y-85933290D01*
X147834762Y-85933290D02*
X147883143Y-85981671D01*
X147883143Y-85981671D02*
X147979905Y-86030052D01*
X148705619Y-85933290D02*
X148754000Y-85981671D01*
X148754000Y-85981671D02*
X148850762Y-86030052D01*
X148850762Y-86030052D02*
X149092667Y-86030052D01*
X149092667Y-86030052D02*
X149189429Y-85981671D01*
X149189429Y-85981671D02*
X149237810Y-85933290D01*
X149237810Y-85933290D02*
X149286191Y-85836528D01*
X149286191Y-85836528D02*
X149286191Y-85739766D01*
X149286191Y-85739766D02*
X149237810Y-85594623D01*
X149237810Y-85594623D02*
X148657238Y-85014052D01*
X148657238Y-85014052D02*
X149286191Y-85014052D01*
X150205429Y-86030052D02*
X149721619Y-86030052D01*
X149721619Y-86030052D02*
X149673238Y-85546242D01*
X149673238Y-85546242D02*
X149721619Y-85594623D01*
X149721619Y-85594623D02*
X149818381Y-85643004D01*
X149818381Y-85643004D02*
X150060286Y-85643004D01*
X150060286Y-85643004D02*
X150157048Y-85594623D01*
X150157048Y-85594623D02*
X150205429Y-85546242D01*
X150205429Y-85546242D02*
X150253810Y-85449480D01*
X150253810Y-85449480D02*
X150253810Y-85207575D01*
X150253810Y-85207575D02*
X150205429Y-85110813D01*
X150205429Y-85110813D02*
X150157048Y-85062433D01*
X150157048Y-85062433D02*
X150060286Y-85014052D01*
X150060286Y-85014052D02*
X149818381Y-85014052D01*
X149818381Y-85014052D02*
X149721619Y-85062433D01*
X149721619Y-85062433D02*
X149673238Y-85110813D01*
X152818000Y-85110813D02*
X152769619Y-85062433D01*
X152769619Y-85062433D02*
X152624476Y-85014052D01*
X152624476Y-85014052D02*
X152527714Y-85014052D01*
X152527714Y-85014052D02*
X152382571Y-85062433D01*
X152382571Y-85062433D02*
X152285809Y-85159194D01*
X152285809Y-85159194D02*
X152237428Y-85255956D01*
X152237428Y-85255956D02*
X152189047Y-85449480D01*
X152189047Y-85449480D02*
X152189047Y-85594623D01*
X152189047Y-85594623D02*
X152237428Y-85788147D01*
X152237428Y-85788147D02*
X152285809Y-85884909D01*
X152285809Y-85884909D02*
X152382571Y-85981671D01*
X152382571Y-85981671D02*
X152527714Y-86030052D01*
X152527714Y-86030052D02*
X152624476Y-86030052D01*
X152624476Y-86030052D02*
X152769619Y-85981671D01*
X152769619Y-85981671D02*
X152818000Y-85933290D01*
X153834000Y-85110813D02*
X153785619Y-85062433D01*
X153785619Y-85062433D02*
X153640476Y-85014052D01*
X153640476Y-85014052D02*
X153543714Y-85014052D01*
X153543714Y-85014052D02*
X153398571Y-85062433D01*
X153398571Y-85062433D02*
X153301809Y-85159194D01*
X153301809Y-85159194D02*
X153253428Y-85255956D01*
X153253428Y-85255956D02*
X153205047Y-85449480D01*
X153205047Y-85449480D02*
X153205047Y-85594623D01*
X153205047Y-85594623D02*
X153253428Y-85788147D01*
X153253428Y-85788147D02*
X153301809Y-85884909D01*
X153301809Y-85884909D02*
X153398571Y-85981671D01*
X153398571Y-85981671D02*
X153543714Y-86030052D01*
X153543714Y-86030052D02*
X153640476Y-86030052D01*
X153640476Y-86030052D02*
X153785619Y-85981671D01*
X153785619Y-85981671D02*
X153834000Y-85933290D01*
X155382190Y-85546242D02*
X155527333Y-85497861D01*
X155527333Y-85497861D02*
X155575714Y-85449480D01*
X155575714Y-85449480D02*
X155624095Y-85352718D01*
X155624095Y-85352718D02*
X155624095Y-85207575D01*
X155624095Y-85207575D02*
X155575714Y-85110813D01*
X155575714Y-85110813D02*
X155527333Y-85062433D01*
X155527333Y-85062433D02*
X155430571Y-85014052D01*
X155430571Y-85014052D02*
X155043523Y-85014052D01*
X155043523Y-85014052D02*
X155043523Y-86030052D01*
X155043523Y-86030052D02*
X155382190Y-86030052D01*
X155382190Y-86030052D02*
X155478952Y-85981671D01*
X155478952Y-85981671D02*
X155527333Y-85933290D01*
X155527333Y-85933290D02*
X155575714Y-85836528D01*
X155575714Y-85836528D02*
X155575714Y-85739766D01*
X155575714Y-85739766D02*
X155527333Y-85643004D01*
X155527333Y-85643004D02*
X155478952Y-85594623D01*
X155478952Y-85594623D02*
X155382190Y-85546242D01*
X155382190Y-85546242D02*
X155043523Y-85546242D01*
X156253047Y-85497861D02*
X156253047Y-85014052D01*
X155914380Y-86030052D02*
X156253047Y-85497861D01*
X156253047Y-85497861D02*
X156591714Y-86030052D01*
X156930380Y-85401099D02*
X157704476Y-85401099D01*
X158139904Y-85062433D02*
X158285047Y-85014052D01*
X158285047Y-85014052D02*
X158526952Y-85014052D01*
X158526952Y-85014052D02*
X158623714Y-85062433D01*
X158623714Y-85062433D02*
X158672095Y-85110813D01*
X158672095Y-85110813D02*
X158720476Y-85207575D01*
X158720476Y-85207575D02*
X158720476Y-85304337D01*
X158720476Y-85304337D02*
X158672095Y-85401099D01*
X158672095Y-85401099D02*
X158623714Y-85449480D01*
X158623714Y-85449480D02*
X158526952Y-85497861D01*
X158526952Y-85497861D02*
X158333428Y-85546242D01*
X158333428Y-85546242D02*
X158236666Y-85594623D01*
X158236666Y-85594623D02*
X158188285Y-85643004D01*
X158188285Y-85643004D02*
X158139904Y-85739766D01*
X158139904Y-85739766D02*
X158139904Y-85836528D01*
X158139904Y-85836528D02*
X158188285Y-85933290D01*
X158188285Y-85933290D02*
X158236666Y-85981671D01*
X158236666Y-85981671D02*
X158333428Y-86030052D01*
X158333428Y-86030052D02*
X158575333Y-86030052D01*
X158575333Y-86030052D02*
X158720476Y-85981671D01*
X159107523Y-85304337D02*
X159591333Y-85304337D01*
X159010761Y-85014052D02*
X159349428Y-86030052D01*
X159349428Y-86030052D02*
X159688095Y-85014052D01*
X144859334Y-130180516D02*
X144810953Y-130132136D01*
X144810953Y-130132136D02*
X144665810Y-130083755D01*
X144665810Y-130083755D02*
X144569048Y-130083755D01*
X144569048Y-130083755D02*
X144423905Y-130132136D01*
X144423905Y-130132136D02*
X144327143Y-130228897D01*
X144327143Y-130228897D02*
X144278762Y-130325659D01*
X144278762Y-130325659D02*
X144230381Y-130519183D01*
X144230381Y-130519183D02*
X144230381Y-130664326D01*
X144230381Y-130664326D02*
X144278762Y-130857850D01*
X144278762Y-130857850D02*
X144327143Y-130954612D01*
X144327143Y-130954612D02*
X144423905Y-131051374D01*
X144423905Y-131051374D02*
X144569048Y-131099755D01*
X144569048Y-131099755D02*
X144665810Y-131099755D01*
X144665810Y-131099755D02*
X144810953Y-131051374D01*
X144810953Y-131051374D02*
X144859334Y-131002993D01*
X145294762Y-130083755D02*
X145294762Y-131099755D01*
X145875334Y-130083755D02*
X145439905Y-130664326D01*
X145875334Y-131099755D02*
X145294762Y-130519183D01*
X146165619Y-131099755D02*
X146746191Y-131099755D01*
X146455905Y-130083755D02*
X146455905Y-131099755D01*
X147084857Y-130470802D02*
X147858953Y-130470802D01*
X148294381Y-130374040D02*
X148778191Y-130374040D01*
X148197619Y-130083755D02*
X148536286Y-131099755D01*
X148536286Y-131099755D02*
X148874953Y-130083755D01*
X149116857Y-131099755D02*
X149794191Y-130083755D01*
X149794191Y-131099755D02*
X149116857Y-130083755D01*
X150665048Y-130083755D02*
X150181238Y-130083755D01*
X150181238Y-130083755D02*
X150181238Y-131099755D01*
X151003714Y-130615945D02*
X151342381Y-130615945D01*
X151487524Y-130083755D02*
X151003714Y-130083755D01*
X151003714Y-130083755D02*
X151003714Y-131099755D01*
X151003714Y-131099755D02*
X151487524Y-131099755D01*
X151922952Y-130470802D02*
X152697048Y-130470802D01*
X153519524Y-130615945D02*
X153664667Y-130567564D01*
X153664667Y-130567564D02*
X153713048Y-130519183D01*
X153713048Y-130519183D02*
X153761429Y-130422421D01*
X153761429Y-130422421D02*
X153761429Y-130277278D01*
X153761429Y-130277278D02*
X153713048Y-130180516D01*
X153713048Y-130180516D02*
X153664667Y-130132136D01*
X153664667Y-130132136D02*
X153567905Y-130083755D01*
X153567905Y-130083755D02*
X153180857Y-130083755D01*
X153180857Y-130083755D02*
X153180857Y-131099755D01*
X153180857Y-131099755D02*
X153519524Y-131099755D01*
X153519524Y-131099755D02*
X153616286Y-131051374D01*
X153616286Y-131051374D02*
X153664667Y-131002993D01*
X153664667Y-131002993D02*
X153713048Y-130906231D01*
X153713048Y-130906231D02*
X153713048Y-130809469D01*
X153713048Y-130809469D02*
X153664667Y-130712707D01*
X153664667Y-130712707D02*
X153616286Y-130664326D01*
X153616286Y-130664326D02*
X153519524Y-130615945D01*
X153519524Y-130615945D02*
X153180857Y-130615945D01*
X154148476Y-130374040D02*
X154632286Y-130374040D01*
X154051714Y-130083755D02*
X154390381Y-131099755D01*
X154390381Y-131099755D02*
X154729048Y-130083755D01*
X155648286Y-130083755D02*
X155309619Y-130567564D01*
X155067714Y-130083755D02*
X155067714Y-131099755D01*
X155067714Y-131099755D02*
X155454762Y-131099755D01*
X155454762Y-131099755D02*
X155551524Y-131051374D01*
X155551524Y-131051374D02*
X155599905Y-131002993D01*
X155599905Y-131002993D02*
X155648286Y-130906231D01*
X155648286Y-130906231D02*
X155648286Y-130761088D01*
X155648286Y-130761088D02*
X155599905Y-130664326D01*
X155599905Y-130664326D02*
X155551524Y-130615945D01*
X155551524Y-130615945D02*
X155454762Y-130567564D01*
X155454762Y-130567564D02*
X155067714Y-130567564D01*
X157535142Y-130761088D02*
X157777047Y-130083755D01*
X157777047Y-130083755D02*
X158018952Y-130761088D01*
X158938190Y-130083755D02*
X158357618Y-130083755D01*
X158647904Y-130083755D02*
X158647904Y-131099755D01*
X158647904Y-131099755D02*
X158551142Y-130954612D01*
X158551142Y-130954612D02*
X158454380Y-130857850D01*
X158454380Y-130857850D02*
X158357618Y-130809469D01*
X159373618Y-130180516D02*
X159421999Y-130132136D01*
X159421999Y-130132136D02*
X159373618Y-130083755D01*
X159373618Y-130083755D02*
X159325237Y-130132136D01*
X159325237Y-130132136D02*
X159373618Y-130180516D01*
X159373618Y-130180516D02*
X159373618Y-130083755D01*
X160050952Y-131099755D02*
X160147714Y-131099755D01*
X160147714Y-131099755D02*
X160244476Y-131051374D01*
X160244476Y-131051374D02*
X160292857Y-131002993D01*
X160292857Y-131002993D02*
X160341238Y-130906231D01*
X160341238Y-130906231D02*
X160389619Y-130712707D01*
X160389619Y-130712707D02*
X160389619Y-130470802D01*
X160389619Y-130470802D02*
X160341238Y-130277278D01*
X160341238Y-130277278D02*
X160292857Y-130180516D01*
X160292857Y-130180516D02*
X160244476Y-130132136D01*
X160244476Y-130132136D02*
X160147714Y-130083755D01*
X160147714Y-130083755D02*
X160050952Y-130083755D01*
X160050952Y-130083755D02*
X159954190Y-130132136D01*
X159954190Y-130132136D02*
X159905809Y-130180516D01*
X159905809Y-130180516D02*
X159857428Y-130277278D01*
X159857428Y-130277278D02*
X159809047Y-130470802D01*
X159809047Y-130470802D02*
X159809047Y-130712707D01*
X159809047Y-130712707D02*
X159857428Y-130906231D01*
X159857428Y-130906231D02*
X159905809Y-131002993D01*
X159905809Y-131002993D02*
X159954190Y-131051374D01*
X159954190Y-131051374D02*
X160050952Y-131099755D01*
X145899524Y-129222147D02*
X145802763Y-129270528D01*
X145802763Y-129270528D02*
X145609239Y-129270528D01*
X145609239Y-129270528D02*
X145512477Y-129222147D01*
X145512477Y-129222147D02*
X145415715Y-129125385D01*
X145415715Y-129125385D02*
X145367334Y-129028623D01*
X145367334Y-129028623D02*
X145367334Y-128835099D01*
X145367334Y-128835099D02*
X145415715Y-128738337D01*
X145415715Y-128738337D02*
X145512477Y-128641575D01*
X145512477Y-128641575D02*
X145609239Y-128593194D01*
X145609239Y-128593194D02*
X145802763Y-128593194D01*
X145802763Y-128593194D02*
X145899524Y-128641575D01*
X145706001Y-129609194D02*
X145464096Y-129560813D01*
X145464096Y-129560813D02*
X145222191Y-129415671D01*
X145222191Y-129415671D02*
X145077048Y-129173766D01*
X145077048Y-129173766D02*
X145028667Y-128931861D01*
X145028667Y-128931861D02*
X145077048Y-128689956D01*
X145077048Y-128689956D02*
X145222191Y-128448052D01*
X145222191Y-128448052D02*
X145464096Y-128302909D01*
X145464096Y-128302909D02*
X145706001Y-128254528D01*
X145706001Y-128254528D02*
X145947905Y-128302909D01*
X145947905Y-128302909D02*
X146189810Y-128448052D01*
X146189810Y-128448052D02*
X146334953Y-128689956D01*
X146334953Y-128689956D02*
X146383334Y-128931861D01*
X146383334Y-128931861D02*
X146334953Y-129173766D01*
X146334953Y-129173766D02*
X146189810Y-129415671D01*
X146189810Y-129415671D02*
X145947905Y-129560813D01*
X145947905Y-129560813D02*
X145706001Y-129609194D01*
X146770381Y-129367290D02*
X146818762Y-129415671D01*
X146818762Y-129415671D02*
X146915524Y-129464052D01*
X146915524Y-129464052D02*
X147157429Y-129464052D01*
X147157429Y-129464052D02*
X147254191Y-129415671D01*
X147254191Y-129415671D02*
X147302572Y-129367290D01*
X147302572Y-129367290D02*
X147350953Y-129270528D01*
X147350953Y-129270528D02*
X147350953Y-129173766D01*
X147350953Y-129173766D02*
X147302572Y-129028623D01*
X147302572Y-129028623D02*
X146722000Y-128448052D01*
X146722000Y-128448052D02*
X147350953Y-128448052D01*
X147979905Y-129464052D02*
X148076667Y-129464052D01*
X148076667Y-129464052D02*
X148173429Y-129415671D01*
X148173429Y-129415671D02*
X148221810Y-129367290D01*
X148221810Y-129367290D02*
X148270191Y-129270528D01*
X148270191Y-129270528D02*
X148318572Y-129077004D01*
X148318572Y-129077004D02*
X148318572Y-128835099D01*
X148318572Y-128835099D02*
X148270191Y-128641575D01*
X148270191Y-128641575D02*
X148221810Y-128544813D01*
X148221810Y-128544813D02*
X148173429Y-128496433D01*
X148173429Y-128496433D02*
X148076667Y-128448052D01*
X148076667Y-128448052D02*
X147979905Y-128448052D01*
X147979905Y-128448052D02*
X147883143Y-128496433D01*
X147883143Y-128496433D02*
X147834762Y-128544813D01*
X147834762Y-128544813D02*
X147786381Y-128641575D01*
X147786381Y-128641575D02*
X147738000Y-128835099D01*
X147738000Y-128835099D02*
X147738000Y-129077004D01*
X147738000Y-129077004D02*
X147786381Y-129270528D01*
X147786381Y-129270528D02*
X147834762Y-129367290D01*
X147834762Y-129367290D02*
X147883143Y-129415671D01*
X147883143Y-129415671D02*
X147979905Y-129464052D01*
X148705619Y-129367290D02*
X148754000Y-129415671D01*
X148754000Y-129415671D02*
X148850762Y-129464052D01*
X148850762Y-129464052D02*
X149092667Y-129464052D01*
X149092667Y-129464052D02*
X149189429Y-129415671D01*
X149189429Y-129415671D02*
X149237810Y-129367290D01*
X149237810Y-129367290D02*
X149286191Y-129270528D01*
X149286191Y-129270528D02*
X149286191Y-129173766D01*
X149286191Y-129173766D02*
X149237810Y-129028623D01*
X149237810Y-129028623D02*
X148657238Y-128448052D01*
X148657238Y-128448052D02*
X149286191Y-128448052D01*
X150205429Y-129464052D02*
X149721619Y-129464052D01*
X149721619Y-129464052D02*
X149673238Y-128980242D01*
X149673238Y-128980242D02*
X149721619Y-129028623D01*
X149721619Y-129028623D02*
X149818381Y-129077004D01*
X149818381Y-129077004D02*
X150060286Y-129077004D01*
X150060286Y-129077004D02*
X150157048Y-129028623D01*
X150157048Y-129028623D02*
X150205429Y-128980242D01*
X150205429Y-128980242D02*
X150253810Y-128883480D01*
X150253810Y-128883480D02*
X150253810Y-128641575D01*
X150253810Y-128641575D02*
X150205429Y-128544813D01*
X150205429Y-128544813D02*
X150157048Y-128496433D01*
X150157048Y-128496433D02*
X150060286Y-128448052D01*
X150060286Y-128448052D02*
X149818381Y-128448052D01*
X149818381Y-128448052D02*
X149721619Y-128496433D01*
X149721619Y-128496433D02*
X149673238Y-128544813D01*
X152818000Y-128544813D02*
X152769619Y-128496433D01*
X152769619Y-128496433D02*
X152624476Y-128448052D01*
X152624476Y-128448052D02*
X152527714Y-128448052D01*
X152527714Y-128448052D02*
X152382571Y-128496433D01*
X152382571Y-128496433D02*
X152285809Y-128593194D01*
X152285809Y-128593194D02*
X152237428Y-128689956D01*
X152237428Y-128689956D02*
X152189047Y-128883480D01*
X152189047Y-128883480D02*
X152189047Y-129028623D01*
X152189047Y-129028623D02*
X152237428Y-129222147D01*
X152237428Y-129222147D02*
X152285809Y-129318909D01*
X152285809Y-129318909D02*
X152382571Y-129415671D01*
X152382571Y-129415671D02*
X152527714Y-129464052D01*
X152527714Y-129464052D02*
X152624476Y-129464052D01*
X152624476Y-129464052D02*
X152769619Y-129415671D01*
X152769619Y-129415671D02*
X152818000Y-129367290D01*
X153834000Y-128544813D02*
X153785619Y-128496433D01*
X153785619Y-128496433D02*
X153640476Y-128448052D01*
X153640476Y-128448052D02*
X153543714Y-128448052D01*
X153543714Y-128448052D02*
X153398571Y-128496433D01*
X153398571Y-128496433D02*
X153301809Y-128593194D01*
X153301809Y-128593194D02*
X153253428Y-128689956D01*
X153253428Y-128689956D02*
X153205047Y-128883480D01*
X153205047Y-128883480D02*
X153205047Y-129028623D01*
X153205047Y-129028623D02*
X153253428Y-129222147D01*
X153253428Y-129222147D02*
X153301809Y-129318909D01*
X153301809Y-129318909D02*
X153398571Y-129415671D01*
X153398571Y-129415671D02*
X153543714Y-129464052D01*
X153543714Y-129464052D02*
X153640476Y-129464052D01*
X153640476Y-129464052D02*
X153785619Y-129415671D01*
X153785619Y-129415671D02*
X153834000Y-129367290D01*
X155382190Y-128980242D02*
X155527333Y-128931861D01*
X155527333Y-128931861D02*
X155575714Y-128883480D01*
X155575714Y-128883480D02*
X155624095Y-128786718D01*
X155624095Y-128786718D02*
X155624095Y-128641575D01*
X155624095Y-128641575D02*
X155575714Y-128544813D01*
X155575714Y-128544813D02*
X155527333Y-128496433D01*
X155527333Y-128496433D02*
X155430571Y-128448052D01*
X155430571Y-128448052D02*
X155043523Y-128448052D01*
X155043523Y-128448052D02*
X155043523Y-129464052D01*
X155043523Y-129464052D02*
X155382190Y-129464052D01*
X155382190Y-129464052D02*
X155478952Y-129415671D01*
X155478952Y-129415671D02*
X155527333Y-129367290D01*
X155527333Y-129367290D02*
X155575714Y-129270528D01*
X155575714Y-129270528D02*
X155575714Y-129173766D01*
X155575714Y-129173766D02*
X155527333Y-129077004D01*
X155527333Y-129077004D02*
X155478952Y-129028623D01*
X155478952Y-129028623D02*
X155382190Y-128980242D01*
X155382190Y-128980242D02*
X155043523Y-128980242D01*
X156253047Y-128931861D02*
X156253047Y-128448052D01*
X155914380Y-129464052D02*
X156253047Y-128931861D01*
X156253047Y-128931861D02*
X156591714Y-129464052D01*
X156930380Y-128835099D02*
X157704476Y-128835099D01*
X158139904Y-128496433D02*
X158285047Y-128448052D01*
X158285047Y-128448052D02*
X158526952Y-128448052D01*
X158526952Y-128448052D02*
X158623714Y-128496433D01*
X158623714Y-128496433D02*
X158672095Y-128544813D01*
X158672095Y-128544813D02*
X158720476Y-128641575D01*
X158720476Y-128641575D02*
X158720476Y-128738337D01*
X158720476Y-128738337D02*
X158672095Y-128835099D01*
X158672095Y-128835099D02*
X158623714Y-128883480D01*
X158623714Y-128883480D02*
X158526952Y-128931861D01*
X158526952Y-128931861D02*
X158333428Y-128980242D01*
X158333428Y-128980242D02*
X158236666Y-129028623D01*
X158236666Y-129028623D02*
X158188285Y-129077004D01*
X158188285Y-129077004D02*
X158139904Y-129173766D01*
X158139904Y-129173766D02*
X158139904Y-129270528D01*
X158139904Y-129270528D02*
X158188285Y-129367290D01*
X158188285Y-129367290D02*
X158236666Y-129415671D01*
X158236666Y-129415671D02*
X158333428Y-129464052D01*
X158333428Y-129464052D02*
X158575333Y-129464052D01*
X158575333Y-129464052D02*
X158720476Y-129415671D01*
X159107523Y-128738337D02*
X159591333Y-128738337D01*
X159010761Y-128448052D02*
X159349428Y-129464052D01*
X159349428Y-129464052D02*
X159688095Y-128448052D01*
M02*
