M48
INCH,TZ
T1C0.0197
%
G90
G05
T1
X52965Y-24833
X52965Y-25227
X52965Y-25621
X52965Y-26015
X52965Y-41933
X52965Y-42327
X52965Y-42721
X52965Y-43115
X52965Y-59033
X52965Y-59427
X52965Y-59821
X52965Y-60215
X63965Y-16283
X63965Y-16677
X63965Y-17071
X63965Y-17465
X63965Y-33383
X63965Y-33777
X63965Y-34171
X63965Y-34565
X63965Y-50483
X63965Y-50877
X63965Y-51271
X63965Y-51665
M30
